G04 #@! TF.FileFunction,Legend,Bot*
%FSLAX46Y46*%
G04 Gerber Fmt 4.6, Leading zero omitted, Abs format (unit mm)*
G04 Created by KiCad (PCBNEW 4.0.6+dfsg1-1) date Wed Jun  6 23:31:45 2018*
%MOMM*%
%LPD*%
G01*
G04 APERTURE LIST*
%ADD10C,0.100000*%
%ADD11C,0.120000*%
%ADD12C,0.152400*%
%ADD13C,0.150000*%
%ADD14C,0.050000*%
G04 APERTURE END LIST*
D10*
D11*
X121250000Y-78680000D02*
X122250000Y-78680000D01*
X122250000Y-77320000D02*
X121250000Y-77320000D01*
X127172721Y-67565614D02*
X126465614Y-68272721D01*
X127427279Y-69234386D02*
X128134386Y-68527279D01*
D10*
X128800000Y-162850000D02*
X128800000Y-163250000D01*
X125200000Y-162850000D02*
X125200000Y-163250000D01*
X130100000Y-170050000D02*
X130100000Y-169550000D01*
X130100000Y-170050000D02*
X129600000Y-170050000D01*
X130100000Y-162850000D02*
X128800000Y-162850000D01*
X130100000Y-162850000D02*
X130100000Y-163350000D01*
X123900000Y-162850000D02*
X125200000Y-162850000D01*
X123900000Y-162850000D02*
X123900000Y-163350000D01*
X123900000Y-170050000D02*
X124400000Y-170050000D01*
X123900000Y-170050000D02*
X123900000Y-169550000D01*
X123900000Y-162950000D02*
X125200000Y-162950000D01*
X123900000Y-163050000D02*
X125200000Y-163050000D01*
X123900000Y-163150000D02*
X125200000Y-163150000D01*
X123900000Y-163250000D02*
X125200000Y-163250000D01*
X130100000Y-162950000D02*
X128800000Y-162950000D01*
X130100000Y-163050000D02*
X128800000Y-163050000D01*
X130100000Y-163150000D02*
X128800000Y-163150000D01*
X130100000Y-163250000D02*
X128800000Y-163250000D01*
D11*
X125210000Y-120550000D02*
X125210000Y-123440000D01*
X125210000Y-129450000D02*
X125210000Y-126560000D01*
X114790000Y-130210000D02*
X114790000Y-126560000D01*
X114790000Y-119790000D02*
X114790000Y-123440000D01*
X114790000Y-130210000D02*
X124450000Y-130210000D01*
X124450000Y-130210000D02*
X125210000Y-129450000D01*
X125210000Y-120550000D02*
X124450000Y-119790000D01*
X124450000Y-119790000D02*
X114790000Y-119790000D01*
D12*
X124629400Y-158082800D02*
X124629400Y-159810000D01*
X117009400Y-153917200D02*
X117009400Y-152190000D01*
X117009400Y-152190000D02*
X124629400Y-152190000D01*
X124629400Y-152190000D02*
X124629400Y-153917200D01*
X124629400Y-159810000D02*
X117009400Y-159810000D01*
X117009400Y-159810000D02*
X117009400Y-158082800D01*
D11*
X211930000Y-69350000D02*
X211930000Y-68350000D01*
X210570000Y-68350000D02*
X210570000Y-69350000D01*
X206880000Y-69350000D02*
X206880000Y-68350000D01*
X205520000Y-68350000D02*
X205520000Y-69350000D01*
X215290000Y-69340000D02*
X215290000Y-68340000D01*
X213930000Y-68340000D02*
X213930000Y-69340000D01*
X213620000Y-69360000D02*
X213620000Y-68360000D01*
X212260000Y-68360000D02*
X212260000Y-69360000D01*
X226900000Y-103480000D02*
X227900000Y-103480000D01*
X227900000Y-102120000D02*
X226900000Y-102120000D01*
X222920000Y-100750000D02*
X222920000Y-101750000D01*
X224280000Y-101750000D02*
X224280000Y-100750000D01*
X222720000Y-92150000D02*
X222720000Y-93150000D01*
X224080000Y-93150000D02*
X224080000Y-92150000D01*
X222300000Y-85520000D02*
X221300000Y-85520000D01*
X221300000Y-86880000D02*
X222300000Y-86880000D01*
X210270000Y-69360000D02*
X210270000Y-68360000D01*
X208910000Y-68360000D02*
X208910000Y-69360000D01*
X208560000Y-69360000D02*
X208560000Y-68360000D01*
X207200000Y-68360000D02*
X207200000Y-69360000D01*
X200800000Y-92900000D02*
X200100000Y-92900000D01*
X200100000Y-94100000D02*
X200800000Y-94100000D01*
X211000000Y-92800000D02*
X210300000Y-92800000D01*
X210300000Y-94000000D02*
X211000000Y-94000000D01*
X205950000Y-92800000D02*
X205250000Y-92800000D01*
X205250000Y-94000000D02*
X205950000Y-94000000D01*
X163000000Y-171500000D02*
X162300000Y-171500000D01*
X162300000Y-172700000D02*
X163000000Y-172700000D01*
X152700000Y-171500000D02*
X152000000Y-171500000D01*
X152000000Y-172700000D02*
X152700000Y-172700000D01*
X218200000Y-140200000D02*
X218200000Y-139500000D01*
X217000000Y-139500000D02*
X217000000Y-140200000D01*
X195900000Y-92900000D02*
X195200000Y-92900000D01*
X195200000Y-94100000D02*
X195900000Y-94100000D01*
X157150000Y-172700000D02*
X157850000Y-172700000D01*
X157850000Y-171500000D02*
X157150000Y-171500000D01*
X163595999Y-190164127D02*
X159820129Y-192344127D01*
X156655999Y-178143695D02*
X160155999Y-184205873D01*
X223582443Y-139503695D02*
X156655999Y-178143695D01*
X227082443Y-145565873D02*
X223582443Y-139503695D01*
X167095999Y-196226305D02*
X163595999Y-190164127D01*
X234022443Y-157586305D02*
X167095999Y-196226305D01*
X230522443Y-151524127D02*
X234012443Y-157568985D01*
X236227832Y-151186152D02*
X234062769Y-152436152D01*
X160450610Y-194936152D02*
X162615673Y-193686152D01*
X160908141Y-193228621D02*
X162158141Y-195393684D01*
X123927178Y-99899413D02*
X121625156Y-100972863D01*
X120872896Y-99359635D02*
X123174918Y-98286185D01*
X120872896Y-99359635D02*
X121625156Y-100972863D01*
X123927178Y-99899413D02*
X123174918Y-98286185D01*
X125070000Y-80910000D02*
X122530000Y-80910000D01*
X122530000Y-79130000D02*
X125070000Y-79130000D01*
X122530000Y-79130000D02*
X122530000Y-80910000D01*
X125070000Y-80910000D02*
X125070000Y-79130000D01*
X122500000Y-81640000D02*
X125040000Y-81640000D01*
X125040000Y-83420000D02*
X122500000Y-83420000D01*
X125040000Y-83420000D02*
X125040000Y-81640000D01*
X122500000Y-81640000D02*
X122500000Y-83420000D01*
X203924167Y-185283013D02*
X203424167Y-184416987D01*
X203424167Y-184416987D02*
X205242820Y-183366987D01*
X203924167Y-185283013D02*
X205742820Y-184233013D01*
X196143494Y-188336103D02*
X195277468Y-188836103D01*
X195957468Y-190013897D02*
X196823494Y-189513897D01*
X194543494Y-185536103D02*
X193677468Y-186036103D01*
X194357468Y-187213897D02*
X195223494Y-186713897D01*
X128425000Y-142250000D02*
X128425000Y-143750000D01*
X128425000Y-143750000D02*
X127475000Y-143750000D01*
X127475000Y-143750000D02*
X127475000Y-148875000D01*
X118025000Y-142250000D02*
X118025000Y-143750000D01*
X118025000Y-143750000D02*
X118975000Y-143750000D01*
X118975000Y-143750000D02*
X118975000Y-144850000D01*
X205910000Y-88285000D02*
X205910000Y-85925000D01*
X202490000Y-88285000D02*
X202490000Y-85925000D01*
X154710000Y-178285000D02*
X154710000Y-175925000D01*
X151290000Y-178285000D02*
X151290000Y-175925000D01*
X138550000Y-172790000D02*
X141440000Y-172790000D01*
X147450000Y-172790000D02*
X144560000Y-172790000D01*
X148210000Y-183210000D02*
X144560000Y-183210000D01*
X137790000Y-183210000D02*
X141440000Y-183210000D01*
X148210000Y-183210000D02*
X148210000Y-173550000D01*
X148210000Y-173550000D02*
X147450000Y-172790000D01*
X138550000Y-172790000D02*
X137790000Y-173550000D01*
X137790000Y-173550000D02*
X137790000Y-183210000D01*
X130820000Y-144250000D02*
X130820000Y-145250000D01*
X132180000Y-145250000D02*
X132180000Y-144250000D01*
X141987107Y-62021421D02*
X142482081Y-61526447D01*
X141633553Y-60677919D02*
X141138579Y-61172893D01*
X144193553Y-63367919D02*
X143698579Y-63862893D01*
X144547107Y-64711421D02*
X145042081Y-64216447D01*
X138013553Y-81877919D02*
X137518579Y-82372893D01*
X138367107Y-83221421D02*
X138862081Y-82726447D01*
X122046447Y-72262081D02*
X122541421Y-71767107D01*
X121692893Y-70918579D02*
X121197919Y-71413553D01*
X134458579Y-63907107D02*
X134953553Y-64402081D01*
X135802081Y-63553553D02*
X135307107Y-63058579D01*
X123390000Y-88300000D02*
X123390000Y-87600000D01*
X122190000Y-87600000D02*
X122190000Y-88300000D01*
X139436447Y-84302081D02*
X139931421Y-83807107D01*
X139082893Y-82958579D02*
X138587919Y-83453553D01*
X120333223Y-69628249D02*
X119838249Y-70123223D01*
X120686777Y-70971751D02*
X121181751Y-70476777D01*
X143392893Y-69258579D02*
X142897919Y-69753553D01*
X143746447Y-70602081D02*
X144241421Y-70107107D01*
X122180000Y-90600000D02*
X122180000Y-91300000D01*
X123380000Y-91300000D02*
X123380000Y-90600000D01*
X119556447Y-69842081D02*
X120051421Y-69347107D01*
X119202893Y-68498579D02*
X118707919Y-68993553D01*
X126938299Y-81459620D02*
X127645406Y-80752513D01*
X128847487Y-81954594D02*
X128140380Y-82661701D01*
X133358579Y-65007107D02*
X133853553Y-65502081D01*
X134702081Y-64653553D02*
X134207107Y-64158579D01*
X163250000Y-74450000D02*
X163250000Y-75150000D01*
X164450000Y-75150000D02*
X164450000Y-74450000D01*
X175663637Y-75225263D02*
X175029221Y-75521096D01*
X175536363Y-76608665D02*
X176170779Y-76312832D01*
X145542391Y-66995944D02*
X144835284Y-67703051D01*
X145796949Y-68664716D02*
X146504056Y-67957609D01*
X121300000Y-77080000D02*
X122300000Y-77080000D01*
X122300000Y-75720000D02*
X121300000Y-75720000D01*
X131010000Y-87090000D02*
X131010000Y-88350000D01*
X131010000Y-93910000D02*
X131010000Y-92650000D01*
X127250000Y-87090000D02*
X131010000Y-87090000D01*
X125000000Y-93910000D02*
X131010000Y-93910000D01*
D13*
X133378858Y-67113604D02*
X134085965Y-67820711D01*
X126060303Y-74432159D02*
X126820443Y-75192299D01*
X133378858Y-81750714D02*
X132618718Y-80990574D01*
X140697413Y-74432159D02*
X139937273Y-73672019D01*
X133378858Y-67113604D02*
X132618718Y-67873744D01*
X140697413Y-74432159D02*
X139937273Y-75192299D01*
X133378858Y-81750714D02*
X134138998Y-80990574D01*
X126060303Y-74432159D02*
X126820443Y-73672019D01*
X134085965Y-67820711D02*
X134810749Y-67095926D01*
D11*
X140728248Y-68873833D02*
X136662384Y-64807969D01*
X136662384Y-64807969D02*
X139207969Y-62262384D01*
X139207969Y-62262384D02*
X143273833Y-66328248D01*
X133580000Y-129360000D02*
X131040000Y-129360000D01*
X131040000Y-127580000D02*
X133580000Y-127580000D01*
X131040000Y-127580000D02*
X131040000Y-129360000D01*
X133580000Y-129360000D02*
X133580000Y-127580000D01*
X125100000Y-85960000D02*
X122560000Y-85960000D01*
X122560000Y-84180000D02*
X125100000Y-84180000D01*
X122560000Y-84180000D02*
X122560000Y-85960000D01*
X125100000Y-85960000D02*
X125100000Y-84180000D01*
X202331347Y-182483013D02*
X201831347Y-181616987D01*
X201831347Y-181616987D02*
X203650000Y-180566987D01*
X202331347Y-182483013D02*
X204150000Y-181433013D01*
X203124167Y-183883013D02*
X202624167Y-183016987D01*
X202624167Y-183016987D02*
X204442820Y-181966987D01*
X203124167Y-183883013D02*
X204942820Y-182833013D01*
X201524167Y-181083013D02*
X201024167Y-180216987D01*
X201024167Y-180216987D02*
X202842820Y-179166987D01*
X201524167Y-181083013D02*
X203342820Y-180033013D01*
X141564950Y-91566462D02*
X141032451Y-90424515D01*
X138682694Y-85385443D02*
X139215193Y-86527391D01*
X144972668Y-89977418D02*
X141564950Y-91566462D01*
X144129604Y-82845508D02*
X138682694Y-85385443D01*
X195343494Y-186936103D02*
X194477468Y-187436103D01*
X195157468Y-188613897D02*
X196023494Y-188113897D01*
X130760000Y-86480000D02*
X131760000Y-86480000D01*
X131760000Y-85120000D02*
X130760000Y-85120000D01*
X193743013Y-184136103D02*
X192876987Y-184636103D01*
X193556987Y-185813897D02*
X194423013Y-185313897D01*
D13*
X221593755Y-80545585D02*
X218482485Y-77434315D01*
X226614213Y-77752513D02*
X222389250Y-73527550D01*
X216251472Y-85887868D02*
X213140202Y-82776598D01*
X221271930Y-83094796D02*
X217046967Y-78869833D01*
D11*
X180250000Y-61200000D02*
X179600000Y-61200000D01*
X176550000Y-61200000D02*
X177200000Y-61200000D01*
X177200000Y-67400000D02*
X176550000Y-67400000D01*
X180250000Y-67400000D02*
X179600000Y-67400000D01*
X180250000Y-61200000D02*
X180250000Y-67400000D01*
X176550000Y-67400000D02*
X176550000Y-61200000D01*
X152091701Y-84263637D02*
X151795868Y-83629221D01*
X150708299Y-84136363D02*
X151004132Y-84770779D01*
X191250000Y-61400000D02*
X190600000Y-61400000D01*
X187550000Y-61400000D02*
X188200000Y-61400000D01*
X188200000Y-67600000D02*
X187550000Y-67600000D01*
X191250000Y-67600000D02*
X190600000Y-67600000D01*
X191250000Y-61400000D02*
X191250000Y-67600000D01*
X187550000Y-67600000D02*
X187550000Y-61400000D01*
X133200000Y-57350000D02*
X133200000Y-58000000D01*
X133200000Y-61050000D02*
X133200000Y-60400000D01*
X139400000Y-60400000D02*
X139400000Y-61050000D01*
X139400000Y-57350000D02*
X139400000Y-58000000D01*
X133200000Y-57350000D02*
X139400000Y-57350000D01*
X139400000Y-61050000D02*
X133200000Y-61050000D01*
X147669462Y-86285251D02*
X148512328Y-85892216D01*
X150533394Y-84949777D02*
X149690528Y-85342812D01*
X150533394Y-84949777D02*
X151446250Y-86907402D01*
X147669462Y-86285251D02*
X148286484Y-87608460D01*
D10*
X117700000Y-73650000D02*
X117200000Y-73650000D01*
X119450000Y-76050000D02*
X119450000Y-75750000D01*
X117700000Y-81750000D02*
X117250000Y-81750000D01*
X119450000Y-79600000D02*
X119450000Y-79300000D01*
X114500000Y-81750000D02*
X113700000Y-81750000D01*
X113700000Y-81750000D02*
X113700000Y-81250000D01*
X113700000Y-74100000D02*
X113700000Y-73650000D01*
X113700000Y-73650000D02*
X114550000Y-73650000D01*
D11*
X192370885Y-76566134D02*
X196322387Y-74723518D01*
X198236827Y-89145686D02*
X195278499Y-82801531D01*
X128197361Y-121805625D02*
X198236827Y-89145686D01*
X125239033Y-115461470D02*
X128197361Y-121805625D01*
X189412557Y-70221979D02*
X192370885Y-76566134D01*
X119373091Y-102881918D02*
X189412557Y-70221979D01*
X122331419Y-109226073D02*
X119381544Y-102900044D01*
X116618284Y-109065504D02*
X118884053Y-108008959D01*
X195920215Y-72086406D02*
X193654446Y-73142952D01*
X195315603Y-73747564D02*
X194259058Y-71481794D01*
D13*
X171950000Y-73400000D02*
X171425000Y-73400000D01*
X167650000Y-77700000D02*
X168175000Y-77700000D01*
X167650000Y-73400000D02*
X168175000Y-73400000D01*
X171950000Y-77700000D02*
X171950000Y-77175000D01*
X167650000Y-77700000D02*
X167650000Y-77175000D01*
X167650000Y-73400000D02*
X167650000Y-73925000D01*
X171950000Y-73400000D02*
X171950000Y-73925000D01*
X122392857Y-77002381D02*
X122726191Y-76526190D01*
X122964286Y-77002381D02*
X122964286Y-76002381D01*
X122583333Y-76002381D01*
X122488095Y-76050000D01*
X122440476Y-76097619D01*
X122392857Y-76192857D01*
X122392857Y-76335714D01*
X122440476Y-76430952D01*
X122488095Y-76478571D01*
X122583333Y-76526190D01*
X122964286Y-76526190D01*
X121440476Y-77002381D02*
X122011905Y-77002381D01*
X121726191Y-77002381D02*
X121726191Y-76002381D01*
X121821429Y-76145238D01*
X121916667Y-76240476D01*
X122011905Y-76288095D01*
X120964286Y-77002381D02*
X120773810Y-77002381D01*
X120678571Y-76954762D01*
X120630952Y-76907143D01*
X120535714Y-76764286D01*
X120488095Y-76573810D01*
X120488095Y-76192857D01*
X120535714Y-76097619D01*
X120583333Y-76050000D01*
X120678571Y-76002381D01*
X120869048Y-76002381D01*
X120964286Y-76050000D01*
X121011905Y-76097619D01*
X121059524Y-76192857D01*
X121059524Y-76430952D01*
X121011905Y-76526190D01*
X120964286Y-76573810D01*
X120869048Y-76621429D01*
X120678571Y-76621429D01*
X120583333Y-76573810D01*
X120535714Y-76526190D01*
X120488095Y-76430952D01*
X126774450Y-67865313D02*
X126673435Y-67292893D01*
X127178512Y-67461252D02*
X126471405Y-66754145D01*
X126202030Y-67023519D01*
X126168359Y-67124535D01*
X126168359Y-67191878D01*
X126202030Y-67292893D01*
X126303045Y-67393908D01*
X126404061Y-67427580D01*
X126471404Y-67427580D01*
X126572419Y-67393908D01*
X126841794Y-67124534D01*
X126101015Y-68538748D02*
X126505076Y-68134687D01*
X126303046Y-68336717D02*
X125595939Y-67629610D01*
X125764298Y-67663282D01*
X125898985Y-67663282D01*
X126000000Y-67629610D01*
X125023519Y-68673435D02*
X125494924Y-69144840D01*
X124922504Y-68235702D02*
X125595939Y-68572420D01*
X125158206Y-69010153D01*
X123098571Y-158807143D02*
X123146190Y-158950000D01*
X123193810Y-158997619D01*
X123289048Y-159045238D01*
X123431905Y-159045238D01*
X123527143Y-158997619D01*
X123574762Y-158950000D01*
X123622381Y-158854762D01*
X123622381Y-158473809D01*
X122622381Y-158473809D01*
X122622381Y-158807143D01*
X122670000Y-158902381D01*
X122717619Y-158950000D01*
X122812857Y-158997619D01*
X122908095Y-158997619D01*
X123003333Y-158950000D01*
X123050952Y-158902381D01*
X123098571Y-158807143D01*
X123098571Y-158473809D01*
X123336667Y-159426190D02*
X123336667Y-159902381D01*
X123622381Y-159330952D02*
X122622381Y-159664285D01*
X123622381Y-159997619D01*
X122622381Y-160188095D02*
X122622381Y-160759524D01*
X123622381Y-160473809D02*
X122622381Y-160473809D01*
X122622381Y-160950000D02*
X122622381Y-161521429D01*
X123622381Y-161235714D02*
X122622381Y-161235714D01*
X123241429Y-161854762D02*
X123241429Y-162616667D01*
X123098571Y-163426191D02*
X123146190Y-163569048D01*
X123193810Y-163616667D01*
X123289048Y-163664286D01*
X123431905Y-163664286D01*
X123527143Y-163616667D01*
X123574762Y-163569048D01*
X123622381Y-163473810D01*
X123622381Y-163092857D01*
X122622381Y-163092857D01*
X122622381Y-163426191D01*
X122670000Y-163521429D01*
X122717619Y-163569048D01*
X122812857Y-163616667D01*
X122908095Y-163616667D01*
X123003333Y-163569048D01*
X123050952Y-163521429D01*
X123098571Y-163426191D01*
X123098571Y-163092857D01*
X122622381Y-164092857D02*
X123431905Y-164092857D01*
X123527143Y-164140476D01*
X123574762Y-164188095D01*
X123622381Y-164283333D01*
X123622381Y-164473810D01*
X123574762Y-164569048D01*
X123527143Y-164616667D01*
X123431905Y-164664286D01*
X122622381Y-164664286D01*
X123527143Y-165711905D02*
X123574762Y-165664286D01*
X123622381Y-165521429D01*
X123622381Y-165426191D01*
X123574762Y-165283333D01*
X123479524Y-165188095D01*
X123384286Y-165140476D01*
X123193810Y-165092857D01*
X123050952Y-165092857D01*
X122860476Y-165140476D01*
X122765238Y-165188095D01*
X122670000Y-165283333D01*
X122622381Y-165426191D01*
X122622381Y-165521429D01*
X122670000Y-165664286D01*
X122717619Y-165711905D01*
X123622381Y-166140476D02*
X122622381Y-166140476D01*
X123622381Y-166711905D02*
X123050952Y-166283333D01*
X122622381Y-166711905D02*
X123193810Y-166140476D01*
X123241429Y-167140476D02*
X123241429Y-167902381D01*
X123574762Y-168330952D02*
X123622381Y-168473809D01*
X123622381Y-168711905D01*
X123574762Y-168807143D01*
X123527143Y-168854762D01*
X123431905Y-168902381D01*
X123336667Y-168902381D01*
X123241429Y-168854762D01*
X123193810Y-168807143D01*
X123146190Y-168711905D01*
X123098571Y-168521428D01*
X123050952Y-168426190D01*
X123003333Y-168378571D01*
X122908095Y-168330952D01*
X122812857Y-168330952D01*
X122717619Y-168378571D01*
X122670000Y-168426190D01*
X122622381Y-168521428D01*
X122622381Y-168759524D01*
X122670000Y-168902381D01*
X123527143Y-169902381D02*
X123574762Y-169854762D01*
X123622381Y-169711905D01*
X123622381Y-169616667D01*
X123574762Y-169473809D01*
X123479524Y-169378571D01*
X123384286Y-169330952D01*
X123193810Y-169283333D01*
X123050952Y-169283333D01*
X122860476Y-169330952D01*
X122765238Y-169378571D01*
X122670000Y-169473809D01*
X122622381Y-169616667D01*
X122622381Y-169711905D01*
X122670000Y-169854762D01*
X122717619Y-169902381D01*
X123622381Y-170330952D02*
X122622381Y-170330952D01*
X123098571Y-170330952D02*
X123098571Y-170902381D01*
X123622381Y-170902381D02*
X122622381Y-170902381D01*
X122622381Y-171569047D02*
X122622381Y-171759524D01*
X122670000Y-171854762D01*
X122765238Y-171950000D01*
X122955714Y-171997619D01*
X123289048Y-171997619D01*
X123479524Y-171950000D01*
X123574762Y-171854762D01*
X123622381Y-171759524D01*
X123622381Y-171569047D01*
X123574762Y-171473809D01*
X123479524Y-171378571D01*
X123289048Y-171330952D01*
X122955714Y-171330952D01*
X122765238Y-171378571D01*
X122670000Y-171473809D01*
X122622381Y-171569047D01*
X122622381Y-172283333D02*
X122622381Y-172854762D01*
X123622381Y-172569047D02*
X122622381Y-172569047D01*
X122622381Y-173045238D02*
X122622381Y-173616667D01*
X123622381Y-173330952D02*
X122622381Y-173330952D01*
X123622381Y-174473810D02*
X123622381Y-173902381D01*
X123622381Y-174188095D02*
X122622381Y-174188095D01*
X122765238Y-174092857D01*
X122860476Y-173997619D01*
X122908095Y-173902381D01*
X126785714Y-131388571D02*
X126642857Y-131436190D01*
X126595238Y-131483810D01*
X126547619Y-131579048D01*
X126547619Y-131721905D01*
X126595238Y-131817143D01*
X126642857Y-131864762D01*
X126738095Y-131912381D01*
X127119048Y-131912381D01*
X127119048Y-130912381D01*
X126785714Y-130912381D01*
X126690476Y-130960000D01*
X126642857Y-131007619D01*
X126595238Y-131102857D01*
X126595238Y-131198095D01*
X126642857Y-131293333D01*
X126690476Y-131340952D01*
X126785714Y-131388571D01*
X127119048Y-131388571D01*
X126166667Y-131626667D02*
X125690476Y-131626667D01*
X126261905Y-131912381D02*
X125928572Y-130912381D01*
X125595238Y-131912381D01*
X125404762Y-130912381D02*
X124833333Y-130912381D01*
X125119048Y-131912381D02*
X125119048Y-130912381D01*
X124642857Y-130912381D02*
X124071428Y-130912381D01*
X124357143Y-131912381D02*
X124357143Y-130912381D01*
X123738095Y-131531429D02*
X122976190Y-131531429D01*
X122166666Y-131388571D02*
X122023809Y-131436190D01*
X121976190Y-131483810D01*
X121928571Y-131579048D01*
X121928571Y-131721905D01*
X121976190Y-131817143D01*
X122023809Y-131864762D01*
X122119047Y-131912381D01*
X122500000Y-131912381D01*
X122500000Y-130912381D01*
X122166666Y-130912381D01*
X122071428Y-130960000D01*
X122023809Y-131007619D01*
X121976190Y-131102857D01*
X121976190Y-131198095D01*
X122023809Y-131293333D01*
X122071428Y-131340952D01*
X122166666Y-131388571D01*
X122500000Y-131388571D01*
X121500000Y-130912381D02*
X121500000Y-131721905D01*
X121452381Y-131817143D01*
X121404762Y-131864762D01*
X121309524Y-131912381D01*
X121119047Y-131912381D01*
X121023809Y-131864762D01*
X120976190Y-131817143D01*
X120928571Y-131721905D01*
X120928571Y-130912381D01*
X119880952Y-131817143D02*
X119928571Y-131864762D01*
X120071428Y-131912381D01*
X120166666Y-131912381D01*
X120309524Y-131864762D01*
X120404762Y-131769524D01*
X120452381Y-131674286D01*
X120500000Y-131483810D01*
X120500000Y-131340952D01*
X120452381Y-131150476D01*
X120404762Y-131055238D01*
X120309524Y-130960000D01*
X120166666Y-130912381D01*
X120071428Y-130912381D01*
X119928571Y-130960000D01*
X119880952Y-131007619D01*
X119452381Y-131912381D02*
X119452381Y-130912381D01*
X118880952Y-131912381D02*
X119309524Y-131340952D01*
X118880952Y-130912381D02*
X119452381Y-131483810D01*
X118452381Y-131531429D02*
X117690476Y-131531429D01*
X116642857Y-131817143D02*
X116690476Y-131864762D01*
X116833333Y-131912381D01*
X116928571Y-131912381D01*
X117071429Y-131864762D01*
X117166667Y-131769524D01*
X117214286Y-131674286D01*
X117261905Y-131483810D01*
X117261905Y-131340952D01*
X117214286Y-131150476D01*
X117166667Y-131055238D01*
X117071429Y-130960000D01*
X116928571Y-130912381D01*
X116833333Y-130912381D01*
X116690476Y-130960000D01*
X116642857Y-131007619D01*
X116023810Y-130912381D02*
X115833333Y-130912381D01*
X115738095Y-130960000D01*
X115642857Y-131055238D01*
X115595238Y-131245714D01*
X115595238Y-131579048D01*
X115642857Y-131769524D01*
X115738095Y-131864762D01*
X115833333Y-131912381D01*
X116023810Y-131912381D01*
X116119048Y-131864762D01*
X116214286Y-131769524D01*
X116261905Y-131579048D01*
X116261905Y-131245714D01*
X116214286Y-131055238D01*
X116119048Y-130960000D01*
X116023810Y-130912381D01*
X115166667Y-130912381D02*
X115166667Y-131721905D01*
X115119048Y-131817143D01*
X115071429Y-131864762D01*
X114976191Y-131912381D01*
X114785714Y-131912381D01*
X114690476Y-131864762D01*
X114642857Y-131817143D01*
X114595238Y-131721905D01*
X114595238Y-130912381D01*
X114261905Y-130912381D02*
X113690476Y-130912381D01*
X113976191Y-131912381D02*
X113976191Y-130912381D01*
X112833333Y-131912381D02*
X113404762Y-131912381D01*
X113119048Y-131912381D02*
X113119048Y-130912381D01*
X113214286Y-131055238D01*
X113309524Y-131150476D01*
X113404762Y-131198095D01*
X126160952Y-130041429D02*
X125399047Y-130041429D01*
X125779999Y-130422381D02*
X125779999Y-129660476D01*
D14*
X132167485Y-161401684D02*
X131932894Y-161479881D01*
X131854697Y-161558079D01*
X131776500Y-161714473D01*
X131776500Y-161949064D01*
X131854697Y-162105459D01*
X131932894Y-162183656D01*
X132089288Y-162261853D01*
X132714865Y-162261853D01*
X132714865Y-160619713D01*
X132167485Y-160619713D01*
X132011091Y-160697910D01*
X131932894Y-160776107D01*
X131854697Y-160932501D01*
X131854697Y-161088896D01*
X131932894Y-161245290D01*
X132011091Y-161323487D01*
X132167485Y-161401684D01*
X132714865Y-161401684D01*
X131150922Y-161792670D02*
X130368951Y-161792670D01*
X131307317Y-162261853D02*
X130759937Y-160619713D01*
X130212557Y-162261853D01*
X129899768Y-160619713D02*
X128961402Y-160619713D01*
X129430585Y-162261853D02*
X129430585Y-160619713D01*
X128648614Y-160619713D02*
X127710248Y-160619713D01*
X128179431Y-162261853D02*
X128179431Y-160619713D01*
X127162868Y-161636276D02*
X125911714Y-161636276D01*
X124582362Y-161401684D02*
X124347771Y-161479881D01*
X124269574Y-161558079D01*
X124191377Y-161714473D01*
X124191377Y-161949064D01*
X124269574Y-162105459D01*
X124347771Y-162183656D01*
X124504165Y-162261853D01*
X125129742Y-162261853D01*
X125129742Y-160619713D01*
X124582362Y-160619713D01*
X124425968Y-160697910D01*
X124347771Y-160776107D01*
X124269574Y-160932501D01*
X124269574Y-161088896D01*
X124347771Y-161245290D01*
X124425968Y-161323487D01*
X124582362Y-161401684D01*
X125129742Y-161401684D01*
X123487602Y-160619713D02*
X123487602Y-161949064D01*
X123409405Y-162105459D01*
X123331208Y-162183656D01*
X123174814Y-162261853D01*
X122862025Y-162261853D01*
X122705631Y-162183656D01*
X122627434Y-162105459D01*
X122549237Y-161949064D01*
X122549237Y-160619713D01*
X120828900Y-162105459D02*
X120907097Y-162183656D01*
X121141688Y-162261853D01*
X121298082Y-162261853D01*
X121532674Y-162183656D01*
X121689068Y-162027261D01*
X121767265Y-161870867D01*
X121845462Y-161558079D01*
X121845462Y-161323487D01*
X121767265Y-161010699D01*
X121689068Y-160854304D01*
X121532674Y-160697910D01*
X121298082Y-160619713D01*
X121141688Y-160619713D01*
X120907097Y-160697910D01*
X120828900Y-160776107D01*
X120125125Y-162261853D02*
X120125125Y-160619713D01*
X119186760Y-162261853D02*
X119890534Y-161323487D01*
X119186760Y-160619713D02*
X120125125Y-161558079D01*
X118482985Y-161636276D02*
X117231831Y-161636276D01*
X116449859Y-162261853D02*
X116449859Y-160619713D01*
X115667888Y-162261853D02*
X115667888Y-160619713D01*
X114729523Y-162261853D01*
X114729523Y-160619713D01*
X113947551Y-162261853D02*
X113947551Y-160619713D01*
X113556566Y-160619713D01*
X113321974Y-160697910D01*
X113165580Y-160854304D01*
X113087383Y-161010699D01*
X113009186Y-161323487D01*
X113009186Y-161558079D01*
X113087383Y-161870867D01*
X113165580Y-162027261D01*
X113321974Y-162183656D01*
X113556566Y-162261853D01*
X113947551Y-162261853D01*
X112305411Y-160619713D02*
X112305411Y-161949064D01*
X112227214Y-162105459D01*
X112149017Y-162183656D01*
X111992623Y-162261853D01*
X111679834Y-162261853D01*
X111523440Y-162183656D01*
X111445243Y-162105459D01*
X111367046Y-161949064D01*
X111367046Y-160619713D01*
X109646709Y-162105459D02*
X109724906Y-162183656D01*
X109959497Y-162261853D01*
X110115891Y-162261853D01*
X110350483Y-162183656D01*
X110506877Y-162027261D01*
X110585074Y-161870867D01*
X110663271Y-161558079D01*
X110663271Y-161323487D01*
X110585074Y-161010699D01*
X110506877Y-160854304D01*
X110350483Y-160697910D01*
X110115891Y-160619713D01*
X109959497Y-160619713D01*
X109724906Y-160697910D01*
X109646709Y-160776107D01*
X108082766Y-162261853D02*
X109021131Y-162261853D01*
X108551949Y-162261853D02*
X108551949Y-160619713D01*
X108708343Y-160854304D01*
X108864737Y-161010699D01*
X109021131Y-161088896D01*
X122664707Y-150046351D02*
X122664707Y-151142298D01*
X123056117Y-149420096D02*
X123447526Y-150594325D01*
X122429862Y-150594325D01*
X121099069Y-150046351D02*
X121099069Y-151142298D01*
X121490479Y-149420096D02*
X121881888Y-150594325D01*
X120864224Y-150594325D01*
X119533431Y-150046351D02*
X119533431Y-151142298D01*
X120237968Y-150046351D02*
X120237968Y-150907452D01*
X120159687Y-151064016D01*
X120003123Y-151142298D01*
X119768277Y-151142298D01*
X119611713Y-151064016D01*
X119533431Y-150985734D01*
X118750612Y-151142298D02*
X118750612Y-149498378D01*
X118750612Y-150281197D02*
X117811230Y-150281197D01*
X117811230Y-151142298D02*
X117811230Y-149498378D01*
D13*
X211802381Y-65033334D02*
X211326190Y-64700000D01*
X211802381Y-64461905D02*
X210802381Y-64461905D01*
X210802381Y-64842858D01*
X210850000Y-64938096D01*
X210897619Y-64985715D01*
X210992857Y-65033334D01*
X211135714Y-65033334D01*
X211230952Y-64985715D01*
X211278571Y-64938096D01*
X211326190Y-64842858D01*
X211326190Y-64461905D01*
X211135714Y-65890477D02*
X211802381Y-65890477D01*
X210754762Y-65652381D02*
X211469048Y-65414286D01*
X211469048Y-66033334D01*
X206652381Y-65133334D02*
X206176190Y-64800000D01*
X206652381Y-64561905D02*
X205652381Y-64561905D01*
X205652381Y-64942858D01*
X205700000Y-65038096D01*
X205747619Y-65085715D01*
X205842857Y-65133334D01*
X205985714Y-65133334D01*
X206080952Y-65085715D01*
X206128571Y-65038096D01*
X206176190Y-64942858D01*
X206176190Y-64561905D01*
X205652381Y-66038096D02*
X205652381Y-65561905D01*
X206128571Y-65514286D01*
X206080952Y-65561905D01*
X206033333Y-65657143D01*
X206033333Y-65895239D01*
X206080952Y-65990477D01*
X206128571Y-66038096D01*
X206223810Y-66085715D01*
X206461905Y-66085715D01*
X206557143Y-66038096D01*
X206604762Y-65990477D01*
X206652381Y-65895239D01*
X206652381Y-65657143D01*
X206604762Y-65561905D01*
X206557143Y-65514286D01*
X215062381Y-65023334D02*
X214586190Y-64690000D01*
X215062381Y-64451905D02*
X214062381Y-64451905D01*
X214062381Y-64832858D01*
X214110000Y-64928096D01*
X214157619Y-64975715D01*
X214252857Y-65023334D01*
X214395714Y-65023334D01*
X214490952Y-64975715D01*
X214538571Y-64928096D01*
X214586190Y-64832858D01*
X214586190Y-64451905D01*
X214062381Y-65880477D02*
X214062381Y-65690000D01*
X214110000Y-65594762D01*
X214157619Y-65547143D01*
X214300476Y-65451905D01*
X214490952Y-65404286D01*
X214871905Y-65404286D01*
X214967143Y-65451905D01*
X215014762Y-65499524D01*
X215062381Y-65594762D01*
X215062381Y-65785239D01*
X215014762Y-65880477D01*
X214967143Y-65928096D01*
X214871905Y-65975715D01*
X214633810Y-65975715D01*
X214538571Y-65928096D01*
X214490952Y-65880477D01*
X214443333Y-65785239D01*
X214443333Y-65594762D01*
X214490952Y-65499524D01*
X214538571Y-65451905D01*
X214633810Y-65404286D01*
X213392381Y-65143334D02*
X212916190Y-64810000D01*
X213392381Y-64571905D02*
X212392381Y-64571905D01*
X212392381Y-64952858D01*
X212440000Y-65048096D01*
X212487619Y-65095715D01*
X212582857Y-65143334D01*
X212725714Y-65143334D01*
X212820952Y-65095715D01*
X212868571Y-65048096D01*
X212916190Y-64952858D01*
X212916190Y-64571905D01*
X212392381Y-65476667D02*
X212392381Y-66143334D01*
X213392381Y-65714762D01*
X225366666Y-103252381D02*
X225700000Y-102776190D01*
X225938095Y-103252381D02*
X225938095Y-102252381D01*
X225557142Y-102252381D01*
X225461904Y-102300000D01*
X225414285Y-102347619D01*
X225366666Y-102442857D01*
X225366666Y-102585714D01*
X225414285Y-102680952D01*
X225461904Y-102728571D01*
X225557142Y-102776190D01*
X225938095Y-102776190D01*
X224795238Y-102680952D02*
X224890476Y-102633333D01*
X224938095Y-102585714D01*
X224985714Y-102490476D01*
X224985714Y-102442857D01*
X224938095Y-102347619D01*
X224890476Y-102300000D01*
X224795238Y-102252381D01*
X224604761Y-102252381D01*
X224509523Y-102300000D01*
X224461904Y-102347619D01*
X224414285Y-102442857D01*
X224414285Y-102490476D01*
X224461904Y-102585714D01*
X224509523Y-102633333D01*
X224604761Y-102680952D01*
X224795238Y-102680952D01*
X224890476Y-102728571D01*
X224938095Y-102776190D01*
X224985714Y-102871429D01*
X224985714Y-103061905D01*
X224938095Y-103157143D01*
X224890476Y-103204762D01*
X224795238Y-103252381D01*
X224604761Y-103252381D01*
X224509523Y-103204762D01*
X224461904Y-103157143D01*
X224414285Y-103061905D01*
X224414285Y-102871429D01*
X224461904Y-102776190D01*
X224509523Y-102728571D01*
X224604761Y-102680952D01*
X224052381Y-98833334D02*
X223576190Y-98500000D01*
X224052381Y-98261905D02*
X223052381Y-98261905D01*
X223052381Y-98642858D01*
X223100000Y-98738096D01*
X223147619Y-98785715D01*
X223242857Y-98833334D01*
X223385714Y-98833334D01*
X223480952Y-98785715D01*
X223528571Y-98738096D01*
X223576190Y-98642858D01*
X223576190Y-98261905D01*
X224052381Y-99309524D02*
X224052381Y-99500000D01*
X224004762Y-99595239D01*
X223957143Y-99642858D01*
X223814286Y-99738096D01*
X223623810Y-99785715D01*
X223242857Y-99785715D01*
X223147619Y-99738096D01*
X223100000Y-99690477D01*
X223052381Y-99595239D01*
X223052381Y-99404762D01*
X223100000Y-99309524D01*
X223147619Y-99261905D01*
X223242857Y-99214286D01*
X223480952Y-99214286D01*
X223576190Y-99261905D01*
X223623810Y-99309524D01*
X223671429Y-99404762D01*
X223671429Y-99595239D01*
X223623810Y-99690477D01*
X223576190Y-99738096D01*
X223480952Y-99785715D01*
X223852381Y-89257143D02*
X223376190Y-88923809D01*
X223852381Y-88685714D02*
X222852381Y-88685714D01*
X222852381Y-89066667D01*
X222900000Y-89161905D01*
X222947619Y-89209524D01*
X223042857Y-89257143D01*
X223185714Y-89257143D01*
X223280952Y-89209524D01*
X223328571Y-89161905D01*
X223376190Y-89066667D01*
X223376190Y-88685714D01*
X223852381Y-90209524D02*
X223852381Y-89638095D01*
X223852381Y-89923809D02*
X222852381Y-89923809D01*
X222995238Y-89828571D01*
X223090476Y-89733333D01*
X223138095Y-89638095D01*
X222852381Y-90828571D02*
X222852381Y-90923810D01*
X222900000Y-91019048D01*
X222947619Y-91066667D01*
X223042857Y-91114286D01*
X223233333Y-91161905D01*
X223471429Y-91161905D01*
X223661905Y-91114286D01*
X223757143Y-91066667D01*
X223804762Y-91019048D01*
X223852381Y-90923810D01*
X223852381Y-90828571D01*
X223804762Y-90733333D01*
X223757143Y-90685714D01*
X223661905Y-90638095D01*
X223471429Y-90590476D01*
X223233333Y-90590476D01*
X223042857Y-90638095D01*
X222947619Y-90685714D01*
X222900000Y-90733333D01*
X222852381Y-90828571D01*
X225292857Y-86652381D02*
X225626191Y-86176190D01*
X225864286Y-86652381D02*
X225864286Y-85652381D01*
X225483333Y-85652381D01*
X225388095Y-85700000D01*
X225340476Y-85747619D01*
X225292857Y-85842857D01*
X225292857Y-85985714D01*
X225340476Y-86080952D01*
X225388095Y-86128571D01*
X225483333Y-86176190D01*
X225864286Y-86176190D01*
X224340476Y-86652381D02*
X224911905Y-86652381D01*
X224626191Y-86652381D02*
X224626191Y-85652381D01*
X224721429Y-85795238D01*
X224816667Y-85890476D01*
X224911905Y-85938095D01*
X223388095Y-86652381D02*
X223959524Y-86652381D01*
X223673810Y-86652381D02*
X223673810Y-85652381D01*
X223769048Y-85795238D01*
X223864286Y-85890476D01*
X223959524Y-85938095D01*
X210042381Y-65167143D02*
X209566190Y-64833809D01*
X210042381Y-64595714D02*
X209042381Y-64595714D01*
X209042381Y-64976667D01*
X209090000Y-65071905D01*
X209137619Y-65119524D01*
X209232857Y-65167143D01*
X209375714Y-65167143D01*
X209470952Y-65119524D01*
X209518571Y-65071905D01*
X209566190Y-64976667D01*
X209566190Y-64595714D01*
X210042381Y-66119524D02*
X210042381Y-65548095D01*
X210042381Y-65833809D02*
X209042381Y-65833809D01*
X209185238Y-65738571D01*
X209280476Y-65643333D01*
X209328095Y-65548095D01*
X209137619Y-66500476D02*
X209090000Y-66548095D01*
X209042381Y-66643333D01*
X209042381Y-66881429D01*
X209090000Y-66976667D01*
X209137619Y-67024286D01*
X209232857Y-67071905D01*
X209328095Y-67071905D01*
X209470952Y-67024286D01*
X210042381Y-66452857D01*
X210042381Y-67071905D01*
X208332381Y-65167143D02*
X207856190Y-64833809D01*
X208332381Y-64595714D02*
X207332381Y-64595714D01*
X207332381Y-64976667D01*
X207380000Y-65071905D01*
X207427619Y-65119524D01*
X207522857Y-65167143D01*
X207665714Y-65167143D01*
X207760952Y-65119524D01*
X207808571Y-65071905D01*
X207856190Y-64976667D01*
X207856190Y-64595714D01*
X208332381Y-66119524D02*
X208332381Y-65548095D01*
X208332381Y-65833809D02*
X207332381Y-65833809D01*
X207475238Y-65738571D01*
X207570476Y-65643333D01*
X207618095Y-65548095D01*
X207332381Y-66452857D02*
X207332381Y-67071905D01*
X207713333Y-66738571D01*
X207713333Y-66881429D01*
X207760952Y-66976667D01*
X207808571Y-67024286D01*
X207903810Y-67071905D01*
X208141905Y-67071905D01*
X208237143Y-67024286D01*
X208284762Y-66976667D01*
X208332381Y-66881429D01*
X208332381Y-66595714D01*
X208284762Y-66500476D01*
X208237143Y-66452857D01*
X200616666Y-95357143D02*
X200664285Y-95404762D01*
X200807142Y-95452381D01*
X200902380Y-95452381D01*
X201045238Y-95404762D01*
X201140476Y-95309524D01*
X201188095Y-95214286D01*
X201235714Y-95023810D01*
X201235714Y-94880952D01*
X201188095Y-94690476D01*
X201140476Y-94595238D01*
X201045238Y-94500000D01*
X200902380Y-94452381D01*
X200807142Y-94452381D01*
X200664285Y-94500000D01*
X200616666Y-94547619D01*
X199664285Y-95452381D02*
X200235714Y-95452381D01*
X199950000Y-95452381D02*
X199950000Y-94452381D01*
X200045238Y-94595238D01*
X200140476Y-94690476D01*
X200235714Y-94738095D01*
X210816666Y-95257143D02*
X210864285Y-95304762D01*
X211007142Y-95352381D01*
X211102380Y-95352381D01*
X211245238Y-95304762D01*
X211340476Y-95209524D01*
X211388095Y-95114286D01*
X211435714Y-94923810D01*
X211435714Y-94780952D01*
X211388095Y-94590476D01*
X211340476Y-94495238D01*
X211245238Y-94400000D01*
X211102380Y-94352381D01*
X211007142Y-94352381D01*
X210864285Y-94400000D01*
X210816666Y-94447619D01*
X209959523Y-94685714D02*
X209959523Y-95352381D01*
X210197619Y-94304762D02*
X210435714Y-95019048D01*
X209816666Y-95019048D01*
X205766666Y-95257143D02*
X205814285Y-95304762D01*
X205957142Y-95352381D01*
X206052380Y-95352381D01*
X206195238Y-95304762D01*
X206290476Y-95209524D01*
X206338095Y-95114286D01*
X206385714Y-94923810D01*
X206385714Y-94780952D01*
X206338095Y-94590476D01*
X206290476Y-94495238D01*
X206195238Y-94400000D01*
X206052380Y-94352381D01*
X205957142Y-94352381D01*
X205814285Y-94400000D01*
X205766666Y-94447619D01*
X205290476Y-95352381D02*
X205100000Y-95352381D01*
X205004761Y-95304762D01*
X204957142Y-95257143D01*
X204861904Y-95114286D01*
X204814285Y-94923810D01*
X204814285Y-94542857D01*
X204861904Y-94447619D01*
X204909523Y-94400000D01*
X205004761Y-94352381D01*
X205195238Y-94352381D01*
X205290476Y-94400000D01*
X205338095Y-94447619D01*
X205385714Y-94542857D01*
X205385714Y-94780952D01*
X205338095Y-94876190D01*
X205290476Y-94923810D01*
X205195238Y-94971429D01*
X205004761Y-94971429D01*
X204909523Y-94923810D01*
X204861904Y-94876190D01*
X204814285Y-94780952D01*
X163292857Y-173957143D02*
X163340476Y-174004762D01*
X163483333Y-174052381D01*
X163578571Y-174052381D01*
X163721429Y-174004762D01*
X163816667Y-173909524D01*
X163864286Y-173814286D01*
X163911905Y-173623810D01*
X163911905Y-173480952D01*
X163864286Y-173290476D01*
X163816667Y-173195238D01*
X163721429Y-173100000D01*
X163578571Y-173052381D01*
X163483333Y-173052381D01*
X163340476Y-173100000D01*
X163292857Y-173147619D01*
X162340476Y-174052381D02*
X162911905Y-174052381D01*
X162626191Y-174052381D02*
X162626191Y-173052381D01*
X162721429Y-173195238D01*
X162816667Y-173290476D01*
X162911905Y-173338095D01*
X161959524Y-173147619D02*
X161911905Y-173100000D01*
X161816667Y-173052381D01*
X161578571Y-173052381D01*
X161483333Y-173100000D01*
X161435714Y-173147619D01*
X161388095Y-173242857D01*
X161388095Y-173338095D01*
X161435714Y-173480952D01*
X162007143Y-174052381D01*
X161388095Y-174052381D01*
X152992857Y-173957143D02*
X153040476Y-174004762D01*
X153183333Y-174052381D01*
X153278571Y-174052381D01*
X153421429Y-174004762D01*
X153516667Y-173909524D01*
X153564286Y-173814286D01*
X153611905Y-173623810D01*
X153611905Y-173480952D01*
X153564286Y-173290476D01*
X153516667Y-173195238D01*
X153421429Y-173100000D01*
X153278571Y-173052381D01*
X153183333Y-173052381D01*
X153040476Y-173100000D01*
X152992857Y-173147619D01*
X152040476Y-174052381D02*
X152611905Y-174052381D01*
X152326191Y-174052381D02*
X152326191Y-173052381D01*
X152421429Y-173195238D01*
X152516667Y-173290476D01*
X152611905Y-173338095D01*
X151707143Y-173052381D02*
X151088095Y-173052381D01*
X151421429Y-173433333D01*
X151278571Y-173433333D01*
X151183333Y-173480952D01*
X151135714Y-173528571D01*
X151088095Y-173623810D01*
X151088095Y-173861905D01*
X151135714Y-173957143D01*
X151183333Y-174004762D01*
X151278571Y-174052381D01*
X151564286Y-174052381D01*
X151659524Y-174004762D01*
X151707143Y-173957143D01*
X216457143Y-139207143D02*
X216504762Y-139159524D01*
X216552381Y-139016667D01*
X216552381Y-138921429D01*
X216504762Y-138778571D01*
X216409524Y-138683333D01*
X216314286Y-138635714D01*
X216123810Y-138588095D01*
X215980952Y-138588095D01*
X215790476Y-138635714D01*
X215695238Y-138683333D01*
X215600000Y-138778571D01*
X215552381Y-138921429D01*
X215552381Y-139016667D01*
X215600000Y-139159524D01*
X215647619Y-139207143D01*
X216552381Y-140159524D02*
X216552381Y-139588095D01*
X216552381Y-139873809D02*
X215552381Y-139873809D01*
X215695238Y-139778571D01*
X215790476Y-139683333D01*
X215838095Y-139588095D01*
X215885714Y-141016667D02*
X216552381Y-141016667D01*
X215504762Y-140778571D02*
X216219048Y-140540476D01*
X216219048Y-141159524D01*
X196192857Y-95357143D02*
X196240476Y-95404762D01*
X196383333Y-95452381D01*
X196478571Y-95452381D01*
X196621429Y-95404762D01*
X196716667Y-95309524D01*
X196764286Y-95214286D01*
X196811905Y-95023810D01*
X196811905Y-94880952D01*
X196764286Y-94690476D01*
X196716667Y-94595238D01*
X196621429Y-94500000D01*
X196478571Y-94452381D01*
X196383333Y-94452381D01*
X196240476Y-94500000D01*
X196192857Y-94547619D01*
X195811905Y-94547619D02*
X195764286Y-94500000D01*
X195669048Y-94452381D01*
X195430952Y-94452381D01*
X195335714Y-94500000D01*
X195288095Y-94547619D01*
X195240476Y-94642857D01*
X195240476Y-94738095D01*
X195288095Y-94880952D01*
X195859524Y-95452381D01*
X195240476Y-95452381D01*
X194621429Y-94452381D02*
X194526190Y-94452381D01*
X194430952Y-94500000D01*
X194383333Y-94547619D01*
X194335714Y-94642857D01*
X194288095Y-94833333D01*
X194288095Y-95071429D01*
X194335714Y-95261905D01*
X194383333Y-95357143D01*
X194430952Y-95404762D01*
X194526190Y-95452381D01*
X194621429Y-95452381D01*
X194716667Y-95404762D01*
X194764286Y-95357143D01*
X194811905Y-95261905D01*
X194859524Y-95071429D01*
X194859524Y-94833333D01*
X194811905Y-94642857D01*
X194764286Y-94547619D01*
X194716667Y-94500000D01*
X194621429Y-94452381D01*
X158142857Y-170957143D02*
X158190476Y-171004762D01*
X158333333Y-171052381D01*
X158428571Y-171052381D01*
X158571429Y-171004762D01*
X158666667Y-170909524D01*
X158714286Y-170814286D01*
X158761905Y-170623810D01*
X158761905Y-170480952D01*
X158714286Y-170290476D01*
X158666667Y-170195238D01*
X158571429Y-170100000D01*
X158428571Y-170052381D01*
X158333333Y-170052381D01*
X158190476Y-170100000D01*
X158142857Y-170147619D01*
X157761905Y-170147619D02*
X157714286Y-170100000D01*
X157619048Y-170052381D01*
X157380952Y-170052381D01*
X157285714Y-170100000D01*
X157238095Y-170147619D01*
X157190476Y-170242857D01*
X157190476Y-170338095D01*
X157238095Y-170480952D01*
X157809524Y-171052381D01*
X157190476Y-171052381D01*
X156809524Y-170147619D02*
X156761905Y-170100000D01*
X156666667Y-170052381D01*
X156428571Y-170052381D01*
X156333333Y-170100000D01*
X156285714Y-170147619D01*
X156238095Y-170242857D01*
X156238095Y-170338095D01*
X156285714Y-170480952D01*
X156857143Y-171052381D01*
X156238095Y-171052381D01*
X209714925Y-172880998D02*
X209615017Y-172993666D01*
X209597588Y-173058716D01*
X209603967Y-173165004D01*
X209675396Y-173288721D01*
X209764254Y-173347390D01*
X209829303Y-173364820D01*
X209935591Y-173358440D01*
X210265506Y-173167964D01*
X209765506Y-172301939D01*
X209476830Y-172468606D01*
X209418161Y-172557464D01*
X209400731Y-172622513D01*
X209407111Y-172728801D01*
X209454730Y-172811279D01*
X209543588Y-172869948D01*
X209608637Y-172887378D01*
X209714925Y-172880998D01*
X210003601Y-172714331D01*
X209297863Y-173396719D02*
X208885469Y-173634814D01*
X209523198Y-173596535D02*
X208734524Y-172897177D01*
X208945848Y-173929869D01*
X208280891Y-173159082D02*
X207786019Y-173444796D01*
X208533455Y-174167964D02*
X208033455Y-173301939D01*
X207621062Y-173540034D02*
X207126190Y-173825749D01*
X207873626Y-174548916D02*
X207373626Y-173682891D01*
X207147039Y-174528526D02*
X206487210Y-174909479D01*
X205714712Y-175190522D02*
X205614804Y-175303190D01*
X205597375Y-175368240D01*
X205603755Y-175474528D01*
X205675183Y-175598245D01*
X205764041Y-175656914D01*
X205829090Y-175674344D01*
X205935378Y-175667964D01*
X206265293Y-175477488D01*
X205765293Y-174611463D01*
X205476617Y-174778130D01*
X205417948Y-174866988D01*
X205400519Y-174932037D01*
X205406898Y-175038325D01*
X205454517Y-175120803D01*
X205543376Y-175179472D01*
X205608424Y-175196902D01*
X205714712Y-175190522D01*
X206003388Y-175023855D01*
X204945635Y-176239393D02*
X205440507Y-175953678D01*
X205193071Y-176096535D02*
X204693071Y-175230510D01*
X204846978Y-175306609D01*
X204977076Y-175341468D01*
X205083364Y-175335089D01*
X124573478Y-100174422D02*
X124875348Y-100821785D01*
X124978881Y-100931132D01*
X125105445Y-100977198D01*
X125255042Y-100959981D01*
X125341357Y-100919732D01*
X124041047Y-100948116D02*
X123931699Y-101051648D01*
X123908666Y-101114931D01*
X123905758Y-101221370D01*
X123966132Y-101350843D01*
X124049539Y-101417033D01*
X124112821Y-101440066D01*
X124219261Y-101442974D01*
X124564521Y-101281976D01*
X124141903Y-100375669D01*
X123839800Y-100516542D01*
X123773610Y-100599948D01*
X123750577Y-100663231D01*
X123747669Y-100769670D01*
X123787918Y-100855985D01*
X123871325Y-100922175D01*
X123934607Y-100945208D01*
X124041047Y-100948116D01*
X124343150Y-100807243D01*
X123134739Y-101370735D02*
X123025391Y-101474266D01*
X123002359Y-101537549D01*
X122999450Y-101643989D01*
X123059824Y-101773461D01*
X123143231Y-101839651D01*
X123206513Y-101862684D01*
X123312953Y-101865592D01*
X123658214Y-101704595D01*
X123235595Y-100798287D01*
X122933492Y-100939160D01*
X122867302Y-101022567D01*
X122844269Y-101085849D01*
X122841361Y-101192288D01*
X122881610Y-101278603D01*
X122965017Y-101344794D01*
X123028299Y-101367826D01*
X123134739Y-101370735D01*
X123436842Y-101229862D01*
X122530534Y-101652480D02*
X122228431Y-101793353D01*
X122320330Y-102328460D02*
X122751906Y-102127213D01*
X122329288Y-101220905D01*
X121897712Y-101422152D01*
X121931913Y-102509582D02*
X121509295Y-101603274D01*
X121414022Y-102751078D01*
X120991404Y-101844770D01*
X120507715Y-103173696D02*
X121025605Y-102932200D01*
X120766660Y-103052948D02*
X120344042Y-102146640D01*
X120490731Y-102235863D01*
X120617295Y-102281929D01*
X120723735Y-102284837D01*
X120852381Y-78504763D02*
X121566667Y-78504763D01*
X121709524Y-78457143D01*
X121804762Y-78361905D01*
X121852381Y-78219048D01*
X121852381Y-78123810D01*
X120852381Y-78980953D02*
X121661905Y-78980953D01*
X121757143Y-79028572D01*
X121804762Y-79076191D01*
X121852381Y-79171429D01*
X121852381Y-79361906D01*
X121804762Y-79457144D01*
X121757143Y-79504763D01*
X121661905Y-79552382D01*
X120852381Y-79552382D01*
X121852381Y-80028572D02*
X120852381Y-80028572D01*
X121852381Y-80504762D02*
X120852381Y-80504762D01*
X120852381Y-80742857D01*
X120900000Y-80885715D01*
X120995238Y-80980953D01*
X121090476Y-81028572D01*
X121280952Y-81076191D01*
X121423810Y-81076191D01*
X121614286Y-81028572D01*
X121709524Y-80980953D01*
X121804762Y-80885715D01*
X121852381Y-80742857D01*
X121852381Y-80504762D01*
X121852381Y-82028572D02*
X121852381Y-81457143D01*
X121852381Y-81742857D02*
X120852381Y-81742857D01*
X120995238Y-81647619D01*
X121090476Y-81552381D01*
X121138095Y-81457143D01*
X121785714Y-82052381D02*
X121785714Y-82766667D01*
X121833334Y-82909524D01*
X121928572Y-83004762D01*
X122071429Y-83052381D01*
X122166667Y-83052381D01*
X121309524Y-82052381D02*
X121309524Y-82861905D01*
X121261905Y-82957143D01*
X121214286Y-83004762D01*
X121119048Y-83052381D01*
X120928571Y-83052381D01*
X120833333Y-83004762D01*
X120785714Y-82957143D01*
X120738095Y-82861905D01*
X120738095Y-82052381D01*
X120404762Y-82052381D02*
X120071429Y-83052381D01*
X119738095Y-82052381D01*
X118833333Y-82957143D02*
X118880952Y-83004762D01*
X119023809Y-83052381D01*
X119119047Y-83052381D01*
X119261905Y-83004762D01*
X119357143Y-82909524D01*
X119404762Y-82814286D01*
X119452381Y-82623810D01*
X119452381Y-82480952D01*
X119404762Y-82290476D01*
X119357143Y-82195238D01*
X119261905Y-82100000D01*
X119119047Y-82052381D01*
X119023809Y-82052381D01*
X118880952Y-82100000D01*
X118833333Y-82147619D01*
X117833333Y-82957143D02*
X117880952Y-83004762D01*
X118023809Y-83052381D01*
X118119047Y-83052381D01*
X118261905Y-83004762D01*
X118357143Y-82909524D01*
X118404762Y-82814286D01*
X118452381Y-82623810D01*
X118452381Y-82480952D01*
X118404762Y-82290476D01*
X118357143Y-82195238D01*
X118261905Y-82100000D01*
X118119047Y-82052381D01*
X118023809Y-82052381D01*
X117880952Y-82100000D01*
X117833333Y-82147619D01*
X116880952Y-83052381D02*
X117452381Y-83052381D01*
X117166667Y-83052381D02*
X117166667Y-82052381D01*
X117261905Y-82195238D01*
X117357143Y-82290476D01*
X117452381Y-82338095D01*
X213494374Y-179751297D02*
X212994374Y-178885272D01*
X212664459Y-179075748D01*
X212605790Y-179164606D01*
X212588361Y-179229655D01*
X212594740Y-179335943D01*
X212666169Y-179459661D01*
X212755027Y-179518330D01*
X212820076Y-179535760D01*
X212926364Y-179529380D01*
X213256279Y-179338903D01*
X212210828Y-179337653D02*
X212504631Y-180322725D01*
X211982530Y-179799374D01*
X212174716Y-180513202D01*
X211468520Y-179766224D01*
X211143734Y-181108440D02*
X211194314Y-180529379D01*
X211638606Y-180822725D02*
X211138606Y-179956700D01*
X210808691Y-180147177D01*
X210750022Y-180236035D01*
X210732592Y-180301084D01*
X210738972Y-180407372D01*
X210810400Y-180531089D01*
X210899259Y-180589758D01*
X210964307Y-180607188D01*
X211070595Y-180600808D01*
X211400510Y-180410332D01*
X211026396Y-181286156D02*
X210366567Y-181667109D01*
X209562171Y-181416712D02*
X209462262Y-181529380D01*
X209444833Y-181594430D01*
X209451213Y-181700718D01*
X209522641Y-181824435D01*
X209611500Y-181883104D01*
X209676548Y-181900534D01*
X209782836Y-181894154D01*
X210112751Y-181703678D01*
X209612751Y-180837653D01*
X209324076Y-181004320D01*
X209265407Y-181093178D01*
X209247977Y-181158227D01*
X209254357Y-181264515D01*
X209301976Y-181346993D01*
X209390834Y-181405662D01*
X209455883Y-181423092D01*
X209562171Y-181416712D01*
X209850846Y-181250045D01*
X209145108Y-181932433D02*
X208732715Y-182170528D01*
X209370444Y-182132249D02*
X208581769Y-181432891D01*
X208793093Y-182465583D01*
X208128136Y-181694796D02*
X207633264Y-181980510D01*
X208380700Y-182703678D02*
X207880700Y-181837653D01*
X207468307Y-182075748D02*
X206973435Y-182361463D01*
X207720871Y-183084630D02*
X207220871Y-182218605D01*
X206731127Y-183656059D02*
X207225999Y-183370345D01*
X206978564Y-183513202D02*
X206478564Y-182647177D01*
X206632471Y-182723275D01*
X206762568Y-182758135D01*
X206868856Y-182751755D01*
X199482921Y-187770345D02*
X199533501Y-187191284D01*
X199977793Y-187484630D02*
X199477793Y-186618605D01*
X199147878Y-186809082D01*
X199089209Y-186897940D01*
X199071779Y-186962989D01*
X199078159Y-187069277D01*
X199149587Y-187192994D01*
X199238446Y-187251663D01*
X199303495Y-187269093D01*
X199409783Y-187262713D01*
X199739698Y-187072237D01*
X198658135Y-188246535D02*
X199153007Y-187960821D01*
X198905571Y-188103678D02*
X198405571Y-187237653D01*
X198559478Y-187313751D01*
X198689576Y-187348611D01*
X198795864Y-187342231D01*
X197415827Y-187809082D02*
X197580785Y-187713843D01*
X197687073Y-187707463D01*
X197752122Y-187724893D01*
X197906029Y-187800992D01*
X198042506Y-187942139D01*
X198232983Y-188272054D01*
X198239362Y-188378342D01*
X198221933Y-188443391D01*
X198163264Y-188532249D01*
X197998306Y-188627488D01*
X197892018Y-188633868D01*
X197826969Y-188616438D01*
X197738111Y-188557769D01*
X197619063Y-188351573D01*
X197612683Y-188245284D01*
X197630113Y-188180235D01*
X197688782Y-188091377D01*
X197853740Y-187996138D01*
X197960028Y-187989758D01*
X198025076Y-188007188D01*
X198113935Y-188065858D01*
X197933402Y-184945345D02*
X197983982Y-184366284D01*
X198428274Y-184659630D02*
X197928274Y-183793605D01*
X197598359Y-183984082D01*
X197539690Y-184072940D01*
X197522260Y-184137989D01*
X197528640Y-184244277D01*
X197600068Y-184367994D01*
X197688927Y-184426663D01*
X197753976Y-184444093D01*
X197860264Y-184437713D01*
X198190179Y-184247237D01*
X197108616Y-185421535D02*
X197603488Y-185135821D01*
X197356052Y-185278678D02*
X196856052Y-184412653D01*
X197009959Y-184488751D01*
X197140057Y-184523611D01*
X197246345Y-184517231D01*
X196319941Y-184722177D02*
X195742590Y-185055510D01*
X196613745Y-185707249D01*
X147130952Y-62178571D02*
X146988095Y-62226190D01*
X146940476Y-62273810D01*
X146892857Y-62369048D01*
X146892857Y-62511905D01*
X146940476Y-62607143D01*
X146988095Y-62654762D01*
X147083333Y-62702381D01*
X147464286Y-62702381D01*
X147464286Y-61702381D01*
X147130952Y-61702381D01*
X147035714Y-61750000D01*
X146988095Y-61797619D01*
X146940476Y-61892857D01*
X146940476Y-61988095D01*
X146988095Y-62083333D01*
X147035714Y-62130952D01*
X147130952Y-62178571D01*
X147464286Y-62178571D01*
X146130952Y-62178571D02*
X145988095Y-62226190D01*
X145940476Y-62273810D01*
X145892857Y-62369048D01*
X145892857Y-62511905D01*
X145940476Y-62607143D01*
X145988095Y-62654762D01*
X146083333Y-62702381D01*
X146464286Y-62702381D01*
X146464286Y-61702381D01*
X146130952Y-61702381D01*
X146035714Y-61750000D01*
X145988095Y-61797619D01*
X145940476Y-61892857D01*
X145940476Y-61988095D01*
X145988095Y-62083333D01*
X146035714Y-62130952D01*
X146130952Y-62178571D01*
X146464286Y-62178571D01*
X145464286Y-62178571D02*
X145130952Y-62178571D01*
X144988095Y-62702381D02*
X145464286Y-62702381D01*
X145464286Y-61702381D01*
X144988095Y-61702381D01*
X144559524Y-62702381D02*
X144559524Y-61702381D01*
X143988095Y-62702381D01*
X143988095Y-61702381D01*
X142988095Y-62702381D02*
X143559524Y-62702381D01*
X143273810Y-62702381D02*
X143273810Y-61702381D01*
X143369048Y-61845238D01*
X143464286Y-61940476D01*
X143559524Y-61988095D01*
X152808571Y-83598571D02*
X152665714Y-83646190D01*
X152618095Y-83693810D01*
X152570476Y-83789048D01*
X152570476Y-83931905D01*
X152618095Y-84027143D01*
X152665714Y-84074762D01*
X152760952Y-84122381D01*
X153141905Y-84122381D01*
X153141905Y-83122381D01*
X152808571Y-83122381D01*
X152713333Y-83170000D01*
X152665714Y-83217619D01*
X152618095Y-83312857D01*
X152618095Y-83408095D01*
X152665714Y-83503333D01*
X152713333Y-83550952D01*
X152808571Y-83598571D01*
X153141905Y-83598571D01*
X151618095Y-83170000D02*
X151713333Y-83122381D01*
X151856190Y-83122381D01*
X151999048Y-83170000D01*
X152094286Y-83265238D01*
X152141905Y-83360476D01*
X152189524Y-83550952D01*
X152189524Y-83693810D01*
X152141905Y-83884286D01*
X152094286Y-83979524D01*
X151999048Y-84074762D01*
X151856190Y-84122381D01*
X151760952Y-84122381D01*
X151618095Y-84074762D01*
X151570476Y-84027143D01*
X151570476Y-83693810D01*
X151760952Y-83693810D01*
X151141905Y-84122381D02*
X151141905Y-83122381D01*
X150570476Y-84122381D01*
X150570476Y-83122381D01*
X150094286Y-84122381D02*
X150094286Y-83122381D01*
X149856191Y-83122381D01*
X149713333Y-83170000D01*
X149618095Y-83265238D01*
X149570476Y-83360476D01*
X149522857Y-83550952D01*
X149522857Y-83693810D01*
X149570476Y-83884286D01*
X149618095Y-83979524D01*
X149713333Y-84074762D01*
X149856191Y-84122381D01*
X150094286Y-84122381D01*
X148570476Y-84122381D02*
X149141905Y-84122381D01*
X148856191Y-84122381D02*
X148856191Y-83122381D01*
X148951429Y-83265238D01*
X149046667Y-83360476D01*
X149141905Y-83408095D01*
X149166666Y-63728571D02*
X149023809Y-63776190D01*
X148976190Y-63823810D01*
X148928571Y-63919048D01*
X148928571Y-64061905D01*
X148976190Y-64157143D01*
X149023809Y-64204762D01*
X149119047Y-64252381D01*
X149500000Y-64252381D01*
X149500000Y-63252381D01*
X149166666Y-63252381D01*
X149071428Y-63300000D01*
X149023809Y-63347619D01*
X148976190Y-63442857D01*
X148976190Y-63538095D01*
X149023809Y-63633333D01*
X149071428Y-63680952D01*
X149166666Y-63728571D01*
X149500000Y-63728571D01*
X148500000Y-64252381D02*
X148500000Y-63252381D01*
X148023810Y-64252381D02*
X148023810Y-63252381D01*
X147452381Y-64252381D01*
X147452381Y-63252381D01*
X146452381Y-64252381D02*
X147023810Y-64252381D01*
X146738096Y-64252381D02*
X146738096Y-63252381D01*
X146833334Y-63395238D01*
X146928572Y-63490476D01*
X147023810Y-63538095D01*
X124385714Y-63028571D02*
X124242857Y-63076190D01*
X124195238Y-63123810D01*
X124147619Y-63219048D01*
X124147619Y-63361905D01*
X124195238Y-63457143D01*
X124242857Y-63504762D01*
X124338095Y-63552381D01*
X124719048Y-63552381D01*
X124719048Y-62552381D01*
X124385714Y-62552381D01*
X124290476Y-62600000D01*
X124242857Y-62647619D01*
X124195238Y-62742857D01*
X124195238Y-62838095D01*
X124242857Y-62933333D01*
X124290476Y-62980952D01*
X124385714Y-63028571D01*
X124719048Y-63028571D01*
X123861905Y-62552381D02*
X123290476Y-62552381D01*
X123576191Y-63552381D02*
X123576191Y-62552381D01*
X122766667Y-62552381D02*
X122671428Y-62552381D01*
X122576190Y-62600000D01*
X122528571Y-62647619D01*
X122480952Y-62742857D01*
X122433333Y-62933333D01*
X122433333Y-63171429D01*
X122480952Y-63361905D01*
X122528571Y-63457143D01*
X122576190Y-63504762D01*
X122671428Y-63552381D01*
X122766667Y-63552381D01*
X122861905Y-63504762D01*
X122909524Y-63457143D01*
X122957143Y-63361905D01*
X123004762Y-63171429D01*
X123004762Y-62933333D01*
X122957143Y-62742857D01*
X122909524Y-62647619D01*
X122861905Y-62600000D01*
X122766667Y-62552381D01*
X122004761Y-85952381D02*
X122480952Y-85952381D01*
X122480952Y-84952381D01*
X121099999Y-85857143D02*
X121147618Y-85904762D01*
X121290475Y-85952381D01*
X121385713Y-85952381D01*
X121528571Y-85904762D01*
X121623809Y-85809524D01*
X121671428Y-85714286D01*
X121719047Y-85523810D01*
X121719047Y-85380952D01*
X121671428Y-85190476D01*
X121623809Y-85095238D01*
X121528571Y-85000000D01*
X121385713Y-84952381D01*
X121290475Y-84952381D01*
X121147618Y-85000000D01*
X121099999Y-85047619D01*
X120671428Y-85952381D02*
X120671428Y-84952381D01*
X120099999Y-85952381D02*
X120528571Y-85380952D01*
X120099999Y-84952381D02*
X120671428Y-85523810D01*
X119671428Y-85952381D02*
X119671428Y-84952381D01*
X118671428Y-85952381D02*
X119242857Y-85952381D01*
X118957143Y-85952381D02*
X118957143Y-84952381D01*
X119052381Y-85095238D01*
X119147619Y-85190476D01*
X119242857Y-85238095D01*
X122380952Y-87352381D02*
X122857143Y-87352381D01*
X122857143Y-86352381D01*
X122095238Y-87304762D02*
X121952381Y-87352381D01*
X121714285Y-87352381D01*
X121619047Y-87304762D01*
X121571428Y-87257143D01*
X121523809Y-87161905D01*
X121523809Y-87066667D01*
X121571428Y-86971429D01*
X121619047Y-86923810D01*
X121714285Y-86876190D01*
X121904762Y-86828571D01*
X122000000Y-86780952D01*
X122047619Y-86733333D01*
X122095238Y-86638095D01*
X122095238Y-86542857D01*
X122047619Y-86447619D01*
X122000000Y-86400000D01*
X121904762Y-86352381D01*
X121666666Y-86352381D01*
X121523809Y-86400000D01*
X121095238Y-87352381D02*
X121095238Y-86352381D01*
X120857143Y-86352381D01*
X120714285Y-86400000D01*
X120619047Y-86495238D01*
X120571428Y-86590476D01*
X120523809Y-86780952D01*
X120523809Y-86923810D01*
X120571428Y-87114286D01*
X120619047Y-87209524D01*
X120714285Y-87304762D01*
X120857143Y-87352381D01*
X121095238Y-87352381D01*
X120095238Y-87352381D02*
X120095238Y-86352381D01*
X119095238Y-87352381D02*
X119666667Y-87352381D01*
X119380953Y-87352381D02*
X119380953Y-86352381D01*
X119476191Y-86495238D01*
X119571429Y-86590476D01*
X119666667Y-86638095D01*
X151885714Y-70652381D02*
X151885714Y-69652381D01*
X151552380Y-70366667D01*
X151219047Y-69652381D01*
X151219047Y-70652381D01*
X150171428Y-70557143D02*
X150219047Y-70604762D01*
X150361904Y-70652381D01*
X150457142Y-70652381D01*
X150600000Y-70604762D01*
X150695238Y-70509524D01*
X150742857Y-70414286D01*
X150790476Y-70223810D01*
X150790476Y-70080952D01*
X150742857Y-69890476D01*
X150695238Y-69795238D01*
X150600000Y-69700000D01*
X150457142Y-69652381D01*
X150361904Y-69652381D01*
X150219047Y-69700000D01*
X150171428Y-69747619D01*
X149790476Y-70604762D02*
X149647619Y-70652381D01*
X149409523Y-70652381D01*
X149314285Y-70604762D01*
X149266666Y-70557143D01*
X149219047Y-70461905D01*
X149219047Y-70366667D01*
X149266666Y-70271429D01*
X149314285Y-70223810D01*
X149409523Y-70176190D01*
X149600000Y-70128571D01*
X149695238Y-70080952D01*
X149742857Y-70033333D01*
X149790476Y-69938095D01*
X149790476Y-69842857D01*
X149742857Y-69747619D01*
X149695238Y-69700000D01*
X149600000Y-69652381D01*
X149361904Y-69652381D01*
X149219047Y-69700000D01*
X148266666Y-70652381D02*
X148838095Y-70652381D01*
X148552381Y-70652381D02*
X148552381Y-69652381D01*
X148647619Y-69795238D01*
X148742857Y-69890476D01*
X148838095Y-69938095D01*
X150702381Y-66452381D02*
X150702381Y-65452381D01*
X150369047Y-66166667D01*
X150035714Y-65452381D01*
X150035714Y-66452381D01*
X149559524Y-66452381D02*
X149559524Y-65452381D01*
X149083334Y-66452381D02*
X149083334Y-65452381D01*
X148511905Y-66452381D01*
X148511905Y-65452381D01*
X148178572Y-65452381D02*
X147607143Y-65452381D01*
X147892858Y-66452381D02*
X147892858Y-65452381D01*
X146750000Y-66452381D02*
X147321429Y-66452381D01*
X147035715Y-66452381D02*
X147035715Y-65452381D01*
X147130953Y-65595238D01*
X147226191Y-65690476D01*
X147321429Y-65738095D01*
X152119047Y-68352381D02*
X152119047Y-67352381D01*
X151785713Y-68066667D01*
X151452380Y-67352381D01*
X151452380Y-68352381D01*
X150976190Y-68352381D02*
X150976190Y-67352381D01*
X150642856Y-68066667D01*
X150309523Y-67352381D01*
X150309523Y-68352381D01*
X149833333Y-68352381D02*
X149833333Y-67352381D01*
X149404762Y-68304762D02*
X149261905Y-68352381D01*
X149023809Y-68352381D01*
X148928571Y-68304762D01*
X148880952Y-68257143D01*
X148833333Y-68161905D01*
X148833333Y-68066667D01*
X148880952Y-67971429D01*
X148928571Y-67923810D01*
X149023809Y-67876190D01*
X149214286Y-67828571D01*
X149309524Y-67780952D01*
X149357143Y-67733333D01*
X149404762Y-67638095D01*
X149404762Y-67542857D01*
X149357143Y-67447619D01*
X149309524Y-67400000D01*
X149214286Y-67352381D01*
X148976190Y-67352381D01*
X148833333Y-67400000D01*
X148214286Y-67352381D02*
X148023809Y-67352381D01*
X147928571Y-67400000D01*
X147833333Y-67495238D01*
X147785714Y-67685714D01*
X147785714Y-68019048D01*
X147833333Y-68209524D01*
X147928571Y-68304762D01*
X148023809Y-68352381D01*
X148214286Y-68352381D01*
X148309524Y-68304762D01*
X148404762Y-68209524D01*
X148452381Y-68019048D01*
X148452381Y-67685714D01*
X148404762Y-67495238D01*
X148309524Y-67400000D01*
X148214286Y-67352381D01*
X146833333Y-68352381D02*
X147404762Y-68352381D01*
X147119048Y-68352381D02*
X147119048Y-67352381D01*
X147214286Y-67495238D01*
X147309524Y-67590476D01*
X147404762Y-67638095D01*
X154019047Y-75652381D02*
X154019047Y-74652381D01*
X153685713Y-75366667D01*
X153352380Y-74652381D01*
X153352380Y-75652381D01*
X152876190Y-75652381D02*
X152876190Y-74652381D01*
X152542856Y-75366667D01*
X152209523Y-74652381D01*
X152209523Y-75652381D01*
X151542857Y-74652381D02*
X151352380Y-74652381D01*
X151257142Y-74700000D01*
X151161904Y-74795238D01*
X151114285Y-74985714D01*
X151114285Y-75319048D01*
X151161904Y-75509524D01*
X151257142Y-75604762D01*
X151352380Y-75652381D01*
X151542857Y-75652381D01*
X151638095Y-75604762D01*
X151733333Y-75509524D01*
X151780952Y-75319048D01*
X151780952Y-74985714D01*
X151733333Y-74795238D01*
X151638095Y-74700000D01*
X151542857Y-74652381D01*
X150733333Y-75604762D02*
X150590476Y-75652381D01*
X150352380Y-75652381D01*
X150257142Y-75604762D01*
X150209523Y-75557143D01*
X150161904Y-75461905D01*
X150161904Y-75366667D01*
X150209523Y-75271429D01*
X150257142Y-75223810D01*
X150352380Y-75176190D01*
X150542857Y-75128571D01*
X150638095Y-75080952D01*
X150685714Y-75033333D01*
X150733333Y-74938095D01*
X150733333Y-74842857D01*
X150685714Y-74747619D01*
X150638095Y-74700000D01*
X150542857Y-74652381D01*
X150304761Y-74652381D01*
X150161904Y-74700000D01*
X149733333Y-75652381D02*
X149733333Y-74652381D01*
X148733333Y-75652381D02*
X149304762Y-75652381D01*
X149019048Y-75652381D02*
X149019048Y-74652381D01*
X149114286Y-74795238D01*
X149209524Y-74890476D01*
X149304762Y-74938095D01*
X154190476Y-78852381D02*
X154190476Y-77852381D01*
X153857142Y-78566667D01*
X153523809Y-77852381D01*
X153523809Y-78852381D01*
X153095238Y-78804762D02*
X152952381Y-78852381D01*
X152714285Y-78852381D01*
X152619047Y-78804762D01*
X152571428Y-78757143D01*
X152523809Y-78661905D01*
X152523809Y-78566667D01*
X152571428Y-78471429D01*
X152619047Y-78423810D01*
X152714285Y-78376190D01*
X152904762Y-78328571D01*
X153000000Y-78280952D01*
X153047619Y-78233333D01*
X153095238Y-78138095D01*
X153095238Y-78042857D01*
X153047619Y-77947619D01*
X153000000Y-77900000D01*
X152904762Y-77852381D01*
X152666666Y-77852381D01*
X152523809Y-77900000D01*
X151523809Y-78757143D02*
X151571428Y-78804762D01*
X151714285Y-78852381D01*
X151809523Y-78852381D01*
X151952381Y-78804762D01*
X152047619Y-78709524D01*
X152095238Y-78614286D01*
X152142857Y-78423810D01*
X152142857Y-78280952D01*
X152095238Y-78090476D01*
X152047619Y-77995238D01*
X151952381Y-77900000D01*
X151809523Y-77852381D01*
X151714285Y-77852381D01*
X151571428Y-77900000D01*
X151523809Y-77947619D01*
X150619047Y-78852381D02*
X151095238Y-78852381D01*
X151095238Y-77852381D01*
X150285714Y-78852381D02*
X150285714Y-77852381D01*
X149714285Y-78852381D02*
X150142857Y-78280952D01*
X149714285Y-77852381D02*
X150285714Y-78423810D01*
X148761904Y-78852381D02*
X149333333Y-78852381D01*
X149047619Y-78852381D02*
X149047619Y-77852381D01*
X149142857Y-77995238D01*
X149238095Y-78090476D01*
X149333333Y-78138095D01*
X145119048Y-61452381D02*
X145119048Y-60452381D01*
X144547619Y-61452381D01*
X144547619Y-60452381D01*
X143500000Y-61452381D02*
X143833334Y-60976190D01*
X144071429Y-61452381D02*
X144071429Y-60452381D01*
X143690476Y-60452381D01*
X143595238Y-60500000D01*
X143547619Y-60547619D01*
X143500000Y-60642857D01*
X143500000Y-60785714D01*
X143547619Y-60880952D01*
X143595238Y-60928571D01*
X143690476Y-60976190D01*
X144071429Y-60976190D01*
X143119048Y-61404762D02*
X142976191Y-61452381D01*
X142738095Y-61452381D01*
X142642857Y-61404762D01*
X142595238Y-61357143D01*
X142547619Y-61261905D01*
X142547619Y-61166667D01*
X142595238Y-61071429D01*
X142642857Y-61023810D01*
X142738095Y-60976190D01*
X142928572Y-60928571D01*
X143023810Y-60880952D01*
X143071429Y-60833333D01*
X143119048Y-60738095D01*
X143119048Y-60642857D01*
X143071429Y-60547619D01*
X143023810Y-60500000D01*
X142928572Y-60452381D01*
X142690476Y-60452381D01*
X142547619Y-60500000D01*
X142261905Y-60452381D02*
X141690476Y-60452381D01*
X141976191Y-61452381D02*
X141976191Y-60452381D01*
X140833333Y-61452381D02*
X141404762Y-61452381D01*
X141119048Y-61452381D02*
X141119048Y-60452381D01*
X141214286Y-60595238D01*
X141309524Y-60690476D01*
X141404762Y-60738095D01*
X128561905Y-62252381D02*
X128561905Y-61252381D01*
X128180952Y-61252381D01*
X128085714Y-61300000D01*
X128038095Y-61347619D01*
X127990476Y-61442857D01*
X127990476Y-61585714D01*
X128038095Y-61680952D01*
X128085714Y-61728571D01*
X128180952Y-61776190D01*
X128561905Y-61776190D01*
X127038095Y-61300000D02*
X127133333Y-61252381D01*
X127276190Y-61252381D01*
X127419048Y-61300000D01*
X127514286Y-61395238D01*
X127561905Y-61490476D01*
X127609524Y-61680952D01*
X127609524Y-61823810D01*
X127561905Y-62014286D01*
X127514286Y-62109524D01*
X127419048Y-62204762D01*
X127276190Y-62252381D01*
X127180952Y-62252381D01*
X127038095Y-62204762D01*
X126990476Y-62157143D01*
X126990476Y-61823810D01*
X127180952Y-61823810D01*
X126561905Y-62252381D02*
X126561905Y-61252381D01*
X125990476Y-62252381D01*
X125990476Y-61252381D01*
X125514286Y-62252381D02*
X125514286Y-61252381D01*
X125276191Y-61252381D01*
X125133333Y-61300000D01*
X125038095Y-61395238D01*
X124990476Y-61490476D01*
X124942857Y-61680952D01*
X124942857Y-61823810D01*
X124990476Y-62014286D01*
X125038095Y-62109524D01*
X125133333Y-62204762D01*
X125276191Y-62252381D01*
X125514286Y-62252381D01*
X123990476Y-62252381D02*
X124561905Y-62252381D01*
X124276191Y-62252381D02*
X124276191Y-61252381D01*
X124371429Y-61395238D01*
X124466667Y-61490476D01*
X124561905Y-61538095D01*
X125738095Y-67504762D02*
X125595238Y-67552381D01*
X125357142Y-67552381D01*
X125261904Y-67504762D01*
X125214285Y-67457143D01*
X125166666Y-67361905D01*
X125166666Y-67266667D01*
X125214285Y-67171429D01*
X125261904Y-67123810D01*
X125357142Y-67076190D01*
X125547619Y-67028571D01*
X125642857Y-66980952D01*
X125690476Y-66933333D01*
X125738095Y-66838095D01*
X125738095Y-66742857D01*
X125690476Y-66647619D01*
X125642857Y-66600000D01*
X125547619Y-66552381D01*
X125309523Y-66552381D01*
X125166666Y-66600000D01*
X124833333Y-66552381D02*
X124595238Y-67552381D01*
X124404761Y-66838095D01*
X124214285Y-67552381D01*
X123976190Y-66552381D01*
X123595238Y-67552381D02*
X123595238Y-66552381D01*
X123357143Y-66552381D01*
X123214285Y-66600000D01*
X123119047Y-66695238D01*
X123071428Y-66790476D01*
X123023809Y-66980952D01*
X123023809Y-67123810D01*
X123071428Y-67314286D01*
X123119047Y-67409524D01*
X123214285Y-67504762D01*
X123357143Y-67552381D01*
X123595238Y-67552381D01*
X122023809Y-67457143D02*
X122071428Y-67504762D01*
X122214285Y-67552381D01*
X122309523Y-67552381D01*
X122452381Y-67504762D01*
X122547619Y-67409524D01*
X122595238Y-67314286D01*
X122642857Y-67123810D01*
X122642857Y-66980952D01*
X122595238Y-66790476D01*
X122547619Y-66695238D01*
X122452381Y-66600000D01*
X122309523Y-66552381D01*
X122214285Y-66552381D01*
X122071428Y-66600000D01*
X122023809Y-66647619D01*
X121119047Y-67552381D02*
X121595238Y-67552381D01*
X121595238Y-66552381D01*
X120785714Y-67552381D02*
X120785714Y-66552381D01*
X120214285Y-67552381D02*
X120642857Y-66980952D01*
X120214285Y-66552381D02*
X120785714Y-67123810D01*
X119261904Y-67552381D02*
X119833333Y-67552381D01*
X119547619Y-67552381D02*
X119547619Y-66552381D01*
X119642857Y-66695238D01*
X119738095Y-66790476D01*
X119833333Y-66838095D01*
X120295238Y-71904762D02*
X120152381Y-71952381D01*
X119914285Y-71952381D01*
X119819047Y-71904762D01*
X119771428Y-71857143D01*
X119723809Y-71761905D01*
X119723809Y-71666667D01*
X119771428Y-71571429D01*
X119819047Y-71523810D01*
X119914285Y-71476190D01*
X120104762Y-71428571D01*
X120200000Y-71380952D01*
X120247619Y-71333333D01*
X120295238Y-71238095D01*
X120295238Y-71142857D01*
X120247619Y-71047619D01*
X120200000Y-71000000D01*
X120104762Y-70952381D01*
X119866666Y-70952381D01*
X119723809Y-71000000D01*
X119390476Y-70952381D02*
X119152381Y-71952381D01*
X118961904Y-71238095D01*
X118771428Y-71952381D01*
X118533333Y-70952381D01*
X118152381Y-71952381D02*
X118152381Y-70952381D01*
X117914286Y-70952381D01*
X117771428Y-71000000D01*
X117676190Y-71095238D01*
X117628571Y-71190476D01*
X117580952Y-71380952D01*
X117580952Y-71523810D01*
X117628571Y-71714286D01*
X117676190Y-71809524D01*
X117771428Y-71904762D01*
X117914286Y-71952381D01*
X118152381Y-71952381D01*
X117152381Y-71952381D02*
X117152381Y-70952381D01*
X116485715Y-70952381D02*
X116295238Y-70952381D01*
X116200000Y-71000000D01*
X116104762Y-71095238D01*
X116057143Y-71285714D01*
X116057143Y-71619048D01*
X116104762Y-71809524D01*
X116200000Y-71904762D01*
X116295238Y-71952381D01*
X116485715Y-71952381D01*
X116580953Y-71904762D01*
X116676191Y-71809524D01*
X116723810Y-71619048D01*
X116723810Y-71285714D01*
X116676191Y-71095238D01*
X116580953Y-71000000D01*
X116485715Y-70952381D01*
X115104762Y-71952381D02*
X115676191Y-71952381D01*
X115390477Y-71952381D02*
X115390477Y-70952381D01*
X115485715Y-71095238D01*
X115580953Y-71190476D01*
X115676191Y-71238095D01*
X121400000Y-83552381D02*
X121400000Y-84361905D01*
X121352381Y-84457143D01*
X121304762Y-84504762D01*
X121209524Y-84552381D01*
X121019047Y-84552381D01*
X120923809Y-84504762D01*
X120876190Y-84457143D01*
X120828571Y-84361905D01*
X120828571Y-83552381D01*
X120352381Y-84552381D02*
X120352381Y-83552381D01*
X119876191Y-84552381D02*
X119876191Y-83552381D01*
X119638096Y-83552381D01*
X119495238Y-83600000D01*
X119400000Y-83695238D01*
X119352381Y-83790476D01*
X119304762Y-83980952D01*
X119304762Y-84123810D01*
X119352381Y-84314286D01*
X119400000Y-84409524D01*
X119495238Y-84504762D01*
X119638096Y-84552381D01*
X119876191Y-84552381D01*
X118352381Y-84552381D02*
X118923810Y-84552381D01*
X118638096Y-84552381D02*
X118638096Y-83552381D01*
X118733334Y-83695238D01*
X118828572Y-83790476D01*
X118923810Y-83838095D01*
X129803571Y-136561905D02*
X129851190Y-136704762D01*
X129898810Y-136752381D01*
X129994048Y-136800000D01*
X130136905Y-136800000D01*
X130232143Y-136752381D01*
X130279762Y-136704762D01*
X130327381Y-136609524D01*
X130327381Y-136228571D01*
X129327381Y-136228571D01*
X129327381Y-136561905D01*
X129375000Y-136657143D01*
X129422619Y-136704762D01*
X129517857Y-136752381D01*
X129613095Y-136752381D01*
X129708333Y-136704762D01*
X129755952Y-136657143D01*
X129803571Y-136561905D01*
X129803571Y-136228571D01*
X130041667Y-137180952D02*
X130041667Y-137657143D01*
X130327381Y-137085714D02*
X129327381Y-137419047D01*
X130327381Y-137752381D01*
X129327381Y-137942857D02*
X129327381Y-138514286D01*
X130327381Y-138228571D02*
X129327381Y-138228571D01*
X129327381Y-138704762D02*
X129327381Y-139276191D01*
X130327381Y-138990476D02*
X129327381Y-138990476D01*
X129946429Y-139609524D02*
X129946429Y-140371429D01*
X129803571Y-141180953D02*
X129851190Y-141323810D01*
X129898810Y-141371429D01*
X129994048Y-141419048D01*
X130136905Y-141419048D01*
X130232143Y-141371429D01*
X130279762Y-141323810D01*
X130327381Y-141228572D01*
X130327381Y-140847619D01*
X129327381Y-140847619D01*
X129327381Y-141180953D01*
X129375000Y-141276191D01*
X129422619Y-141323810D01*
X129517857Y-141371429D01*
X129613095Y-141371429D01*
X129708333Y-141323810D01*
X129755952Y-141276191D01*
X129803571Y-141180953D01*
X129803571Y-140847619D01*
X129327381Y-141847619D02*
X130136905Y-141847619D01*
X130232143Y-141895238D01*
X130279762Y-141942857D01*
X130327381Y-142038095D01*
X130327381Y-142228572D01*
X130279762Y-142323810D01*
X130232143Y-142371429D01*
X130136905Y-142419048D01*
X129327381Y-142419048D01*
X130232143Y-143466667D02*
X130279762Y-143419048D01*
X130327381Y-143276191D01*
X130327381Y-143180953D01*
X130279762Y-143038095D01*
X130184524Y-142942857D01*
X130089286Y-142895238D01*
X129898810Y-142847619D01*
X129755952Y-142847619D01*
X129565476Y-142895238D01*
X129470238Y-142942857D01*
X129375000Y-143038095D01*
X129327381Y-143180953D01*
X129327381Y-143276191D01*
X129375000Y-143419048D01*
X129422619Y-143466667D01*
X130327381Y-143895238D02*
X129327381Y-143895238D01*
X130327381Y-144466667D02*
X129755952Y-144038095D01*
X129327381Y-144466667D02*
X129898810Y-143895238D01*
X130327381Y-145419048D02*
X130327381Y-144847619D01*
X130327381Y-145133333D02*
X129327381Y-145133333D01*
X129470238Y-145038095D01*
X129565476Y-144942857D01*
X129613095Y-144847619D01*
X206778571Y-81962143D02*
X206826190Y-82105000D01*
X206873810Y-82152619D01*
X206969048Y-82200238D01*
X207111905Y-82200238D01*
X207207143Y-82152619D01*
X207254762Y-82105000D01*
X207302381Y-82009762D01*
X207302381Y-81628809D01*
X206302381Y-81628809D01*
X206302381Y-81962143D01*
X206350000Y-82057381D01*
X206397619Y-82105000D01*
X206492857Y-82152619D01*
X206588095Y-82152619D01*
X206683333Y-82105000D01*
X206730952Y-82057381D01*
X206778571Y-81962143D01*
X206778571Y-81628809D01*
X207016667Y-82581190D02*
X207016667Y-83057381D01*
X207302381Y-82485952D02*
X206302381Y-82819285D01*
X207302381Y-83152619D01*
X206302381Y-83343095D02*
X206302381Y-83914524D01*
X207302381Y-83628809D02*
X206302381Y-83628809D01*
X206302381Y-84105000D02*
X206302381Y-84676429D01*
X207302381Y-84390714D02*
X206302381Y-84390714D01*
X206921429Y-85009762D02*
X206921429Y-85771667D01*
X207016667Y-86200238D02*
X207016667Y-86676429D01*
X207302381Y-86105000D02*
X206302381Y-86438333D01*
X207302381Y-86771667D01*
X206921429Y-87105000D02*
X206921429Y-87866905D01*
X206778571Y-88676429D02*
X206778571Y-88343095D01*
X207302381Y-88343095D02*
X206302381Y-88343095D01*
X206302381Y-88819286D01*
X206302381Y-89200238D02*
X207111905Y-89200238D01*
X207207143Y-89247857D01*
X207254762Y-89295476D01*
X207302381Y-89390714D01*
X207302381Y-89581191D01*
X207254762Y-89676429D01*
X207207143Y-89724048D01*
X207111905Y-89771667D01*
X206302381Y-89771667D01*
X207254762Y-90200238D02*
X207302381Y-90343095D01*
X207302381Y-90581191D01*
X207254762Y-90676429D01*
X207207143Y-90724048D01*
X207111905Y-90771667D01*
X207016667Y-90771667D01*
X206921429Y-90724048D01*
X206873810Y-90676429D01*
X206826190Y-90581191D01*
X206778571Y-90390714D01*
X206730952Y-90295476D01*
X206683333Y-90247857D01*
X206588095Y-90200238D01*
X206492857Y-90200238D01*
X206397619Y-90247857D01*
X206350000Y-90295476D01*
X206302381Y-90390714D01*
X206302381Y-90628810D01*
X206350000Y-90771667D01*
X206778571Y-91200238D02*
X206778571Y-91533572D01*
X207302381Y-91676429D02*
X207302381Y-91200238D01*
X206302381Y-91200238D01*
X206302381Y-91676429D01*
X207302381Y-92628810D02*
X207302381Y-92057381D01*
X207302381Y-92343095D02*
X206302381Y-92343095D01*
X206445238Y-92247857D01*
X206540476Y-92152619D01*
X206588095Y-92057381D01*
X155578571Y-171890715D02*
X155626190Y-172033572D01*
X155673810Y-172081191D01*
X155769048Y-172128810D01*
X155911905Y-172128810D01*
X156007143Y-172081191D01*
X156054762Y-172033572D01*
X156102381Y-171938334D01*
X156102381Y-171557381D01*
X155102381Y-171557381D01*
X155102381Y-171890715D01*
X155150000Y-171985953D01*
X155197619Y-172033572D01*
X155292857Y-172081191D01*
X155388095Y-172081191D01*
X155483333Y-172033572D01*
X155530952Y-171985953D01*
X155578571Y-171890715D01*
X155578571Y-171557381D01*
X155816667Y-172509762D02*
X155816667Y-172985953D01*
X156102381Y-172414524D02*
X155102381Y-172747857D01*
X156102381Y-173081191D01*
X155102381Y-173271667D02*
X155102381Y-173843096D01*
X156102381Y-173557381D02*
X155102381Y-173557381D01*
X155102381Y-174033572D02*
X155102381Y-174605001D01*
X156102381Y-174319286D02*
X155102381Y-174319286D01*
X155721429Y-174938334D02*
X155721429Y-175700239D01*
X155578571Y-176509763D02*
X155626190Y-176652620D01*
X155673810Y-176700239D01*
X155769048Y-176747858D01*
X155911905Y-176747858D01*
X156007143Y-176700239D01*
X156054762Y-176652620D01*
X156102381Y-176557382D01*
X156102381Y-176176429D01*
X155102381Y-176176429D01*
X155102381Y-176509763D01*
X155150000Y-176605001D01*
X155197619Y-176652620D01*
X155292857Y-176700239D01*
X155388095Y-176700239D01*
X155483333Y-176652620D01*
X155530952Y-176605001D01*
X155578571Y-176509763D01*
X155578571Y-176176429D01*
X155721429Y-177176429D02*
X155721429Y-177938334D01*
X155578571Y-178747858D02*
X155578571Y-178414524D01*
X156102381Y-178414524D02*
X155102381Y-178414524D01*
X155102381Y-178890715D01*
X155102381Y-179271667D02*
X155911905Y-179271667D01*
X156007143Y-179319286D01*
X156054762Y-179366905D01*
X156102381Y-179462143D01*
X156102381Y-179652620D01*
X156054762Y-179747858D01*
X156007143Y-179795477D01*
X155911905Y-179843096D01*
X155102381Y-179843096D01*
X156054762Y-180271667D02*
X156102381Y-180414524D01*
X156102381Y-180652620D01*
X156054762Y-180747858D01*
X156007143Y-180795477D01*
X155911905Y-180843096D01*
X155816667Y-180843096D01*
X155721429Y-180795477D01*
X155673810Y-180747858D01*
X155626190Y-180652620D01*
X155578571Y-180462143D01*
X155530952Y-180366905D01*
X155483333Y-180319286D01*
X155388095Y-180271667D01*
X155292857Y-180271667D01*
X155197619Y-180319286D01*
X155150000Y-180366905D01*
X155102381Y-180462143D01*
X155102381Y-180700239D01*
X155150000Y-180843096D01*
X155578571Y-181271667D02*
X155578571Y-181605001D01*
X156102381Y-181747858D02*
X156102381Y-181271667D01*
X155102381Y-181271667D01*
X155102381Y-181747858D01*
X156102381Y-182700239D02*
X156102381Y-182128810D01*
X156102381Y-182414524D02*
X155102381Y-182414524D01*
X155245238Y-182319286D01*
X155340476Y-182224048D01*
X155388095Y-182128810D01*
X149388571Y-171880953D02*
X149436190Y-172023810D01*
X149483810Y-172071429D01*
X149579048Y-172119048D01*
X149721905Y-172119048D01*
X149817143Y-172071429D01*
X149864762Y-172023810D01*
X149912381Y-171928572D01*
X149912381Y-171547619D01*
X148912381Y-171547619D01*
X148912381Y-171880953D01*
X148960000Y-171976191D01*
X149007619Y-172023810D01*
X149102857Y-172071429D01*
X149198095Y-172071429D01*
X149293333Y-172023810D01*
X149340952Y-171976191D01*
X149388571Y-171880953D01*
X149388571Y-171547619D01*
X149626667Y-172500000D02*
X149626667Y-172976191D01*
X149912381Y-172404762D02*
X148912381Y-172738095D01*
X149912381Y-173071429D01*
X148912381Y-173261905D02*
X148912381Y-173833334D01*
X149912381Y-173547619D02*
X148912381Y-173547619D01*
X148912381Y-174023810D02*
X148912381Y-174595239D01*
X149912381Y-174309524D02*
X148912381Y-174309524D01*
X149531429Y-174928572D02*
X149531429Y-175690477D01*
X149388571Y-176500001D02*
X149436190Y-176642858D01*
X149483810Y-176690477D01*
X149579048Y-176738096D01*
X149721905Y-176738096D01*
X149817143Y-176690477D01*
X149864762Y-176642858D01*
X149912381Y-176547620D01*
X149912381Y-176166667D01*
X148912381Y-176166667D01*
X148912381Y-176500001D01*
X148960000Y-176595239D01*
X149007619Y-176642858D01*
X149102857Y-176690477D01*
X149198095Y-176690477D01*
X149293333Y-176642858D01*
X149340952Y-176595239D01*
X149388571Y-176500001D01*
X149388571Y-176166667D01*
X148912381Y-177166667D02*
X149721905Y-177166667D01*
X149817143Y-177214286D01*
X149864762Y-177261905D01*
X149912381Y-177357143D01*
X149912381Y-177547620D01*
X149864762Y-177642858D01*
X149817143Y-177690477D01*
X149721905Y-177738096D01*
X148912381Y-177738096D01*
X149817143Y-178785715D02*
X149864762Y-178738096D01*
X149912381Y-178595239D01*
X149912381Y-178500001D01*
X149864762Y-178357143D01*
X149769524Y-178261905D01*
X149674286Y-178214286D01*
X149483810Y-178166667D01*
X149340952Y-178166667D01*
X149150476Y-178214286D01*
X149055238Y-178261905D01*
X148960000Y-178357143D01*
X148912381Y-178500001D01*
X148912381Y-178595239D01*
X148960000Y-178738096D01*
X149007619Y-178785715D01*
X149912381Y-179214286D02*
X148912381Y-179214286D01*
X149912381Y-179785715D02*
X149340952Y-179357143D01*
X148912381Y-179785715D02*
X149483810Y-179214286D01*
X149531429Y-180214286D02*
X149531429Y-180976191D01*
X149817143Y-182023810D02*
X149864762Y-181976191D01*
X149912381Y-181833334D01*
X149912381Y-181738096D01*
X149864762Y-181595238D01*
X149769524Y-181500000D01*
X149674286Y-181452381D01*
X149483810Y-181404762D01*
X149340952Y-181404762D01*
X149150476Y-181452381D01*
X149055238Y-181500000D01*
X148960000Y-181595238D01*
X148912381Y-181738096D01*
X148912381Y-181833334D01*
X148960000Y-181976191D01*
X149007619Y-182023810D01*
X149912381Y-182452381D02*
X148912381Y-182452381D01*
X149912381Y-182928571D02*
X148912381Y-182928571D01*
X149912381Y-183500000D01*
X148912381Y-183500000D01*
X149912381Y-184500000D02*
X149912381Y-183928571D01*
X149912381Y-184214285D02*
X148912381Y-184214285D01*
X149055238Y-184119047D01*
X149150476Y-184023809D01*
X149198095Y-183928571D01*
X148041429Y-171839048D02*
X148041429Y-172600953D01*
X148422381Y-172220001D02*
X147660476Y-172220001D01*
X132878571Y-137035715D02*
X132926190Y-137178572D01*
X132973810Y-137226191D01*
X133069048Y-137273810D01*
X133211905Y-137273810D01*
X133307143Y-137226191D01*
X133354762Y-137178572D01*
X133402381Y-137083334D01*
X133402381Y-136702381D01*
X132402381Y-136702381D01*
X132402381Y-137035715D01*
X132450000Y-137130953D01*
X132497619Y-137178572D01*
X132592857Y-137226191D01*
X132688095Y-137226191D01*
X132783333Y-137178572D01*
X132830952Y-137130953D01*
X132878571Y-137035715D01*
X132878571Y-136702381D01*
X133116667Y-137654762D02*
X133116667Y-138130953D01*
X133402381Y-137559524D02*
X132402381Y-137892857D01*
X133402381Y-138226191D01*
X132402381Y-138416667D02*
X132402381Y-138988096D01*
X133402381Y-138702381D02*
X132402381Y-138702381D01*
X132402381Y-139178572D02*
X132402381Y-139750001D01*
X133402381Y-139464286D02*
X132402381Y-139464286D01*
X133021429Y-140083334D02*
X133021429Y-140845239D01*
X132878571Y-141654763D02*
X132926190Y-141797620D01*
X132973810Y-141845239D01*
X133069048Y-141892858D01*
X133211905Y-141892858D01*
X133307143Y-141845239D01*
X133354762Y-141797620D01*
X133402381Y-141702382D01*
X133402381Y-141321429D01*
X132402381Y-141321429D01*
X132402381Y-141654763D01*
X132450000Y-141750001D01*
X132497619Y-141797620D01*
X132592857Y-141845239D01*
X132688095Y-141845239D01*
X132783333Y-141797620D01*
X132830952Y-141750001D01*
X132878571Y-141654763D01*
X132878571Y-141321429D01*
X132402381Y-142321429D02*
X133211905Y-142321429D01*
X133307143Y-142369048D01*
X133354762Y-142416667D01*
X133402381Y-142511905D01*
X133402381Y-142702382D01*
X133354762Y-142797620D01*
X133307143Y-142845239D01*
X133211905Y-142892858D01*
X132402381Y-142892858D01*
X133307143Y-143940477D02*
X133354762Y-143892858D01*
X133402381Y-143750001D01*
X133402381Y-143654763D01*
X133354762Y-143511905D01*
X133259524Y-143416667D01*
X133164286Y-143369048D01*
X132973810Y-143321429D01*
X132830952Y-143321429D01*
X132640476Y-143369048D01*
X132545238Y-143416667D01*
X132450000Y-143511905D01*
X132402381Y-143654763D01*
X132402381Y-143750001D01*
X132450000Y-143892858D01*
X132497619Y-143940477D01*
X133402381Y-144369048D02*
X132402381Y-144369048D01*
X133402381Y-144940477D02*
X132830952Y-144511905D01*
X132402381Y-144940477D02*
X132973810Y-144369048D01*
X133021429Y-145369048D02*
X133021429Y-146130953D01*
X133402381Y-146607143D02*
X132402381Y-146607143D01*
X132402381Y-146988096D01*
X132450000Y-147083334D01*
X132497619Y-147130953D01*
X132592857Y-147178572D01*
X132735714Y-147178572D01*
X132830952Y-147130953D01*
X132878571Y-147083334D01*
X132926190Y-146988096D01*
X132926190Y-146607143D01*
X132402381Y-147607143D02*
X133211905Y-147607143D01*
X133307143Y-147654762D01*
X133354762Y-147702381D01*
X133402381Y-147797619D01*
X133402381Y-147988096D01*
X133354762Y-148083334D01*
X133307143Y-148130953D01*
X133211905Y-148178572D01*
X132402381Y-148178572D01*
X133402381Y-149130953D02*
X133402381Y-148654762D01*
X132402381Y-148654762D01*
X133402381Y-149940477D02*
X133402381Y-149464286D01*
X132402381Y-149464286D01*
X132402381Y-150273810D02*
X133211905Y-150273810D01*
X133307143Y-150321429D01*
X133354762Y-150369048D01*
X133402381Y-150464286D01*
X133402381Y-150654763D01*
X133354762Y-150750001D01*
X133307143Y-150797620D01*
X133211905Y-150845239D01*
X132402381Y-150845239D01*
X133402381Y-151321429D02*
X132402381Y-151321429D01*
X132402381Y-151702382D01*
X132450000Y-151797620D01*
X132497619Y-151845239D01*
X132592857Y-151892858D01*
X132735714Y-151892858D01*
X132830952Y-151845239D01*
X132878571Y-151797620D01*
X132926190Y-151702382D01*
X132926190Y-151321429D01*
X133402381Y-152845239D02*
X133402381Y-152273810D01*
X133402381Y-152559524D02*
X132402381Y-152559524D01*
X132545238Y-152464286D01*
X132640476Y-152369048D01*
X132688095Y-152273810D01*
X141456777Y-60086980D02*
X141524120Y-60086980D01*
X141658807Y-60019636D01*
X141726151Y-59952293D01*
X141793495Y-59817605D01*
X141793495Y-59682918D01*
X141759823Y-59581903D01*
X141658808Y-59413545D01*
X141557792Y-59312529D01*
X141389433Y-59211514D01*
X141288418Y-59177842D01*
X141153731Y-59177842D01*
X141019044Y-59245186D01*
X140951700Y-59312529D01*
X140884357Y-59447216D01*
X140884357Y-59514560D01*
X140614983Y-59783934D02*
X140547640Y-59783934D01*
X140446625Y-59817605D01*
X140278265Y-59985965D01*
X140244594Y-60086980D01*
X140244594Y-60154323D01*
X140278265Y-60255338D01*
X140345609Y-60322682D01*
X140480296Y-60390025D01*
X141288418Y-60390025D01*
X140850685Y-60827758D01*
X139773189Y-60962445D02*
X140244594Y-61433850D01*
X139672174Y-60524712D02*
X140345609Y-60861430D01*
X139907876Y-61299163D01*
X146138097Y-64898300D02*
X146205440Y-64898300D01*
X146340127Y-64830956D01*
X146407471Y-64763613D01*
X146474815Y-64628925D01*
X146474815Y-64494238D01*
X146441143Y-64393223D01*
X146340128Y-64224865D01*
X146239112Y-64123849D01*
X146070753Y-64022834D01*
X145969738Y-63989162D01*
X145835051Y-63989162D01*
X145700364Y-64056506D01*
X145633020Y-64123849D01*
X145565677Y-64258536D01*
X145565677Y-64325880D01*
X145296303Y-64595254D02*
X145228960Y-64595254D01*
X145127945Y-64628925D01*
X144959585Y-64797285D01*
X144925914Y-64898300D01*
X144925914Y-64965643D01*
X144959585Y-65066658D01*
X145026929Y-65134002D01*
X145161616Y-65201345D01*
X145969738Y-65201345D01*
X145532005Y-65639078D01*
X144185135Y-65571735D02*
X144521853Y-65235017D01*
X144892242Y-65538062D01*
X144824898Y-65538062D01*
X144723883Y-65571734D01*
X144555524Y-65740093D01*
X144521852Y-65841108D01*
X144521852Y-65908452D01*
X144555525Y-66009468D01*
X144723883Y-66177826D01*
X144824898Y-66211498D01*
X144892242Y-66211498D01*
X144993257Y-66177826D01*
X145161616Y-66009467D01*
X145195288Y-65908452D01*
X145195288Y-65841108D01*
X141007107Y-80297969D02*
X141074450Y-80297969D01*
X141209137Y-80230625D01*
X141276481Y-80163282D01*
X141343825Y-80028594D01*
X141343825Y-79893907D01*
X141310153Y-79792892D01*
X141209138Y-79624534D01*
X141108122Y-79523518D01*
X140939763Y-79422503D01*
X140838748Y-79388831D01*
X140704061Y-79388831D01*
X140569374Y-79456175D01*
X140502030Y-79523518D01*
X140434687Y-79658205D01*
X140434687Y-79725549D01*
X140165313Y-79994923D02*
X140097970Y-79994923D01*
X139996955Y-80028594D01*
X139828595Y-80196954D01*
X139794924Y-80297969D01*
X139794924Y-80365312D01*
X139828595Y-80466327D01*
X139895939Y-80533671D01*
X140030626Y-80601014D01*
X140838748Y-80601014D01*
X140401015Y-81038747D01*
X139087817Y-80937732D02*
X139222504Y-80803044D01*
X139323519Y-80769373D01*
X139390863Y-80769373D01*
X139559222Y-80803044D01*
X139727580Y-80904060D01*
X139996955Y-81173434D01*
X140030626Y-81274449D01*
X140030626Y-81341793D01*
X139996955Y-81442808D01*
X139862267Y-81577495D01*
X139761252Y-81611167D01*
X139693908Y-81611167D01*
X139592893Y-81577495D01*
X139424535Y-81409137D01*
X139390862Y-81308121D01*
X139390862Y-81240777D01*
X139424534Y-81139762D01*
X139559222Y-81005075D01*
X139660237Y-80971403D01*
X139727580Y-80971403D01*
X139828596Y-81005075D01*
X124707107Y-69297970D02*
X124774450Y-69297970D01*
X124909137Y-69230626D01*
X124976481Y-69163283D01*
X125043825Y-69028595D01*
X125043825Y-68893908D01*
X125010153Y-68792893D01*
X124909138Y-68624535D01*
X124808122Y-68523519D01*
X124639763Y-68422504D01*
X124538748Y-68388832D01*
X124404061Y-68388832D01*
X124269374Y-68456176D01*
X124202030Y-68523519D01*
X124134687Y-68658206D01*
X124134687Y-68725550D01*
X123865313Y-68994924D02*
X123797970Y-68994924D01*
X123696955Y-69028595D01*
X123528595Y-69196955D01*
X123494924Y-69297970D01*
X123494924Y-69365313D01*
X123528595Y-69466328D01*
X123595939Y-69533672D01*
X123730626Y-69601015D01*
X124538748Y-69601015D01*
X124101015Y-70038748D01*
X123158206Y-69567343D02*
X122686802Y-70038748D01*
X123696955Y-70442809D01*
X132902030Y-62907107D02*
X132902030Y-62974450D01*
X132969374Y-63109137D01*
X133036717Y-63176481D01*
X133171405Y-63243825D01*
X133306092Y-63243825D01*
X133407107Y-63210153D01*
X133575465Y-63109138D01*
X133676481Y-63008122D01*
X133777496Y-62839763D01*
X133811168Y-62738748D01*
X133811168Y-62604061D01*
X133743824Y-62469374D01*
X133676481Y-62402030D01*
X133541794Y-62334687D01*
X133474450Y-62334687D01*
X133205076Y-62065313D02*
X133205076Y-61997970D01*
X133171405Y-61896955D01*
X133003045Y-61728595D01*
X132902030Y-61694924D01*
X132834687Y-61694924D01*
X132733672Y-61728595D01*
X132666328Y-61795939D01*
X132598985Y-61930626D01*
X132598985Y-62738748D01*
X132161252Y-62301015D01*
X132161253Y-61492893D02*
X132262268Y-61526565D01*
X132329611Y-61526565D01*
X132430626Y-61492893D01*
X132464298Y-61459222D01*
X132497970Y-61358206D01*
X132497970Y-61290863D01*
X132464298Y-61189848D01*
X132329610Y-61055160D01*
X132228595Y-61021488D01*
X132161252Y-61021488D01*
X132060237Y-61055160D01*
X132026565Y-61088832D01*
X131992893Y-61189847D01*
X131992893Y-61257190D01*
X132026565Y-61358206D01*
X132161253Y-61492893D01*
X132194924Y-61593908D01*
X132194924Y-61661252D01*
X132161252Y-61762268D01*
X132026565Y-61896955D01*
X131925550Y-61930626D01*
X131858206Y-61930626D01*
X131757191Y-61896955D01*
X131622504Y-61762267D01*
X131588832Y-61661252D01*
X131588832Y-61593908D01*
X131622504Y-61492893D01*
X131757190Y-61358206D01*
X131858206Y-61324534D01*
X131925550Y-61324534D01*
X132026565Y-61358206D01*
X124457143Y-87357143D02*
X124504762Y-87309524D01*
X124552381Y-87166667D01*
X124552381Y-87071429D01*
X124504762Y-86928571D01*
X124409524Y-86833333D01*
X124314286Y-86785714D01*
X124123810Y-86738095D01*
X123980952Y-86738095D01*
X123790476Y-86785714D01*
X123695238Y-86833333D01*
X123600000Y-86928571D01*
X123552381Y-87071429D01*
X123552381Y-87166667D01*
X123600000Y-87309524D01*
X123647619Y-87357143D01*
X123647619Y-87738095D02*
X123600000Y-87785714D01*
X123552381Y-87880952D01*
X123552381Y-88119048D01*
X123600000Y-88214286D01*
X123647619Y-88261905D01*
X123742857Y-88309524D01*
X123838095Y-88309524D01*
X123980952Y-88261905D01*
X124552381Y-87690476D01*
X124552381Y-88309524D01*
X124552381Y-88785714D02*
X124552381Y-88976190D01*
X124504762Y-89071429D01*
X124457143Y-89119048D01*
X124314286Y-89214286D01*
X124123810Y-89261905D01*
X123742857Y-89261905D01*
X123647619Y-89214286D01*
X123600000Y-89166667D01*
X123552381Y-89071429D01*
X123552381Y-88880952D01*
X123600000Y-88785714D01*
X123647619Y-88738095D01*
X123742857Y-88690476D01*
X123980952Y-88690476D01*
X124076190Y-88738095D01*
X124123810Y-88785714D01*
X124171429Y-88880952D01*
X124171429Y-89071429D01*
X124123810Y-89166667D01*
X124076190Y-89214286D01*
X123980952Y-89261905D01*
X142107107Y-81297970D02*
X142174450Y-81297970D01*
X142309137Y-81230626D01*
X142376481Y-81163283D01*
X142443825Y-81028595D01*
X142443825Y-80893908D01*
X142410153Y-80792893D01*
X142309138Y-80624535D01*
X142208122Y-80523519D01*
X142039763Y-80422504D01*
X141938748Y-80388832D01*
X141804061Y-80388832D01*
X141669374Y-80456176D01*
X141602030Y-80523519D01*
X141534687Y-80658206D01*
X141534687Y-80725550D01*
X141231641Y-80893908D02*
X140793908Y-81331641D01*
X141298985Y-81365312D01*
X141197969Y-81466328D01*
X141164297Y-81567343D01*
X141164297Y-81634687D01*
X141197970Y-81735703D01*
X141366328Y-81904061D01*
X141467343Y-81937733D01*
X141534687Y-81937733D01*
X141635702Y-81904061D01*
X141837733Y-81702030D01*
X141871405Y-81601015D01*
X141871405Y-81533672D01*
X140356176Y-81769374D02*
X140288832Y-81836718D01*
X140255160Y-81937733D01*
X140255160Y-82005076D01*
X140288832Y-82106092D01*
X140389847Y-82274450D01*
X140558206Y-82442810D01*
X140726565Y-82543825D01*
X140827580Y-82577496D01*
X140894924Y-82577496D01*
X140995939Y-82543825D01*
X141063283Y-82476481D01*
X141096955Y-82375465D01*
X141096955Y-82308122D01*
X141063283Y-82207107D01*
X140962268Y-82038748D01*
X140793908Y-81870389D01*
X140625550Y-81769374D01*
X140524535Y-81735702D01*
X140457191Y-81735702D01*
X140356176Y-81769374D01*
X123507107Y-68297970D02*
X123574450Y-68297970D01*
X123709137Y-68230626D01*
X123776481Y-68163283D01*
X123843825Y-68028595D01*
X123843825Y-67893908D01*
X123810153Y-67792893D01*
X123709138Y-67624535D01*
X123608122Y-67523519D01*
X123439763Y-67422504D01*
X123338748Y-67388832D01*
X123204061Y-67388832D01*
X123069374Y-67456176D01*
X123002030Y-67523519D01*
X122934687Y-67658206D01*
X122934687Y-67725550D01*
X122631641Y-67893908D02*
X122193908Y-68331641D01*
X122698985Y-68365312D01*
X122597969Y-68466328D01*
X122564297Y-68567343D01*
X122564297Y-68634687D01*
X122597970Y-68735703D01*
X122766328Y-68904061D01*
X122867343Y-68937733D01*
X122934687Y-68937733D01*
X123035702Y-68904061D01*
X123237733Y-68702030D01*
X123271405Y-68601015D01*
X123271405Y-68533672D01*
X122227580Y-69712183D02*
X122631641Y-69308122D01*
X122429611Y-69510152D02*
X121722504Y-68803045D01*
X121890863Y-68836717D01*
X122025550Y-68836717D01*
X122126565Y-68803045D01*
X145337437Y-70788960D02*
X145404780Y-70788960D01*
X145539467Y-70721616D01*
X145606811Y-70654273D01*
X145674155Y-70519585D01*
X145674155Y-70384898D01*
X145640483Y-70283883D01*
X145539468Y-70115525D01*
X145438452Y-70014509D01*
X145270093Y-69913494D01*
X145169078Y-69879822D01*
X145034391Y-69879822D01*
X144899704Y-69947166D01*
X144832360Y-70014509D01*
X144765017Y-70149196D01*
X144765017Y-70216540D01*
X144461971Y-70384898D02*
X144024238Y-70822631D01*
X144529315Y-70856302D01*
X144428299Y-70957318D01*
X144394627Y-71058333D01*
X144394627Y-71125677D01*
X144428300Y-71226693D01*
X144596658Y-71395051D01*
X144697673Y-71428723D01*
X144765017Y-71428723D01*
X144866032Y-71395051D01*
X145068063Y-71193020D01*
X145101735Y-71092005D01*
X145101735Y-71024662D01*
X143822208Y-71159349D02*
X143754865Y-71159349D01*
X143653849Y-71193020D01*
X143485490Y-71361380D01*
X143451818Y-71462395D01*
X143451818Y-71529738D01*
X143485490Y-71630753D01*
X143552834Y-71698097D01*
X143687520Y-71765440D01*
X144495643Y-71765440D01*
X144057910Y-72203173D01*
X124637143Y-90307143D02*
X124684762Y-90259524D01*
X124732381Y-90116667D01*
X124732381Y-90021429D01*
X124684762Y-89878571D01*
X124589524Y-89783333D01*
X124494286Y-89735714D01*
X124303810Y-89688095D01*
X124160952Y-89688095D01*
X123970476Y-89735714D01*
X123875238Y-89783333D01*
X123780000Y-89878571D01*
X123732381Y-90021429D01*
X123732381Y-90116667D01*
X123780000Y-90259524D01*
X123827619Y-90307143D01*
X123732381Y-90640476D02*
X123732381Y-91259524D01*
X124113333Y-90926190D01*
X124113333Y-91069048D01*
X124160952Y-91164286D01*
X124208571Y-91211905D01*
X124303810Y-91259524D01*
X124541905Y-91259524D01*
X124637143Y-91211905D01*
X124684762Y-91164286D01*
X124732381Y-91069048D01*
X124732381Y-90783333D01*
X124684762Y-90688095D01*
X124637143Y-90640476D01*
X123732381Y-91592857D02*
X123732381Y-92211905D01*
X124113333Y-91878571D01*
X124113333Y-92021429D01*
X124160952Y-92116667D01*
X124208571Y-92164286D01*
X124303810Y-92211905D01*
X124541905Y-92211905D01*
X124637143Y-92164286D01*
X124684762Y-92116667D01*
X124732381Y-92021429D01*
X124732381Y-91735714D01*
X124684762Y-91640476D01*
X124637143Y-91592857D01*
X122607106Y-67397970D02*
X122674449Y-67397970D01*
X122809136Y-67330626D01*
X122876480Y-67263283D01*
X122943824Y-67128595D01*
X122943824Y-66993908D01*
X122910152Y-66892893D01*
X122809137Y-66724535D01*
X122708121Y-66623519D01*
X122539762Y-66522504D01*
X122438747Y-66488832D01*
X122304060Y-66488832D01*
X122169373Y-66556176D01*
X122102029Y-66623519D01*
X122034686Y-66758206D01*
X122034686Y-66825550D01*
X121731640Y-66993908D02*
X121293907Y-67431641D01*
X121798984Y-67465312D01*
X121697968Y-67566328D01*
X121664296Y-67667343D01*
X121664296Y-67734687D01*
X121697969Y-67835703D01*
X121866327Y-68004061D01*
X121967342Y-68037733D01*
X122034686Y-68037733D01*
X122135701Y-68004061D01*
X122337732Y-67802030D01*
X122371404Y-67701015D01*
X122371404Y-67633672D01*
X120923518Y-68273435D02*
X121394923Y-68744840D01*
X120822503Y-67835702D02*
X121495938Y-68172420D01*
X121058205Y-68610153D01*
X127539340Y-80444417D02*
X127606683Y-80444417D01*
X127741370Y-80377073D01*
X127808714Y-80309730D01*
X127876058Y-80175042D01*
X127876058Y-80040355D01*
X127842386Y-79939340D01*
X127741371Y-79770982D01*
X127640355Y-79669966D01*
X127471996Y-79568951D01*
X127370981Y-79535279D01*
X127236294Y-79535279D01*
X127101607Y-79602623D01*
X127034263Y-79669966D01*
X126966920Y-79804653D01*
X126966920Y-79871997D01*
X126663874Y-80040355D02*
X126226141Y-80478088D01*
X126731218Y-80511759D01*
X126630202Y-80612775D01*
X126596530Y-80713790D01*
X126596530Y-80781134D01*
X126630203Y-80882150D01*
X126798561Y-81050508D01*
X126899576Y-81084180D01*
X126966920Y-81084180D01*
X127067935Y-81050508D01*
X127269966Y-80848477D01*
X127303638Y-80747462D01*
X127303638Y-80680119D01*
X125586378Y-81117852D02*
X125923096Y-80781134D01*
X126293485Y-81084179D01*
X126226141Y-81084179D01*
X126125126Y-81117851D01*
X125956767Y-81286210D01*
X125923095Y-81387225D01*
X125923095Y-81454569D01*
X125956768Y-81555585D01*
X126125126Y-81723943D01*
X126226141Y-81757615D01*
X126293485Y-81757615D01*
X126394500Y-81723943D01*
X126562859Y-81555584D01*
X126596531Y-81454569D01*
X126596531Y-81387225D01*
X136262690Y-67567767D02*
X136262690Y-67635110D01*
X136330034Y-67769797D01*
X136397377Y-67837141D01*
X136532065Y-67904485D01*
X136666752Y-67904485D01*
X136767767Y-67870813D01*
X136936125Y-67769798D01*
X137037141Y-67668782D01*
X137138156Y-67500423D01*
X137171828Y-67399408D01*
X137171828Y-67264721D01*
X137104484Y-67130034D01*
X137037141Y-67062690D01*
X136902454Y-66995347D01*
X136835110Y-66995347D01*
X136666752Y-66692301D02*
X136229019Y-66254568D01*
X136195348Y-66759645D01*
X136094332Y-66658629D01*
X135993317Y-66624957D01*
X135925973Y-66624957D01*
X135824957Y-66658630D01*
X135656599Y-66826988D01*
X135622927Y-66928003D01*
X135622927Y-66995347D01*
X135656599Y-67096362D01*
X135858630Y-67298393D01*
X135959645Y-67332065D01*
X136026988Y-67332065D01*
X135622927Y-65648477D02*
X135757615Y-65783164D01*
X135791286Y-65884179D01*
X135791286Y-65951523D01*
X135757615Y-66119882D01*
X135656599Y-66288240D01*
X135387225Y-66557615D01*
X135286210Y-66591286D01*
X135218866Y-66591286D01*
X135117851Y-66557615D01*
X134983164Y-66422927D01*
X134949492Y-66321912D01*
X134949492Y-66254568D01*
X134983164Y-66153553D01*
X135151522Y-65985195D01*
X135252538Y-65951522D01*
X135319882Y-65951522D01*
X135420897Y-65985194D01*
X135555584Y-66119882D01*
X135589256Y-66220897D01*
X135589256Y-66288240D01*
X135555584Y-66389256D01*
X164107143Y-78407143D02*
X164154762Y-78359524D01*
X164202381Y-78216667D01*
X164202381Y-78121429D01*
X164154762Y-77978571D01*
X164059524Y-77883333D01*
X163964286Y-77835714D01*
X163773810Y-77788095D01*
X163630952Y-77788095D01*
X163440476Y-77835714D01*
X163345238Y-77883333D01*
X163250000Y-77978571D01*
X163202381Y-78121429D01*
X163202381Y-78216667D01*
X163250000Y-78359524D01*
X163297619Y-78407143D01*
X163202381Y-78740476D02*
X163202381Y-79359524D01*
X163583333Y-79026190D01*
X163583333Y-79169048D01*
X163630952Y-79264286D01*
X163678571Y-79311905D01*
X163773810Y-79359524D01*
X164011905Y-79359524D01*
X164107143Y-79311905D01*
X164154762Y-79264286D01*
X164202381Y-79169048D01*
X164202381Y-78883333D01*
X164154762Y-78788095D01*
X164107143Y-78740476D01*
X163202381Y-79692857D02*
X163202381Y-80359524D01*
X164202381Y-79930952D01*
X179333561Y-74651998D02*
X179396844Y-74675031D01*
X179546441Y-74657815D01*
X179632756Y-74617565D01*
X179742104Y-74514033D01*
X179788170Y-74387469D01*
X179791078Y-74281030D01*
X179753737Y-74088275D01*
X179693362Y-73958802D01*
X179569706Y-73806297D01*
X179486300Y-73740106D01*
X179359735Y-73694041D01*
X179210137Y-73711258D01*
X179123822Y-73751507D01*
X179014475Y-73855038D01*
X178991442Y-73918320D01*
X178649090Y-73972878D02*
X178088042Y-74234499D01*
X178551143Y-74438886D01*
X178421669Y-74499260D01*
X178355479Y-74582667D01*
X178332446Y-74645949D01*
X178329539Y-74752390D01*
X178430162Y-74968177D01*
X178513569Y-75034367D01*
X178576851Y-75057400D01*
X178683290Y-75060308D01*
X178942236Y-74939560D01*
X179008426Y-74856153D01*
X179031459Y-74792871D01*
X177751274Y-74864412D02*
X177817465Y-74781005D01*
X177840498Y-74717723D01*
X177843406Y-74611284D01*
X177823281Y-74568126D01*
X177739874Y-74501936D01*
X177676592Y-74478903D01*
X177570153Y-74475995D01*
X177397522Y-74556494D01*
X177331331Y-74639901D01*
X177308299Y-74703183D01*
X177305391Y-74809623D01*
X177325515Y-74852780D01*
X177408922Y-74918970D01*
X177472204Y-74942003D01*
X177578644Y-74944911D01*
X177751274Y-74864412D01*
X177857714Y-74867320D01*
X177920996Y-74890353D01*
X178004403Y-74956544D01*
X178084902Y-75129174D01*
X178081994Y-75235614D01*
X178058961Y-75298896D01*
X177992771Y-75382303D01*
X177820140Y-75462802D01*
X177713700Y-75459894D01*
X177650418Y-75436861D01*
X177567012Y-75370671D01*
X177486513Y-75198041D01*
X177489421Y-75091600D01*
X177512453Y-75028318D01*
X177578644Y-74944911D01*
X147469425Y-68720948D02*
X147368410Y-68148528D01*
X147873487Y-68316887D02*
X147166380Y-67609780D01*
X146897005Y-67879154D01*
X146863334Y-67980170D01*
X146863334Y-68047513D01*
X146897005Y-68148528D01*
X146998020Y-68249543D01*
X147099036Y-68283215D01*
X147166379Y-68283215D01*
X147267394Y-68249543D01*
X147536769Y-67980169D01*
X146795990Y-69394383D02*
X147200051Y-68990322D01*
X146998021Y-69192352D02*
X146290914Y-68485245D01*
X146459273Y-68518917D01*
X146593960Y-68518917D01*
X146694975Y-68485245D01*
X145449120Y-69327040D02*
X145785838Y-68990322D01*
X146156227Y-69293367D01*
X146088883Y-69293367D01*
X145987868Y-69327039D01*
X145819509Y-69495398D01*
X145785837Y-69596413D01*
X145785837Y-69663757D01*
X145819510Y-69764773D01*
X145987868Y-69933131D01*
X146088883Y-69966803D01*
X146156227Y-69966803D01*
X146257242Y-69933131D01*
X146425601Y-69764772D01*
X146459273Y-69663757D01*
X146459273Y-69596413D01*
X122442857Y-75402381D02*
X122776191Y-74926190D01*
X123014286Y-75402381D02*
X123014286Y-74402381D01*
X122633333Y-74402381D01*
X122538095Y-74450000D01*
X122490476Y-74497619D01*
X122442857Y-74592857D01*
X122442857Y-74735714D01*
X122490476Y-74830952D01*
X122538095Y-74878571D01*
X122633333Y-74926190D01*
X123014286Y-74926190D01*
X121490476Y-75402381D02*
X122061905Y-75402381D01*
X121776191Y-75402381D02*
X121776191Y-74402381D01*
X121871429Y-74545238D01*
X121966667Y-74640476D01*
X122061905Y-74688095D01*
X120919048Y-74830952D02*
X121014286Y-74783333D01*
X121061905Y-74735714D01*
X121109524Y-74640476D01*
X121109524Y-74592857D01*
X121061905Y-74497619D01*
X121014286Y-74450000D01*
X120919048Y-74402381D01*
X120728571Y-74402381D01*
X120633333Y-74450000D01*
X120585714Y-74497619D01*
X120538095Y-74592857D01*
X120538095Y-74640476D01*
X120585714Y-74735714D01*
X120633333Y-74783333D01*
X120728571Y-74830952D01*
X120919048Y-74830952D01*
X121014286Y-74878571D01*
X121061905Y-74926190D01*
X121109524Y-75021429D01*
X121109524Y-75211905D01*
X121061905Y-75307143D01*
X121014286Y-75354762D01*
X120919048Y-75402381D01*
X120728571Y-75402381D01*
X120633333Y-75354762D01*
X120585714Y-75307143D01*
X120538095Y-75211905D01*
X120538095Y-75021429D01*
X120585714Y-74926190D01*
X120633333Y-74878571D01*
X120728571Y-74830952D01*
X230719523Y-85928571D02*
X230576666Y-85976190D01*
X230529047Y-86023810D01*
X230481428Y-86119048D01*
X230481428Y-86261905D01*
X230529047Y-86357143D01*
X230576666Y-86404762D01*
X230671904Y-86452381D01*
X231052857Y-86452381D01*
X231052857Y-85452381D01*
X230719523Y-85452381D01*
X230624285Y-85500000D01*
X230576666Y-85547619D01*
X230529047Y-85642857D01*
X230529047Y-85738095D01*
X230576666Y-85833333D01*
X230624285Y-85880952D01*
X230719523Y-85928571D01*
X231052857Y-85928571D01*
X229481428Y-86357143D02*
X229529047Y-86404762D01*
X229671904Y-86452381D01*
X229767142Y-86452381D01*
X229910000Y-86404762D01*
X230005238Y-86309524D01*
X230052857Y-86214286D01*
X230100476Y-86023810D01*
X230100476Y-85880952D01*
X230052857Y-85690476D01*
X230005238Y-85595238D01*
X229910000Y-85500000D01*
X229767142Y-85452381D01*
X229671904Y-85452381D01*
X229529047Y-85500000D01*
X229481428Y-85547619D01*
X228576666Y-86452381D02*
X229052857Y-86452381D01*
X229052857Y-85452381D01*
X228243333Y-86452381D02*
X228243333Y-85452381D01*
X227671904Y-86452381D02*
X228100476Y-85880952D01*
X227671904Y-85452381D02*
X228243333Y-86023810D01*
X226719523Y-86452381D02*
X227290952Y-86452381D01*
X227005238Y-86452381D02*
X227005238Y-85452381D01*
X227100476Y-85595238D01*
X227195714Y-85690476D01*
X227290952Y-85738095D01*
X232762857Y-77898571D02*
X232620000Y-77946190D01*
X232572381Y-77993810D01*
X232524762Y-78089048D01*
X232524762Y-78231905D01*
X232572381Y-78327143D01*
X232620000Y-78374762D01*
X232715238Y-78422381D01*
X233096191Y-78422381D01*
X233096191Y-77422381D01*
X232762857Y-77422381D01*
X232667619Y-77470000D01*
X232620000Y-77517619D01*
X232572381Y-77612857D01*
X232572381Y-77708095D01*
X232620000Y-77803333D01*
X232667619Y-77850952D01*
X232762857Y-77898571D01*
X233096191Y-77898571D01*
X232096191Y-78422381D02*
X232096191Y-77422381D01*
X231858096Y-77422381D01*
X231715238Y-77470000D01*
X231620000Y-77565238D01*
X231572381Y-77660476D01*
X231524762Y-77850952D01*
X231524762Y-77993810D01*
X231572381Y-78184286D01*
X231620000Y-78279524D01*
X231715238Y-78374762D01*
X231858096Y-78422381D01*
X232096191Y-78422381D01*
X231143810Y-78136667D02*
X230667619Y-78136667D01*
X231239048Y-78422381D02*
X230905715Y-77422381D01*
X230572381Y-78422381D01*
X230381905Y-77422381D02*
X229810476Y-77422381D01*
X230096191Y-78422381D02*
X230096191Y-77422381D01*
X229524762Y-78136667D02*
X229048571Y-78136667D01*
X229620000Y-78422381D02*
X229286667Y-77422381D01*
X228953333Y-78422381D01*
X228096190Y-78422381D02*
X228667619Y-78422381D01*
X228381905Y-78422381D02*
X228381905Y-77422381D01*
X228477143Y-77565238D01*
X228572381Y-77660476D01*
X228667619Y-77708095D01*
X232928571Y-75398571D02*
X232785714Y-75446190D01*
X232738095Y-75493810D01*
X232690476Y-75589048D01*
X232690476Y-75731905D01*
X232738095Y-75827143D01*
X232785714Y-75874762D01*
X232880952Y-75922381D01*
X233261905Y-75922381D01*
X233261905Y-74922381D01*
X232928571Y-74922381D01*
X232833333Y-74970000D01*
X232785714Y-75017619D01*
X232738095Y-75112857D01*
X232738095Y-75208095D01*
X232785714Y-75303333D01*
X232833333Y-75350952D01*
X232928571Y-75398571D01*
X233261905Y-75398571D01*
X231738095Y-74970000D02*
X231833333Y-74922381D01*
X231976190Y-74922381D01*
X232119048Y-74970000D01*
X232214286Y-75065238D01*
X232261905Y-75160476D01*
X232309524Y-75350952D01*
X232309524Y-75493810D01*
X232261905Y-75684286D01*
X232214286Y-75779524D01*
X232119048Y-75874762D01*
X231976190Y-75922381D01*
X231880952Y-75922381D01*
X231738095Y-75874762D01*
X231690476Y-75827143D01*
X231690476Y-75493810D01*
X231880952Y-75493810D01*
X231261905Y-75922381D02*
X231261905Y-74922381D01*
X230690476Y-75922381D01*
X230690476Y-74922381D01*
X230214286Y-75922381D02*
X230214286Y-74922381D01*
X229976191Y-74922381D01*
X229833333Y-74970000D01*
X229738095Y-75065238D01*
X229690476Y-75160476D01*
X229642857Y-75350952D01*
X229642857Y-75493810D01*
X229690476Y-75684286D01*
X229738095Y-75779524D01*
X229833333Y-75874762D01*
X229976191Y-75922381D01*
X230214286Y-75922381D01*
X229261905Y-75017619D02*
X229214286Y-74970000D01*
X229119048Y-74922381D01*
X228880952Y-74922381D01*
X228785714Y-74970000D01*
X228738095Y-75017619D01*
X228690476Y-75112857D01*
X228690476Y-75208095D01*
X228738095Y-75350952D01*
X229309524Y-75922381D01*
X228690476Y-75922381D01*
X231819523Y-83398571D02*
X231676666Y-83446190D01*
X231629047Y-83493810D01*
X231581428Y-83589048D01*
X231581428Y-83731905D01*
X231629047Y-83827143D01*
X231676666Y-83874762D01*
X231771904Y-83922381D01*
X232152857Y-83922381D01*
X232152857Y-82922381D01*
X231819523Y-82922381D01*
X231724285Y-82970000D01*
X231676666Y-83017619D01*
X231629047Y-83112857D01*
X231629047Y-83208095D01*
X231676666Y-83303333D01*
X231724285Y-83350952D01*
X231819523Y-83398571D01*
X232152857Y-83398571D01*
X230676666Y-83922381D02*
X231152857Y-83922381D01*
X231152857Y-82922381D01*
X230343333Y-83922381D02*
X230343333Y-82922381D01*
X230105238Y-82922381D01*
X229962380Y-82970000D01*
X229867142Y-83065238D01*
X229819523Y-83160476D01*
X229771904Y-83350952D01*
X229771904Y-83493810D01*
X229819523Y-83684286D01*
X229867142Y-83779524D01*
X229962380Y-83874762D01*
X230105238Y-83922381D01*
X230343333Y-83922381D01*
X228819523Y-83922381D02*
X229390952Y-83922381D01*
X229105238Y-83922381D02*
X229105238Y-82922381D01*
X229200476Y-83065238D01*
X229295714Y-83160476D01*
X229390952Y-83208095D01*
X131504762Y-95452381D02*
X131838096Y-94976190D01*
X132076191Y-95452381D02*
X132076191Y-94452381D01*
X131695238Y-94452381D01*
X131600000Y-94500000D01*
X131552381Y-94547619D01*
X131504762Y-94642857D01*
X131504762Y-94785714D01*
X131552381Y-94880952D01*
X131600000Y-94928571D01*
X131695238Y-94976190D01*
X132076191Y-94976190D01*
X131076191Y-94928571D02*
X130742857Y-94928571D01*
X130600000Y-95452381D02*
X131076191Y-95452381D01*
X131076191Y-94452381D01*
X130600000Y-94452381D01*
X129647619Y-94500000D02*
X129742857Y-94452381D01*
X129885714Y-94452381D01*
X130028572Y-94500000D01*
X130123810Y-94595238D01*
X130171429Y-94690476D01*
X130219048Y-94880952D01*
X130219048Y-95023810D01*
X130171429Y-95214286D01*
X130123810Y-95309524D01*
X130028572Y-95404762D01*
X129885714Y-95452381D01*
X129790476Y-95452381D01*
X129647619Y-95404762D01*
X129600000Y-95357143D01*
X129600000Y-95023810D01*
X129790476Y-95023810D01*
X129409524Y-95547619D02*
X128647619Y-95547619D01*
X128504762Y-94452381D02*
X127885714Y-94452381D01*
X128219048Y-94833333D01*
X128076190Y-94833333D01*
X127980952Y-94880952D01*
X127933333Y-94928571D01*
X127885714Y-95023810D01*
X127885714Y-95261905D01*
X127933333Y-95357143D01*
X127980952Y-95404762D01*
X128076190Y-95452381D01*
X128361905Y-95452381D01*
X128457143Y-95404762D01*
X128504762Y-95357143D01*
X127600000Y-94452381D02*
X127266667Y-95452381D01*
X126933333Y-94452381D01*
X126695238Y-94452381D02*
X126076190Y-94452381D01*
X126409524Y-94833333D01*
X126266666Y-94833333D01*
X126171428Y-94880952D01*
X126123809Y-94928571D01*
X126076190Y-95023810D01*
X126076190Y-95261905D01*
X126123809Y-95357143D01*
X126171428Y-95404762D01*
X126266666Y-95452381D01*
X126552381Y-95452381D01*
X126647619Y-95404762D01*
X126695238Y-95357143D01*
X131435998Y-66765101D02*
X131368654Y-66899788D01*
X131200295Y-67068147D01*
X131099280Y-67101819D01*
X131031936Y-67101819D01*
X130930921Y-67068147D01*
X130863578Y-67000804D01*
X130829906Y-66899789D01*
X130829906Y-66832445D01*
X130863577Y-66731429D01*
X130964593Y-66563070D01*
X130998265Y-66462055D01*
X130998265Y-66394712D01*
X130964593Y-66293696D01*
X130897250Y-66226353D01*
X130796234Y-66192681D01*
X130728891Y-66192681D01*
X130627876Y-66226353D01*
X130459517Y-66394712D01*
X130392173Y-66529399D01*
X130156471Y-66697758D02*
X129752410Y-67101819D01*
X130661548Y-67606895D02*
X129954441Y-66899788D01*
X130223815Y-68044628D02*
X129516708Y-67337521D01*
X129786082Y-68078300D01*
X129045303Y-67808926D01*
X129752410Y-68516033D01*
X128775929Y-68078300D02*
X128338196Y-68516033D01*
X128843273Y-68549704D01*
X128742257Y-68650719D01*
X128708585Y-68751735D01*
X128708585Y-68819078D01*
X128742258Y-68920094D01*
X128910616Y-69088452D01*
X129011631Y-69122124D01*
X129078975Y-69122124D01*
X129179990Y-69088452D01*
X129382021Y-68886421D01*
X129415693Y-68785406D01*
X129415693Y-68718063D01*
X128136166Y-68852750D02*
X128068822Y-68852750D01*
X127967807Y-68886421D01*
X127799448Y-69054781D01*
X127765776Y-69155796D01*
X127765776Y-69223139D01*
X127799448Y-69324154D01*
X127866791Y-69391498D01*
X128001478Y-69458841D01*
X128809601Y-69458841D01*
X128371868Y-69896574D01*
X127462730Y-70064933D02*
X127698433Y-69829230D01*
X128068822Y-70199620D02*
X127361716Y-69492513D01*
X127024998Y-69829231D01*
X126688280Y-70637353D02*
X127159685Y-71108758D01*
X126587265Y-70199620D02*
X127260701Y-70536338D01*
X126822968Y-70974071D01*
X125947502Y-70906727D02*
X125880158Y-70974071D01*
X125846486Y-71075086D01*
X125846486Y-71142429D01*
X125880158Y-71243445D01*
X125981173Y-71411803D01*
X126149532Y-71580162D01*
X126317891Y-71681178D01*
X126418906Y-71714849D01*
X126486250Y-71714849D01*
X126587265Y-71681178D01*
X126654609Y-71613833D01*
X126688281Y-71512818D01*
X126688281Y-71445475D01*
X126654609Y-71344460D01*
X126553594Y-71176101D01*
X126385234Y-71007742D01*
X126216876Y-70906727D01*
X126115861Y-70873055D01*
X126048517Y-70873055D01*
X125947502Y-70906727D01*
X125072036Y-71782193D02*
X125408754Y-71445475D01*
X125779143Y-71748520D01*
X125711799Y-71748520D01*
X125610784Y-71782192D01*
X125442425Y-71950551D01*
X125408753Y-72051566D01*
X125408753Y-72118910D01*
X125442426Y-72219926D01*
X125610784Y-72388284D01*
X125711799Y-72421956D01*
X125779143Y-72421956D01*
X125880158Y-72388284D01*
X126048517Y-72219925D01*
X126082189Y-72118910D01*
X126082189Y-72051566D01*
X138465507Y-67991633D02*
X138128789Y-68328351D01*
X139071598Y-67856946D02*
X138465507Y-67991633D01*
X138600193Y-67385541D01*
X137286995Y-67486556D02*
X137691056Y-67890618D01*
X137489026Y-67688587D02*
X138196133Y-66981480D01*
X138162461Y-67149839D01*
X138162461Y-67284526D01*
X138196133Y-67385541D01*
X134619523Y-126142381D02*
X134619523Y-126856667D01*
X134667143Y-126999524D01*
X134762381Y-127094762D01*
X134905238Y-127142381D01*
X135000476Y-127142381D01*
X133667142Y-127142381D02*
X134143333Y-127142381D01*
X134143333Y-126142381D01*
X133333809Y-127142381D02*
X133333809Y-126142381D01*
X132952856Y-126142381D01*
X132857618Y-126190000D01*
X132809999Y-126237619D01*
X132762380Y-126332857D01*
X132762380Y-126475714D01*
X132809999Y-126570952D01*
X132857618Y-126618571D01*
X132952856Y-126666190D01*
X133333809Y-126666190D01*
X132429047Y-126142381D02*
X132190952Y-127142381D01*
X132000475Y-126428095D01*
X131809999Y-127142381D01*
X131571904Y-126142381D01*
X130619523Y-127142381D02*
X130952857Y-126666190D01*
X131190952Y-127142381D02*
X131190952Y-126142381D01*
X130809999Y-126142381D01*
X130714761Y-126190000D01*
X130667142Y-126237619D01*
X130619523Y-126332857D01*
X130619523Y-126475714D01*
X130667142Y-126570952D01*
X130714761Y-126618571D01*
X130809999Y-126666190D01*
X131190952Y-126666190D01*
X129667142Y-127142381D02*
X130238571Y-127142381D01*
X129952857Y-127142381D02*
X129952857Y-126142381D01*
X130048095Y-126285238D01*
X130143333Y-126380476D01*
X130238571Y-126428095D01*
X129114285Y-84552381D02*
X129114285Y-85266667D01*
X129161905Y-85409524D01*
X129257143Y-85504762D01*
X129400000Y-85552381D01*
X129495238Y-85552381D01*
X128161904Y-85552381D02*
X128638095Y-85552381D01*
X128638095Y-84552381D01*
X127828571Y-85028571D02*
X127495237Y-85028571D01*
X127352380Y-85552381D02*
X127828571Y-85552381D01*
X127828571Y-84552381D01*
X127352380Y-84552381D01*
X126923809Y-85552381D02*
X126923809Y-84552381D01*
X126352380Y-85552381D01*
X126352380Y-84552381D01*
X125352380Y-85552381D02*
X125923809Y-85552381D01*
X125638095Y-85552381D02*
X125638095Y-84552381D01*
X125733333Y-84695238D01*
X125828571Y-84790476D01*
X125923809Y-84838095D01*
X210606745Y-177644154D02*
X210106745Y-176778129D01*
X209776830Y-176968606D01*
X209718161Y-177057464D01*
X209700731Y-177122513D01*
X209707111Y-177228801D01*
X209778540Y-177352518D01*
X209867398Y-177411187D01*
X209932447Y-177428617D01*
X210038735Y-177422237D01*
X210368650Y-177231761D01*
X209323198Y-177230510D02*
X209617002Y-178215583D01*
X209094901Y-177692232D01*
X209287087Y-178406059D01*
X208580891Y-177659082D01*
X208256105Y-179001297D02*
X208306685Y-178422237D01*
X208750977Y-178715583D02*
X208250977Y-177849558D01*
X207921062Y-178040034D01*
X207862393Y-178128892D01*
X207844963Y-178193941D01*
X207851343Y-178300229D01*
X207922771Y-178423947D01*
X208011629Y-178482616D01*
X208076678Y-178500046D01*
X208182966Y-178493666D01*
X208512881Y-178303189D01*
X208138767Y-179179014D02*
X207478937Y-179559966D01*
X206807601Y-178682891D02*
X206271489Y-178992415D01*
X206750641Y-179155662D01*
X206626922Y-179227091D01*
X206568253Y-179315949D01*
X206550824Y-179380998D01*
X206557204Y-179487287D01*
X206676251Y-179693483D01*
X206765110Y-179752152D01*
X206830158Y-179769582D01*
X206936446Y-179763202D01*
X207183883Y-179620345D01*
X207242552Y-179531487D01*
X207259982Y-179466438D01*
X206024054Y-179135272D02*
X206235379Y-180167964D01*
X205446703Y-179468606D01*
X205240507Y-179587653D02*
X204704396Y-179897177D01*
X205183547Y-180060424D01*
X205059829Y-180131853D01*
X205001160Y-180220711D01*
X204983730Y-180285760D01*
X204990110Y-180392049D01*
X205109158Y-180598245D01*
X205198016Y-180656914D01*
X205263065Y-180674344D01*
X205369353Y-180667964D01*
X205616789Y-180525107D01*
X205675458Y-180436249D01*
X205692888Y-180371200D01*
X211406745Y-179044154D02*
X210906745Y-178178129D01*
X210576830Y-178368606D01*
X210518161Y-178457464D01*
X210500731Y-178522513D01*
X210507111Y-178628801D01*
X210578540Y-178752518D01*
X210667398Y-178811187D01*
X210732447Y-178828617D01*
X210838735Y-178822237D01*
X211168650Y-178631761D01*
X210123198Y-178630510D02*
X210417002Y-179615583D01*
X209894901Y-179092232D01*
X210087087Y-179806059D01*
X209380891Y-179059082D01*
X209056105Y-180401297D02*
X209106685Y-179822237D01*
X209550977Y-180115583D02*
X209050977Y-179249558D01*
X208721062Y-179440034D01*
X208662393Y-179528892D01*
X208644963Y-179593941D01*
X208651343Y-179700229D01*
X208722771Y-179823947D01*
X208811629Y-179882616D01*
X208876678Y-179900046D01*
X208982966Y-179893666D01*
X209312881Y-179703189D01*
X208938767Y-180579014D02*
X208278937Y-180959966D01*
X207112729Y-180368606D02*
X207525122Y-180130510D01*
X207804456Y-180519093D01*
X207739408Y-180501663D01*
X207633120Y-180508043D01*
X207426922Y-180627091D01*
X207368253Y-180715949D01*
X207350824Y-180780998D01*
X207357204Y-180887287D01*
X207476251Y-181093483D01*
X207565110Y-181152152D01*
X207630158Y-181169582D01*
X207736446Y-181163202D01*
X207942644Y-181044154D01*
X208001313Y-180955296D01*
X208018742Y-180890247D01*
X206824054Y-180535272D02*
X207035379Y-181567964D01*
X206246703Y-180868606D01*
X206004396Y-182163202D02*
X206499268Y-181877488D01*
X206251832Y-182020345D02*
X205751832Y-181154320D01*
X205905739Y-181230418D01*
X206035837Y-181265278D01*
X206142125Y-181258898D01*
X213393475Y-174208440D02*
X212893475Y-173342415D01*
X212563560Y-173532891D01*
X212504891Y-173621749D01*
X212487462Y-173686798D01*
X212493841Y-173793086D01*
X212565270Y-173916804D01*
X212654128Y-173975473D01*
X212719177Y-173992903D01*
X212825465Y-173986523D01*
X213155380Y-173796046D01*
X212109928Y-173794796D02*
X212403732Y-174779868D01*
X211881631Y-174256517D01*
X212073817Y-174970345D01*
X211367621Y-174223367D01*
X211042835Y-175565583D02*
X211093415Y-174986522D01*
X211537707Y-175279868D02*
X211037707Y-174413843D01*
X210707792Y-174604320D01*
X210649123Y-174693178D01*
X210631693Y-174758227D01*
X210638073Y-174864515D01*
X210709501Y-174988232D01*
X210798360Y-175046901D01*
X210863408Y-175064331D01*
X210969696Y-175057951D01*
X211299611Y-174867475D01*
X210925497Y-175743299D02*
X210265668Y-176124252D01*
X210011852Y-176160821D02*
X209511852Y-175294796D01*
X209305656Y-175413843D01*
X209205747Y-175526511D01*
X209170887Y-175656609D01*
X209177267Y-175762897D01*
X209231266Y-175951663D01*
X209302695Y-176075382D01*
X209439172Y-176216530D01*
X209528030Y-176275199D01*
X209658128Y-176310058D01*
X209805656Y-176279868D01*
X210011852Y-176160821D01*
X209145827Y-176660821D02*
X208645827Y-175794796D01*
X208750864Y-176833867D02*
X208650956Y-176946535D01*
X208444759Y-177065583D01*
X208338471Y-177071963D01*
X208273422Y-177054533D01*
X208184563Y-176995864D01*
X208136944Y-176913385D01*
X208130565Y-176807097D01*
X208147995Y-176742049D01*
X208206663Y-176653189D01*
X208347811Y-176516712D01*
X208406480Y-176427853D01*
X208423910Y-176362805D01*
X208417531Y-176256517D01*
X208369912Y-176174038D01*
X208281053Y-176115369D01*
X208216004Y-176097939D01*
X208109716Y-176104319D01*
X207903519Y-176223367D01*
X207803611Y-176336035D01*
X207908648Y-177375106D02*
X207408648Y-176509081D01*
X207078733Y-176699558D01*
X207020064Y-176788416D01*
X207002634Y-176853465D01*
X207009014Y-176959753D01*
X207080443Y-177083470D01*
X207169301Y-177142139D01*
X207234350Y-177159569D01*
X207340638Y-177153189D01*
X207670553Y-176962713D01*
X206630229Y-178113202D02*
X207042623Y-177875106D01*
X206542623Y-177009081D01*
X206239937Y-178008623D02*
X205827543Y-178246719D01*
X206465272Y-178208440D02*
X205676597Y-177509081D01*
X205887922Y-178541773D01*
X205196194Y-178391284D02*
X205434290Y-178803678D01*
X205222965Y-177770986D02*
X205196194Y-178391284D01*
X204645614Y-178104320D01*
X204403306Y-179398916D02*
X204898178Y-179113202D01*
X204650743Y-179256059D02*
X204150743Y-178390034D01*
X204304650Y-178466132D01*
X204434747Y-178500992D01*
X204541035Y-178494612D01*
X146017749Y-83356062D02*
X146083939Y-83272655D01*
X146130005Y-83146091D01*
X146199103Y-82956245D01*
X146265294Y-82872837D01*
X146351609Y-82832588D01*
X146409075Y-83068500D02*
X146475265Y-82985093D01*
X146521331Y-82858529D01*
X146483990Y-82665775D01*
X146343117Y-82363671D01*
X146219461Y-82211166D01*
X146092896Y-82165100D01*
X145986457Y-82162192D01*
X145813826Y-82242691D01*
X145747636Y-82326098D01*
X145701570Y-82452662D01*
X145738911Y-82645417D01*
X145879784Y-82947520D01*
X146003440Y-83100025D01*
X146130005Y-83146091D01*
X146236444Y-83148999D01*
X146409075Y-83068500D01*
X145157507Y-83652116D02*
X145675397Y-83410620D01*
X145416452Y-83531368D02*
X144993834Y-82625060D01*
X145140523Y-82714283D01*
X145267087Y-82760349D01*
X145373527Y-82763257D01*
X198582921Y-186370345D02*
X198633501Y-185791284D01*
X199077793Y-186084630D02*
X198577793Y-185218605D01*
X198247878Y-185409082D01*
X198189209Y-185497940D01*
X198171779Y-185562989D01*
X198178159Y-185669277D01*
X198249587Y-185792994D01*
X198338446Y-185851663D01*
X198403495Y-185869093D01*
X198509783Y-185862713D01*
X198839698Y-185672237D01*
X197800626Y-185777274D02*
X197735577Y-185759844D01*
X197629289Y-185766224D01*
X197423092Y-185885272D01*
X197364423Y-185974130D01*
X197346993Y-186039179D01*
X197353373Y-186145467D01*
X197400992Y-186227946D01*
X197513660Y-186327854D01*
X198294246Y-186537011D01*
X197758135Y-186846535D01*
X196722024Y-186290034D02*
X196639545Y-186337653D01*
X196580876Y-186426511D01*
X196563446Y-186491560D01*
X196569826Y-186597848D01*
X196623825Y-186786615D01*
X196742873Y-186992812D01*
X196879350Y-187133959D01*
X196968208Y-187192628D01*
X197033257Y-187210058D01*
X197139545Y-187203678D01*
X197222024Y-187156059D01*
X197280693Y-187067201D01*
X197298123Y-187002152D01*
X197291743Y-186895864D01*
X197237745Y-186707097D01*
X197118697Y-186500900D01*
X196982219Y-186359753D01*
X196893361Y-186301084D01*
X196828312Y-186283654D01*
X196722024Y-186290034D01*
X131942857Y-84752381D02*
X132276191Y-84276190D01*
X132514286Y-84752381D02*
X132514286Y-83752381D01*
X132133333Y-83752381D01*
X132038095Y-83800000D01*
X131990476Y-83847619D01*
X131942857Y-83942857D01*
X131942857Y-84085714D01*
X131990476Y-84180952D01*
X132038095Y-84228571D01*
X132133333Y-84276190D01*
X132514286Y-84276190D01*
X131561905Y-83847619D02*
X131514286Y-83800000D01*
X131419048Y-83752381D01*
X131180952Y-83752381D01*
X131085714Y-83800000D01*
X131038095Y-83847619D01*
X130990476Y-83942857D01*
X130990476Y-84038095D01*
X131038095Y-84180952D01*
X131609524Y-84752381D01*
X130990476Y-84752381D01*
X130038095Y-84752381D02*
X130609524Y-84752381D01*
X130323810Y-84752381D02*
X130323810Y-83752381D01*
X130419048Y-83895238D01*
X130514286Y-83990476D01*
X130609524Y-84038095D01*
X197204202Y-183445345D02*
X197254782Y-182866284D01*
X197699074Y-183159630D02*
X197199074Y-182293605D01*
X196869159Y-182484082D01*
X196810490Y-182572940D01*
X196793060Y-182637989D01*
X196799440Y-182744277D01*
X196870868Y-182867994D01*
X196959727Y-182926663D01*
X197024776Y-182944093D01*
X197131064Y-182937713D01*
X197460979Y-182747237D01*
X196421907Y-182852274D02*
X196356858Y-182834844D01*
X196250570Y-182841224D01*
X196044373Y-182960272D01*
X195985704Y-183049130D01*
X195968274Y-183114179D01*
X195974654Y-183220467D01*
X196022273Y-183302946D01*
X196134941Y-183402854D01*
X196915527Y-183612011D01*
X196379416Y-183921535D01*
X195597121Y-183328465D02*
X195532072Y-183311035D01*
X195425784Y-183317415D01*
X195219587Y-183436463D01*
X195160918Y-183525321D01*
X195143488Y-183590370D01*
X195149868Y-183696658D01*
X195197487Y-183779136D01*
X195310154Y-183879044D01*
X196090741Y-184088202D01*
X195554630Y-184397726D01*
X142940476Y-59702381D02*
X143416667Y-59702381D01*
X143416667Y-58702381D01*
X142083333Y-58750000D02*
X142178571Y-58702381D01*
X142321428Y-58702381D01*
X142464286Y-58750000D01*
X142559524Y-58845238D01*
X142607143Y-58940476D01*
X142654762Y-59130952D01*
X142654762Y-59273810D01*
X142607143Y-59464286D01*
X142559524Y-59559524D01*
X142464286Y-59654762D01*
X142321428Y-59702381D01*
X142226190Y-59702381D01*
X142083333Y-59654762D01*
X142035714Y-59607143D01*
X142035714Y-59273810D01*
X142226190Y-59273810D01*
X141607143Y-59702381D02*
X141607143Y-58702381D01*
X141035714Y-59702381D01*
X141035714Y-58702381D01*
X140559524Y-59702381D02*
X140559524Y-58702381D01*
X140321429Y-58702381D01*
X140178571Y-58750000D01*
X140083333Y-58845238D01*
X140035714Y-58940476D01*
X139988095Y-59130952D01*
X139988095Y-59273810D01*
X140035714Y-59464286D01*
X140083333Y-59559524D01*
X140178571Y-59654762D01*
X140321429Y-59702381D01*
X140559524Y-59702381D01*
X139035714Y-59702381D02*
X139607143Y-59702381D01*
X139321429Y-59702381D02*
X139321429Y-58702381D01*
X139416667Y-58845238D01*
X139511905Y-58940476D01*
X139607143Y-58988095D01*
X123642857Y-65652381D02*
X124119048Y-65652381D01*
X124119048Y-64652381D01*
X123309524Y-65128571D02*
X122976190Y-65128571D01*
X122833333Y-65652381D02*
X123309524Y-65652381D01*
X123309524Y-64652381D01*
X122833333Y-64652381D01*
X122404762Y-65652381D02*
X122404762Y-64652381D01*
X121833333Y-65652381D01*
X121833333Y-64652381D01*
X120833333Y-65652381D02*
X121404762Y-65652381D01*
X121119048Y-65652381D02*
X121119048Y-64652381D01*
X121214286Y-64795238D01*
X121309524Y-64890476D01*
X121404762Y-64938095D01*
X151695238Y-86152381D02*
X152171429Y-86152381D01*
X152171429Y-85152381D01*
X151504762Y-85152381D02*
X151171429Y-86152381D01*
X150838095Y-85152381D01*
X149933333Y-86057143D02*
X149980952Y-86104762D01*
X150123809Y-86152381D01*
X150219047Y-86152381D01*
X150361905Y-86104762D01*
X150457143Y-86009524D01*
X150504762Y-85914286D01*
X150552381Y-85723810D01*
X150552381Y-85580952D01*
X150504762Y-85390476D01*
X150457143Y-85295238D01*
X150361905Y-85200000D01*
X150219047Y-85152381D01*
X150123809Y-85152381D01*
X149980952Y-85200000D01*
X149933333Y-85247619D01*
X148933333Y-86057143D02*
X148980952Y-86104762D01*
X149123809Y-86152381D01*
X149219047Y-86152381D01*
X149361905Y-86104762D01*
X149457143Y-86009524D01*
X149504762Y-85914286D01*
X149552381Y-85723810D01*
X149552381Y-85580952D01*
X149504762Y-85390476D01*
X149457143Y-85295238D01*
X149361905Y-85200000D01*
X149219047Y-85152381D01*
X149123809Y-85152381D01*
X148980952Y-85200000D01*
X148933333Y-85247619D01*
X147980952Y-86152381D02*
X148552381Y-86152381D01*
X148266667Y-86152381D02*
X148266667Y-85152381D01*
X148361905Y-85295238D01*
X148457143Y-85390476D01*
X148552381Y-85438095D01*
X226798566Y-76775190D02*
X226663879Y-76707846D01*
X226596535Y-76707847D01*
X226495519Y-76741519D01*
X226394504Y-76842534D01*
X226360833Y-76943549D01*
X226360833Y-77010893D01*
X226394504Y-77111908D01*
X226663879Y-77381282D01*
X227370986Y-76674175D01*
X227135283Y-76438473D01*
X227034268Y-76404801D01*
X226966924Y-76404801D01*
X226865909Y-76438473D01*
X226798566Y-76505816D01*
X226764894Y-76606831D01*
X226764894Y-76674175D01*
X226798566Y-76775190D01*
X227034268Y-77010893D01*
X226057787Y-76909877D02*
X225519039Y-76371129D01*
X225485367Y-76135427D02*
X225350680Y-76068084D01*
X225182321Y-75899724D01*
X225148649Y-75798709D01*
X225148649Y-75731366D01*
X225182321Y-75630351D01*
X225249665Y-75563007D01*
X225350680Y-75529336D01*
X225418023Y-75529336D01*
X225519039Y-75563007D01*
X225687398Y-75664022D01*
X225788413Y-75697694D01*
X225855757Y-75697694D01*
X225956772Y-75664022D01*
X226024115Y-75596679D01*
X226057787Y-75495664D01*
X226057787Y-75428320D01*
X226024115Y-75327305D01*
X225855756Y-75158946D01*
X225721069Y-75091602D01*
X224744589Y-75461992D02*
X225451696Y-74754885D01*
X225114978Y-75091602D02*
X224710917Y-74687541D01*
X224340527Y-75057931D02*
X225047634Y-74350824D01*
X224003810Y-74721214D02*
X224710917Y-74014107D01*
X223801780Y-73778404D02*
X224037483Y-74014107D01*
X223667093Y-74384496D02*
X224374200Y-73677390D01*
X224037482Y-73340672D01*
X223869123Y-73172313D02*
X223465062Y-72768252D01*
X222959986Y-73677390D02*
X223667093Y-72970283D01*
X222623268Y-73475359D02*
X222084520Y-72936610D01*
X221613115Y-72330519D02*
X222017177Y-72734580D01*
X221815146Y-72532550D02*
X222522253Y-71825443D01*
X222488582Y-71993802D01*
X222488582Y-72128488D01*
X222522253Y-72229504D01*
X221456283Y-82117473D02*
X221321596Y-82050129D01*
X221254252Y-82050130D01*
X221153236Y-82083802D01*
X221052221Y-82184817D01*
X221018550Y-82285832D01*
X221018550Y-82353176D01*
X221052221Y-82454191D01*
X221321596Y-82723565D01*
X222028703Y-82016458D01*
X221793000Y-81780756D01*
X221691985Y-81747084D01*
X221624641Y-81747084D01*
X221523626Y-81780756D01*
X221456283Y-81848099D01*
X221422611Y-81949114D01*
X221422611Y-82016458D01*
X221456283Y-82117473D01*
X221691985Y-82353176D01*
X220715504Y-82252160D02*
X220176756Y-81713412D01*
X220143084Y-81477710D02*
X220008397Y-81410367D01*
X219840038Y-81242007D01*
X219806366Y-81140992D01*
X219806366Y-81073649D01*
X219840038Y-80972634D01*
X219907382Y-80905290D01*
X220008397Y-80871619D01*
X220075740Y-80871619D01*
X220176756Y-80905290D01*
X220345115Y-81006305D01*
X220446130Y-81039977D01*
X220513474Y-81039977D01*
X220614489Y-81006305D01*
X220681832Y-80938962D01*
X220715504Y-80837947D01*
X220715504Y-80770603D01*
X220681832Y-80669588D01*
X220513473Y-80501229D01*
X220378786Y-80433885D01*
X219402306Y-80804275D02*
X220109413Y-80097168D01*
X219772695Y-80433885D02*
X219368634Y-80029824D01*
X218998244Y-80400214D02*
X219705351Y-79693107D01*
X218661527Y-80063497D02*
X219368634Y-79356390D01*
X218459497Y-79120687D02*
X218695200Y-79356390D01*
X218324810Y-79726779D02*
X219031917Y-79019673D01*
X218695199Y-78682955D01*
X218526840Y-78514596D02*
X218122779Y-78110535D01*
X217617703Y-79019673D02*
X218324810Y-78312566D01*
X217280985Y-78817642D02*
X216742237Y-78278893D01*
X217314657Y-77437100D02*
X217314657Y-77369756D01*
X217280985Y-77268741D01*
X217112626Y-77100382D01*
X217011611Y-77066710D01*
X216944268Y-77066710D01*
X216843252Y-77100382D01*
X216775909Y-77167725D01*
X216708565Y-77302412D01*
X216708565Y-78110535D01*
X216270832Y-77672802D01*
X175954762Y-59866667D02*
X176002381Y-60009524D01*
X176002381Y-60247620D01*
X175954762Y-60342858D01*
X175907143Y-60390477D01*
X175811905Y-60438096D01*
X175716667Y-60438096D01*
X175621429Y-60390477D01*
X175573810Y-60342858D01*
X175526190Y-60247620D01*
X175478571Y-60057143D01*
X175430952Y-59961905D01*
X175383333Y-59914286D01*
X175288095Y-59866667D01*
X175192857Y-59866667D01*
X175097619Y-59914286D01*
X175050000Y-59961905D01*
X175002381Y-60057143D01*
X175002381Y-60295239D01*
X175050000Y-60438096D01*
X175002381Y-60771429D02*
X176002381Y-61009524D01*
X175288095Y-61200001D01*
X176002381Y-61390477D01*
X175002381Y-61628572D01*
X176097619Y-61771429D02*
X176097619Y-62533334D01*
X176002381Y-62771429D02*
X175002381Y-62771429D01*
X175002381Y-63152382D01*
X175050000Y-63247620D01*
X175097619Y-63295239D01*
X175192857Y-63342858D01*
X175335714Y-63342858D01*
X175430952Y-63295239D01*
X175478571Y-63247620D01*
X175526190Y-63152382D01*
X175526190Y-62771429D01*
X175002381Y-63676191D02*
X176002381Y-63914286D01*
X175288095Y-64104763D01*
X176002381Y-64295239D01*
X175002381Y-64533334D01*
X176002381Y-65485715D02*
X175526190Y-65152381D01*
X176002381Y-64914286D02*
X175002381Y-64914286D01*
X175002381Y-65295239D01*
X175050000Y-65390477D01*
X175097619Y-65438096D01*
X175192857Y-65485715D01*
X175335714Y-65485715D01*
X175430952Y-65438096D01*
X175478571Y-65390477D01*
X175526190Y-65295239D01*
X175526190Y-64914286D01*
X175002381Y-66104762D02*
X175002381Y-66295239D01*
X175050000Y-66390477D01*
X175145238Y-66485715D01*
X175335714Y-66533334D01*
X175669048Y-66533334D01*
X175859524Y-66485715D01*
X175954762Y-66390477D01*
X176002381Y-66295239D01*
X176002381Y-66104762D01*
X175954762Y-66009524D01*
X175859524Y-65914286D01*
X175669048Y-65866667D01*
X175335714Y-65866667D01*
X175145238Y-65914286D01*
X175050000Y-66009524D01*
X175002381Y-66104762D01*
X176002381Y-66961905D02*
X175002381Y-66961905D01*
X176002381Y-67533334D01*
X175002381Y-67533334D01*
X176002381Y-68533334D02*
X176002381Y-67961905D01*
X176002381Y-68247619D02*
X175002381Y-68247619D01*
X175145238Y-68152381D01*
X175240476Y-68057143D01*
X175288095Y-67961905D01*
X196952381Y-69619048D02*
X195952381Y-69619048D01*
X196952381Y-70666667D02*
X196476190Y-70333333D01*
X196952381Y-70095238D02*
X195952381Y-70095238D01*
X195952381Y-70476191D01*
X196000000Y-70571429D01*
X196047619Y-70619048D01*
X196142857Y-70666667D01*
X196285714Y-70666667D01*
X196380952Y-70619048D01*
X196428571Y-70571429D01*
X196476190Y-70476191D01*
X196476190Y-70095238D01*
X196952381Y-71666667D02*
X196476190Y-71333333D01*
X196952381Y-71095238D02*
X195952381Y-71095238D01*
X195952381Y-71476191D01*
X196000000Y-71571429D01*
X196047619Y-71619048D01*
X196142857Y-71666667D01*
X196285714Y-71666667D01*
X196380952Y-71619048D01*
X196428571Y-71571429D01*
X196476190Y-71476191D01*
X196476190Y-71095238D01*
X195952381Y-72000000D02*
X196952381Y-72666667D01*
X195952381Y-72666667D02*
X196952381Y-72000000D01*
X196428571Y-73380953D02*
X196428571Y-73047619D01*
X196952381Y-73047619D02*
X195952381Y-73047619D01*
X195952381Y-73523810D01*
X196952381Y-74428572D02*
X196952381Y-73857143D01*
X196952381Y-74142857D02*
X195952381Y-74142857D01*
X196095238Y-74047619D01*
X196190476Y-73952381D01*
X196238095Y-73857143D01*
X198702381Y-67238095D02*
X197702381Y-67238095D01*
X198702381Y-68285714D02*
X198226190Y-67952380D01*
X198702381Y-67714285D02*
X197702381Y-67714285D01*
X197702381Y-68095238D01*
X197750000Y-68190476D01*
X197797619Y-68238095D01*
X197892857Y-68285714D01*
X198035714Y-68285714D01*
X198130952Y-68238095D01*
X198178571Y-68190476D01*
X198226190Y-68095238D01*
X198226190Y-67714285D01*
X197702381Y-68571428D02*
X197702381Y-69142857D01*
X198702381Y-68857142D02*
X197702381Y-68857142D01*
X197702381Y-69380952D02*
X198702381Y-70047619D01*
X197702381Y-70047619D02*
X198702381Y-69380952D01*
X198178571Y-70761905D02*
X198178571Y-70428571D01*
X198702381Y-70428571D02*
X197702381Y-70428571D01*
X197702381Y-70904762D01*
X198702381Y-71809524D02*
X198702381Y-71238095D01*
X198702381Y-71523809D02*
X197702381Y-71523809D01*
X197845238Y-71428571D01*
X197940476Y-71333333D01*
X197988095Y-71238095D01*
X199952381Y-65261905D02*
X198952381Y-65261905D01*
X198952381Y-65642858D01*
X199000000Y-65738096D01*
X199047619Y-65785715D01*
X199142857Y-65833334D01*
X199285714Y-65833334D01*
X199380952Y-65785715D01*
X199428571Y-65738096D01*
X199476190Y-65642858D01*
X199476190Y-65261905D01*
X199857143Y-66833334D02*
X199904762Y-66785715D01*
X199952381Y-66642858D01*
X199952381Y-66547620D01*
X199904762Y-66404762D01*
X199809524Y-66309524D01*
X199714286Y-66261905D01*
X199523810Y-66214286D01*
X199380952Y-66214286D01*
X199190476Y-66261905D01*
X199095238Y-66309524D01*
X199000000Y-66404762D01*
X198952381Y-66547620D01*
X198952381Y-66642858D01*
X199000000Y-66785715D01*
X199047619Y-66833334D01*
X198952381Y-67452381D02*
X198952381Y-67547620D01*
X199000000Y-67642858D01*
X199047619Y-67690477D01*
X199142857Y-67738096D01*
X199333333Y-67785715D01*
X199571429Y-67785715D01*
X199761905Y-67738096D01*
X199857143Y-67690477D01*
X199904762Y-67642858D01*
X199952381Y-67547620D01*
X199952381Y-67452381D01*
X199904762Y-67357143D01*
X199857143Y-67309524D01*
X199761905Y-67261905D01*
X199571429Y-67214286D01*
X199333333Y-67214286D01*
X199142857Y-67261905D01*
X199047619Y-67309524D01*
X199000000Y-67357143D01*
X198952381Y-67452381D01*
X201452381Y-63511905D02*
X200452381Y-63511905D01*
X200452381Y-63892858D01*
X200500000Y-63988096D01*
X200547619Y-64035715D01*
X200642857Y-64083334D01*
X200785714Y-64083334D01*
X200880952Y-64035715D01*
X200928571Y-63988096D01*
X200976190Y-63892858D01*
X200976190Y-63511905D01*
X201357143Y-65083334D02*
X201404762Y-65035715D01*
X201452381Y-64892858D01*
X201452381Y-64797620D01*
X201404762Y-64654762D01*
X201309524Y-64559524D01*
X201214286Y-64511905D01*
X201023810Y-64464286D01*
X200880952Y-64464286D01*
X200690476Y-64511905D01*
X200595238Y-64559524D01*
X200500000Y-64654762D01*
X200452381Y-64797620D01*
X200452381Y-64892858D01*
X200500000Y-65035715D01*
X200547619Y-65083334D01*
X201452381Y-66035715D02*
X201452381Y-65464286D01*
X201452381Y-65750000D02*
X200452381Y-65750000D01*
X200595238Y-65654762D01*
X200690476Y-65559524D01*
X200738095Y-65464286D01*
X203452381Y-61761905D02*
X202452381Y-61761905D01*
X202452381Y-62142858D01*
X202500000Y-62238096D01*
X202547619Y-62285715D01*
X202642857Y-62333334D01*
X202785714Y-62333334D01*
X202880952Y-62285715D01*
X202928571Y-62238096D01*
X202976190Y-62142858D01*
X202976190Y-61761905D01*
X203357143Y-63333334D02*
X203404762Y-63285715D01*
X203452381Y-63142858D01*
X203452381Y-63047620D01*
X203404762Y-62904762D01*
X203309524Y-62809524D01*
X203214286Y-62761905D01*
X203023810Y-62714286D01*
X202880952Y-62714286D01*
X202690476Y-62761905D01*
X202595238Y-62809524D01*
X202500000Y-62904762D01*
X202452381Y-63047620D01*
X202452381Y-63142858D01*
X202500000Y-63285715D01*
X202547619Y-63333334D01*
X202547619Y-63714286D02*
X202500000Y-63761905D01*
X202452381Y-63857143D01*
X202452381Y-64095239D01*
X202500000Y-64190477D01*
X202547619Y-64238096D01*
X202642857Y-64285715D01*
X202738095Y-64285715D01*
X202880952Y-64238096D01*
X203452381Y-63666667D01*
X203452381Y-64285715D01*
X205702381Y-60511905D02*
X204702381Y-60511905D01*
X204702381Y-60892858D01*
X204750000Y-60988096D01*
X204797619Y-61035715D01*
X204892857Y-61083334D01*
X205035714Y-61083334D01*
X205130952Y-61035715D01*
X205178571Y-60988096D01*
X205226190Y-60892858D01*
X205226190Y-60511905D01*
X205607143Y-62083334D02*
X205654762Y-62035715D01*
X205702381Y-61892858D01*
X205702381Y-61797620D01*
X205654762Y-61654762D01*
X205559524Y-61559524D01*
X205464286Y-61511905D01*
X205273810Y-61464286D01*
X205130952Y-61464286D01*
X204940476Y-61511905D01*
X204845238Y-61559524D01*
X204750000Y-61654762D01*
X204702381Y-61797620D01*
X204702381Y-61892858D01*
X204750000Y-62035715D01*
X204797619Y-62083334D01*
X204702381Y-62416667D02*
X204702381Y-63035715D01*
X205083333Y-62702381D01*
X205083333Y-62845239D01*
X205130952Y-62940477D01*
X205178571Y-62988096D01*
X205273810Y-63035715D01*
X205511905Y-63035715D01*
X205607143Y-62988096D01*
X205654762Y-62940477D01*
X205702381Y-62845239D01*
X205702381Y-62559524D01*
X205654762Y-62464286D01*
X205607143Y-62416667D01*
X208202381Y-59511905D02*
X207202381Y-59511905D01*
X207202381Y-59892858D01*
X207250000Y-59988096D01*
X207297619Y-60035715D01*
X207392857Y-60083334D01*
X207535714Y-60083334D01*
X207630952Y-60035715D01*
X207678571Y-59988096D01*
X207726190Y-59892858D01*
X207726190Y-59511905D01*
X208107143Y-61083334D02*
X208154762Y-61035715D01*
X208202381Y-60892858D01*
X208202381Y-60797620D01*
X208154762Y-60654762D01*
X208059524Y-60559524D01*
X207964286Y-60511905D01*
X207773810Y-60464286D01*
X207630952Y-60464286D01*
X207440476Y-60511905D01*
X207345238Y-60559524D01*
X207250000Y-60654762D01*
X207202381Y-60797620D01*
X207202381Y-60892858D01*
X207250000Y-61035715D01*
X207297619Y-61083334D01*
X207535714Y-61940477D02*
X208202381Y-61940477D01*
X207154762Y-61702381D02*
X207869048Y-61464286D01*
X207869048Y-62083334D01*
X210702381Y-58761905D02*
X209702381Y-58761905D01*
X209702381Y-59142858D01*
X209750000Y-59238096D01*
X209797619Y-59285715D01*
X209892857Y-59333334D01*
X210035714Y-59333334D01*
X210130952Y-59285715D01*
X210178571Y-59238096D01*
X210226190Y-59142858D01*
X210226190Y-58761905D01*
X210607143Y-60333334D02*
X210654762Y-60285715D01*
X210702381Y-60142858D01*
X210702381Y-60047620D01*
X210654762Y-59904762D01*
X210559524Y-59809524D01*
X210464286Y-59761905D01*
X210273810Y-59714286D01*
X210130952Y-59714286D01*
X209940476Y-59761905D01*
X209845238Y-59809524D01*
X209750000Y-59904762D01*
X209702381Y-60047620D01*
X209702381Y-60142858D01*
X209750000Y-60285715D01*
X209797619Y-60333334D01*
X209702381Y-61238096D02*
X209702381Y-60761905D01*
X210178571Y-60714286D01*
X210130952Y-60761905D01*
X210083333Y-60857143D01*
X210083333Y-61095239D01*
X210130952Y-61190477D01*
X210178571Y-61238096D01*
X210273810Y-61285715D01*
X210511905Y-61285715D01*
X210607143Y-61238096D01*
X210654762Y-61190477D01*
X210702381Y-61095239D01*
X210702381Y-60857143D01*
X210654762Y-60761905D01*
X210607143Y-60714286D01*
X213202381Y-58261905D02*
X212202381Y-58261905D01*
X212202381Y-58642858D01*
X212250000Y-58738096D01*
X212297619Y-58785715D01*
X212392857Y-58833334D01*
X212535714Y-58833334D01*
X212630952Y-58785715D01*
X212678571Y-58738096D01*
X212726190Y-58642858D01*
X212726190Y-58261905D01*
X213107143Y-59833334D02*
X213154762Y-59785715D01*
X213202381Y-59642858D01*
X213202381Y-59547620D01*
X213154762Y-59404762D01*
X213059524Y-59309524D01*
X212964286Y-59261905D01*
X212773810Y-59214286D01*
X212630952Y-59214286D01*
X212440476Y-59261905D01*
X212345238Y-59309524D01*
X212250000Y-59404762D01*
X212202381Y-59547620D01*
X212202381Y-59642858D01*
X212250000Y-59785715D01*
X212297619Y-59833334D01*
X212202381Y-60690477D02*
X212202381Y-60500000D01*
X212250000Y-60404762D01*
X212297619Y-60357143D01*
X212440476Y-60261905D01*
X212630952Y-60214286D01*
X213011905Y-60214286D01*
X213107143Y-60261905D01*
X213154762Y-60309524D01*
X213202381Y-60404762D01*
X213202381Y-60595239D01*
X213154762Y-60690477D01*
X213107143Y-60738096D01*
X213011905Y-60785715D01*
X212773810Y-60785715D01*
X212678571Y-60738096D01*
X212630952Y-60690477D01*
X212583333Y-60595239D01*
X212583333Y-60404762D01*
X212630952Y-60309524D01*
X212678571Y-60261905D01*
X212773810Y-60214286D01*
X215952381Y-58261905D02*
X214952381Y-58261905D01*
X214952381Y-58642858D01*
X215000000Y-58738096D01*
X215047619Y-58785715D01*
X215142857Y-58833334D01*
X215285714Y-58833334D01*
X215380952Y-58785715D01*
X215428571Y-58738096D01*
X215476190Y-58642858D01*
X215476190Y-58261905D01*
X215857143Y-59833334D02*
X215904762Y-59785715D01*
X215952381Y-59642858D01*
X215952381Y-59547620D01*
X215904762Y-59404762D01*
X215809524Y-59309524D01*
X215714286Y-59261905D01*
X215523810Y-59214286D01*
X215380952Y-59214286D01*
X215190476Y-59261905D01*
X215095238Y-59309524D01*
X215000000Y-59404762D01*
X214952381Y-59547620D01*
X214952381Y-59642858D01*
X215000000Y-59785715D01*
X215047619Y-59833334D01*
X214952381Y-60166667D02*
X214952381Y-60833334D01*
X215952381Y-60404762D01*
X218202381Y-58511905D02*
X217202381Y-58511905D01*
X217202381Y-58892858D01*
X217250000Y-58988096D01*
X217297619Y-59035715D01*
X217392857Y-59083334D01*
X217535714Y-59083334D01*
X217630952Y-59035715D01*
X217678571Y-58988096D01*
X217726190Y-58892858D01*
X217726190Y-58511905D01*
X218107143Y-60083334D02*
X218154762Y-60035715D01*
X218202381Y-59892858D01*
X218202381Y-59797620D01*
X218154762Y-59654762D01*
X218059524Y-59559524D01*
X217964286Y-59511905D01*
X217773810Y-59464286D01*
X217630952Y-59464286D01*
X217440476Y-59511905D01*
X217345238Y-59559524D01*
X217250000Y-59654762D01*
X217202381Y-59797620D01*
X217202381Y-59892858D01*
X217250000Y-60035715D01*
X217297619Y-60083334D01*
X217630952Y-60654762D02*
X217583333Y-60559524D01*
X217535714Y-60511905D01*
X217440476Y-60464286D01*
X217392857Y-60464286D01*
X217297619Y-60511905D01*
X217250000Y-60559524D01*
X217202381Y-60654762D01*
X217202381Y-60845239D01*
X217250000Y-60940477D01*
X217297619Y-60988096D01*
X217392857Y-61035715D01*
X217440476Y-61035715D01*
X217535714Y-60988096D01*
X217583333Y-60940477D01*
X217630952Y-60845239D01*
X217630952Y-60654762D01*
X217678571Y-60559524D01*
X217726190Y-60511905D01*
X217821429Y-60464286D01*
X218011905Y-60464286D01*
X218107143Y-60511905D01*
X218154762Y-60559524D01*
X218202381Y-60654762D01*
X218202381Y-60845239D01*
X218154762Y-60940477D01*
X218107143Y-60988096D01*
X218011905Y-61035715D01*
X217821429Y-61035715D01*
X217726190Y-60988096D01*
X217678571Y-60940477D01*
X217630952Y-60845239D01*
X149787293Y-85135913D02*
X149764260Y-85199195D01*
X149781476Y-85348792D01*
X149821726Y-85435107D01*
X149925257Y-85544456D01*
X150051822Y-85590521D01*
X150158261Y-85593429D01*
X150351016Y-85556088D01*
X150480489Y-85495714D01*
X150632994Y-85372058D01*
X150699185Y-85288651D01*
X150745250Y-85162087D01*
X150728033Y-85012489D01*
X150687784Y-84926174D01*
X150584253Y-84816826D01*
X150520971Y-84793793D01*
X150359973Y-84448533D02*
X150383006Y-84385251D01*
X150385914Y-84278812D01*
X150285290Y-84063023D01*
X150201884Y-83996833D01*
X150138602Y-83973800D01*
X150032162Y-83970892D01*
X149945847Y-84011142D01*
X149836499Y-84114673D01*
X149560105Y-84874060D01*
X149298484Y-84313012D01*
X192454762Y-60857143D02*
X192502381Y-61000000D01*
X192502381Y-61238096D01*
X192454762Y-61333334D01*
X192407143Y-61380953D01*
X192311905Y-61428572D01*
X192216667Y-61428572D01*
X192121429Y-61380953D01*
X192073810Y-61333334D01*
X192026190Y-61238096D01*
X191978571Y-61047619D01*
X191930952Y-60952381D01*
X191883333Y-60904762D01*
X191788095Y-60857143D01*
X191692857Y-60857143D01*
X191597619Y-60904762D01*
X191550000Y-60952381D01*
X191502381Y-61047619D01*
X191502381Y-61285715D01*
X191550000Y-61428572D01*
X191502381Y-61761905D02*
X192502381Y-62000000D01*
X191788095Y-62190477D01*
X192502381Y-62380953D01*
X191502381Y-62619048D01*
X192597619Y-62761905D02*
X192597619Y-63523810D01*
X191978571Y-64095239D02*
X192026190Y-64238096D01*
X192073810Y-64285715D01*
X192169048Y-64333334D01*
X192311905Y-64333334D01*
X192407143Y-64285715D01*
X192454762Y-64238096D01*
X192502381Y-64142858D01*
X192502381Y-63761905D01*
X191502381Y-63761905D01*
X191502381Y-64095239D01*
X191550000Y-64190477D01*
X191597619Y-64238096D01*
X191692857Y-64285715D01*
X191788095Y-64285715D01*
X191883333Y-64238096D01*
X191930952Y-64190477D01*
X191978571Y-64095239D01*
X191978571Y-63761905D01*
X191502381Y-64952381D02*
X191502381Y-65142858D01*
X191550000Y-65238096D01*
X191645238Y-65333334D01*
X191835714Y-65380953D01*
X192169048Y-65380953D01*
X192359524Y-65333334D01*
X192454762Y-65238096D01*
X192502381Y-65142858D01*
X192502381Y-64952381D01*
X192454762Y-64857143D01*
X192359524Y-64761905D01*
X192169048Y-64714286D01*
X191835714Y-64714286D01*
X191645238Y-64761905D01*
X191550000Y-64857143D01*
X191502381Y-64952381D01*
X191502381Y-66000000D02*
X191502381Y-66190477D01*
X191550000Y-66285715D01*
X191645238Y-66380953D01*
X191835714Y-66428572D01*
X192169048Y-66428572D01*
X192359524Y-66380953D01*
X192454762Y-66285715D01*
X192502381Y-66190477D01*
X192502381Y-66000000D01*
X192454762Y-65904762D01*
X192359524Y-65809524D01*
X192169048Y-65761905D01*
X191835714Y-65761905D01*
X191645238Y-65809524D01*
X191550000Y-65904762D01*
X191502381Y-66000000D01*
X191502381Y-66714286D02*
X191502381Y-67285715D01*
X192502381Y-67000000D02*
X191502381Y-67000000D01*
X191502381Y-67809524D02*
X191502381Y-67904763D01*
X191550000Y-68000001D01*
X191597619Y-68047620D01*
X191692857Y-68095239D01*
X191883333Y-68142858D01*
X192121429Y-68142858D01*
X192311905Y-68095239D01*
X192407143Y-68047620D01*
X192454762Y-68000001D01*
X192502381Y-67904763D01*
X192502381Y-67809524D01*
X192454762Y-67714286D01*
X192407143Y-67666667D01*
X192311905Y-67619048D01*
X192121429Y-67571429D01*
X191883333Y-67571429D01*
X191692857Y-67619048D01*
X191597619Y-67666667D01*
X191550000Y-67714286D01*
X191502381Y-67809524D01*
X140276191Y-56954762D02*
X140133334Y-57002381D01*
X139895238Y-57002381D01*
X139800000Y-56954762D01*
X139752381Y-56907143D01*
X139704762Y-56811905D01*
X139704762Y-56716667D01*
X139752381Y-56621429D01*
X139800000Y-56573810D01*
X139895238Y-56526190D01*
X140085715Y-56478571D01*
X140180953Y-56430952D01*
X140228572Y-56383333D01*
X140276191Y-56288095D01*
X140276191Y-56192857D01*
X140228572Y-56097619D01*
X140180953Y-56050000D01*
X140085715Y-56002381D01*
X139847619Y-56002381D01*
X139704762Y-56050000D01*
X139371429Y-56002381D02*
X139133334Y-57002381D01*
X138942857Y-56288095D01*
X138752381Y-57002381D01*
X138514286Y-56002381D01*
X138371429Y-57097619D02*
X137609524Y-57097619D01*
X136800000Y-57002381D02*
X137133334Y-56526190D01*
X137371429Y-57002381D02*
X137371429Y-56002381D01*
X136990476Y-56002381D01*
X136895238Y-56050000D01*
X136847619Y-56097619D01*
X136800000Y-56192857D01*
X136800000Y-56335714D01*
X136847619Y-56430952D01*
X136895238Y-56478571D01*
X136990476Y-56526190D01*
X137371429Y-56526190D01*
X136371429Y-56478571D02*
X136038095Y-56478571D01*
X135895238Y-57002381D02*
X136371429Y-57002381D01*
X136371429Y-56002381D01*
X135895238Y-56002381D01*
X135514286Y-56954762D02*
X135371429Y-57002381D01*
X135133333Y-57002381D01*
X135038095Y-56954762D01*
X134990476Y-56907143D01*
X134942857Y-56811905D01*
X134942857Y-56716667D01*
X134990476Y-56621429D01*
X135038095Y-56573810D01*
X135133333Y-56526190D01*
X135323810Y-56478571D01*
X135419048Y-56430952D01*
X135466667Y-56383333D01*
X135514286Y-56288095D01*
X135514286Y-56192857D01*
X135466667Y-56097619D01*
X135419048Y-56050000D01*
X135323810Y-56002381D01*
X135085714Y-56002381D01*
X134942857Y-56050000D01*
X134514286Y-56478571D02*
X134180952Y-56478571D01*
X134038095Y-57002381D02*
X134514286Y-57002381D01*
X134514286Y-56002381D01*
X134038095Y-56002381D01*
X133752381Y-56002381D02*
X133180952Y-56002381D01*
X133466667Y-57002381D02*
X133466667Y-56002381D01*
X132323809Y-57002381D02*
X132895238Y-57002381D01*
X132609524Y-57002381D02*
X132609524Y-56002381D01*
X132704762Y-56145238D01*
X132800000Y-56240476D01*
X132895238Y-56288095D01*
X153834922Y-88557244D02*
X152787742Y-88677760D01*
X153553176Y-87953039D01*
X152839856Y-87550080D02*
X152736325Y-87440732D01*
X152673042Y-87417700D01*
X152566602Y-87414792D01*
X152437130Y-87475166D01*
X152370939Y-87558572D01*
X152347907Y-87621855D01*
X152344998Y-87728294D01*
X152505996Y-88073555D01*
X153412304Y-87650937D01*
X153271431Y-87348833D01*
X153188024Y-87282643D01*
X153124742Y-87259610D01*
X153018302Y-87256702D01*
X152931987Y-87296952D01*
X152865797Y-87380358D01*
X152842764Y-87443640D01*
X152839856Y-87550080D01*
X152980729Y-87852183D01*
X152362447Y-87089657D02*
X152161200Y-86658081D01*
X152143752Y-87296720D02*
X152909187Y-86571999D01*
X151862006Y-86692514D01*
X152687815Y-86097266D02*
X152446319Y-85579375D01*
X151660760Y-86260939D02*
X152567067Y-85838321D01*
X151744398Y-85538894D02*
X151422403Y-84848374D01*
X150875897Y-84577796D02*
X151782205Y-84155178D01*
X151681581Y-83939391D01*
X151578050Y-83830042D01*
X151451485Y-83783976D01*
X151345046Y-83781068D01*
X151152291Y-83818409D01*
X151022818Y-83878784D01*
X150870313Y-84002440D01*
X150804122Y-84085847D01*
X150758057Y-84212411D01*
X150775274Y-84362009D01*
X150875897Y-84577796D01*
X150453279Y-83671488D02*
X151359586Y-83248870D01*
X151218714Y-82946768D02*
X150171533Y-83067284D01*
X150936968Y-82342562D01*
X149668416Y-81988345D02*
X149909912Y-82506236D01*
X149789165Y-82247291D02*
X150695472Y-81824673D01*
X150606249Y-81971362D01*
X150560184Y-82097926D01*
X150557275Y-82204365D01*
X121028571Y-74057143D02*
X121028571Y-73723809D01*
X121552381Y-73723809D02*
X120552381Y-73723809D01*
X120552381Y-74200000D01*
X120885714Y-75009524D02*
X121552381Y-75009524D01*
X120504762Y-74771428D02*
X121219048Y-74533333D01*
X121219048Y-75152381D01*
X120552381Y-75723809D02*
X120552381Y-75819048D01*
X120600000Y-75914286D01*
X120647619Y-75961905D01*
X120742857Y-76009524D01*
X120933333Y-76057143D01*
X121171429Y-76057143D01*
X121361905Y-76009524D01*
X121457143Y-75961905D01*
X121504762Y-75914286D01*
X121552381Y-75819048D01*
X121552381Y-75723809D01*
X121504762Y-75628571D01*
X121457143Y-75580952D01*
X121361905Y-75533333D01*
X121171429Y-75485714D01*
X120933333Y-75485714D01*
X120742857Y-75533333D01*
X120647619Y-75580952D01*
X120600000Y-75628571D01*
X120552381Y-75723809D01*
X120552381Y-76961905D02*
X120552381Y-76485714D01*
X121028571Y-76438095D01*
X120980952Y-76485714D01*
X120933333Y-76580952D01*
X120933333Y-76819048D01*
X120980952Y-76914286D01*
X121028571Y-76961905D01*
X121123810Y-77009524D01*
X121361905Y-77009524D01*
X121457143Y-76961905D01*
X121504762Y-76914286D01*
X121552381Y-76819048D01*
X121552381Y-76580952D01*
X121504762Y-76485714D01*
X121457143Y-76438095D01*
X121647619Y-77200000D02*
X121647619Y-77961905D01*
X120552381Y-78200000D02*
X121361905Y-78200000D01*
X121457143Y-78247619D01*
X121504762Y-78295238D01*
X121552381Y-78390476D01*
X121552381Y-78580953D01*
X121504762Y-78676191D01*
X121457143Y-78723810D01*
X121361905Y-78771429D01*
X120552381Y-78771429D01*
X121504762Y-79200000D02*
X121552381Y-79342857D01*
X121552381Y-79580953D01*
X121504762Y-79676191D01*
X121457143Y-79723810D01*
X121361905Y-79771429D01*
X121266667Y-79771429D01*
X121171429Y-79723810D01*
X121123810Y-79676191D01*
X121076190Y-79580953D01*
X121028571Y-79390476D01*
X120980952Y-79295238D01*
X120933333Y-79247619D01*
X120838095Y-79200000D01*
X120742857Y-79200000D01*
X120647619Y-79247619D01*
X120600000Y-79295238D01*
X120552381Y-79390476D01*
X120552381Y-79628572D01*
X120600000Y-79771429D01*
X121028571Y-80533334D02*
X121076190Y-80676191D01*
X121123810Y-80723810D01*
X121219048Y-80771429D01*
X121361905Y-80771429D01*
X121457143Y-80723810D01*
X121504762Y-80676191D01*
X121552381Y-80580953D01*
X121552381Y-80200000D01*
X120552381Y-80200000D01*
X120552381Y-80533334D01*
X120600000Y-80628572D01*
X120647619Y-80676191D01*
X120742857Y-80723810D01*
X120838095Y-80723810D01*
X120933333Y-80676191D01*
X120980952Y-80628572D01*
X121028571Y-80533334D01*
X121028571Y-80200000D01*
X121552381Y-81723810D02*
X121552381Y-81152381D01*
X121552381Y-81438095D02*
X120552381Y-81438095D01*
X120695238Y-81342857D01*
X120790476Y-81247619D01*
X120838095Y-81152381D01*
X156309904Y-84409606D02*
X156200556Y-84513137D01*
X156177524Y-84576420D01*
X156174615Y-84682860D01*
X156234989Y-84812332D01*
X156318396Y-84878522D01*
X156381678Y-84901555D01*
X156488118Y-84904463D01*
X156833379Y-84743466D01*
X156410760Y-83837158D01*
X156108657Y-83978031D01*
X156042467Y-84061438D01*
X156019434Y-84124720D01*
X156016526Y-84231160D01*
X156056775Y-84317474D01*
X156140182Y-84383665D01*
X156203464Y-84406698D01*
X156309904Y-84409606D01*
X156612007Y-84268733D01*
X155849480Y-84887015D02*
X155417905Y-85088262D01*
X156056543Y-85105710D02*
X155331823Y-84340275D01*
X155452338Y-85387456D01*
X154857090Y-84561647D02*
X154339199Y-84803143D01*
X155020763Y-85588702D02*
X154598145Y-84682394D01*
X154166569Y-84883642D02*
X153648679Y-85125138D01*
X154330243Y-85910697D02*
X153907624Y-85004389D01*
X153608197Y-85827058D02*
X152917677Y-86149053D01*
X152569509Y-86416490D02*
X152137933Y-86617737D01*
X152776572Y-86635186D02*
X152051851Y-85869751D01*
X152172366Y-86916931D01*
X151395531Y-87279176D02*
X151913421Y-87037679D01*
X151654477Y-87158427D02*
X151231858Y-86252120D01*
X151378547Y-86341343D01*
X151505112Y-86387408D01*
X151611551Y-86390316D01*
X173627381Y-72288095D02*
X172627381Y-72288095D01*
X173341667Y-72621429D01*
X172627381Y-72954762D01*
X173627381Y-72954762D01*
X173627381Y-73430952D02*
X172627381Y-73430952D01*
X172627381Y-73811905D01*
X172675000Y-73907143D01*
X172722619Y-73954762D01*
X172817857Y-74002381D01*
X172960714Y-74002381D01*
X173055952Y-73954762D01*
X173103571Y-73907143D01*
X173151190Y-73811905D01*
X173151190Y-73430952D01*
X172627381Y-74430952D02*
X173436905Y-74430952D01*
X173532143Y-74478571D01*
X173579762Y-74526190D01*
X173627381Y-74621428D01*
X173627381Y-74811905D01*
X173579762Y-74907143D01*
X173532143Y-74954762D01*
X173436905Y-75002381D01*
X172627381Y-75002381D01*
X172627381Y-75907143D02*
X172627381Y-75716666D01*
X172675000Y-75621428D01*
X172722619Y-75573809D01*
X172865476Y-75478571D01*
X173055952Y-75430952D01*
X173436905Y-75430952D01*
X173532143Y-75478571D01*
X173579762Y-75526190D01*
X173627381Y-75621428D01*
X173627381Y-75811905D01*
X173579762Y-75907143D01*
X173532143Y-75954762D01*
X173436905Y-76002381D01*
X173198810Y-76002381D01*
X173103571Y-75954762D01*
X173055952Y-75907143D01*
X173008333Y-75811905D01*
X173008333Y-75621428D01*
X173055952Y-75526190D01*
X173103571Y-75478571D01*
X173198810Y-75430952D01*
X172627381Y-76621428D02*
X172627381Y-76716667D01*
X172675000Y-76811905D01*
X172722619Y-76859524D01*
X172817857Y-76907143D01*
X173008333Y-76954762D01*
X173246429Y-76954762D01*
X173436905Y-76907143D01*
X173532143Y-76859524D01*
X173579762Y-76811905D01*
X173627381Y-76716667D01*
X173627381Y-76621428D01*
X173579762Y-76526190D01*
X173532143Y-76478571D01*
X173436905Y-76430952D01*
X173246429Y-76383333D01*
X173008333Y-76383333D01*
X172817857Y-76430952D01*
X172722619Y-76478571D01*
X172675000Y-76526190D01*
X172627381Y-76621428D01*
X172627381Y-77573809D02*
X172627381Y-77669048D01*
X172675000Y-77764286D01*
X172722619Y-77811905D01*
X172817857Y-77859524D01*
X173008333Y-77907143D01*
X173246429Y-77907143D01*
X173436905Y-77859524D01*
X173532143Y-77811905D01*
X173579762Y-77764286D01*
X173627381Y-77669048D01*
X173627381Y-77573809D01*
X173579762Y-77478571D01*
X173532143Y-77430952D01*
X173436905Y-77383333D01*
X173246429Y-77335714D01*
X173008333Y-77335714D01*
X172817857Y-77383333D01*
X172722619Y-77430952D01*
X172675000Y-77478571D01*
X172627381Y-77573809D01*
X172627381Y-78526190D02*
X172627381Y-78621429D01*
X172675000Y-78716667D01*
X172722619Y-78764286D01*
X172817857Y-78811905D01*
X173008333Y-78859524D01*
X173246429Y-78859524D01*
X173436905Y-78811905D01*
X173532143Y-78764286D01*
X173579762Y-78716667D01*
X173627381Y-78621429D01*
X173627381Y-78526190D01*
X173579762Y-78430952D01*
X173532143Y-78383333D01*
X173436905Y-78335714D01*
X173246429Y-78288095D01*
X173008333Y-78288095D01*
X172817857Y-78335714D01*
X172722619Y-78383333D01*
X172675000Y-78430952D01*
X172627381Y-78526190D01*
M02*
