999
dxfrw 0.6.3
  0
SECTION
  2
HEADER
  9
$ACADVER
  1
AC1021
  9
$DWGCODEPAGE
  3
ANSI_1252
  9
$INSBASE
 10
0
 20
0
 30
0
  9
$EXTMIN
 10
10000000000
 20
10000000000
 30
0
  9
$EXTMAX
 10
-10000000000
 20
-10000000000
 30
0
  9
$LIMMIN
 10
0
 20
0
  9
$LIMMAX
 10
12
 20
9
  9
$ORTHOMODE
 70
    0
  9
$REGENMODE
 70
    1
  9
$FILLMODE
 70
    1
  9
$QTEXTMODE
 70
    0
  9
$MIRRTEXT
 70
    1
  9
$LTSCALE
 40
1
  9
$ATTMODE
 70
    1
  9
$TEXTSIZE
 40
0.2
  9
$TRACEWID
 40
0.05
  9
$TEXTSTYLE
  7
Standard
  9
$CLAYER
  8
0
  9
$CELTYPE
  6
ByLayer
  9
$CECOLOR
 62
  256
  9
$CELTSCALE
 40
1
  9
$DISPSILH
 70
    0
  9
$DIMSCALE
 40
1
  9
$DIMASZ
 40
0.18
  9
$DIMEXO
 40
0.0625
  9
$DIMDLI
 40
0.38
  9
$DIMRND
 40
0
  9
$DIMDLE
 40
0
  9
$DIMEXE
 40
0.18
  9
$DIMTP
 40
0
  9
$DIMTM
 40
0
  9
$DIMTXT
 40
0.18
  9
$DIMCEN
 40
0.09
  9
$DIMTSZ
 40
0
  9
$DIMTOL
 70
    0
  9
$DIMLIM
 70
    0
  9
$DIMTIH
 70
    1
  9
$DIMTOH
 70
    1
  9
$DIMSE1
 70
    0
  9
$DIMSE2
 70
    0
  9
$DIMTAD
 70
    0
  9
$DIMZIN
 70
    0
  9
$DIMBLK
  1

  9
$DIMASO
 70
    1
  9
$DIMSHO
 70
    1
  9
$DIMPOST
  1

  9
$DIMAPOST
  1

  9
$DIMALT
 70
    0
  9
$DIMALTD
 70
    2
  9
$DIMALTF
 40
25.4
  9
$DIMLFAC
 40
1
  9
$DIMTOFL
 70
    0
  9
$DIMTVP
 40
0
  9
$DIMTIX
 70
    0
  9
$DIMSOXD
 70
    0
  9
$DIMSAH
 70
    0
  9
$DIMBLK1
  1

  9
$DIMBLK2
  1

  9
$DIMSTYLE
  2
Standard
  9
$DIMCLRD
 70
    0
  9
$DIMCLRE
 70
    0
  9
$DIMCLRT
 70
    0
  9
$DIMTFAC
 40
1
  9
$DIMGAP
 40
0.09
  9
$DIMJUST
 70
    0
  9
$DIMSD1
 70
    0
  9
$DIMSD2
 70
    0
  9
$DIMTOLJ
 70
    1
  9
$DIMTZIN
 70
    0
  9
$DIMALTZ
 70
    0
  9
$DIMALTTZ
 70
    0
  9
$DIMUPT
 70
    0
  9
$DIMDEC
 70
    4
  9
$DIMTDEC
 70
    4
  9
$DIMALTU
 70
    2
  9
$DIMALTTD
 70
    2
  9
$DIMTXSTY
  7
Standard
  9
$DIMAUNIT
 70
    0
  9
$DIMADEC
 70
    0
  9
$DIMALTRND
 40
0
  9
$DIMAZIN
 70
    0
  9
$DIMDSEP
 70
   46
  9
$DIMATFIT
 70
    3
  9
$DIMFRAC
 70
    0
  9
$DIMLDRBLK
  1

  9
$DIMLUNIT
 70
    2
  9
$DIMLWD
 70
   -2
  9
$DIMLWE
 70
   -2
  9
$DIMTMOVE
 70
    0
  9
$DIMFXL
 40
1
  9
$DIMFXLON
 70
    0
  9
$DIMJOGANG
 40
0.7853981633974483
  9
$DIMTFILL
 70
    0
  9
$DIMTFILLCLR
 70
    0
  9
$DIMARCSYM
 70
    0
  9
$DIMLTYPE
  6

  9
$DIMLTEX1
  6

  9
$DIMLTEX2
  6

  9
$LUNITS
 70
    2
  9
$LUPREC
 70
    4
  9
$SKETCHINC
 40
0.1
  9
$FILLETRAD
 40
0.5
  9
$AUNITS
 70
    0
  9
$AUPREC
 70
    0
  9
$MENU
  1
.
  9
$ELEVATION
 40
0
  9
$PELEVATION
 40
0
  9
$THICKNESS
 40
0
  9
$LIMCHECK
 70
    0
  9
$CHAMFERA
 40
0.5
  9
$CHAMFERB
 40
0.5
  9
$CHAMFERC
 40
1
  9
$CHAMFERD
 40
0
  9
$SKPOLY
 70
    0
  9
$USRTIMER
 70
    1
  9
$ANGBASE
 50
0
  9
$ANGDIR
 70
    0
  9
$PDMODE
 70
    0
  9
$PDSIZE
 40
0
  9
$PLINEWID
 40
0
  9
$SPLFRAME
 70
    0
  9
$SPLINETYPE
 70
    6
  9
$SPLINESEGS
 70
    8
  9
$HANDSEED
  5
20000
  9
$SURFTAB1
 70
    6
  9
$SURFTAB2
 70
    6
  9
$SURFTYPE
 70
    6
  9
$SURFU
 70
    6
  9
$SURFV
 70
    6
  9
$UCSBASE
  2

  9
$UCSNAME
  2

  9
$UCSORG
 10
0
 20
0
 30
0
  9
$UCSXDIR
 10
1
 20
0
 30
0
  9
$UCSYDIR
 10
0
 20
1
 30
0
  9
$UCSORTHOREF
  2

  9
$UCSORTHOVIEW
 70
    0
  9
$UCSORGTOP
 10
0
 20
0
 30
0
  9
$UCSORGBOTTOM
 10
0
 20
0
 30
0
  9
$UCSORGLEFT
 10
0
 20
0
 30
0
  9
$UCSORGRIGHT
 10
0
 20
0
 30
0
  9
$UCSORGFRONT
 10
0
 20
0
 30
0
  9
$UCSORGBACK
 10
0
 20
0
 30
0
  9
$PUCSBASE
  2

  9
$PUCSNAME
  2

  9
$PUCSORG
 10
0
 20
0
 30
0
  9
$PUCSXDIR
 10
1
 20
0
 30
0
  9
$PUCSYDIR
 10
0
 20
1
 30
0
  9
$PUCSORTHOREF
  2

  9
$PUCSORTHOVIEW
 70
    0
  9
$PUCSORGTOP
 10
0
 20
0
 30
0
  9
$PUCSORGBOTTOM
 10
0
 20
0
 30
0
  9
$PUCSORGLEFT
 10
0
 20
0
 30
0
  9
$PUCSORGRIGHT
 10
0
 20
0
 30
0
  9
$PUCSORGFRONT
 10
0
 20
0
 30
0
  9
$PUCSORGBACK
 10
0
 20
0
 30
0
  9
$USERI1
 70
    0
  9
$USERI2
 70
    0
  9
$USERI3
 70
    0
  9
$USERI4
 70
    0
  9
$USERI5
 70
    0
  9
$USERR1
 40
0
  9
$USERR2
 40
0
  9
$USERR3
 40
0
  9
$USERR4
 40
0
  9
$USERR5
 40
0
  9
$WORLDVIEW
 70
    1
  9
$SHADEDGE
 70
    3
  9
$SHADEDIF
 70
   70
  9
$TILEMODE
 70
    1
  9
$MAXACTVP
 70
   64
  9
$PINSBASE
 10
0
 20
0
 30
0
  9
$PLIMCHECK
 70
    0
  9
$PEXTMIN
 10
1e+20
 20
1e+20
 30
1e+20
  9
$PEXTMAX
 10
-1e+20
 20
-1e+20
 30
-1e+20
  9
$GRIDMODE
 70
    0
  9
$SNAPSTYLE
 70
    0
  9
$PLIMMIN
 10
0
 20
0
  9
$PLIMMAX
 10
12
 20
9
  9
$UNITMODE
 70
    0
  9
$VISRETAIN
 70
    1
  9
$PLINEGEN
 70
    0
  9
$PSLTSCALE
 70
    1
  9
$TREEDEPTH
 70
 3020
  9
$CMLSTYLE
  2
Standard
  9
$CMLJUST
 70
    0
  9
$CMLSCALE
 40
1
  9
$PROXYGRAPHICS
 70
    1
  9
$MEASUREMENT
 70
    0
  9
$CELWEIGHT
370
   -1
  9
$ENDCAPS
280
    0
  9
$JOINSTYLE
280
    0
  9
$LWDISPLAY
290
    1
  9
$INSUNITS
 70
    1
  9
$HYPERLINKBASE
  1

  9
$STYLESHEET
  1

  9
$XEDIT
290
    1
  9
$CEPSNTYPE
380
    0
  9
$PSTYLEMODE
290
    1
  9
$EXTNAMES
290
    1
  9
$PSVPSCALE
 40
0
  9
$OLESTARTUP
290
    0
  9
$SORTENTS
280
  127
  9
$INDEXCTL
280
    0
  9
$HIDETEXT
280
    1
  9
$XCLIPFRAME
290
    2
  9
$HALOGAP
280
    0
  9
$OBSCOLOR
 70
  257
  9
$OBSLTYPE
280
    0
  9
$INTERSECTIONDISPLAY
280
    0
  9
$INTERSECTIONCOLOR
 70
  257
  9
$DIMASSOC
280
    2
  9
$PROJECTNAME
  1

  9
$CAMERADISPLAY
290
    0
  9
$LENSLENGTH
 40
50
  9
$CAMERAHEIGHT
 40
0
  9
$STEPSPERSEC
 40
2
  9
$STEPSIZE
 40
6
  9
$3DDWFPREC
 40
2
  9
$PSOLWIDTH
 40
0.25
  9
$PSOLHEIGHT
 40
4
  9
$LOFTANG1
 40
1.570796326794897
  9
$LOFTANG2
 40
1.570796326794897
  9
$LOFTMAG1
 40
0
  9
$LOFTMAG2
 40
0
  9
$LOFTPARAM
 70
    7
  9
$LOFTNORMALS
280
    1
  9
$LATITUDE
 40
37.795
  9
$LONGITUDE
 40
-122.394
  9
$NORTHDIRECTION
 40
0
  9
$TIMEZONE
 70
-8000
  9
$LIGHTGLYPHDISPLAY
280
    1
  9
$TILEMODELIGHTSYNCH
280
    1
  9
$SOLIDHIST
280
    1
  9
$SHOWHIST
280
    1
  9
$DWFFRAME
280
    2
  9
$DGNFRAME
280
    2
  9
$REALWORLDSCALE
290
    1
  9
$INTERFERECOLOR
 62
  256
  9
$CSHADOW
280
    0
  9
$SHADOWPLANELOCATION
 40
0
  0
ENDSEC
  0
SECTION
  2
CLASSES
  0
ENDSEC
  0
SECTION
  2
TABLES
  0
TABLE
  2
VPORT
  5
8
330
0
100
AcDbSymbolTable
 70
    1
  0
VPORT
  5
31
330
2
100
AcDbSymbolTableRecord
100
AcDbViewportTableRecord
  2
*ACTIVE
 70
    0
 10
0
 20
0
 11
1
 21
1
 12
28.82826205724323
 22
13.51158875426962
 13
0
 23
0
 14
10
 24
10
 15
10
 25
10
 16
0
 26
0
 36
1
 17
0
 27
0
 37
0
 40
80.22008097328641
 41
1.589675711449371
 42
50
 43
0
 44
0
 50
0
 51
0
 71
    0
 72
  100
 73
    1
 74
    3
 75
    0
 76
    0
 77
    0
 78
    0
281
    0
 65
    1
110
0
120
0
130
0
111
1
121
0
131
0
112
0
122
1
132
0
 79
    0
146
0
348
10020
 60
    7
 61
    5
292
1
282
    1
141
0
142
0
 63
  250
421
3358443
  0
ENDTAB
  0
TABLE
  2
LTYPE
  5
5
330
0
100
AcDbSymbolTable
 70
    4
  0
LTYPE
  5
14
330
5
100
AcDbSymbolTableRecord
100
AcDbLinetypeTableRecord
  2
ByBlock
 70
    0
  3

 72
   65
 73
    0
 40
0
  0
LTYPE
  5
15
330
5
100
AcDbSymbolTableRecord
100
AcDbLinetypeTableRecord
  2
ByLayer
 70
    0
  3

 72
   65
 73
    0
 40
0
  0
LTYPE
  5
16
330
5
100
AcDbSymbolTableRecord
100
AcDbLinetypeTableRecord
  2
Continuous
 70
    0
  3
Solid line
 72
   65
 73
    0
 40
0
  0
LTYPE
  5
32
330
5
100
AcDbSymbolTableRecord
100
AcDbLinetypeTableRecord
  2
DOT
 70
    0
  3
Dot . . . . . . . . . . . . . . . . . . . . . .
 72
   65
 73
    2
 40
6.35
 49
0
 74
    0
 49
-6.35
 74
    0
  0
LTYPE
  5
33
330
5
100
AcDbSymbolTableRecord
100
AcDbLinetypeTableRecord
  2
DOTTINY
 70
    0
  3
Dot (.15x) .....................................
 72
   65
 73
    2
 40
0.9525
 49
0
 74
    0
 49
-0.9525
 74
    0
  0
LTYPE
  5
34
330
5
100
AcDbSymbolTableRecord
100
AcDbLinetypeTableRecord
  2
DOT2
 70
    0
  3
Dot (.5x) .....................................
 72
   65
 73
    2
 40
3.175
 49
0
 74
    0
 49
-3.175
 74
    0
  0
LTYPE
  5
35
330
5
100
AcDbSymbolTableRecord
100
AcDbLinetypeTableRecord
  2
DOTX2
 70
    0
  3
Dot (2x) .  .  .  .  .  .  .  .  .  .  .  .  .
 72
   65
 73
    2
 40
12.7
 49
0
 74
    0
 49
-12.7
 74
    0
  0
LTYPE
  5
36
330
5
100
AcDbSymbolTableRecord
100
AcDbLinetypeTableRecord
  2
DASHED
 70
    0
  3
Dashed _ _ _ _ _ _ _ _ _ _ _ _ _ _ _ _ _
 72
   65
 73
    2
 40
19.05
 49
12.7
 74
    0
 49
-6.35
 74
    0
  0
LTYPE
  5
37
330
5
100
AcDbSymbolTableRecord
100
AcDbLinetypeTableRecord
  2
DASHEDTINY
 70
    0
  3
Dashed (.15x) _ _ _ _ _ _ _ _ _ _ _ _ _ _ _ _ _
 72
   65
 73
    2
 40
2.8575
 49
1.905
 74
    0
 49
-0.9525
 74
    0
  0
LTYPE
  5
38
330
5
100
AcDbSymbolTableRecord
100
AcDbLinetypeTableRecord
  2
DASHED2
 70
    0
  3
Dashed (.5x) _ _ _ _ _ _ _ _ _ _ _ _ _ _ _ _ _
 72
   65
 73
    2
 40
9.524999999999999
 49
6.35
 74
    0
 49
-3.175
 74
    0
  0
LTYPE
  5
39
330
5
100
AcDbSymbolTableRecord
100
AcDbLinetypeTableRecord
  2
DASHEDX2
 70
    0
  3
Dashed (2x) ____  ____  ____  ____  ____  ___
 72
   65
 73
    2
 40
38.09999999999999
 49
25.4
 74
    0
 49
-12.7
 74
    0
  0
LTYPE
  5
3A
330
5
100
AcDbSymbolTableRecord
100
AcDbLinetypeTableRecord
  2
DASHDOT
 70
    0
  3
Dash dot __ . __ . __ . __ . __ . __ . __ . __
 72
   65
 73
    4
 40
25.4
 49
12.7
 74
    0
 49
-6.35
 74
    0
 49
0
 74
    0
 49
-6.35
 74
    0
  0
LTYPE
  5
3B
330
5
100
AcDbSymbolTableRecord
100
AcDbLinetypeTableRecord
  2
DASHDOTTINY
 70
    0
  3
Dash dot (.15x) _._._._._._._._._._._._._._._.
 72
   65
 73
    4
 40
3.81
 49
1.905
 74
    0
 49
-0.9525
 74
    0
 49
0
 74
    0
 49
-0.9525
 74
    0
  0
LTYPE
  5
3C
330
5
100
AcDbSymbolTableRecord
100
AcDbLinetypeTableRecord
  2
DASHDOT2
 70
    0
  3
Dash dot (.5x) _._._._._._._._._._._._._._._.
 72
   65
 73
    4
 40
12.7
 49
6.35
 74
    0
 49
-3.175
 74
    0
 49
0
 74
    0
 49
-3.175
 74
    0
  0
LTYPE
  5
3D
330
5
100
AcDbSymbolTableRecord
100
AcDbLinetypeTableRecord
  2
DASHDOTX2
 70
    0
  3
Dash dot (2x) ____  .  ____  .  ____  .  ___
 72
   65
 73
    4
 40
50.8
 49
25.4
 74
    0
 49
-12.7
 74
    0
 49
0
 74
    0
 49
-12.7
 74
    0
  0
LTYPE
  5
3E
330
5
100
AcDbSymbolTableRecord
100
AcDbLinetypeTableRecord
  2
DIVIDE
 70
    0
  3
Divide ____ . . ____ . . ____ . . ____ . . ____
 72
   65
 73
    6
 40
31.75
 49
12.7
 74
    0
 49
-6.35
 74
    0
 49
0
 74
    0
 49
-6.35
 74
    0
 49
0
 74
    0
 49
-6.35
 74
    0
  0
LTYPE
  5
3F
330
5
100
AcDbSymbolTableRecord
100
AcDbLinetypeTableRecord
  2
DIVIDETINY
 70
    0
  3
Divide (.15x) __..__..__..__..__..__..__..__.._
 72
   65
 73
    6
 40
4.7625
 49
1.905
 74
    0
 49
-0.9525
 74
    0
 49
0
 74
    0
 49
-0.9525
 74
    0
 49
0
 74
    0
 49
-0.9525
 74
    0
  0
LTYPE
  5
40
330
5
100
AcDbSymbolTableRecord
100
AcDbLinetypeTableRecord
  2
DIVIDE2
 70
    0
  3
Divide (.5x) __..__..__..__..__..__..__..__.._
 72
   65
 73
    6
 40
15.875
 49
6.35
 74
    0
 49
-3.175
 74
    0
 49
0
 74
    0
 49
-3.175
 74
    0
 49
0
 74
    0
 49
-3.175
 74
    0
  0
LTYPE
  5
41
330
5
100
AcDbSymbolTableRecord
100
AcDbLinetypeTableRecord
  2
DIVIDEX2
 70
    0
  3
Divide (2x) ________  .  .  ________  .  .  _
 72
   65
 73
    6
 40
63.5
 49
25.4
 74
    0
 49
-12.7
 74
    0
 49
0
 74
    0
 49
-12.7
 74
    0
 49
0
 74
    0
 49
-12.7
 74
    0
  0
LTYPE
  5
42
330
5
100
AcDbSymbolTableRecord
100
AcDbLinetypeTableRecord
  2
BORDER
 70
    0
  3
Border __ __ . __ __ . __ __ . __ __ . __ __ .
 72
   65
 73
    6
 40
44.45
 49
12.7
 74
    0
 49
-6.35
 74
    0
 49
12.7
 74
    0
 49
-6.35
 74
    0
 49
0
 74
    0
 49
-6.35
 74
    0
  0
LTYPE
  5
43
330
5
100
AcDbSymbolTableRecord
100
AcDbLinetypeTableRecord
  2
BORDERTINY
 70
    0
  3
Border (.15x) __.__.__.__.__.__.__.__.__.__.__.
 72
   65
 73
    6
 40
6.6675
 49
1.905
 74
    0
 49
-0.9525
 74
    0
 49
1.905
 74
    0
 49
-0.9525
 74
    0
 49
0
 74
    0
 49
-0.9525
 74
    0
  0
LTYPE
  5
44
330
5
100
AcDbSymbolTableRecord
100
AcDbLinetypeTableRecord
  2
BORDER2
 70
    0
  3
Border (.5x) __.__.__.__.__.__.__.__.__.__.__.
 72
   65
 73
    6
 40
22.225
 49
6.35
 74
    0
 49
-3.175
 74
    0
 49
6.35
 74
    0
 49
-3.175
 74
    0
 49
0
 74
    0
 49
-3.175
 74
    0
  0
LTYPE
  5
45
330
5
100
AcDbSymbolTableRecord
100
AcDbLinetypeTableRecord
  2
BORDERX2
 70
    0
  3
Border (2x) ____  ____  .  ____  ____  .  ___
 72
   65
 73
    6
 40
88.89999999999999
 49
25.4
 74
    0
 49
-12.7
 74
    0
 49
25.4
 74
    0
 49
-12.7
 74
    0
 49
0
 74
    0
 49
-12.7
 74
    0
  0
LTYPE
  5
46
330
5
100
AcDbSymbolTableRecord
100
AcDbLinetypeTableRecord
  2
CENTER
 70
    0
  3
Center ____ _ ____ _ ____ _ ____ _ ____ _ ____
 72
   65
 73
    4
 40
50.8
 49
31.75
 74
    0
 49
-6.35
 74
    0
 49
6.35
 74
    0
 49
-6.35
 74
    0
  0
LTYPE
  5
47
330
5
100
AcDbSymbolTableRecord
100
AcDbLinetypeTableRecord
  2
CENTERTINY
 70
    0
  3
Center (.15x) ___ _ ___ _ ___ _ ___ _ ___ _ ___
 72
   65
 73
    4
 40
7.619999999999999
 49
4.7625
 74
    0
 49
-0.9525
 74
    0
 49
0.9525
 74
    0
 49
-0.9525
 74
    0
  0
LTYPE
  5
48
330
5
100
AcDbSymbolTableRecord
100
AcDbLinetypeTableRecord
  2
CENTER2
 70
    0
  3
Center (.5x) ___ _ ___ _ ___ _ ___ _ ___ _ ___
 72
   65
 73
    4
 40
28.575
 49
19.05
 74
    0
 49
-3.175
 74
    0
 49
3.175
 74
    0
 49
-3.175
 74
    0
  0
LTYPE
  5
49
330
5
100
AcDbSymbolTableRecord
100
AcDbLinetypeTableRecord
  2
CENTERX2
 70
    0
  3
Center (2x) ________  __  ________  __  _____
 72
   65
 73
    4
 40
101.6
 49
63.5
 74
    0
 49
-12.7
 74
    0
 49
12.7
 74
    0
 49
-12.7
 74
    0
  0
ENDTAB
  0
TABLE
  2
LAYER
  5
2
330
0
100
AcDbSymbolTable
 70
    1
  0
LAYER
  5
10
330
2
100
AcDbSymbolTableRecord
100
AcDbLayerTableRecord
  2
0
 70
    0
 62
    7
  6
CONTINUOUS
370
   -3
390
F
  0
LAYER
  5
4A
330
2
100
AcDbSymbolTableRecord
100
AcDbLayerTableRecord
  2
Layer 1
 70
    0
 62
    7
  6
CONTINUOUS
370
   -3
390
F
  0
ENDTAB
  0
TABLE
  2
STYLE
  5
3
330
0
100
AcDbSymbolTable
 70
    3
  0
STYLE
  5
4B
330
2
100
AcDbSymbolTableRecord
100
AcDbTextStyleTableRecord
  2
Standard
 70
    0
 40
0
 41
1
 50
0
 71
    0
 42
1
  3
txt
  4

  0
ENDTAB
  0
TABLE
  2
VIEW
  5
6
330
0
100
AcDbSymbolTable
 70
    0
  0
ENDTAB
  0
TABLE
  2
UCS
  5
7
330
0
100
AcDbSymbolTable
 70
    0
  0
ENDTAB
  0
TABLE
  2
APPID
  5
9
330
0
100
AcDbSymbolTable
 70
    1
  0
APPID
  5
12
330
9
100
AcDbSymbolTableRecord
100
AcDbRegAppTableRecord
  2
ACAD
 70
    0
  0
APPID
  5
4C
330
9
100
AcDbSymbolTableRecord
100
AcDbRegAppTableRecord
  2
LibreCad
 70
    0
  0
ENDTAB
  0
TABLE
  2
DIMSTYLE
  5
A
330
0
100
AcDbSymbolTable
 70
    1
100
AcDbDimStyleTable
 71
    1
  0
DIMSTYLE
105
4D
330
A
100
AcDbSymbolTableRecord
100
AcDbDimStyleTableRecord
  2
Standard
 70
    0
 40
1
 41
0.18
 42
0.0625
 43
0.38
 44
0.18
 45
0
 46
0
 47
0
 48
0
 49
1
140
0.18
141
0.09
142
0
143
25.4
144
1
145
0
146
1
147
0.09
148
0
 71
    0
 72
    0
 73
    1
 74
    1
 75
    0
 76
    0
 77
    0
 78
    0
 79
    0
170
    0
171
    2
172
    0
173
    0
174
    0
175
    0
176
    0
177
    0
178
    0
179
    0
271
    4
272
    4
273
    2
274
    2
275
    0
276
    0
277
    2
278
   46
279
    0
280
    0
281
    0
282
    0
283
    1
284
    0
285
    0
286
    0
288
    0
289
    3
340
Standard
341

371
   -2
372
   -2
  0
ENDTAB
  0
TABLE
  2
BLOCK_RECORD
  5
1
330
0
100
AcDbSymbolTable
 70
    2
  0
BLOCK_RECORD
  5
1F
330
1
100
AcDbSymbolTableRecord
100
AcDbBlockTableRecord
  2
*Model_Space
 70
    0
280
    1
281
    0
  0
BLOCK_RECORD
  5
1E
330
1
100
AcDbSymbolTableRecord
100
AcDbBlockTableRecord
  2
*Paper_Space
 70
    0
280
    1
281
    0
  0
BLOCK_RECORD
  5
4E
330
1
100
AcDbSymbolTableRecord
100
AcDbBlockTableRecord
  2
block 2
 70
    0
280
    1
281
    0
  0
ENDTAB
  0
ENDSEC
  0
SECTION
  2
BLOCKS
  0
BLOCK
  5
20
330
1F
100
AcDbEntity
  8
0
100
AcDbBlockBegin
  2
*Model_Space
 70
    0
 10
0
 20
0
 30
0
  3
*Model_Space
  1

  0
ENDBLK
  5
21
330
1F
100
AcDbEntity
  8
0
100
AcDbBlockEnd
  0
BLOCK
  5
1C
330
1B
100
AcDbEntity
  8
0
100
AcDbBlockBegin
  2
*Paper_Space
 70
    0
 10
0
 20
0
 30
0
  3
*Paper_Space
  1

  0
ENDBLK
  5
1D
330
1F
100
AcDbEntity
  8
0
100
AcDbBlockEnd
  0
BLOCK
  5
4F
330
4E
100
AcDbEntity
  8
0
100
AcDbBlockBegin
  2
block 2
 70
    0
 10
0
 20
0
  3
block 2
  1

  0
SPLINE
  5
51
100
AcDbEntity
  8
Layer 1
  6
ByLayer
 62
  256
370
    0
100
AcDbSpline
210
0
220
0
230
0
 70
   11
 71
    3
 72
   59
 73
   55
 74
    0
 42
1e-07
 43
1e-07
 40
0
 40
0
 40
0
 40
0
 40
1
 40
1
 40
1
 40
2
 40
2
 40
2
 40
3
 40
3
 40
3
 40
4
 40
4
 40
4
 40
5
 40
5
 40
5
 40
6
 40
6
 40
6
 40
7
 40
7
 40
7
 40
8
 40
8
 40
8
 40
9
 40
9
 40
9
 40
10
 40
10
 40
10
 40
11
 40
11
 40
11
 40
12
 40
12
 40
12
 40
13
 40
13
 40
13
 40
14
 40
14
 40
14
 40
15
 40
15
 40
15
 40
16
 40
16
 40
16
 40
17
 40
17
 40
17
 40
18
 40
18
 40
18
 40
18
 10
4.760196091203614
 20
-28.14076723878729
 30
0
 10
5.044696382744903
 20
-28.09623937964044
 30
0
 10
5.265160961954109
 20
-27.96849093267802
 30
0
 10
5.421632892524801
 20
-27.75784487560177
 30
0
 10
5.578083291248708
 20
-27.54717728667875
 30
0
 10
5.634281411351846
 20
-27.30214487029035
 30
0
 10
5.590356443914911
 20
-27.02300600859798
 30
0
 10
5.562881807420044
 20
-26.84829660380225
 30
0
 10
5.498846095087963
 20
-26.69873639604884
 30
0
 10
5.397990924757273
 20
-26.57436844903132
 30
0
 10
5.297264945507282
 20
-26.45002203386058
 30
0
 10
5.170140922101562
 20
-26.36311950024516
 30
0
 10
5.016446599765854
 20
-26.31368238003182
 30
0
 10
5.016446599765854
 20
-26.31368238003182
 30
0
 10
5.01136508392511
 20
-26.28112622769621
 30
0
 10
5.01136508392511
 20
-26.28112622769621
 30
0
 10
5.403050908751234
 20
-26.22923447694964
 30
0
 10
5.71226976039919
 20
-26.25317789057212
 30
0
 10
5.93904317071576
 20
-26.35297800041046
 30
0
 10
6.165816581032331
 20
-26.45247666439383
 30
0
 10
6.297849865504531
 20
-26.62167391641316
 30
0
 10
6.335315278906623
 20
-26.86026831061349
 30
0
 10
6.357902186181792
 20
-27.00367041018702
 30
0
 10
6.339621648263186
 20
-27.13417493353764
 30
0
 10
6.280193751142625
 20
-27.25117898895543
 30
0
 10
6.220787385868848
 20
-27.36786006667149
 30
0
 10
6.128501890557718
 20
-27.4562913614085
 30
0
 10
6.003229605975322
 20
-27.51647287316646
 30
0
 10
6.003229605975322
 20
-27.51647287316646
 30
0
 10
6.062334525394139
 20
-27.89233279060721
 30
0
 10
6.062334525394139
 20
-27.89233279060721
 30
0
 10
6.285425989910848
 20
-27.81003807220331
 30
0
 10
6.450790573202841
 20
-27.67186821139801
 30
0
 10
6.558557466350813
 20
-27.47810312219949
 30
0
 10
6.666195168418087
 20
-27.28401505529922
 30
0
 10
6.700430804802757
 20
-27.0623231608234
 30
0
 10
6.661135184424126
 20
-26.81298437507844
 30
0
 10
6.604786341393509
 20
-26.4540054255154
 30
0
 10
6.422842236078751
 20
-26.19790563988064
 30
0
 10
6.115604314334814
 20
-26.04498646402912
 30
0
 10
5.80823720151018
 20
-25.89206728817759
 30
0
 10
5.402577208122012
 20
-25.85520476648542
 30
0
 10
4.898516674936396
 20
-25.93444196264617
 30
0
 10
4.399989826373961
 20
-26.01273175754847
 30
0
 10
4.044542099683309
 20
-26.17609387908966
 30
0
 10
3.832216558558005
 20
-26.4248297731247
 30
0
 10
3.620020208513398
 20
-26.67326422130478
 30
0
 10
3.538802082448633
 20
-26.9554606052403
 30
0
 10
3.588389925589448
 20
-27.2711390109231
 30
0
 10
3.635673861124502
 20
-27.57206810155968
 30
0
 10
3.768955992710105
 20
-27.80390149587021
 30
0
 10
3.988214788499474
 20
-27.96633774799974
 30
0
 10
4.20745205244206
 20
-28.12909697783101
 30
0
 10
4.464779153343441
 20
-28.18712530491069
 30
0
 10
4.760196091203614
 20
-28.14076723878729
 30
0
  0
SPLINE
  5
52
100
AcDbEntity
  8
Layer 1
  6
ByLayer
 62
  256
370
    0
100
AcDbSpline
210
0
220
0
230
0
 70
   11
 71
    3
 72
   38
 73
   34
 74
    0
 42
1e-07
 43
1e-07
 40
0
 40
0
 40
0
 40
0
 40
1
 40
1
 40
1
 40
2
 40
2
 40
2
 40
3
 40
3
 40
3
 40
4
 40
4
 40
4
 40
5
 40
5
 40
5
 40
6
 40
6
 40
6
 40
7
 40
7
 40
7
 40
8
 40
8
 40
8
 40
9
 40
9
 40
9
 40
10
 40
10
 40
10
 40
11
 40
11
 40
11
 40
11
 10
7.416838410960461
 20
-30.04799363126838
 30
0
 10
7.416838410960461
 20
-30.04799363126838
 30
0
 10
7.299382186760225
 20
-29.67736595259585
 30
0
 10
7.299382186760225
 20
-29.67736595259585
 30
0
 10
7.299382186760225
 20
-29.67736595259585
 30
0
 10
4.3976859187682
 20
-29.21152444744973
 30
0
 10
4.3976859187682
 20
-29.21152444744973
 30
0
 10
4.3976859187682
 20
-29.21152444744973
 30
0
 10
4.070186529201638
 20
-29.31532948078966
 30
0
 10
4.070186529201638
 20
-29.31532948078966
 30
0
 10
4.070186529201638
 20
-29.31532948078966
 30
0
 10
4.663927204237664
 20
-31.1881695139586
 30
0
 10
4.663927204237664
 20
-31.1881695139586
 30
0
 10
4.663927204237664
 20
-31.1881695139586
 30
0
 10
4.979756332847943
 20
-31.08804642641853
 30
0
 10
4.979756332847943
 20
-31.08804642641853
 30
0
 10
4.979756332847943
 20
-31.08804642641853
 30
0
 10
4.499789936212292
 20
-29.57418534281262
 30
0
 10
4.499789936212292
 20
-29.57418534281262
 30
0
 10
4.499789936212292
 20
-29.57418534281262
 30
0
 10
4.52711384977968
 20
-29.56527115824453
 30
0
 10
4.52711384977968
 20
-29.56527115824453
 30
0
 10
4.805477564987867
 20
-29.61257662562637
 30
0
 10
5.054213459022905
 20
-29.65402543068328
 30
0
 10
5.273622977739755
 20
-29.69026352881875
 30
0
 10
5.49301096460982
 20
-29.72650162695423
 30
0
 10
5.725791760178796
 20
-29.76517282377615
 30
0
 10
5.972051491833811
 20
-29.80664316067985
 30
0
 10
6.218182032408128
 20
-29.84809196573676
 30
0
 10
6.4510920190578
 20
-29.88678469440547
 30
0
 10
6.670501537774649
 20
-29.92302279254095
 30
0
 10
6.889889524644715
 20
-29.95926089067642
 30
0
 10
7.138625418679753
 20
-30.00101114158829
 30
0
 10
7.416838410960461
 20
-30.04799363126838
 30
0
  0
SPLINE
  5
53
100
AcDbEntity
  8
Layer 1
  6
ByLayer
 62
  256
370
    0
100
AcDbSpline
210
0
220
0
230
0
 70
   11
 71
    3
 72
   65
 73
   61
 74
    0
 42
1e-07
 43
1e-07
 40
0
 40
0
 40
0
 40
0
 40
1
 40
1
 40
1
 40
2
 40
2
 40
2
 40
3
 40
3
 40
3
 40
4
 40
4
 40
4
 40
5
 40
5
 40
5
 40
6
 40
6
 40
6
 40
7
 40
7
 40
7
 40
8
 40
8
 40
8
 40
9
 40
9
 40
9
 40
10
 40
10
 40
10
 40
11
 40
11
 40
11
 40
12
 40
12
 40
12
 40
13
 40
13
 40
13
 40
14
 40
14
 40
14
 40
15
 40
15
 40
15
 40
16
 40
16
 40
16
 40
17
 40
17
 40
17
 40
18
 40
18
 40
18
 40
19
 40
19
 40
19
 40
20
 40
20
 40
20
 40
20
 10
7.255005050540849
 20
-34.51837106477536
 30
0
 10
7.103614635810902
 20
-34.60712533721411
 30
0
 10
6.954226682831756
 20
-34.63199462024825
 30
0
 10
6.807142637458371
 20
-34.59269899986962
 30
0
 10
6.660058592084986
 20
-34.55338184764421
 30
0
 10
6.541375052618129
 20
-34.45696223775078
 30
0
 10
6.4510920190578
 20
-34.30311719248759
 30
0
 10
6.362187023691572
 20
-34.15172677775764
 30
0
 10
6.337468463584904
 20
-34.00679591706254
 30
0
 10
6.377087061665277
 20
-33.86830307855549
 30
0
 10
6.41655493681817
 20
-33.72981024004845
 30
0
 10
6.504361807998476
 20
-33.62049305393212
 30
0
 10
6.640400015972279
 20
-33.54065296606145
 30
0
 10
6.752796256178555
 20
-33.47463632382535
 30
0
 10
6.872707110912032
 20
-33.44393191031306
 30
0
 10
7.00028330310019
 20
-33.44853972552458
 30
0
 10
7.127881027135131
 20
-33.4531475407361
 30
0
 10
7.327631969739273
 20
-33.48538071536998
 30
0
 10
7.599708385686879
 20
-33.54526078127297
 30
0
 10
7.599708385686879
 20
-33.54526078127297
 30
0
 10
9.044947473595968
 20
-33.86093918695578
 30
0
 10
9.044947473595968
 20
-33.86093918695578
 30
0
 10
9.044947473595968
 20
-33.86093918695578
 30
0
 10
9.264809161095256
 20
-33.73196342472674
 30
0
 10
9.264809161095256
 20
-33.73196342472674
 30
0
 10
9.264809161095256
 20
-33.73196342472674
 30
0
 10
8.292000323447834
 20
-32.07467870970051
 30
0
 10
8.292000323447834
 20
-32.07467870970051
 30
0
 10
8.292000323447834
 20
-32.07467870970051
 30
0
 10
8.004571700744084
 20
-32.24357451586489
 30
0
 10
8.004571700744084
 20
-32.24357451586489
 30
0
 10
8.004571700744084
 20
-32.24357451586489
 30
0
 10
8.716995915246967
 20
-33.45713093239092
 30
0
 10
8.716995915246967
 20
-33.45713093239092
 30
0
 10
8.716995915246967
 20
-33.45713093239092
 30
0
 10
8.688573877493656
 20
-33.47371045441369
 30
0
 10
8.688573877493656
 20
-33.47371045441369
 30
0
 10
8.688573877493656
 20
-33.47371045441369
 30
0
 10
7.745565115793644
 20
-33.24493458234632
 30
0
 10
7.745565115793644
 20
-33.24493458234632
 30
0
 10
7.371233959474466
 20
-33.15467308063278
 30
0
 10
7.09256879841132
 20
-33.10859492851755
 30
0
 10
6.909548100757422
 20
-33.10706616739598
 30
0
 10
6.726527403103525
 20
-33.1055374062744
 30
0
 10
6.561636520440755
 20
-33.14791208074297
 30
0
 10
6.415004643849808
 20
-33.23388874494674
 30
0
 10
6.206813217306804
 20
-33.35610350728597
 30
0
 10
6.079538470973605
 20
-33.53266465090503
 30
0
 10
6.03300815007595
 20
-33.76359370765068
 30
0
 10
5.986477829178294
 20
-33.99450123254955
 30
0
 10
6.028701780719388
 20
-34.22174834349534
 30
0
 10
6.159981450554189
 20
-34.44529197679449
 30
0
 10
6.303684995982673
 20
-34.69034592502967
 30
0
 10
6.495318432349695
 20
-34.84847580780264
 30
0
 10
6.734666441187428
 20
-34.92034911236367
 30
0
 10
6.974035981871943
 20
-34.99220088507791
 30
0
 10
7.207871837933276
 20
-34.96087204800892
 30
0
 10
7.436174009371426
 20
-34.8269870247134
 30
0
 10
7.436174009371426
 20
-34.8269870247134
 30
0
 10
7.255005050540849
 20
-34.51837106477536
 30
0
 10
7.255005050540849
 20
-34.51837106477536
 30
0
  0
SPLINE
  5
54
100
AcDbEntity
  8
Layer 1
  6
ByLayer
 62
  256
370
    0
100
AcDbSpline
210
0
220
0
230
0
 70
   11
 71
    3
 72
   38
 73
   34
 74
    0
 42
1e-07
 43
1e-07
 40
0
 40
0
 40
0
 40
0
 40
1
 40
1
 40
1
 40
2
 40
2
 40
2
 40
3
 40
3
 40
3
 40
4
 40
4
 40
4
 40
5
 40
5
 40
5
 40
6
 40
6
 40
6
 40
7
 40
7
 40
7
 40
8
 40
8
 40
8
 40
9
 40
9
 40
9
 40
10
 40
10
 40
10
 40
11
 40
11
 40
11
 40
11
 10
7.60308888563178
 20
-35.93613551618958
 30
0
 10
7.60308888563178
 20
-35.93613551618958
 30
0
 10
7.335318839040736
 20
-36.15138938847735
 30
0
 10
7.335318839040736
 20
-36.15138938847735
 30
0
 10
7.335318839040736
 20
-36.15138938847735
 30
0
 10
8.565906946371978
 20
-37.68277739536446
 30
0
 10
8.565906946371978
 20
-37.68277739536446
 30
0
 10
8.565906946371978
 20
-37.68277739536446
 30
0
 10
8.824159916685019
 20
-37.47551183823312
 30
0
 10
8.824159916685019
 20
-37.47551183823312
 30
0
 10
8.824159916685019
 20
-37.47551183823312
 30
0
 10
7.82923787239165
 20
-36.23738758452789
 30
0
 10
7.82923787239165
 20
-36.23738758452789
 30
0
 10
7.82923787239165
 20
-36.23738758452789
 30
0
 10
7.851652524892556
 20
-36.21925776953677
 30
0
 10
7.851652524892556
 20
-36.21925776953677
 30
0
 10
8.128164501277421
 20
-36.16245675772371
 30
0
 10
8.3752209112634
 20
-36.11146934454202
 30
0
 10
8.592778691156926
 20
-36.06573570197532
 30
0
 10
8.810487193977934
 20
-36.02028197341681
 30
0
 10
9.041566973651067
 20
-35.97237361432505
 30
0
 10
9.285996498329544
 20
-35.9217091788451
 30
0
 10
9.530576745935498
 20
-35.8713461892201
 30
0
 10
9.761656525608631
 20
-35.82343783012834
 30
0
 10
9.979365028429639
 20
-35.77800563341661
 30
0
 10
10.19692280832317
 20
-35.73225045900314
 30
0
 10
10.44397921830914
 20
-35.68126304582144
 30
0
 10
10.72034047176653
 20
-35.62446203400838
 30
0
 10
10.72034047176653
 20
-35.62446203400838
 30
0
 10
10.47683681649971
 20
-35.32137975869353
 30
0
 10
10.47683681649971
 20
-35.32137975869353
 30
0
 10
10.47683681649971
 20
-35.32137975869353
 30
0
 10
7.60308888563178
 20
-35.93613551618958
 30
0
 10
7.60308888563178
 20
-35.93613551618958
 30
0
  0
SPLINE
  5
55
100
AcDbEntity
  8
Layer 1
  6
ByLayer
 62
  256
370
    0
100
AcDbSpline
210
0
220
0
230
0
 70
   11
 71
    3
 72
   95
 73
   91
 74
    0
 42
1e-07
 43
1e-07
 40
0
 40
0
 40
0
 40
0
 40
1
 40
1
 40
1
 40
2
 40
2
 40
2
 40
3
 40
3
 40
3
 40
4
 40
4
 40
4
 40
5
 40
5
 40
5
 40
6
 40
6
 40
6
 40
7
 40
7
 40
7
 40
8
 40
8
 40
8
 40
9
 40
9
 40
9
 40
10
 40
10
 40
10
 40
11
 40
11
 40
11
 40
12
 40
12
 40
12
 40
13
 40
13
 40
13
 40
14
 40
14
 40
14
 40
15
 40
15
 40
15
 40
16
 40
16
 40
16
 40
17
 40
17
 40
17
 40
18
 40
18
 40
18
 40
19
 40
19
 40
19
 40
20
 40
20
 40
20
 40
21
 40
21
 40
21
 40
22
 40
22
 40
22
 40
23
 40
23
 40
23
 40
24
 40
24
 40
24
 40
25
 40
25
 40
25
 40
26
 40
26
 40
26
 40
27
 40
27
 40
27
 40
28
 40
28
 40
28
 40
29
 40
29
 40
29
 40
30
 40
30
 40
30
 40
30
 10
13.40462968279251
 20
-39.08088327066598
 30
0
 10
13.55063713582675
 20
-38.87452205109951
 30
0
 10
13.59609086438527
 20
-38.65250717892194
 30
0
 10
13.54112005954875
 20
-38.41453720827831
 30
0
 10
13.48614925471223
 20
-38.17686868348964
 30
0
 10
13.34044324753295
 20
-37.96437088759007
 30
0
 10
13.10385131508341
 20
-37.77704382057961
 30
0
 10
12.87277153541028
 20
-37.59402312292571
 30
0
 10
12.62681324961022
 20
-37.50529038233375
 30
0
 10
12.36625637169142
 20
-37.51050108925519
 30
0
 10
12.10569949377262
 20
-37.51573332802342
 30
0
 10
11.89843393664128
 20
-37.6158348837167
 30
0
 10
11.74428744552313
 20
-37.81052584232688
 30
0
 10
11.61561312914905
 20
-37.97296209445641
 30
0
 10
11.55803697085181
 20
-38.14000616179747
 30
0
 10
11.57108527000219
 20
-38.31228246790674
 30
0
 10
11.58428429208006
 20
-38.48453724216923
 30
0
 10
11.656760488351
 20
-38.64238721093403
 30
0
 10
11.78864304989572
 20
-38.78516488695085
 30
0
 10
11.78864304989572
 20
-38.78516488695085
 30
0
 10
11.76808013621814
 20
-38.81096003939665
 30
0
 10
11.76808013621814
 20
-38.81096003939665
 30
0
 10
11.62159898255467
 20
-38.75077852763869
 30
0
 10
11.47313689898719
 20
-38.73572776673751
 30
0
 10
11.3226723536689
 20
-38.76520486498318
 30
0
 10
11.17235853127809
 20
-38.79500494093059
 30
0
 10
11.04138030729825
 20
-38.87912986631103
 30
0
 10
10.92960849064868
 20
-39.01824712837478
 30
0
 10
10.79910396729805
 20
-39.18068338050431
 30
0
 10
10.74796583118888
 20
-39.37382404614613
 30
0
 10
10.77638786894219
 20
-39.59769065714702
 30
0
 10
10.8049390977762
 20
-39.82123429044617
 30
0
 10
10.93406558293272
 20
-40.02421501006773
 30
0
 10
11.16421949319419
 20
-40.20661128416493
 30
0
 10
11.39973483330458
 20
-40.39301248176373
 30
0
 10
11.63557315111671
 20
-40.47838625425758
 30
0
 10
11.87201436063877
 20
-40.46271106979969
 30
0
 10
12.1084771020076
 20
-40.44675597133362
 30
0
 10
12.30913238217662
 20
-40.35033636144019
 30
0
 10
12.47404479668618
 20
-40.17315079426444
 30
0
 10
12.47404479668618
 20
-40.17315079426444
 30
0
 10
12.19182688090387
 20
-39.94958562911851
 30
0
 10
12.19182688090387
 20
-39.94958562911851
 30
0
 10
12.07607167259947
 20
-40.07119749974783
 30
0
 10
11.94739735622539
 20
-40.1326063267724
 30
0
 10
11.80599771840267
 20
-40.13353219618406
 30
0
 10
11.66459808057994
 20
-40.13415661974077
 30
0
 10
11.52395205739462
 20
-40.07918581490425
 30
0
 10
11.38408118069348
 20
-39.9686413135213
 30
0
 10
11.24328443458067
 20
-39.85717094272668
 30
0
 10
11.16421949319419
 20
-39.73157568044254
 30
0
 10
11.14701554761472
 20
-39.59185552666888
 30
0
 10
11.12981160203526
 20
-39.45243681875017
 30
0
 10
11.16421949319419
 20
-39.32806887173265
 30
0
 10
11.25019615739795
 20
-39.21967755502799
 30
0
 10
11.34568989787972
 20
-39.09931453151206
 30
0
 10
11.46667734495234
 20
-39.03420222684085
 30
0
 10
11.61345994447077
 20
-39.02438370470788
 30
0
 10
11.76024254398919
 20
-39.01456518257492
 30
0
 10
11.90088856717452
 20
-39.06307643337659
 30
0
 10
12.03537648217996
 20
-39.16963754310473
 30
0
 10
12.03537648217996
 20
-39.16963754310473
 30
0
 10
12.31113484392742
 20
-39.38794893763566
 30
0
 10
12.31113484392742
 20
-39.38794893763566
 30
0
 10
12.37669931738109
 20
-39.30505132752183
 30
0
 10
12.44226379083475
 20
-39.22245516326296
 30
0
 10
12.50780673244163
 20
-39.13953602130236
 30
0
 10
12.50780673244163
 20
-39.13953602130236
 30
0
 10
12.21917232631804
 20
-38.91076014923499
 30
0
 10
12.21917232631804
 20
-38.91076014923499
 30
0
 10
12.05565948184937
 20
-38.78148294115098
 30
0
 10
11.95768957898757
 20
-38.63993258040078
 30
0
 10
11.92530568142623
 20
-38.48669042684751
 30
0
 10
11.89290025201809
 20
-38.33316835928607
 30
0
 10
11.92974124186349
 20
-38.18914183615584
 30
0
 10
12.03630235159162
 20
-38.05495536700536
 30
0
 10
12.13933223844737
 20
-37.9247522895097
 30
0
 10
12.27166696877453
 20
-37.8581112237169
 30
0
 10
12.43334960626666
 20
-37.85505370147374
 30
0
 10
12.59503224375879
 20
-37.85167320152884
 30
0
 10
12.7528606806768
 20
-37.91123028973009
 30
0
 10
12.90655500301251
 20
-38.03284216035942
 30
0
 10
13.05609367891914
 20
-38.15137497689879
 30
0
 10
13.15068308183603
 20
-38.28526000019431
 30
0
 10
13.1904308709971
 20
-38.43479867610094
 30
0
 10
13.23035091493243
 20
-38.58466032970931
 30
0
 10
13.20810851720579
 20
-38.72560779874959
 30
0
 10
13.12396205997856
 20
-38.85856695263345
 30
0
 10
13.12396205997856
 20
-38.85856695263345
 30
0
 10
13.40462968279251
 20
-39.08088327066598
 30
0
 10
13.40462968279251
 20
-39.08088327066598
 30
0
  0
SPLINE
  5
56
100
AcDbEntity
  8
Layer 1
  6
ByLayer
 62
  256
370
    0
100
AcDbSpline
210
0
220
0
230
0
 70
   11
 71
    3
 72
   59
 73
   55
 74
    0
 42
1e-07
 43
1e-07
 40
0
 40
0
 40
0
 40
0
 40
1
 40
1
 40
1
 40
2
 40
2
 40
2
 40
3
 40
3
 40
3
 40
4
 40
4
 40
4
 40
5
 40
5
 40
5
 40
6
 40
6
 40
6
 40
7
 40
7
 40
7
 40
8
 40
8
 40
8
 40
9
 40
9
 40
9
 40
10
 40
10
 40
10
 40
11
 40
11
 40
11
 40
12
 40
12
 40
12
 40
13
 40
13
 40
13
 40
14
 40
14
 40
14
 40
15
 40
15
 40
15
 40
16
 40
16
 40
16
 40
17
 40
17
 40
17
 40
18
 40
18
 40
18
 40
18
 10
15.3608410267045
 20
-39.30104640402023
 30
0
 10
15.09567633357417
 20
-39.1515077281136
 30
0
 10
14.83113606400055
 20
-39.11251355358993
 30
0
 10
14.56704796320937
 20
-39.18406388044921
 30
0
 10
14.30313211719245
 20
-39.2556142073085
 30
0
 10
14.0979982128926
 20
-39.42112951352797
 30
0
 10
13.95184003693088
 20
-39.68028682140589
 30
0
 10
13.81026814433389
 20
-39.93117590011921
 30
0
 10
13.77357787741598
 20
-40.18327076225236
 30
0
 10
13.84174770433036
 20
-40.43661447149892
 30
0
 10
13.90976680831726
 20
-40.68995818074548
 30
0
 10
14.06699235352535
 20
-40.88617790047724
 30
0
 10
14.31310136225289
 20
-41.02497218483924
 30
0
 10
14.46709713044356
 20
-41.11187471845467
 30
0
 10
14.62432267565165
 20
-41.15424939292325
 30
0
 10
14.78430429724794
 20
-41.15239765409992
 30
0
 10
14.94445817361849
 20
-41.15086889297834
 30
0
 10
15.09154221899187
 20
-41.10481227270991
 30
0
 10
15.22557796521487
 20
-41.0151321308595
 30
0
 10
15.22557796521487
 20
-41.0151321308595
 30
0
 10
15.25427991697636
 20
-41.03141020702731
 30
0
 10
15.25427991697636
 20
-41.03141020702731
 30
0
 10
15.05007188208818
 20
-41.37932178734398
 30
0
 10
14.83789706389035
 20
-41.60839910526631
 30
0
 10
14.61741095283436
 20
-41.7186421607943
 30
0
 10
14.39692484177837
 20
-41.82888521632229
 30
0
 10
14.17921633895737
 20
-41.82335153169911
 30
0
 10
13.96411318959708
 20
-41.70206263877154
 30
0
 10
13.8326827968348
 20
-41.62805768137901
 30
0
 10
13.74041883337045
 20
-41.5334898103089
 30
0
 10
13.68712751258299
 20
-41.41833749371443
 30
0
 10
13.6340084465698
 20
-41.30318517711995
 30
0
 10
13.62832403901914
 20
-41.17789136069077
 30
0
 10
13.67009582177779
 20
-41.04247757627367
 30
0
 10
13.67009582177779
 20
-41.04247757627367
 30
0
 10
13.33844078578214
 20
-40.85547348696495
 30
0
 10
13.33844078578214
 20
-40.85547348696495
 30
0
 10
13.25877295268574
 20
-41.0750121967625
 30
0
 10
13.2590743985407
 20
-41.28660565509719
 30
0
 10
13.33951737812128
 20
-41.49049071228363
 30
0
 10
13.41998188954865
 20
-41.69407432361511
 30
0
 10
13.57781032646666
 20
-41.86204426036782
 30
0
 10
13.81319647549635
 20
-41.99502494609847
 30
0
 10
14.11903482719941
 20
-42.16727972036096
 30
0
 10
14.42995469474321
 20
-42.18202903540718
 30
0
 10
14.74608526920844
 20
-42.03922982754358
 30
0
 10
15.0620651207462
 20
-41.89612917382502
 30
0
 10
15.34548881994835
 20
-41.60258550663495
 30
0
 10
15.59605492095993
 20
-41.15823278457807
 30
0
 10
15.84141031505006
 20
-40.72311722479101
 30
0
 10
15.9336958103612
 20
-40.34450123096205
 30
0
 10
15.87304059797401
 20
-40.02206182538945
 30
0
 10
15.81238538558683
 20
-39.69994539751859
 30
0
 10
15.64165937244592
 20
-39.45949926449494
 30
0
 10
15.3608410267045
 20
-39.30104640402023
 30
0
  0
SPLINE
  5
57
100
AcDbEntity
  8
Layer 1
  6
ByLayer
 62
  256
370
    0
100
AcDbSpline
210
0
220
0
230
0
 70
   11
 71
    3
 72
   29
 73
   25
 74
    0
 42
1e-07
 43
1e-07
 40
0
 40
0
 40
0
 40
0
 40
1
 40
1
 40
1
 40
2
 40
2
 40
2
 40
3
 40
3
 40
3
 40
4
 40
4
 40
4
 40
5
 40
5
 40
5
 40
6
 40
6
 40
6
 40
7
 40
7
 40
7
 40
8
 40
8
 40
8
 40
8
 10
19.17085825122942
 20
-40.89722373787682
 30
0
 10
18.85042130740762
 20
-40.80571338904988
 30
0
 10
18.56499514645467
 20
-40.86436613968625
 30
0
 10
18.31457976837057
 20
-41.07378488149588
 30
0
 10
18.06416439028648
 20
-41.28322515515229
 30
0
 10
17.87132517049962
 20
-41.62467718143411
 30
0
 10
17.73591138608252
 20
-42.09818402403491
 30
0
 10
17.60047606981863
 20
-42.57169086663573
 30
0
 10
17.58374582486839
 20
-42.96505617551091
 30
0
 10
17.68584984231248
 20
-43.27888284237039
 30
0
 10
17.78795385975657
 20
-43.59273104107665
 30
0
 10
17.9979970251229
 20
-43.79508733714151
 30
0
 10
18.31565636070972
 20
-43.88597326241175
 30
0
 10
18.6348659892649
 20
-43.9774836112387
 30
0
 10
18.92089504192776
 20
-43.91730209948074
 30
0
 10
19.17408802824684
 20
-43.70573017299284
 30
0
 10
19.42710875979166
 20
-43.4944596923599
 30
0
 10
19.62102457191766
 20
-43.15328758008624
 30
0
 10
19.75568474169737
 20
-42.68255834572042
 30
0
 10
19.89157222674369
 20
-42.20782418785299
 30
0
 10
19.90845319462141
 20
-41.81445887897781
 30
0
 10
19.8064999001048
 20
-41.50278539679662
 30
0
 10
19.70439588266071
 20
-41.19109038276864
 30
0
 10
19.49252251031784
 20
-40.98935851026047
 30
0
 10
19.17085825122942
 20
-40.89722373787682
 30
0
  0
SPLINE
  5
58
100
AcDbEntity
  8
Layer 1
  6
ByLayer
 62
  256
370
    0
100
AcDbSpline
210
0
220
0
230
0
 70
   11
 71
    3
 72
   65
 73
   61
 74
    0
 42
1e-07
 43
1e-07
 40
0
 40
0
 40
0
 40
0
 40
1
 40
1
 40
1
 40
2
 40
2
 40
2
 40
3
 40
3
 40
3
 40
4
 40
4
 40
4
 40
5
 40
5
 40
5
 40
6
 40
6
 40
6
 40
7
 40
7
 40
7
 40
8
 40
8
 40
8
 40
9
 40
9
 40
9
 40
10
 40
10
 40
10
 40
11
 40
11
 40
11
 40
12
 40
12
 40
12
 40
13
 40
13
 40
13
 40
14
 40
14
 40
14
 40
15
 40
15
 40
15
 40
16
 40
16
 40
16
 40
17
 40
17
 40
17
 40
18
 40
18
 40
18
 40
19
 40
19
 40
19
 40
20
 40
20
 40
20
 40
20
 10
20.78299068355208
 20
-41.71373289972782
 30
0
 10
20.78299068355208
 20
-41.71373289972782
 30
0
 10
22.17926635187706
 20
-41.88906672808025
 30
0
 10
22.17926635187706
 20
-41.88906672808025
 30
0
 10
22.17926635187706
 20
-41.88906672808025
 30
0
 10
22.17526142837546
 20
-41.92162288041586
 30
0
 10
22.17526142837546
 20
-41.92162288041586
 30
0
 10
22.17526142837546
 20
-41.92162288041586
 30
0
 10
21.41880458720172
 20
-42.52963916986889
 30
0
 10
21.41880458720172
 20
-42.52963916986889
 30
0
 10
21.11893055705751
 20
-42.77129108631239
 30
0
 10
20.91259086933783
 20
-42.96413030609925
 30
0
 10
20.79974246034911
 20
-43.10815682922947
 30
0
 10
20.68704477428788
 20
-43.2521833523597
 30
0
 10
20.61995153971263
 20
-43.40878447401109
 30
0
 10
20.59874267063157
 20
-43.57768028017546
 30
0
 10
20.56881340360346
 20
-43.81720054378746
 30
0
 10
20.63099737711222
 20
-44.02569341618542
 30
0
 10
20.78561756885959
 20
-44.20348187507109
 30
0
 10
20.94036695168765
 20
-44.38099041994859
 30
0
 10
21.14627600247168
 20
-44.48600123670836
 30
0
 10
21.40343084859879
 20
-44.51823441134223
 30
0
 10
21.68517506375188
 20
-44.55354664006605
 30
0
 10
21.92745140375208
 20
-44.49827438937456
 30
0
 10
22.13028140044616
 20
-44.3524176592678
 30
0
 10
22.33311139714025
 20
-44.20656092916104
 30
0
 10
22.45101979012292
 20
-44.00205144841789
 30
0
 10
22.48402811124097
 20
-43.73949210874829
 30
0
 10
22.48402811124097
 20
-43.73949210874829
 30
0
 10
22.12890336225206
 20
-43.69498578144822
 30
0
 10
22.12890336225206
 20
-43.69498578144822
 30
0
 10
22.1069408785336
 20
-43.86909229453403
 30
0
 10
22.03571352937605
 20
-44.00265434012781
 30
0
 10
21.91487680523092
 20
-44.09509055836642
 30
0
 10
21.79404008108578
 20
-44.18782822245999
 30
0
 10
21.64510429688907
 20
-44.2231404511838
 30
0
 10
21.46824170741506
 20
-44.20102724453785
 30
0
 10
21.29396293955498
 20
-44.17893556973869
 30
0
 10
21.16408283976106
 20
-44.1101413192676
 30
0
 10
21.07840762141226
 20
-43.99436457911643
 30
0
 10
20.99273240306345
 20
-43.87860937081204
 30
0
 10
20.9597240819454
 20
-43.74226971698327
 30
0
 10
20.97936112621132
 20
-43.58597004118684
 30
0
 10
20.99548847945165
 20
-43.45669283310284
 30
0
 10
21.04432270795506
 20
-43.34276783177499
 30
0
 10
21.12584227987479
 20
-43.24449648305824
 30
0
 10
21.2073833836413
 20
-43.14622513434148
 30
0
 10
21.35461815194216
 20
-43.00743084997948
 30
0
 10
21.56786956247913
 20
-42.82841507582719
 30
0
 10
21.56786956247913
 20
-42.82841507582719
 30
0
 10
22.699454238303
 20
-41.87556626014743
 30
0
 10
22.699454238303
 20
-41.87556626014743
 30
0
 10
22.699454238303
 20
-41.87556626014743
 30
0
 10
22.73123524415443
 20
-41.62222255090087
 30
0
 10
22.73123524415443
 20
-41.62222255090087
 30
0
 10
22.73123524415443
 20
-41.62222255090087
 30
0
 10
20.82461174338326
 20
-41.38302526499061
 30
0
 10
20.82461174338326
 20
-41.38302526499061
 30
0
 10
20.82461174338326
 20
-41.38302526499061
 30
0
 10
20.78299068355208
 20
-41.71373289972782
 30
0
 10
20.78299068355208
 20
-41.71373289972782
 30
0
  0
SPLINE
  5
59
100
AcDbEntity
  8
Layer 1
  6
ByLayer
 62
  256
370
    0
100
AcDbSpline
210
0
220
0
230
0
 70
   11
 71
    3
 72
   95
 73
   91
 74
    0
 42
1e-07
 43
1e-07
 40
0
 40
0
 40
0
 40
0
 40
1
 40
1
 40
1
 40
2
 40
2
 40
2
 40
3
 40
3
 40
3
 40
4
 40
4
 40
4
 40
5
 40
5
 40
5
 40
6
 40
6
 40
6
 40
7
 40
7
 40
7
 40
8
 40
8
 40
8
 40
9
 40
9
 40
9
 40
10
 40
10
 40
10
 40
11
 40
11
 40
11
 40
12
 40
12
 40
12
 40
13
 40
13
 40
13
 40
14
 40
14
 40
14
 40
15
 40
15
 40
15
 40
16
 40
16
 40
16
 40
17
 40
17
 40
17
 40
18
 40
18
 40
18
 40
19
 40
19
 40
19
 40
20
 40
20
 40
20
 40
21
 40
21
 40
21
 40
22
 40
22
 40
22
 40
23
 40
23
 40
23
 40
24
 40
24
 40
24
 40
25
 40
25
 40
25
 40
26
 40
26
 40
26
 40
27
 40
27
 40
27
 40
28
 40
28
 40
28
 40
29
 40
29
 40
29
 40
30
 40
30
 40
30
 40
30
 10
26.52895778416637
 20
-44.07605640581041
 30
0
 10
26.42825333676316
 20
-44.17523209209205
 30
0
 10
26.28913607469942
 20
-44.23388484272842
 30
0
 10
26.1116490616687
 20
-44.25201465771955
 30
0
 10
25.93293473337137
 20
-44.27042438671885
 30
0
 10
25.78860676438618
 20
-44.23543513569678
 30
0
 10
25.67898813241489
 20
-44.1476067326697
 30
0
 10
25.56934796859681
 20
-44.05947688378765
 30
0
 10
25.50763769571727
 20
-43.94647775187146
 30
0
 10
25.49351280422775
 20
-43.80858780507433
 30
0
 10
25.47785915161665
 20
-43.65597007507776
 30
0
 10
25.51930795667356
 20
-43.52486266001723
 30
0
 10
25.61757930539031
 20
-43.41554547390089
 30
0
 10
25.71613056811524
 20
-43.30622828778456
 30
0
 10
25.85064001496746
 20
-43.2426662760817
 30
0
 10
26.02106458225342
 20
-43.22516088464727
 30
0
 10
26.02106458225342
 20
-43.22516088464727
 30
0
 10
26.37112934724836
 20
-43.18952567822172
 30
0
 10
26.37112934724836
 20
-43.18952567822172
 30
0
 10
26.36038495570374
 20
-43.08421341560699
 30
0
 10
26.34964056415912
 20
-42.97918106700043
 30
0
 10
26.3388961726145
 20
-42.87417025024066
 30
0
 10
26.3388961726145
 20
-42.87417025024066
 30
0
 10
25.97255333145174
 20
-42.91163566364276
 30
0
 10
25.97255333145174
 20
-42.91163566364276
 30
0
 10
25.76496479661866
 20
-42.93282300087704
 30
0
 10
25.59606899045428
 20
-42.89996540268647
 30
0
 10
25.46586591295862
 20
-42.81276142321608
 30
0
 10
25.33568436730974
 20
-42.72523446604395
 30
0
 10
25.26167940991722
 20
-42.59625870381491
 30
0
 10
25.24447546433775
 20
-42.42583413652896
 30
0
 10
25.22759449646003
 20
-42.26064180801123
 30
0
 10
25.27580430140674
 20
-42.12059867653583
 30
0
 10
25.38940632503286
 20
-42.00544635994135
 30
0
 10
25.50333132636071
 20
-41.89061702104861
 30
0
 10
25.65749934932564
 20
-41.82305008584415
 30
0
 10
25.85279319964575
 20
-41.80309006387649
 30
0
 10
26.04255336534266
 20
-41.78375446546552
 30
0
 10
26.20378383405235
 20
-41.81353300956615
 30
0
 10
26.33674298793622
 20
-41.89307165158186
 30
0
 10
26.46940069596512
 20
-41.97258876175078
 30
0
 10
26.55199686022398
 20
-42.08929137131361
 30
0
 10
26.58455301255959
 20
-42.2431364165768
 30
0
 10
26.58455301255959
 20
-42.2431364165768
 30
0
 10
26.94045290803268
 20
-42.20659687258637
 30
0
 10
26.94045290803268
 20
-42.20659687258637
 30
0
 10
26.90113575580727
 20
-41.95693510913967
 30
0
 10
26.77892099346803
 20
-41.76624907403109
 30
0
 10
26.57378708916819
 20
-41.63419425771211
 30
0
 10
26.36867471671512
 20
-41.50216097323991
 30
0
 10
26.11595543102527
 20
-41.45149653775996
 30
0
 10
25.81562923209861
 20
-41.48220095127225
 30
0
 10
25.5223870107635
 20
-41.51230247307462
 30
0
 10
25.28409406241813
 20
-41.62006936622259
 30
0
 10
25.10137481061919
 20
-41.80554469440973
 30
0
 10
24.91835411296529
 20
-41.99102002259686
 30
0
 10
24.83943989450629
 20
-42.20719976429629
 30
0
 10
24.86463215524218
 20
-42.45440689720975
 30
0
 10
24.88581949247646
 20
-42.66044513907448
 30
0
 10
24.96105176513561
 20
-42.82042676067076
 30
0
 10
25.09063041907456
 20
-42.93465320785358
 30
0
 10
25.22020907301352
 20
-43.04890118688318
 30
0
 10
25.38204243343313
 20
-43.11153732917438
 30
0
 10
25.57610896848661
 20
-43.12198027486404
 30
0
 10
25.57610896848661
 20
-43.12198027486404
 30
0
 10
25.57948946843152
 20
-43.15453642719965
 30
0
 10
25.57948946843152
 20
-43.15453642719965
 30
0
 10
25.43240542305813
 20
-43.21379206954595
 30
0
 10
25.31540136764033
 20
-43.30652973363951
 30
0
 10
25.22849883402491
 20
-43.43242644177862
 30
0
 10
25.14129485455452
 20
-43.55864612761945
 30
0
 10
25.10628407168567
 20
-43.71033798820437
 30
0
 10
25.12318657141018
 20
-43.88782500123508
 30
0
 10
25.1428236156761
 20
-44.09539200422138
 30
0
 10
25.24109496439285
 20
-44.26952004915398
 30
0
 10
25.41735466215695
 20
-44.41014454049252
 30
0
 10
25.593915805776
 20
-44.55048911782288
 30
0
 10
25.8279239166116
 20
-44.60576136851436
 30
0
 10
26.11993882268009
 20
-44.57596129256695
 30
0
 10
26.41871472863838
 20
-44.54525687905466
 30
0
 10
26.64749060070575
 20
-44.44209780111821
 30
0
 10
26.80594346118046
 20
-44.26581657150733
 30
0
 10
26.96439632165517
 20
-44.08955687374324
 30
0
 10
27.04085590958093
 20
-43.88043957778857
 30
0
 10
27.03532222495775
 20
-43.63846468364333
 30
0
 10
27.03532222495775
 20
-43.63846468364333
 30
0
 10
26.67729067665316
 20
-43.67502575948055
 30
0
 10
26.67729067665316
 20
-43.67502575948055
 30
0
 10
26.6791208836297
 20
-43.84299569623327
 30
0
 10
26.62998520927133
 20
-43.97688071952879
 30
0
 10
26.52895778416637
 20
-44.07605640581041
 30
0
  0
SPLINE
  5
5A
100
AcDbEntity
  8
Layer 1
  6
ByLayer
 62
  256
370
    0
100
AcDbSpline
210
0
220
0
230
0
 70
   11
 71
    3
 72
   38
 73
   34
 74
    0
 42
1e-07
 43
1e-07
 40
0
 40
0
 40
0
 40
0
 40
1
 40
1
 40
1
 40
2
 40
2
 40
2
 40
3
 40
3
 40
3
 40
4
 40
4
 40
4
 40
5
 40
5
 40
5
 40
6
 40
6
 40
6
 40
7
 40
7
 40
7
 40
8
 40
8
 40
8
 40
9
 40
9
 40
9
 40
10
 40
10
 40
10
 40
11
 40
11
 40
11
 40
11
 10
28.51511992695325
 20
-43.78772344554179
 30
0
 10
28.51511992695325
 20
-43.78772344554179
 30
0
 10
28.50805748120849
 20
-43.7597751084177
 30
0
 10
28.50805748120849
 20
-43.7597751084177
 30
0
 10
28.57039217764473
 20
-43.48464117022693
 30
0
 10
28.62566442833621
 20
-43.23835990672514
 30
0
 10
28.67387423328292
 20
-43.02125429561405
 30
0
 10
28.72208403822964
 20
-42.80414868450296
 30
0
 10
28.77367434312125
 20
-42.573844051314
 30
0
 10
28.82864514795777
 20
-42.33034039604719
 30
0
 10
28.88329297509254
 20
-42.08683674078038
 30
0
 10
28.93488327998416
 20
-41.85653210759143
 30
0
 10
28.98309308493088
 20
-41.63942649648034
 30
0
 10
29.03162586757933
 20
-41.42232088536925
 30
0
 10
29.08689811827081
 20
-41.1763625995692
 30
0
 10
29.14890983700531
 20
-40.90090568367668
 30
0
 10
29.14890983700531
 20
-40.90090568367668
 30
0
 10
28.77244702785463
 20
-40.99794971712682
 30
0
 10
28.77244702785463
 20
-40.99794971712682
 30
0
 10
28.77244702785463
 20
-40.99794971712682
 30
0
 10
28.14754977052388
 20
-43.86939374038899
 30
0
 10
28.14754977052388
 20
-43.86939374038899
 30
0
 10
28.14754977052388
 20
-43.86939374038899
 30
0
 10
28.23322498887268
 20
-44.20225455980447
 30
0
 10
28.23322498887268
 20
-44.20225455980447
 30
0
 10
28.23322498887268
 20
-44.20225455980447
 30
0
 10
30.13586509798904
 20
-43.71246964103586
 30
0
 10
30.13586509798904
 20
-43.71246964103586
 30
0
 10
30.13586509798904
 20
-43.71246964103586
 30
0
 10
30.05324740188339
 20
-43.39190350613336
 30
0
 10
30.05324740188339
 20
-43.39190350613336
 30
0
 10
30.05324740188339
 20
-43.39190350613336
 30
0
 10
28.51511992695325
 20
-43.78772344554179
 30
0
 10
28.51511992695325
 20
-43.78772344554179
 30
0
  0
SPLINE
  5
5B
100
AcDbEntity
  8
Layer 1
  6
ByLayer
 62
  256
370
    0
100
AcDbSpline
210
0
220
0
230
0
 70
   11
 71
    3
 72
   56
 73
   52
 74
    0
 42
1e-07
 43
1e-07
 40
0
 40
0
 40
0
 40
0
 40
1
 40
1
 40
1
 40
2
 40
2
 40
2
 40
3
 40
3
 40
3
 40
4
 40
4
 40
4
 40
5
 40
5
 40
5
 40
6
 40
6
 40
6
 40
7
 40
7
 40
7
 40
8
 40
8
 40
8
 40
9
 40
9
 40
9
 40
10
 40
10
 40
10
 40
11
 40
11
 40
11
 40
12
 40
12
 40
12
 40
13
 40
13
 40
13
 40
14
 40
14
 40
14
 40
15
 40
15
 40
15
 40
16
 40
16
 40
16
 40
17
 40
17
 40
17
 40
17
 10
32.78344251025032
 20
-39.64159409273717
 30
0
 10
32.52949590929384
 20
-39.5393393523656
 30
0
 10
32.26570925435762
 20
-39.55807205906665
 30
0
 10
31.99212560913521
 20
-39.69749076698535
 30
0
 10
31.77594586743579
 20
-39.80803526836831
 30
0
 10
31.61994763749432
 20
-39.94868129155363
 30
0
 10
31.52413091931081
 20
-40.12003172825124
 30
0
 10
31.42833573297408
 20
-40.29136063310207
 30
0
 10
31.39976297229329
 20
-40.47407988490102
 30
0
 10
31.43877867866374
 20
-40.6681464199545
 30
0
 10
31.50234069036661
 20
-40.63591324532062
 30
0
 10
31.5548353328231
 20
-40.60919222346315
 30
0
 10
31.59630566972679
 20
-40.58800488622887
 30
0
 10
31.63805592063866
 20
-40.56681754899459
 30
0
 10
31.69057209494194
 20
-40.53979508128215
 30
0
 10
31.7541341066448
 20
-40.5075403748015
 30
0
 10
31.7513780302566
 20
-40.39945050395179
 30
0
 10
31.78115657435723
 20
-40.30089924122686
 30
0
 10
31.84318982493851
 20
-40.21121909937645
 30
0
 10
31.90522307551979
 20
-40.12186193522778
 30
0
 10
31.9997909465899
 20
-40.0447994555921
 30
0
 10
32.12691496999562
 20
-39.97998859677584
 30
0
 10
32.29428201503841
 20
-39.89463635612877
 30
0
 10
32.45824702828952
 20
-39.88326754102745
 30
0
 10
32.61885307344251
 20
-39.94590368331865
 30
0
 10
32.7794591185955
 20
-40.00886280331159
 30
0
 10
32.91394703360094
 20
-40.13568538086235
 30
0
 10
33.0223598821524
 20
-40.32699583952763
 30
0
 10
33.0223598821524
 20
-40.32699583952763
 30
0
 10
33.02972377375212
 20
-40.34142217687211
 30
0
 10
33.02972377375212
 20
-40.34142217687211
 30
0
 10
33.02972377375212
 20
-40.34142217687211
 30
0
 10
31.60950469180466
 20
-41.0661195440412
 30
0
 10
31.60950469180466
 20
-41.0661195440412
 30
0
 10
31.60950469180466
 20
-41.0661195440412
 30
0
 10
31.67121496468419
 20
-41.18710699111382
 30
0
 10
31.67121496468419
 20
-41.18710699111382
 30
0
 10
31.82783761818236
 20
-41.49387121222853
 30
0
 10
32.02773928371398
 20
-41.69715337770506
 30
0
 10
32.27124293898081
 20
-41.79695348754338
 30
0
 10
32.51444514839266
 20
-41.89675359738172
 30
0
 10
32.76931761876079
 20
-41.87862378239059
 30
0
 10
33.03586035008522
 20
-41.74290855211853
 30
0
 10
33.30701089662116
 20
-41.60441571361149
 30
0
 10
33.47558372508379
 20
-41.40083210228
 30
0
 10
33.54192334502164
 20
-41.13243763213226
 30
0
 10
33.6082414331127
 20
-40.86376324797634
 30
0
 10
33.56188336698931
 20
-40.5741814405943
 30
0
 10
33.40373195236955
 20
-40.26403671953469
 30
0
 10
33.24405177662823
 20
-39.95113592208687
 30
0
 10
33.0373891112068
 20
-39.74354738725378
 30
0
 10
32.78344251025032
 20
-39.64159409273717
 30
0
  0
SPLINE
  5
5C
100
AcDbEntity
  8
Layer 1
  6
ByLayer
 62
  256
370
    0
100
AcDbSpline
210
0
220
0
230
0
 70
   11
 71
    3
 72
   59
 73
   55
 74
    0
 42
1e-07
 43
1e-07
 40
0
 40
0
 40
0
 40
0
 40
1
 40
1
 40
1
 40
2
 40
2
 40
2
 40
3
 40
3
 40
3
 40
4
 40
4
 40
4
 40
5
 40
5
 40
5
 40
6
 40
6
 40
6
 40
7
 40
7
 40
7
 40
8
 40
8
 40
8
 40
9
 40
9
 40
9
 40
10
 40
10
 40
10
 40
11
 40
11
 40
11
 40
12
 40
12
 40
12
 40
13
 40
13
 40
13
 40
14
 40
14
 40
14
 40
15
 40
15
 40
15
 40
16
 40
16
 40
16
 40
17
 40
17
 40
17
 40
18
 40
18
 40
18
 40
18
 10
35.09049376564144
 20
-38.15044910748713
 30
0
 10
34.77266217528036
 20
-38.0696831502048
 30
0
 10
34.48280045389015
 20
-38.12312519391974
 30
0
 10
34.22086553777725
 20
-38.31105515264012
 30
0
 10
33.97335695900883
 20
-38.48854216567084
 30
0
 10
33.82657435949041
 20
-38.71208579896999
 30
0
 10
33.78021629336701
 20
-38.98170758438435
 30
0
 10
33.73383669539684
 20
-39.25100639209698
 30
0
 10
33.7973987070997
 20
-39.50680473187677
 30
0
 10
33.97090232847559
 20
-39.74877962602201
 30
0
 10
34.13887226522831
 20
-39.98276620501082
 30
0
 10
34.35197295283779
 20
-40.12216338108274
 30
0
 10
34.61052736900579
 20
-40.1673156637863
 30
0
 10
34.86878033931883
 20
-40.21214496878811
 30
0
 10
35.11290841814235
 20
-40.15226490288511
 30
0
 10
35.34261015962138
 20
-39.9876754660773
 30
0
 10
35.48631370504987
 20
-39.88449485629407
 30
0
 10
35.59102307595467
 20
-39.76012690927655
 30
0
 10
35.65673827233582
 20
-39.61396873331483
 30
0
 10
35.72275491457192
 20
-39.46811200320806
 30
0
 10
35.74301638239454
 20
-39.31549427321149
 30
0
 10
35.71814709936039
 20
-39.15611554332512
 30
0
 10
35.71814709936039
 20
-39.15611554332512
 30
0
 10
35.74486812121786
 20
-39.13677994491416
 30
0
 10
35.74486812121786
 20
-39.13677994491416
 30
0
 10
35.97454833085011
 20
-39.46841344906302
 30
0
 10
36.09277970153453
 20
-39.75767227874331
 30
0
 10
36.0998421472793
 20
-40.00395354224511
 30
0
 10
36.10690459302405
 20
-40.25053625160186
 30
0
 10
36.01018353727567
 20
-40.445528656067
 30
0
 10
35.80965744818734
 20
-40.58953364735045
 30
0
 10
35.68714123999315
 20
-40.67736205037754
 30
0
 10
35.56247184712067
 20
-40.72126548596769
 30
0
 10
35.43564926956991
 20
-40.72096404011273
 30
0
 10
35.30882669201915
 20
-40.72096404011273
 30
0
 10
35.19274850601301
 20
-40.67305568102098
 30
0
 10
35.0874147115515
 20
-40.57818636409591
 30
0
 10
35.0874147115515
 20
-40.57818636409591
 30
0
 10
34.77819585990354
 20
-40.80020123627347
 30
0
 10
34.77819585990354
 20
-40.80020123627347
 30
0
 10
34.94371116612302
 20
-40.96509211893625
 30
0
 10
35.13594749419995
 20
-41.05382485952821
 30
0
 10
35.35425888873088
 20
-41.06672243575112
 30
0
 10
35.57291479281033
 20
-41.07962001197402
 30
0
 10
35.79185061089796
 20
-41.00716534754986
 30
0
 10
36.01141085254229
 20
-40.84963835648681
 30
0
 10
36.29698773642271
 20
-40.64512887574367
 30
0
 10
36.4413157054079
 20
-40.3693705139962
 30
0
 10
36.44469620535281
 20
-40.02236327124441
 30
0
 10
36.44837815115267
 20
-39.67567900619436
 30
0
 10
36.30129410577928
 20
-39.29490982768713
 30
0
 10
36.00404696094257
 20
-38.88035718157766
 30
0
 10
35.71293639243896
 20
-38.47441727418131
 30
0
 10
35.40830382415574
 20
-38.23121506476946
 30
0
 10
35.09049376564144
 20
-38.15044910748713
 30
0
  0
SPLINE
  5
5D
100
AcDbEntity
  8
Layer 1
  6
ByLayer
 62
  256
370
    0
100
AcDbSpline
210
0
220
0
230
0
 70
   11
 71
    3
 72
   44
 73
   40
 74
    0
 42
1e-07
 43
1e-07
 40
0
 40
0
 40
0
 40
0
 40
1
 40
1
 40
1
 40
2
 40
2
 40
2
 40
3
 40
3
 40
3
 40
4
 40
4
 40
4
 40
5
 40
5
 40
5
 40
6
 40
6
 40
6
 40
7
 40
7
 40
7
 40
8
 40
8
 40
8
 40
9
 40
9
 40
9
 40
10
 40
10
 40
10
 40
11
 40
11
 40
11
 40
12
 40
12
 40
12
 40
13
 40
13
 40
13
 40
13
 10
39.04406381266737
 20
-37.09073773622428
 30
0
 10
39.03148921414621
 20
-37.21325394441848
 30
0
 10
39.0145867144217
 20
-37.36802485909332
 30
0
 10
38.99402380074412
 20
-37.55442605669212
 30
0
 10
38.99402380074412
 20
-37.55442605669212
 30
0
 10
38.97191059409817
 20
-37.57899389387131
 30
0
 10
38.97191059409817
 20
-37.57899389387131
 30
0
 10
38.78888989644427
 20
-37.41347858765184
 30
0
 10
38.62522632904813
 20
-37.2654686728668
 30
0
 10
38.4811998059179
 20
-37.13556704122609
 30
0
 10
38.33719481463445
 20
-37.00536396373043
 30
0
 10
38.18457708463789
 20
-36.86749554878009
 30
0
 10
38.02334661592819
 20
-36.72163881867333
 30
0
 10
37.86183623321033
 20
-36.57578208856656
 30
0
 10
37.70921850321376
 20
-36.43789214176943
 30
0
 10
37.56519198008353
 20
-36.30801204197552
 30
0
 10
37.42118698880009
 20
-36.17780896447986
 30
0
 10
37.25752342140394
 20
-36.03010049554977
 30
0
 10
37.07450272375004
 20
-35.8645851893303
 30
0
 10
37.07450272375004
 20
-35.8645851893303
 30
0
 10
36.82606827556996
 20
-36.1394176816661
 30
0
 10
36.82606827556996
 20
-36.1394176816661
 30
0
 10
36.82606827556996
 20
-36.1394176816661
 30
0
 10
39.02901305176619
 20
-38.1295632161078
 30
0
 10
39.02901305176619
 20
-38.1295632161078
 30
0
 10
39.02901305176619
 20
-38.1295632161078
 30
0
 10
39.27591873882469
 20
-37.85628101674036
 30
0
 10
39.27591873882469
 20
-37.85628101674036
 30
0
 10
39.29833339132559
 20
-37.66189150398514
 30
0
 10
39.31614022861498
 20
-37.50068256712223
 30
0
 10
39.3302651201045
 20
-37.37263267430485
 30
0
 10
39.34408856573906
 20
-37.24488422734242
 30
0
 10
39.36219684888341
 20
-37.08367529047952
 30
0
 10
39.38431005552936
 20
-36.88930730957108
 30
0
 10
39.38431005552936
 20
-36.88930730957108
 30
0
 10
39.09412535643741
 20
-36.62737239345817
 30
0
 10
39.09412535643741
 20
-36.62737239345817
 30
0
 10
39.07354091091304
 20
-36.8137520592102
 30
0
 10
39.05696138889027
 20
-36.96822152803009
 30
0
 10
39.04406381266737
 20
-37.09073773622428
 30
0
  0
SPLINE
  5
5E
100
AcDbEntity
  8
Layer 1
  6
ByLayer
 62
  256
370
    0
100
AcDbSpline
210
0
220
0
230
0
 70
   11
 71
    3
 72
   59
 73
   55
 74
    0
 42
1e-07
 43
1e-07
 40
0
 40
0
 40
0
 40
0
 40
1
 40
1
 40
1
 40
2
 40
2
 40
2
 40
3
 40
3
 40
3
 40
4
 40
4
 40
4
 40
5
 40
5
 40
5
 40
6
 40
6
 40
6
 40
7
 40
7
 40
7
 40
8
 40
8
 40
8
 40
9
 40
9
 40
9
 40
10
 40
10
 40
10
 40
11
 40
11
 40
11
 40
12
 40
12
 40
12
 40
13
 40
13
 40
13
 40
14
 40
14
 40
14
 40
15
 40
15
 40
15
 40
16
 40
16
 40
16
 40
17
 40
17
 40
17
 40
18
 40
18
 40
18
 40
18
 10
40.41116382860164
 20
-33.81979182775382
 30
0
 10
39.99846292131549
 20
-33.53882275908492
 30
0
 10
39.62873958020784
 20
-33.41538068147906
 30
0
 10
39.30231678298041
 20
-33.44884117137954
 30
0
 10
38.97619543160795
 20
-33.48232319312682
 30
0
 10
38.72224883065147
 20
-33.63246476074336
 30
0
 10
38.5410798718209
 20
-33.89900749206778
 30
0
 10
38.36972943512328
 20
-34.15082244019276
 30
0
 10
38.30892349980862
 20
-34.4112070633373
 30
0
 10
38.358059174167
 20
-34.68020442519497
 30
0
 10
38.40749629438033
 20
-34.94920178705263
 30
0
 10
38.55520476331042
 20
-35.16753471343034
 30
0
 10
38.80116304911048
 20
-35.33488022662635
 30
0
 10
39.03945599745585
 20
-35.49671358704596
 30
0
 10
39.28758899978097
 20
-35.55444046827068
 30
0
 10
39.54582043824723
 20
-35.50778095629233
 30
0
 10
39.80407340856027
 20
-35.46079846661223
 30
0
 10
40.01258781280502
 20
-35.32075533513682
 30
0
 10
40.17134211913469
 20
-35.08707020200298
 30
0
 10
40.27081925127127
 20
-34.94091202604125
 30
0
 10
40.32641447966449
 20
-34.78769140433477
 30
0
 10
40.33776176291904
 20
-34.62801122859343
 30
0
 10
40.34943202387532
 20
-34.4683310528521
 30
0
 10
40.31627297982979
 20
-34.31816795338877
 30
0
 10
40.23798318492749
 20
-34.17691903849353
 30
0
 10
40.23798318492749
 20
-34.17691903849353
 30
0
 10
40.25639291392679
 20
-34.1498965707811
 30
0
 10
40.25639291392679
 20
-34.1498965707811
 30
0
 10
40.58589476524416
 20
-34.3820314109466
 30
0
 10
40.7965408223204
 20
-34.61296046769225
 30
0
 10
40.88805117114735
 20
-34.84173633975962
 30
0
 10
40.9795615199743
 20
-35.07049067998021
 30
0
 10
40.95591955220677
 20
-35.28729484523634
 30
0
 10
40.81710373599798
 20
-35.49150288012452
 30
0
 10
40.73235438706084
 20
-35.616172272997
 30
0
 10
40.63009964668927
 20
-35.70029719837744
 30
0
 10
40.51126538429493
 20
-35.74359774225768
 30
0
 10
40.39212967604563
 20
-35.78689828613791
 30
0
 10
40.26683585961645
 20
-35.78229047092639
 30
0
 10
40.13510402099921
 20
-35.72947285076815
 30
0
 10
40.13510402099921
 20
-35.72947285076815
 30
0
 10
39.92107746397807
 20
-36.04422538703929
 30
0
 10
39.92107746397807
 20
-36.04422538703929
 30
0
 10
40.13325228217589
 20
-36.14187231219934
 30
0
 10
40.34422131695388
 20
-36.15907625777881
 30
0
 10
40.55394150461846
 20
-36.09611713778587
 30
0
 10
40.76338177827487
 20
-36.03287810378475
 30
0
 10
40.94424929125049
 20
-35.88977745006618
 30
0
 10
41.09624259769035
 20
-35.66621228492026
 30
0
 10
41.29368963268873
 20
-35.37572613997335
 30
0
 10
41.33423410018077
 20
-35.06711018003531
 30
0
 10
41.21815591417463
 20
-34.74038593695293
 30
0
 10
41.1020777281685
 20
-34.41336024801559
 30
0
 10
40.83308036631083
 20
-34.10659602690087
 30
0
 10
40.41116382860164
 20
-33.81979182775382
 30
0
  0
SPLINE
  5
5F
100
AcDbEntity
  8
Layer 1
  6
ByLayer
 62
  256
370
    0
100
AcDbSpline
210
0
220
0
230
0
 70
   11
 71
    3
 72
   77
 73
   73
 74
    0
 42
1e-07
 43
1e-07
 40
0
 40
0
 40
0
 40
0
 40
1
 40
1
 40
1
 40
2
 40
2
 40
2
 40
3
 40
3
 40
3
 40
4
 40
4
 40
4
 40
5
 40
5
 40
5
 40
6
 40
6
 40
6
 40
7
 40
7
 40
7
 40
8
 40
8
 40
8
 40
9
 40
9
 40
9
 40
10
 40
10
 40
10
 40
11
 40
11
 40
11
 40
12
 40
12
 40
12
 40
13
 40
13
 40
13
 40
14
 40
14
 40
14
 40
15
 40
15
 40
15
 40
16
 40
16
 40
16
 40
17
 40
17
 40
17
 40
18
 40
18
 40
18
 40
19
 40
19
 40
19
 40
20
 40
20
 40
20
 40
21
 40
21
 40
21
 40
22
 40
22
 40
22
 40
23
 40
23
 40
23
 40
24
 40
24
 40
24
 40
24
 10
41.90599075965154
 20
-30.18771378504205
 30
0
 10
41.98738114049057
 20
-30.2819802102572
 30
0
 10
42.03804557597053
 20
-30.39007008110691
 30
0
 10
42.05738117438149
 20
-30.51198339759119
 30
0
 10
42.07703975049419
 20
-30.63389671407547
 30
0
 10
42.06168754373805
 20
-30.76102073748119
 30
0
 10
42.01132455411306
 20
-30.89307555380017
 30
0
 10
41.94438204246529
 20
-31.06840938215261
 30
0
 10
41.83230877996076
 20
-31.18877240566852
 30
0
 10
41.67538468060763
 20
-31.253561732638
 30
0
 10
41.5184605812545
 20
-31.31867403730922
 30
0
 10
41.34650725284697
 20
-31.31529353736432
 30
0
 10
41.15950316353825
 20
-31.24404465636
 30
0
 10
40.96603952019469
 20
-31.17003969896748
 30
0
 10
40.83032428992263
 20
-31.05521036007474
 30
0
 10
40.75263738673024
 20
-30.89951357598823
 30
0
 10
40.67462750583612
 20
-30.74351534604676
 30
0
 10
40.6706441141813
 20
-30.57461953988239
 30
0
 10
40.7400412563623
 20
-30.39252471164015
 30
0
 10
40.80207450694358
 20
-30.22978701365566
 30
0
 10
40.89941998624867
 20
-30.11095275126133
 30
0
 10
41.03237914013253
 20
-30.03602192445714
 30
0
 10
41.16503684816144
 20
-29.96139254350792
 30
0
 10
41.30811597003321
 20
-29.94421012977523
 30
0
 10
41.46135812358649
 20
-29.98505604312223
 30
0
 10
41.46135812358649
 20
-29.98505604312223
 30
0
 10
41.5912382233804
 20
-29.64480980026024
 30
0
 10
41.5912382233804
 20
-29.64480980026024
 30
0
 10
41.34835899167029
 20
-29.56987897345606
 30
0
 10
41.12018601131284
 20
-29.58983899542372
 30
0
 10
40.90738676955831
 20
-29.7056157355749
 30
0
 10
40.69458752780378
 20
-29.82106949802434
 30
0
 10
40.5379864061524
 20
-30.01022677201133
 30
0
 10
40.43788485045911
 20
-30.27278611168094
 30
0
 10
40.3297949796094
 20
-30.55590836502812
 30
0
 10
40.33102229487601
 20
-30.81967348811757
 30
0
 10
40.44216968796889
 20
-31.06380156694108
 30
0
 10
40.55303716705358
 20
-31.3079296457646
 30
0
 10
40.75141007146362
 20
-31.48449078938365
 30
0
 10
41.03698695534406
 20
-31.59380797549999
 30
0
 10
41.31242233938978
 20
-31.69881879225976
 30
0
 10
41.56576604863634
 20
-31.70004610752638
 30
0
 10
41.79637212768025
 20
-31.59718847544489
 30
0
 10
42.0273011844259
 20
-31.49430931151662
 30
0
 10
42.18728280602219
 20
-31.3263393747639
 30
0
 10
42.2763385243159
 20
-31.09327866518675
 30
0
 10
42.32883316677239
 20
-30.95478582667971
 30
0
 10
42.35370244980654
 20
-30.82613304215241
 30
0
 10
42.35064492756338
 20
-30.70760022561303
 30
0
 10
42.34756587347344
 20
-30.58874443137191
 30
0
 10
42.31716290581611
 20
-30.47975022295732
 30
0
 10
42.25973747044635
 20
-30.37995011311899
 30
0
 10
42.25973747044635
 20
-30.37995011311899
 30
0
 10
42.27140773140263
 20
-30.3492456996067
 30
0
 10
42.27140773140263
 20
-30.3492456996067
 30
0
 10
42.27140773140263
 20
-30.3492456996067
 30
0
 10
43.14196182867849
 20
-30.78037786773893
 30
0
 10
43.14196182867849
 20
-30.78037786773893
 30
0
 10
43.14196182867849
 20
-30.78037786773893
 30
0
 10
42.65801204038802
 20
-32.04920653495645
 30
0
 10
42.65801204038802
 20
-32.04920653495645
 30
0
 10
42.65801204038802
 20
-32.04920653495645
 30
0
 10
42.96755386973771
 20
-32.16711492793912
 30
0
 10
42.96755386973771
 20
-32.16711492793912
 30
0
 10
42.96755386973771
 20
-32.16711492793912
 30
0
 10
43.55498571366638
 20
-30.62743716004062
 30
0
 10
43.55498571366638
 20
-30.62743716004062
 30
0
 10
43.55498571366638
 20
-30.62743716004062
 30
0
 10
42.02975581495915
 20
-29.86284128078299
 30
0
 10
42.02975581495915
 20
-29.86284128078299
 30
0
 10
42.02975581495915
 20
-29.86284128078299
 30
0
 10
41.90599075965154
 20
-30.18771378504205
 30
0
 10
41.90599075965154
 20
-30.18771378504205
 30
0
  0
SPLINE
  5
60
100
AcDbEntity
  8
Layer 1
  6
ByLayer
 62
  256
370
    0
100
AcDbSpline
210
0
220
0
230
0
 70
   11
 71
    3
 72
   59
 73
   55
 74
    0
 42
1e-07
 43
1e-07
 40
0
 40
0
 40
0
 40
0
 40
1
 40
1
 40
1
 40
2
 40
2
 40
2
 40
3
 40
3
 40
3
 40
4
 40
4
 40
4
 40
5
 40
5
 40
5
 40
6
 40
6
 40
6
 40
7
 40
7
 40
7
 40
8
 40
8
 40
8
 40
9
 40
9
 40
9
 40
10
 40
10
 40
10
 40
11
 40
11
 40
11
 40
12
 40
12
 40
12
 40
13
 40
13
 40
13
 40
14
 40
14
 40
14
 40
15
 40
15
 40
15
 40
16
 40
16
 40
16
 40
17
 40
17
 40
17
 40
18
 40
18
 40
18
 40
18
 10
42.90767380383472
 20
-26.8922000393924
 30
0
 10
42.41911620033272
 20
-26.78901942960917
 30
0
 10
42.03035870666906
 20
-26.81511602790994
 30
0
 10
41.74109987698877
 20
-26.96988694258479
 30
0
 10
41.45184104730848
 20
-27.12495930311459
 30
0
 10
41.27403105657603
 20
-27.36017319737003
 30
0
 10
41.20771296848497
 20
-27.67555015719787
 30
0
 10
41.14475384849202
 20
-27.9734001937445
 30
0
 10
41.18745150066234
 20
-28.23748829453568
 30
0
 10
41.33513843774564
 20
-28.46779292772463
 30
0
 10
41.48284690667573
 20
-28.69779611505863
 30
0
 10
41.70240714832006
 20
-28.84365284516539
 30
0
 10
41.99351771682367
 20
-28.90506167218997
 30
0
 10
42.27541265490424
 20
-28.96433884638305
 30
0
 10
42.52690462532748
 20
-28.92349293303606
 30
0
 10
42.74799362809338
 20
-28.78224401814081
 30
0
 10
42.96908263085929
 20
-28.64099510324557
 30
0
 10
43.10880278463296
 20
-28.43217925314586
 30
0
 10
43.16715408941437
 20
-28.15581799968848
 30
0
 10
43.20339218754985
 20
-27.98261582416754
 30
0
 10
43.19663118766005
 20
-27.81987812618305
 30
0
 10
43.14689262159175
 20
-27.6678632878964
 30
0
 10
43.09683107782171
 20
-27.51586998145654
 30
0
 10
43.00900267479463
 20
-27.38934884976074
 30
0
 10
42.88310596665553
 20
-27.28862287051075
 30
0
 10
42.88310596665553
 20
-27.28862287051075
 30
0
 10
42.88986696654533
 20
-27.25638969587688
 30
0
 10
42.88986696654533
 20
-27.25638969587688
 30
0
 10
43.28290929771877
 20
-27.3460483058805
 30
0
 10
43.56542865935604
 20
-27.47963188332107
 30
0
 10
43.73677909605365
 20
-27.65651600464186
 30
0
 10
43.90843097860623
 20
-27.83368003997083
 30
0
 10
43.96861249036419
 20
-28.04312031362724
 30
0
 10
43.91794805488423
 20
-28.28447078421578
 30
0
 10
43.88661921781524
 20
-28.43217925314586
 30
0
 10
43.824284521379
 20
-28.54855888500696
 30
0
 10
43.73062098787377
 20
-28.63423410335577
 30
0
 10
43.63697898621533
 20
-28.71958634400283
 30
0
 10
43.51904906138586
 20
-28.7625854420281
 30
0
 10
43.37749870063566
 20
-28.76351131143977
 30
0
 10
43.37749870063566
 20
-28.76351131143977
 30
0
 10
43.29888592803162
 20
-29.13599072893562
 30
0
 10
43.29888592803162
 20
-29.13599072893562
 30
0
 10
43.53226961531051
 20
-29.14580925106858
 30
0
 10
43.73400148781867
 20
-29.08194579351077
 30
0
 10
43.9038231633947
 20
-28.94407737856042
 30
0
 10
44.0739462848257
 20
-28.80588598590834
 30
0
 10
44.18664397088693
 20
-28.6047570051101
 30
0
 10
44.24251911328833
 20
-28.34036745846396
 30
0
 10
44.31499530955927
 20
-27.99674071565707
 30
0
 10
44.23545666754357
 20
-27.69581162502049
 30
0
 10
44.003924719088
 20
-27.43755865470745
 30
0
 10
43.77239277063242
 20
-27.17900423853945
 30
0
 10
43.40697579888133
 20
-26.99721085615218
 30
0
 10
42.90767380383472
 20
-26.8922000393924
 30
0
  0
SPLINE
  5
61
100
AcDbEntity
  8
Layer 1
  6
ByLayer
 62
  256
370
    0
100
AcDbSpline
210
0
220
0
230
0
 70
   11
 71
    3
 72
   50
 73
   46
 74
    0
 42
1e-07
 43
1e-07
 40
0
 40
0
 40
0
 40
0
 40
1
 40
1
 40
1
 40
2
 40
2
 40
2
 40
3
 40
3
 40
3
 40
4
 40
4
 40
4
 40
5
 40
5
 40
5
 40
6
 40
6
 40
6
 40
7
 40
7
 40
7
 40
8
 40
8
 40
8
 40
9
 40
9
 40
9
 40
10
 40
10
 40
10
 40
11
 40
11
 40
11
 40
12
 40
12
 40
12
 40
13
 40
13
 40
13
 40
14
 40
14
 40
14
 40
15
 40
15
 40
15
 40
15
 10
43.53687743052203
 20
-24.10227558804995
 30
0
 10
43.65724045403795
 20
-24.03640966874133
 30
0
 10
43.75058100984144
 20
-23.941368097042
 30
0
 10
43.81629620622257
 20
-23.81715087295196
 30
0
 10
43.88233438030546
 20
-23.69280445778123
 30
0
 10
43.91334023967271
 20
-23.55323502693504
 30
0
 10
43.90995973972781
 20
-23.39831338933271
 30
0
 10
43.90352171753975
 20
-23.11719359773633
 30
0
 10
43.79420453142341
 20
-22.89395141029214
 30
0
 10
43.5820081813788
 20
-22.72858682700015
 30
0
 10
43.36951038547924
 20
-22.56322224370815
 30
0
 10
43.089467186222
 20
-22.48445874817663
 30
0
 10
42.74123262820358
 20
-22.49244706333305
 30
0
 10
42.392718156177
 20
-22.50028465556199
 30
0
 10
42.11633537087283
 20
-22.59086913497728
 30
0
 10
41.91182589012968
 20
-22.76420050157892
 30
0
 10
41.70701496353158
 20
-22.93755340002733
 30
0
 10
41.60783927724995
 20
-23.16615701732044
 30
0
 10
41.61427729943802
 20
-23.45005441715181
 30
0
 10
41.61795924523787
 20
-23.60359801656004
 30
0
 10
41.65572610449492
 20
-23.74191860029282
 30
0
 10
41.72757787720916
 20
-23.8652099549712
 30
0
 10
41.79975262762515
 20
-23.9883505867221
 30
0
 10
41.89832542219686
 20
-24.08369360427639
 30
0
 10
42.0232962609243
 20
-24.15078683885163
 30
0
 10
42.0232962609243
 20
-24.15078683885163
 30
0
 10
42.023920684481
 20
-24.1836444370422
 30
0
 10
42.023920684481
 20
-24.1836444370422
 30
0
 10
42.023920684481
 20
-24.1836444370422
 30
0
 10
41.67017397368619
 20
-24.19163275219862
 30
0
 10
41.67017397368619
 20
-24.19163275219862
 30
0
 10
41.67017397368619
 20
-24.19163275219862
 30
0
 10
41.67783931114087
 20
-24.52927364159989
 30
0
 10
41.67783931114087
 20
-24.52927364159989
 30
0
 10
41.67783931114087
 20
-24.52927364159989
 30
0
 10
44.77560457593718
 20
-24.45925207586219
 30
0
 10
44.77560457593718
 20
-24.45925207586219
 30
0
 10
44.77560457593718
 20
-24.45925207586219
 30
0
 10
44.76761626078076
 20
-24.10535464213989
 30
0
 10
44.76761626078076
 20
-24.10535464213989
 30
0
 10
44.76761626078076
 20
-24.10535464213989
 30
0
 10
43.53748032223195
 20
-24.13313072448972
 30
0
 10
43.53748032223195
 20
-24.13313072448972
 30
0
 10
43.53748032223195
 20
-24.13313072448972
 30
0
 10
43.53687743052203
 20
-24.10227558804995
 30
0
 10
43.53687743052203
 20
-24.10227558804995
 30
0
  0
SPLINE
  5
62
100
AcDbEntity
  8
Layer 1
  6
ByLayer
 62
  256
370
    0
100
AcDbSpline
210
0
220
0
230
0
 70
   11
 71
    3
 72
   59
 73
   55
 74
    0
 42
1e-07
 43
1e-07
 40
0
 40
0
 40
0
 40
0
 40
1
 40
1
 40
1
 40
2
 40
2
 40
2
 40
3
 40
3
 40
3
 40
4
 40
4
 40
4
 40
5
 40
5
 40
5
 40
6
 40
6
 40
6
 40
7
 40
7
 40
7
 40
8
 40
8
 40
8
 40
9
 40
9
 40
9
 40
10
 40
10
 40
10
 40
11
 40
11
 40
11
 40
12
 40
12
 40
12
 40
13
 40
13
 40
13
 40
14
 40
14
 40
14
 40
15
 40
15
 40
15
 40
16
 40
16
 40
16
 40
17
 40
17
 40
17
 40
18
 40
18
 40
18
 40
18
 10
42.60581884378648
 20
-19.5494527132116
 30
0
 10
42.11420371804133
 20
-19.63743183916617
 30
0
 10
41.76351452948968
 20
-19.80753342875038
 30
0
 10
41.5537943418251
 20
-20.05964982273031
 30
0
 10
41.34405262231373
 20
-20.31176621671025
 30
0
 10
41.26729158853301
 20
-20.5965679541065
 30
0
 10
41.32409260034606
 20
-20.91377512091088
 30
0
 10
41.37783608991596
 20
-21.21362761920831
 30
0
 10
41.516328928423
 20
-21.44240349127568
 30
0
 10
41.73987256172215
 20
-21.60023192819369
 30
0
 10
41.96311474916634
 20
-21.75808189695848
 30
0
 10
42.22136771947938
 20
-21.81089951711672
 30
0
 10
42.51430849495953
 20
-21.75838334281344
 30
0
 10
42.79773219416168
 20
-21.70756818440601
 30
0
 10
43.01546222882947
 20
-21.57521192223206
 30
0
 10
43.16745553526933
 20
-21.3613360881384
 30
0
 10
43.31914739585424
 20
-21.14746025404473
 30
0
 10
43.3704362548909
 20
-20.90150196824468
 30
0
 10
43.32069768882261
 20
-20.62328897596397
 30
0
 10
43.28936885175361
 20
-20.44918246287816
 30
0
 10
43.2221248942509
 20
-20.30084957039137
 30
0
 10
43.1186428386127
 20
-20.17878553097961
 30
0
 10
43.01513925112773
 20
-20.05642004571289
 30
0
 10
42.88618502074547
 20
-19.97229512033245
 30
0
 10
42.73171555192558
 20
-19.92606624528975
 30
0
 10
42.73171555192558
 20
-19.92606624528975
 30
0
 10
42.72588042144744
 20
-19.8936823477284
 30
0
 10
42.72588042144744
 20
-19.8936823477284
 30
0
 10
43.1241549913891
 20
-19.82934518954136
 30
0
 10
43.43585000541708
 20
-19.84715202683075
 30
0
 10
43.66122384569277
 20
-19.9468014137416
 30
0
 10
43.88661921781524
 20
-20.04645080065245
 30
0
 10
44.02112866466747
 20
-20.21780123735006
 30
0
 10
44.06473065440266
 20
-20.46085272383444
 30
0
 10
44.09145167626013
 20
-20.60931480740193
 30
0
 10
44.0773267847706
 20
-20.74074520016421
 30
0
 10
44.02235597993408
 20
-20.85497164734702
 30
0
 10
43.96768662095253
 20
-20.96934881745732
 30
0
 10
43.874647511004
 20
-21.05349527468454
 30
0
 10
43.74384154179842
 20
-21.10769093303688
 30
0
 10
43.74384154179842
 20
-21.10769093303688
 30
0
 10
43.81078405344618
 20
-21.48232353521102
 30
0
 10
43.81078405344618
 20
-21.48232353521102
 30
0
 10
44.03094718680043
 20
-21.40386148553445
 30
0
 10
44.1937064166317
 20
-21.26889986989979
 30
0
 10
44.29964310280313
 20
-21.07713724245207
 30
0
 10
44.4052783431196
 20
-20.88537461500435
 30
0
 10
44.43413101780857
 20
-20.65659874293698
 30
0
 10
44.38654563641855
 20
-20.39068043516926
 30
0
 10
44.32481383169224
 20
-20.04492203953087
 30
0
 10
44.13811118823848
 20
-19.79588469964087
 30
0
 10
43.82643770605728
 20
-19.64341769257178
 30
0
 10
43.51476422387609
 20
-19.49079996257522
 30
0
 10
43.1078769152213
 20
-19.45947112550623
 30
0
 10
42.60581884378648
 20
-19.5494527132116
 30
0
  0
SPLINE
  5
63
100
AcDbEntity
  8
Layer 1
  6
ByLayer
 62
  256
370
    0
100
AcDbSpline
210
0
220
0
230
0
 70
   11
 71
    3
 72
   29
 73
   25
 74
    0
 42
1e-07
 43
1e-07
 40
0
 40
0
 40
0
 40
0
 40
1
 40
1
 40
1
 40
2
 40
2
 40
2
 40
3
 40
3
 40
3
 40
4
 40
4
 40
4
 40
5
 40
5
 40
5
 40
6
 40
6
 40
6
 40
7
 40
7
 40
7
 40
8
 40
8
 40
8
 40
8
 10
40.19007482583573
 20
-16.08934953075414
 30
0
 10
40.01471946563651
 20
-16.36663665362319
 30
0
 10
39.99415655195893
 20
-16.65850083676419
 30
0
 10
40.12834302110941
 20
-16.96511433495143
 30
0
 10
40.26162515269501
 20
-17.27050051787204
 30
0
 10
40.48885073179402
 20
-17.45304751489672
 30
0
 10
40.80973984439826
 20
-17.51262613494476
 30
0
 10
41.1306289570025
 20
-17.5722047549928
 30
0
 10
41.51693182013292
 20
-17.50341050452172
 30
0
 10
41.96802401023282
 20
-17.3062649153783
 30
0
 10
42.41911620033272
 20
-17.10914085808166
 30
0
 10
42.73324431304716
 20
-16.87114935559124
 30
0
 10
42.91012843436796
 20
-16.59248419452809
 30
0
 10
43.08701255568875
 20
-16.31396975639243
 30
0
 10
43.10910423048792
 20
-16.02316063374378
 30
0
 10
42.97676950016076
 20
-15.7202290813564
 30
0
 10
42.8438103462769
 20
-15.41607021370241
 30
0
 10
42.61533592006448
 20
-15.23382466253269
 30
0
 10
42.29106630751534
 20
-15.17349242784725
 30
0
 10
41.9667966949662
 20
-15.11316019316181
 30
0
 10
41.58049383183578
 20
-15.18100704237445
 30
0
 10
41.13155482641416
 20
-15.37707603917874
 30
0
 10
40.67923532104764
 20
-15.57484605187886
 30
0
 10
40.36540865418817
 20
-15.81221313081257
 30
0
 10
40.19007482583573
 20
-16.08934953075414
 30
0
  0
SPLINE
  5
64
100
AcDbEntity
  8
Layer 1
  6
ByLayer
 62
  256
370
    0
100
AcDbSpline
210
0
220
0
230
0
 70
   11
 71
    3
 72
   65
 73
   61
 74
    0
 42
1e-07
 43
1e-07
 40
0
 40
0
 40
0
 40
0
 40
1
 40
1
 40
1
 40
2
 40
2
 40
2
 40
3
 40
3
 40
3
 40
4
 40
4
 40
4
 40
5
 40
5
 40
5
 40
6
 40
6
 40
6
 40
7
 40
7
 40
7
 40
8
 40
8
 40
8
 40
9
 40
9
 40
9
 40
10
 40
10
 40
10
 40
11
 40
11
 40
11
 40
12
 40
12
 40
12
 40
13
 40
13
 40
13
 40
14
 40
14
 40
14
 40
15
 40
15
 40
15
 40
16
 40
16
 40
16
 40
17
 40
17
 40
17
 40
18
 40
18
 40
18
 40
19
 40
19
 40
19
 40
20
 40
20
 40
20
 40
20
 10
41.04803279274363
 20
-13.8566046786105
 30
0
 10
40.93778973721564
 20
-13.92645398957394
 30
0
 10
40.8189554748213
 20
-13.96116332658783
 30
0
 10
40.69153000556063
 20
-13.96101260366036
 30
0
 10
40.56378155859821
 20
-13.96086188073287
 30
0
 10
40.36295402365492
 20
-13.93551889706951
 30
0
 10
40.08904740073078
 20
-13.88530663037199
 30
0
 10
40.08904740073078
 20
-13.88530663037199
 30
0
 10
38.63381753591447
 20
-13.61984049138671
 30
0
 10
38.63381753591447
 20
-13.61984049138671
 30
0
 10
38.63381753591447
 20
-13.61984049138671
 30
0
 10
38.41826221777174
 20
-13.75650312291721
 30
0
 10
38.41826221777174
 20
-13.75650312291721
 30
0
 10
38.41826221777174
 20
-13.75650312291721
 30
0
 10
39.44817351308718
 20
-15.37892777800206
 30
0
 10
39.44817351308718
 20
-15.37892777800206
 30
0
 10
39.44817351308718
 20
-15.37892777800206
 30
0
 10
39.72946555945783
 20
-15.20021344970472
 30
0
 10
39.72946555945783
 20
-15.20021344970472
 30
0
 10
39.72946555945783
 20
-15.20021344970472
 30
0
 10
38.97559253989803
 20
-14.01212920792275
 30
0
 10
38.97559253989803
 20
-14.01212920792275
 30
0
 10
38.97559253989803
 20
-14.01212920792275
 30
0
 10
39.00321789932038
 20
-13.99447309356084
 30
0
 10
39.00321789932038
 20
-13.99447309356084
 30
0
 10
39.00321789932038
 20
-13.99447309356084
 30
0
 10
39.9536120844669
 20
-14.19054209036513
 30
0
 10
39.9536120844669
 20
-14.19054209036513
 30
0
 10
40.33102229487601
 20
-14.26777682477507
 30
0
 10
40.61106549413326
 20
-14.30401492291054
 30
0
 10
40.79408619178716
 20
-14.29925638477154
 30
0
 10
40.97678391173931
 20
-14.29434712370506
 30
0
 10
41.1401460332805
 20
-14.2464387646133
 30
0
 10
41.28387111055577
 20
-14.15522986164132
 30
0
 10
41.48775616774221
 20
-14.02595265355732
 30
0
 10
41.60874361481483
 20
-13.84493441765422
 30
0
 10
41.64743634348354
 20
-13.61262732271446
 30
0
 10
41.6858276262973
 20
-13.38016950484723
 30
0
 10
41.6354646366723
 20
-13.15462340979728
 30
0
 10
41.4966703523103
 20
-12.93568759170966
 30
0
 10
41.34467704587043
 20
-12.69601660517018
 30
0
 10
41.14753145672701
 20
-12.54447546751275
 30
0
 10
40.90585800843673
 20
-12.48106417873737
 30
0
 10
40.66418456014645
 20
-12.41750216703451
 30
0
 10
40.43142529642427
 20
-12.45679778741314
 30
0
 10
40.20788166312511
 20
-12.59867112586509
 30
0
 10
40.20788166312511
 20
-12.59867112586509
 30
0
 10
40.39979501350032
 20
-12.90082753176828
 30
0
 10
40.39979501350032
 20
-12.90082753176828
 30
0
 10
40.54810637414032
 20
-12.80671182948061
 30
0
 10
40.69643926662711
 20
-12.77678256245251
 30
0
 10
40.84475062726711
 20
-12.81101819883718
 30
0
 10
40.99306198790712
 20
-12.84510311229437
 30
0
 10
41.11527675024636
 20
-12.9373886076055
 30
0
 10
41.21079202257491
 20
-13.08800387585126
 30
0
 10
41.30475700193509
 20
-13.23616451356379
 30
0
 10
41.33453554603572
 20
-13.38016950484723
 30
0
 10
41.29982620902183
 20
-13.52006191339516
 30
0
 10
41.26513840385473
 20
-13.6599327900963
 30
0
 10
41.18099194662749
 20
-13.77200605260084
 30
0
 10
41.04803279274363
 20
-13.8566046786105
 30
0
  0
SPLINE
  5
65
100
AcDbEntity
  8
Layer 1
  6
ByLayer
 62
  256
370
    0
100
AcDbSpline
210
0
220
0
230
0
 70
   11
 71
    3
 72
   71
 73
   67
 74
    0
 42
1e-07
 43
1e-07
 40
0
 40
0
 40
0
 40
0
 40
1
 40
1
 40
1
 40
2
 40
2
 40
2
 40
3
 40
3
 40
3
 40
4
 40
4
 40
4
 40
5
 40
5
 40
5
 40
6
 40
6
 40
6
 40
7
 40
7
 40
7
 40
8
 40
8
 40
8
 40
9
 40
9
 40
9
 40
10
 40
10
 40
10
 40
11
 40
11
 40
11
 40
12
 40
12
 40
12
 40
13
 40
13
 40
13
 40
14
 40
14
 40
14
 40
15
 40
15
 40
15
 40
16
 40
16
 40
16
 40
17
 40
17
 40
17
 40
18
 40
18
 40
18
 40
19
 40
19
 40
19
 40
20
 40
20
 40
20
 40
21
 40
21
 40
21
 40
22
 40
22
 40
22
 40
22
 10
38.54967107868724
 20
-10.88275519204928
 30
0
 10
38.54967107868724
 20
-10.88275519204928
 30
0
 10
38.76371916755517
 20
-10.67792273360439
 30
0
 10
38.76371916755517
 20
-10.67792273360439
 30
0
 10
38.76371916755517
 20
-10.67792273360439
 30
0
 10
38.41210410959185
 20
-10.31082627780424
 30
0
 10
38.41210410959185
 20
-10.31082627780424
 30
0
 10
38.41210410959185
 20
-10.31082627780424
 30
0
 10
38.58315310043451
 20
-10.14714117856131
 30
0
 10
38.58315310043451
 20
-10.14714117856131
 30
0
 10
38.67128294931656
 20
-10.06286553025338
 30
0
 10
38.75695816766536
 20
-10.02001715515559
 30
0
 10
38.84048020133589
 20
-10.01894056281645
 30
0
 10
38.92400223500641
 20
-10.01786397047731
 30
0
 10
39.00967745335522
 20
-10.06331769903582
 30
0
 10
39.09810874809223
 20
-10.15545247141947
 30
0
 10
39.11992050888322
 20
-10.17816856977534
 30
0
 10
39.14018197670584
 20
-10.20058322227624
 30
0
 10
39.15921612926185
 20
-10.22222272829297
 30
0
 10
39.17794883596289
 20
-10.24403448908396
 30
0
 10
39.19362402042078
 20
-10.2641452339791
 30
0
 10
39.20589717308698
 20
-10.28287794068015
 30
0
 10
39.20589717308698
 20
-10.28287794068015
 30
0
 10
39.41378715377503
 20
-10.08375142163271
 30
0
 10
39.41378715377503
 20
-10.08375142163271
 30
0
 10
39.39320270825066
 20
-10.05227186163624
 30
0
 10
39.37048660989479
 20
-10.02109374749473
 30
0
 10
39.34591877271561
 20
-9.990540056909918
 30
0
 10
39.32135093553642
 20
-9.959986366325108
 30
0
 10
39.29402702196903
 20
-9.928829784030381
 30
0
 10
39.2636240543117
 20
-9.89704877817895
 30
0
 10
39.11746587834998
 20
-9.744581771109862
 30
0
 10
38.96790567059656
 20
-9.666119721433297
 30
0
 10
38.81468504889008
 20
-9.661813352076734
 30
0
 10
38.6614644271836
 20
-9.657528514566955
 30
0
 10
38.50516475138716
 20
-9.731834917814437
 30
0
 10
38.34578602150079
 20
-9.884603370738485
 30
0
 10
38.34578602150079
 20
-9.884603370738485
 30
0
 10
38.16737313905842
 20
-10.0553293838794
 30
0
 10
38.16737313905842
 20
-10.0553293838794
 30
0
 10
38.16737313905842
 20
-10.0553293838794
 30
0
 10
37.91280211454524
 20
-9.789260353184195
 30
0
 10
37.91280211454524
 20
-9.789260353184195
 30
0
 10
37.91280211454524
 20
-9.789260353184195
 30
0
 10
37.69877555752409
 20
-9.994222002709778
 30
0
 10
37.69877555752409
 20
-9.994222002709778
 30
0
 10
37.69877555752409
 20
-9.994222002709778
 30
0
 10
37.95334658203727
 20
-10.26016184232428
 30
0
 10
37.95334658203727
 20
-10.26016184232428
 30
0
 10
37.76634249272855
 20
-10.43947906233154
 30
0
 10
37.60358326289728
 20
-10.59517584641805
 30
0
 10
37.4660162938019
 20
-10.72690768503529
 30
0
 10
37.32844932470652
 20
-10.85879024658001
 30
0
 10
37.19058090975618
 20
-10.99069433997151
 30
0
 10
37.05299240881401
 20
-11.12257690151623
 30
0
 10
36.91512399386367
 20
-11.25445946306095
 30
0
 10
36.75268774173414
 20
-11.4099839923732
 30
0
 10
36.56568365242542
 20
-11.58932274422724
 30
0
 10
36.56568365242542
 20
-11.58932274422724
 30
0
 10
36.81041462295886
 20
-11.84497036107956
 30
0
 10
36.81041462295886
 20
-11.84497036107956
 30
0
 10
36.81041462295886
 20
-11.84497036107956
 30
0
 10
38.19807755257071
 20
-10.51578792732982
 30
0
 10
38.19807755257071
 20
-10.51578792732982
 30
0
 10
38.19807755257071
 20
-10.51578792732982
 30
0
 10
38.54967107868724
 20
-10.88275519204928
 30
0
 10
38.54967107868724
 20
-10.88275519204928
 30
0
  0
SPLINE
  5
66
100
AcDbEntity
  8
Layer 1
  6
ByLayer
 62
  256
370
    0
100
AcDbSpline
210
0
220
0
230
0
 70
   11
 71
    3
 72
   59
 73
   55
 74
    0
 42
1e-07
 43
1e-07
 40
0
 40
0
 40
0
 40
0
 40
1
 40
1
 40
1
 40
2
 40
2
 40
2
 40
3
 40
3
 40
3
 40
4
 40
4
 40
4
 40
5
 40
5
 40
5
 40
6
 40
6
 40
6
 40
7
 40
7
 40
7
 40
8
 40
8
 40
8
 40
9
 40
9
 40
9
 40
10
 40
10
 40
10
 40
11
 40
11
 40
11
 40
12
 40
12
 40
12
 40
13
 40
13
 40
13
 40
14
 40
14
 40
14
 40
15
 40
15
 40
15
 40
16
 40
16
 40
16
 40
17
 40
17
 40
17
 40
18
 40
18
 40
18
 40
18
 10
36.43362883610644
 20
-8.839469059747598
 30
0
 10
36.29636331286601
 20
-8.728020220799767
 30
0
 10
36.14867637578271
 20
-8.659828862038601
 30
0
 10
35.99052496116296
 20
-8.634808856076976
 30
0
 10
35.83237354654321
 20
-8.609788850115349
 30
0
 10
35.67977734839342
 20
-8.630351763792934
 30
0
 10
35.5323703253183
 20
-8.696389937875816
 30
0
 10
35.5323703253183
 20
-8.696389937875816
 30
0
 10
35.50687661872745
 20
-8.675654769423968
 30
0
 10
35.50687661872745
 20
-8.675654769423968
 30
0
 10
35.76635690430711
 20
-8.366737363630973
 30
0
 10
36.01386548307553
 20
-8.176503497304832
 30
0
 10
36.24970380088767
 20
-8.104651724590591
 30
0
 10
36.48552058685301
 20
-8.032799951876349
 30
0
 10
36.6992456980192
 20
-8.0747009257157
 30
0
 10
36.89118058024118
 20
-8.230246986874731
 30
0
 10
37.00816310381219
 20
-8.32528855857406
 30
0
 10
37.08339537647134
 20
-8.434132044061172
 30
0
 10
37.11657595236365
 20
-8.556346806400411
 30
0
 10
37.14973499640918
 20
-8.678733823513911
 30
0
 10
37.13438278965304
 20
-8.80325249345891
 30
0
 10
37.07049780024844
 20
-8.929752093307927
 30
0
 10
37.07049780024844
 20
-8.929752093307927
 30
0
 10
37.36621618396357
 20
-9.169573802774881
 30
0
 10
37.36621618396357
 20
-9.169573802774881
 30
0
 10
37.48136850055805
 20
-8.966442360225837
 30
0
 10
37.51668072928186
 20
-8.757798764900395
 30
0
 10
37.47154997842508
 20
-8.543621484951769
 30
0
 10
37.42609624986657
 20
-8.32942267315636
 30
0
 10
37.29867078060589
 20
-8.137207876926201
 30
0
 10
37.08892906109453
 20
-7.966934032567728
 30
0
 10
36.816249753437
 20
-7.745672775027558
 30
0
 10
36.51224160871048
 20
-7.679053241081539
 30
0
 10
36.17660318106002
 20
-7.767032367036107
 30
0
 10
35.84098628525634
 20
-7.855162215918154
 30
0
 10
35.51241030335063
 20
-8.097287832990869
 30
0
 10
35.19089676718969
 20
-8.493409218254252
 30
0
 10
34.8764672086203
 20
-8.881090119578772
 30
0
 10
34.72199773980041
 20
-9.238970944955883
 30
0
 10
34.72783287027855
 20
-9.566944035151668
 30
0
 10
34.73366800075669
 20
-9.894895593500669
 30
0
 10
34.86171789357407
 20
-10.16051245541343
 30
0
 10
35.11198254873069
 20
-10.36364389796248
 30
0
 10
35.34844529009952
 20
-10.55555724833767
 30
0
 10
35.60269333691096
 20
-10.6383256673708
 30
0
 10
35.87507119871353
 20
-10.61190609136829
 30
0
 10
36.14744906051609
 20
-10.58550804721257
 30
0
 10
36.37712927014834
 20
-10.45683373083848
 30
0
 10
36.56475778301376
 20
-10.22560322823787
 30
0
 10
36.74622818769929
 20
-10.00205959493872
 30
0
 10
36.82453951444838
 20
-9.759632532011047
 30
0
 10
36.79997167726919
 20
-9.498300507608064
 30
0
 10
36.77510239423505
 20
-9.237140737979344
 30
0
 10
36.65318907775077
 20
-9.017580496335015
 30
0
 10
36.43362883610644
 20
-8.839469059747598
 30
0
  0
SPLINE
  5
67
100
AcDbEntity
  8
Layer 1
  6
ByLayer
 62
  256
370
    0
100
AcDbSpline
210
0
220
0
230
0
 70
   11
 71
    3
 72
   50
 73
   46
 74
    0
 42
1e-07
 43
1e-07
 40
0
 40
0
 40
0
 40
0
 40
1
 40
1
 40
1
 40
2
 40
2
 40
2
 40
3
 40
3
 40
3
 40
4
 40
4
 40
4
 40
5
 40
5
 40
5
 40
6
 40
6
 40
6
 40
7
 40
7
 40
7
 40
8
 40
8
 40
8
 40
9
 40
9
 40
9
 40
10
 40
10
 40
10
 40
11
 40
11
 40
11
 40
12
 40
12
 40
12
 40
13
 40
13
 40
13
 40
14
 40
14
 40
14
 40
15
 40
15
 40
15
 40
15
 10
32.05906812078297
 20
-7.938361271886937
 30
0
 10
32.02375589205916
 20
-8.011914060497022
 30
0
 10
31.97922803291231
 20
-8.104350278735632
 30
0
 10
31.92608743505233
 20
-8.215648394755984
 30
0
 10
31.92608743505233
 20
-8.215648394755984
 30
0
 10
32.25251023227975
 20
-8.372120325326675
 30
0
 10
32.25251023227975
 20
-8.372120325326675
 30
0
 10
32.25251023227975
 20
-8.372120325326675
 30
0
 10
32.51845007189426
 20
-7.81737382481432
 30
0
 10
32.51845007189426
 20
-7.81737382481432
 30
0
 10
32.51845007189426
 20
-7.81737382481432
 30
0
 10
32.8985948268448
 20
-7.99964090783082
 30
0
 10
32.8985948268448
 20
-7.99964090783082
 30
0
 10
32.8985948268448
 20
-7.99964090783082
 30
0
 10
33.04169548056336
 20
-7.700843470025744
 30
0
 10
33.04169548056336
 20
-7.700843470025744
 30
0
 10
33.04169548056336
 20
-7.700843470025744
 30
0
 10
32.66152919376604
 20
-7.518597918856028
 30
0
 10
32.66152919376604
 20
-7.518597918856028
 30
0
 10
32.66152919376604
 20
-7.518597918856028
 30
0
 10
33.53516234513184
 20
-5.694742837117981
 30
0
 10
33.53516234513184
 20
-5.694742837117981
 30
0
 10
33.53516234513184
 20
-5.694742837117981
 30
0
 10
33.05091111098641
 20
-5.462737188033188
 30
0
 10
33.05091111098641
 20
-5.462737188033188
 30
0
 10
32.89000361997846
 20
-5.557477313877558
 30
0
 10
32.72511273731568
 20
-5.656351554304228
 30
0
 10
32.55621693115131
 20
-5.759532164087461
 30
0
 10
32.38732112498694
 20
-5.862712773870694
 30
0
 10
32.21689655770098
 20
-5.968498737114646
 30
0
 10
32.04494322929345
 20
-6.076890053819319
 30
0
 10
31.87266692318418
 20
-6.185281370523993
 30
0
 10
31.70194091004327
 20
-6.294447833712846
 30
0
 10
31.53242068032219
 20
-6.40391574275666
 30
0
 10
31.36262053659294
 20
-6.513555906574736
 30
0
 10
31.19617936096181
 20
-6.62287309269107
 30
0
 10
31.03311868527557
 20
-6.731716578178182
 30
0
 10
31.03311868527557
 20
-6.731716578178182
 30
0
 10
30.88726195516881
 20
-7.036026168759657
 30
0
 10
30.88726195516881
 20
-7.036026168759657
 30
0
 10
30.88726195516881
 20
-7.036026168759657
 30
0
 10
32.1917042969651
 20
-7.660923426090412
 30
0
 10
32.1917042969651
 20
-7.660923426090412
 30
0
 10
32.1385852309519
 20
-7.772243073957547
 30
0
 10
32.09405737180504
 20
-7.864679292196157
 30
0
 10
32.05906812078297
 20
-7.938361271886937
 30
0
  0
SPLINE
  5
68
100
AcDbEntity
  8
Layer 1
  6
ByLayer
 62
  256
370
    0
100
AcDbSpline
210
0
220
0
230
0
 70
   11
 71
    3
 72
   38
 73
   34
 74
    0
 42
1e-07
 43
1e-07
 40
0
 40
0
 40
0
 40
0
 40
1
 40
1
 40
1
 40
2
 40
2
 40
2
 40
3
 40
3
 40
3
 40
4
 40
4
 40
4
 40
5
 40
5
 40
5
 40
6
 40
6
 40
6
 40
7
 40
7
 40
7
 40
8
 40
8
 40
8
 40
9
 40
9
 40
9
 40
10
 40
10
 40
10
 40
11
 40
11
 40
11
 40
11
 10
29.05556928120182
 20
-3.978180947898684
 30
0
 10
29.05556928120182
 20
-3.978180947898684
 30
0
 10
28.95914967130839
 20
-4.295086668848104
 30
0
 10
28.95914967130839
 20
-4.295086668848104
 30
0
 10
28.95914967130839
 20
-4.295086668848104
 30
0
 10
30.47884588539244
 20
-4.756772527565148
 30
0
 10
30.47884588539244
 20
-4.756772527565148
 30
0
 10
30.47884588539244
 20
-4.756772527565148
 30
0
 10
30.47055612438106
 20
-4.784419418834277
 30
0
 10
30.47055612438106
 20
-4.784419418834277
 30
0
 10
30.2743364046493
 20
-4.987077160754099
 30
0
 10
30.09900257629686
 20
-5.168569097286417
 30
0
 10
29.94485608517872
 20
-5.328852164737666
 30
0
 10
29.79101103991553
 20
-5.489307486963177
 30
0
 10
29.62702449481764
 20
-5.659107630692429
 30
0
 10
29.45354240528853
 20
-5.838597105473945
 30
0
 10
29.28003878391263
 20
-6.018086580255461
 30
0
 10
29.11637521651648
 20
-6.188037446912192
 30
0
 10
28.96222872539833
 20
-6.348342046210224
 30
0
 10
28.8080607024334
 20
-6.508775836588952
 30
0
 10
28.63302831993593
 20
-6.690267773121271
 30
0
 10
28.43650715434921
 20
-6.892925515041092
 30
0
 10
28.43650715434921
 20
-6.892925515041092
 30
0
 10
28.80868512599011
 20
-7.005946178804069
 30
0
 10
28.80868512599011
 20
-7.005946178804069
 30
0
 10
28.80868512599011
 20
-7.005946178804069
 30
0
 10
30.8356716502772
 20
-4.878061420492725
 30
0
 10
30.8356716502772
 20
-4.878061420492725
 30
0
 10
30.8356716502772
 20
-4.878061420492725
 30
0
 10
30.93547176011553
 20
-4.549356247506324
 30
0
 10
30.93547176011553
 20
-4.549356247506324
 30
0
 10
30.93547176011553
 20
-4.549356247506324
 30
0
 10
29.05556928120182
 20
-3.978180947898684
 30
0
 10
29.05556928120182
 20
-3.978180947898684
 30
0
  0
SPLINE
  5
69
100
AcDbEntity
  8
Layer 1
  6
ByLayer
 62
  256
370
    0
100
AcDbSpline
210
0
220
0
230
0
 70
   11
 71
    3
 72
   29
 73
   25
 74
    0
 42
1e-07
 43
1e-07
 40
0
 40
0
 40
0
 40
0
 40
1
 40
1
 40
1
 40
2
 40
2
 40
2
 40
3
 40
3
 40
3
 40
4
 40
4
 40
4
 40
5
 40
5
 40
5
 40
6
 40
6
 40
6
 40
7
 40
7
 40
7
 40
8
 40
8
 40
8
 40
8
 10
26.0422519194877
 20
-6.111750113760691
 30
0
 10
26.2436823461409
 20
-5.85487518164175
 30
0
 10
26.36098784741366
 20
-5.480694748250052
 30
0
 10
26.39539573857259
 20
-4.989531791287339
 30
0
 10
26.42915767432804
 20
-4.498218111397147
 30
0
 10
26.3634424779469
 20
-4.109762063588445
 30
0
 10
26.19825014942917
 20
-3.824185179708016
 30
0
 10
26.03303628906466
 20
-3.538457572900108
 30
0
 10
25.78554924214302
 20
-3.384311081781961
 30
0
 10
25.4557459449707
 20
-3.361594983426095
 30
0
 10
25.12409090897506
 20
-3.338706630295966
 30
0
 10
24.85694528594071
 20
-3.457088723907864
 30
0
 10
24.65366312046419
 20
-3.716569009487525
 30
0
 10
24.45007950913271
 20
-3.976200017994665
 30
0
 10
24.33154669259333
 20
-4.350208196612101
 30
0
 10
24.2977632249911
 20
-4.838765800114094
 30
0
 10
24.26382903446139
 20
-5.331306795270907
 30
0
 10
24.32939350791505
 20
-5.719461397224649
 30
0
 10
24.49398294472286
 20
-6.003035819354276
 30
0
 10
24.65857238153067
 20
-6.286610241483904
 30
0
 10
24.90791116727563
 20
-6.439852395037173
 30
0
 10
25.24202083380451
 20
-6.462869939247998
 30
0
 10
25.57427876151008
 20
-6.485758292378127
 30
0
 10
25.84142438454442
 20
-6.368754236960329
 30
0
 10
26.0422519194877
 20
-6.111750113760691
 30
0
  0
SPLINE
  5
6A
100
AcDbEntity
  8
Layer 1
  6
ByLayer
 62
  256
370
    0
100
AcDbSpline
210
0
220
0
230
0
 70
   11
 71
    3
 72
   38
 73
   34
 74
    0
 42
1e-07
 43
1e-07
 40
0
 40
0
 40
0
 40
0
 40
1
 40
1
 40
1
 40
2
 40
2
 40
2
 40
3
 40
3
 40
3
 40
4
 40
4
 40
4
 40
5
 40
5
 40
5
 40
6
 40
6
 40
6
 40
7
 40
7
 40
7
 40
8
 40
8
 40
8
 40
9
 40
9
 40
9
 40
10
 40
10
 40
10
 40
11
 40
11
 40
11
 40
11
 10
21.37503034269227
 20
-3.525107827894765
 30
0
 10
21.37503034269227
 20
-3.525107827894765
 30
0
 10
21.40112694099303
 20
-3.855212570922048
 30
0
 10
21.40112694099303
 20
-3.855212570922048
 30
0
 10
21.40112694099303
 20
-3.855212570922048
 30
0
 10
22.98440669862673
 20
-3.730370923275307
 30
0
 10
22.98440669862673
 20
-3.730370923275307
 30
0
 10
22.98440669862673
 20
-3.730370923275307
 30
0
 10
22.98671060623249
 20
-3.759094406883577
 30
0
 10
22.98671060623249
 20
-3.759094406883577
 30
0
 10
22.87801784367286
 20
-4.019500561874899
 30
0
 10
22.78112453315021
 20
-4.252410548524571
 30
0
 10
22.69622446128558
 20
-4.457845898679375
 30
0
 10
22.61132438942095
 20
-4.66343197176166
 30
0
 10
22.52071837815888
 20
-4.881441920437626
 30
0
 10
22.42477246889468
 20
-5.111897276554057
 30
0
 10
22.32880502778368
 20
-5.342374164517271
 30
0
 10
22.2382205483684
 20
-5.560233390265758
 30
0
 10
22.15332047650377
 20
-5.765819463348042
 30
0
 10
22.06839887279236
 20
-5.971254813502846
 30
0
 10
21.9715270941165
 20
-6.204164800152518
 30
0
 10
21.86281279971008
 20
-6.464570955143841
 30
0
 10
21.86281279971008
 20
-6.464570955143841
 30
0
 10
22.2504937010346
 20
-6.434017264559031
 30
0
 10
22.2504937010346
 20
-6.434017264559031
 30
0
 10
22.2504937010346
 20
-6.434017264559031
 30
0
 10
23.36074031669671
 20
-3.713037786615144
 30
0
 10
23.36074031669671
 20
-3.713037786615144
 30
0
 10
23.36074031669671
 20
-3.713037786615144
 30
0
 10
23.33371784898428
 20
-3.370487636147395
 30
0
 10
23.33371784898428
 20
-3.370487636147395
 30
0
 10
23.33371784898428
 20
-3.370487636147395
 30
0
 10
21.37503034269227
 20
-3.525107827894765
 30
0
 10
21.37503034269227
 20
-3.525107827894765
 30
0
  0
SPLINE
  5
6B
100
AcDbEntity
  8
Layer 1
  6
ByLayer
 62
  256
370
    0
100
AcDbSpline
210
0
220
0
230
0
 70
   11
 71
    3
 72
   59
 73
   55
 74
    0
 42
1e-07
 43
1e-07
 40
0
 40
0
 40
0
 40
0
 40
1
 40
1
 40
1
 40
2
 40
2
 40
2
 40
3
 40
3
 40
3
 40
4
 40
4
 40
4
 40
5
 40
5
 40
5
 40
6
 40
6
 40
6
 40
7
 40
7
 40
7
 40
8
 40
8
 40
8
 40
9
 40
9
 40
9
 40
10
 40
10
 40
10
 40
11
 40
11
 40
11
 40
12
 40
12
 40
12
 40
13
 40
13
 40
13
 40
14
 40
14
 40
14
 40
15
 40
15
 40
15
 40
16
 40
16
 40
16
 40
17
 40
17
 40
17
 40
18
 40
18
 40
18
 40
18
 10
18.56008588538819
 20
-6.935623167211407
 30
0
 10
18.42129160102619
 20
-6.97937587987408
 30
0
 10
18.28986120826391
 20
-6.9806031951407
 30
0
 10
18.16534253831891
 20
-6.939455835938747
 30
0
 10
18.04082386837391
 20
-6.898157753809315
 30
0
 10
17.93964572034148
 20
-6.820169404761971
 30
0
 10
17.86165737129414
 20
-6.705167811094976
 30
0
 10
17.86165737129414
 20
-6.705167811094976
 30
0
 10
17.49869503007628
 20
-6.81969570413275
 30
0
 10
17.49869503007628
 20
-6.81969570413275
 30
0
 10
17.61322292311405
 20
-7.028037853603234
 30
0
 10
17.77460411475123
 20
-7.170987784394319
 30
0
 10
17.98249409543927
 20
-7.248523964659223
 30
0
 10
18.19021182135306
 20
-7.326060144924128
 30
0
 10
18.41453060113638
 20
-7.326684568480829
 30
0
 10
18.65512745708752
 20
-7.250677149337505
 30
0
 10
19.00181172213757
 20
-7.141359963221171
 30
0
 10
19.22783151781674
 20
-6.923177759770942
 30
0
 10
19.33329450335895
 20
-6.59660423961604
 30
0
 10
19.43862829782046
 20
-6.269879996533659
 30
0
 10
19.41451262942372
 20
-5.863164942653133
 30
0
 10
19.26099056186227
 20
-5.376609800901941
 30
0
 10
19.10897572357562
 20
-4.895265366072191
 30
0
 10
18.89419555191708
 20
-4.56839040006233
 30
0
 10
18.61673617427377
 20
-4.395511202243136
 30
0
 10
18.33929832847724
 20
-4.222933450278902
 30
0
 10
18.04818775997363
 20
-4.18454216746515
 30
0
 10
17.74342600060972
 20
-4.2808110544311
 30
0
 10
17.45309057859029
 20
-4.372472126185528
 30
0
 10
17.24382255970814
 20
-4.538913301816661
 30
0
 10
17.11577266689076
 20
-4.779962326550235
 30
0
 10
16.9875720511459
 20
-5.02101135128381
 30
0
 10
16.96851636674311
 20
-5.284173582663332
 30
0
 10
17.05849795444848
 20
-5.569298297761321
 30
0
 10
17.14524976513643
 20
-5.843980067169648
 30
0
 10
17.30445624024854
 20
-6.042955863289609
 30
0
 10
17.53598818870411
 20
-6.166096495040508
 30
0
 10
17.76769239193395
 20
-6.289237126791407
 30
0
 10
18.01825849294552
 20
-6.308422002274892
 30
0
 10
18.28770802358563
 20
-6.223371207482786
 30
0
 10
18.45645310682252
 20
-6.170079886695327
 30
0
 10
18.59479522240208
 20
-6.084253945419041
 30
0
 10
18.70273437032432
 20
-5.966022574734623
 30
0
 10
18.81065198639977
 20
-5.847812735896988
 30
0
 10
18.87759449804753
 20
-5.709169174462465
 30
0
 10
18.9035619052676
 20
-5.549941167503574
 30
0
 10
18.9035619052676
 20
-5.549941167503574
 30
0
 10
18.93486921048981
 20
-5.539971922443132
 30
0
 10
18.93486921048981
 20
-5.539971922443132
 30
0
 10
19.04466009723537
 20
-5.91951378568375
 30
0
 10
19.06722547266375
 20
-6.228883360259186
 30
0
 10
19.00243614569427
 20
-6.467951455088742
 30
0
 10
18.93764681872479
 20
-6.706998018071515
 30
0
 10
18.79023979564966
 20
-6.862996248012984
 30
0
 10
18.56008588538819
 20
-6.935623167211407
 30
0
  0
SPLINE
  5
6C
100
AcDbEntity
  8
Layer 1
  6
ByLayer
 62
  256
370
    0
100
AcDbSpline
210
0
220
0
230
0
 70
   11
 71
    3
 72
   38
 73
   34
 74
    0
 42
1e-07
 43
1e-07
 40
0
 40
0
 40
0
 40
0
 40
1
 40
1
 40
1
 40
2
 40
2
 40
2
 40
3
 40
3
 40
3
 40
4
 40
4
 40
4
 40
5
 40
5
 40
5
 40
6
 40
6
 40
6
 40
7
 40
7
 40
7
 40
8
 40
8
 40
8
 40
9
 40
9
 40
9
 40
10
 40
10
 40
10
 40
11
 40
11
 40
11
 40
11
 10
14.02845034778412
 20
-5.930882600785075
 30
0
 10
14.02845034778412
 20
-5.930882600785075
 30
0
 10
14.17460852374585
 20
-6.228129745621787
 30
0
 10
14.17460852374585
 20
-6.228129745621787
 30
0
 10
14.17460852374585
 20
-6.228129745621787
 30
0
 10
15.59988758968727
 20
-5.527225069147708
 30
0
 10
15.59988758968727
 20
-5.527225069147708
 30
0
 10
15.59988758968727
 20
-5.527225069147708
 30
0
 10
15.61263444298269
 20
-5.553020221593516
 30
0
 10
15.61263444298269
 20
-5.553020221593516
 30
0
 10
15.60757445898873
 20
-5.835216605529044
 30
0
 10
15.60374179026139
 20
-6.087483722436462
 30
0
 10
15.60066273617145
 20
-6.309800040468991
 30
0
 10
15.59775593685577
 20
-6.532116358501519
 30
0
 10
15.59405245920913
 20
-6.768105399241134
 30
0
 10
15.59006906755431
 20
-7.017767162687833
 30
0
 10
15.58593495297201
 20
-7.267256671360269
 30
0
 10
15.58240373009963
 20
-7.503245712099884
 30
0
 10
15.57932467600968
 20
-7.725712753059891
 30
0
 10
15.57639634484722
 20
-7.948050602939203
 30
0
 10
15.57226223026492
 20
-8.20029618799984
 30
0
 10
15.56735296919844
 20
-8.482341849007888
 30
0
 10
15.56735296919844
 20
-8.482341849007888
 30
0
 10
15.91634114185425
 20
-8.310840689382793
 30
0
 10
15.91634114185425
 20
-8.310840689382793
 30
0
 10
15.91634114185425
 20
-8.310840689382793
 30
0
 10
15.9432128866392
 20
-5.372152708617899
 30
0
 10
15.9432128866392
 20
-5.372152708617899
 30
0
 10
15.9432128866392
 20
-5.372152708617899
 30
0
 10
15.79152102605429
 20
-5.063859726381605
 30
0
 10
15.79152102605429
 20
-5.063859726381605
 30
0
 10
15.79152102605429
 20
-5.063859726381605
 30
0
 10
14.02845034778412
 20
-5.930882600785075
 30
0
 10
14.02845034778412
 20
-5.930882600785075
 30
0
  0
SPLINE
  5
6D
100
AcDbEntity
  8
Layer 1
  6
ByLayer
 62
  256
370
    0
100
AcDbSpline
210
0
220
0
230
0
 70
   11
 71
    3
 72
   65
 73
   61
 74
    0
 42
1e-07
 43
1e-07
 40
0
 40
0
 40
0
 40
0
 40
1
 40
1
 40
1
 40
2
 40
2
 40
2
 40
3
 40
3
 40
3
 40
4
 40
4
 40
4
 40
5
 40
5
 40
5
 40
6
 40
6
 40
6
 40
7
 40
7
 40
7
 40
8
 40
8
 40
8
 40
9
 40
9
 40
9
 40
10
 40
10
 40
10
 40
11
 40
11
 40
11
 40
12
 40
12
 40
12
 40
13
 40
13
 40
13
 40
14
 40
14
 40
14
 40
15
 40
15
 40
15
 40
16
 40
16
 40
16
 40
17
 40
17
 40
17
 40
18
 40
18
 40
18
 40
19
 40
19
 40
19
 40
20
 40
20
 40
20
 40
20
 10
11.12505306389625
 20
-8.984421452289485
 30
0
 10
11.01483154021504
 20
-8.847931075533243
 30
0
 10
10.96815049638991
 20
-8.703904552403017
 30
0
 10
10.98518218719511
 20
-8.552664860600549
 30
0
 10
11.0022354098471
 20
-8.401274445870602
 30
0
 10
11.08007303596696
 20
-8.269693330180841
 30
0
 10
11.21886732032896
 20
-8.157620067676307
 30
0
 10
11.35535769708521
 20
-8.047226289220832
 30
0
 10
11.49507785085887
 20
-8.001471114807359
 30
0
 10
11.63802778164995
 20
-8.020053098580924
 30
0
 10
11.78082698951356
 20
-8.038635082354491
 30
0
 10
11.90181443658618
 20
-8.109259539802112
 30
0
 10
12.00099012286781
 20
-8.23192647092379
 30
0
 10
12.08283267248927
 20
-8.333255341883701
 30
0
 10
12.13089175450851
 20
-8.447503320913299
 30
0
 10
12.14531809185299
 20
-8.574325898464059
 30
0
 10
12.15959370627
 20
-8.701148476014817
 30
0
 10
12.15728979866424
 20
-8.90350477207968
 30
0
 10
12.13840636903571
 20
-9.181394786658645
 30
0
 10
12.13840636903571
 20
-9.181394786658645
 30
0
 10
12.04013502031896
 20
-10.65735981992681
 30
0
 10
12.04013502031896
 20
-10.65735981992681
 30
0
 10
12.04013502031896
 20
-10.65735981992681
 30
0
 10
12.20043961961699
 20
-10.85588344726433
 30
0
 10
12.20043961961699
 20
-10.85588344726433
 30
0
 10
12.20043961961699
 20
-10.85588344726433
 30
0
 10
13.6952665506669
 20
-9.648312884143913
 30
0
 10
13.6952665506669
 20
-9.648312884143913
 30
0
 10
13.6952665506669
 20
-9.648312884143913
 30
0
 10
13.48584780885727
 20
-9.388983321491731
 30
0
 10
13.48584780885727
 20
-9.388983321491731
 30
0
 10
13.48584780885727
 20
-9.388983321491731
 30
0
 10
12.39112565472557
 20
-10.27336086440215
 30
0
 10
12.39112565472557
 20
-10.27336086440215
 30
0
 10
12.39112565472557
 20
-10.27336086440215
 30
0
 10
12.37039048627372
 20
-10.24771643488382
 30
0
 10
12.37039048627372
 20
-10.24771643488382
 30
0
 10
12.37039048627372
 20
-10.24771643488382
 30
0
 10
12.45699157403419
 20
-9.281194896496975
 30
0
 10
12.45699157403419
 20
-9.281194896496975
 30
0
 10
12.49107648749138
 20
-8.897518918674058
 30
0
 10
12.49523213392046
 20
-8.615150279964269
 30
0
 10
12.46958770440214
 20
-8.433981321133693
 30
0
 10
12.44394327488381
 20
-8.252812362303116
 30
0
 10
12.37777590972023
 20
-8.096060517724249
 30
0
 10
12.27091335413713
 20
-7.963704255550307
 30
0
 10
12.11922149355223
 20
-7.775925019757408
 30
0
 10
11.92575785020867
 20
-7.676124909919077
 30
0
 10
11.69039323302575
 20
-7.664153203107833
 30
0
 10
11.45515780692354
 20
-7.65233221922407
 30
0
 10
11.23667415761835
 20
-7.727865937738173
 30
0
 10
11.03509300803767
 20
-7.890775890496925
 30
0
 10
10.81415472819924
 20
-8.069188772939301
 30
0
 10
10.68595411245438
 20
-8.282138737621306
 30
0
 10
10.65046962895631
 20
-8.529496593462245
 30
0
 10
10.61485595437754
 20
-8.776832917456399
 30
0
 10
10.68026970490372
 20
-9.00345560484549
 30
0
 10
10.84653862576059
 20
-9.209343123782734
 30
0
 10
10.84653862576059
 20
-9.209343123782734
 30
0
 10
11.12505306389625
 20
-8.984421452289485
 30
0
 10
11.12505306389625
 20
-8.984421452289485
 30
0
  0
SPLINE
  5
6E
100
AcDbEntity
  8
Layer 1
  6
ByLayer
 62
  256
370
    0
100
AcDbSpline
210
0
220
0
230
0
 70
   11
 71
    3
 72
   38
 73
   34
 74
    0
 42
1e-07
 43
1e-07
 40
0
 40
0
 40
0
 40
0
 40
1
 40
1
 40
1
 40
2
 40
2
 40
2
 40
3
 40
3
 40
3
 40
4
 40
4
 40
4
 40
5
 40
5
 40
5
 40
6
 40
6
 40
6
 40
7
 40
7
 40
7
 40
8
 40
8
 40
8
 40
9
 40
9
 40
9
 40
10
 40
10
 40
10
 40
11
 40
11
 40
11
 40
11
 10
9.511391870452014
 20
-9.8049140057953
 30
0
 10
9.511391870452014
 20
-9.8049140057953
 30
0
 10
9.5325792076863
 20
-9.824421858980527
 30
0
 10
9.5325792076863
 20
-9.824421858980527
 30
0
 10
9.62930026343469
 20
-10.08956502026407
 30
0
 10
9.716353519977597
 20
-10.32632920748786
 30
0
 10
9.79358825438754
 20
-10.53482207988583
 30
0
 10
9.870672265870006
 20
-10.74333648413057
 30
0
 10
9.95219183778973
 20
-10.9648991875257
 30
0
 10
10.0381685019935
 20
-11.19933793529695
 30
0
 10
10.12414516619726
 20
-11.43364749198751
 30
0
 10
10.20568626996377
 20
-11.65518866353586
 30
0
 10
10.28292100437371
 20
-11.8637030677806
 30
0
 10
10.3599834840094
 20
-12.07219594017857
 30
0
 10
10.4470367405523
 20
-12.30911085032984
 30
0
 10
10.54393005107496
 20
-12.5741032886859
 30
0
 10
10.54393005107496
 20
-12.5741032886859
 30
0
 10
10.8076951741644
 20
-12.28852640480547
 30
0
 10
10.8076951741644
 20
-12.28852640480547
 30
0
 10
10.8076951741644
 20
-12.28852640480547
 30
0
 10
9.775932140025635
 20
-9.536842513349297
 30
0
 10
9.775932140025635
 20
-9.536842513349297
 30
0
 10
9.775932140025635
 20
-9.536842513349297
 30
0
 10
9.523514300190737
 20
-9.303609548997883
 30
0
 10
9.523514300190737
 20
-9.303609548997883
 30
0
 10
9.523514300190737
 20
-9.303609548997883
 30
0
 10
8.190197751858701
 20
-10.74671698407547
 30
0
 10
8.190197751858701
 20
-10.74671698407547
 30
0
 10
8.190197751858701
 20
-10.74671698407547
 30
0
 10
8.433399961270556
 20
-10.97148793264124
 30
0
 10
8.433399961270556
 20
-10.97148793264124
 30
0
 10
8.433399961270556
 20
-10.97148793264124
 30
0
 10
9.511391870452014
 20
-9.8049140057953
 30
0
 10
9.511391870452014
 20
-9.8049140057953
 30
0
  0
SPLINE
  5
6F
100
AcDbEntity
  8
Layer 1
  6
ByLayer
 62
  256
370
    0
100
AcDbSpline
210
0
220
0
230
0
 70
   11
 71
    3
 72
   95
 73
   91
 74
    0
 42
1e-07
 43
1e-07
 40
0
 40
0
 40
0
 40
0
 40
1
 40
1
 40
1
 40
2
 40
2
 40
2
 40
3
 40
3
 40
3
 40
4
 40
4
 40
4
 40
5
 40
5
 40
5
 40
6
 40
6
 40
6
 40
7
 40
7
 40
7
 40
8
 40
8
 40
8
 40
9
 40
9
 40
9
 40
10
 40
10
 40
10
 40
11
 40
11
 40
11
 40
12
 40
12
 40
12
 40
13
 40
13
 40
13
 40
14
 40
14
 40
14
 40
15
 40
15
 40
15
 40
16
 40
16
 40
16
 40
17
 40
17
 40
17
 40
18
 40
18
 40
18
 40
19
 40
19
 40
19
 40
20
 40
20
 40
20
 40
21
 40
21
 40
21
 40
22
 40
22
 40
22
 40
23
 40
23
 40
23
 40
24
 40
24
 40
24
 40
25
 40
25
 40
25
 40
26
 40
26
 40
26
 40
27
 40
27
 40
27
 40
28
 40
28
 40
28
 40
29
 40
29
 40
29
 40
30
 40
30
 40
30
 40
30
 10
6.303383550127713
 20
-14.98295711566615
 30
0
 10
6.303383550127713
 20
-14.98295711566615
 30
0
 10
6.48257157905427
 20
-14.67065920992826
 30
0
 10
6.48257157905427
 20
-14.67065920992826
 30
0
 10
6.345004609958888
 20
-14.57423960003483
 30
0
 10
6.265315245015703
 20
-14.45615895227789
 30
0
 10
6.243503484224715
 20
-14.31643879850422
 30
0
 10
6.22171325528051
 20
-14.17656792180308
 30
0
 10
6.255173745180999
 20
-14.02933315350222
 30
0
 10
6.344078740547227
 20
-13.87471296175485
 30
0
 10
6.433435904695894
 20
-13.71888698658764
 30
0
 10
6.54598286782965
 20
-13.62214439899247
 30
0
 10
6.681396652246752
 20
-13.5845282626629
 30
0
 10
6.816961159591333
 20
-13.54676140340585
 30
0
 10
6.944709606553753
 20
-13.56243658786373
 30
0
 10
7.06492190714219
 20
-13.63136002941551
 30
0
 10
7.198204038727793
 20
-13.70781961734128
 30
0
 10
7.280348034204219
 20
-13.81791194994179
 30
0
 10
7.31182759420069
 20
-13.96178775014454
 30
0
 10
7.343134899422897
 20
-14.10549129557302
 30
0
 10
7.316112431710469
 20
-14.25164947153474
 30
0
 10
7.230760191063404
 20
-14.40043453280397
 30
0
 10
7.230760191063404
 20
-14.40043453280397
 30
0
 10
7.05572780856593
 20
-14.70551926986963
 30
0
 10
7.05572780856593
 20
-14.70551926986963
 30
0
 10
7.147216625546095
 20
-14.75801391232612
 30
0
 10
7.238899229147306
 20
-14.81068080955688
 30
0
 10
7.330388046127473
 20
-14.86319698386016
 30
0
 10
7.330388046127473
 20
-14.86319698386016
 30
0
 10
7.513710189636329
 20
-14.5438366323775
 30
0
 10
7.513710189636329
 20
-14.5438366323775
 30
0
 10
7.617515222976264
 20
-14.36296911940188
 30
0
 10
7.742959762332924
 20
-14.24521144934668
 30
0
 10
7.889893084778829
 20
-14.19039136743765
 30
0
 10
8.036826407224735
 20
-14.13557128552861
 30
0
 10
8.184513344308039
 20
-14.15077276935727
 30
0
 10
8.333298405577265
 20
-14.23614654185112
 30
0
 10
8.477174205780013
 20
-14.31874270610999
 30
0
 10
8.562677169354556
 20
-14.4397301531826
 30
0
 10
8.589850359994465
 20
-14.59925960599645
 30
0
 10
8.616872827706894
 20
-14.75863833588282
 30
0
 10
8.581560598983083
 20
-14.92352921854559
 30
0
 10
8.483913673823032
 20
-15.09365233997659
 30
0
 10
8.389044356897966
 20
-15.25901692326858
 30
0
 10
8.270511540358587
 20
-15.37246822396721
 30
0
 10
8.128487478979164
 20
-15.43389858283857
 30
0
 10
7.986312694672259
 20
-15.49560885571811
 30
0
 10
7.843362763881173
 20
-15.49453226337897
 30
0
 10
7.699659218452689
 20
-15.43097025167611
 30
0
 10
7.699659218452689
 20
-15.43097025167611
 30
0
 10
7.521397058937794
 20
-15.74141641859069
 30
0
 10
7.521397058937794
 20
-15.74141641859069
 30
0
 10
7.747093876915224
 20
-15.85519069699106
 30
0
 10
7.973415118449355
 20
-15.86733465857657
 30
0
 10
8.200339251693405
 20
-15.77765451672616
 30
0
 10
8.427263384937456
 20
-15.68814662965001
 30
0
 10
8.615968490142015
 20
-15.51251135544262
 30
0
 10
8.76611005775856
 20
-15.25087788518468
 30
0
 10
8.912892657276986
 20
-14.99507954540488
 30
0
 10
8.964332239241122
 20
-14.73882903684264
 30
0
 10
8.920428803650969
 20
-14.48180338179622
 30
0
 10
8.876676090988296
 20
-14.22494998152406
 30
0
 10
8.746925182275074
 20
-14.03471611519792
 30
0
 10
8.531671309987308
 20
-13.9111017828178
 30
0
 10
8.352031112278311
 20
-13.80809342780883
 30
0
 10
8.178075322119978
 20
-13.7756879984007
 30
0
 10
8.009653216584827
 20
-13.81423000414193
 30
0
 10
7.841209579202892
 20
-13.85292273281064
 30
0
 10
7.696127995580309
 20
-13.94796430450997
 30
0
 10
7.57436540202351
 20
-14.09935471923992
 30
0
 10
7.57436540202351
 20
-14.09935471923992
 30
0
 10
7.545814173189502
 20
-14.08307664307211
 30
0
 10
7.545814173189502
 20
-14.08307664307211
 30
0
 10
7.583581032446553
 20
-13.92908087488145
 30
0
 10
7.576518586701791
 20
-13.77999436775726
 30
0
 10
7.524928281810174
 20
-13.63581712169955
 30
0
 10
7.473337976918558
 20
-13.49148915271437
 30
0
 10
7.370631067764547
 20
-13.37433437436909
 30
0
 10
7.21663529957388
 20
-13.2843743185105
 30
0
 10
7.036521401235662
 20
-13.17951422467821
 30
0
 10
6.83799777389814
 20
-13.15755174095974
 30
0
 10
6.620892162787052
 20
-13.21880984505684
 30
0
 10
6.403808083522746
 20
-13.28006794915394
 30
0
 10
6.222316146990428
 20
-13.43791791791873
 30
0
 10
6.076157971028704
 20
-13.69246741058513
 30
0
 10
5.926597763275296
 20
-13.95302428850393
 30
0
 10
5.87716064306196
 20
-14.19898257430399
 30
0
 10
5.927674355614436
 20
-14.43053605460634
 30
0
 10
5.978360322941174
 20
-14.66206800306191
 30
0
 10
6.103481884596092
 20
-14.84614376120817
 30
0
 10
6.303383550127713
 20
-14.98295711566615
 30
0
  0
SPLINE
  5
70
100
AcDbEntity
  8
Layer 1
  6
ByLayer
 62
  256
370
    0
100
AcDbSpline
210
0
220
0
230
0
 70
   11
 71
    3
 72
   59
 73
   55
 74
    0
 42
1e-07
 43
1e-07
 40
0
 40
0
 40
0
 40
0
 40
1
 40
1
 40
1
 40
2
 40
2
 40
2
 40
3
 40
3
 40
3
 40
4
 40
4
 40
4
 40
5
 40
5
 40
5
 40
6
 40
6
 40
6
 40
7
 40
7
 40
7
 40
8
 40
8
 40
8
 40
9
 40
9
 40
9
 40
10
 40
10
 40
10
 40
11
 40
11
 40
11
 40
12
 40
12
 40
12
 40
13
 40
13
 40
13
 40
14
 40
14
 40
14
 40
15
 40
15
 40
15
 40
16
 40
16
 40
16
 40
17
 40
17
 40
17
 40
18
 40
18
 40
18
 40
18
 10
5.792562017052294
 20
-18.221346871801
 30
0
 10
6.259329391610081
 20
-18.3989846077592
 30
0
 10
6.647462461717041
 20
-18.43369394477309
 30
0
 10
6.957155013994218
 20
-18.32560407392337
 30
0
 10
7.266826034424613
 20
-18.21751420307366
 30
0
 10
7.479022384469221
 20
-18.01285399940304
 30
0
 10
7.593722532281257
 20
-17.71160193106472
 30
0
 10
7.701963126058451
 20
-17.42695091659595
 30
0
 10
7.70118797957427
 20
-17.15948231585987
 30
0
 10
7.590944924046275
 20
-16.90921766070325
 30
0
 10
7.480701868518279
 20
-16.65880228261915
 30
0
 10
7.2866353334648
 20
-16.48071237787852
 30
0
 10
7.008422341184093
 20
-16.37492641463457
 30
0
 10
6.73912353347147
 20
-16.27234869656125
 30
0
 10
6.484401786030809
 20
-16.27372673475535
 30
0
 10
6.244127907781416
 20
-16.37890980628939
 30
0
 10
6.00368177475776
 20
-16.48409287782342
 30
0
 10
5.833257207471807
 20
-16.66879305952638
 30
0
 10
5.732681951149295
 20
-16.9327089055433
 30
0
 10
5.669895085930617
 20
-17.09807348883529
 30
0
 10
5.651162379229571
 20
-17.2599068492549
 30
0
 10
5.676957531675379
 20
-17.41788600910039
 30
0
 10
5.702601961193707
 20
-17.57588670079266
 30
0
 10
5.769845918696427
 20
-17.71453026222719
 30
0
 10
5.878560213102843
 20
-17.83366597047648
 30
0
 10
5.878560213102843
 20
-17.83366597047648
 30
0
 10
5.866889952146559
 20
-17.86437038398877
 30
0
 10
5.866889952146559
 20
-17.86437038398877
 30
0
 10
5.492408072899901
 20
-17.71453026222719
 30
0
 10
5.23430582551434
 20
-17.53887345617301
 30
0
 10
5.092281764134916
 20
-17.33729230659233
 30
0
 10
4.950257702755492
 20
-17.13584034809234
 30
0
 10
4.923235235043063
 20
-16.91966060639292
 30
0
 10
5.011063638070151
 20
-16.68890380442152
 30
0
 10
5.064807127640049
 20
-16.54795633538124
 30
0
 10
5.144496492583234
 20
-16.44247181799225
 30
0
 10
5.250282455827187
 20
-16.37277322995629
 30
0
 10
5.356068419071139
 20
-16.30290238714606
 30
0
 10
5.479209050822038
 20
-16.27850680474114
 30
0
 10
5.619381373378141
 20
-16.29969414197543
 30
0
 10
5.619381373378141
 20
-16.29969414197543
 30
0
 10
5.754795157795242
 20
-15.94394496942981
 30
0
 10
5.754795157795242
 20
-15.94394496942981
 30
0
 10
5.525717839872911
 20
-15.89788834916138
 30
0
 10
5.316600543918246
 20
-15.92982007794029
 30
0
 10
5.127141824076288
 20
-16.03974015576654
 30
0
 10
4.937833827161809
 20
-16.1495310425121
 30
0
 10
4.795185342225683
 20
-16.33085072427015
 30
0
 10
4.699088710033996
 20
-16.58326856410505
 30
0
 10
4.574096339459775
 20
-16.91152156830901
 30
0
 10
4.605877345311204
 20
-17.22121412058619
 30
0
 10
4.794582450515764
 20
-17.5123246890898
 30
0
 10
4.983115300946062
 20
-17.80358598052089
 30
0
 10
5.315846929280847
 20
-18.03987646711547
 30
0
 10
5.792562017052294
 20
-18.221346871801
 30
0
  0
SPLINE
  5
71
100
AcDbEntity
  8
Layer 1
  6
ByLayer
 62
  256
370
    0
100
AcDbSpline
210
0
220
0
230
0
 70
   11
 71
    3
 72
   41
 73
   37
 74
    0
 42
1e-07
 43
1e-07
 40
0
 40
0
 40
0
 40
0
 40
1
 40
1
 40
1
 40
2
 40
2
 40
2
 40
3
 40
3
 40
3
 40
4
 40
4
 40
4
 40
5
 40
5
 40
5
 40
6
 40
6
 40
6
 40
7
 40
7
 40
7
 40
8
 40
8
 40
8
 40
9
 40
9
 40
9
 40
10
 40
10
 40
10
 40
11
 40
11
 40
11
 40
12
 40
12
 40
12
 40
12
 10
4.262422857278579
 20
-23.2963600948161
 30
0
 10
4.458944022865299
 20
-23.31616939385629
 30
0
 10
4.666984726480823
 20
-23.3372060081631
 30
0
 10
4.886695691052632
 20
-23.35931921480904
 30
0
 10
5.10640665562444
 20
-23.38143242145499
 30
0
 10
5.314619614014227
 20
-23.40244750391501
 30
0
 10
5.511140779600948
 20
-23.4222568029552
 30
0
 10
5.707661945187668
 20
-23.44206610199539
 30
0
 10
5.929978263220197
 20
-23.46448075449629
 30
0
 10
6.178412711400275
 20
-23.48935003753044
 30
0
 10
6.216631739439766
 20
-23.49335496103204
 30
0
 10
6.247809853581277
 20
-23.47815347720338
 30
0
 10
6.271903990131243
 20
-23.44406856374619
 30
0
 10
6.296019658527992
 20
-23.409983650289
 30
0
 10
6.300928919594473
 20
-23.37497286742015
 30
0
 10
6.286653305177469
 20
-23.33903621513964
 30
0
 10
6.286653305177469
 20
-23.33903621513964
 30
0
 10
5.246600510027326
 20
-20.7115695477735
 30
0
 10
5.246600510027326
 20
-20.7115695477735
 30
0
 10
5.232152640836059
 20
-20.67703246553387
 30
0
 10
5.203149243219612
 20
-20.65752461234864
 30
0
 10
5.159374998710157
 20
-20.6530675200646
 30
0
 10
5.115773008974963
 20
-20.64878268255482
 30
0
 10
5.083389111413615
 20
-20.66198170463268
 30
0
 10
5.062352497106808
 20
-20.69298756399993
 30
0
 10
5.062352497106808
 20
-20.69298756399993
 30
0
 10
3.518992783408446
 20
-23.06022033114901
 30
0
 10
3.518992783408446
 20
-23.06022033114901
 30
0
 10
3.49780544617416
 20
-23.09247503762966
 30
0
 10
3.495350815640919
 20
-23.12778726635347
 30
0
 10
3.511478168881245
 20
-23.16585557146548
 30
0
 10
3.527583990274788
 20
-23.20409613135175
 30
0
 10
3.555532327398878
 20
-23.22513274565856
 30
0
 10
3.595000202551771
 20
-23.22911613731338
 30
0
 10
3.843413118885067
 20
-23.25413614327501
 30
0
 10
4.065901691691858
 20
-23.27655079577591
 30
0
 10
4.262422857278579
 20
-23.2963600948161
 30
0
  0
ENDBLK
  5
50
330
4E
100
AcDbEntity
  8
0
100
AcDbBlockEnd
  0
ENDSEC
  0
SECTION
  2
ENTITIES
  0
INSERT
  5
72
100
AcDbEntity
  8
Layer 1
  6
ByLayer
 62
  256
370
   -1
100
AcDbBlockReference
  2
block 2
 10
0
 20
0
 30
0
 41
1
 42
1
 43
0
 50
0
 70
    1
 71
    1
 44
0
 45
0
  0
ENDSEC
  0
SECTION
  2
OBJECTS
  0
DICTIONARY
  5
C
330
0
100
AcDbDictionary
281
    1
  3
ACAD_GROUP
350
D
  0
DICTIONARY
  5
D
330
C
100
AcDbDictionary
281
    1
  0
ENDSEC
  0
EOF
