G04 #@! TF.FileFunction,Soldermask,Top*
%FSLAX46Y46*%
G04 Gerber Fmt 4.6, Leading zero omitted, Abs format (unit mm)*
G04 Created by KiCad (PCBNEW 4.0.6+dfsg1-1) date Tue Apr 17 11:31:54 2018*
%MOMM*%
%LPD*%
G01*
G04 APERTURE LIST*
%ADD10C,0.100000*%
%ADD11R,0.900000X1.300000*%
%ADD12R,1.200000X1.200000*%
%ADD13C,7.900000*%
%ADD14R,1.200000X0.900000*%
%ADD15R,1.200000X0.700000*%
%ADD16R,2.100000X2.100000*%
%ADD17O,2.100000X2.100000*%
%ADD18R,2.127200X2.432000*%
%ADD19O,2.127200X2.432000*%
%ADD20R,2.432000X2.127200*%
%ADD21O,2.432000X2.127200*%
%ADD22R,3.600000X1.400000*%
%ADD23R,1.400000X3.600000*%
%ADD24C,1.000000*%
%ADD25C,0.254000*%
G04 APERTURE END LIST*
D10*
D11*
X166850000Y-190700000D03*
X165350000Y-190700000D03*
D12*
X165350000Y-188700000D03*
X166950000Y-188700000D03*
D13*
X222188458Y-66616445D03*
D14*
X135650000Y-95500000D03*
D15*
X135650000Y-96400000D03*
D14*
X135650000Y-97300000D03*
X137350000Y-97300000D03*
D15*
X137350000Y-96400000D03*
D14*
X137350000Y-95500000D03*
X214850000Y-100376087D03*
D15*
X214850000Y-99476087D03*
D14*
X214850000Y-98576087D03*
X213150000Y-98576087D03*
D15*
X213150000Y-99476087D03*
D14*
X213150000Y-100376087D03*
X135650000Y-101747826D03*
D15*
X135650000Y-102647826D03*
D14*
X135650000Y-103547826D03*
X137350000Y-103547826D03*
D15*
X137350000Y-102647826D03*
D14*
X137350000Y-101747826D03*
X214850000Y-106628261D03*
D15*
X214850000Y-105728261D03*
D14*
X214850000Y-104828261D03*
X213150000Y-104828261D03*
D15*
X213150000Y-105728261D03*
D14*
X213150000Y-106628261D03*
X135650000Y-107995652D03*
D15*
X135650000Y-108895652D03*
D14*
X135650000Y-109795652D03*
X137350000Y-109795652D03*
D15*
X137350000Y-108895652D03*
D14*
X137350000Y-107995652D03*
X214850000Y-112880435D03*
D15*
X214850000Y-111980435D03*
D14*
X214850000Y-111080435D03*
X213150000Y-111080435D03*
D15*
X213150000Y-111980435D03*
D14*
X213150000Y-112880435D03*
X135650000Y-114243478D03*
D15*
X135650000Y-115143478D03*
D14*
X135650000Y-116043478D03*
X137350000Y-116043478D03*
D15*
X137350000Y-115143478D03*
D14*
X137350000Y-114243478D03*
X214850000Y-119132609D03*
D15*
X214850000Y-118232609D03*
D14*
X214850000Y-117332609D03*
X213150000Y-117332609D03*
D15*
X213150000Y-118232609D03*
D14*
X213150000Y-119132609D03*
X135650000Y-120491304D03*
D15*
X135650000Y-121391304D03*
D14*
X135650000Y-122291304D03*
X137350000Y-122291304D03*
D15*
X137350000Y-121391304D03*
D14*
X137350000Y-120491304D03*
X214850000Y-125384783D03*
D15*
X214850000Y-124484783D03*
D14*
X214850000Y-123584783D03*
X213150000Y-123584783D03*
D15*
X213150000Y-124484783D03*
D14*
X213150000Y-125384783D03*
X135650000Y-126739130D03*
D15*
X135650000Y-127639130D03*
D14*
X135650000Y-128539130D03*
X137350000Y-128539130D03*
D15*
X137350000Y-127639130D03*
D14*
X137350000Y-126739130D03*
X214850000Y-131636957D03*
D15*
X214850000Y-130736957D03*
D14*
X214850000Y-129836957D03*
X213150000Y-129836957D03*
D15*
X213150000Y-130736957D03*
D14*
X213150000Y-131636957D03*
X135650000Y-132986956D03*
D15*
X135650000Y-133886956D03*
D14*
X135650000Y-134786956D03*
X137350000Y-134786956D03*
D15*
X137350000Y-133886956D03*
D14*
X137350000Y-132986956D03*
X214850000Y-137889131D03*
D15*
X214850000Y-136989131D03*
D14*
X214850000Y-136089131D03*
X213150000Y-136089131D03*
D15*
X213150000Y-136989131D03*
D14*
X213150000Y-137889131D03*
X135650000Y-139234782D03*
D15*
X135650000Y-140134782D03*
D14*
X135650000Y-141034782D03*
X137350000Y-141034782D03*
D15*
X137350000Y-140134782D03*
D14*
X137350000Y-139234782D03*
X214850000Y-144141305D03*
D15*
X214850000Y-143241305D03*
D14*
X214850000Y-142341305D03*
X213150000Y-142341305D03*
D15*
X213150000Y-143241305D03*
D14*
X213150000Y-144141305D03*
X135650000Y-145482608D03*
D15*
X135650000Y-146382608D03*
D14*
X135650000Y-147282608D03*
X137350000Y-147282608D03*
D15*
X137350000Y-146382608D03*
D14*
X137350000Y-145482608D03*
X214850000Y-150393479D03*
D15*
X214850000Y-149493479D03*
D14*
X214850000Y-148593479D03*
X213150000Y-148593479D03*
D15*
X213150000Y-149493479D03*
D14*
X213150000Y-150393479D03*
X135650000Y-151730434D03*
D15*
X135650000Y-152630434D03*
D14*
X135650000Y-153530434D03*
X137350000Y-153530434D03*
D15*
X137350000Y-152630434D03*
D14*
X137350000Y-151730434D03*
X214850000Y-156645653D03*
D15*
X214850000Y-155745653D03*
D14*
X214850000Y-154845653D03*
X213150000Y-154845653D03*
D15*
X213150000Y-155745653D03*
D14*
X213150000Y-156645653D03*
X135650000Y-157978260D03*
D15*
X135650000Y-158878260D03*
D14*
X135650000Y-159778260D03*
X137350000Y-159778260D03*
D15*
X137350000Y-158878260D03*
D14*
X137350000Y-157978260D03*
X214850000Y-162897827D03*
D15*
X214850000Y-161997827D03*
D14*
X214850000Y-161097827D03*
X213150000Y-161097827D03*
D15*
X213150000Y-161997827D03*
D14*
X213150000Y-162897827D03*
X135650000Y-164226086D03*
D15*
X135650000Y-165126086D03*
D14*
X135650000Y-166026086D03*
X137350000Y-166026086D03*
D15*
X137350000Y-165126086D03*
D14*
X137350000Y-164226086D03*
X214850000Y-169150001D03*
D15*
X214850000Y-168250001D03*
D14*
X214850000Y-167350001D03*
X213150000Y-167350001D03*
D15*
X213150000Y-168250001D03*
D14*
X213150000Y-169150001D03*
X139019565Y-95500000D03*
D15*
X139019565Y-96400000D03*
D14*
X139019565Y-97300000D03*
X140719565Y-97300000D03*
D15*
X140719565Y-96400000D03*
D14*
X140719565Y-95500000D03*
X211480435Y-100376087D03*
D15*
X211480435Y-99476087D03*
D14*
X211480435Y-98576087D03*
X209780435Y-98576087D03*
D15*
X209780435Y-99476087D03*
D14*
X209780435Y-100376087D03*
X139019565Y-101747826D03*
D15*
X139019565Y-102647826D03*
D14*
X139019565Y-103547826D03*
X140719565Y-103547826D03*
D15*
X140719565Y-102647826D03*
D14*
X140719565Y-101747826D03*
X211480435Y-106628261D03*
D15*
X211480435Y-105728261D03*
D14*
X211480435Y-104828261D03*
X209780435Y-104828261D03*
D15*
X209780435Y-105728261D03*
D14*
X209780435Y-106628261D03*
X139019565Y-107995652D03*
D15*
X139019565Y-108895652D03*
D14*
X139019565Y-109795652D03*
X140719565Y-109795652D03*
D15*
X140719565Y-108895652D03*
D14*
X140719565Y-107995652D03*
X211480435Y-112880435D03*
D15*
X211480435Y-111980435D03*
D14*
X211480435Y-111080435D03*
X209780435Y-111080435D03*
D15*
X209780435Y-111980435D03*
D14*
X209780435Y-112880435D03*
X139019565Y-114243478D03*
D15*
X139019565Y-115143478D03*
D14*
X139019565Y-116043478D03*
X140719565Y-116043478D03*
D15*
X140719565Y-115143478D03*
D14*
X140719565Y-114243478D03*
X211480435Y-119132609D03*
D15*
X211480435Y-118232609D03*
D14*
X211480435Y-117332609D03*
X209780435Y-117332609D03*
D15*
X209780435Y-118232609D03*
D14*
X209780435Y-119132609D03*
X139019565Y-120491304D03*
D15*
X139019565Y-121391304D03*
D14*
X139019565Y-122291304D03*
X140719565Y-122291304D03*
D15*
X140719565Y-121391304D03*
D14*
X140719565Y-120491304D03*
X211480435Y-125384783D03*
D15*
X211480435Y-124484783D03*
D14*
X211480435Y-123584783D03*
X209780435Y-123584783D03*
D15*
X209780435Y-124484783D03*
D14*
X209780435Y-125384783D03*
X139019565Y-126739130D03*
D15*
X139019565Y-127639130D03*
D14*
X139019565Y-128539130D03*
X140719565Y-128539130D03*
D15*
X140719565Y-127639130D03*
D14*
X140719565Y-126739130D03*
X211480435Y-131636957D03*
D15*
X211480435Y-130736957D03*
D14*
X211480435Y-129836957D03*
X209780435Y-129836957D03*
D15*
X209780435Y-130736957D03*
D14*
X209780435Y-131636957D03*
X139019565Y-132986956D03*
D15*
X139019565Y-133886956D03*
D14*
X139019565Y-134786956D03*
X140719565Y-134786956D03*
D15*
X140719565Y-133886956D03*
D14*
X140719565Y-132986956D03*
X211480435Y-137889131D03*
D15*
X211480435Y-136989131D03*
D14*
X211480435Y-136089131D03*
X209780435Y-136089131D03*
D15*
X209780435Y-136989131D03*
D14*
X209780435Y-137889131D03*
X139019565Y-139234782D03*
D15*
X139019565Y-140134782D03*
D14*
X139019565Y-141034782D03*
X140719565Y-141034782D03*
D15*
X140719565Y-140134782D03*
D14*
X140719565Y-139234782D03*
X211480435Y-144141305D03*
D15*
X211480435Y-143241305D03*
D14*
X211480435Y-142341305D03*
X209780435Y-142341305D03*
D15*
X209780435Y-143241305D03*
D14*
X209780435Y-144141305D03*
X139019565Y-145482608D03*
D15*
X139019565Y-146382608D03*
D14*
X139019565Y-147282608D03*
X140719565Y-147282608D03*
D15*
X140719565Y-146382608D03*
D14*
X140719565Y-145482608D03*
X211480435Y-150393479D03*
D15*
X211480435Y-149493479D03*
D14*
X211480435Y-148593479D03*
X209780435Y-148593479D03*
D15*
X209780435Y-149493479D03*
D14*
X209780435Y-150393479D03*
X139019565Y-151730434D03*
D15*
X139019565Y-152630434D03*
D14*
X139019565Y-153530434D03*
X140719565Y-153530434D03*
D15*
X140719565Y-152630434D03*
D14*
X140719565Y-151730434D03*
X211480435Y-156645653D03*
D15*
X211480435Y-155745653D03*
D14*
X211480435Y-154845653D03*
X209780435Y-154845653D03*
D15*
X209780435Y-155745653D03*
D14*
X209780435Y-156645653D03*
X139019565Y-157978260D03*
D15*
X139019565Y-158878260D03*
D14*
X139019565Y-159778260D03*
X140719565Y-159778260D03*
D15*
X140719565Y-158878260D03*
D14*
X140719565Y-157978260D03*
X211480435Y-162897827D03*
D15*
X211480435Y-161997827D03*
D14*
X211480435Y-161097827D03*
X209780435Y-161097827D03*
D15*
X209780435Y-161997827D03*
D14*
X209780435Y-162897827D03*
X139019565Y-164226086D03*
D15*
X139019565Y-165126086D03*
D14*
X139019565Y-166026086D03*
X140719565Y-166026086D03*
D15*
X140719565Y-165126086D03*
D14*
X140719565Y-164226086D03*
X211480435Y-169150001D03*
D15*
X211480435Y-168250001D03*
D14*
X211480435Y-167350001D03*
X209780435Y-167350001D03*
D15*
X209780435Y-168250001D03*
D14*
X209780435Y-169150001D03*
X142389130Y-95500000D03*
D15*
X142389130Y-96400000D03*
D14*
X142389130Y-97300000D03*
X144089130Y-97300000D03*
D15*
X144089130Y-96400000D03*
D14*
X144089130Y-95500000D03*
X208110870Y-100376087D03*
D15*
X208110870Y-99476087D03*
D14*
X208110870Y-98576087D03*
X206410870Y-98576087D03*
D15*
X206410870Y-99476087D03*
D14*
X206410870Y-100376087D03*
X142389130Y-101747826D03*
D15*
X142389130Y-102647826D03*
D14*
X142389130Y-103547826D03*
X144089130Y-103547826D03*
D15*
X144089130Y-102647826D03*
D14*
X144089130Y-101747826D03*
X208110870Y-106628261D03*
D15*
X208110870Y-105728261D03*
D14*
X208110870Y-104828261D03*
X206410870Y-104828261D03*
D15*
X206410870Y-105728261D03*
D14*
X206410870Y-106628261D03*
X142389130Y-107995652D03*
D15*
X142389130Y-108895652D03*
D14*
X142389130Y-109795652D03*
X144089130Y-109795652D03*
D15*
X144089130Y-108895652D03*
D14*
X144089130Y-107995652D03*
X208110870Y-112880435D03*
D15*
X208110870Y-111980435D03*
D14*
X208110870Y-111080435D03*
X206410870Y-111080435D03*
D15*
X206410870Y-111980435D03*
D14*
X206410870Y-112880435D03*
X142389130Y-114243478D03*
D15*
X142389130Y-115143478D03*
D14*
X142389130Y-116043478D03*
X144089130Y-116043478D03*
D15*
X144089130Y-115143478D03*
D14*
X144089130Y-114243478D03*
X208110870Y-119132609D03*
D15*
X208110870Y-118232609D03*
D14*
X208110870Y-117332609D03*
X206410870Y-117332609D03*
D15*
X206410870Y-118232609D03*
D14*
X206410870Y-119132609D03*
X142389130Y-120491304D03*
D15*
X142389130Y-121391304D03*
D14*
X142389130Y-122291304D03*
X144089130Y-122291304D03*
D15*
X144089130Y-121391304D03*
D14*
X144089130Y-120491304D03*
X208110870Y-125384783D03*
D15*
X208110870Y-124484783D03*
D14*
X208110870Y-123584783D03*
X206410870Y-123584783D03*
D15*
X206410870Y-124484783D03*
D14*
X206410870Y-125384783D03*
X142389130Y-126739130D03*
D15*
X142389130Y-127639130D03*
D14*
X142389130Y-128539130D03*
X144089130Y-128539130D03*
D15*
X144089130Y-127639130D03*
D14*
X144089130Y-126739130D03*
X208110870Y-131636957D03*
D15*
X208110870Y-130736957D03*
D14*
X208110870Y-129836957D03*
X206410870Y-129836957D03*
D15*
X206410870Y-130736957D03*
D14*
X206410870Y-131636957D03*
X142389130Y-132986956D03*
D15*
X142389130Y-133886956D03*
D14*
X142389130Y-134786956D03*
X144089130Y-134786956D03*
D15*
X144089130Y-133886956D03*
D14*
X144089130Y-132986956D03*
X208110870Y-137889131D03*
D15*
X208110870Y-136989131D03*
D14*
X208110870Y-136089131D03*
X206410870Y-136089131D03*
D15*
X206410870Y-136989131D03*
D14*
X206410870Y-137889131D03*
X142389130Y-139234782D03*
D15*
X142389130Y-140134782D03*
D14*
X142389130Y-141034782D03*
X144089130Y-141034782D03*
D15*
X144089130Y-140134782D03*
D14*
X144089130Y-139234782D03*
X208110870Y-144141305D03*
D15*
X208110870Y-143241305D03*
D14*
X208110870Y-142341305D03*
X206410870Y-142341305D03*
D15*
X206410870Y-143241305D03*
D14*
X206410870Y-144141305D03*
X142389130Y-145482608D03*
D15*
X142389130Y-146382608D03*
D14*
X142389130Y-147282608D03*
X144089130Y-147282608D03*
D15*
X144089130Y-146382608D03*
D14*
X144089130Y-145482608D03*
X208110870Y-150393479D03*
D15*
X208110870Y-149493479D03*
D14*
X208110870Y-148593479D03*
X206410870Y-148593479D03*
D15*
X206410870Y-149493479D03*
D14*
X206410870Y-150393479D03*
X142389130Y-151730434D03*
D15*
X142389130Y-152630434D03*
D14*
X142389130Y-153530434D03*
X144089130Y-153530434D03*
D15*
X144089130Y-152630434D03*
D14*
X144089130Y-151730434D03*
X208110870Y-156645653D03*
D15*
X208110870Y-155745653D03*
D14*
X208110870Y-154845653D03*
X206410870Y-154845653D03*
D15*
X206410870Y-155745653D03*
D14*
X206410870Y-156645653D03*
X142389130Y-157978260D03*
D15*
X142389130Y-158878260D03*
D14*
X142389130Y-159778260D03*
X144089130Y-159778260D03*
D15*
X144089130Y-158878260D03*
D14*
X144089130Y-157978260D03*
X208110870Y-162897827D03*
D15*
X208110870Y-161997827D03*
D14*
X208110870Y-161097827D03*
X206410870Y-161097827D03*
D15*
X206410870Y-161997827D03*
D14*
X206410870Y-162897827D03*
X142389130Y-164226086D03*
D15*
X142389130Y-165126086D03*
D14*
X142389130Y-166026086D03*
X144089130Y-166026086D03*
D15*
X144089130Y-165126086D03*
D14*
X144089130Y-164226086D03*
X208110870Y-169150001D03*
D15*
X208110870Y-168250001D03*
D14*
X208110870Y-167350001D03*
X206410870Y-167350001D03*
D15*
X206410870Y-168250001D03*
D14*
X206410870Y-169150001D03*
X145758695Y-95500000D03*
D15*
X145758695Y-96400000D03*
D14*
X145758695Y-97300000D03*
X147458695Y-97300000D03*
D15*
X147458695Y-96400000D03*
D14*
X147458695Y-95500000D03*
X204741305Y-100376087D03*
D15*
X204741305Y-99476087D03*
D14*
X204741305Y-98576087D03*
X203041305Y-98576087D03*
D15*
X203041305Y-99476087D03*
D14*
X203041305Y-100376087D03*
X145758695Y-101747826D03*
D15*
X145758695Y-102647826D03*
D14*
X145758695Y-103547826D03*
X147458695Y-103547826D03*
D15*
X147458695Y-102647826D03*
D14*
X147458695Y-101747826D03*
X204741305Y-106628261D03*
D15*
X204741305Y-105728261D03*
D14*
X204741305Y-104828261D03*
X203041305Y-104828261D03*
D15*
X203041305Y-105728261D03*
D14*
X203041305Y-106628261D03*
X145758695Y-107995652D03*
D15*
X145758695Y-108895652D03*
D14*
X145758695Y-109795652D03*
X147458695Y-109795652D03*
D15*
X147458695Y-108895652D03*
D14*
X147458695Y-107995652D03*
X204741305Y-112880435D03*
D15*
X204741305Y-111980435D03*
D14*
X204741305Y-111080435D03*
X203041305Y-111080435D03*
D15*
X203041305Y-111980435D03*
D14*
X203041305Y-112880435D03*
X145758695Y-114243478D03*
D15*
X145758695Y-115143478D03*
D14*
X145758695Y-116043478D03*
X147458695Y-116043478D03*
D15*
X147458695Y-115143478D03*
D14*
X147458695Y-114243478D03*
X204741305Y-119132609D03*
D15*
X204741305Y-118232609D03*
D14*
X204741305Y-117332609D03*
X203041305Y-117332609D03*
D15*
X203041305Y-118232609D03*
D14*
X203041305Y-119132609D03*
X145758695Y-120491304D03*
D15*
X145758695Y-121391304D03*
D14*
X145758695Y-122291304D03*
X147458695Y-122291304D03*
D15*
X147458695Y-121391304D03*
D14*
X147458695Y-120491304D03*
X204741305Y-125384783D03*
D15*
X204741305Y-124484783D03*
D14*
X204741305Y-123584783D03*
X203041305Y-123584783D03*
D15*
X203041305Y-124484783D03*
D14*
X203041305Y-125384783D03*
X145758695Y-126739130D03*
D15*
X145758695Y-127639130D03*
D14*
X145758695Y-128539130D03*
X147458695Y-128539130D03*
D15*
X147458695Y-127639130D03*
D14*
X147458695Y-126739130D03*
X204741305Y-131636957D03*
D15*
X204741305Y-130736957D03*
D14*
X204741305Y-129836957D03*
X203041305Y-129836957D03*
D15*
X203041305Y-130736957D03*
D14*
X203041305Y-131636957D03*
X145758695Y-132986956D03*
D15*
X145758695Y-133886956D03*
D14*
X145758695Y-134786956D03*
X147458695Y-134786956D03*
D15*
X147458695Y-133886956D03*
D14*
X147458695Y-132986956D03*
X204741305Y-137889131D03*
D15*
X204741305Y-136989131D03*
D14*
X204741305Y-136089131D03*
X203041305Y-136089131D03*
D15*
X203041305Y-136989131D03*
D14*
X203041305Y-137889131D03*
X145758695Y-139234782D03*
D15*
X145758695Y-140134782D03*
D14*
X145758695Y-141034782D03*
X147458695Y-141034782D03*
D15*
X147458695Y-140134782D03*
D14*
X147458695Y-139234782D03*
X204741305Y-144141305D03*
D15*
X204741305Y-143241305D03*
D14*
X204741305Y-142341305D03*
X203041305Y-142341305D03*
D15*
X203041305Y-143241305D03*
D14*
X203041305Y-144141305D03*
X145758695Y-145482608D03*
D15*
X145758695Y-146382608D03*
D14*
X145758695Y-147282608D03*
X147458695Y-147282608D03*
D15*
X147458695Y-146382608D03*
D14*
X147458695Y-145482608D03*
X204741305Y-150393479D03*
D15*
X204741305Y-149493479D03*
D14*
X204741305Y-148593479D03*
X203041305Y-148593479D03*
D15*
X203041305Y-149493479D03*
D14*
X203041305Y-150393479D03*
X145758695Y-151730434D03*
D15*
X145758695Y-152630434D03*
D14*
X145758695Y-153530434D03*
X147458695Y-153530434D03*
D15*
X147458695Y-152630434D03*
D14*
X147458695Y-151730434D03*
X204741305Y-156645653D03*
D15*
X204741305Y-155745653D03*
D14*
X204741305Y-154845653D03*
X203041305Y-154845653D03*
D15*
X203041305Y-155745653D03*
D14*
X203041305Y-156645653D03*
X145758695Y-157978260D03*
D15*
X145758695Y-158878260D03*
D14*
X145758695Y-159778260D03*
X147458695Y-159778260D03*
D15*
X147458695Y-158878260D03*
D14*
X147458695Y-157978260D03*
X204741305Y-162897827D03*
D15*
X204741305Y-161997827D03*
D14*
X204741305Y-161097827D03*
X203041305Y-161097827D03*
D15*
X203041305Y-161997827D03*
D14*
X203041305Y-162897827D03*
X145758695Y-164226086D03*
D15*
X145758695Y-165126086D03*
D14*
X145758695Y-166026086D03*
X147458695Y-166026086D03*
D15*
X147458695Y-165126086D03*
D14*
X147458695Y-164226086D03*
X204741305Y-169150001D03*
D15*
X204741305Y-168250001D03*
D14*
X204741305Y-167350001D03*
X203041305Y-167350001D03*
D15*
X203041305Y-168250001D03*
D14*
X203041305Y-169150001D03*
X149128260Y-95500000D03*
D15*
X149128260Y-96400000D03*
D14*
X149128260Y-97300000D03*
X150828260Y-97300000D03*
D15*
X150828260Y-96400000D03*
D14*
X150828260Y-95500000D03*
X201371740Y-100376087D03*
D15*
X201371740Y-99476087D03*
D14*
X201371740Y-98576087D03*
X199671740Y-98576087D03*
D15*
X199671740Y-99476087D03*
D14*
X199671740Y-100376087D03*
X149128260Y-101747826D03*
D15*
X149128260Y-102647826D03*
D14*
X149128260Y-103547826D03*
X150828260Y-103547826D03*
D15*
X150828260Y-102647826D03*
D14*
X150828260Y-101747826D03*
X201371740Y-106628261D03*
D15*
X201371740Y-105728261D03*
D14*
X201371740Y-104828261D03*
X199671740Y-104828261D03*
D15*
X199671740Y-105728261D03*
D14*
X199671740Y-106628261D03*
X149128260Y-107995652D03*
D15*
X149128260Y-108895652D03*
D14*
X149128260Y-109795652D03*
X150828260Y-109795652D03*
D15*
X150828260Y-108895652D03*
D14*
X150828260Y-107995652D03*
X201371740Y-112880435D03*
D15*
X201371740Y-111980435D03*
D14*
X201371740Y-111080435D03*
X199671740Y-111080435D03*
D15*
X199671740Y-111980435D03*
D14*
X199671740Y-112880435D03*
X149128260Y-114243478D03*
D15*
X149128260Y-115143478D03*
D14*
X149128260Y-116043478D03*
X150828260Y-116043478D03*
D15*
X150828260Y-115143478D03*
D14*
X150828260Y-114243478D03*
X201371740Y-119132609D03*
D15*
X201371740Y-118232609D03*
D14*
X201371740Y-117332609D03*
X199671740Y-117332609D03*
D15*
X199671740Y-118232609D03*
D14*
X199671740Y-119132609D03*
X149128260Y-120491304D03*
D15*
X149128260Y-121391304D03*
D14*
X149128260Y-122291304D03*
X150828260Y-122291304D03*
D15*
X150828260Y-121391304D03*
D14*
X150828260Y-120491304D03*
X201371740Y-125384783D03*
D15*
X201371740Y-124484783D03*
D14*
X201371740Y-123584783D03*
X199671740Y-123584783D03*
D15*
X199671740Y-124484783D03*
D14*
X199671740Y-125384783D03*
X149128260Y-126739130D03*
D15*
X149128260Y-127639130D03*
D14*
X149128260Y-128539130D03*
X150828260Y-128539130D03*
D15*
X150828260Y-127639130D03*
D14*
X150828260Y-126739130D03*
X201371740Y-131636957D03*
D15*
X201371740Y-130736957D03*
D14*
X201371740Y-129836957D03*
X199671740Y-129836957D03*
D15*
X199671740Y-130736957D03*
D14*
X199671740Y-131636957D03*
X149128260Y-132986956D03*
D15*
X149128260Y-133886956D03*
D14*
X149128260Y-134786956D03*
X150828260Y-134786956D03*
D15*
X150828260Y-133886956D03*
D14*
X150828260Y-132986956D03*
X201371740Y-137889131D03*
D15*
X201371740Y-136989131D03*
D14*
X201371740Y-136089131D03*
X199671740Y-136089131D03*
D15*
X199671740Y-136989131D03*
D14*
X199671740Y-137889131D03*
X149128260Y-139234782D03*
D15*
X149128260Y-140134782D03*
D14*
X149128260Y-141034782D03*
X150828260Y-141034782D03*
D15*
X150828260Y-140134782D03*
D14*
X150828260Y-139234782D03*
X201371740Y-144141305D03*
D15*
X201371740Y-143241305D03*
D14*
X201371740Y-142341305D03*
X199671740Y-142341305D03*
D15*
X199671740Y-143241305D03*
D14*
X199671740Y-144141305D03*
X149128260Y-145482608D03*
D15*
X149128260Y-146382608D03*
D14*
X149128260Y-147282608D03*
X150828260Y-147282608D03*
D15*
X150828260Y-146382608D03*
D14*
X150828260Y-145482608D03*
X201371740Y-150393479D03*
D15*
X201371740Y-149493479D03*
D14*
X201371740Y-148593479D03*
X199671740Y-148593479D03*
D15*
X199671740Y-149493479D03*
D14*
X199671740Y-150393479D03*
X149128260Y-151730434D03*
D15*
X149128260Y-152630434D03*
D14*
X149128260Y-153530434D03*
X150828260Y-153530434D03*
D15*
X150828260Y-152630434D03*
D14*
X150828260Y-151730434D03*
X201371740Y-156645653D03*
D15*
X201371740Y-155745653D03*
D14*
X201371740Y-154845653D03*
X199671740Y-154845653D03*
D15*
X199671740Y-155745653D03*
D14*
X199671740Y-156645653D03*
X149128260Y-157978260D03*
D15*
X149128260Y-158878260D03*
D14*
X149128260Y-159778260D03*
X150828260Y-159778260D03*
D15*
X150828260Y-158878260D03*
D14*
X150828260Y-157978260D03*
X201371740Y-162897827D03*
D15*
X201371740Y-161997827D03*
D14*
X201371740Y-161097827D03*
X199671740Y-161097827D03*
D15*
X199671740Y-161997827D03*
D14*
X199671740Y-162897827D03*
X149128260Y-164226086D03*
D15*
X149128260Y-165126086D03*
D14*
X149128260Y-166026086D03*
X150828260Y-166026086D03*
D15*
X150828260Y-165126086D03*
D14*
X150828260Y-164226086D03*
X201371740Y-169150001D03*
D15*
X201371740Y-168250001D03*
D14*
X201371740Y-167350001D03*
X199671740Y-167350001D03*
D15*
X199671740Y-168250001D03*
D14*
X199671740Y-169150001D03*
X152497825Y-95500000D03*
D15*
X152497825Y-96400000D03*
D14*
X152497825Y-97300000D03*
X154197825Y-97300000D03*
D15*
X154197825Y-96400000D03*
D14*
X154197825Y-95500000D03*
X198002175Y-100376087D03*
D15*
X198002175Y-99476087D03*
D14*
X198002175Y-98576087D03*
X196302175Y-98576087D03*
D15*
X196302175Y-99476087D03*
D14*
X196302175Y-100376087D03*
X152497825Y-101747826D03*
D15*
X152497825Y-102647826D03*
D14*
X152497825Y-103547826D03*
X154197825Y-103547826D03*
D15*
X154197825Y-102647826D03*
D14*
X154197825Y-101747826D03*
X198002175Y-106628261D03*
D15*
X198002175Y-105728261D03*
D14*
X198002175Y-104828261D03*
X196302175Y-104828261D03*
D15*
X196302175Y-105728261D03*
D14*
X196302175Y-106628261D03*
X152497825Y-107995652D03*
D15*
X152497825Y-108895652D03*
D14*
X152497825Y-109795652D03*
X154197825Y-109795652D03*
D15*
X154197825Y-108895652D03*
D14*
X154197825Y-107995652D03*
X198002175Y-112880435D03*
D15*
X198002175Y-111980435D03*
D14*
X198002175Y-111080435D03*
X196302175Y-111080435D03*
D15*
X196302175Y-111980435D03*
D14*
X196302175Y-112880435D03*
X152497825Y-114243478D03*
D15*
X152497825Y-115143478D03*
D14*
X152497825Y-116043478D03*
X154197825Y-116043478D03*
D15*
X154197825Y-115143478D03*
D14*
X154197825Y-114243478D03*
X198002175Y-119132609D03*
D15*
X198002175Y-118232609D03*
D14*
X198002175Y-117332609D03*
X196302175Y-117332609D03*
D15*
X196302175Y-118232609D03*
D14*
X196302175Y-119132609D03*
X152497825Y-120491304D03*
D15*
X152497825Y-121391304D03*
D14*
X152497825Y-122291304D03*
X154197825Y-122291304D03*
D15*
X154197825Y-121391304D03*
D14*
X154197825Y-120491304D03*
X198002175Y-125384783D03*
D15*
X198002175Y-124484783D03*
D14*
X198002175Y-123584783D03*
X196302175Y-123584783D03*
D15*
X196302175Y-124484783D03*
D14*
X196302175Y-125384783D03*
X152497825Y-126739130D03*
D15*
X152497825Y-127639130D03*
D14*
X152497825Y-128539130D03*
X154197825Y-128539130D03*
D15*
X154197825Y-127639130D03*
D14*
X154197825Y-126739130D03*
X198002175Y-131636957D03*
D15*
X198002175Y-130736957D03*
D14*
X198002175Y-129836957D03*
X196302175Y-129836957D03*
D15*
X196302175Y-130736957D03*
D14*
X196302175Y-131636957D03*
X152497825Y-132986956D03*
D15*
X152497825Y-133886956D03*
D14*
X152497825Y-134786956D03*
X154197825Y-134786956D03*
D15*
X154197825Y-133886956D03*
D14*
X154197825Y-132986956D03*
X198002175Y-137889131D03*
D15*
X198002175Y-136989131D03*
D14*
X198002175Y-136089131D03*
X196302175Y-136089131D03*
D15*
X196302175Y-136989131D03*
D14*
X196302175Y-137889131D03*
X152497825Y-139234782D03*
D15*
X152497825Y-140134782D03*
D14*
X152497825Y-141034782D03*
X154197825Y-141034782D03*
D15*
X154197825Y-140134782D03*
D14*
X154197825Y-139234782D03*
X198002175Y-144141305D03*
D15*
X198002175Y-143241305D03*
D14*
X198002175Y-142341305D03*
X196302175Y-142341305D03*
D15*
X196302175Y-143241305D03*
D14*
X196302175Y-144141305D03*
X152497825Y-145482608D03*
D15*
X152497825Y-146382608D03*
D14*
X152497825Y-147282608D03*
X154197825Y-147282608D03*
D15*
X154197825Y-146382608D03*
D14*
X154197825Y-145482608D03*
X198002175Y-150393479D03*
D15*
X198002175Y-149493479D03*
D14*
X198002175Y-148593479D03*
X196302175Y-148593479D03*
D15*
X196302175Y-149493479D03*
D14*
X196302175Y-150393479D03*
X152497825Y-151730434D03*
D15*
X152497825Y-152630434D03*
D14*
X152497825Y-153530434D03*
X154197825Y-153530434D03*
D15*
X154197825Y-152630434D03*
D14*
X154197825Y-151730434D03*
X198002175Y-156645653D03*
D15*
X198002175Y-155745653D03*
D14*
X198002175Y-154845653D03*
X196302175Y-154845653D03*
D15*
X196302175Y-155745653D03*
D14*
X196302175Y-156645653D03*
X152497825Y-157978260D03*
D15*
X152497825Y-158878260D03*
D14*
X152497825Y-159778260D03*
X154197825Y-159778260D03*
D15*
X154197825Y-158878260D03*
D14*
X154197825Y-157978260D03*
X198002175Y-162897827D03*
D15*
X198002175Y-161997827D03*
D14*
X198002175Y-161097827D03*
X196302175Y-161097827D03*
D15*
X196302175Y-161997827D03*
D14*
X196302175Y-162897827D03*
X152497825Y-164226086D03*
D15*
X152497825Y-165126086D03*
D14*
X152497825Y-166026086D03*
X154197825Y-166026086D03*
D15*
X154197825Y-165126086D03*
D14*
X154197825Y-164226086D03*
X198002175Y-169150001D03*
D15*
X198002175Y-168250001D03*
D14*
X198002175Y-167350001D03*
X196302175Y-167350001D03*
D15*
X196302175Y-168250001D03*
D14*
X196302175Y-169150001D03*
X155867390Y-95500000D03*
D15*
X155867390Y-96400000D03*
D14*
X155867390Y-97300000D03*
X157567390Y-97300000D03*
D15*
X157567390Y-96400000D03*
D14*
X157567390Y-95500000D03*
X194632610Y-100376087D03*
D15*
X194632610Y-99476087D03*
D14*
X194632610Y-98576087D03*
X192932610Y-98576087D03*
D15*
X192932610Y-99476087D03*
D14*
X192932610Y-100376087D03*
X155867390Y-101747826D03*
D15*
X155867390Y-102647826D03*
D14*
X155867390Y-103547826D03*
X157567390Y-103547826D03*
D15*
X157567390Y-102647826D03*
D14*
X157567390Y-101747826D03*
X194632610Y-106628261D03*
D15*
X194632610Y-105728261D03*
D14*
X194632610Y-104828261D03*
X192932610Y-104828261D03*
D15*
X192932610Y-105728261D03*
D14*
X192932610Y-106628261D03*
X155867390Y-107995652D03*
D15*
X155867390Y-108895652D03*
D14*
X155867390Y-109795652D03*
X157567390Y-109795652D03*
D15*
X157567390Y-108895652D03*
D14*
X157567390Y-107995652D03*
X194632610Y-112880435D03*
D15*
X194632610Y-111980435D03*
D14*
X194632610Y-111080435D03*
X192932610Y-111080435D03*
D15*
X192932610Y-111980435D03*
D14*
X192932610Y-112880435D03*
X155867390Y-114243478D03*
D15*
X155867390Y-115143478D03*
D14*
X155867390Y-116043478D03*
X157567390Y-116043478D03*
D15*
X157567390Y-115143478D03*
D14*
X157567390Y-114243478D03*
X194632610Y-119132609D03*
D15*
X194632610Y-118232609D03*
D14*
X194632610Y-117332609D03*
X192932610Y-117332609D03*
D15*
X192932610Y-118232609D03*
D14*
X192932610Y-119132609D03*
X155867390Y-120491304D03*
D15*
X155867390Y-121391304D03*
D14*
X155867390Y-122291304D03*
X157567390Y-122291304D03*
D15*
X157567390Y-121391304D03*
D14*
X157567390Y-120491304D03*
X194632610Y-125384783D03*
D15*
X194632610Y-124484783D03*
D14*
X194632610Y-123584783D03*
X192932610Y-123584783D03*
D15*
X192932610Y-124484783D03*
D14*
X192932610Y-125384783D03*
X155867390Y-126739130D03*
D15*
X155867390Y-127639130D03*
D14*
X155867390Y-128539130D03*
X157567390Y-128539130D03*
D15*
X157567390Y-127639130D03*
D14*
X157567390Y-126739130D03*
X194632610Y-131636957D03*
D15*
X194632610Y-130736957D03*
D14*
X194632610Y-129836957D03*
X192932610Y-129836957D03*
D15*
X192932610Y-130736957D03*
D14*
X192932610Y-131636957D03*
X155867390Y-132986956D03*
D15*
X155867390Y-133886956D03*
D14*
X155867390Y-134786956D03*
X157567390Y-134786956D03*
D15*
X157567390Y-133886956D03*
D14*
X157567390Y-132986956D03*
X194632610Y-137889131D03*
D15*
X194632610Y-136989131D03*
D14*
X194632610Y-136089131D03*
X192932610Y-136089131D03*
D15*
X192932610Y-136989131D03*
D14*
X192932610Y-137889131D03*
X155867390Y-139234782D03*
D15*
X155867390Y-140134782D03*
D14*
X155867390Y-141034782D03*
X157567390Y-141034782D03*
D15*
X157567390Y-140134782D03*
D14*
X157567390Y-139234782D03*
X194632610Y-144141305D03*
D15*
X194632610Y-143241305D03*
D14*
X194632610Y-142341305D03*
X192932610Y-142341305D03*
D15*
X192932610Y-143241305D03*
D14*
X192932610Y-144141305D03*
X155867390Y-145482608D03*
D15*
X155867390Y-146382608D03*
D14*
X155867390Y-147282608D03*
X157567390Y-147282608D03*
D15*
X157567390Y-146382608D03*
D14*
X157567390Y-145482608D03*
X194632610Y-150393479D03*
D15*
X194632610Y-149493479D03*
D14*
X194632610Y-148593479D03*
X192932610Y-148593479D03*
D15*
X192932610Y-149493479D03*
D14*
X192932610Y-150393479D03*
X155867390Y-151730434D03*
D15*
X155867390Y-152630434D03*
D14*
X155867390Y-153530434D03*
X157567390Y-153530434D03*
D15*
X157567390Y-152630434D03*
D14*
X157567390Y-151730434D03*
X194632610Y-156645653D03*
D15*
X194632610Y-155745653D03*
D14*
X194632610Y-154845653D03*
X192932610Y-154845653D03*
D15*
X192932610Y-155745653D03*
D14*
X192932610Y-156645653D03*
X155867390Y-157978260D03*
D15*
X155867390Y-158878260D03*
D14*
X155867390Y-159778260D03*
X157567390Y-159778260D03*
D15*
X157567390Y-158878260D03*
D14*
X157567390Y-157978260D03*
X194632610Y-162897827D03*
D15*
X194632610Y-161997827D03*
D14*
X194632610Y-161097827D03*
X192932610Y-161097827D03*
D15*
X192932610Y-161997827D03*
D14*
X192932610Y-162897827D03*
X155867390Y-164226086D03*
D15*
X155867390Y-165126086D03*
D14*
X155867390Y-166026086D03*
X157567390Y-166026086D03*
D15*
X157567390Y-165126086D03*
D14*
X157567390Y-164226086D03*
X194632610Y-169150001D03*
D15*
X194632610Y-168250001D03*
D14*
X194632610Y-167350001D03*
X192932610Y-167350001D03*
D15*
X192932610Y-168250001D03*
D14*
X192932610Y-169150001D03*
X159236955Y-95500000D03*
D15*
X159236955Y-96400000D03*
D14*
X159236955Y-97300000D03*
X160936955Y-97300000D03*
D15*
X160936955Y-96400000D03*
D14*
X160936955Y-95500000D03*
X191263045Y-100376087D03*
D15*
X191263045Y-99476087D03*
D14*
X191263045Y-98576087D03*
X189563045Y-98576087D03*
D15*
X189563045Y-99476087D03*
D14*
X189563045Y-100376087D03*
X159236955Y-101747826D03*
D15*
X159236955Y-102647826D03*
D14*
X159236955Y-103547826D03*
X160936955Y-103547826D03*
D15*
X160936955Y-102647826D03*
D14*
X160936955Y-101747826D03*
X191263045Y-106628261D03*
D15*
X191263045Y-105728261D03*
D14*
X191263045Y-104828261D03*
X189563045Y-104828261D03*
D15*
X189563045Y-105728261D03*
D14*
X189563045Y-106628261D03*
X159236955Y-107995652D03*
D15*
X159236955Y-108895652D03*
D14*
X159236955Y-109795652D03*
X160936955Y-109795652D03*
D15*
X160936955Y-108895652D03*
D14*
X160936955Y-107995652D03*
X191263045Y-112880435D03*
D15*
X191263045Y-111980435D03*
D14*
X191263045Y-111080435D03*
X189563045Y-111080435D03*
D15*
X189563045Y-111980435D03*
D14*
X189563045Y-112880435D03*
X159236955Y-114243478D03*
D15*
X159236955Y-115143478D03*
D14*
X159236955Y-116043478D03*
X160936955Y-116043478D03*
D15*
X160936955Y-115143478D03*
D14*
X160936955Y-114243478D03*
X191263045Y-119132609D03*
D15*
X191263045Y-118232609D03*
D14*
X191263045Y-117332609D03*
X189563045Y-117332609D03*
D15*
X189563045Y-118232609D03*
D14*
X189563045Y-119132609D03*
X159236955Y-120491304D03*
D15*
X159236955Y-121391304D03*
D14*
X159236955Y-122291304D03*
X160936955Y-122291304D03*
D15*
X160936955Y-121391304D03*
D14*
X160936955Y-120491304D03*
X191263045Y-125384783D03*
D15*
X191263045Y-124484783D03*
D14*
X191263045Y-123584783D03*
X189563045Y-123584783D03*
D15*
X189563045Y-124484783D03*
D14*
X189563045Y-125384783D03*
X159236955Y-126739130D03*
D15*
X159236955Y-127639130D03*
D14*
X159236955Y-128539130D03*
X160936955Y-128539130D03*
D15*
X160936955Y-127639130D03*
D14*
X160936955Y-126739130D03*
X191263045Y-131636957D03*
D15*
X191263045Y-130736957D03*
D14*
X191263045Y-129836957D03*
X189563045Y-129836957D03*
D15*
X189563045Y-130736957D03*
D14*
X189563045Y-131636957D03*
X159236955Y-132986956D03*
D15*
X159236955Y-133886956D03*
D14*
X159236955Y-134786956D03*
X160936955Y-134786956D03*
D15*
X160936955Y-133886956D03*
D14*
X160936955Y-132986956D03*
X191263045Y-137889131D03*
D15*
X191263045Y-136989131D03*
D14*
X191263045Y-136089131D03*
X189563045Y-136089131D03*
D15*
X189563045Y-136989131D03*
D14*
X189563045Y-137889131D03*
X159236955Y-139234782D03*
D15*
X159236955Y-140134782D03*
D14*
X159236955Y-141034782D03*
X160936955Y-141034782D03*
D15*
X160936955Y-140134782D03*
D14*
X160936955Y-139234782D03*
X191263045Y-144141305D03*
D15*
X191263045Y-143241305D03*
D14*
X191263045Y-142341305D03*
X189563045Y-142341305D03*
D15*
X189563045Y-143241305D03*
D14*
X189563045Y-144141305D03*
X159236955Y-145482608D03*
D15*
X159236955Y-146382608D03*
D14*
X159236955Y-147282608D03*
X160936955Y-147282608D03*
D15*
X160936955Y-146382608D03*
D14*
X160936955Y-145482608D03*
X191263045Y-150393479D03*
D15*
X191263045Y-149493479D03*
D14*
X191263045Y-148593479D03*
X189563045Y-148593479D03*
D15*
X189563045Y-149493479D03*
D14*
X189563045Y-150393479D03*
X159236955Y-151730434D03*
D15*
X159236955Y-152630434D03*
D14*
X159236955Y-153530434D03*
X160936955Y-153530434D03*
D15*
X160936955Y-152630434D03*
D14*
X160936955Y-151730434D03*
X191263045Y-156645653D03*
D15*
X191263045Y-155745653D03*
D14*
X191263045Y-154845653D03*
X189563045Y-154845653D03*
D15*
X189563045Y-155745653D03*
D14*
X189563045Y-156645653D03*
X159236955Y-157978260D03*
D15*
X159236955Y-158878260D03*
D14*
X159236955Y-159778260D03*
X160936955Y-159778260D03*
D15*
X160936955Y-158878260D03*
D14*
X160936955Y-157978260D03*
X191263045Y-162897827D03*
D15*
X191263045Y-161997827D03*
D14*
X191263045Y-161097827D03*
X189563045Y-161097827D03*
D15*
X189563045Y-161997827D03*
D14*
X189563045Y-162897827D03*
X159236955Y-164226086D03*
D15*
X159236955Y-165126086D03*
D14*
X159236955Y-166026086D03*
X160936955Y-166026086D03*
D15*
X160936955Y-165126086D03*
D14*
X160936955Y-164226086D03*
X191263045Y-169150001D03*
D15*
X191263045Y-168250001D03*
D14*
X191263045Y-167350001D03*
X189563045Y-167350001D03*
D15*
X189563045Y-168250001D03*
D14*
X189563045Y-169150001D03*
X162606520Y-95500000D03*
D15*
X162606520Y-96400000D03*
D14*
X162606520Y-97300000D03*
X164306520Y-97300000D03*
D15*
X164306520Y-96400000D03*
D14*
X164306520Y-95500000D03*
X187893480Y-100376087D03*
D15*
X187893480Y-99476087D03*
D14*
X187893480Y-98576087D03*
X186193480Y-98576087D03*
D15*
X186193480Y-99476087D03*
D14*
X186193480Y-100376087D03*
X162606520Y-101747826D03*
D15*
X162606520Y-102647826D03*
D14*
X162606520Y-103547826D03*
X164306520Y-103547826D03*
D15*
X164306520Y-102647826D03*
D14*
X164306520Y-101747826D03*
X187893480Y-106628261D03*
D15*
X187893480Y-105728261D03*
D14*
X187893480Y-104828261D03*
X186193480Y-104828261D03*
D15*
X186193480Y-105728261D03*
D14*
X186193480Y-106628261D03*
X162606520Y-107995652D03*
D15*
X162606520Y-108895652D03*
D14*
X162606520Y-109795652D03*
X164306520Y-109795652D03*
D15*
X164306520Y-108895652D03*
D14*
X164306520Y-107995652D03*
X187893480Y-112880435D03*
D15*
X187893480Y-111980435D03*
D14*
X187893480Y-111080435D03*
X186193480Y-111080435D03*
D15*
X186193480Y-111980435D03*
D14*
X186193480Y-112880435D03*
X162606520Y-114243478D03*
D15*
X162606520Y-115143478D03*
D14*
X162606520Y-116043478D03*
X164306520Y-116043478D03*
D15*
X164306520Y-115143478D03*
D14*
X164306520Y-114243478D03*
X187893480Y-119132609D03*
D15*
X187893480Y-118232609D03*
D14*
X187893480Y-117332609D03*
X186193480Y-117332609D03*
D15*
X186193480Y-118232609D03*
D14*
X186193480Y-119132609D03*
X162606520Y-120491304D03*
D15*
X162606520Y-121391304D03*
D14*
X162606520Y-122291304D03*
X164306520Y-122291304D03*
D15*
X164306520Y-121391304D03*
D14*
X164306520Y-120491304D03*
X187893480Y-125384783D03*
D15*
X187893480Y-124484783D03*
D14*
X187893480Y-123584783D03*
X186193480Y-123584783D03*
D15*
X186193480Y-124484783D03*
D14*
X186193480Y-125384783D03*
X162606520Y-126739130D03*
D15*
X162606520Y-127639130D03*
D14*
X162606520Y-128539130D03*
X164306520Y-128539130D03*
D15*
X164306520Y-127639130D03*
D14*
X164306520Y-126739130D03*
X187893480Y-131636957D03*
D15*
X187893480Y-130736957D03*
D14*
X187893480Y-129836957D03*
X186193480Y-129836957D03*
D15*
X186193480Y-130736957D03*
D14*
X186193480Y-131636957D03*
X162606520Y-132986956D03*
D15*
X162606520Y-133886956D03*
D14*
X162606520Y-134786956D03*
X164306520Y-134786956D03*
D15*
X164306520Y-133886956D03*
D14*
X164306520Y-132986956D03*
X187893480Y-137889131D03*
D15*
X187893480Y-136989131D03*
D14*
X187893480Y-136089131D03*
X186193480Y-136089131D03*
D15*
X186193480Y-136989131D03*
D14*
X186193480Y-137889131D03*
X162606520Y-139234782D03*
D15*
X162606520Y-140134782D03*
D14*
X162606520Y-141034782D03*
X164306520Y-141034782D03*
D15*
X164306520Y-140134782D03*
D14*
X164306520Y-139234782D03*
X187893480Y-144141305D03*
D15*
X187893480Y-143241305D03*
D14*
X187893480Y-142341305D03*
X186193480Y-142341305D03*
D15*
X186193480Y-143241305D03*
D14*
X186193480Y-144141305D03*
X162606520Y-145482608D03*
D15*
X162606520Y-146382608D03*
D14*
X162606520Y-147282608D03*
X164306520Y-147282608D03*
D15*
X164306520Y-146382608D03*
D14*
X164306520Y-145482608D03*
X187893480Y-150393479D03*
D15*
X187893480Y-149493479D03*
D14*
X187893480Y-148593479D03*
X186193480Y-148593479D03*
D15*
X186193480Y-149493479D03*
D14*
X186193480Y-150393479D03*
X162606520Y-151730434D03*
D15*
X162606520Y-152630434D03*
D14*
X162606520Y-153530434D03*
X164306520Y-153530434D03*
D15*
X164306520Y-152630434D03*
D14*
X164306520Y-151730434D03*
X187893480Y-156645653D03*
D15*
X187893480Y-155745653D03*
D14*
X187893480Y-154845653D03*
X186193480Y-154845653D03*
D15*
X186193480Y-155745653D03*
D14*
X186193480Y-156645653D03*
X162606520Y-157978260D03*
D15*
X162606520Y-158878260D03*
D14*
X162606520Y-159778260D03*
X164306520Y-159778260D03*
D15*
X164306520Y-158878260D03*
D14*
X164306520Y-157978260D03*
X187893480Y-162897827D03*
D15*
X187893480Y-161997827D03*
D14*
X187893480Y-161097827D03*
X186193480Y-161097827D03*
D15*
X186193480Y-161997827D03*
D14*
X186193480Y-162897827D03*
X162606520Y-164226086D03*
D15*
X162606520Y-165126086D03*
D14*
X162606520Y-166026086D03*
X164306520Y-166026086D03*
D15*
X164306520Y-165126086D03*
D14*
X164306520Y-164226086D03*
X187893480Y-169150001D03*
D15*
X187893480Y-168250001D03*
D14*
X187893480Y-167350001D03*
X186193480Y-167350001D03*
D15*
X186193480Y-168250001D03*
D14*
X186193480Y-169150001D03*
X165976085Y-95500000D03*
D15*
X165976085Y-96400000D03*
D14*
X165976085Y-97300000D03*
X167676085Y-97300000D03*
D15*
X167676085Y-96400000D03*
D14*
X167676085Y-95500000D03*
X184523915Y-100376087D03*
D15*
X184523915Y-99476087D03*
D14*
X184523915Y-98576087D03*
X182823915Y-98576087D03*
D15*
X182823915Y-99476087D03*
D14*
X182823915Y-100376087D03*
X165976085Y-101747826D03*
D15*
X165976085Y-102647826D03*
D14*
X165976085Y-103547826D03*
X167676085Y-103547826D03*
D15*
X167676085Y-102647826D03*
D14*
X167676085Y-101747826D03*
X184523915Y-106628261D03*
D15*
X184523915Y-105728261D03*
D14*
X184523915Y-104828261D03*
X182823915Y-104828261D03*
D15*
X182823915Y-105728261D03*
D14*
X182823915Y-106628261D03*
X165976085Y-107995652D03*
D15*
X165976085Y-108895652D03*
D14*
X165976085Y-109795652D03*
X167676085Y-109795652D03*
D15*
X167676085Y-108895652D03*
D14*
X167676085Y-107995652D03*
X184523915Y-112880435D03*
D15*
X184523915Y-111980435D03*
D14*
X184523915Y-111080435D03*
X182823915Y-111080435D03*
D15*
X182823915Y-111980435D03*
D14*
X182823915Y-112880435D03*
X165976085Y-114243478D03*
D15*
X165976085Y-115143478D03*
D14*
X165976085Y-116043478D03*
X167676085Y-116043478D03*
D15*
X167676085Y-115143478D03*
D14*
X167676085Y-114243478D03*
X184523915Y-119132609D03*
D15*
X184523915Y-118232609D03*
D14*
X184523915Y-117332609D03*
X182823915Y-117332609D03*
D15*
X182823915Y-118232609D03*
D14*
X182823915Y-119132609D03*
X165976085Y-120491304D03*
D15*
X165976085Y-121391304D03*
D14*
X165976085Y-122291304D03*
X167676085Y-122291304D03*
D15*
X167676085Y-121391304D03*
D14*
X167676085Y-120491304D03*
X184523915Y-125384783D03*
D15*
X184523915Y-124484783D03*
D14*
X184523915Y-123584783D03*
X182823915Y-123584783D03*
D15*
X182823915Y-124484783D03*
D14*
X182823915Y-125384783D03*
X165976085Y-126739130D03*
D15*
X165976085Y-127639130D03*
D14*
X165976085Y-128539130D03*
X167676085Y-128539130D03*
D15*
X167676085Y-127639130D03*
D14*
X167676085Y-126739130D03*
X184523915Y-131636957D03*
D15*
X184523915Y-130736957D03*
D14*
X184523915Y-129836957D03*
X182823915Y-129836957D03*
D15*
X182823915Y-130736957D03*
D14*
X182823915Y-131636957D03*
X165976085Y-132986956D03*
D15*
X165976085Y-133886956D03*
D14*
X165976085Y-134786956D03*
X167676085Y-134786956D03*
D15*
X167676085Y-133886956D03*
D14*
X167676085Y-132986956D03*
X184523915Y-137889131D03*
D15*
X184523915Y-136989131D03*
D14*
X184523915Y-136089131D03*
X182823915Y-136089131D03*
D15*
X182823915Y-136989131D03*
D14*
X182823915Y-137889131D03*
X165976085Y-139234782D03*
D15*
X165976085Y-140134782D03*
D14*
X165976085Y-141034782D03*
X167676085Y-141034782D03*
D15*
X167676085Y-140134782D03*
D14*
X167676085Y-139234782D03*
X184523915Y-144141305D03*
D15*
X184523915Y-143241305D03*
D14*
X184523915Y-142341305D03*
X182823915Y-142341305D03*
D15*
X182823915Y-143241305D03*
D14*
X182823915Y-144141305D03*
X165976085Y-145482608D03*
D15*
X165976085Y-146382608D03*
D14*
X165976085Y-147282608D03*
X167676085Y-147282608D03*
D15*
X167676085Y-146382608D03*
D14*
X167676085Y-145482608D03*
X184523915Y-150393479D03*
D15*
X184523915Y-149493479D03*
D14*
X184523915Y-148593479D03*
X182823915Y-148593479D03*
D15*
X182823915Y-149493479D03*
D14*
X182823915Y-150393479D03*
X165976085Y-151730434D03*
D15*
X165976085Y-152630434D03*
D14*
X165976085Y-153530434D03*
X167676085Y-153530434D03*
D15*
X167676085Y-152630434D03*
D14*
X167676085Y-151730434D03*
X184523915Y-156645653D03*
D15*
X184523915Y-155745653D03*
D14*
X184523915Y-154845653D03*
X182823915Y-154845653D03*
D15*
X182823915Y-155745653D03*
D14*
X182823915Y-156645653D03*
X165976085Y-157978260D03*
D15*
X165976085Y-158878260D03*
D14*
X165976085Y-159778260D03*
X167676085Y-159778260D03*
D15*
X167676085Y-158878260D03*
D14*
X167676085Y-157978260D03*
X184523915Y-162897827D03*
D15*
X184523915Y-161997827D03*
D14*
X184523915Y-161097827D03*
X182823915Y-161097827D03*
D15*
X182823915Y-161997827D03*
D14*
X182823915Y-162897827D03*
X165976085Y-164226086D03*
D15*
X165976085Y-165126086D03*
D14*
X165976085Y-166026086D03*
X167676085Y-166026086D03*
D15*
X167676085Y-165126086D03*
D14*
X167676085Y-164226086D03*
X184523915Y-169150001D03*
D15*
X184523915Y-168250001D03*
D14*
X184523915Y-167350001D03*
X182823915Y-167350001D03*
D15*
X182823915Y-168250001D03*
D14*
X182823915Y-169150001D03*
X169345650Y-95500000D03*
D15*
X169345650Y-96400000D03*
D14*
X169345650Y-97300000D03*
X171045650Y-97300000D03*
D15*
X171045650Y-96400000D03*
D14*
X171045650Y-95500000D03*
X181154350Y-100376087D03*
D15*
X181154350Y-99476087D03*
D14*
X181154350Y-98576087D03*
X179454350Y-98576087D03*
D15*
X179454350Y-99476087D03*
D14*
X179454350Y-100376087D03*
X169345650Y-101747826D03*
D15*
X169345650Y-102647826D03*
D14*
X169345650Y-103547826D03*
X171045650Y-103547826D03*
D15*
X171045650Y-102647826D03*
D14*
X171045650Y-101747826D03*
X181154350Y-106628261D03*
D15*
X181154350Y-105728261D03*
D14*
X181154350Y-104828261D03*
X179454350Y-104828261D03*
D15*
X179454350Y-105728261D03*
D14*
X179454350Y-106628261D03*
X169345650Y-107995652D03*
D15*
X169345650Y-108895652D03*
D14*
X169345650Y-109795652D03*
X171045650Y-109795652D03*
D15*
X171045650Y-108895652D03*
D14*
X171045650Y-107995652D03*
X181154350Y-112880435D03*
D15*
X181154350Y-111980435D03*
D14*
X181154350Y-111080435D03*
X179454350Y-111080435D03*
D15*
X179454350Y-111980435D03*
D14*
X179454350Y-112880435D03*
X169345650Y-114243478D03*
D15*
X169345650Y-115143478D03*
D14*
X169345650Y-116043478D03*
X171045650Y-116043478D03*
D15*
X171045650Y-115143478D03*
D14*
X171045650Y-114243478D03*
X181154350Y-119132609D03*
D15*
X181154350Y-118232609D03*
D14*
X181154350Y-117332609D03*
X179454350Y-117332609D03*
D15*
X179454350Y-118232609D03*
D14*
X179454350Y-119132609D03*
X169345650Y-120491304D03*
D15*
X169345650Y-121391304D03*
D14*
X169345650Y-122291304D03*
X171045650Y-122291304D03*
D15*
X171045650Y-121391304D03*
D14*
X171045650Y-120491304D03*
X181154350Y-125384783D03*
D15*
X181154350Y-124484783D03*
D14*
X181154350Y-123584783D03*
X179454350Y-123584783D03*
D15*
X179454350Y-124484783D03*
D14*
X179454350Y-125384783D03*
X169345650Y-126739130D03*
D15*
X169345650Y-127639130D03*
D14*
X169345650Y-128539130D03*
X171045650Y-128539130D03*
D15*
X171045650Y-127639130D03*
D14*
X171045650Y-126739130D03*
X181154350Y-131636957D03*
D15*
X181154350Y-130736957D03*
D14*
X181154350Y-129836957D03*
X179454350Y-129836957D03*
D15*
X179454350Y-130736957D03*
D14*
X179454350Y-131636957D03*
X169345650Y-132986956D03*
D15*
X169345650Y-133886956D03*
D14*
X169345650Y-134786956D03*
X171045650Y-134786956D03*
D15*
X171045650Y-133886956D03*
D14*
X171045650Y-132986956D03*
X181154350Y-137889131D03*
D15*
X181154350Y-136989131D03*
D14*
X181154350Y-136089131D03*
X179454350Y-136089131D03*
D15*
X179454350Y-136989131D03*
D14*
X179454350Y-137889131D03*
X169345650Y-139234782D03*
D15*
X169345650Y-140134782D03*
D14*
X169345650Y-141034782D03*
X171045650Y-141034782D03*
D15*
X171045650Y-140134782D03*
D14*
X171045650Y-139234782D03*
X181154350Y-144141305D03*
D15*
X181154350Y-143241305D03*
D14*
X181154350Y-142341305D03*
X179454350Y-142341305D03*
D15*
X179454350Y-143241305D03*
D14*
X179454350Y-144141305D03*
X169345650Y-145482608D03*
D15*
X169345650Y-146382608D03*
D14*
X169345650Y-147282608D03*
X171045650Y-147282608D03*
D15*
X171045650Y-146382608D03*
D14*
X171045650Y-145482608D03*
X181154350Y-150393479D03*
D15*
X181154350Y-149493479D03*
D14*
X181154350Y-148593479D03*
X179454350Y-148593479D03*
D15*
X179454350Y-149493479D03*
D14*
X179454350Y-150393479D03*
X169345650Y-151730434D03*
D15*
X169345650Y-152630434D03*
D14*
X169345650Y-153530434D03*
X171045650Y-153530434D03*
D15*
X171045650Y-152630434D03*
D14*
X171045650Y-151730434D03*
X181154350Y-156645653D03*
D15*
X181154350Y-155745653D03*
D14*
X181154350Y-154845653D03*
X179454350Y-154845653D03*
D15*
X179454350Y-155745653D03*
D14*
X179454350Y-156645653D03*
X169345650Y-157978260D03*
D15*
X169345650Y-158878260D03*
D14*
X169345650Y-159778260D03*
X171045650Y-159778260D03*
D15*
X171045650Y-158878260D03*
D14*
X171045650Y-157978260D03*
X181154350Y-162897827D03*
D15*
X181154350Y-161997827D03*
D14*
X181154350Y-161097827D03*
X179454350Y-161097827D03*
D15*
X179454350Y-161997827D03*
D14*
X179454350Y-162897827D03*
X169345650Y-164226086D03*
D15*
X169345650Y-165126086D03*
D14*
X169345650Y-166026086D03*
X171045650Y-166026086D03*
D15*
X171045650Y-165126086D03*
D14*
X171045650Y-164226086D03*
X181154350Y-169150001D03*
D15*
X181154350Y-168250001D03*
D14*
X181154350Y-167350001D03*
X179454350Y-167350001D03*
D15*
X179454350Y-168250001D03*
D14*
X179454350Y-169150001D03*
X172715215Y-95500000D03*
D15*
X172715215Y-96400000D03*
D14*
X172715215Y-97300000D03*
X174415215Y-97300000D03*
D15*
X174415215Y-96400000D03*
D14*
X174415215Y-95500000D03*
X177784785Y-100376087D03*
D15*
X177784785Y-99476087D03*
D14*
X177784785Y-98576087D03*
X176084785Y-98576087D03*
D15*
X176084785Y-99476087D03*
D14*
X176084785Y-100376087D03*
X172715215Y-101747826D03*
D15*
X172715215Y-102647826D03*
D14*
X172715215Y-103547826D03*
X174415215Y-103547826D03*
D15*
X174415215Y-102647826D03*
D14*
X174415215Y-101747826D03*
X177784785Y-106628261D03*
D15*
X177784785Y-105728261D03*
D14*
X177784785Y-104828261D03*
X176084785Y-104828261D03*
D15*
X176084785Y-105728261D03*
D14*
X176084785Y-106628261D03*
X172715215Y-107995652D03*
D15*
X172715215Y-108895652D03*
D14*
X172715215Y-109795652D03*
X174415215Y-109795652D03*
D15*
X174415215Y-108895652D03*
D14*
X174415215Y-107995652D03*
X177784785Y-112880435D03*
D15*
X177784785Y-111980435D03*
D14*
X177784785Y-111080435D03*
X176084785Y-111080435D03*
D15*
X176084785Y-111980435D03*
D14*
X176084785Y-112880435D03*
X172715215Y-114243478D03*
D15*
X172715215Y-115143478D03*
D14*
X172715215Y-116043478D03*
X174415215Y-116043478D03*
D15*
X174415215Y-115143478D03*
D14*
X174415215Y-114243478D03*
X177784785Y-119132609D03*
D15*
X177784785Y-118232609D03*
D14*
X177784785Y-117332609D03*
X176084785Y-117332609D03*
D15*
X176084785Y-118232609D03*
D14*
X176084785Y-119132609D03*
X172715215Y-120491304D03*
D15*
X172715215Y-121391304D03*
D14*
X172715215Y-122291304D03*
X174415215Y-122291304D03*
D15*
X174415215Y-121391304D03*
D14*
X174415215Y-120491304D03*
X177784785Y-125384783D03*
D15*
X177784785Y-124484783D03*
D14*
X177784785Y-123584783D03*
X176084785Y-123584783D03*
D15*
X176084785Y-124484783D03*
D14*
X176084785Y-125384783D03*
X172715215Y-126739130D03*
D15*
X172715215Y-127639130D03*
D14*
X172715215Y-128539130D03*
X174415215Y-128539130D03*
D15*
X174415215Y-127639130D03*
D14*
X174415215Y-126739130D03*
X177784785Y-131636957D03*
D15*
X177784785Y-130736957D03*
D14*
X177784785Y-129836957D03*
X176084785Y-129836957D03*
D15*
X176084785Y-130736957D03*
D14*
X176084785Y-131636957D03*
X172715215Y-132986956D03*
D15*
X172715215Y-133886956D03*
D14*
X172715215Y-134786956D03*
X174415215Y-134786956D03*
D15*
X174415215Y-133886956D03*
D14*
X174415215Y-132986956D03*
X177784785Y-137889131D03*
D15*
X177784785Y-136989131D03*
D14*
X177784785Y-136089131D03*
X176084785Y-136089131D03*
D15*
X176084785Y-136989131D03*
D14*
X176084785Y-137889131D03*
X172715215Y-139234782D03*
D15*
X172715215Y-140134782D03*
D14*
X172715215Y-141034782D03*
X174415215Y-141034782D03*
D15*
X174415215Y-140134782D03*
D14*
X174415215Y-139234782D03*
X177784785Y-144141305D03*
D15*
X177784785Y-143241305D03*
D14*
X177784785Y-142341305D03*
X176084785Y-142341305D03*
D15*
X176084785Y-143241305D03*
D14*
X176084785Y-144141305D03*
X172715215Y-145482608D03*
D15*
X172715215Y-146382608D03*
D14*
X172715215Y-147282608D03*
X174415215Y-147282608D03*
D15*
X174415215Y-146382608D03*
D14*
X174415215Y-145482608D03*
X177784785Y-150393479D03*
D15*
X177784785Y-149493479D03*
D14*
X177784785Y-148593479D03*
X176084785Y-148593479D03*
D15*
X176084785Y-149493479D03*
D14*
X176084785Y-150393479D03*
X172715215Y-151730434D03*
D15*
X172715215Y-152630434D03*
D14*
X172715215Y-153530434D03*
X174415215Y-153530434D03*
D15*
X174415215Y-152630434D03*
D14*
X174415215Y-151730434D03*
X177784785Y-156645653D03*
D15*
X177784785Y-155745653D03*
D14*
X177784785Y-154845653D03*
X176084785Y-154845653D03*
D15*
X176084785Y-155745653D03*
D14*
X176084785Y-156645653D03*
X172715215Y-157978260D03*
D15*
X172715215Y-158878260D03*
D14*
X172715215Y-159778260D03*
X174415215Y-159778260D03*
D15*
X174415215Y-158878260D03*
D14*
X174415215Y-157978260D03*
X177784785Y-162897827D03*
D15*
X177784785Y-161997827D03*
D14*
X177784785Y-161097827D03*
X176084785Y-161097827D03*
D15*
X176084785Y-161997827D03*
D14*
X176084785Y-162897827D03*
X172715215Y-164226086D03*
D15*
X172715215Y-165126086D03*
D14*
X172715215Y-166026086D03*
X174415215Y-166026086D03*
D15*
X174415215Y-165126086D03*
D14*
X174415215Y-164226086D03*
X177784785Y-169150001D03*
D15*
X177784785Y-168250001D03*
D14*
X177784785Y-167350001D03*
X176084785Y-167350001D03*
D15*
X176084785Y-168250001D03*
D14*
X176084785Y-169150001D03*
X176084780Y-95500000D03*
D15*
X176084780Y-96400000D03*
D14*
X176084780Y-97300000D03*
X177784780Y-97300000D03*
D15*
X177784780Y-96400000D03*
D14*
X177784780Y-95500000D03*
X174415220Y-100376087D03*
D15*
X174415220Y-99476087D03*
D14*
X174415220Y-98576087D03*
X172715220Y-98576087D03*
D15*
X172715220Y-99476087D03*
D14*
X172715220Y-100376087D03*
X176084780Y-101747826D03*
D15*
X176084780Y-102647826D03*
D14*
X176084780Y-103547826D03*
X177784780Y-103547826D03*
D15*
X177784780Y-102647826D03*
D14*
X177784780Y-101747826D03*
X174415220Y-106628261D03*
D15*
X174415220Y-105728261D03*
D14*
X174415220Y-104828261D03*
X172715220Y-104828261D03*
D15*
X172715220Y-105728261D03*
D14*
X172715220Y-106628261D03*
X176084780Y-107995652D03*
D15*
X176084780Y-108895652D03*
D14*
X176084780Y-109795652D03*
X177784780Y-109795652D03*
D15*
X177784780Y-108895652D03*
D14*
X177784780Y-107995652D03*
X174415220Y-112880435D03*
D15*
X174415220Y-111980435D03*
D14*
X174415220Y-111080435D03*
X172715220Y-111080435D03*
D15*
X172715220Y-111980435D03*
D14*
X172715220Y-112880435D03*
X176084780Y-114243478D03*
D15*
X176084780Y-115143478D03*
D14*
X176084780Y-116043478D03*
X177784780Y-116043478D03*
D15*
X177784780Y-115143478D03*
D14*
X177784780Y-114243478D03*
X174415220Y-119132609D03*
D15*
X174415220Y-118232609D03*
D14*
X174415220Y-117332609D03*
X172715220Y-117332609D03*
D15*
X172715220Y-118232609D03*
D14*
X172715220Y-119132609D03*
X176084780Y-120491304D03*
D15*
X176084780Y-121391304D03*
D14*
X176084780Y-122291304D03*
X177784780Y-122291304D03*
D15*
X177784780Y-121391304D03*
D14*
X177784780Y-120491304D03*
X174415220Y-125384783D03*
D15*
X174415220Y-124484783D03*
D14*
X174415220Y-123584783D03*
X172715220Y-123584783D03*
D15*
X172715220Y-124484783D03*
D14*
X172715220Y-125384783D03*
X176084780Y-126739130D03*
D15*
X176084780Y-127639130D03*
D14*
X176084780Y-128539130D03*
X177784780Y-128539130D03*
D15*
X177784780Y-127639130D03*
D14*
X177784780Y-126739130D03*
X174415220Y-131636957D03*
D15*
X174415220Y-130736957D03*
D14*
X174415220Y-129836957D03*
X172715220Y-129836957D03*
D15*
X172715220Y-130736957D03*
D14*
X172715220Y-131636957D03*
X176084780Y-132986956D03*
D15*
X176084780Y-133886956D03*
D14*
X176084780Y-134786956D03*
X177784780Y-134786956D03*
D15*
X177784780Y-133886956D03*
D14*
X177784780Y-132986956D03*
X174415220Y-137889131D03*
D15*
X174415220Y-136989131D03*
D14*
X174415220Y-136089131D03*
X172715220Y-136089131D03*
D15*
X172715220Y-136989131D03*
D14*
X172715220Y-137889131D03*
X176084780Y-139234782D03*
D15*
X176084780Y-140134782D03*
D14*
X176084780Y-141034782D03*
X177784780Y-141034782D03*
D15*
X177784780Y-140134782D03*
D14*
X177784780Y-139234782D03*
X174415220Y-144141305D03*
D15*
X174415220Y-143241305D03*
D14*
X174415220Y-142341305D03*
X172715220Y-142341305D03*
D15*
X172715220Y-143241305D03*
D14*
X172715220Y-144141305D03*
X176084780Y-145482608D03*
D15*
X176084780Y-146382608D03*
D14*
X176084780Y-147282608D03*
X177784780Y-147282608D03*
D15*
X177784780Y-146382608D03*
D14*
X177784780Y-145482608D03*
X174415220Y-150393479D03*
D15*
X174415220Y-149493479D03*
D14*
X174415220Y-148593479D03*
X172715220Y-148593479D03*
D15*
X172715220Y-149493479D03*
D14*
X172715220Y-150393479D03*
X176084780Y-151730434D03*
D15*
X176084780Y-152630434D03*
D14*
X176084780Y-153530434D03*
X177784780Y-153530434D03*
D15*
X177784780Y-152630434D03*
D14*
X177784780Y-151730434D03*
X174415220Y-156645653D03*
D15*
X174415220Y-155745653D03*
D14*
X174415220Y-154845653D03*
X172715220Y-154845653D03*
D15*
X172715220Y-155745653D03*
D14*
X172715220Y-156645653D03*
X176084780Y-157978260D03*
D15*
X176084780Y-158878260D03*
D14*
X176084780Y-159778260D03*
X177784780Y-159778260D03*
D15*
X177784780Y-158878260D03*
D14*
X177784780Y-157978260D03*
X174415220Y-162897827D03*
D15*
X174415220Y-161997827D03*
D14*
X174415220Y-161097827D03*
X172715220Y-161097827D03*
D15*
X172715220Y-161997827D03*
D14*
X172715220Y-162897827D03*
X176084780Y-164226086D03*
D15*
X176084780Y-165126086D03*
D14*
X176084780Y-166026086D03*
X177784780Y-166026086D03*
D15*
X177784780Y-165126086D03*
D14*
X177784780Y-164226086D03*
X174415220Y-169150001D03*
D15*
X174415220Y-168250001D03*
D14*
X174415220Y-167350001D03*
X172715220Y-167350001D03*
D15*
X172715220Y-168250001D03*
D14*
X172715220Y-169150001D03*
X179454345Y-95500000D03*
D15*
X179454345Y-96400000D03*
D14*
X179454345Y-97300000D03*
X181154345Y-97300000D03*
D15*
X181154345Y-96400000D03*
D14*
X181154345Y-95500000D03*
X171045655Y-100376087D03*
D15*
X171045655Y-99476087D03*
D14*
X171045655Y-98576087D03*
X169345655Y-98576087D03*
D15*
X169345655Y-99476087D03*
D14*
X169345655Y-100376087D03*
X179454345Y-101747826D03*
D15*
X179454345Y-102647826D03*
D14*
X179454345Y-103547826D03*
X181154345Y-103547826D03*
D15*
X181154345Y-102647826D03*
D14*
X181154345Y-101747826D03*
X171045655Y-106628261D03*
D15*
X171045655Y-105728261D03*
D14*
X171045655Y-104828261D03*
X169345655Y-104828261D03*
D15*
X169345655Y-105728261D03*
D14*
X169345655Y-106628261D03*
X179454345Y-107995652D03*
D15*
X179454345Y-108895652D03*
D14*
X179454345Y-109795652D03*
X181154345Y-109795652D03*
D15*
X181154345Y-108895652D03*
D14*
X181154345Y-107995652D03*
X171045655Y-112880435D03*
D15*
X171045655Y-111980435D03*
D14*
X171045655Y-111080435D03*
X169345655Y-111080435D03*
D15*
X169345655Y-111980435D03*
D14*
X169345655Y-112880435D03*
X179454345Y-114243478D03*
D15*
X179454345Y-115143478D03*
D14*
X179454345Y-116043478D03*
X181154345Y-116043478D03*
D15*
X181154345Y-115143478D03*
D14*
X181154345Y-114243478D03*
X171045655Y-119132609D03*
D15*
X171045655Y-118232609D03*
D14*
X171045655Y-117332609D03*
X169345655Y-117332609D03*
D15*
X169345655Y-118232609D03*
D14*
X169345655Y-119132609D03*
X179454345Y-120491304D03*
D15*
X179454345Y-121391304D03*
D14*
X179454345Y-122291304D03*
X181154345Y-122291304D03*
D15*
X181154345Y-121391304D03*
D14*
X181154345Y-120491304D03*
X171045655Y-125384783D03*
D15*
X171045655Y-124484783D03*
D14*
X171045655Y-123584783D03*
X169345655Y-123584783D03*
D15*
X169345655Y-124484783D03*
D14*
X169345655Y-125384783D03*
X179454345Y-126739130D03*
D15*
X179454345Y-127639130D03*
D14*
X179454345Y-128539130D03*
X181154345Y-128539130D03*
D15*
X181154345Y-127639130D03*
D14*
X181154345Y-126739130D03*
X171045655Y-131636957D03*
D15*
X171045655Y-130736957D03*
D14*
X171045655Y-129836957D03*
X169345655Y-129836957D03*
D15*
X169345655Y-130736957D03*
D14*
X169345655Y-131636957D03*
X179454345Y-132986956D03*
D15*
X179454345Y-133886956D03*
D14*
X179454345Y-134786956D03*
X181154345Y-134786956D03*
D15*
X181154345Y-133886956D03*
D14*
X181154345Y-132986956D03*
X171045655Y-137889131D03*
D15*
X171045655Y-136989131D03*
D14*
X171045655Y-136089131D03*
X169345655Y-136089131D03*
D15*
X169345655Y-136989131D03*
D14*
X169345655Y-137889131D03*
X179454345Y-139234782D03*
D15*
X179454345Y-140134782D03*
D14*
X179454345Y-141034782D03*
X181154345Y-141034782D03*
D15*
X181154345Y-140134782D03*
D14*
X181154345Y-139234782D03*
X171045655Y-144141305D03*
D15*
X171045655Y-143241305D03*
D14*
X171045655Y-142341305D03*
X169345655Y-142341305D03*
D15*
X169345655Y-143241305D03*
D14*
X169345655Y-144141305D03*
X179454345Y-145482608D03*
D15*
X179454345Y-146382608D03*
D14*
X179454345Y-147282608D03*
X181154345Y-147282608D03*
D15*
X181154345Y-146382608D03*
D14*
X181154345Y-145482608D03*
X171045655Y-150393479D03*
D15*
X171045655Y-149493479D03*
D14*
X171045655Y-148593479D03*
X169345655Y-148593479D03*
D15*
X169345655Y-149493479D03*
D14*
X169345655Y-150393479D03*
X179454345Y-151730434D03*
D15*
X179454345Y-152630434D03*
D14*
X179454345Y-153530434D03*
X181154345Y-153530434D03*
D15*
X181154345Y-152630434D03*
D14*
X181154345Y-151730434D03*
X171045655Y-156645653D03*
D15*
X171045655Y-155745653D03*
D14*
X171045655Y-154845653D03*
X169345655Y-154845653D03*
D15*
X169345655Y-155745653D03*
D14*
X169345655Y-156645653D03*
X179454345Y-157978260D03*
D15*
X179454345Y-158878260D03*
D14*
X179454345Y-159778260D03*
X181154345Y-159778260D03*
D15*
X181154345Y-158878260D03*
D14*
X181154345Y-157978260D03*
X171045655Y-162897827D03*
D15*
X171045655Y-161997827D03*
D14*
X171045655Y-161097827D03*
X169345655Y-161097827D03*
D15*
X169345655Y-161997827D03*
D14*
X169345655Y-162897827D03*
X179454345Y-164226086D03*
D15*
X179454345Y-165126086D03*
D14*
X179454345Y-166026086D03*
X181154345Y-166026086D03*
D15*
X181154345Y-165126086D03*
D14*
X181154345Y-164226086D03*
X171045655Y-169150001D03*
D15*
X171045655Y-168250001D03*
D14*
X171045655Y-167350001D03*
X169345655Y-167350001D03*
D15*
X169345655Y-168250001D03*
D14*
X169345655Y-169150001D03*
X182823910Y-95500000D03*
D15*
X182823910Y-96400000D03*
D14*
X182823910Y-97300000D03*
X184523910Y-97300000D03*
D15*
X184523910Y-96400000D03*
D14*
X184523910Y-95500000D03*
X167676090Y-100376087D03*
D15*
X167676090Y-99476087D03*
D14*
X167676090Y-98576087D03*
X165976090Y-98576087D03*
D15*
X165976090Y-99476087D03*
D14*
X165976090Y-100376087D03*
X182823910Y-101747826D03*
D15*
X182823910Y-102647826D03*
D14*
X182823910Y-103547826D03*
X184523910Y-103547826D03*
D15*
X184523910Y-102647826D03*
D14*
X184523910Y-101747826D03*
X167676090Y-106628261D03*
D15*
X167676090Y-105728261D03*
D14*
X167676090Y-104828261D03*
X165976090Y-104828261D03*
D15*
X165976090Y-105728261D03*
D14*
X165976090Y-106628261D03*
X182823910Y-107995652D03*
D15*
X182823910Y-108895652D03*
D14*
X182823910Y-109795652D03*
X184523910Y-109795652D03*
D15*
X184523910Y-108895652D03*
D14*
X184523910Y-107995652D03*
X167676090Y-112880435D03*
D15*
X167676090Y-111980435D03*
D14*
X167676090Y-111080435D03*
X165976090Y-111080435D03*
D15*
X165976090Y-111980435D03*
D14*
X165976090Y-112880435D03*
X182823910Y-114243478D03*
D15*
X182823910Y-115143478D03*
D14*
X182823910Y-116043478D03*
X184523910Y-116043478D03*
D15*
X184523910Y-115143478D03*
D14*
X184523910Y-114243478D03*
X167676090Y-119132609D03*
D15*
X167676090Y-118232609D03*
D14*
X167676090Y-117332609D03*
X165976090Y-117332609D03*
D15*
X165976090Y-118232609D03*
D14*
X165976090Y-119132609D03*
X182823910Y-120491304D03*
D15*
X182823910Y-121391304D03*
D14*
X182823910Y-122291304D03*
X184523910Y-122291304D03*
D15*
X184523910Y-121391304D03*
D14*
X184523910Y-120491304D03*
X167676090Y-125384783D03*
D15*
X167676090Y-124484783D03*
D14*
X167676090Y-123584783D03*
X165976090Y-123584783D03*
D15*
X165976090Y-124484783D03*
D14*
X165976090Y-125384783D03*
X182823910Y-126739130D03*
D15*
X182823910Y-127639130D03*
D14*
X182823910Y-128539130D03*
X184523910Y-128539130D03*
D15*
X184523910Y-127639130D03*
D14*
X184523910Y-126739130D03*
X167676090Y-131636957D03*
D15*
X167676090Y-130736957D03*
D14*
X167676090Y-129836957D03*
X165976090Y-129836957D03*
D15*
X165976090Y-130736957D03*
D14*
X165976090Y-131636957D03*
X182823910Y-132986956D03*
D15*
X182823910Y-133886956D03*
D14*
X182823910Y-134786956D03*
X184523910Y-134786956D03*
D15*
X184523910Y-133886956D03*
D14*
X184523910Y-132986956D03*
X167676090Y-137889131D03*
D15*
X167676090Y-136989131D03*
D14*
X167676090Y-136089131D03*
X165976090Y-136089131D03*
D15*
X165976090Y-136989131D03*
D14*
X165976090Y-137889131D03*
X182823910Y-139234782D03*
D15*
X182823910Y-140134782D03*
D14*
X182823910Y-141034782D03*
X184523910Y-141034782D03*
D15*
X184523910Y-140134782D03*
D14*
X184523910Y-139234782D03*
X167676090Y-144141305D03*
D15*
X167676090Y-143241305D03*
D14*
X167676090Y-142341305D03*
X165976090Y-142341305D03*
D15*
X165976090Y-143241305D03*
D14*
X165976090Y-144141305D03*
X182823910Y-145482608D03*
D15*
X182823910Y-146382608D03*
D14*
X182823910Y-147282608D03*
X184523910Y-147282608D03*
D15*
X184523910Y-146382608D03*
D14*
X184523910Y-145482608D03*
X167676090Y-150393479D03*
D15*
X167676090Y-149493479D03*
D14*
X167676090Y-148593479D03*
X165976090Y-148593479D03*
D15*
X165976090Y-149493479D03*
D14*
X165976090Y-150393479D03*
X182823910Y-151730434D03*
D15*
X182823910Y-152630434D03*
D14*
X182823910Y-153530434D03*
X184523910Y-153530434D03*
D15*
X184523910Y-152630434D03*
D14*
X184523910Y-151730434D03*
X167676090Y-156645653D03*
D15*
X167676090Y-155745653D03*
D14*
X167676090Y-154845653D03*
X165976090Y-154845653D03*
D15*
X165976090Y-155745653D03*
D14*
X165976090Y-156645653D03*
X182823910Y-157978260D03*
D15*
X182823910Y-158878260D03*
D14*
X182823910Y-159778260D03*
X184523910Y-159778260D03*
D15*
X184523910Y-158878260D03*
D14*
X184523910Y-157978260D03*
X167676090Y-162897827D03*
D15*
X167676090Y-161997827D03*
D14*
X167676090Y-161097827D03*
X165976090Y-161097827D03*
D15*
X165976090Y-161997827D03*
D14*
X165976090Y-162897827D03*
X182823910Y-164226086D03*
D15*
X182823910Y-165126086D03*
D14*
X182823910Y-166026086D03*
X184523910Y-166026086D03*
D15*
X184523910Y-165126086D03*
D14*
X184523910Y-164226086D03*
X167676090Y-169150001D03*
D15*
X167676090Y-168250001D03*
D14*
X167676090Y-167350001D03*
X165976090Y-167350001D03*
D15*
X165976090Y-168250001D03*
D14*
X165976090Y-169150001D03*
X186193475Y-95500000D03*
D15*
X186193475Y-96400000D03*
D14*
X186193475Y-97300000D03*
X187893475Y-97300000D03*
D15*
X187893475Y-96400000D03*
D14*
X187893475Y-95500000D03*
X164306525Y-100376087D03*
D15*
X164306525Y-99476087D03*
D14*
X164306525Y-98576087D03*
X162606525Y-98576087D03*
D15*
X162606525Y-99476087D03*
D14*
X162606525Y-100376087D03*
X186193475Y-101747826D03*
D15*
X186193475Y-102647826D03*
D14*
X186193475Y-103547826D03*
X187893475Y-103547826D03*
D15*
X187893475Y-102647826D03*
D14*
X187893475Y-101747826D03*
X164306525Y-106628261D03*
D15*
X164306525Y-105728261D03*
D14*
X164306525Y-104828261D03*
X162606525Y-104828261D03*
D15*
X162606525Y-105728261D03*
D14*
X162606525Y-106628261D03*
X186193475Y-107995652D03*
D15*
X186193475Y-108895652D03*
D14*
X186193475Y-109795652D03*
X187893475Y-109795652D03*
D15*
X187893475Y-108895652D03*
D14*
X187893475Y-107995652D03*
X164306525Y-112880435D03*
D15*
X164306525Y-111980435D03*
D14*
X164306525Y-111080435D03*
X162606525Y-111080435D03*
D15*
X162606525Y-111980435D03*
D14*
X162606525Y-112880435D03*
X186193475Y-114243478D03*
D15*
X186193475Y-115143478D03*
D14*
X186193475Y-116043478D03*
X187893475Y-116043478D03*
D15*
X187893475Y-115143478D03*
D14*
X187893475Y-114243478D03*
X164306525Y-119132609D03*
D15*
X164306525Y-118232609D03*
D14*
X164306525Y-117332609D03*
X162606525Y-117332609D03*
D15*
X162606525Y-118232609D03*
D14*
X162606525Y-119132609D03*
X186193475Y-120491304D03*
D15*
X186193475Y-121391304D03*
D14*
X186193475Y-122291304D03*
X187893475Y-122291304D03*
D15*
X187893475Y-121391304D03*
D14*
X187893475Y-120491304D03*
X164306525Y-125384783D03*
D15*
X164306525Y-124484783D03*
D14*
X164306525Y-123584783D03*
X162606525Y-123584783D03*
D15*
X162606525Y-124484783D03*
D14*
X162606525Y-125384783D03*
X186193475Y-126739130D03*
D15*
X186193475Y-127639130D03*
D14*
X186193475Y-128539130D03*
X187893475Y-128539130D03*
D15*
X187893475Y-127639130D03*
D14*
X187893475Y-126739130D03*
X164306525Y-131636957D03*
D15*
X164306525Y-130736957D03*
D14*
X164306525Y-129836957D03*
X162606525Y-129836957D03*
D15*
X162606525Y-130736957D03*
D14*
X162606525Y-131636957D03*
X186193475Y-132986956D03*
D15*
X186193475Y-133886956D03*
D14*
X186193475Y-134786956D03*
X187893475Y-134786956D03*
D15*
X187893475Y-133886956D03*
D14*
X187893475Y-132986956D03*
X164306525Y-137889131D03*
D15*
X164306525Y-136989131D03*
D14*
X164306525Y-136089131D03*
X162606525Y-136089131D03*
D15*
X162606525Y-136989131D03*
D14*
X162606525Y-137889131D03*
X186193475Y-139234782D03*
D15*
X186193475Y-140134782D03*
D14*
X186193475Y-141034782D03*
X187893475Y-141034782D03*
D15*
X187893475Y-140134782D03*
D14*
X187893475Y-139234782D03*
X164306525Y-144141305D03*
D15*
X164306525Y-143241305D03*
D14*
X164306525Y-142341305D03*
X162606525Y-142341305D03*
D15*
X162606525Y-143241305D03*
D14*
X162606525Y-144141305D03*
X186193475Y-145482608D03*
D15*
X186193475Y-146382608D03*
D14*
X186193475Y-147282608D03*
X187893475Y-147282608D03*
D15*
X187893475Y-146382608D03*
D14*
X187893475Y-145482608D03*
X164306525Y-150393479D03*
D15*
X164306525Y-149493479D03*
D14*
X164306525Y-148593479D03*
X162606525Y-148593479D03*
D15*
X162606525Y-149493479D03*
D14*
X162606525Y-150393479D03*
X186193475Y-151730434D03*
D15*
X186193475Y-152630434D03*
D14*
X186193475Y-153530434D03*
X187893475Y-153530434D03*
D15*
X187893475Y-152630434D03*
D14*
X187893475Y-151730434D03*
X164306525Y-156645653D03*
D15*
X164306525Y-155745653D03*
D14*
X164306525Y-154845653D03*
X162606525Y-154845653D03*
D15*
X162606525Y-155745653D03*
D14*
X162606525Y-156645653D03*
X186193475Y-157978260D03*
D15*
X186193475Y-158878260D03*
D14*
X186193475Y-159778260D03*
X187893475Y-159778260D03*
D15*
X187893475Y-158878260D03*
D14*
X187893475Y-157978260D03*
X164306525Y-162897827D03*
D15*
X164306525Y-161997827D03*
D14*
X164306525Y-161097827D03*
X162606525Y-161097827D03*
D15*
X162606525Y-161997827D03*
D14*
X162606525Y-162897827D03*
X186193475Y-164226086D03*
D15*
X186193475Y-165126086D03*
D14*
X186193475Y-166026086D03*
X187893475Y-166026086D03*
D15*
X187893475Y-165126086D03*
D14*
X187893475Y-164226086D03*
X164306525Y-169150001D03*
D15*
X164306525Y-168250001D03*
D14*
X164306525Y-167350001D03*
X162606525Y-167350001D03*
D15*
X162606525Y-168250001D03*
D14*
X162606525Y-169150001D03*
X189563040Y-95500000D03*
D15*
X189563040Y-96400000D03*
D14*
X189563040Y-97300000D03*
X191263040Y-97300000D03*
D15*
X191263040Y-96400000D03*
D14*
X191263040Y-95500000D03*
X160936960Y-100376087D03*
D15*
X160936960Y-99476087D03*
D14*
X160936960Y-98576087D03*
X159236960Y-98576087D03*
D15*
X159236960Y-99476087D03*
D14*
X159236960Y-100376087D03*
X189563040Y-101747826D03*
D15*
X189563040Y-102647826D03*
D14*
X189563040Y-103547826D03*
X191263040Y-103547826D03*
D15*
X191263040Y-102647826D03*
D14*
X191263040Y-101747826D03*
X160936960Y-106628261D03*
D15*
X160936960Y-105728261D03*
D14*
X160936960Y-104828261D03*
X159236960Y-104828261D03*
D15*
X159236960Y-105728261D03*
D14*
X159236960Y-106628261D03*
X189563040Y-107995652D03*
D15*
X189563040Y-108895652D03*
D14*
X189563040Y-109795652D03*
X191263040Y-109795652D03*
D15*
X191263040Y-108895652D03*
D14*
X191263040Y-107995652D03*
X160936960Y-112880435D03*
D15*
X160936960Y-111980435D03*
D14*
X160936960Y-111080435D03*
X159236960Y-111080435D03*
D15*
X159236960Y-111980435D03*
D14*
X159236960Y-112880435D03*
X189563040Y-114243478D03*
D15*
X189563040Y-115143478D03*
D14*
X189563040Y-116043478D03*
X191263040Y-116043478D03*
D15*
X191263040Y-115143478D03*
D14*
X191263040Y-114243478D03*
X160936960Y-119132609D03*
D15*
X160936960Y-118232609D03*
D14*
X160936960Y-117332609D03*
X159236960Y-117332609D03*
D15*
X159236960Y-118232609D03*
D14*
X159236960Y-119132609D03*
X189563040Y-120491304D03*
D15*
X189563040Y-121391304D03*
D14*
X189563040Y-122291304D03*
X191263040Y-122291304D03*
D15*
X191263040Y-121391304D03*
D14*
X191263040Y-120491304D03*
X160936960Y-125384783D03*
D15*
X160936960Y-124484783D03*
D14*
X160936960Y-123584783D03*
X159236960Y-123584783D03*
D15*
X159236960Y-124484783D03*
D14*
X159236960Y-125384783D03*
X189563040Y-126739130D03*
D15*
X189563040Y-127639130D03*
D14*
X189563040Y-128539130D03*
X191263040Y-128539130D03*
D15*
X191263040Y-127639130D03*
D14*
X191263040Y-126739130D03*
X160936960Y-131636957D03*
D15*
X160936960Y-130736957D03*
D14*
X160936960Y-129836957D03*
X159236960Y-129836957D03*
D15*
X159236960Y-130736957D03*
D14*
X159236960Y-131636957D03*
X189563040Y-132986956D03*
D15*
X189563040Y-133886956D03*
D14*
X189563040Y-134786956D03*
X191263040Y-134786956D03*
D15*
X191263040Y-133886956D03*
D14*
X191263040Y-132986956D03*
X160936960Y-137889131D03*
D15*
X160936960Y-136989131D03*
D14*
X160936960Y-136089131D03*
X159236960Y-136089131D03*
D15*
X159236960Y-136989131D03*
D14*
X159236960Y-137889131D03*
X189563040Y-139234782D03*
D15*
X189563040Y-140134782D03*
D14*
X189563040Y-141034782D03*
X191263040Y-141034782D03*
D15*
X191263040Y-140134782D03*
D14*
X191263040Y-139234782D03*
X160936960Y-144141305D03*
D15*
X160936960Y-143241305D03*
D14*
X160936960Y-142341305D03*
X159236960Y-142341305D03*
D15*
X159236960Y-143241305D03*
D14*
X159236960Y-144141305D03*
X189563040Y-145482608D03*
D15*
X189563040Y-146382608D03*
D14*
X189563040Y-147282608D03*
X191263040Y-147282608D03*
D15*
X191263040Y-146382608D03*
D14*
X191263040Y-145482608D03*
X160936960Y-150393479D03*
D15*
X160936960Y-149493479D03*
D14*
X160936960Y-148593479D03*
X159236960Y-148593479D03*
D15*
X159236960Y-149493479D03*
D14*
X159236960Y-150393479D03*
X189563040Y-151730434D03*
D15*
X189563040Y-152630434D03*
D14*
X189563040Y-153530434D03*
X191263040Y-153530434D03*
D15*
X191263040Y-152630434D03*
D14*
X191263040Y-151730434D03*
X160936960Y-156645653D03*
D15*
X160936960Y-155745653D03*
D14*
X160936960Y-154845653D03*
X159236960Y-154845653D03*
D15*
X159236960Y-155745653D03*
D14*
X159236960Y-156645653D03*
X189563040Y-157978260D03*
D15*
X189563040Y-158878260D03*
D14*
X189563040Y-159778260D03*
X191263040Y-159778260D03*
D15*
X191263040Y-158878260D03*
D14*
X191263040Y-157978260D03*
X160936960Y-162897827D03*
D15*
X160936960Y-161997827D03*
D14*
X160936960Y-161097827D03*
X159236960Y-161097827D03*
D15*
X159236960Y-161997827D03*
D14*
X159236960Y-162897827D03*
X189563040Y-164226086D03*
D15*
X189563040Y-165126086D03*
D14*
X189563040Y-166026086D03*
X191263040Y-166026086D03*
D15*
X191263040Y-165126086D03*
D14*
X191263040Y-164226086D03*
X160936960Y-169150001D03*
D15*
X160936960Y-168250001D03*
D14*
X160936960Y-167350001D03*
X159236960Y-167350001D03*
D15*
X159236960Y-168250001D03*
D14*
X159236960Y-169150001D03*
X192932605Y-95500000D03*
D15*
X192932605Y-96400000D03*
D14*
X192932605Y-97300000D03*
X194632605Y-97300000D03*
D15*
X194632605Y-96400000D03*
D14*
X194632605Y-95500000D03*
X157567395Y-100376087D03*
D15*
X157567395Y-99476087D03*
D14*
X157567395Y-98576087D03*
X155867395Y-98576087D03*
D15*
X155867395Y-99476087D03*
D14*
X155867395Y-100376087D03*
X192932605Y-101747826D03*
D15*
X192932605Y-102647826D03*
D14*
X192932605Y-103547826D03*
X194632605Y-103547826D03*
D15*
X194632605Y-102647826D03*
D14*
X194632605Y-101747826D03*
X157567395Y-106628261D03*
D15*
X157567395Y-105728261D03*
D14*
X157567395Y-104828261D03*
X155867395Y-104828261D03*
D15*
X155867395Y-105728261D03*
D14*
X155867395Y-106628261D03*
X192932605Y-107995652D03*
D15*
X192932605Y-108895652D03*
D14*
X192932605Y-109795652D03*
X194632605Y-109795652D03*
D15*
X194632605Y-108895652D03*
D14*
X194632605Y-107995652D03*
X157567395Y-112880435D03*
D15*
X157567395Y-111980435D03*
D14*
X157567395Y-111080435D03*
X155867395Y-111080435D03*
D15*
X155867395Y-111980435D03*
D14*
X155867395Y-112880435D03*
X192932605Y-114243478D03*
D15*
X192932605Y-115143478D03*
D14*
X192932605Y-116043478D03*
X194632605Y-116043478D03*
D15*
X194632605Y-115143478D03*
D14*
X194632605Y-114243478D03*
X157567395Y-119132609D03*
D15*
X157567395Y-118232609D03*
D14*
X157567395Y-117332609D03*
X155867395Y-117332609D03*
D15*
X155867395Y-118232609D03*
D14*
X155867395Y-119132609D03*
X192932605Y-120491304D03*
D15*
X192932605Y-121391304D03*
D14*
X192932605Y-122291304D03*
X194632605Y-122291304D03*
D15*
X194632605Y-121391304D03*
D14*
X194632605Y-120491304D03*
X157567395Y-125384783D03*
D15*
X157567395Y-124484783D03*
D14*
X157567395Y-123584783D03*
X155867395Y-123584783D03*
D15*
X155867395Y-124484783D03*
D14*
X155867395Y-125384783D03*
X192932605Y-126739130D03*
D15*
X192932605Y-127639130D03*
D14*
X192932605Y-128539130D03*
X194632605Y-128539130D03*
D15*
X194632605Y-127639130D03*
D14*
X194632605Y-126739130D03*
X157567395Y-131636957D03*
D15*
X157567395Y-130736957D03*
D14*
X157567395Y-129836957D03*
X155867395Y-129836957D03*
D15*
X155867395Y-130736957D03*
D14*
X155867395Y-131636957D03*
X192932605Y-132986956D03*
D15*
X192932605Y-133886956D03*
D14*
X192932605Y-134786956D03*
X194632605Y-134786956D03*
D15*
X194632605Y-133886956D03*
D14*
X194632605Y-132986956D03*
X157567395Y-137889131D03*
D15*
X157567395Y-136989131D03*
D14*
X157567395Y-136089131D03*
X155867395Y-136089131D03*
D15*
X155867395Y-136989131D03*
D14*
X155867395Y-137889131D03*
X192932605Y-139234782D03*
D15*
X192932605Y-140134782D03*
D14*
X192932605Y-141034782D03*
X194632605Y-141034782D03*
D15*
X194632605Y-140134782D03*
D14*
X194632605Y-139234782D03*
X157567395Y-144141305D03*
D15*
X157567395Y-143241305D03*
D14*
X157567395Y-142341305D03*
X155867395Y-142341305D03*
D15*
X155867395Y-143241305D03*
D14*
X155867395Y-144141305D03*
X192932605Y-145482608D03*
D15*
X192932605Y-146382608D03*
D14*
X192932605Y-147282608D03*
X194632605Y-147282608D03*
D15*
X194632605Y-146382608D03*
D14*
X194632605Y-145482608D03*
X157567395Y-150393479D03*
D15*
X157567395Y-149493479D03*
D14*
X157567395Y-148593479D03*
X155867395Y-148593479D03*
D15*
X155867395Y-149493479D03*
D14*
X155867395Y-150393479D03*
X192932605Y-151730434D03*
D15*
X192932605Y-152630434D03*
D14*
X192932605Y-153530434D03*
X194632605Y-153530434D03*
D15*
X194632605Y-152630434D03*
D14*
X194632605Y-151730434D03*
X157567395Y-156645653D03*
D15*
X157567395Y-155745653D03*
D14*
X157567395Y-154845653D03*
X155867395Y-154845653D03*
D15*
X155867395Y-155745653D03*
D14*
X155867395Y-156645653D03*
X192932605Y-157978260D03*
D15*
X192932605Y-158878260D03*
D14*
X192932605Y-159778260D03*
X194632605Y-159778260D03*
D15*
X194632605Y-158878260D03*
D14*
X194632605Y-157978260D03*
X157567395Y-162897827D03*
D15*
X157567395Y-161997827D03*
D14*
X157567395Y-161097827D03*
X155867395Y-161097827D03*
D15*
X155867395Y-161997827D03*
D14*
X155867395Y-162897827D03*
X192932605Y-164226086D03*
D15*
X192932605Y-165126086D03*
D14*
X192932605Y-166026086D03*
X194632605Y-166026086D03*
D15*
X194632605Y-165126086D03*
D14*
X194632605Y-164226086D03*
X157567395Y-169150001D03*
D15*
X157567395Y-168250001D03*
D14*
X157567395Y-167350001D03*
X155867395Y-167350001D03*
D15*
X155867395Y-168250001D03*
D14*
X155867395Y-169150001D03*
X196302170Y-95500000D03*
D15*
X196302170Y-96400000D03*
D14*
X196302170Y-97300000D03*
X198002170Y-97300000D03*
D15*
X198002170Y-96400000D03*
D14*
X198002170Y-95500000D03*
X154197830Y-100376087D03*
D15*
X154197830Y-99476087D03*
D14*
X154197830Y-98576087D03*
X152497830Y-98576087D03*
D15*
X152497830Y-99476087D03*
D14*
X152497830Y-100376087D03*
X196302170Y-101747826D03*
D15*
X196302170Y-102647826D03*
D14*
X196302170Y-103547826D03*
X198002170Y-103547826D03*
D15*
X198002170Y-102647826D03*
D14*
X198002170Y-101747826D03*
X154197830Y-106628261D03*
D15*
X154197830Y-105728261D03*
D14*
X154197830Y-104828261D03*
X152497830Y-104828261D03*
D15*
X152497830Y-105728261D03*
D14*
X152497830Y-106628261D03*
X196302170Y-107995652D03*
D15*
X196302170Y-108895652D03*
D14*
X196302170Y-109795652D03*
X198002170Y-109795652D03*
D15*
X198002170Y-108895652D03*
D14*
X198002170Y-107995652D03*
X154197830Y-112880435D03*
D15*
X154197830Y-111980435D03*
D14*
X154197830Y-111080435D03*
X152497830Y-111080435D03*
D15*
X152497830Y-111980435D03*
D14*
X152497830Y-112880435D03*
X196302170Y-114243478D03*
D15*
X196302170Y-115143478D03*
D14*
X196302170Y-116043478D03*
X198002170Y-116043478D03*
D15*
X198002170Y-115143478D03*
D14*
X198002170Y-114243478D03*
X154197830Y-119132609D03*
D15*
X154197830Y-118232609D03*
D14*
X154197830Y-117332609D03*
X152497830Y-117332609D03*
D15*
X152497830Y-118232609D03*
D14*
X152497830Y-119132609D03*
X196302170Y-120491304D03*
D15*
X196302170Y-121391304D03*
D14*
X196302170Y-122291304D03*
X198002170Y-122291304D03*
D15*
X198002170Y-121391304D03*
D14*
X198002170Y-120491304D03*
X154197830Y-125384783D03*
D15*
X154197830Y-124484783D03*
D14*
X154197830Y-123584783D03*
X152497830Y-123584783D03*
D15*
X152497830Y-124484783D03*
D14*
X152497830Y-125384783D03*
X196302170Y-126739130D03*
D15*
X196302170Y-127639130D03*
D14*
X196302170Y-128539130D03*
X198002170Y-128539130D03*
D15*
X198002170Y-127639130D03*
D14*
X198002170Y-126739130D03*
X154197830Y-131636957D03*
D15*
X154197830Y-130736957D03*
D14*
X154197830Y-129836957D03*
X152497830Y-129836957D03*
D15*
X152497830Y-130736957D03*
D14*
X152497830Y-131636957D03*
X196302170Y-132986956D03*
D15*
X196302170Y-133886956D03*
D14*
X196302170Y-134786956D03*
X198002170Y-134786956D03*
D15*
X198002170Y-133886956D03*
D14*
X198002170Y-132986956D03*
X154197830Y-137889131D03*
D15*
X154197830Y-136989131D03*
D14*
X154197830Y-136089131D03*
X152497830Y-136089131D03*
D15*
X152497830Y-136989131D03*
D14*
X152497830Y-137889131D03*
X196302170Y-139234782D03*
D15*
X196302170Y-140134782D03*
D14*
X196302170Y-141034782D03*
X198002170Y-141034782D03*
D15*
X198002170Y-140134782D03*
D14*
X198002170Y-139234782D03*
X154197830Y-144141305D03*
D15*
X154197830Y-143241305D03*
D14*
X154197830Y-142341305D03*
X152497830Y-142341305D03*
D15*
X152497830Y-143241305D03*
D14*
X152497830Y-144141305D03*
X196302170Y-145482608D03*
D15*
X196302170Y-146382608D03*
D14*
X196302170Y-147282608D03*
X198002170Y-147282608D03*
D15*
X198002170Y-146382608D03*
D14*
X198002170Y-145482608D03*
X154197830Y-150393479D03*
D15*
X154197830Y-149493479D03*
D14*
X154197830Y-148593479D03*
X152497830Y-148593479D03*
D15*
X152497830Y-149493479D03*
D14*
X152497830Y-150393479D03*
X196302170Y-151730434D03*
D15*
X196302170Y-152630434D03*
D14*
X196302170Y-153530434D03*
X198002170Y-153530434D03*
D15*
X198002170Y-152630434D03*
D14*
X198002170Y-151730434D03*
X154197830Y-156645653D03*
D15*
X154197830Y-155745653D03*
D14*
X154197830Y-154845653D03*
X152497830Y-154845653D03*
D15*
X152497830Y-155745653D03*
D14*
X152497830Y-156645653D03*
X196302170Y-157978260D03*
D15*
X196302170Y-158878260D03*
D14*
X196302170Y-159778260D03*
X198002170Y-159778260D03*
D15*
X198002170Y-158878260D03*
D14*
X198002170Y-157978260D03*
X154197830Y-162897827D03*
D15*
X154197830Y-161997827D03*
D14*
X154197830Y-161097827D03*
X152497830Y-161097827D03*
D15*
X152497830Y-161997827D03*
D14*
X152497830Y-162897827D03*
X196302170Y-164226086D03*
D15*
X196302170Y-165126086D03*
D14*
X196302170Y-166026086D03*
X198002170Y-166026086D03*
D15*
X198002170Y-165126086D03*
D14*
X198002170Y-164226086D03*
X154197830Y-169150001D03*
D15*
X154197830Y-168250001D03*
D14*
X154197830Y-167350001D03*
X152497830Y-167350001D03*
D15*
X152497830Y-168250001D03*
D14*
X152497830Y-169150001D03*
X199671735Y-95500000D03*
D15*
X199671735Y-96400000D03*
D14*
X199671735Y-97300000D03*
X201371735Y-97300000D03*
D15*
X201371735Y-96400000D03*
D14*
X201371735Y-95500000D03*
X150828265Y-100376087D03*
D15*
X150828265Y-99476087D03*
D14*
X150828265Y-98576087D03*
X149128265Y-98576087D03*
D15*
X149128265Y-99476087D03*
D14*
X149128265Y-100376087D03*
X199671735Y-101747826D03*
D15*
X199671735Y-102647826D03*
D14*
X199671735Y-103547826D03*
X201371735Y-103547826D03*
D15*
X201371735Y-102647826D03*
D14*
X201371735Y-101747826D03*
X150828265Y-106628261D03*
D15*
X150828265Y-105728261D03*
D14*
X150828265Y-104828261D03*
X149128265Y-104828261D03*
D15*
X149128265Y-105728261D03*
D14*
X149128265Y-106628261D03*
X199671735Y-107995652D03*
D15*
X199671735Y-108895652D03*
D14*
X199671735Y-109795652D03*
X201371735Y-109795652D03*
D15*
X201371735Y-108895652D03*
D14*
X201371735Y-107995652D03*
X150828265Y-112880435D03*
D15*
X150828265Y-111980435D03*
D14*
X150828265Y-111080435D03*
X149128265Y-111080435D03*
D15*
X149128265Y-111980435D03*
D14*
X149128265Y-112880435D03*
X199671735Y-114243478D03*
D15*
X199671735Y-115143478D03*
D14*
X199671735Y-116043478D03*
X201371735Y-116043478D03*
D15*
X201371735Y-115143478D03*
D14*
X201371735Y-114243478D03*
X150828265Y-119132609D03*
D15*
X150828265Y-118232609D03*
D14*
X150828265Y-117332609D03*
X149128265Y-117332609D03*
D15*
X149128265Y-118232609D03*
D14*
X149128265Y-119132609D03*
X199671735Y-120491304D03*
D15*
X199671735Y-121391304D03*
D14*
X199671735Y-122291304D03*
X201371735Y-122291304D03*
D15*
X201371735Y-121391304D03*
D14*
X201371735Y-120491304D03*
X150828265Y-125384783D03*
D15*
X150828265Y-124484783D03*
D14*
X150828265Y-123584783D03*
X149128265Y-123584783D03*
D15*
X149128265Y-124484783D03*
D14*
X149128265Y-125384783D03*
X199671735Y-126739130D03*
D15*
X199671735Y-127639130D03*
D14*
X199671735Y-128539130D03*
X201371735Y-128539130D03*
D15*
X201371735Y-127639130D03*
D14*
X201371735Y-126739130D03*
X150828265Y-131636957D03*
D15*
X150828265Y-130736957D03*
D14*
X150828265Y-129836957D03*
X149128265Y-129836957D03*
D15*
X149128265Y-130736957D03*
D14*
X149128265Y-131636957D03*
X199671735Y-132986956D03*
D15*
X199671735Y-133886956D03*
D14*
X199671735Y-134786956D03*
X201371735Y-134786956D03*
D15*
X201371735Y-133886956D03*
D14*
X201371735Y-132986956D03*
X150828265Y-137889131D03*
D15*
X150828265Y-136989131D03*
D14*
X150828265Y-136089131D03*
X149128265Y-136089131D03*
D15*
X149128265Y-136989131D03*
D14*
X149128265Y-137889131D03*
X199671735Y-139234782D03*
D15*
X199671735Y-140134782D03*
D14*
X199671735Y-141034782D03*
X201371735Y-141034782D03*
D15*
X201371735Y-140134782D03*
D14*
X201371735Y-139234782D03*
X150828265Y-144141305D03*
D15*
X150828265Y-143241305D03*
D14*
X150828265Y-142341305D03*
X149128265Y-142341305D03*
D15*
X149128265Y-143241305D03*
D14*
X149128265Y-144141305D03*
X199671735Y-145482608D03*
D15*
X199671735Y-146382608D03*
D14*
X199671735Y-147282608D03*
X201371735Y-147282608D03*
D15*
X201371735Y-146382608D03*
D14*
X201371735Y-145482608D03*
X150828265Y-150393479D03*
D15*
X150828265Y-149493479D03*
D14*
X150828265Y-148593479D03*
X149128265Y-148593479D03*
D15*
X149128265Y-149493479D03*
D14*
X149128265Y-150393479D03*
X199671735Y-151730434D03*
D15*
X199671735Y-152630434D03*
D14*
X199671735Y-153530434D03*
X201371735Y-153530434D03*
D15*
X201371735Y-152630434D03*
D14*
X201371735Y-151730434D03*
X150828265Y-156645653D03*
D15*
X150828265Y-155745653D03*
D14*
X150828265Y-154845653D03*
X149128265Y-154845653D03*
D15*
X149128265Y-155745653D03*
D14*
X149128265Y-156645653D03*
X199671735Y-157978260D03*
D15*
X199671735Y-158878260D03*
D14*
X199671735Y-159778260D03*
X201371735Y-159778260D03*
D15*
X201371735Y-158878260D03*
D14*
X201371735Y-157978260D03*
X150828265Y-162897827D03*
D15*
X150828265Y-161997827D03*
D14*
X150828265Y-161097827D03*
X149128265Y-161097827D03*
D15*
X149128265Y-161997827D03*
D14*
X149128265Y-162897827D03*
X199671735Y-164226086D03*
D15*
X199671735Y-165126086D03*
D14*
X199671735Y-166026086D03*
X201371735Y-166026086D03*
D15*
X201371735Y-165126086D03*
D14*
X201371735Y-164226086D03*
X150828265Y-169150001D03*
D15*
X150828265Y-168250001D03*
D14*
X150828265Y-167350001D03*
X149128265Y-167350001D03*
D15*
X149128265Y-168250001D03*
D14*
X149128265Y-169150001D03*
X203041300Y-95500000D03*
D15*
X203041300Y-96400000D03*
D14*
X203041300Y-97300000D03*
X204741300Y-97300000D03*
D15*
X204741300Y-96400000D03*
D14*
X204741300Y-95500000D03*
X147458700Y-100376087D03*
D15*
X147458700Y-99476087D03*
D14*
X147458700Y-98576087D03*
X145758700Y-98576087D03*
D15*
X145758700Y-99476087D03*
D14*
X145758700Y-100376087D03*
X203041300Y-101747826D03*
D15*
X203041300Y-102647826D03*
D14*
X203041300Y-103547826D03*
X204741300Y-103547826D03*
D15*
X204741300Y-102647826D03*
D14*
X204741300Y-101747826D03*
X147458700Y-106628261D03*
D15*
X147458700Y-105728261D03*
D14*
X147458700Y-104828261D03*
X145758700Y-104828261D03*
D15*
X145758700Y-105728261D03*
D14*
X145758700Y-106628261D03*
X203041300Y-107995652D03*
D15*
X203041300Y-108895652D03*
D14*
X203041300Y-109795652D03*
X204741300Y-109795652D03*
D15*
X204741300Y-108895652D03*
D14*
X204741300Y-107995652D03*
X147458700Y-112880435D03*
D15*
X147458700Y-111980435D03*
D14*
X147458700Y-111080435D03*
X145758700Y-111080435D03*
D15*
X145758700Y-111980435D03*
D14*
X145758700Y-112880435D03*
X203041300Y-114243478D03*
D15*
X203041300Y-115143478D03*
D14*
X203041300Y-116043478D03*
X204741300Y-116043478D03*
D15*
X204741300Y-115143478D03*
D14*
X204741300Y-114243478D03*
X147458700Y-119132609D03*
D15*
X147458700Y-118232609D03*
D14*
X147458700Y-117332609D03*
X145758700Y-117332609D03*
D15*
X145758700Y-118232609D03*
D14*
X145758700Y-119132609D03*
X203041300Y-120491304D03*
D15*
X203041300Y-121391304D03*
D14*
X203041300Y-122291304D03*
X204741300Y-122291304D03*
D15*
X204741300Y-121391304D03*
D14*
X204741300Y-120491304D03*
X147458700Y-125384783D03*
D15*
X147458700Y-124484783D03*
D14*
X147458700Y-123584783D03*
X145758700Y-123584783D03*
D15*
X145758700Y-124484783D03*
D14*
X145758700Y-125384783D03*
X203041300Y-126739130D03*
D15*
X203041300Y-127639130D03*
D14*
X203041300Y-128539130D03*
X204741300Y-128539130D03*
D15*
X204741300Y-127639130D03*
D14*
X204741300Y-126739130D03*
X147458700Y-131636957D03*
D15*
X147458700Y-130736957D03*
D14*
X147458700Y-129836957D03*
X145758700Y-129836957D03*
D15*
X145758700Y-130736957D03*
D14*
X145758700Y-131636957D03*
X203041300Y-132986956D03*
D15*
X203041300Y-133886956D03*
D14*
X203041300Y-134786956D03*
X204741300Y-134786956D03*
D15*
X204741300Y-133886956D03*
D14*
X204741300Y-132986956D03*
X147458700Y-137889131D03*
D15*
X147458700Y-136989131D03*
D14*
X147458700Y-136089131D03*
X145758700Y-136089131D03*
D15*
X145758700Y-136989131D03*
D14*
X145758700Y-137889131D03*
X203041300Y-139234782D03*
D15*
X203041300Y-140134782D03*
D14*
X203041300Y-141034782D03*
X204741300Y-141034782D03*
D15*
X204741300Y-140134782D03*
D14*
X204741300Y-139234782D03*
X147458700Y-144141305D03*
D15*
X147458700Y-143241305D03*
D14*
X147458700Y-142341305D03*
X145758700Y-142341305D03*
D15*
X145758700Y-143241305D03*
D14*
X145758700Y-144141305D03*
X203041300Y-145482608D03*
D15*
X203041300Y-146382608D03*
D14*
X203041300Y-147282608D03*
X204741300Y-147282608D03*
D15*
X204741300Y-146382608D03*
D14*
X204741300Y-145482608D03*
X147458700Y-150393479D03*
D15*
X147458700Y-149493479D03*
D14*
X147458700Y-148593479D03*
X145758700Y-148593479D03*
D15*
X145758700Y-149493479D03*
D14*
X145758700Y-150393479D03*
X203041300Y-151730434D03*
D15*
X203041300Y-152630434D03*
D14*
X203041300Y-153530434D03*
X204741300Y-153530434D03*
D15*
X204741300Y-152630434D03*
D14*
X204741300Y-151730434D03*
X147458700Y-156645653D03*
D15*
X147458700Y-155745653D03*
D14*
X147458700Y-154845653D03*
X145758700Y-154845653D03*
D15*
X145758700Y-155745653D03*
D14*
X145758700Y-156645653D03*
X203041300Y-157978260D03*
D15*
X203041300Y-158878260D03*
D14*
X203041300Y-159778260D03*
X204741300Y-159778260D03*
D15*
X204741300Y-158878260D03*
D14*
X204741300Y-157978260D03*
X147458700Y-162897827D03*
D15*
X147458700Y-161997827D03*
D14*
X147458700Y-161097827D03*
X145758700Y-161097827D03*
D15*
X145758700Y-161997827D03*
D14*
X145758700Y-162897827D03*
X203041300Y-164226086D03*
D15*
X203041300Y-165126086D03*
D14*
X203041300Y-166026086D03*
X204741300Y-166026086D03*
D15*
X204741300Y-165126086D03*
D14*
X204741300Y-164226086D03*
X147458700Y-169150001D03*
D15*
X147458700Y-168250001D03*
D14*
X147458700Y-167350001D03*
X145758700Y-167350001D03*
D15*
X145758700Y-168250001D03*
D14*
X145758700Y-169150001D03*
X206410865Y-95500000D03*
D15*
X206410865Y-96400000D03*
D14*
X206410865Y-97300000D03*
X208110865Y-97300000D03*
D15*
X208110865Y-96400000D03*
D14*
X208110865Y-95500000D03*
X144089135Y-100376087D03*
D15*
X144089135Y-99476087D03*
D14*
X144089135Y-98576087D03*
X142389135Y-98576087D03*
D15*
X142389135Y-99476087D03*
D14*
X142389135Y-100376087D03*
X206410865Y-101747826D03*
D15*
X206410865Y-102647826D03*
D14*
X206410865Y-103547826D03*
X208110865Y-103547826D03*
D15*
X208110865Y-102647826D03*
D14*
X208110865Y-101747826D03*
X144089135Y-106628261D03*
D15*
X144089135Y-105728261D03*
D14*
X144089135Y-104828261D03*
X142389135Y-104828261D03*
D15*
X142389135Y-105728261D03*
D14*
X142389135Y-106628261D03*
X206410865Y-107995652D03*
D15*
X206410865Y-108895652D03*
D14*
X206410865Y-109795652D03*
X208110865Y-109795652D03*
D15*
X208110865Y-108895652D03*
D14*
X208110865Y-107995652D03*
X144089135Y-112880435D03*
D15*
X144089135Y-111980435D03*
D14*
X144089135Y-111080435D03*
X142389135Y-111080435D03*
D15*
X142389135Y-111980435D03*
D14*
X142389135Y-112880435D03*
X206410865Y-114243478D03*
D15*
X206410865Y-115143478D03*
D14*
X206410865Y-116043478D03*
X208110865Y-116043478D03*
D15*
X208110865Y-115143478D03*
D14*
X208110865Y-114243478D03*
X144089135Y-119132609D03*
D15*
X144089135Y-118232609D03*
D14*
X144089135Y-117332609D03*
X142389135Y-117332609D03*
D15*
X142389135Y-118232609D03*
D14*
X142389135Y-119132609D03*
X206410865Y-120491304D03*
D15*
X206410865Y-121391304D03*
D14*
X206410865Y-122291304D03*
X208110865Y-122291304D03*
D15*
X208110865Y-121391304D03*
D14*
X208110865Y-120491304D03*
X144089135Y-125384783D03*
D15*
X144089135Y-124484783D03*
D14*
X144089135Y-123584783D03*
X142389135Y-123584783D03*
D15*
X142389135Y-124484783D03*
D14*
X142389135Y-125384783D03*
X206410865Y-126739130D03*
D15*
X206410865Y-127639130D03*
D14*
X206410865Y-128539130D03*
X208110865Y-128539130D03*
D15*
X208110865Y-127639130D03*
D14*
X208110865Y-126739130D03*
X144089135Y-131636957D03*
D15*
X144089135Y-130736957D03*
D14*
X144089135Y-129836957D03*
X142389135Y-129836957D03*
D15*
X142389135Y-130736957D03*
D14*
X142389135Y-131636957D03*
X206410865Y-132986956D03*
D15*
X206410865Y-133886956D03*
D14*
X206410865Y-134786956D03*
X208110865Y-134786956D03*
D15*
X208110865Y-133886956D03*
D14*
X208110865Y-132986956D03*
X144089135Y-137889131D03*
D15*
X144089135Y-136989131D03*
D14*
X144089135Y-136089131D03*
X142389135Y-136089131D03*
D15*
X142389135Y-136989131D03*
D14*
X142389135Y-137889131D03*
X206410865Y-139234782D03*
D15*
X206410865Y-140134782D03*
D14*
X206410865Y-141034782D03*
X208110865Y-141034782D03*
D15*
X208110865Y-140134782D03*
D14*
X208110865Y-139234782D03*
X144089135Y-144141305D03*
D15*
X144089135Y-143241305D03*
D14*
X144089135Y-142341305D03*
X142389135Y-142341305D03*
D15*
X142389135Y-143241305D03*
D14*
X142389135Y-144141305D03*
X206410865Y-145482608D03*
D15*
X206410865Y-146382608D03*
D14*
X206410865Y-147282608D03*
X208110865Y-147282608D03*
D15*
X208110865Y-146382608D03*
D14*
X208110865Y-145482608D03*
X144089135Y-150393479D03*
D15*
X144089135Y-149493479D03*
D14*
X144089135Y-148593479D03*
X142389135Y-148593479D03*
D15*
X142389135Y-149493479D03*
D14*
X142389135Y-150393479D03*
X206410865Y-151730434D03*
D15*
X206410865Y-152630434D03*
D14*
X206410865Y-153530434D03*
X208110865Y-153530434D03*
D15*
X208110865Y-152630434D03*
D14*
X208110865Y-151730434D03*
X144089135Y-156645653D03*
D15*
X144089135Y-155745653D03*
D14*
X144089135Y-154845653D03*
X142389135Y-154845653D03*
D15*
X142389135Y-155745653D03*
D14*
X142389135Y-156645653D03*
X206410865Y-157978260D03*
D15*
X206410865Y-158878260D03*
D14*
X206410865Y-159778260D03*
X208110865Y-159778260D03*
D15*
X208110865Y-158878260D03*
D14*
X208110865Y-157978260D03*
X144089135Y-162897827D03*
D15*
X144089135Y-161997827D03*
D14*
X144089135Y-161097827D03*
X142389135Y-161097827D03*
D15*
X142389135Y-161997827D03*
D14*
X142389135Y-162897827D03*
X206410865Y-164226086D03*
D15*
X206410865Y-165126086D03*
D14*
X206410865Y-166026086D03*
X208110865Y-166026086D03*
D15*
X208110865Y-165126086D03*
D14*
X208110865Y-164226086D03*
X144089135Y-169150001D03*
D15*
X144089135Y-168250001D03*
D14*
X144089135Y-167350001D03*
X142389135Y-167350001D03*
D15*
X142389135Y-168250001D03*
D14*
X142389135Y-169150001D03*
X209780430Y-95500000D03*
D15*
X209780430Y-96400000D03*
D14*
X209780430Y-97300000D03*
X211480430Y-97300000D03*
D15*
X211480430Y-96400000D03*
D14*
X211480430Y-95500000D03*
X140719570Y-100376087D03*
D15*
X140719570Y-99476087D03*
D14*
X140719570Y-98576087D03*
X139019570Y-98576087D03*
D15*
X139019570Y-99476087D03*
D14*
X139019570Y-100376087D03*
X209780430Y-101747826D03*
D15*
X209780430Y-102647826D03*
D14*
X209780430Y-103547826D03*
X211480430Y-103547826D03*
D15*
X211480430Y-102647826D03*
D14*
X211480430Y-101747826D03*
X140719570Y-106628261D03*
D15*
X140719570Y-105728261D03*
D14*
X140719570Y-104828261D03*
X139019570Y-104828261D03*
D15*
X139019570Y-105728261D03*
D14*
X139019570Y-106628261D03*
X209780430Y-107995652D03*
D15*
X209780430Y-108895652D03*
D14*
X209780430Y-109795652D03*
X211480430Y-109795652D03*
D15*
X211480430Y-108895652D03*
D14*
X211480430Y-107995652D03*
X140719570Y-112880435D03*
D15*
X140719570Y-111980435D03*
D14*
X140719570Y-111080435D03*
X139019570Y-111080435D03*
D15*
X139019570Y-111980435D03*
D14*
X139019570Y-112880435D03*
X209780430Y-114243478D03*
D15*
X209780430Y-115143478D03*
D14*
X209780430Y-116043478D03*
X211480430Y-116043478D03*
D15*
X211480430Y-115143478D03*
D14*
X211480430Y-114243478D03*
X140719570Y-119132609D03*
D15*
X140719570Y-118232609D03*
D14*
X140719570Y-117332609D03*
X139019570Y-117332609D03*
D15*
X139019570Y-118232609D03*
D14*
X139019570Y-119132609D03*
X209780430Y-120491304D03*
D15*
X209780430Y-121391304D03*
D14*
X209780430Y-122291304D03*
X211480430Y-122291304D03*
D15*
X211480430Y-121391304D03*
D14*
X211480430Y-120491304D03*
X140719570Y-125384783D03*
D15*
X140719570Y-124484783D03*
D14*
X140719570Y-123584783D03*
X139019570Y-123584783D03*
D15*
X139019570Y-124484783D03*
D14*
X139019570Y-125384783D03*
X209780430Y-126739130D03*
D15*
X209780430Y-127639130D03*
D14*
X209780430Y-128539130D03*
X211480430Y-128539130D03*
D15*
X211480430Y-127639130D03*
D14*
X211480430Y-126739130D03*
X140719570Y-131636957D03*
D15*
X140719570Y-130736957D03*
D14*
X140719570Y-129836957D03*
X139019570Y-129836957D03*
D15*
X139019570Y-130736957D03*
D14*
X139019570Y-131636957D03*
X209780430Y-132986956D03*
D15*
X209780430Y-133886956D03*
D14*
X209780430Y-134786956D03*
X211480430Y-134786956D03*
D15*
X211480430Y-133886956D03*
D14*
X211480430Y-132986956D03*
X140719570Y-137889131D03*
D15*
X140719570Y-136989131D03*
D14*
X140719570Y-136089131D03*
X139019570Y-136089131D03*
D15*
X139019570Y-136989131D03*
D14*
X139019570Y-137889131D03*
X209780430Y-139234782D03*
D15*
X209780430Y-140134782D03*
D14*
X209780430Y-141034782D03*
X211480430Y-141034782D03*
D15*
X211480430Y-140134782D03*
D14*
X211480430Y-139234782D03*
X140719570Y-144141305D03*
D15*
X140719570Y-143241305D03*
D14*
X140719570Y-142341305D03*
X139019570Y-142341305D03*
D15*
X139019570Y-143241305D03*
D14*
X139019570Y-144141305D03*
X209780430Y-145482608D03*
D15*
X209780430Y-146382608D03*
D14*
X209780430Y-147282608D03*
X211480430Y-147282608D03*
D15*
X211480430Y-146382608D03*
D14*
X211480430Y-145482608D03*
X140719570Y-150393479D03*
D15*
X140719570Y-149493479D03*
D14*
X140719570Y-148593479D03*
X139019570Y-148593479D03*
D15*
X139019570Y-149493479D03*
D14*
X139019570Y-150393479D03*
X209780430Y-151730434D03*
D15*
X209780430Y-152630434D03*
D14*
X209780430Y-153530434D03*
X211480430Y-153530434D03*
D15*
X211480430Y-152630434D03*
D14*
X211480430Y-151730434D03*
X140719570Y-156645653D03*
D15*
X140719570Y-155745653D03*
D14*
X140719570Y-154845653D03*
X139019570Y-154845653D03*
D15*
X139019570Y-155745653D03*
D14*
X139019570Y-156645653D03*
X209780430Y-157978260D03*
D15*
X209780430Y-158878260D03*
D14*
X209780430Y-159778260D03*
X211480430Y-159778260D03*
D15*
X211480430Y-158878260D03*
D14*
X211480430Y-157978260D03*
X140719570Y-162897827D03*
D15*
X140719570Y-161997827D03*
D14*
X140719570Y-161097827D03*
X139019570Y-161097827D03*
D15*
X139019570Y-161997827D03*
D14*
X139019570Y-162897827D03*
X209780430Y-164226086D03*
D15*
X209780430Y-165126086D03*
D14*
X209780430Y-166026086D03*
X211480430Y-166026086D03*
D15*
X211480430Y-165126086D03*
D14*
X211480430Y-164226086D03*
X140719570Y-169150001D03*
D15*
X140719570Y-168250001D03*
D14*
X140719570Y-167350001D03*
X139019570Y-167350001D03*
D15*
X139019570Y-168250001D03*
D14*
X139019570Y-169150001D03*
X213150000Y-95500000D03*
D15*
X213150000Y-96400000D03*
D14*
X213150000Y-97300000D03*
X214850000Y-97300000D03*
D15*
X214850000Y-96400000D03*
D14*
X214850000Y-95500000D03*
X137350005Y-100376087D03*
D15*
X137350005Y-99476087D03*
D14*
X137350005Y-98576087D03*
X135650005Y-98576087D03*
D15*
X135650005Y-99476087D03*
D14*
X135650005Y-100376087D03*
X213149995Y-101747826D03*
D15*
X213149995Y-102647826D03*
D14*
X213149995Y-103547826D03*
X214849995Y-103547826D03*
D15*
X214849995Y-102647826D03*
D14*
X214849995Y-101747826D03*
X137350005Y-106628261D03*
D15*
X137350005Y-105728261D03*
D14*
X137350005Y-104828261D03*
X135650005Y-104828261D03*
D15*
X135650005Y-105728261D03*
D14*
X135650005Y-106628261D03*
X213149995Y-107995652D03*
D15*
X213149995Y-108895652D03*
D14*
X213149995Y-109795652D03*
X214849995Y-109795652D03*
D15*
X214849995Y-108895652D03*
D14*
X214849995Y-107995652D03*
X137350005Y-112880435D03*
D15*
X137350005Y-111980435D03*
D14*
X137350005Y-111080435D03*
X135650005Y-111080435D03*
D15*
X135650005Y-111980435D03*
D14*
X135650005Y-112880435D03*
X213149995Y-114243478D03*
D15*
X213149995Y-115143478D03*
D14*
X213149995Y-116043478D03*
X214849995Y-116043478D03*
D15*
X214849995Y-115143478D03*
D14*
X214849995Y-114243478D03*
X137350005Y-119132609D03*
D15*
X137350005Y-118232609D03*
D14*
X137350005Y-117332609D03*
X135650005Y-117332609D03*
D15*
X135650005Y-118232609D03*
D14*
X135650005Y-119132609D03*
X213149995Y-120491304D03*
D15*
X213149995Y-121391304D03*
D14*
X213149995Y-122291304D03*
X214849995Y-122291304D03*
D15*
X214849995Y-121391304D03*
D14*
X214849995Y-120491304D03*
X137350005Y-125384783D03*
D15*
X137350005Y-124484783D03*
D14*
X137350005Y-123584783D03*
X135650005Y-123584783D03*
D15*
X135650005Y-124484783D03*
D14*
X135650005Y-125384783D03*
X213149995Y-126739130D03*
D15*
X213149995Y-127639130D03*
D14*
X213149995Y-128539130D03*
X214849995Y-128539130D03*
D15*
X214849995Y-127639130D03*
D14*
X214849995Y-126739130D03*
X137350005Y-131636957D03*
D15*
X137350005Y-130736957D03*
D14*
X137350005Y-129836957D03*
X135650005Y-129836957D03*
D15*
X135650005Y-130736957D03*
D14*
X135650005Y-131636957D03*
X213149995Y-132986956D03*
D15*
X213149995Y-133886956D03*
D14*
X213149995Y-134786956D03*
X214849995Y-134786956D03*
D15*
X214849995Y-133886956D03*
D14*
X214849995Y-132986956D03*
X137350005Y-137889131D03*
D15*
X137350005Y-136989131D03*
D14*
X137350005Y-136089131D03*
X135650005Y-136089131D03*
D15*
X135650005Y-136989131D03*
D14*
X135650005Y-137889131D03*
X213149995Y-139234782D03*
D15*
X213149995Y-140134782D03*
D14*
X213149995Y-141034782D03*
X214849995Y-141034782D03*
D15*
X214849995Y-140134782D03*
D14*
X214849995Y-139234782D03*
X137350005Y-144141305D03*
D15*
X137350005Y-143241305D03*
D14*
X137350005Y-142341305D03*
X135650005Y-142341305D03*
D15*
X135650005Y-143241305D03*
D14*
X135650005Y-144141305D03*
X213149995Y-145482608D03*
D15*
X213149995Y-146382608D03*
D14*
X213149995Y-147282608D03*
X214849995Y-147282608D03*
D15*
X214849995Y-146382608D03*
D14*
X214849995Y-145482608D03*
X137350005Y-150393479D03*
D15*
X137350005Y-149493479D03*
D14*
X137350005Y-148593479D03*
X135650005Y-148593479D03*
D15*
X135650005Y-149493479D03*
D14*
X135650005Y-150393479D03*
X213149995Y-151730434D03*
D15*
X213149995Y-152630434D03*
D14*
X213149995Y-153530434D03*
X214849995Y-153530434D03*
D15*
X214849995Y-152630434D03*
D14*
X214849995Y-151730434D03*
X137350005Y-156645653D03*
D15*
X137350005Y-155745653D03*
D14*
X137350005Y-154845653D03*
X135650005Y-154845653D03*
D15*
X135650005Y-155745653D03*
D14*
X135650005Y-156645653D03*
X213149995Y-157978260D03*
D15*
X213149995Y-158878260D03*
D14*
X213149995Y-159778260D03*
X214849995Y-159778260D03*
D15*
X214849995Y-158878260D03*
D14*
X214849995Y-157978260D03*
X137350005Y-162897827D03*
D15*
X137350005Y-161997827D03*
D14*
X137350005Y-161097827D03*
X135650005Y-161097827D03*
D15*
X135650005Y-161997827D03*
D14*
X135650005Y-162897827D03*
X213149995Y-164226086D03*
D15*
X213149995Y-165126086D03*
D14*
X213149995Y-166026086D03*
X214849995Y-166026086D03*
D15*
X214849995Y-165126086D03*
D14*
X214849995Y-164226086D03*
X137350005Y-169150001D03*
D15*
X137350005Y-168250001D03*
D14*
X137350005Y-167350001D03*
X135650005Y-167350001D03*
D15*
X135650005Y-168250001D03*
D14*
X135650005Y-169150001D03*
D16*
X224790000Y-166000000D03*
D17*
X222250000Y-166000000D03*
D18*
X177540000Y-192000000D03*
D19*
X175000000Y-192000000D03*
X172460000Y-192000000D03*
D20*
X142000000Y-182040000D03*
D21*
X142000000Y-179500000D03*
X142000000Y-176960000D03*
D20*
X208600000Y-176800000D03*
D21*
X208600000Y-179340000D03*
X208600000Y-181880000D03*
D13*
X128011542Y-66616445D03*
D22*
X118850000Y-126250000D03*
X125650000Y-126250000D03*
X125650000Y-122250000D03*
X118850000Y-122250000D03*
D23*
X125750000Y-130350000D03*
X125750000Y-137150000D03*
X129750000Y-137150000D03*
X129750000Y-130350000D03*
D22*
X125650000Y-141250000D03*
X118850000Y-141250000D03*
X118850000Y-145250000D03*
X125650000Y-145250000D03*
D23*
X118500000Y-137150000D03*
X118500000Y-130350000D03*
X114500000Y-130350000D03*
X114500000Y-137150000D03*
D22*
X224750000Y-126250000D03*
X231550000Y-126250000D03*
X231550000Y-122250000D03*
X224750000Y-122250000D03*
D23*
X231750000Y-130100000D03*
X231750000Y-136900000D03*
X235750000Y-136900000D03*
X235750000Y-130100000D03*
D22*
X231650000Y-141000000D03*
X224850000Y-141000000D03*
X224850000Y-145000000D03*
X231650000Y-145000000D03*
D23*
X224500000Y-136800000D03*
X224500000Y-130000000D03*
X220500000Y-130000000D03*
X220500000Y-136800000D03*
D22*
X153750000Y-85250000D03*
X160550000Y-85250000D03*
X160550000Y-81250000D03*
X153750000Y-81250000D03*
X186850000Y-85250000D03*
X193650000Y-85250000D03*
X193650000Y-81250000D03*
X186850000Y-81250000D03*
D24*
X211250000Y-173750000D03*
X205500000Y-173750000D03*
X200750000Y-173750000D03*
X196000000Y-173750000D03*
X190750000Y-173750000D03*
X160500000Y-173750000D03*
X154750000Y-173750000D03*
X149000000Y-173750000D03*
X143000000Y-173750000D03*
X136750000Y-173750000D03*
X131250000Y-111500000D03*
X131250000Y-121750000D03*
X131250000Y-133250000D03*
X131250000Y-144250000D03*
X131250000Y-168500000D03*
X131250000Y-156250000D03*
X218750000Y-174750000D03*
X218750000Y-168500000D03*
X218750000Y-161500000D03*
X218750000Y-154000000D03*
X218750000Y-147500000D03*
X218750000Y-140750000D03*
X218750000Y-126750000D03*
X218750000Y-118750000D03*
X218750000Y-111500000D03*
X218750000Y-104000000D03*
X218750000Y-96500000D03*
X211750000Y-90750000D03*
X201500000Y-90750000D03*
X188250000Y-90750000D03*
X176500000Y-90750000D03*
X152750000Y-90750000D03*
X145000000Y-90750000D03*
X136500000Y-91000000D03*
X131250000Y-94000000D03*
X131250000Y-101500000D03*
X131250000Y-115750000D03*
X131250000Y-127500000D03*
X131250000Y-138750000D03*
X131250000Y-149500000D03*
X131250000Y-162000000D03*
X131250000Y-173750000D03*
X175002338Y-189002338D03*
X229000000Y-154750000D03*
X169750000Y-88000000D03*
X201250000Y-81250000D03*
X169500000Y-81000000D03*
X180250000Y-85000000D03*
X125000000Y-102000000D03*
X125000000Y-101500000D03*
X125000000Y-101000000D03*
X125000000Y-100500000D03*
X114250000Y-140000000D03*
X180250000Y-77250000D03*
X185500000Y-71750000D03*
X235750000Y-121000000D03*
X169600000Y-73350000D03*
X221750000Y-150750000D03*
X129750000Y-122000000D03*
X220000000Y-116000000D03*
X168350000Y-190700000D03*
X203250000Y-184000000D03*
X175000000Y-194500000D03*
X210626343Y-129211696D03*
X207266519Y-129191697D03*
X203846699Y-129171698D03*
X200516874Y-129211696D03*
X197150419Y-129183891D03*
X193771070Y-129183891D03*
X190416268Y-129167526D03*
X187054102Y-129199847D03*
X183672708Y-129223167D03*
X180329106Y-129225643D03*
X176911649Y-129202860D03*
X173543167Y-129186233D03*
X170212561Y-129192390D03*
X166839577Y-129183902D03*
X163435376Y-129188487D03*
X160081865Y-129188470D03*
X156715564Y-129180678D03*
X153349090Y-129176622D03*
X149978748Y-129193327D03*
X146607879Y-129191869D03*
X143249164Y-129200287D03*
X213939039Y-110516332D03*
X214137097Y-166666081D03*
X210930434Y-166800000D03*
X207456875Y-166706772D03*
X204141304Y-166750000D03*
X200821739Y-166800000D03*
X197452174Y-166800000D03*
X194032609Y-166750000D03*
X190713044Y-166800000D03*
X187293479Y-166750000D03*
X183841409Y-166688633D03*
X180554349Y-166750000D03*
X177130790Y-166706772D03*
X173850000Y-166784781D03*
X170495654Y-166800000D03*
X167022095Y-166706772D03*
X163652530Y-166706772D03*
X160282965Y-166706772D03*
X156834924Y-166649541D03*
X153433055Y-166618057D03*
X150228264Y-166750000D03*
X146735926Y-166657952D03*
X143388767Y-166675815D03*
X139933597Y-166593939D03*
X136637097Y-166666078D03*
X214196682Y-160459345D03*
X210788102Y-160433903D03*
X207500000Y-160486957D03*
X204028676Y-160418475D03*
X200604686Y-160367785D03*
X197289546Y-160418475D03*
X193919981Y-160418475D03*
X190450165Y-160310282D03*
X187180851Y-160418475D03*
X183870597Y-160459345D03*
X180380767Y-160360587D03*
X177072156Y-160418475D03*
X173648166Y-160367785D03*
X170392337Y-160459345D03*
X166963461Y-160418475D03*
X163758698Y-160550000D03*
X160224331Y-160418475D03*
X156969568Y-160500000D03*
X153485201Y-160418475D03*
X150115636Y-160418475D03*
X146746071Y-160418475D03*
X143435817Y-160459345D03*
X139982428Y-160397503D03*
X136752178Y-160500000D03*
X214197367Y-154211921D03*
X210827802Y-154211921D03*
X207565217Y-154300000D03*
X204145652Y-154250000D03*
X200629920Y-154145351D03*
X197400000Y-154243478D03*
X193920260Y-154170872D03*
X190530859Y-154154142D03*
X187240847Y-154211921D03*
X183811565Y-154170872D03*
X180501717Y-154211921D03*
X177132152Y-154211921D03*
X173680605Y-154151969D03*
X170278513Y-154119864D03*
X167100000Y-154269563D03*
X163539385Y-154119866D03*
X160169820Y-154119866D03*
X156855045Y-154170872D03*
X153482960Y-154168843D03*
X150015050Y-154061965D03*
X146790256Y-154202266D03*
X143436502Y-154211921D03*
X140123917Y-154250000D03*
X136697372Y-154211921D03*
X214190097Y-147959755D03*
X210768366Y-147923272D03*
X207398801Y-147923272D03*
X204147826Y-148000000D03*
X200828261Y-148050000D03*
X197290106Y-147923272D03*
X193920541Y-147923272D03*
X190587272Y-147949685D03*
X187241542Y-147964502D03*
X183811846Y-147923272D03*
X180502412Y-147964502D03*
X177026605Y-147881481D03*
X173763282Y-147964502D03*
X170333586Y-147923272D03*
X166984598Y-147938855D03*
X163638669Y-147954814D03*
X160224891Y-147923272D03*
X156915457Y-147964502D03*
X153485761Y-147923272D03*
X150194928Y-147974827D03*
X146806762Y-147964502D03*
X143321908Y-147871945D03*
X140007501Y-147923272D03*
X136690096Y-147959752D03*
X214138217Y-141675674D03*
X210829201Y-141717085D03*
X207324095Y-141601659D03*
X204090071Y-141717085D03*
X200683305Y-141693206D03*
X197410870Y-141750000D03*
X193981376Y-141717085D03*
X190526239Y-141654332D03*
X187300000Y-141747825D03*
X183832855Y-141691339D03*
X180503116Y-141717085D03*
X177133551Y-141717085D03*
X173703437Y-141675674D03*
X170333872Y-141675674D03*
X166982411Y-141689452D03*
X163594742Y-141675674D03*
X160350000Y-141754345D03*
X156884222Y-141696872D03*
X153478420Y-141669466D03*
X150250000Y-141763040D03*
X146807466Y-141717085D03*
X143500000Y-141752170D03*
X140033760Y-141695047D03*
X136698771Y-141717085D03*
X214138507Y-135428079D03*
X210829915Y-135469673D03*
X207433518Y-135452985D03*
X204090785Y-135469673D03*
X200721220Y-135469673D03*
X197335522Y-135459922D03*
X193921117Y-135428079D03*
X190612525Y-135469673D03*
X187242960Y-135469673D03*
X183812422Y-135428079D03*
X180503830Y-135469673D03*
X177134265Y-135469673D03*
X173703727Y-135428079D03*
X170334162Y-135428079D03*
X166964597Y-135428079D03*
X163595032Y-135428079D03*
X160228043Y-135430116D03*
X156855902Y-135428079D03*
X153430424Y-135376100D03*
X150116772Y-135428079D03*
X146747207Y-135428079D03*
X143377642Y-135428079D03*
X140008077Y-135428079D03*
X136582599Y-135376100D03*
X214082504Y-129128175D03*
X140029386Y-129196313D03*
X136582509Y-129128175D03*
X214062171Y-122856891D03*
X210692606Y-122856891D03*
X207369452Y-122906597D03*
X203973717Y-122880250D03*
X200652534Y-122926158D03*
X197226918Y-122871739D03*
X193946098Y-122951078D03*
X190552144Y-122932897D03*
X187160524Y-122914326D03*
X183726597Y-122844857D03*
X180517844Y-122981837D03*
X176954085Y-122795280D03*
X173637309Y-122868700D03*
X170230710Y-122820279D03*
X166965189Y-122932897D03*
X163642734Y-122966061D03*
X160211597Y-122920967D03*
X156789484Y-122868700D03*
X153451999Y-122902421D03*
X150050354Y-122868700D03*
X146643755Y-122820279D03*
X143390344Y-122942214D03*
X140020779Y-122942214D03*
X136651214Y-122942214D03*
X214154811Y-116697047D03*
X210844757Y-116734454D03*
X207475192Y-116734454D03*
X204107275Y-116735330D03*
X200565061Y-116584370D03*
X197179069Y-116559912D03*
X193835021Y-116596675D03*
X190528719Y-116665272D03*
X187115410Y-116620691D03*
X183756233Y-116632322D03*
X180408572Y-116654646D03*
X176987196Y-116596675D03*
X173658312Y-116643653D03*
X170359621Y-116703586D03*
X166828869Y-116517084D03*
X163472539Y-116541797D03*
X160214373Y-116675502D03*
X156779348Y-116608796D03*
X153362904Y-116540146D03*
X150082487Y-116654646D03*
X146670653Y-116608796D03*
X143403101Y-116703586D03*
X139896120Y-116559366D03*
X136564515Y-116611917D03*
X210712659Y-110384394D03*
X207376679Y-110417567D03*
X204031012Y-110437728D03*
X200614809Y-110395803D03*
X197162232Y-110283257D03*
X193815125Y-110320811D03*
X190482153Y-110369576D03*
X187083791Y-110332289D03*
X183672226Y-110260090D03*
X180420159Y-110417567D03*
X176992288Y-110355413D03*
X173519563Y-110450000D03*
X170311464Y-110417567D03*
X166878227Y-110348489D03*
X163542944Y-110388893D03*
X160152132Y-110364889D03*
X156772401Y-110352222D03*
X153409563Y-110360698D03*
X150073736Y-110398235D03*
X146662469Y-110350622D03*
X143265290Y-110310909D03*
X139904636Y-110324643D03*
X136652532Y-110447541D03*
X214071606Y-104124665D03*
X210691944Y-104112596D03*
X207303544Y-104087811D03*
X203933979Y-104087811D03*
X200583249Y-104112596D03*
X197209852Y-104107808D03*
X193825284Y-104087811D03*
X190451495Y-104081784D03*
X187104989Y-104112596D03*
X183766961Y-104147953D03*
X180356208Y-104100298D03*
X176996294Y-104112596D03*
X173705238Y-104190147D03*
X170348050Y-104199618D03*
X166921556Y-104150403D03*
X163596543Y-104190147D03*
X160129634Y-104087811D03*
X156789001Y-104124665D03*
X153390890Y-104088353D03*
X150143209Y-104208615D03*
X146619514Y-104036829D03*
X143300644Y-104112596D03*
X139903540Y-104075180D03*
X136591120Y-104145974D03*
X214116086Y-97922160D03*
X210795878Y-97961135D03*
X207332311Y-97876648D03*
X204133848Y-98004934D03*
X200559081Y-97832344D03*
X197238460Y-97893098D03*
X193788521Y-97779763D03*
X190455390Y-97839523D03*
X187139431Y-97903064D03*
X183789999Y-97922162D03*
X180331099Y-97816204D03*
X176946064Y-97789855D03*
X173636661Y-97876648D03*
X170288677Y-97900104D03*
X166826471Y-97926556D03*
X163451734Y-97949893D03*
X160073411Y-97926156D03*
X156725080Y-97949524D03*
X153351362Y-97948593D03*
X149976122Y-97950564D03*
X146598992Y-97951147D03*
X143223526Y-97948832D03*
X139875209Y-97949283D03*
X136500304Y-97950193D03*
X138750000Y-182000000D03*
X177500000Y-189000000D03*
X230500000Y-161750000D03*
X170000000Y-72250000D03*
X169500000Y-80000000D03*
X127000000Y-98250000D03*
X126250000Y-99250000D03*
X126250000Y-98750000D03*
X126250000Y-98250000D03*
X228250000Y-141000000D03*
X228250000Y-126250000D03*
X231750000Y-133250000D03*
X224500000Y-133250000D03*
X122250000Y-141250000D03*
X118500000Y-133750000D03*
X125750000Y-133750000D03*
X122500000Y-126250000D03*
X157250000Y-87750000D03*
X190250000Y-87750000D03*
X212320991Y-129207525D03*
X208936432Y-129191695D03*
X205556609Y-129171698D03*
X202236784Y-129181697D03*
X198826963Y-129221695D03*
X195423923Y-129167526D03*
X192077302Y-129183891D03*
X188747050Y-129183891D03*
X185367292Y-129192075D03*
X182001444Y-129207620D03*
X178620378Y-129225643D03*
X175248487Y-129180077D03*
X171862473Y-129210859D03*
X168507242Y-129149295D03*
X165148400Y-129181204D03*
X161754449Y-129208986D03*
X158397232Y-129180496D03*
X155039202Y-129185789D03*
X151649302Y-129197504D03*
X148274610Y-129191869D03*
X144932730Y-129183452D03*
X141498250Y-129200287D03*
X215833051Y-122983051D03*
X134450000Y-167300000D03*
X134450000Y-161050000D03*
X134500000Y-154800000D03*
X134550000Y-148500000D03*
X134550000Y-142250000D03*
X134550000Y-136050000D03*
X134550000Y-129800000D03*
X134550000Y-123500000D03*
X134550000Y-117300000D03*
X134550000Y-111000000D03*
X134500000Y-104800000D03*
X134500759Y-98250060D03*
X215850000Y-166450000D03*
X215800000Y-160150000D03*
X215800000Y-153900000D03*
X215800000Y-147650000D03*
X215900000Y-141600000D03*
X215750000Y-135300000D03*
X215700000Y-129100000D03*
X215950000Y-116600000D03*
X215877816Y-110498521D03*
X215950000Y-104350000D03*
X215876141Y-97850000D03*
X212549999Y-166750000D03*
X209126440Y-166706772D03*
X205810869Y-166750000D03*
X202441304Y-166750000D03*
X199100000Y-166778261D03*
X195589272Y-166666081D03*
X192332609Y-166750000D03*
X188963044Y-166750000D03*
X185547303Y-166711289D03*
X182200000Y-166726086D03*
X178850000Y-166745651D03*
X175449034Y-166717023D03*
X172115219Y-166750000D03*
X168696870Y-166709803D03*
X165322095Y-166706772D03*
X162000000Y-166743476D03*
X158539125Y-166677706D03*
X155154492Y-166666081D03*
X151843835Y-166706772D03*
X148415362Y-166666081D03*
X145045797Y-166666081D03*
X141688767Y-166675815D03*
X138342213Y-166692112D03*
X212496682Y-160459345D03*
X209182608Y-160500000D03*
X205698241Y-160418475D03*
X202395857Y-160463875D03*
X198989719Y-160441138D03*
X195704348Y-160500000D03*
X192219981Y-160418475D03*
X188950000Y-160484782D03*
X185545407Y-160462385D03*
X182170597Y-160459345D03*
X178687296Y-160367785D03*
X175372156Y-160418475D03*
X172061902Y-160459345D03*
X168633026Y-160418475D03*
X165288898Y-160437559D03*
X161793645Y-160310282D03*
X158469906Y-160367785D03*
X155214077Y-160459345D03*
X151900003Y-160500000D03*
X148474947Y-160459345D03*
X145150000Y-160489127D03*
X141686586Y-160426342D03*
X138400000Y-160478257D03*
X212497367Y-154211921D03*
X209127802Y-154211921D03*
X205800000Y-154234783D03*
X202495652Y-154300000D03*
X198904600Y-154119866D03*
X195488960Y-154061965D03*
X192279977Y-154211921D03*
X188795905Y-154119866D03*
X185540847Y-154211921D03*
X182056775Y-154119866D03*
X178850000Y-154241303D03*
X175372435Y-154170872D03*
X172002870Y-154170872D03*
X168693020Y-154211919D03*
X165323457Y-154211921D03*
X161839385Y-154119866D03*
X158524610Y-154170872D03*
X155214762Y-154211921D03*
X151782960Y-154168843D03*
X148550000Y-154267388D03*
X145052608Y-154175798D03*
X141736502Y-154211921D03*
X138252430Y-154119866D03*
X212490097Y-147959755D03*
X209013208Y-147871945D03*
X205698801Y-147923272D03*
X202497826Y-148050000D03*
X199150000Y-148071739D03*
X195700000Y-147991304D03*
X192220541Y-147923272D03*
X188948246Y-147984122D03*
X185379927Y-147813641D03*
X182135030Y-147940713D03*
X178729714Y-147912893D03*
X175432847Y-147964502D03*
X172097780Y-147982856D03*
X168691058Y-147962939D03*
X165208863Y-147871945D03*
X161954587Y-147964502D03*
X158524891Y-147923272D03*
X155186359Y-147946158D03*
X151900000Y-147995649D03*
X148434172Y-147936977D03*
X145088199Y-147953125D03*
X141682157Y-147927284D03*
X138277824Y-147897594D03*
X212428073Y-141667364D03*
X209013119Y-141624023D03*
X205643554Y-141624023D03*
X202329522Y-141675674D03*
X198983305Y-141693206D03*
X195650941Y-141717085D03*
X192174401Y-141633625D03*
X188946533Y-141735478D03*
X185481697Y-141675674D03*
X182172681Y-141717085D03*
X178803116Y-141717085D03*
X175380710Y-141681700D03*
X172003437Y-141675674D03*
X168694421Y-141717085D03*
X165343581Y-141727437D03*
X161877101Y-141660927D03*
X158585726Y-141717085D03*
X155216161Y-141717085D03*
X151846596Y-141717085D03*
X148536960Y-141750000D03*
X145107466Y-141717085D03*
X141737901Y-141717085D03*
X138395068Y-141731551D03*
X212499480Y-135469673D03*
X209079313Y-135436119D03*
X205795298Y-135488102D03*
X202390785Y-135469673D03*
X199021220Y-135469673D03*
X195575423Y-135415424D03*
X192290170Y-135474252D03*
X188851552Y-135428079D03*
X185537574Y-135466510D03*
X182173395Y-135469673D03*
X178742857Y-135428079D03*
X175321927Y-135380961D03*
X172003727Y-135428079D03*
X168634162Y-135428079D03*
X165280201Y-135440012D03*
X161934511Y-135456496D03*
X158528043Y-135430116D03*
X155155902Y-135428079D03*
X151847310Y-135469673D03*
X148416772Y-135428079D03*
X145024470Y-135408837D03*
X141621729Y-135376100D03*
X138308077Y-135428079D03*
X138180353Y-129028075D03*
X212421083Y-122917892D03*
X208992606Y-122856891D03*
X205587811Y-122807813D03*
X202234944Y-122832640D03*
X198848681Y-122807813D03*
X195591274Y-122932897D03*
X192146901Y-122859477D03*
X188797290Y-122882228D03*
X185436595Y-122891501D03*
X182149810Y-122959479D03*
X178623651Y-122795282D03*
X175306874Y-122868700D03*
X171969389Y-122902421D03*
X168599824Y-122902421D03*
X165161145Y-122820279D03*
X161858744Y-122900544D03*
X158562855Y-122959479D03*
X155079566Y-122856891D03*
X151653281Y-122770176D03*
X148449827Y-122956608D03*
X145059909Y-122942214D03*
X141597123Y-122851679D03*
X138236859Y-122863077D03*
X212427413Y-116675502D03*
X209106897Y-116712025D03*
X205825173Y-116757720D03*
X202367767Y-116712025D03*
X198937414Y-116665272D03*
X195545743Y-116644137D03*
X192186830Y-116654645D03*
X188805660Y-116643165D03*
X185415410Y-116620691D03*
X182044518Y-116619152D03*
X178708572Y-116654646D03*
X175350459Y-116665272D03*
X171992633Y-116675502D03*
X168567585Y-116620691D03*
X165144974Y-116546747D03*
X161965897Y-116731773D03*
X158398661Y-116534103D03*
X155084497Y-116615029D03*
X151678213Y-116565376D03*
X148360583Y-116632322D03*
X144946712Y-116576801D03*
X141582456Y-116584370D03*
X138266008Y-116647030D03*
X212384778Y-110550000D03*
X208992168Y-110360698D03*
X205653939Y-110395803D03*
X202234305Y-110336094D03*
X198986191Y-110456099D03*
X195486511Y-110323553D03*
X192184419Y-110404495D03*
X188762752Y-110345270D03*
X185367241Y-110307045D03*
X182097402Y-110424326D03*
X178715606Y-110413427D03*
X175302136Y-110367498D03*
X171912927Y-110342579D03*
X168588724Y-110395803D03*
X165219159Y-110395803D03*
X161818258Y-110360698D03*
X158458730Y-110372679D03*
X155063123Y-110339879D03*
X151752105Y-110406872D03*
X148394074Y-110417567D03*
X144992778Y-110386396D03*
X141622747Y-110385895D03*
X138222519Y-110349553D03*
X212341125Y-104085624D03*
X208962577Y-104072418D03*
X205710018Y-104197191D03*
X202327596Y-104187173D03*
X198847496Y-104062444D03*
X195513684Y-104112596D03*
X192198556Y-104169864D03*
X188806091Y-104147953D03*
X185357686Y-104042957D03*
X182007885Y-104075180D03*
X178744368Y-104190147D03*
X175374803Y-104190147D03*
X171950627Y-104139992D03*
X168580591Y-104139489D03*
X165187599Y-104112596D03*
X161774562Y-104049648D03*
X158458566Y-104124665D03*
X155121725Y-104159098D03*
X151776204Y-104180659D03*
X148394211Y-104169864D03*
X144969776Y-104112061D03*
X141702976Y-104207848D03*
X138321965Y-104199618D03*
X212333603Y-97826795D03*
X209070768Y-97942570D03*
X205648587Y-97894610D03*
X202273335Y-97888532D03*
X198842652Y-97806690D03*
X195451937Y-97767467D03*
X192202833Y-97925835D03*
X188784486Y-97876648D03*
X185534549Y-97977738D03*
X182058300Y-97891074D03*
X178586640Y-97726787D03*
X175318224Y-97890058D03*
X171907565Y-97839523D03*
X168547232Y-97852101D03*
X165278888Y-97952089D03*
X161807688Y-97851554D03*
X158479982Y-97900104D03*
X155193932Y-97968596D03*
X151738909Y-97898111D03*
X148337394Y-97861811D03*
X144920446Y-97939856D03*
X141560000Y-97930000D03*
X138174271Y-97950813D03*
X121986691Y-119933051D03*
X129750000Y-127250000D03*
X115250000Y-144750000D03*
X114500000Y-127500000D03*
X226623455Y-120250000D03*
X235750000Y-127000000D03*
X221750000Y-145000000D03*
X220500000Y-127250000D03*
X163750000Y-81250000D03*
X176283850Y-78833814D03*
X176252435Y-81000088D03*
X174003576Y-87256107D03*
X174000000Y-85500000D03*
X173751400Y-83749990D03*
X196750000Y-81250000D03*
X182380000Y-181880000D03*
X174500000Y-180250000D03*
X172500000Y-180250000D03*
X129525000Y-101275000D03*
X128294363Y-100036271D03*
D25*
G36*
X155227713Y-67713073D02*
X149653303Y-71788504D01*
X138277390Y-57100077D01*
X138239225Y-57067139D01*
X138191252Y-57051645D01*
X138141030Y-57056036D01*
X138096474Y-57079620D01*
X138064603Y-57118680D01*
X138050505Y-57166329D01*
X136245677Y-76994959D01*
X116018538Y-74041235D01*
X115978133Y-74041831D01*
X115771323Y-74078298D01*
X115724401Y-74096732D01*
X115688348Y-74131969D01*
X115668844Y-74178457D01*
X115668306Y-74225421D01*
X115685670Y-74323902D01*
X115711883Y-74381575D01*
X126934548Y-88297595D01*
X120775620Y-92800247D01*
X117698237Y-94100653D01*
X101866133Y-76129342D01*
X117917648Y-52702847D01*
X146202990Y-51868104D01*
X155227713Y-67713073D01*
X155227713Y-67713073D01*
G37*
X155227713Y-67713073D02*
X149653303Y-71788504D01*
X138277390Y-57100077D01*
X138239225Y-57067139D01*
X138191252Y-57051645D01*
X138141030Y-57056036D01*
X138096474Y-57079620D01*
X138064603Y-57118680D01*
X138050505Y-57166329D01*
X136245677Y-76994959D01*
X116018538Y-74041235D01*
X115978133Y-74041831D01*
X115771323Y-74078298D01*
X115724401Y-74096732D01*
X115688348Y-74131969D01*
X115668844Y-74178457D01*
X115668306Y-74225421D01*
X115685670Y-74323902D01*
X115711883Y-74381575D01*
X126934548Y-88297595D01*
X120775620Y-92800247D01*
X117698237Y-94100653D01*
X101866133Y-76129342D01*
X117917648Y-52702847D01*
X146202990Y-51868104D01*
X155227713Y-67713073D01*
G36*
X232282352Y-52702847D02*
X248333867Y-76129342D01*
X232501763Y-94100653D01*
X229424380Y-92800247D01*
X223265452Y-88297595D01*
X234488117Y-74381575D01*
X234514330Y-74323902D01*
X234531694Y-74225421D01*
X234530420Y-74175024D01*
X234509638Y-74129094D01*
X234472625Y-74094867D01*
X234428677Y-74078298D01*
X234221867Y-74041831D01*
X234181462Y-74041235D01*
X213954323Y-76994959D01*
X212149495Y-57166329D01*
X212135052Y-57118029D01*
X212102955Y-57079154D01*
X212058262Y-57055829D01*
X212008016Y-57051730D01*
X211960134Y-57067502D01*
X211922610Y-57100077D01*
X200546697Y-71788504D01*
X194972287Y-67713073D01*
X203997010Y-51868104D01*
X232282352Y-52702847D01*
X232282352Y-52702847D01*
G37*
X232282352Y-52702847D02*
X248333867Y-76129342D01*
X232501763Y-94100653D01*
X229424380Y-92800247D01*
X223265452Y-88297595D01*
X234488117Y-74381575D01*
X234514330Y-74323902D01*
X234531694Y-74225421D01*
X234530420Y-74175024D01*
X234509638Y-74129094D01*
X234472625Y-74094867D01*
X234428677Y-74078298D01*
X234221867Y-74041831D01*
X234181462Y-74041235D01*
X213954323Y-76994959D01*
X212149495Y-57166329D01*
X212135052Y-57118029D01*
X212102955Y-57079154D01*
X212058262Y-57055829D01*
X212008016Y-57051730D01*
X211960134Y-57067502D01*
X211922610Y-57100077D01*
X200546697Y-71788504D01*
X194972287Y-67713073D01*
X203997010Y-51868104D01*
X232282352Y-52702847D01*
M02*
