M48
;DRILL file {KiCad 4.0.6+dfsg1-1} date Mon Jul  2 21:37:26 2018
;FORMAT={3:3/ absolute / metric / suppress leading zeros}
FMAT,2
METRIC,TZ
T1C0.400
%
G90
G05
M71
T1
X57181Y-53764
X57181Y-104764
X57271Y-86155
X57271Y-137155
X57592Y-53324
X57592Y-104324
X57678Y-86605
X57678Y-137605
X58017Y-52896
X58017Y-103896
X58071Y-85155
X58071Y-136155
X58109Y-87027
X58109Y-138027
X58281Y-54664
X58281Y-105664
X58451Y-52476
X58451Y-103476
X58478Y-85605
X58478Y-136605
X58526Y-87464
X58526Y-138464
X58692Y-54224
X58692Y-105224
X58899Y-52072
X58899Y-103072
X58909Y-86027
X58909Y-137027
X58976Y-87864
X58976Y-138864
X59117Y-53796
X59117Y-104796
X59326Y-86464
X59326Y-137464
X59354Y-51676
X59354Y-102676
X59423Y-88269
X59423Y-139269
X59551Y-53376
X59551Y-104376
X59776Y-86864
X59776Y-137864
X59818Y-51295
X59818Y-102295
X59883Y-88652
X59883Y-139652
X59999Y-52972
X59999Y-103972
X60223Y-87269
X60223Y-138269
X60454Y-52576
X60454Y-103576
X60683Y-87652
X60683Y-138652
X60918Y-52195
X60918Y-103195
X89199Y-52290
X89199Y-103290
X89218Y-87724
X89218Y-138724
X89663Y-52678
X89663Y-103678
X89681Y-87338
X89681Y-138338
X90099Y-51290
X90099Y-102290
X90116Y-53075
X90116Y-104075
X90118Y-88624
X90118Y-139624
X90147Y-86944
X90147Y-137944
X90559Y-53482
X90559Y-104482
X90563Y-51678
X90563Y-102678
X90581Y-88238
X90581Y-139238
X90589Y-86526
X90589Y-137526
X90993Y-53905
X90993Y-104905
X91016Y-52075
X91016Y-103075
X91034Y-86105
X91034Y-137105
X91047Y-87844
X91047Y-138844
X91414Y-54338
X91414Y-105338
X91459Y-52482
X91459Y-103482
X91466Y-85681
X91466Y-136681
X91489Y-87426
X91489Y-138426
X91824Y-54782
X91824Y-105782
X91890Y-85245
X91890Y-136245
X91893Y-52905
X91893Y-103905
X91934Y-87005
X91934Y-138005
X92314Y-53338
X92314Y-104338
X92366Y-86581
X92366Y-137581
X92724Y-53782
X92724Y-104782
X92790Y-86145
X92790Y-137145
X108181Y-53764
X108181Y-104764
X108271Y-86155
X108271Y-137155
X108592Y-53324
X108592Y-104324
X108678Y-86605
X108678Y-137605
X109017Y-52896
X109017Y-103896
X109071Y-85155
X109071Y-136155
X109109Y-87027
X109109Y-138027
X109281Y-54664
X109281Y-105664
X109451Y-52476
X109451Y-103476
X109478Y-85605
X109478Y-136605
X109526Y-87464
X109526Y-138464
X109692Y-54224
X109692Y-105224
X109899Y-52072
X109899Y-103072
X109909Y-86027
X109909Y-137027
X109976Y-87864
X109976Y-138864
X110117Y-53796
X110117Y-104796
X110326Y-86464
X110326Y-137464
X110354Y-51676
X110354Y-102676
X110423Y-88269
X110423Y-139269
X110551Y-53376
X110551Y-104376
X110776Y-86864
X110776Y-137864
X110818Y-51295
X110818Y-102295
X110883Y-88652
X110883Y-139652
X110999Y-52972
X110999Y-103972
X111223Y-87269
X111223Y-138269
X111454Y-52576
X111454Y-103576
X111683Y-87652
X111683Y-138652
X111918Y-52195
X111918Y-103195
X140199Y-52290
X140199Y-103290
X140218Y-87724
X140218Y-138724
X140663Y-52678
X140663Y-103678
X140681Y-87338
X140681Y-138338
X141099Y-51290
X141099Y-102290
X141116Y-53075
X141116Y-104075
X141118Y-88624
X141118Y-139624
X141147Y-86944
X141147Y-137944
X141559Y-53482
X141559Y-104482
X141563Y-51678
X141563Y-102678
X141581Y-88238
X141581Y-139238
X141589Y-86526
X141589Y-137526
X141993Y-53905
X141993Y-104905
X142016Y-52075
X142016Y-103075
X142034Y-86105
X142034Y-137105
X142047Y-87844
X142047Y-138844
X142414Y-54338
X142414Y-105338
X142459Y-52482
X142459Y-103482
X142466Y-85681
X142466Y-136681
X142489Y-87426
X142489Y-138426
X142824Y-54782
X142824Y-105782
X142890Y-85245
X142890Y-136245
X142893Y-52905
X142893Y-103905
X142934Y-87005
X142934Y-138005
X143314Y-53338
X143314Y-104338
X143366Y-86581
X143366Y-137581
X143724Y-53782
X143724Y-104782
X143790Y-86145
X143790Y-137145
T0
M30
