G04 #@! TF.FileFunction,Copper,L1,Top,Signal*
%FSLAX46Y46*%
G04 Gerber Fmt 4.6, Leading zero omitted, Abs format (unit mm)*
G04 Created by KiCad (PCBNEW 4.0.6+dfsg1-1) date Tue Jul  3 13:48:52 2018*
%MOMM*%
%LPD*%
G01*
G04 APERTURE LIST*
%ADD10C,0.100000*%
%ADD11C,0.254000*%
G04 APERTURE END LIST*
D10*
D11*
G36*
X153290000Y-148290000D02*
X47710000Y-148290000D01*
X47710000Y-119762383D01*
X50314883Y-119762383D01*
X50315262Y-119772289D01*
X50527171Y-124453141D01*
X50536341Y-124516840D01*
X50544620Y-124580651D01*
X50546916Y-124590295D01*
X51663971Y-129140840D01*
X51685325Y-129201505D01*
X51705854Y-129262533D01*
X51709980Y-129271547D01*
X53689633Y-133518458D01*
X53722374Y-133573837D01*
X53754355Y-133629698D01*
X53760153Y-133637739D01*
X56413972Y-137264771D01*
X56413837Y-137274413D01*
X56415289Y-137282326D01*
X56415318Y-137290338D01*
X56430605Y-137365778D01*
X56445167Y-137445119D01*
X56448273Y-137452964D01*
X56449941Y-137461195D01*
X56485980Y-137548200D01*
X56509058Y-137606489D01*
X56512041Y-137611118D01*
X56514225Y-137616390D01*
X56515456Y-137616417D01*
X56603076Y-137752376D01*
X56723639Y-137877222D01*
X56866155Y-137976274D01*
X56883568Y-137983882D01*
X56883610Y-137985775D01*
X56953405Y-138014392D01*
X56976079Y-138024298D01*
X56985980Y-138048200D01*
X57009058Y-138106489D01*
X57012041Y-138111118D01*
X57014225Y-138116390D01*
X57015456Y-138116417D01*
X57103076Y-138252376D01*
X57223639Y-138377222D01*
X57366155Y-138476274D01*
X57383568Y-138483882D01*
X57383610Y-138485775D01*
X57453405Y-138514392D01*
X57476079Y-138524298D01*
X57485980Y-138548200D01*
X57509058Y-138606489D01*
X57512041Y-138611118D01*
X57514225Y-138616390D01*
X57515456Y-138616417D01*
X57603076Y-138752376D01*
X57723639Y-138877222D01*
X57866155Y-138976274D01*
X57883568Y-138983882D01*
X57883610Y-138985775D01*
X57953405Y-139014392D01*
X57976079Y-139024298D01*
X57985980Y-139048200D01*
X58009058Y-139106489D01*
X58012041Y-139111118D01*
X58014225Y-139116390D01*
X58015456Y-139116417D01*
X58103076Y-139252376D01*
X58223639Y-139377222D01*
X58366155Y-139476274D01*
X58383568Y-139483882D01*
X58383610Y-139485775D01*
X58453405Y-139514392D01*
X58500545Y-139534987D01*
X58509058Y-139556489D01*
X58512041Y-139561118D01*
X58514225Y-139566390D01*
X58515456Y-139566417D01*
X58603076Y-139702376D01*
X58723639Y-139827222D01*
X58866155Y-139926274D01*
X58883568Y-139933882D01*
X58883610Y-139935775D01*
X58953405Y-139964392D01*
X59000545Y-139984987D01*
X59009058Y-140006489D01*
X59012041Y-140011118D01*
X59014225Y-140016390D01*
X59015456Y-140016417D01*
X59103076Y-140152376D01*
X59223639Y-140277222D01*
X59366155Y-140376274D01*
X59383568Y-140383882D01*
X59383610Y-140385775D01*
X59453405Y-140414392D01*
X59525197Y-140445757D01*
X59535341Y-140447987D01*
X59544908Y-140451910D01*
X59618630Y-140466300D01*
X59694705Y-140483026D01*
X59705479Y-140483252D01*
X59716009Y-140485307D01*
X59790792Y-140485039D01*
X59849934Y-140486278D01*
X63050047Y-142612428D01*
X63102482Y-142640308D01*
X63154157Y-142669665D01*
X63163241Y-142673634D01*
X67466354Y-144518066D01*
X67527674Y-144537519D01*
X67588753Y-144557839D01*
X67598432Y-144559966D01*
X67598434Y-144559967D01*
X67598436Y-144559967D01*
X72177848Y-145533461D01*
X72241736Y-145540629D01*
X72305641Y-145548703D01*
X72315552Y-145548911D01*
X76996836Y-145614384D01*
X77060942Y-145609002D01*
X77125155Y-145604513D01*
X77134918Y-145602792D01*
X81739766Y-144757753D01*
X81801620Y-144740018D01*
X81863724Y-144723146D01*
X81872966Y-144719561D01*
X86225979Y-142996196D01*
X86283184Y-142966798D01*
X86340855Y-142938172D01*
X86349225Y-142932860D01*
X90147473Y-140485179D01*
X90218225Y-140486661D01*
X90229222Y-140484722D01*
X90240338Y-140484682D01*
X90313302Y-140469896D01*
X90389146Y-140456523D01*
X90399921Y-140452344D01*
X90411195Y-140450059D01*
X90490467Y-140417223D01*
X90550957Y-140393761D01*
X90558187Y-140389173D01*
X90566390Y-140385775D01*
X90566431Y-140383941D01*
X90697497Y-140300764D01*
X90823182Y-140181075D01*
X90923226Y-140039254D01*
X90933382Y-140016443D01*
X90935775Y-140016390D01*
X90939948Y-140006212D01*
X90949921Y-140002344D01*
X90961195Y-140000059D01*
X91040467Y-139967223D01*
X91100957Y-139943761D01*
X91108187Y-139939173D01*
X91116390Y-139935775D01*
X91116431Y-139933941D01*
X91247497Y-139850764D01*
X91373182Y-139731075D01*
X91473226Y-139589254D01*
X91483382Y-139566443D01*
X91485775Y-139566390D01*
X91489948Y-139556212D01*
X91499921Y-139552344D01*
X91511195Y-139550059D01*
X91590467Y-139517223D01*
X91650957Y-139493761D01*
X91658187Y-139489173D01*
X91666390Y-139485775D01*
X91666431Y-139483941D01*
X91797497Y-139400764D01*
X91923182Y-139281075D01*
X92023226Y-139139254D01*
X92033382Y-139116443D01*
X92035775Y-139116390D01*
X92063367Y-139049096D01*
X92074638Y-139023780D01*
X92090467Y-139017223D01*
X92150957Y-138993761D01*
X92158187Y-138989173D01*
X92166390Y-138985775D01*
X92166431Y-138983941D01*
X92297497Y-138900764D01*
X92423182Y-138781075D01*
X92523226Y-138639254D01*
X92533382Y-138616443D01*
X92535775Y-138616390D01*
X92563367Y-138549096D01*
X92574638Y-138523780D01*
X92590467Y-138517223D01*
X92650957Y-138493761D01*
X92658187Y-138489173D01*
X92666390Y-138485775D01*
X92666431Y-138483941D01*
X92797497Y-138400764D01*
X92923182Y-138281075D01*
X93023226Y-138139254D01*
X93033382Y-138116443D01*
X93035775Y-138116390D01*
X93063367Y-138049096D01*
X93085299Y-137999834D01*
X93100957Y-137993761D01*
X93108187Y-137989173D01*
X93116390Y-137985775D01*
X93116431Y-137983941D01*
X93247497Y-137900764D01*
X93373182Y-137781075D01*
X93473226Y-137639254D01*
X93483382Y-137616443D01*
X93485775Y-137616390D01*
X93513367Y-137549096D01*
X93543818Y-137480701D01*
X93546811Y-137467529D01*
X93551910Y-137455092D01*
X93565774Y-137384062D01*
X93582270Y-137311457D01*
X93582449Y-137298633D01*
X93585307Y-137283991D01*
X93585304Y-137283101D01*
X94822710Y-135765891D01*
X94848053Y-135727747D01*
X94875871Y-135691372D01*
X94881037Y-135682911D01*
X97294877Y-131666862D01*
X97322487Y-131608737D01*
X97350907Y-131551000D01*
X97354331Y-131541697D01*
X98942146Y-127133282D01*
X98957937Y-127070913D01*
X98974604Y-127008744D01*
X98976156Y-126998953D01*
X99677466Y-122366088D01*
X99680841Y-122301860D01*
X99685117Y-122237617D01*
X99684738Y-122227711D01*
X99573130Y-119762383D01*
X101314883Y-119762383D01*
X101315262Y-119772289D01*
X101527171Y-124453141D01*
X101536341Y-124516840D01*
X101544620Y-124580651D01*
X101546916Y-124590295D01*
X102663971Y-129140840D01*
X102685325Y-129201505D01*
X102705854Y-129262533D01*
X102709980Y-129271547D01*
X104689633Y-133518458D01*
X104722374Y-133573837D01*
X104754355Y-133629698D01*
X104760153Y-133637739D01*
X107413972Y-137264771D01*
X107413837Y-137274413D01*
X107415289Y-137282326D01*
X107415318Y-137290338D01*
X107430605Y-137365778D01*
X107445167Y-137445119D01*
X107448273Y-137452964D01*
X107449941Y-137461195D01*
X107485980Y-137548200D01*
X107509058Y-137606489D01*
X107512041Y-137611118D01*
X107514225Y-137616390D01*
X107515456Y-137616417D01*
X107603076Y-137752376D01*
X107723639Y-137877222D01*
X107866155Y-137976274D01*
X107883568Y-137983882D01*
X107883610Y-137985775D01*
X107953405Y-138014392D01*
X107976079Y-138024298D01*
X107985980Y-138048200D01*
X108009058Y-138106489D01*
X108012041Y-138111118D01*
X108014225Y-138116390D01*
X108015456Y-138116417D01*
X108103076Y-138252376D01*
X108223639Y-138377222D01*
X108366155Y-138476274D01*
X108383568Y-138483882D01*
X108383610Y-138485775D01*
X108453405Y-138514392D01*
X108476079Y-138524298D01*
X108485980Y-138548200D01*
X108509058Y-138606489D01*
X108512041Y-138611118D01*
X108514225Y-138616390D01*
X108515456Y-138616417D01*
X108603076Y-138752376D01*
X108723639Y-138877222D01*
X108866155Y-138976274D01*
X108883568Y-138983882D01*
X108883610Y-138985775D01*
X108953405Y-139014392D01*
X108976079Y-139024298D01*
X108985980Y-139048200D01*
X109009058Y-139106489D01*
X109012041Y-139111118D01*
X109014225Y-139116390D01*
X109015456Y-139116417D01*
X109103076Y-139252376D01*
X109223639Y-139377222D01*
X109366155Y-139476274D01*
X109383568Y-139483882D01*
X109383610Y-139485775D01*
X109453405Y-139514392D01*
X109500545Y-139534987D01*
X109509058Y-139556489D01*
X109512041Y-139561118D01*
X109514225Y-139566390D01*
X109515456Y-139566417D01*
X109603076Y-139702376D01*
X109723639Y-139827222D01*
X109866155Y-139926274D01*
X109883568Y-139933882D01*
X109883610Y-139935775D01*
X109953405Y-139964392D01*
X110000545Y-139984987D01*
X110009058Y-140006489D01*
X110012041Y-140011118D01*
X110014225Y-140016390D01*
X110015456Y-140016417D01*
X110103076Y-140152376D01*
X110223639Y-140277222D01*
X110366155Y-140376274D01*
X110383568Y-140383882D01*
X110383610Y-140385775D01*
X110453405Y-140414392D01*
X110525197Y-140445757D01*
X110535341Y-140447987D01*
X110544908Y-140451910D01*
X110618630Y-140466300D01*
X110694705Y-140483026D01*
X110705479Y-140483252D01*
X110716009Y-140485307D01*
X110790792Y-140485039D01*
X110849934Y-140486278D01*
X114050047Y-142612428D01*
X114102482Y-142640308D01*
X114154157Y-142669665D01*
X114163241Y-142673634D01*
X118466354Y-144518066D01*
X118527674Y-144537519D01*
X118588753Y-144557839D01*
X118598432Y-144559966D01*
X118598434Y-144559967D01*
X118598436Y-144559967D01*
X123177848Y-145533461D01*
X123241736Y-145540629D01*
X123305641Y-145548703D01*
X123315552Y-145548911D01*
X127996836Y-145614384D01*
X128060942Y-145609002D01*
X128125155Y-145604513D01*
X128134918Y-145602792D01*
X132739766Y-144757753D01*
X132801620Y-144740018D01*
X132863724Y-144723146D01*
X132872966Y-144719561D01*
X137225979Y-142996196D01*
X137283184Y-142966798D01*
X137340855Y-142938172D01*
X137349225Y-142932860D01*
X141147473Y-140485179D01*
X141218225Y-140486661D01*
X141229222Y-140484722D01*
X141240338Y-140484682D01*
X141313302Y-140469896D01*
X141389146Y-140456523D01*
X141399921Y-140452344D01*
X141411195Y-140450059D01*
X141490467Y-140417223D01*
X141550957Y-140393761D01*
X141558187Y-140389173D01*
X141566390Y-140385775D01*
X141566431Y-140383941D01*
X141697497Y-140300764D01*
X141823182Y-140181075D01*
X141923226Y-140039254D01*
X141933382Y-140016443D01*
X141935775Y-140016390D01*
X141939948Y-140006212D01*
X141949921Y-140002344D01*
X141961195Y-140000059D01*
X142040467Y-139967223D01*
X142100957Y-139943761D01*
X142108187Y-139939173D01*
X142116390Y-139935775D01*
X142116431Y-139933941D01*
X142247497Y-139850764D01*
X142373182Y-139731075D01*
X142473226Y-139589254D01*
X142483382Y-139566443D01*
X142485775Y-139566390D01*
X142489948Y-139556212D01*
X142499921Y-139552344D01*
X142511195Y-139550059D01*
X142590467Y-139517223D01*
X142650957Y-139493761D01*
X142658187Y-139489173D01*
X142666390Y-139485775D01*
X142666431Y-139483941D01*
X142797497Y-139400764D01*
X142923182Y-139281075D01*
X143023226Y-139139254D01*
X143033382Y-139116443D01*
X143035775Y-139116390D01*
X143063367Y-139049096D01*
X143074638Y-139023780D01*
X143090467Y-139017223D01*
X143150957Y-138993761D01*
X143158187Y-138989173D01*
X143166390Y-138985775D01*
X143166431Y-138983941D01*
X143297497Y-138900764D01*
X143423182Y-138781075D01*
X143523226Y-138639254D01*
X143533382Y-138616443D01*
X143535775Y-138616390D01*
X143563367Y-138549096D01*
X143574638Y-138523780D01*
X143590467Y-138517223D01*
X143650957Y-138493761D01*
X143658187Y-138489173D01*
X143666390Y-138485775D01*
X143666431Y-138483941D01*
X143797497Y-138400764D01*
X143923182Y-138281075D01*
X144023226Y-138139254D01*
X144033382Y-138116443D01*
X144035775Y-138116390D01*
X144063367Y-138049096D01*
X144085299Y-137999834D01*
X144100957Y-137993761D01*
X144108187Y-137989173D01*
X144116390Y-137985775D01*
X144116431Y-137983941D01*
X144247497Y-137900764D01*
X144373182Y-137781075D01*
X144473226Y-137639254D01*
X144483382Y-137616443D01*
X144485775Y-137616390D01*
X144513367Y-137549096D01*
X144543818Y-137480701D01*
X144546811Y-137467529D01*
X144551910Y-137455092D01*
X144565774Y-137384062D01*
X144582270Y-137311457D01*
X144582449Y-137298633D01*
X144585307Y-137283991D01*
X144585304Y-137283101D01*
X145822710Y-135765891D01*
X145848053Y-135727747D01*
X145875871Y-135691372D01*
X145881037Y-135682911D01*
X148294877Y-131666862D01*
X148322487Y-131608737D01*
X148350907Y-131551000D01*
X148354331Y-131541697D01*
X149942146Y-127133282D01*
X149957937Y-127070913D01*
X149974604Y-127008744D01*
X149976156Y-126998953D01*
X150677466Y-122366088D01*
X150680841Y-122301860D01*
X150685117Y-122237617D01*
X150684738Y-122227711D01*
X150472829Y-117546859D01*
X150463659Y-117483160D01*
X150455380Y-117419349D01*
X150453084Y-117409705D01*
X149336029Y-112859159D01*
X149314667Y-112798472D01*
X149294146Y-112737467D01*
X149290020Y-112728453D01*
X147310367Y-108481542D01*
X147277641Y-108426188D01*
X147245645Y-108370302D01*
X147239847Y-108362261D01*
X144535006Y-104665494D01*
X144535038Y-104663221D01*
X144534688Y-104661456D01*
X144534682Y-104659662D01*
X144519442Y-104584456D01*
X144501327Y-104492969D01*
X144500493Y-104490944D01*
X144500059Y-104488805D01*
X144435775Y-104333610D01*
X144435642Y-104333607D01*
X144435189Y-104332507D01*
X144339144Y-104187948D01*
X144216850Y-104064796D01*
X144072964Y-103967744D01*
X144066407Y-103964988D01*
X144066390Y-103964225D01*
X143993341Y-103934274D01*
X143974126Y-103926196D01*
X143935775Y-103833610D01*
X143935642Y-103833607D01*
X143935189Y-103832507D01*
X143839144Y-103687948D01*
X143716850Y-103564796D01*
X143572964Y-103467744D01*
X143566407Y-103464988D01*
X143566390Y-103464225D01*
X143493341Y-103434274D01*
X143474126Y-103426196D01*
X143435775Y-103333610D01*
X143435642Y-103333607D01*
X143435189Y-103332507D01*
X143339144Y-103187948D01*
X143216850Y-103064796D01*
X143072964Y-102967744D01*
X143066407Y-102964988D01*
X143066390Y-102964225D01*
X142993341Y-102934274D01*
X142974126Y-102926196D01*
X142935775Y-102833610D01*
X142935642Y-102833607D01*
X142935189Y-102832507D01*
X142839144Y-102687948D01*
X142716850Y-102564796D01*
X142572964Y-102467744D01*
X142566407Y-102464988D01*
X142566390Y-102464225D01*
X142493341Y-102434274D01*
X142449048Y-102415655D01*
X142435775Y-102383610D01*
X142435642Y-102383607D01*
X142435189Y-102382507D01*
X142339144Y-102237948D01*
X142216850Y-102114796D01*
X142072964Y-102017744D01*
X142066407Y-102014988D01*
X142066390Y-102014225D01*
X141993341Y-101984274D01*
X141949048Y-101965655D01*
X141935775Y-101933610D01*
X141935642Y-101933607D01*
X141935189Y-101932507D01*
X141839144Y-101787948D01*
X141716850Y-101664796D01*
X141572964Y-101567744D01*
X141566407Y-101564988D01*
X141566390Y-101564225D01*
X141493341Y-101534274D01*
X141412968Y-101500488D01*
X141408908Y-101499655D01*
X141405092Y-101498090D01*
X141327564Y-101482957D01*
X141242955Y-101465590D01*
X141238424Y-101465558D01*
X141233991Y-101464693D01*
X141155040Y-101464976D01*
X141075865Y-101464423D01*
X137949953Y-99387572D01*
X137897509Y-99359687D01*
X137845842Y-99330335D01*
X137836758Y-99326366D01*
X133533646Y-97481934D01*
X133472347Y-97462488D01*
X133411248Y-97442161D01*
X133401566Y-97440033D01*
X128822152Y-96466539D01*
X128758260Y-96459371D01*
X128694359Y-96451297D01*
X128684448Y-96451089D01*
X124003164Y-96385616D01*
X123939060Y-96390998D01*
X123874845Y-96395487D01*
X123865083Y-96397208D01*
X119260234Y-97242247D01*
X119198380Y-97259982D01*
X119136276Y-97276854D01*
X119127034Y-97280439D01*
X114774021Y-99003804D01*
X114716816Y-99033202D01*
X114659145Y-99061828D01*
X114650775Y-99067140D01*
X110852552Y-101514806D01*
X110805040Y-101514976D01*
X110719402Y-101514378D01*
X110714566Y-101515300D01*
X110709662Y-101515318D01*
X110632424Y-101530970D01*
X110548919Y-101546899D01*
X110543991Y-101548890D01*
X110538805Y-101549941D01*
X110436295Y-101592402D01*
X110387999Y-101611915D01*
X110385950Y-101613256D01*
X110383610Y-101614225D01*
X110383597Y-101614795D01*
X110242773Y-101706949D01*
X110118770Y-101828381D01*
X110020716Y-101971585D01*
X110015575Y-101983580D01*
X110014225Y-101983610D01*
X110001131Y-102015546D01*
X109936295Y-102042402D01*
X109887999Y-102061915D01*
X109885950Y-102063256D01*
X109883610Y-102064225D01*
X109883597Y-102064795D01*
X109742773Y-102156949D01*
X109618770Y-102278381D01*
X109520716Y-102421585D01*
X109515575Y-102433580D01*
X109514225Y-102433610D01*
X109509613Y-102444859D01*
X109498919Y-102446899D01*
X109493991Y-102448890D01*
X109488805Y-102449941D01*
X109386295Y-102492402D01*
X109337999Y-102511915D01*
X109335950Y-102513256D01*
X109333610Y-102514225D01*
X109333597Y-102514795D01*
X109192773Y-102606949D01*
X109068770Y-102728381D01*
X108970716Y-102871585D01*
X108965575Y-102883580D01*
X108964225Y-102883610D01*
X108934716Y-102955580D01*
X108902345Y-103031108D01*
X108901262Y-103036203D01*
X108886295Y-103042402D01*
X108837999Y-103061915D01*
X108835950Y-103063256D01*
X108833610Y-103064225D01*
X108833597Y-103064795D01*
X108692773Y-103156949D01*
X108568770Y-103278381D01*
X108470716Y-103421585D01*
X108465575Y-103433580D01*
X108464225Y-103433610D01*
X108451131Y-103465546D01*
X108386295Y-103492402D01*
X108337999Y-103511915D01*
X108335950Y-103513256D01*
X108333610Y-103514225D01*
X108333597Y-103514795D01*
X108192773Y-103606949D01*
X108068770Y-103728381D01*
X107970716Y-103871585D01*
X107965575Y-103883580D01*
X107964225Y-103883610D01*
X107934716Y-103955580D01*
X107915298Y-104000885D01*
X107887999Y-104011915D01*
X107885950Y-104013256D01*
X107883610Y-104014225D01*
X107883597Y-104014795D01*
X107742773Y-104106949D01*
X107618770Y-104228381D01*
X107520716Y-104371585D01*
X107515575Y-104383580D01*
X107514225Y-104383610D01*
X107484716Y-104455580D01*
X107452345Y-104531108D01*
X107450834Y-104538214D01*
X107448090Y-104544908D01*
X107433238Y-104621000D01*
X107416260Y-104700873D01*
X107416153Y-104708528D01*
X107414693Y-104716009D01*
X107414696Y-104716899D01*
X106177290Y-106234109D01*
X106151948Y-106272252D01*
X106124128Y-106308629D01*
X106118962Y-106317089D01*
X103705123Y-110333138D01*
X103677520Y-110391250D01*
X103649093Y-110449000D01*
X103645669Y-110458303D01*
X102057854Y-114866718D01*
X102042068Y-114929069D01*
X102025396Y-114991255D01*
X102023844Y-115001046D01*
X101322534Y-119633912D01*
X101319159Y-119698141D01*
X101314883Y-119762383D01*
X99573130Y-119762383D01*
X99472829Y-117546859D01*
X99463659Y-117483160D01*
X99455380Y-117419349D01*
X99453084Y-117409705D01*
X98336029Y-112859159D01*
X98314667Y-112798472D01*
X98294146Y-112737467D01*
X98290020Y-112728453D01*
X96310367Y-108481542D01*
X96277641Y-108426188D01*
X96245645Y-108370302D01*
X96239847Y-108362261D01*
X93535006Y-104665494D01*
X93535038Y-104663221D01*
X93534688Y-104661456D01*
X93534682Y-104659662D01*
X93519442Y-104584456D01*
X93501327Y-104492969D01*
X93500493Y-104490944D01*
X93500059Y-104488805D01*
X93435775Y-104333610D01*
X93435642Y-104333607D01*
X93435189Y-104332507D01*
X93339144Y-104187948D01*
X93216850Y-104064796D01*
X93072964Y-103967744D01*
X93066407Y-103964988D01*
X93066390Y-103964225D01*
X92993341Y-103934274D01*
X92974126Y-103926196D01*
X92935775Y-103833610D01*
X92935642Y-103833607D01*
X92935189Y-103832507D01*
X92839144Y-103687948D01*
X92716850Y-103564796D01*
X92572964Y-103467744D01*
X92566407Y-103464988D01*
X92566390Y-103464225D01*
X92493341Y-103434274D01*
X92474126Y-103426196D01*
X92435775Y-103333610D01*
X92435642Y-103333607D01*
X92435189Y-103332507D01*
X92339144Y-103187948D01*
X92216850Y-103064796D01*
X92072964Y-102967744D01*
X92066407Y-102964988D01*
X92066390Y-102964225D01*
X91993341Y-102934274D01*
X91974126Y-102926196D01*
X91935775Y-102833610D01*
X91935642Y-102833607D01*
X91935189Y-102832507D01*
X91839144Y-102687948D01*
X91716850Y-102564796D01*
X91572964Y-102467744D01*
X91566407Y-102464988D01*
X91566390Y-102464225D01*
X91493341Y-102434274D01*
X91449048Y-102415655D01*
X91435775Y-102383610D01*
X91435642Y-102383607D01*
X91435189Y-102382507D01*
X91339144Y-102237948D01*
X91216850Y-102114796D01*
X91072964Y-102017744D01*
X91066407Y-102014988D01*
X91066390Y-102014225D01*
X90993341Y-101984274D01*
X90949048Y-101965655D01*
X90935775Y-101933610D01*
X90935642Y-101933607D01*
X90935189Y-101932507D01*
X90839144Y-101787948D01*
X90716850Y-101664796D01*
X90572964Y-101567744D01*
X90566407Y-101564988D01*
X90566390Y-101564225D01*
X90493341Y-101534274D01*
X90412968Y-101500488D01*
X90408908Y-101499655D01*
X90405092Y-101498090D01*
X90327564Y-101482957D01*
X90242955Y-101465590D01*
X90238424Y-101465558D01*
X90233991Y-101464693D01*
X90155040Y-101464976D01*
X90075865Y-101464423D01*
X86949953Y-99387572D01*
X86897509Y-99359687D01*
X86845842Y-99330335D01*
X86836758Y-99326366D01*
X82533646Y-97481934D01*
X82472347Y-97462488D01*
X82411248Y-97442161D01*
X82401566Y-97440033D01*
X77822152Y-96466539D01*
X77758260Y-96459371D01*
X77694359Y-96451297D01*
X77684448Y-96451089D01*
X73003164Y-96385616D01*
X72939060Y-96390998D01*
X72874845Y-96395487D01*
X72865083Y-96397208D01*
X68260234Y-97242247D01*
X68198380Y-97259982D01*
X68136276Y-97276854D01*
X68127034Y-97280439D01*
X63774021Y-99003804D01*
X63716816Y-99033202D01*
X63659145Y-99061828D01*
X63650775Y-99067140D01*
X59852552Y-101514806D01*
X59805040Y-101514976D01*
X59719402Y-101514378D01*
X59714566Y-101515300D01*
X59709662Y-101515318D01*
X59632424Y-101530970D01*
X59548919Y-101546899D01*
X59543991Y-101548890D01*
X59538805Y-101549941D01*
X59436295Y-101592402D01*
X59387999Y-101611915D01*
X59385950Y-101613256D01*
X59383610Y-101614225D01*
X59383597Y-101614795D01*
X59242773Y-101706949D01*
X59118770Y-101828381D01*
X59020716Y-101971585D01*
X59015575Y-101983580D01*
X59014225Y-101983610D01*
X59001131Y-102015546D01*
X58936295Y-102042402D01*
X58887999Y-102061915D01*
X58885950Y-102063256D01*
X58883610Y-102064225D01*
X58883597Y-102064795D01*
X58742773Y-102156949D01*
X58618770Y-102278381D01*
X58520716Y-102421585D01*
X58515575Y-102433580D01*
X58514225Y-102433610D01*
X58509613Y-102444859D01*
X58498919Y-102446899D01*
X58493991Y-102448890D01*
X58488805Y-102449941D01*
X58386295Y-102492402D01*
X58337999Y-102511915D01*
X58335950Y-102513256D01*
X58333610Y-102514225D01*
X58333597Y-102514795D01*
X58192773Y-102606949D01*
X58068770Y-102728381D01*
X57970716Y-102871585D01*
X57965575Y-102883580D01*
X57964225Y-102883610D01*
X57934716Y-102955580D01*
X57902345Y-103031108D01*
X57901262Y-103036203D01*
X57886295Y-103042402D01*
X57837999Y-103061915D01*
X57835950Y-103063256D01*
X57833610Y-103064225D01*
X57833597Y-103064795D01*
X57692773Y-103156949D01*
X57568770Y-103278381D01*
X57470716Y-103421585D01*
X57465575Y-103433580D01*
X57464225Y-103433610D01*
X57451131Y-103465546D01*
X57386295Y-103492402D01*
X57337999Y-103511915D01*
X57335950Y-103513256D01*
X57333610Y-103514225D01*
X57333597Y-103514795D01*
X57192773Y-103606949D01*
X57068770Y-103728381D01*
X56970716Y-103871585D01*
X56965575Y-103883580D01*
X56964225Y-103883610D01*
X56934716Y-103955580D01*
X56915298Y-104000885D01*
X56887999Y-104011915D01*
X56885950Y-104013256D01*
X56883610Y-104014225D01*
X56883597Y-104014795D01*
X56742773Y-104106949D01*
X56618770Y-104228381D01*
X56520716Y-104371585D01*
X56515575Y-104383580D01*
X56514225Y-104383610D01*
X56484716Y-104455580D01*
X56452345Y-104531108D01*
X56450834Y-104538214D01*
X56448090Y-104544908D01*
X56433238Y-104621000D01*
X56416260Y-104700873D01*
X56416153Y-104708528D01*
X56414693Y-104716009D01*
X56414696Y-104716899D01*
X55177290Y-106234109D01*
X55151948Y-106272252D01*
X55124128Y-106308629D01*
X55118962Y-106317089D01*
X52705123Y-110333138D01*
X52677520Y-110391250D01*
X52649093Y-110449000D01*
X52645669Y-110458303D01*
X51057854Y-114866718D01*
X51042068Y-114929069D01*
X51025396Y-114991255D01*
X51023844Y-115001046D01*
X50322534Y-119633912D01*
X50319159Y-119698141D01*
X50314883Y-119762383D01*
X47710000Y-119762383D01*
X47710000Y-68762383D01*
X50314883Y-68762383D01*
X50315262Y-68772289D01*
X50527171Y-73453141D01*
X50536341Y-73516840D01*
X50544620Y-73580651D01*
X50546916Y-73590295D01*
X51663971Y-78140840D01*
X51685325Y-78201505D01*
X51705854Y-78262533D01*
X51709980Y-78271547D01*
X53689633Y-82518458D01*
X53722374Y-82573837D01*
X53754355Y-82629698D01*
X53760153Y-82637739D01*
X56413972Y-86264771D01*
X56413837Y-86274413D01*
X56415289Y-86282326D01*
X56415318Y-86290338D01*
X56430605Y-86365778D01*
X56445167Y-86445119D01*
X56448273Y-86452964D01*
X56449941Y-86461195D01*
X56485980Y-86548200D01*
X56509058Y-86606489D01*
X56512041Y-86611118D01*
X56514225Y-86616390D01*
X56515456Y-86616417D01*
X56603076Y-86752376D01*
X56723639Y-86877222D01*
X56866155Y-86976274D01*
X56883568Y-86983882D01*
X56883610Y-86985775D01*
X56953405Y-87014392D01*
X56976079Y-87024298D01*
X56985980Y-87048200D01*
X57009058Y-87106489D01*
X57012041Y-87111118D01*
X57014225Y-87116390D01*
X57015456Y-87116417D01*
X57103076Y-87252376D01*
X57223639Y-87377222D01*
X57366155Y-87476274D01*
X57383568Y-87483882D01*
X57383610Y-87485775D01*
X57453405Y-87514392D01*
X57476079Y-87524298D01*
X57485980Y-87548200D01*
X57509058Y-87606489D01*
X57512041Y-87611118D01*
X57514225Y-87616390D01*
X57515456Y-87616417D01*
X57603076Y-87752376D01*
X57723639Y-87877222D01*
X57866155Y-87976274D01*
X57883568Y-87983882D01*
X57883610Y-87985775D01*
X57953405Y-88014392D01*
X57976079Y-88024298D01*
X57985980Y-88048200D01*
X58009058Y-88106489D01*
X58012041Y-88111118D01*
X58014225Y-88116390D01*
X58015456Y-88116417D01*
X58103076Y-88252376D01*
X58223639Y-88377222D01*
X58366155Y-88476274D01*
X58383568Y-88483882D01*
X58383610Y-88485775D01*
X58453405Y-88514392D01*
X58500545Y-88534987D01*
X58509058Y-88556489D01*
X58512041Y-88561118D01*
X58514225Y-88566390D01*
X58515456Y-88566417D01*
X58603076Y-88702376D01*
X58723639Y-88827222D01*
X58866155Y-88926274D01*
X58883568Y-88933882D01*
X58883610Y-88935775D01*
X58953405Y-88964392D01*
X59000545Y-88984987D01*
X59009058Y-89006489D01*
X59012041Y-89011118D01*
X59014225Y-89016390D01*
X59015456Y-89016417D01*
X59103076Y-89152376D01*
X59223639Y-89277222D01*
X59366155Y-89376274D01*
X59383568Y-89383882D01*
X59383610Y-89385775D01*
X59453405Y-89414392D01*
X59525197Y-89445757D01*
X59535341Y-89447987D01*
X59544908Y-89451910D01*
X59618630Y-89466300D01*
X59694705Y-89483026D01*
X59705479Y-89483252D01*
X59716009Y-89485307D01*
X59790792Y-89485039D01*
X59849934Y-89486278D01*
X63050047Y-91612428D01*
X63102482Y-91640308D01*
X63154157Y-91669665D01*
X63163241Y-91673634D01*
X67466354Y-93518066D01*
X67527674Y-93537519D01*
X67588753Y-93557839D01*
X67598432Y-93559966D01*
X67598434Y-93559967D01*
X67598436Y-93559967D01*
X72177848Y-94533461D01*
X72241736Y-94540629D01*
X72305641Y-94548703D01*
X72315552Y-94548911D01*
X76996836Y-94614384D01*
X77060942Y-94609002D01*
X77125155Y-94604513D01*
X77134918Y-94602792D01*
X81739766Y-93757753D01*
X81801620Y-93740018D01*
X81863724Y-93723146D01*
X81872966Y-93719561D01*
X86225979Y-91996196D01*
X86283184Y-91966798D01*
X86340855Y-91938172D01*
X86349225Y-91932860D01*
X90147473Y-89485179D01*
X90218225Y-89486661D01*
X90229222Y-89484722D01*
X90240338Y-89484682D01*
X90313302Y-89469896D01*
X90389146Y-89456523D01*
X90399921Y-89452344D01*
X90411195Y-89450059D01*
X90490467Y-89417223D01*
X90550957Y-89393761D01*
X90558187Y-89389173D01*
X90566390Y-89385775D01*
X90566431Y-89383941D01*
X90697497Y-89300764D01*
X90823182Y-89181075D01*
X90923226Y-89039254D01*
X90933382Y-89016443D01*
X90935775Y-89016390D01*
X90939948Y-89006212D01*
X90949921Y-89002344D01*
X90961195Y-89000059D01*
X91040467Y-88967223D01*
X91100957Y-88943761D01*
X91108187Y-88939173D01*
X91116390Y-88935775D01*
X91116431Y-88933941D01*
X91247497Y-88850764D01*
X91373182Y-88731075D01*
X91473226Y-88589254D01*
X91483382Y-88566443D01*
X91485775Y-88566390D01*
X91489948Y-88556212D01*
X91499921Y-88552344D01*
X91511195Y-88550059D01*
X91590467Y-88517223D01*
X91650957Y-88493761D01*
X91658187Y-88489173D01*
X91666390Y-88485775D01*
X91666431Y-88483941D01*
X91797497Y-88400764D01*
X91923182Y-88281075D01*
X92023226Y-88139254D01*
X92033382Y-88116443D01*
X92035775Y-88116390D01*
X92063367Y-88049096D01*
X92074638Y-88023780D01*
X92090467Y-88017223D01*
X92150957Y-87993761D01*
X92158187Y-87989173D01*
X92166390Y-87985775D01*
X92166431Y-87983941D01*
X92297497Y-87900764D01*
X92423182Y-87781075D01*
X92523226Y-87639254D01*
X92533382Y-87616443D01*
X92535775Y-87616390D01*
X92563367Y-87549096D01*
X92574638Y-87523780D01*
X92590467Y-87517223D01*
X92650957Y-87493761D01*
X92658187Y-87489173D01*
X92666390Y-87485775D01*
X92666431Y-87483941D01*
X92797497Y-87400764D01*
X92923182Y-87281075D01*
X93023226Y-87139254D01*
X93033382Y-87116443D01*
X93035775Y-87116390D01*
X93063367Y-87049096D01*
X93085299Y-86999834D01*
X93100957Y-86993761D01*
X93108187Y-86989173D01*
X93116390Y-86985775D01*
X93116431Y-86983941D01*
X93247497Y-86900764D01*
X93373182Y-86781075D01*
X93473226Y-86639254D01*
X93483382Y-86616443D01*
X93485775Y-86616390D01*
X93513367Y-86549096D01*
X93543818Y-86480701D01*
X93546811Y-86467529D01*
X93551910Y-86455092D01*
X93565774Y-86384062D01*
X93582270Y-86311457D01*
X93582449Y-86298633D01*
X93585307Y-86283991D01*
X93585304Y-86283101D01*
X94822710Y-84765891D01*
X94848053Y-84727747D01*
X94875871Y-84691372D01*
X94881037Y-84682911D01*
X97294877Y-80666862D01*
X97322487Y-80608737D01*
X97350907Y-80551000D01*
X97354331Y-80541697D01*
X98942146Y-76133282D01*
X98957937Y-76070913D01*
X98974604Y-76008744D01*
X98976156Y-75998953D01*
X99677466Y-71366088D01*
X99680841Y-71301860D01*
X99685117Y-71237617D01*
X99684738Y-71227711D01*
X99573130Y-68762383D01*
X101314883Y-68762383D01*
X101315262Y-68772289D01*
X101527171Y-73453141D01*
X101536341Y-73516840D01*
X101544620Y-73580651D01*
X101546916Y-73590295D01*
X102663971Y-78140840D01*
X102685325Y-78201505D01*
X102705854Y-78262533D01*
X102709980Y-78271547D01*
X104689633Y-82518458D01*
X104722374Y-82573837D01*
X104754355Y-82629698D01*
X104760153Y-82637739D01*
X107413972Y-86264771D01*
X107413837Y-86274413D01*
X107415289Y-86282326D01*
X107415318Y-86290338D01*
X107430605Y-86365778D01*
X107445167Y-86445119D01*
X107448273Y-86452964D01*
X107449941Y-86461195D01*
X107485980Y-86548200D01*
X107509058Y-86606489D01*
X107512041Y-86611118D01*
X107514225Y-86616390D01*
X107515456Y-86616417D01*
X107603076Y-86752376D01*
X107723639Y-86877222D01*
X107866155Y-86976274D01*
X107883568Y-86983882D01*
X107883610Y-86985775D01*
X107953405Y-87014392D01*
X107976079Y-87024298D01*
X107985980Y-87048200D01*
X108009058Y-87106489D01*
X108012041Y-87111118D01*
X108014225Y-87116390D01*
X108015456Y-87116417D01*
X108103076Y-87252376D01*
X108223639Y-87377222D01*
X108366155Y-87476274D01*
X108383568Y-87483882D01*
X108383610Y-87485775D01*
X108453405Y-87514392D01*
X108476079Y-87524298D01*
X108485980Y-87548200D01*
X108509058Y-87606489D01*
X108512041Y-87611118D01*
X108514225Y-87616390D01*
X108515456Y-87616417D01*
X108603076Y-87752376D01*
X108723639Y-87877222D01*
X108866155Y-87976274D01*
X108883568Y-87983882D01*
X108883610Y-87985775D01*
X108953405Y-88014392D01*
X108976079Y-88024298D01*
X108985980Y-88048200D01*
X109009058Y-88106489D01*
X109012041Y-88111118D01*
X109014225Y-88116390D01*
X109015456Y-88116417D01*
X109103076Y-88252376D01*
X109223639Y-88377222D01*
X109366155Y-88476274D01*
X109383568Y-88483882D01*
X109383610Y-88485775D01*
X109453405Y-88514392D01*
X109500545Y-88534987D01*
X109509058Y-88556489D01*
X109512041Y-88561118D01*
X109514225Y-88566390D01*
X109515456Y-88566417D01*
X109603076Y-88702376D01*
X109723639Y-88827222D01*
X109866155Y-88926274D01*
X109883568Y-88933882D01*
X109883610Y-88935775D01*
X109953405Y-88964392D01*
X110000545Y-88984987D01*
X110009058Y-89006489D01*
X110012041Y-89011118D01*
X110014225Y-89016390D01*
X110015456Y-89016417D01*
X110103076Y-89152376D01*
X110223639Y-89277222D01*
X110366155Y-89376274D01*
X110383568Y-89383882D01*
X110383610Y-89385775D01*
X110453405Y-89414392D01*
X110525197Y-89445757D01*
X110535341Y-89447987D01*
X110544908Y-89451910D01*
X110618630Y-89466300D01*
X110694705Y-89483026D01*
X110705479Y-89483252D01*
X110716009Y-89485307D01*
X110790792Y-89485039D01*
X110849934Y-89486278D01*
X114050047Y-91612428D01*
X114102482Y-91640308D01*
X114154157Y-91669665D01*
X114163241Y-91673634D01*
X118466354Y-93518066D01*
X118527674Y-93537519D01*
X118588753Y-93557839D01*
X118598432Y-93559966D01*
X118598434Y-93559967D01*
X118598436Y-93559967D01*
X123177848Y-94533461D01*
X123241736Y-94540629D01*
X123305641Y-94548703D01*
X123315552Y-94548911D01*
X127996836Y-94614384D01*
X128060942Y-94609002D01*
X128125155Y-94604513D01*
X128134918Y-94602792D01*
X132739766Y-93757753D01*
X132801620Y-93740018D01*
X132863724Y-93723146D01*
X132872966Y-93719561D01*
X137225979Y-91996196D01*
X137283184Y-91966798D01*
X137340855Y-91938172D01*
X137349225Y-91932860D01*
X141147473Y-89485179D01*
X141218225Y-89486661D01*
X141229222Y-89484722D01*
X141240338Y-89484682D01*
X141313302Y-89469896D01*
X141389146Y-89456523D01*
X141399921Y-89452344D01*
X141411195Y-89450059D01*
X141490467Y-89417223D01*
X141550957Y-89393761D01*
X141558187Y-89389173D01*
X141566390Y-89385775D01*
X141566431Y-89383941D01*
X141697497Y-89300764D01*
X141823182Y-89181075D01*
X141923226Y-89039254D01*
X141933382Y-89016443D01*
X141935775Y-89016390D01*
X141939948Y-89006212D01*
X141949921Y-89002344D01*
X141961195Y-89000059D01*
X142040467Y-88967223D01*
X142100957Y-88943761D01*
X142108187Y-88939173D01*
X142116390Y-88935775D01*
X142116431Y-88933941D01*
X142247497Y-88850764D01*
X142373182Y-88731075D01*
X142473226Y-88589254D01*
X142483382Y-88566443D01*
X142485775Y-88566390D01*
X142489948Y-88556212D01*
X142499921Y-88552344D01*
X142511195Y-88550059D01*
X142590467Y-88517223D01*
X142650957Y-88493761D01*
X142658187Y-88489173D01*
X142666390Y-88485775D01*
X142666431Y-88483941D01*
X142797497Y-88400764D01*
X142923182Y-88281075D01*
X143023226Y-88139254D01*
X143033382Y-88116443D01*
X143035775Y-88116390D01*
X143063367Y-88049096D01*
X143074638Y-88023780D01*
X143090467Y-88017223D01*
X143150957Y-87993761D01*
X143158187Y-87989173D01*
X143166390Y-87985775D01*
X143166431Y-87983941D01*
X143297497Y-87900764D01*
X143423182Y-87781075D01*
X143523226Y-87639254D01*
X143533382Y-87616443D01*
X143535775Y-87616390D01*
X143563367Y-87549096D01*
X143574638Y-87523780D01*
X143590467Y-87517223D01*
X143650957Y-87493761D01*
X143658187Y-87489173D01*
X143666390Y-87485775D01*
X143666431Y-87483941D01*
X143797497Y-87400764D01*
X143923182Y-87281075D01*
X144023226Y-87139254D01*
X144033382Y-87116443D01*
X144035775Y-87116390D01*
X144063367Y-87049096D01*
X144085299Y-86999834D01*
X144100957Y-86993761D01*
X144108187Y-86989173D01*
X144116390Y-86985775D01*
X144116431Y-86983941D01*
X144247497Y-86900764D01*
X144373182Y-86781075D01*
X144473226Y-86639254D01*
X144483382Y-86616443D01*
X144485775Y-86616390D01*
X144513367Y-86549096D01*
X144543818Y-86480701D01*
X144546811Y-86467529D01*
X144551910Y-86455092D01*
X144565774Y-86384062D01*
X144582270Y-86311457D01*
X144582449Y-86298633D01*
X144585307Y-86283991D01*
X144585304Y-86283101D01*
X145822710Y-84765891D01*
X145848053Y-84727747D01*
X145875871Y-84691372D01*
X145881037Y-84682911D01*
X148294877Y-80666862D01*
X148322487Y-80608737D01*
X148350907Y-80551000D01*
X148354331Y-80541697D01*
X149942146Y-76133282D01*
X149957937Y-76070913D01*
X149974604Y-76008744D01*
X149976156Y-75998953D01*
X150677466Y-71366088D01*
X150680841Y-71301860D01*
X150685117Y-71237617D01*
X150684738Y-71227711D01*
X150472829Y-66546859D01*
X150463659Y-66483160D01*
X150455380Y-66419349D01*
X150453084Y-66409705D01*
X149336029Y-61859159D01*
X149314667Y-61798472D01*
X149294146Y-61737467D01*
X149290020Y-61728453D01*
X147310367Y-57481542D01*
X147277641Y-57426188D01*
X147245645Y-57370302D01*
X147239847Y-57362261D01*
X144535006Y-53665494D01*
X144535038Y-53663221D01*
X144534688Y-53661456D01*
X144534682Y-53659662D01*
X144519442Y-53584456D01*
X144501327Y-53492969D01*
X144500493Y-53490944D01*
X144500059Y-53488805D01*
X144435775Y-53333610D01*
X144435642Y-53333607D01*
X144435189Y-53332507D01*
X144339144Y-53187948D01*
X144216850Y-53064796D01*
X144072964Y-52967744D01*
X144066407Y-52964988D01*
X144066390Y-52964225D01*
X143993341Y-52934274D01*
X143974126Y-52926196D01*
X143935775Y-52833610D01*
X143935642Y-52833607D01*
X143935189Y-52832507D01*
X143839144Y-52687948D01*
X143716850Y-52564796D01*
X143572964Y-52467744D01*
X143566407Y-52464988D01*
X143566390Y-52464225D01*
X143493341Y-52434274D01*
X143474126Y-52426196D01*
X143435775Y-52333610D01*
X143435642Y-52333607D01*
X143435189Y-52332507D01*
X143339144Y-52187948D01*
X143216850Y-52064796D01*
X143072964Y-51967744D01*
X143066407Y-51964988D01*
X143066390Y-51964225D01*
X142993341Y-51934274D01*
X142974126Y-51926196D01*
X142935775Y-51833610D01*
X142935642Y-51833607D01*
X142935189Y-51832507D01*
X142839144Y-51687948D01*
X142716850Y-51564796D01*
X142572964Y-51467744D01*
X142566407Y-51464988D01*
X142566390Y-51464225D01*
X142493341Y-51434274D01*
X142449048Y-51415655D01*
X142435775Y-51383610D01*
X142435642Y-51383607D01*
X142435189Y-51382507D01*
X142339144Y-51237948D01*
X142216850Y-51114796D01*
X142072964Y-51017744D01*
X142066407Y-51014988D01*
X142066390Y-51014225D01*
X141993341Y-50984274D01*
X141949048Y-50965655D01*
X141935775Y-50933610D01*
X141935642Y-50933607D01*
X141935189Y-50932507D01*
X141839144Y-50787948D01*
X141716850Y-50664796D01*
X141572964Y-50567744D01*
X141566407Y-50564988D01*
X141566390Y-50564225D01*
X141493341Y-50534274D01*
X141412968Y-50500488D01*
X141408908Y-50499655D01*
X141405092Y-50498090D01*
X141327564Y-50482957D01*
X141242955Y-50465590D01*
X141238424Y-50465558D01*
X141233991Y-50464693D01*
X141155040Y-50464976D01*
X141075865Y-50464423D01*
X137949953Y-48387572D01*
X137897509Y-48359687D01*
X137845842Y-48330335D01*
X137836758Y-48326366D01*
X133533646Y-46481934D01*
X133472347Y-46462488D01*
X133411248Y-46442161D01*
X133401566Y-46440033D01*
X128822152Y-45466539D01*
X128758260Y-45459371D01*
X128694359Y-45451297D01*
X128684448Y-45451089D01*
X124003164Y-45385616D01*
X123939060Y-45390998D01*
X123874845Y-45395487D01*
X123865083Y-45397208D01*
X119260234Y-46242247D01*
X119198380Y-46259982D01*
X119136276Y-46276854D01*
X119127034Y-46280439D01*
X114774021Y-48003804D01*
X114716816Y-48033202D01*
X114659145Y-48061828D01*
X114650775Y-48067140D01*
X110852552Y-50514806D01*
X110805040Y-50514976D01*
X110719402Y-50514378D01*
X110714566Y-50515300D01*
X110709662Y-50515318D01*
X110632424Y-50530970D01*
X110548919Y-50546899D01*
X110543991Y-50548890D01*
X110538805Y-50549941D01*
X110436295Y-50592402D01*
X110387999Y-50611915D01*
X110385950Y-50613256D01*
X110383610Y-50614225D01*
X110383597Y-50614795D01*
X110242773Y-50706949D01*
X110118770Y-50828381D01*
X110020716Y-50971585D01*
X110015575Y-50983580D01*
X110014225Y-50983610D01*
X110001131Y-51015546D01*
X109936295Y-51042402D01*
X109887999Y-51061915D01*
X109885950Y-51063256D01*
X109883610Y-51064225D01*
X109883597Y-51064795D01*
X109742773Y-51156949D01*
X109618770Y-51278381D01*
X109520716Y-51421585D01*
X109515575Y-51433580D01*
X109514225Y-51433610D01*
X109509613Y-51444859D01*
X109498919Y-51446899D01*
X109493991Y-51448890D01*
X109488805Y-51449941D01*
X109386295Y-51492402D01*
X109337999Y-51511915D01*
X109335950Y-51513256D01*
X109333610Y-51514225D01*
X109333597Y-51514795D01*
X109192773Y-51606949D01*
X109068770Y-51728381D01*
X108970716Y-51871585D01*
X108965575Y-51883580D01*
X108964225Y-51883610D01*
X108934716Y-51955580D01*
X108902345Y-52031108D01*
X108901262Y-52036203D01*
X108886295Y-52042402D01*
X108837999Y-52061915D01*
X108835950Y-52063256D01*
X108833610Y-52064225D01*
X108833597Y-52064795D01*
X108692773Y-52156949D01*
X108568770Y-52278381D01*
X108470716Y-52421585D01*
X108465575Y-52433580D01*
X108464225Y-52433610D01*
X108451131Y-52465546D01*
X108386295Y-52492402D01*
X108337999Y-52511915D01*
X108335950Y-52513256D01*
X108333610Y-52514225D01*
X108333597Y-52514795D01*
X108192773Y-52606949D01*
X108068770Y-52728381D01*
X107970716Y-52871585D01*
X107965575Y-52883580D01*
X107964225Y-52883610D01*
X107934716Y-52955580D01*
X107915298Y-53000885D01*
X107887999Y-53011915D01*
X107885950Y-53013256D01*
X107883610Y-53014225D01*
X107883597Y-53014795D01*
X107742773Y-53106949D01*
X107618770Y-53228381D01*
X107520716Y-53371585D01*
X107515575Y-53383580D01*
X107514225Y-53383610D01*
X107484716Y-53455580D01*
X107452345Y-53531108D01*
X107450834Y-53538214D01*
X107448090Y-53544908D01*
X107433238Y-53621000D01*
X107416260Y-53700873D01*
X107416153Y-53708528D01*
X107414693Y-53716009D01*
X107414696Y-53716899D01*
X106177290Y-55234109D01*
X106151948Y-55272252D01*
X106124128Y-55308629D01*
X106118962Y-55317089D01*
X103705123Y-59333138D01*
X103677520Y-59391250D01*
X103649093Y-59449000D01*
X103645669Y-59458303D01*
X102057854Y-63866718D01*
X102042068Y-63929069D01*
X102025396Y-63991255D01*
X102023844Y-64001046D01*
X101322534Y-68633912D01*
X101319159Y-68698141D01*
X101314883Y-68762383D01*
X99573130Y-68762383D01*
X99472829Y-66546859D01*
X99463659Y-66483160D01*
X99455380Y-66419349D01*
X99453084Y-66409705D01*
X98336029Y-61859159D01*
X98314667Y-61798472D01*
X98294146Y-61737467D01*
X98290020Y-61728453D01*
X96310367Y-57481542D01*
X96277641Y-57426188D01*
X96245645Y-57370302D01*
X96239847Y-57362261D01*
X93535006Y-53665494D01*
X93535038Y-53663221D01*
X93534688Y-53661456D01*
X93534682Y-53659662D01*
X93519442Y-53584456D01*
X93501327Y-53492969D01*
X93500493Y-53490944D01*
X93500059Y-53488805D01*
X93435775Y-53333610D01*
X93435642Y-53333607D01*
X93435189Y-53332507D01*
X93339144Y-53187948D01*
X93216850Y-53064796D01*
X93072964Y-52967744D01*
X93066407Y-52964988D01*
X93066390Y-52964225D01*
X92993341Y-52934274D01*
X92974126Y-52926196D01*
X92935775Y-52833610D01*
X92935642Y-52833607D01*
X92935189Y-52832507D01*
X92839144Y-52687948D01*
X92716850Y-52564796D01*
X92572964Y-52467744D01*
X92566407Y-52464988D01*
X92566390Y-52464225D01*
X92493341Y-52434274D01*
X92474126Y-52426196D01*
X92435775Y-52333610D01*
X92435642Y-52333607D01*
X92435189Y-52332507D01*
X92339144Y-52187948D01*
X92216850Y-52064796D01*
X92072964Y-51967744D01*
X92066407Y-51964988D01*
X92066390Y-51964225D01*
X91993341Y-51934274D01*
X91974126Y-51926196D01*
X91935775Y-51833610D01*
X91935642Y-51833607D01*
X91935189Y-51832507D01*
X91839144Y-51687948D01*
X91716850Y-51564796D01*
X91572964Y-51467744D01*
X91566407Y-51464988D01*
X91566390Y-51464225D01*
X91493341Y-51434274D01*
X91449048Y-51415655D01*
X91435775Y-51383610D01*
X91435642Y-51383607D01*
X91435189Y-51382507D01*
X91339144Y-51237948D01*
X91216850Y-51114796D01*
X91072964Y-51017744D01*
X91066407Y-51014988D01*
X91066390Y-51014225D01*
X90993341Y-50984274D01*
X90949048Y-50965655D01*
X90935775Y-50933610D01*
X90935642Y-50933607D01*
X90935189Y-50932507D01*
X90839144Y-50787948D01*
X90716850Y-50664796D01*
X90572964Y-50567744D01*
X90566407Y-50564988D01*
X90566390Y-50564225D01*
X90493341Y-50534274D01*
X90412968Y-50500488D01*
X90408908Y-50499655D01*
X90405092Y-50498090D01*
X90327564Y-50482957D01*
X90242955Y-50465590D01*
X90238424Y-50465558D01*
X90233991Y-50464693D01*
X90155040Y-50464976D01*
X90075865Y-50464423D01*
X86949953Y-48387572D01*
X86897509Y-48359687D01*
X86845842Y-48330335D01*
X86836758Y-48326366D01*
X82533646Y-46481934D01*
X82472347Y-46462488D01*
X82411248Y-46442161D01*
X82401566Y-46440033D01*
X77822152Y-45466539D01*
X77758260Y-45459371D01*
X77694359Y-45451297D01*
X77684448Y-45451089D01*
X73003164Y-45385616D01*
X72939060Y-45390998D01*
X72874845Y-45395487D01*
X72865083Y-45397208D01*
X68260234Y-46242247D01*
X68198380Y-46259982D01*
X68136276Y-46276854D01*
X68127034Y-46280439D01*
X63774021Y-48003804D01*
X63716816Y-48033202D01*
X63659145Y-48061828D01*
X63650775Y-48067140D01*
X59852552Y-50514806D01*
X59805040Y-50514976D01*
X59719402Y-50514378D01*
X59714566Y-50515300D01*
X59709662Y-50515318D01*
X59632424Y-50530970D01*
X59548919Y-50546899D01*
X59543991Y-50548890D01*
X59538805Y-50549941D01*
X59436295Y-50592402D01*
X59387999Y-50611915D01*
X59385950Y-50613256D01*
X59383610Y-50614225D01*
X59383597Y-50614795D01*
X59242773Y-50706949D01*
X59118770Y-50828381D01*
X59020716Y-50971585D01*
X59015575Y-50983580D01*
X59014225Y-50983610D01*
X59001131Y-51015546D01*
X58936295Y-51042402D01*
X58887999Y-51061915D01*
X58885950Y-51063256D01*
X58883610Y-51064225D01*
X58883597Y-51064795D01*
X58742773Y-51156949D01*
X58618770Y-51278381D01*
X58520716Y-51421585D01*
X58515575Y-51433580D01*
X58514225Y-51433610D01*
X58509613Y-51444859D01*
X58498919Y-51446899D01*
X58493991Y-51448890D01*
X58488805Y-51449941D01*
X58386295Y-51492402D01*
X58337999Y-51511915D01*
X58335950Y-51513256D01*
X58333610Y-51514225D01*
X58333597Y-51514795D01*
X58192773Y-51606949D01*
X58068770Y-51728381D01*
X57970716Y-51871585D01*
X57965575Y-51883580D01*
X57964225Y-51883610D01*
X57934716Y-51955580D01*
X57902345Y-52031108D01*
X57901262Y-52036203D01*
X57886295Y-52042402D01*
X57837999Y-52061915D01*
X57835950Y-52063256D01*
X57833610Y-52064225D01*
X57833597Y-52064795D01*
X57692773Y-52156949D01*
X57568770Y-52278381D01*
X57470716Y-52421585D01*
X57465575Y-52433580D01*
X57464225Y-52433610D01*
X57451131Y-52465546D01*
X57386295Y-52492402D01*
X57337999Y-52511915D01*
X57335950Y-52513256D01*
X57333610Y-52514225D01*
X57333597Y-52514795D01*
X57192773Y-52606949D01*
X57068770Y-52728381D01*
X56970716Y-52871585D01*
X56965575Y-52883580D01*
X56964225Y-52883610D01*
X56934716Y-52955580D01*
X56915298Y-53000885D01*
X56887999Y-53011915D01*
X56885950Y-53013256D01*
X56883610Y-53014225D01*
X56883597Y-53014795D01*
X56742773Y-53106949D01*
X56618770Y-53228381D01*
X56520716Y-53371585D01*
X56515575Y-53383580D01*
X56514225Y-53383610D01*
X56484716Y-53455580D01*
X56452345Y-53531108D01*
X56450834Y-53538214D01*
X56448090Y-53544908D01*
X56433238Y-53621000D01*
X56416260Y-53700873D01*
X56416153Y-53708528D01*
X56414693Y-53716009D01*
X56414696Y-53716899D01*
X55177290Y-55234109D01*
X55151948Y-55272252D01*
X55124128Y-55308629D01*
X55118962Y-55317089D01*
X52705123Y-59333138D01*
X52677520Y-59391250D01*
X52649093Y-59449000D01*
X52645669Y-59458303D01*
X51057854Y-63866718D01*
X51042068Y-63929069D01*
X51025396Y-63991255D01*
X51023844Y-64001046D01*
X50322534Y-68633912D01*
X50319159Y-68698141D01*
X50314883Y-68762383D01*
X47710000Y-68762383D01*
X47710000Y-42710000D01*
X153290000Y-42710000D01*
X153290000Y-148290000D01*
X153290000Y-148290000D01*
G37*
X153290000Y-148290000D02*
X47710000Y-148290000D01*
X47710000Y-119762383D01*
X50314883Y-119762383D01*
X50315262Y-119772289D01*
X50527171Y-124453141D01*
X50536341Y-124516840D01*
X50544620Y-124580651D01*
X50546916Y-124590295D01*
X51663971Y-129140840D01*
X51685325Y-129201505D01*
X51705854Y-129262533D01*
X51709980Y-129271547D01*
X53689633Y-133518458D01*
X53722374Y-133573837D01*
X53754355Y-133629698D01*
X53760153Y-133637739D01*
X56413972Y-137264771D01*
X56413837Y-137274413D01*
X56415289Y-137282326D01*
X56415318Y-137290338D01*
X56430605Y-137365778D01*
X56445167Y-137445119D01*
X56448273Y-137452964D01*
X56449941Y-137461195D01*
X56485980Y-137548200D01*
X56509058Y-137606489D01*
X56512041Y-137611118D01*
X56514225Y-137616390D01*
X56515456Y-137616417D01*
X56603076Y-137752376D01*
X56723639Y-137877222D01*
X56866155Y-137976274D01*
X56883568Y-137983882D01*
X56883610Y-137985775D01*
X56953405Y-138014392D01*
X56976079Y-138024298D01*
X56985980Y-138048200D01*
X57009058Y-138106489D01*
X57012041Y-138111118D01*
X57014225Y-138116390D01*
X57015456Y-138116417D01*
X57103076Y-138252376D01*
X57223639Y-138377222D01*
X57366155Y-138476274D01*
X57383568Y-138483882D01*
X57383610Y-138485775D01*
X57453405Y-138514392D01*
X57476079Y-138524298D01*
X57485980Y-138548200D01*
X57509058Y-138606489D01*
X57512041Y-138611118D01*
X57514225Y-138616390D01*
X57515456Y-138616417D01*
X57603076Y-138752376D01*
X57723639Y-138877222D01*
X57866155Y-138976274D01*
X57883568Y-138983882D01*
X57883610Y-138985775D01*
X57953405Y-139014392D01*
X57976079Y-139024298D01*
X57985980Y-139048200D01*
X58009058Y-139106489D01*
X58012041Y-139111118D01*
X58014225Y-139116390D01*
X58015456Y-139116417D01*
X58103076Y-139252376D01*
X58223639Y-139377222D01*
X58366155Y-139476274D01*
X58383568Y-139483882D01*
X58383610Y-139485775D01*
X58453405Y-139514392D01*
X58500545Y-139534987D01*
X58509058Y-139556489D01*
X58512041Y-139561118D01*
X58514225Y-139566390D01*
X58515456Y-139566417D01*
X58603076Y-139702376D01*
X58723639Y-139827222D01*
X58866155Y-139926274D01*
X58883568Y-139933882D01*
X58883610Y-139935775D01*
X58953405Y-139964392D01*
X59000545Y-139984987D01*
X59009058Y-140006489D01*
X59012041Y-140011118D01*
X59014225Y-140016390D01*
X59015456Y-140016417D01*
X59103076Y-140152376D01*
X59223639Y-140277222D01*
X59366155Y-140376274D01*
X59383568Y-140383882D01*
X59383610Y-140385775D01*
X59453405Y-140414392D01*
X59525197Y-140445757D01*
X59535341Y-140447987D01*
X59544908Y-140451910D01*
X59618630Y-140466300D01*
X59694705Y-140483026D01*
X59705479Y-140483252D01*
X59716009Y-140485307D01*
X59790792Y-140485039D01*
X59849934Y-140486278D01*
X63050047Y-142612428D01*
X63102482Y-142640308D01*
X63154157Y-142669665D01*
X63163241Y-142673634D01*
X67466354Y-144518066D01*
X67527674Y-144537519D01*
X67588753Y-144557839D01*
X67598432Y-144559966D01*
X67598434Y-144559967D01*
X67598436Y-144559967D01*
X72177848Y-145533461D01*
X72241736Y-145540629D01*
X72305641Y-145548703D01*
X72315552Y-145548911D01*
X76996836Y-145614384D01*
X77060942Y-145609002D01*
X77125155Y-145604513D01*
X77134918Y-145602792D01*
X81739766Y-144757753D01*
X81801620Y-144740018D01*
X81863724Y-144723146D01*
X81872966Y-144719561D01*
X86225979Y-142996196D01*
X86283184Y-142966798D01*
X86340855Y-142938172D01*
X86349225Y-142932860D01*
X90147473Y-140485179D01*
X90218225Y-140486661D01*
X90229222Y-140484722D01*
X90240338Y-140484682D01*
X90313302Y-140469896D01*
X90389146Y-140456523D01*
X90399921Y-140452344D01*
X90411195Y-140450059D01*
X90490467Y-140417223D01*
X90550957Y-140393761D01*
X90558187Y-140389173D01*
X90566390Y-140385775D01*
X90566431Y-140383941D01*
X90697497Y-140300764D01*
X90823182Y-140181075D01*
X90923226Y-140039254D01*
X90933382Y-140016443D01*
X90935775Y-140016390D01*
X90939948Y-140006212D01*
X90949921Y-140002344D01*
X90961195Y-140000059D01*
X91040467Y-139967223D01*
X91100957Y-139943761D01*
X91108187Y-139939173D01*
X91116390Y-139935775D01*
X91116431Y-139933941D01*
X91247497Y-139850764D01*
X91373182Y-139731075D01*
X91473226Y-139589254D01*
X91483382Y-139566443D01*
X91485775Y-139566390D01*
X91489948Y-139556212D01*
X91499921Y-139552344D01*
X91511195Y-139550059D01*
X91590467Y-139517223D01*
X91650957Y-139493761D01*
X91658187Y-139489173D01*
X91666390Y-139485775D01*
X91666431Y-139483941D01*
X91797497Y-139400764D01*
X91923182Y-139281075D01*
X92023226Y-139139254D01*
X92033382Y-139116443D01*
X92035775Y-139116390D01*
X92063367Y-139049096D01*
X92074638Y-139023780D01*
X92090467Y-139017223D01*
X92150957Y-138993761D01*
X92158187Y-138989173D01*
X92166390Y-138985775D01*
X92166431Y-138983941D01*
X92297497Y-138900764D01*
X92423182Y-138781075D01*
X92523226Y-138639254D01*
X92533382Y-138616443D01*
X92535775Y-138616390D01*
X92563367Y-138549096D01*
X92574638Y-138523780D01*
X92590467Y-138517223D01*
X92650957Y-138493761D01*
X92658187Y-138489173D01*
X92666390Y-138485775D01*
X92666431Y-138483941D01*
X92797497Y-138400764D01*
X92923182Y-138281075D01*
X93023226Y-138139254D01*
X93033382Y-138116443D01*
X93035775Y-138116390D01*
X93063367Y-138049096D01*
X93085299Y-137999834D01*
X93100957Y-137993761D01*
X93108187Y-137989173D01*
X93116390Y-137985775D01*
X93116431Y-137983941D01*
X93247497Y-137900764D01*
X93373182Y-137781075D01*
X93473226Y-137639254D01*
X93483382Y-137616443D01*
X93485775Y-137616390D01*
X93513367Y-137549096D01*
X93543818Y-137480701D01*
X93546811Y-137467529D01*
X93551910Y-137455092D01*
X93565774Y-137384062D01*
X93582270Y-137311457D01*
X93582449Y-137298633D01*
X93585307Y-137283991D01*
X93585304Y-137283101D01*
X94822710Y-135765891D01*
X94848053Y-135727747D01*
X94875871Y-135691372D01*
X94881037Y-135682911D01*
X97294877Y-131666862D01*
X97322487Y-131608737D01*
X97350907Y-131551000D01*
X97354331Y-131541697D01*
X98942146Y-127133282D01*
X98957937Y-127070913D01*
X98974604Y-127008744D01*
X98976156Y-126998953D01*
X99677466Y-122366088D01*
X99680841Y-122301860D01*
X99685117Y-122237617D01*
X99684738Y-122227711D01*
X99573130Y-119762383D01*
X101314883Y-119762383D01*
X101315262Y-119772289D01*
X101527171Y-124453141D01*
X101536341Y-124516840D01*
X101544620Y-124580651D01*
X101546916Y-124590295D01*
X102663971Y-129140840D01*
X102685325Y-129201505D01*
X102705854Y-129262533D01*
X102709980Y-129271547D01*
X104689633Y-133518458D01*
X104722374Y-133573837D01*
X104754355Y-133629698D01*
X104760153Y-133637739D01*
X107413972Y-137264771D01*
X107413837Y-137274413D01*
X107415289Y-137282326D01*
X107415318Y-137290338D01*
X107430605Y-137365778D01*
X107445167Y-137445119D01*
X107448273Y-137452964D01*
X107449941Y-137461195D01*
X107485980Y-137548200D01*
X107509058Y-137606489D01*
X107512041Y-137611118D01*
X107514225Y-137616390D01*
X107515456Y-137616417D01*
X107603076Y-137752376D01*
X107723639Y-137877222D01*
X107866155Y-137976274D01*
X107883568Y-137983882D01*
X107883610Y-137985775D01*
X107953405Y-138014392D01*
X107976079Y-138024298D01*
X107985980Y-138048200D01*
X108009058Y-138106489D01*
X108012041Y-138111118D01*
X108014225Y-138116390D01*
X108015456Y-138116417D01*
X108103076Y-138252376D01*
X108223639Y-138377222D01*
X108366155Y-138476274D01*
X108383568Y-138483882D01*
X108383610Y-138485775D01*
X108453405Y-138514392D01*
X108476079Y-138524298D01*
X108485980Y-138548200D01*
X108509058Y-138606489D01*
X108512041Y-138611118D01*
X108514225Y-138616390D01*
X108515456Y-138616417D01*
X108603076Y-138752376D01*
X108723639Y-138877222D01*
X108866155Y-138976274D01*
X108883568Y-138983882D01*
X108883610Y-138985775D01*
X108953405Y-139014392D01*
X108976079Y-139024298D01*
X108985980Y-139048200D01*
X109009058Y-139106489D01*
X109012041Y-139111118D01*
X109014225Y-139116390D01*
X109015456Y-139116417D01*
X109103076Y-139252376D01*
X109223639Y-139377222D01*
X109366155Y-139476274D01*
X109383568Y-139483882D01*
X109383610Y-139485775D01*
X109453405Y-139514392D01*
X109500545Y-139534987D01*
X109509058Y-139556489D01*
X109512041Y-139561118D01*
X109514225Y-139566390D01*
X109515456Y-139566417D01*
X109603076Y-139702376D01*
X109723639Y-139827222D01*
X109866155Y-139926274D01*
X109883568Y-139933882D01*
X109883610Y-139935775D01*
X109953405Y-139964392D01*
X110000545Y-139984987D01*
X110009058Y-140006489D01*
X110012041Y-140011118D01*
X110014225Y-140016390D01*
X110015456Y-140016417D01*
X110103076Y-140152376D01*
X110223639Y-140277222D01*
X110366155Y-140376274D01*
X110383568Y-140383882D01*
X110383610Y-140385775D01*
X110453405Y-140414392D01*
X110525197Y-140445757D01*
X110535341Y-140447987D01*
X110544908Y-140451910D01*
X110618630Y-140466300D01*
X110694705Y-140483026D01*
X110705479Y-140483252D01*
X110716009Y-140485307D01*
X110790792Y-140485039D01*
X110849934Y-140486278D01*
X114050047Y-142612428D01*
X114102482Y-142640308D01*
X114154157Y-142669665D01*
X114163241Y-142673634D01*
X118466354Y-144518066D01*
X118527674Y-144537519D01*
X118588753Y-144557839D01*
X118598432Y-144559966D01*
X118598434Y-144559967D01*
X118598436Y-144559967D01*
X123177848Y-145533461D01*
X123241736Y-145540629D01*
X123305641Y-145548703D01*
X123315552Y-145548911D01*
X127996836Y-145614384D01*
X128060942Y-145609002D01*
X128125155Y-145604513D01*
X128134918Y-145602792D01*
X132739766Y-144757753D01*
X132801620Y-144740018D01*
X132863724Y-144723146D01*
X132872966Y-144719561D01*
X137225979Y-142996196D01*
X137283184Y-142966798D01*
X137340855Y-142938172D01*
X137349225Y-142932860D01*
X141147473Y-140485179D01*
X141218225Y-140486661D01*
X141229222Y-140484722D01*
X141240338Y-140484682D01*
X141313302Y-140469896D01*
X141389146Y-140456523D01*
X141399921Y-140452344D01*
X141411195Y-140450059D01*
X141490467Y-140417223D01*
X141550957Y-140393761D01*
X141558187Y-140389173D01*
X141566390Y-140385775D01*
X141566431Y-140383941D01*
X141697497Y-140300764D01*
X141823182Y-140181075D01*
X141923226Y-140039254D01*
X141933382Y-140016443D01*
X141935775Y-140016390D01*
X141939948Y-140006212D01*
X141949921Y-140002344D01*
X141961195Y-140000059D01*
X142040467Y-139967223D01*
X142100957Y-139943761D01*
X142108187Y-139939173D01*
X142116390Y-139935775D01*
X142116431Y-139933941D01*
X142247497Y-139850764D01*
X142373182Y-139731075D01*
X142473226Y-139589254D01*
X142483382Y-139566443D01*
X142485775Y-139566390D01*
X142489948Y-139556212D01*
X142499921Y-139552344D01*
X142511195Y-139550059D01*
X142590467Y-139517223D01*
X142650957Y-139493761D01*
X142658187Y-139489173D01*
X142666390Y-139485775D01*
X142666431Y-139483941D01*
X142797497Y-139400764D01*
X142923182Y-139281075D01*
X143023226Y-139139254D01*
X143033382Y-139116443D01*
X143035775Y-139116390D01*
X143063367Y-139049096D01*
X143074638Y-139023780D01*
X143090467Y-139017223D01*
X143150957Y-138993761D01*
X143158187Y-138989173D01*
X143166390Y-138985775D01*
X143166431Y-138983941D01*
X143297497Y-138900764D01*
X143423182Y-138781075D01*
X143523226Y-138639254D01*
X143533382Y-138616443D01*
X143535775Y-138616390D01*
X143563367Y-138549096D01*
X143574638Y-138523780D01*
X143590467Y-138517223D01*
X143650957Y-138493761D01*
X143658187Y-138489173D01*
X143666390Y-138485775D01*
X143666431Y-138483941D01*
X143797497Y-138400764D01*
X143923182Y-138281075D01*
X144023226Y-138139254D01*
X144033382Y-138116443D01*
X144035775Y-138116390D01*
X144063367Y-138049096D01*
X144085299Y-137999834D01*
X144100957Y-137993761D01*
X144108187Y-137989173D01*
X144116390Y-137985775D01*
X144116431Y-137983941D01*
X144247497Y-137900764D01*
X144373182Y-137781075D01*
X144473226Y-137639254D01*
X144483382Y-137616443D01*
X144485775Y-137616390D01*
X144513367Y-137549096D01*
X144543818Y-137480701D01*
X144546811Y-137467529D01*
X144551910Y-137455092D01*
X144565774Y-137384062D01*
X144582270Y-137311457D01*
X144582449Y-137298633D01*
X144585307Y-137283991D01*
X144585304Y-137283101D01*
X145822710Y-135765891D01*
X145848053Y-135727747D01*
X145875871Y-135691372D01*
X145881037Y-135682911D01*
X148294877Y-131666862D01*
X148322487Y-131608737D01*
X148350907Y-131551000D01*
X148354331Y-131541697D01*
X149942146Y-127133282D01*
X149957937Y-127070913D01*
X149974604Y-127008744D01*
X149976156Y-126998953D01*
X150677466Y-122366088D01*
X150680841Y-122301860D01*
X150685117Y-122237617D01*
X150684738Y-122227711D01*
X150472829Y-117546859D01*
X150463659Y-117483160D01*
X150455380Y-117419349D01*
X150453084Y-117409705D01*
X149336029Y-112859159D01*
X149314667Y-112798472D01*
X149294146Y-112737467D01*
X149290020Y-112728453D01*
X147310367Y-108481542D01*
X147277641Y-108426188D01*
X147245645Y-108370302D01*
X147239847Y-108362261D01*
X144535006Y-104665494D01*
X144535038Y-104663221D01*
X144534688Y-104661456D01*
X144534682Y-104659662D01*
X144519442Y-104584456D01*
X144501327Y-104492969D01*
X144500493Y-104490944D01*
X144500059Y-104488805D01*
X144435775Y-104333610D01*
X144435642Y-104333607D01*
X144435189Y-104332507D01*
X144339144Y-104187948D01*
X144216850Y-104064796D01*
X144072964Y-103967744D01*
X144066407Y-103964988D01*
X144066390Y-103964225D01*
X143993341Y-103934274D01*
X143974126Y-103926196D01*
X143935775Y-103833610D01*
X143935642Y-103833607D01*
X143935189Y-103832507D01*
X143839144Y-103687948D01*
X143716850Y-103564796D01*
X143572964Y-103467744D01*
X143566407Y-103464988D01*
X143566390Y-103464225D01*
X143493341Y-103434274D01*
X143474126Y-103426196D01*
X143435775Y-103333610D01*
X143435642Y-103333607D01*
X143435189Y-103332507D01*
X143339144Y-103187948D01*
X143216850Y-103064796D01*
X143072964Y-102967744D01*
X143066407Y-102964988D01*
X143066390Y-102964225D01*
X142993341Y-102934274D01*
X142974126Y-102926196D01*
X142935775Y-102833610D01*
X142935642Y-102833607D01*
X142935189Y-102832507D01*
X142839144Y-102687948D01*
X142716850Y-102564796D01*
X142572964Y-102467744D01*
X142566407Y-102464988D01*
X142566390Y-102464225D01*
X142493341Y-102434274D01*
X142449048Y-102415655D01*
X142435775Y-102383610D01*
X142435642Y-102383607D01*
X142435189Y-102382507D01*
X142339144Y-102237948D01*
X142216850Y-102114796D01*
X142072964Y-102017744D01*
X142066407Y-102014988D01*
X142066390Y-102014225D01*
X141993341Y-101984274D01*
X141949048Y-101965655D01*
X141935775Y-101933610D01*
X141935642Y-101933607D01*
X141935189Y-101932507D01*
X141839144Y-101787948D01*
X141716850Y-101664796D01*
X141572964Y-101567744D01*
X141566407Y-101564988D01*
X141566390Y-101564225D01*
X141493341Y-101534274D01*
X141412968Y-101500488D01*
X141408908Y-101499655D01*
X141405092Y-101498090D01*
X141327564Y-101482957D01*
X141242955Y-101465590D01*
X141238424Y-101465558D01*
X141233991Y-101464693D01*
X141155040Y-101464976D01*
X141075865Y-101464423D01*
X137949953Y-99387572D01*
X137897509Y-99359687D01*
X137845842Y-99330335D01*
X137836758Y-99326366D01*
X133533646Y-97481934D01*
X133472347Y-97462488D01*
X133411248Y-97442161D01*
X133401566Y-97440033D01*
X128822152Y-96466539D01*
X128758260Y-96459371D01*
X128694359Y-96451297D01*
X128684448Y-96451089D01*
X124003164Y-96385616D01*
X123939060Y-96390998D01*
X123874845Y-96395487D01*
X123865083Y-96397208D01*
X119260234Y-97242247D01*
X119198380Y-97259982D01*
X119136276Y-97276854D01*
X119127034Y-97280439D01*
X114774021Y-99003804D01*
X114716816Y-99033202D01*
X114659145Y-99061828D01*
X114650775Y-99067140D01*
X110852552Y-101514806D01*
X110805040Y-101514976D01*
X110719402Y-101514378D01*
X110714566Y-101515300D01*
X110709662Y-101515318D01*
X110632424Y-101530970D01*
X110548919Y-101546899D01*
X110543991Y-101548890D01*
X110538805Y-101549941D01*
X110436295Y-101592402D01*
X110387999Y-101611915D01*
X110385950Y-101613256D01*
X110383610Y-101614225D01*
X110383597Y-101614795D01*
X110242773Y-101706949D01*
X110118770Y-101828381D01*
X110020716Y-101971585D01*
X110015575Y-101983580D01*
X110014225Y-101983610D01*
X110001131Y-102015546D01*
X109936295Y-102042402D01*
X109887999Y-102061915D01*
X109885950Y-102063256D01*
X109883610Y-102064225D01*
X109883597Y-102064795D01*
X109742773Y-102156949D01*
X109618770Y-102278381D01*
X109520716Y-102421585D01*
X109515575Y-102433580D01*
X109514225Y-102433610D01*
X109509613Y-102444859D01*
X109498919Y-102446899D01*
X109493991Y-102448890D01*
X109488805Y-102449941D01*
X109386295Y-102492402D01*
X109337999Y-102511915D01*
X109335950Y-102513256D01*
X109333610Y-102514225D01*
X109333597Y-102514795D01*
X109192773Y-102606949D01*
X109068770Y-102728381D01*
X108970716Y-102871585D01*
X108965575Y-102883580D01*
X108964225Y-102883610D01*
X108934716Y-102955580D01*
X108902345Y-103031108D01*
X108901262Y-103036203D01*
X108886295Y-103042402D01*
X108837999Y-103061915D01*
X108835950Y-103063256D01*
X108833610Y-103064225D01*
X108833597Y-103064795D01*
X108692773Y-103156949D01*
X108568770Y-103278381D01*
X108470716Y-103421585D01*
X108465575Y-103433580D01*
X108464225Y-103433610D01*
X108451131Y-103465546D01*
X108386295Y-103492402D01*
X108337999Y-103511915D01*
X108335950Y-103513256D01*
X108333610Y-103514225D01*
X108333597Y-103514795D01*
X108192773Y-103606949D01*
X108068770Y-103728381D01*
X107970716Y-103871585D01*
X107965575Y-103883580D01*
X107964225Y-103883610D01*
X107934716Y-103955580D01*
X107915298Y-104000885D01*
X107887999Y-104011915D01*
X107885950Y-104013256D01*
X107883610Y-104014225D01*
X107883597Y-104014795D01*
X107742773Y-104106949D01*
X107618770Y-104228381D01*
X107520716Y-104371585D01*
X107515575Y-104383580D01*
X107514225Y-104383610D01*
X107484716Y-104455580D01*
X107452345Y-104531108D01*
X107450834Y-104538214D01*
X107448090Y-104544908D01*
X107433238Y-104621000D01*
X107416260Y-104700873D01*
X107416153Y-104708528D01*
X107414693Y-104716009D01*
X107414696Y-104716899D01*
X106177290Y-106234109D01*
X106151948Y-106272252D01*
X106124128Y-106308629D01*
X106118962Y-106317089D01*
X103705123Y-110333138D01*
X103677520Y-110391250D01*
X103649093Y-110449000D01*
X103645669Y-110458303D01*
X102057854Y-114866718D01*
X102042068Y-114929069D01*
X102025396Y-114991255D01*
X102023844Y-115001046D01*
X101322534Y-119633912D01*
X101319159Y-119698141D01*
X101314883Y-119762383D01*
X99573130Y-119762383D01*
X99472829Y-117546859D01*
X99463659Y-117483160D01*
X99455380Y-117419349D01*
X99453084Y-117409705D01*
X98336029Y-112859159D01*
X98314667Y-112798472D01*
X98294146Y-112737467D01*
X98290020Y-112728453D01*
X96310367Y-108481542D01*
X96277641Y-108426188D01*
X96245645Y-108370302D01*
X96239847Y-108362261D01*
X93535006Y-104665494D01*
X93535038Y-104663221D01*
X93534688Y-104661456D01*
X93534682Y-104659662D01*
X93519442Y-104584456D01*
X93501327Y-104492969D01*
X93500493Y-104490944D01*
X93500059Y-104488805D01*
X93435775Y-104333610D01*
X93435642Y-104333607D01*
X93435189Y-104332507D01*
X93339144Y-104187948D01*
X93216850Y-104064796D01*
X93072964Y-103967744D01*
X93066407Y-103964988D01*
X93066390Y-103964225D01*
X92993341Y-103934274D01*
X92974126Y-103926196D01*
X92935775Y-103833610D01*
X92935642Y-103833607D01*
X92935189Y-103832507D01*
X92839144Y-103687948D01*
X92716850Y-103564796D01*
X92572964Y-103467744D01*
X92566407Y-103464988D01*
X92566390Y-103464225D01*
X92493341Y-103434274D01*
X92474126Y-103426196D01*
X92435775Y-103333610D01*
X92435642Y-103333607D01*
X92435189Y-103332507D01*
X92339144Y-103187948D01*
X92216850Y-103064796D01*
X92072964Y-102967744D01*
X92066407Y-102964988D01*
X92066390Y-102964225D01*
X91993341Y-102934274D01*
X91974126Y-102926196D01*
X91935775Y-102833610D01*
X91935642Y-102833607D01*
X91935189Y-102832507D01*
X91839144Y-102687948D01*
X91716850Y-102564796D01*
X91572964Y-102467744D01*
X91566407Y-102464988D01*
X91566390Y-102464225D01*
X91493341Y-102434274D01*
X91449048Y-102415655D01*
X91435775Y-102383610D01*
X91435642Y-102383607D01*
X91435189Y-102382507D01*
X91339144Y-102237948D01*
X91216850Y-102114796D01*
X91072964Y-102017744D01*
X91066407Y-102014988D01*
X91066390Y-102014225D01*
X90993341Y-101984274D01*
X90949048Y-101965655D01*
X90935775Y-101933610D01*
X90935642Y-101933607D01*
X90935189Y-101932507D01*
X90839144Y-101787948D01*
X90716850Y-101664796D01*
X90572964Y-101567744D01*
X90566407Y-101564988D01*
X90566390Y-101564225D01*
X90493341Y-101534274D01*
X90412968Y-101500488D01*
X90408908Y-101499655D01*
X90405092Y-101498090D01*
X90327564Y-101482957D01*
X90242955Y-101465590D01*
X90238424Y-101465558D01*
X90233991Y-101464693D01*
X90155040Y-101464976D01*
X90075865Y-101464423D01*
X86949953Y-99387572D01*
X86897509Y-99359687D01*
X86845842Y-99330335D01*
X86836758Y-99326366D01*
X82533646Y-97481934D01*
X82472347Y-97462488D01*
X82411248Y-97442161D01*
X82401566Y-97440033D01*
X77822152Y-96466539D01*
X77758260Y-96459371D01*
X77694359Y-96451297D01*
X77684448Y-96451089D01*
X73003164Y-96385616D01*
X72939060Y-96390998D01*
X72874845Y-96395487D01*
X72865083Y-96397208D01*
X68260234Y-97242247D01*
X68198380Y-97259982D01*
X68136276Y-97276854D01*
X68127034Y-97280439D01*
X63774021Y-99003804D01*
X63716816Y-99033202D01*
X63659145Y-99061828D01*
X63650775Y-99067140D01*
X59852552Y-101514806D01*
X59805040Y-101514976D01*
X59719402Y-101514378D01*
X59714566Y-101515300D01*
X59709662Y-101515318D01*
X59632424Y-101530970D01*
X59548919Y-101546899D01*
X59543991Y-101548890D01*
X59538805Y-101549941D01*
X59436295Y-101592402D01*
X59387999Y-101611915D01*
X59385950Y-101613256D01*
X59383610Y-101614225D01*
X59383597Y-101614795D01*
X59242773Y-101706949D01*
X59118770Y-101828381D01*
X59020716Y-101971585D01*
X59015575Y-101983580D01*
X59014225Y-101983610D01*
X59001131Y-102015546D01*
X58936295Y-102042402D01*
X58887999Y-102061915D01*
X58885950Y-102063256D01*
X58883610Y-102064225D01*
X58883597Y-102064795D01*
X58742773Y-102156949D01*
X58618770Y-102278381D01*
X58520716Y-102421585D01*
X58515575Y-102433580D01*
X58514225Y-102433610D01*
X58509613Y-102444859D01*
X58498919Y-102446899D01*
X58493991Y-102448890D01*
X58488805Y-102449941D01*
X58386295Y-102492402D01*
X58337999Y-102511915D01*
X58335950Y-102513256D01*
X58333610Y-102514225D01*
X58333597Y-102514795D01*
X58192773Y-102606949D01*
X58068770Y-102728381D01*
X57970716Y-102871585D01*
X57965575Y-102883580D01*
X57964225Y-102883610D01*
X57934716Y-102955580D01*
X57902345Y-103031108D01*
X57901262Y-103036203D01*
X57886295Y-103042402D01*
X57837999Y-103061915D01*
X57835950Y-103063256D01*
X57833610Y-103064225D01*
X57833597Y-103064795D01*
X57692773Y-103156949D01*
X57568770Y-103278381D01*
X57470716Y-103421585D01*
X57465575Y-103433580D01*
X57464225Y-103433610D01*
X57451131Y-103465546D01*
X57386295Y-103492402D01*
X57337999Y-103511915D01*
X57335950Y-103513256D01*
X57333610Y-103514225D01*
X57333597Y-103514795D01*
X57192773Y-103606949D01*
X57068770Y-103728381D01*
X56970716Y-103871585D01*
X56965575Y-103883580D01*
X56964225Y-103883610D01*
X56934716Y-103955580D01*
X56915298Y-104000885D01*
X56887999Y-104011915D01*
X56885950Y-104013256D01*
X56883610Y-104014225D01*
X56883597Y-104014795D01*
X56742773Y-104106949D01*
X56618770Y-104228381D01*
X56520716Y-104371585D01*
X56515575Y-104383580D01*
X56514225Y-104383610D01*
X56484716Y-104455580D01*
X56452345Y-104531108D01*
X56450834Y-104538214D01*
X56448090Y-104544908D01*
X56433238Y-104621000D01*
X56416260Y-104700873D01*
X56416153Y-104708528D01*
X56414693Y-104716009D01*
X56414696Y-104716899D01*
X55177290Y-106234109D01*
X55151948Y-106272252D01*
X55124128Y-106308629D01*
X55118962Y-106317089D01*
X52705123Y-110333138D01*
X52677520Y-110391250D01*
X52649093Y-110449000D01*
X52645669Y-110458303D01*
X51057854Y-114866718D01*
X51042068Y-114929069D01*
X51025396Y-114991255D01*
X51023844Y-115001046D01*
X50322534Y-119633912D01*
X50319159Y-119698141D01*
X50314883Y-119762383D01*
X47710000Y-119762383D01*
X47710000Y-68762383D01*
X50314883Y-68762383D01*
X50315262Y-68772289D01*
X50527171Y-73453141D01*
X50536341Y-73516840D01*
X50544620Y-73580651D01*
X50546916Y-73590295D01*
X51663971Y-78140840D01*
X51685325Y-78201505D01*
X51705854Y-78262533D01*
X51709980Y-78271547D01*
X53689633Y-82518458D01*
X53722374Y-82573837D01*
X53754355Y-82629698D01*
X53760153Y-82637739D01*
X56413972Y-86264771D01*
X56413837Y-86274413D01*
X56415289Y-86282326D01*
X56415318Y-86290338D01*
X56430605Y-86365778D01*
X56445167Y-86445119D01*
X56448273Y-86452964D01*
X56449941Y-86461195D01*
X56485980Y-86548200D01*
X56509058Y-86606489D01*
X56512041Y-86611118D01*
X56514225Y-86616390D01*
X56515456Y-86616417D01*
X56603076Y-86752376D01*
X56723639Y-86877222D01*
X56866155Y-86976274D01*
X56883568Y-86983882D01*
X56883610Y-86985775D01*
X56953405Y-87014392D01*
X56976079Y-87024298D01*
X56985980Y-87048200D01*
X57009058Y-87106489D01*
X57012041Y-87111118D01*
X57014225Y-87116390D01*
X57015456Y-87116417D01*
X57103076Y-87252376D01*
X57223639Y-87377222D01*
X57366155Y-87476274D01*
X57383568Y-87483882D01*
X57383610Y-87485775D01*
X57453405Y-87514392D01*
X57476079Y-87524298D01*
X57485980Y-87548200D01*
X57509058Y-87606489D01*
X57512041Y-87611118D01*
X57514225Y-87616390D01*
X57515456Y-87616417D01*
X57603076Y-87752376D01*
X57723639Y-87877222D01*
X57866155Y-87976274D01*
X57883568Y-87983882D01*
X57883610Y-87985775D01*
X57953405Y-88014392D01*
X57976079Y-88024298D01*
X57985980Y-88048200D01*
X58009058Y-88106489D01*
X58012041Y-88111118D01*
X58014225Y-88116390D01*
X58015456Y-88116417D01*
X58103076Y-88252376D01*
X58223639Y-88377222D01*
X58366155Y-88476274D01*
X58383568Y-88483882D01*
X58383610Y-88485775D01*
X58453405Y-88514392D01*
X58500545Y-88534987D01*
X58509058Y-88556489D01*
X58512041Y-88561118D01*
X58514225Y-88566390D01*
X58515456Y-88566417D01*
X58603076Y-88702376D01*
X58723639Y-88827222D01*
X58866155Y-88926274D01*
X58883568Y-88933882D01*
X58883610Y-88935775D01*
X58953405Y-88964392D01*
X59000545Y-88984987D01*
X59009058Y-89006489D01*
X59012041Y-89011118D01*
X59014225Y-89016390D01*
X59015456Y-89016417D01*
X59103076Y-89152376D01*
X59223639Y-89277222D01*
X59366155Y-89376274D01*
X59383568Y-89383882D01*
X59383610Y-89385775D01*
X59453405Y-89414392D01*
X59525197Y-89445757D01*
X59535341Y-89447987D01*
X59544908Y-89451910D01*
X59618630Y-89466300D01*
X59694705Y-89483026D01*
X59705479Y-89483252D01*
X59716009Y-89485307D01*
X59790792Y-89485039D01*
X59849934Y-89486278D01*
X63050047Y-91612428D01*
X63102482Y-91640308D01*
X63154157Y-91669665D01*
X63163241Y-91673634D01*
X67466354Y-93518066D01*
X67527674Y-93537519D01*
X67588753Y-93557839D01*
X67598432Y-93559966D01*
X67598434Y-93559967D01*
X67598436Y-93559967D01*
X72177848Y-94533461D01*
X72241736Y-94540629D01*
X72305641Y-94548703D01*
X72315552Y-94548911D01*
X76996836Y-94614384D01*
X77060942Y-94609002D01*
X77125155Y-94604513D01*
X77134918Y-94602792D01*
X81739766Y-93757753D01*
X81801620Y-93740018D01*
X81863724Y-93723146D01*
X81872966Y-93719561D01*
X86225979Y-91996196D01*
X86283184Y-91966798D01*
X86340855Y-91938172D01*
X86349225Y-91932860D01*
X90147473Y-89485179D01*
X90218225Y-89486661D01*
X90229222Y-89484722D01*
X90240338Y-89484682D01*
X90313302Y-89469896D01*
X90389146Y-89456523D01*
X90399921Y-89452344D01*
X90411195Y-89450059D01*
X90490467Y-89417223D01*
X90550957Y-89393761D01*
X90558187Y-89389173D01*
X90566390Y-89385775D01*
X90566431Y-89383941D01*
X90697497Y-89300764D01*
X90823182Y-89181075D01*
X90923226Y-89039254D01*
X90933382Y-89016443D01*
X90935775Y-89016390D01*
X90939948Y-89006212D01*
X90949921Y-89002344D01*
X90961195Y-89000059D01*
X91040467Y-88967223D01*
X91100957Y-88943761D01*
X91108187Y-88939173D01*
X91116390Y-88935775D01*
X91116431Y-88933941D01*
X91247497Y-88850764D01*
X91373182Y-88731075D01*
X91473226Y-88589254D01*
X91483382Y-88566443D01*
X91485775Y-88566390D01*
X91489948Y-88556212D01*
X91499921Y-88552344D01*
X91511195Y-88550059D01*
X91590467Y-88517223D01*
X91650957Y-88493761D01*
X91658187Y-88489173D01*
X91666390Y-88485775D01*
X91666431Y-88483941D01*
X91797497Y-88400764D01*
X91923182Y-88281075D01*
X92023226Y-88139254D01*
X92033382Y-88116443D01*
X92035775Y-88116390D01*
X92063367Y-88049096D01*
X92074638Y-88023780D01*
X92090467Y-88017223D01*
X92150957Y-87993761D01*
X92158187Y-87989173D01*
X92166390Y-87985775D01*
X92166431Y-87983941D01*
X92297497Y-87900764D01*
X92423182Y-87781075D01*
X92523226Y-87639254D01*
X92533382Y-87616443D01*
X92535775Y-87616390D01*
X92563367Y-87549096D01*
X92574638Y-87523780D01*
X92590467Y-87517223D01*
X92650957Y-87493761D01*
X92658187Y-87489173D01*
X92666390Y-87485775D01*
X92666431Y-87483941D01*
X92797497Y-87400764D01*
X92923182Y-87281075D01*
X93023226Y-87139254D01*
X93033382Y-87116443D01*
X93035775Y-87116390D01*
X93063367Y-87049096D01*
X93085299Y-86999834D01*
X93100957Y-86993761D01*
X93108187Y-86989173D01*
X93116390Y-86985775D01*
X93116431Y-86983941D01*
X93247497Y-86900764D01*
X93373182Y-86781075D01*
X93473226Y-86639254D01*
X93483382Y-86616443D01*
X93485775Y-86616390D01*
X93513367Y-86549096D01*
X93543818Y-86480701D01*
X93546811Y-86467529D01*
X93551910Y-86455092D01*
X93565774Y-86384062D01*
X93582270Y-86311457D01*
X93582449Y-86298633D01*
X93585307Y-86283991D01*
X93585304Y-86283101D01*
X94822710Y-84765891D01*
X94848053Y-84727747D01*
X94875871Y-84691372D01*
X94881037Y-84682911D01*
X97294877Y-80666862D01*
X97322487Y-80608737D01*
X97350907Y-80551000D01*
X97354331Y-80541697D01*
X98942146Y-76133282D01*
X98957937Y-76070913D01*
X98974604Y-76008744D01*
X98976156Y-75998953D01*
X99677466Y-71366088D01*
X99680841Y-71301860D01*
X99685117Y-71237617D01*
X99684738Y-71227711D01*
X99573130Y-68762383D01*
X101314883Y-68762383D01*
X101315262Y-68772289D01*
X101527171Y-73453141D01*
X101536341Y-73516840D01*
X101544620Y-73580651D01*
X101546916Y-73590295D01*
X102663971Y-78140840D01*
X102685325Y-78201505D01*
X102705854Y-78262533D01*
X102709980Y-78271547D01*
X104689633Y-82518458D01*
X104722374Y-82573837D01*
X104754355Y-82629698D01*
X104760153Y-82637739D01*
X107413972Y-86264771D01*
X107413837Y-86274413D01*
X107415289Y-86282326D01*
X107415318Y-86290338D01*
X107430605Y-86365778D01*
X107445167Y-86445119D01*
X107448273Y-86452964D01*
X107449941Y-86461195D01*
X107485980Y-86548200D01*
X107509058Y-86606489D01*
X107512041Y-86611118D01*
X107514225Y-86616390D01*
X107515456Y-86616417D01*
X107603076Y-86752376D01*
X107723639Y-86877222D01*
X107866155Y-86976274D01*
X107883568Y-86983882D01*
X107883610Y-86985775D01*
X107953405Y-87014392D01*
X107976079Y-87024298D01*
X107985980Y-87048200D01*
X108009058Y-87106489D01*
X108012041Y-87111118D01*
X108014225Y-87116390D01*
X108015456Y-87116417D01*
X108103076Y-87252376D01*
X108223639Y-87377222D01*
X108366155Y-87476274D01*
X108383568Y-87483882D01*
X108383610Y-87485775D01*
X108453405Y-87514392D01*
X108476079Y-87524298D01*
X108485980Y-87548200D01*
X108509058Y-87606489D01*
X108512041Y-87611118D01*
X108514225Y-87616390D01*
X108515456Y-87616417D01*
X108603076Y-87752376D01*
X108723639Y-87877222D01*
X108866155Y-87976274D01*
X108883568Y-87983882D01*
X108883610Y-87985775D01*
X108953405Y-88014392D01*
X108976079Y-88024298D01*
X108985980Y-88048200D01*
X109009058Y-88106489D01*
X109012041Y-88111118D01*
X109014225Y-88116390D01*
X109015456Y-88116417D01*
X109103076Y-88252376D01*
X109223639Y-88377222D01*
X109366155Y-88476274D01*
X109383568Y-88483882D01*
X109383610Y-88485775D01*
X109453405Y-88514392D01*
X109500545Y-88534987D01*
X109509058Y-88556489D01*
X109512041Y-88561118D01*
X109514225Y-88566390D01*
X109515456Y-88566417D01*
X109603076Y-88702376D01*
X109723639Y-88827222D01*
X109866155Y-88926274D01*
X109883568Y-88933882D01*
X109883610Y-88935775D01*
X109953405Y-88964392D01*
X110000545Y-88984987D01*
X110009058Y-89006489D01*
X110012041Y-89011118D01*
X110014225Y-89016390D01*
X110015456Y-89016417D01*
X110103076Y-89152376D01*
X110223639Y-89277222D01*
X110366155Y-89376274D01*
X110383568Y-89383882D01*
X110383610Y-89385775D01*
X110453405Y-89414392D01*
X110525197Y-89445757D01*
X110535341Y-89447987D01*
X110544908Y-89451910D01*
X110618630Y-89466300D01*
X110694705Y-89483026D01*
X110705479Y-89483252D01*
X110716009Y-89485307D01*
X110790792Y-89485039D01*
X110849934Y-89486278D01*
X114050047Y-91612428D01*
X114102482Y-91640308D01*
X114154157Y-91669665D01*
X114163241Y-91673634D01*
X118466354Y-93518066D01*
X118527674Y-93537519D01*
X118588753Y-93557839D01*
X118598432Y-93559966D01*
X118598434Y-93559967D01*
X118598436Y-93559967D01*
X123177848Y-94533461D01*
X123241736Y-94540629D01*
X123305641Y-94548703D01*
X123315552Y-94548911D01*
X127996836Y-94614384D01*
X128060942Y-94609002D01*
X128125155Y-94604513D01*
X128134918Y-94602792D01*
X132739766Y-93757753D01*
X132801620Y-93740018D01*
X132863724Y-93723146D01*
X132872966Y-93719561D01*
X137225979Y-91996196D01*
X137283184Y-91966798D01*
X137340855Y-91938172D01*
X137349225Y-91932860D01*
X141147473Y-89485179D01*
X141218225Y-89486661D01*
X141229222Y-89484722D01*
X141240338Y-89484682D01*
X141313302Y-89469896D01*
X141389146Y-89456523D01*
X141399921Y-89452344D01*
X141411195Y-89450059D01*
X141490467Y-89417223D01*
X141550957Y-89393761D01*
X141558187Y-89389173D01*
X141566390Y-89385775D01*
X141566431Y-89383941D01*
X141697497Y-89300764D01*
X141823182Y-89181075D01*
X141923226Y-89039254D01*
X141933382Y-89016443D01*
X141935775Y-89016390D01*
X141939948Y-89006212D01*
X141949921Y-89002344D01*
X141961195Y-89000059D01*
X142040467Y-88967223D01*
X142100957Y-88943761D01*
X142108187Y-88939173D01*
X142116390Y-88935775D01*
X142116431Y-88933941D01*
X142247497Y-88850764D01*
X142373182Y-88731075D01*
X142473226Y-88589254D01*
X142483382Y-88566443D01*
X142485775Y-88566390D01*
X142489948Y-88556212D01*
X142499921Y-88552344D01*
X142511195Y-88550059D01*
X142590467Y-88517223D01*
X142650957Y-88493761D01*
X142658187Y-88489173D01*
X142666390Y-88485775D01*
X142666431Y-88483941D01*
X142797497Y-88400764D01*
X142923182Y-88281075D01*
X143023226Y-88139254D01*
X143033382Y-88116443D01*
X143035775Y-88116390D01*
X143063367Y-88049096D01*
X143074638Y-88023780D01*
X143090467Y-88017223D01*
X143150957Y-87993761D01*
X143158187Y-87989173D01*
X143166390Y-87985775D01*
X143166431Y-87983941D01*
X143297497Y-87900764D01*
X143423182Y-87781075D01*
X143523226Y-87639254D01*
X143533382Y-87616443D01*
X143535775Y-87616390D01*
X143563367Y-87549096D01*
X143574638Y-87523780D01*
X143590467Y-87517223D01*
X143650957Y-87493761D01*
X143658187Y-87489173D01*
X143666390Y-87485775D01*
X143666431Y-87483941D01*
X143797497Y-87400764D01*
X143923182Y-87281075D01*
X144023226Y-87139254D01*
X144033382Y-87116443D01*
X144035775Y-87116390D01*
X144063367Y-87049096D01*
X144085299Y-86999834D01*
X144100957Y-86993761D01*
X144108187Y-86989173D01*
X144116390Y-86985775D01*
X144116431Y-86983941D01*
X144247497Y-86900764D01*
X144373182Y-86781075D01*
X144473226Y-86639254D01*
X144483382Y-86616443D01*
X144485775Y-86616390D01*
X144513367Y-86549096D01*
X144543818Y-86480701D01*
X144546811Y-86467529D01*
X144551910Y-86455092D01*
X144565774Y-86384062D01*
X144582270Y-86311457D01*
X144582449Y-86298633D01*
X144585307Y-86283991D01*
X144585304Y-86283101D01*
X145822710Y-84765891D01*
X145848053Y-84727747D01*
X145875871Y-84691372D01*
X145881037Y-84682911D01*
X148294877Y-80666862D01*
X148322487Y-80608737D01*
X148350907Y-80551000D01*
X148354331Y-80541697D01*
X149942146Y-76133282D01*
X149957937Y-76070913D01*
X149974604Y-76008744D01*
X149976156Y-75998953D01*
X150677466Y-71366088D01*
X150680841Y-71301860D01*
X150685117Y-71237617D01*
X150684738Y-71227711D01*
X150472829Y-66546859D01*
X150463659Y-66483160D01*
X150455380Y-66419349D01*
X150453084Y-66409705D01*
X149336029Y-61859159D01*
X149314667Y-61798472D01*
X149294146Y-61737467D01*
X149290020Y-61728453D01*
X147310367Y-57481542D01*
X147277641Y-57426188D01*
X147245645Y-57370302D01*
X147239847Y-57362261D01*
X144535006Y-53665494D01*
X144535038Y-53663221D01*
X144534688Y-53661456D01*
X144534682Y-53659662D01*
X144519442Y-53584456D01*
X144501327Y-53492969D01*
X144500493Y-53490944D01*
X144500059Y-53488805D01*
X144435775Y-53333610D01*
X144435642Y-53333607D01*
X144435189Y-53332507D01*
X144339144Y-53187948D01*
X144216850Y-53064796D01*
X144072964Y-52967744D01*
X144066407Y-52964988D01*
X144066390Y-52964225D01*
X143993341Y-52934274D01*
X143974126Y-52926196D01*
X143935775Y-52833610D01*
X143935642Y-52833607D01*
X143935189Y-52832507D01*
X143839144Y-52687948D01*
X143716850Y-52564796D01*
X143572964Y-52467744D01*
X143566407Y-52464988D01*
X143566390Y-52464225D01*
X143493341Y-52434274D01*
X143474126Y-52426196D01*
X143435775Y-52333610D01*
X143435642Y-52333607D01*
X143435189Y-52332507D01*
X143339144Y-52187948D01*
X143216850Y-52064796D01*
X143072964Y-51967744D01*
X143066407Y-51964988D01*
X143066390Y-51964225D01*
X142993341Y-51934274D01*
X142974126Y-51926196D01*
X142935775Y-51833610D01*
X142935642Y-51833607D01*
X142935189Y-51832507D01*
X142839144Y-51687948D01*
X142716850Y-51564796D01*
X142572964Y-51467744D01*
X142566407Y-51464988D01*
X142566390Y-51464225D01*
X142493341Y-51434274D01*
X142449048Y-51415655D01*
X142435775Y-51383610D01*
X142435642Y-51383607D01*
X142435189Y-51382507D01*
X142339144Y-51237948D01*
X142216850Y-51114796D01*
X142072964Y-51017744D01*
X142066407Y-51014988D01*
X142066390Y-51014225D01*
X141993341Y-50984274D01*
X141949048Y-50965655D01*
X141935775Y-50933610D01*
X141935642Y-50933607D01*
X141935189Y-50932507D01*
X141839144Y-50787948D01*
X141716850Y-50664796D01*
X141572964Y-50567744D01*
X141566407Y-50564988D01*
X141566390Y-50564225D01*
X141493341Y-50534274D01*
X141412968Y-50500488D01*
X141408908Y-50499655D01*
X141405092Y-50498090D01*
X141327564Y-50482957D01*
X141242955Y-50465590D01*
X141238424Y-50465558D01*
X141233991Y-50464693D01*
X141155040Y-50464976D01*
X141075865Y-50464423D01*
X137949953Y-48387572D01*
X137897509Y-48359687D01*
X137845842Y-48330335D01*
X137836758Y-48326366D01*
X133533646Y-46481934D01*
X133472347Y-46462488D01*
X133411248Y-46442161D01*
X133401566Y-46440033D01*
X128822152Y-45466539D01*
X128758260Y-45459371D01*
X128694359Y-45451297D01*
X128684448Y-45451089D01*
X124003164Y-45385616D01*
X123939060Y-45390998D01*
X123874845Y-45395487D01*
X123865083Y-45397208D01*
X119260234Y-46242247D01*
X119198380Y-46259982D01*
X119136276Y-46276854D01*
X119127034Y-46280439D01*
X114774021Y-48003804D01*
X114716816Y-48033202D01*
X114659145Y-48061828D01*
X114650775Y-48067140D01*
X110852552Y-50514806D01*
X110805040Y-50514976D01*
X110719402Y-50514378D01*
X110714566Y-50515300D01*
X110709662Y-50515318D01*
X110632424Y-50530970D01*
X110548919Y-50546899D01*
X110543991Y-50548890D01*
X110538805Y-50549941D01*
X110436295Y-50592402D01*
X110387999Y-50611915D01*
X110385950Y-50613256D01*
X110383610Y-50614225D01*
X110383597Y-50614795D01*
X110242773Y-50706949D01*
X110118770Y-50828381D01*
X110020716Y-50971585D01*
X110015575Y-50983580D01*
X110014225Y-50983610D01*
X110001131Y-51015546D01*
X109936295Y-51042402D01*
X109887999Y-51061915D01*
X109885950Y-51063256D01*
X109883610Y-51064225D01*
X109883597Y-51064795D01*
X109742773Y-51156949D01*
X109618770Y-51278381D01*
X109520716Y-51421585D01*
X109515575Y-51433580D01*
X109514225Y-51433610D01*
X109509613Y-51444859D01*
X109498919Y-51446899D01*
X109493991Y-51448890D01*
X109488805Y-51449941D01*
X109386295Y-51492402D01*
X109337999Y-51511915D01*
X109335950Y-51513256D01*
X109333610Y-51514225D01*
X109333597Y-51514795D01*
X109192773Y-51606949D01*
X109068770Y-51728381D01*
X108970716Y-51871585D01*
X108965575Y-51883580D01*
X108964225Y-51883610D01*
X108934716Y-51955580D01*
X108902345Y-52031108D01*
X108901262Y-52036203D01*
X108886295Y-52042402D01*
X108837999Y-52061915D01*
X108835950Y-52063256D01*
X108833610Y-52064225D01*
X108833597Y-52064795D01*
X108692773Y-52156949D01*
X108568770Y-52278381D01*
X108470716Y-52421585D01*
X108465575Y-52433580D01*
X108464225Y-52433610D01*
X108451131Y-52465546D01*
X108386295Y-52492402D01*
X108337999Y-52511915D01*
X108335950Y-52513256D01*
X108333610Y-52514225D01*
X108333597Y-52514795D01*
X108192773Y-52606949D01*
X108068770Y-52728381D01*
X107970716Y-52871585D01*
X107965575Y-52883580D01*
X107964225Y-52883610D01*
X107934716Y-52955580D01*
X107915298Y-53000885D01*
X107887999Y-53011915D01*
X107885950Y-53013256D01*
X107883610Y-53014225D01*
X107883597Y-53014795D01*
X107742773Y-53106949D01*
X107618770Y-53228381D01*
X107520716Y-53371585D01*
X107515575Y-53383580D01*
X107514225Y-53383610D01*
X107484716Y-53455580D01*
X107452345Y-53531108D01*
X107450834Y-53538214D01*
X107448090Y-53544908D01*
X107433238Y-53621000D01*
X107416260Y-53700873D01*
X107416153Y-53708528D01*
X107414693Y-53716009D01*
X107414696Y-53716899D01*
X106177290Y-55234109D01*
X106151948Y-55272252D01*
X106124128Y-55308629D01*
X106118962Y-55317089D01*
X103705123Y-59333138D01*
X103677520Y-59391250D01*
X103649093Y-59449000D01*
X103645669Y-59458303D01*
X102057854Y-63866718D01*
X102042068Y-63929069D01*
X102025396Y-63991255D01*
X102023844Y-64001046D01*
X101322534Y-68633912D01*
X101319159Y-68698141D01*
X101314883Y-68762383D01*
X99573130Y-68762383D01*
X99472829Y-66546859D01*
X99463659Y-66483160D01*
X99455380Y-66419349D01*
X99453084Y-66409705D01*
X98336029Y-61859159D01*
X98314667Y-61798472D01*
X98294146Y-61737467D01*
X98290020Y-61728453D01*
X96310367Y-57481542D01*
X96277641Y-57426188D01*
X96245645Y-57370302D01*
X96239847Y-57362261D01*
X93535006Y-53665494D01*
X93535038Y-53663221D01*
X93534688Y-53661456D01*
X93534682Y-53659662D01*
X93519442Y-53584456D01*
X93501327Y-53492969D01*
X93500493Y-53490944D01*
X93500059Y-53488805D01*
X93435775Y-53333610D01*
X93435642Y-53333607D01*
X93435189Y-53332507D01*
X93339144Y-53187948D01*
X93216850Y-53064796D01*
X93072964Y-52967744D01*
X93066407Y-52964988D01*
X93066390Y-52964225D01*
X92993341Y-52934274D01*
X92974126Y-52926196D01*
X92935775Y-52833610D01*
X92935642Y-52833607D01*
X92935189Y-52832507D01*
X92839144Y-52687948D01*
X92716850Y-52564796D01*
X92572964Y-52467744D01*
X92566407Y-52464988D01*
X92566390Y-52464225D01*
X92493341Y-52434274D01*
X92474126Y-52426196D01*
X92435775Y-52333610D01*
X92435642Y-52333607D01*
X92435189Y-52332507D01*
X92339144Y-52187948D01*
X92216850Y-52064796D01*
X92072964Y-51967744D01*
X92066407Y-51964988D01*
X92066390Y-51964225D01*
X91993341Y-51934274D01*
X91974126Y-51926196D01*
X91935775Y-51833610D01*
X91935642Y-51833607D01*
X91935189Y-51832507D01*
X91839144Y-51687948D01*
X91716850Y-51564796D01*
X91572964Y-51467744D01*
X91566407Y-51464988D01*
X91566390Y-51464225D01*
X91493341Y-51434274D01*
X91449048Y-51415655D01*
X91435775Y-51383610D01*
X91435642Y-51383607D01*
X91435189Y-51382507D01*
X91339144Y-51237948D01*
X91216850Y-51114796D01*
X91072964Y-51017744D01*
X91066407Y-51014988D01*
X91066390Y-51014225D01*
X90993341Y-50984274D01*
X90949048Y-50965655D01*
X90935775Y-50933610D01*
X90935642Y-50933607D01*
X90935189Y-50932507D01*
X90839144Y-50787948D01*
X90716850Y-50664796D01*
X90572964Y-50567744D01*
X90566407Y-50564988D01*
X90566390Y-50564225D01*
X90493341Y-50534274D01*
X90412968Y-50500488D01*
X90408908Y-50499655D01*
X90405092Y-50498090D01*
X90327564Y-50482957D01*
X90242955Y-50465590D01*
X90238424Y-50465558D01*
X90233991Y-50464693D01*
X90155040Y-50464976D01*
X90075865Y-50464423D01*
X86949953Y-48387572D01*
X86897509Y-48359687D01*
X86845842Y-48330335D01*
X86836758Y-48326366D01*
X82533646Y-46481934D01*
X82472347Y-46462488D01*
X82411248Y-46442161D01*
X82401566Y-46440033D01*
X77822152Y-45466539D01*
X77758260Y-45459371D01*
X77694359Y-45451297D01*
X77684448Y-45451089D01*
X73003164Y-45385616D01*
X72939060Y-45390998D01*
X72874845Y-45395487D01*
X72865083Y-45397208D01*
X68260234Y-46242247D01*
X68198380Y-46259982D01*
X68136276Y-46276854D01*
X68127034Y-46280439D01*
X63774021Y-48003804D01*
X63716816Y-48033202D01*
X63659145Y-48061828D01*
X63650775Y-48067140D01*
X59852552Y-50514806D01*
X59805040Y-50514976D01*
X59719402Y-50514378D01*
X59714566Y-50515300D01*
X59709662Y-50515318D01*
X59632424Y-50530970D01*
X59548919Y-50546899D01*
X59543991Y-50548890D01*
X59538805Y-50549941D01*
X59436295Y-50592402D01*
X59387999Y-50611915D01*
X59385950Y-50613256D01*
X59383610Y-50614225D01*
X59383597Y-50614795D01*
X59242773Y-50706949D01*
X59118770Y-50828381D01*
X59020716Y-50971585D01*
X59015575Y-50983580D01*
X59014225Y-50983610D01*
X59001131Y-51015546D01*
X58936295Y-51042402D01*
X58887999Y-51061915D01*
X58885950Y-51063256D01*
X58883610Y-51064225D01*
X58883597Y-51064795D01*
X58742773Y-51156949D01*
X58618770Y-51278381D01*
X58520716Y-51421585D01*
X58515575Y-51433580D01*
X58514225Y-51433610D01*
X58509613Y-51444859D01*
X58498919Y-51446899D01*
X58493991Y-51448890D01*
X58488805Y-51449941D01*
X58386295Y-51492402D01*
X58337999Y-51511915D01*
X58335950Y-51513256D01*
X58333610Y-51514225D01*
X58333597Y-51514795D01*
X58192773Y-51606949D01*
X58068770Y-51728381D01*
X57970716Y-51871585D01*
X57965575Y-51883580D01*
X57964225Y-51883610D01*
X57934716Y-51955580D01*
X57902345Y-52031108D01*
X57901262Y-52036203D01*
X57886295Y-52042402D01*
X57837999Y-52061915D01*
X57835950Y-52063256D01*
X57833610Y-52064225D01*
X57833597Y-52064795D01*
X57692773Y-52156949D01*
X57568770Y-52278381D01*
X57470716Y-52421585D01*
X57465575Y-52433580D01*
X57464225Y-52433610D01*
X57451131Y-52465546D01*
X57386295Y-52492402D01*
X57337999Y-52511915D01*
X57335950Y-52513256D01*
X57333610Y-52514225D01*
X57333597Y-52514795D01*
X57192773Y-52606949D01*
X57068770Y-52728381D01*
X56970716Y-52871585D01*
X56965575Y-52883580D01*
X56964225Y-52883610D01*
X56934716Y-52955580D01*
X56915298Y-53000885D01*
X56887999Y-53011915D01*
X56885950Y-53013256D01*
X56883610Y-53014225D01*
X56883597Y-53014795D01*
X56742773Y-53106949D01*
X56618770Y-53228381D01*
X56520716Y-53371585D01*
X56515575Y-53383580D01*
X56514225Y-53383610D01*
X56484716Y-53455580D01*
X56452345Y-53531108D01*
X56450834Y-53538214D01*
X56448090Y-53544908D01*
X56433238Y-53621000D01*
X56416260Y-53700873D01*
X56416153Y-53708528D01*
X56414693Y-53716009D01*
X56414696Y-53716899D01*
X55177290Y-55234109D01*
X55151948Y-55272252D01*
X55124128Y-55308629D01*
X55118962Y-55317089D01*
X52705123Y-59333138D01*
X52677520Y-59391250D01*
X52649093Y-59449000D01*
X52645669Y-59458303D01*
X51057854Y-63866718D01*
X51042068Y-63929069D01*
X51025396Y-63991255D01*
X51023844Y-64001046D01*
X50322534Y-68633912D01*
X50319159Y-68698141D01*
X50314883Y-68762383D01*
X47710000Y-68762383D01*
X47710000Y-42710000D01*
X153290000Y-42710000D01*
X153290000Y-148290000D01*
G36*
X128663353Y-99212401D02*
X132844531Y-100144659D01*
X136771819Y-101874290D01*
X139481121Y-103686469D01*
X139485980Y-103698200D01*
X139509058Y-103756489D01*
X139512041Y-103761118D01*
X139514225Y-103766390D01*
X139515456Y-103766417D01*
X139603076Y-103902376D01*
X139723639Y-104027222D01*
X139866155Y-104126274D01*
X139883568Y-104133882D01*
X139883610Y-104135775D01*
X139953405Y-104164392D01*
X140000545Y-104184987D01*
X140009058Y-104206489D01*
X140012041Y-104211118D01*
X140014225Y-104216390D01*
X140015456Y-104216417D01*
X140103076Y-104352376D01*
X140223639Y-104477222D01*
X140366155Y-104576274D01*
X140383568Y-104583882D01*
X140383610Y-104585775D01*
X140453405Y-104614392D01*
X140525197Y-104645757D01*
X140535341Y-104647987D01*
X140544908Y-104651910D01*
X140558278Y-104654520D01*
X140559058Y-104656489D01*
X140562041Y-104661118D01*
X140564225Y-104666390D01*
X140565456Y-104666417D01*
X140653076Y-104802376D01*
X140773639Y-104927222D01*
X140916155Y-105026274D01*
X140933568Y-105033882D01*
X140933610Y-105035775D01*
X141003405Y-105064392D01*
X141026079Y-105074298D01*
X141035980Y-105098200D01*
X141059058Y-105156489D01*
X141062041Y-105161118D01*
X141064225Y-105166390D01*
X141065456Y-105166417D01*
X141153076Y-105302376D01*
X141273639Y-105427222D01*
X141416155Y-105526274D01*
X141433568Y-105533882D01*
X141433610Y-105535775D01*
X141503405Y-105564392D01*
X141526079Y-105574298D01*
X141535980Y-105598200D01*
X141559058Y-105656489D01*
X141562041Y-105661118D01*
X141564225Y-105666390D01*
X141565456Y-105666417D01*
X141653076Y-105802376D01*
X141773639Y-105927222D01*
X141916155Y-106026274D01*
X141933568Y-106033882D01*
X141933610Y-106035775D01*
X142003405Y-106064392D01*
X142026079Y-106074298D01*
X142035980Y-106098200D01*
X142059058Y-106156489D01*
X142062041Y-106161118D01*
X142064225Y-106166390D01*
X142065456Y-106166417D01*
X142153076Y-106302376D01*
X142273639Y-106427222D01*
X142416155Y-106526274D01*
X142433568Y-106533882D01*
X142433610Y-106535775D01*
X142503405Y-106564392D01*
X142544810Y-106582481D01*
X144973323Y-109946768D01*
X146758897Y-113842548D01*
X147753770Y-118010952D01*
X147920050Y-122293202D01*
X147251399Y-126526207D01*
X145773293Y-130548708D01*
X143531397Y-134224936D01*
X142497749Y-135487584D01*
X142448919Y-135496899D01*
X142443991Y-135498890D01*
X142438805Y-135499941D01*
X142336295Y-135542402D01*
X142287999Y-135561915D01*
X142285950Y-135563256D01*
X142283610Y-135564225D01*
X142283597Y-135564795D01*
X142142773Y-135656949D01*
X142018770Y-135778381D01*
X141920716Y-135921585D01*
X141915575Y-135933580D01*
X141914225Y-135933610D01*
X141884716Y-136005580D01*
X141865298Y-136050885D01*
X141837999Y-136061915D01*
X141835950Y-136063256D01*
X141833610Y-136064225D01*
X141833597Y-136064795D01*
X141692773Y-136156949D01*
X141568770Y-136278381D01*
X141470716Y-136421585D01*
X141465575Y-136433580D01*
X141464225Y-136433610D01*
X141440902Y-136490494D01*
X141436295Y-136492402D01*
X141387999Y-136511915D01*
X141385950Y-136513256D01*
X141383610Y-136514225D01*
X141383597Y-136514795D01*
X141242773Y-136606949D01*
X141118770Y-136728381D01*
X141020716Y-136871585D01*
X141015575Y-136883580D01*
X141014225Y-136883610D01*
X140986665Y-136950828D01*
X140886295Y-136992402D01*
X140837999Y-137011915D01*
X140835950Y-137013256D01*
X140833610Y-137014225D01*
X140833597Y-137014795D01*
X140692773Y-137106949D01*
X140568770Y-137228381D01*
X140470716Y-137371585D01*
X140465575Y-137383580D01*
X140464225Y-137383610D01*
X140459613Y-137394859D01*
X140448919Y-137396899D01*
X140443991Y-137398890D01*
X140438805Y-137399941D01*
X140336295Y-137442402D01*
X140287999Y-137461915D01*
X140285950Y-137463256D01*
X140283610Y-137464225D01*
X140283597Y-137464795D01*
X140142773Y-137556949D01*
X140018770Y-137678381D01*
X139920716Y-137821585D01*
X139915575Y-137833580D01*
X139914225Y-137833610D01*
X139901131Y-137865546D01*
X139836295Y-137892402D01*
X139787999Y-137911915D01*
X139785950Y-137913256D01*
X139783610Y-137914225D01*
X139783597Y-137914795D01*
X139642773Y-138006949D01*
X139518770Y-138128381D01*
X139420716Y-138271585D01*
X139415575Y-138283580D01*
X139414225Y-138283610D01*
X139384716Y-138355580D01*
X139352345Y-138431108D01*
X139350834Y-138438214D01*
X139348090Y-138444908D01*
X139341829Y-138476985D01*
X135934589Y-140641770D01*
X131930280Y-142197334D01*
X127700089Y-142945498D01*
X123405137Y-142857765D01*
X119209029Y-141937477D01*
X115265897Y-140217204D01*
X112507060Y-138371920D01*
X112501327Y-138342969D01*
X112500493Y-138340944D01*
X112500059Y-138338805D01*
X112435775Y-138183610D01*
X112435642Y-138183607D01*
X112435189Y-138182507D01*
X112339144Y-138037948D01*
X112216850Y-137914796D01*
X112072964Y-137817744D01*
X112066407Y-137814988D01*
X112066390Y-137814225D01*
X111993341Y-137784274D01*
X111949048Y-137765655D01*
X111935775Y-137733610D01*
X111935642Y-137733607D01*
X111935189Y-137732507D01*
X111839144Y-137587948D01*
X111716850Y-137464796D01*
X111572964Y-137367744D01*
X111566407Y-137364988D01*
X111566390Y-137364225D01*
X111493341Y-137334274D01*
X111412968Y-137300488D01*
X111408908Y-137299655D01*
X111405092Y-137298090D01*
X111390601Y-137295262D01*
X111385775Y-137283610D01*
X111385642Y-137283607D01*
X111385189Y-137282507D01*
X111289144Y-137137948D01*
X111166850Y-137014796D01*
X111022964Y-136917744D01*
X111016407Y-136914988D01*
X111016390Y-136914225D01*
X110943341Y-136884274D01*
X110924126Y-136876196D01*
X110885775Y-136783610D01*
X110885642Y-136783607D01*
X110885189Y-136782507D01*
X110789144Y-136637948D01*
X110666850Y-136514796D01*
X110522964Y-136417744D01*
X110516407Y-136414988D01*
X110516390Y-136414225D01*
X110443341Y-136384274D01*
X110424126Y-136376196D01*
X110385775Y-136283610D01*
X110385642Y-136283607D01*
X110385189Y-136282507D01*
X110289144Y-136137948D01*
X110166850Y-136014796D01*
X110022964Y-135917744D01*
X110016407Y-135914988D01*
X110016390Y-135914225D01*
X109943341Y-135884274D01*
X109924126Y-135876196D01*
X109885775Y-135783610D01*
X109885642Y-135783607D01*
X109885189Y-135782507D01*
X109789144Y-135637948D01*
X109666850Y-135514796D01*
X109522964Y-135417744D01*
X109516407Y-135414988D01*
X109516390Y-135414225D01*
X109443341Y-135384274D01*
X109425900Y-135376942D01*
X107026674Y-132053228D01*
X105241103Y-128157452D01*
X104246230Y-123989048D01*
X104079950Y-119706799D01*
X104242144Y-118680000D01*
X125773000Y-118680000D01*
X125773000Y-118780000D01*
X125774728Y-118800879D01*
X125784482Y-118859403D01*
X125794276Y-118927961D01*
X125796024Y-118937550D01*
X125816024Y-119027550D01*
X125819517Y-119040161D01*
X125849517Y-119130161D01*
X125853269Y-119140028D01*
X125883269Y-119210028D01*
X125883946Y-119211580D01*
X125923946Y-119301580D01*
X125938400Y-119326200D01*
X125996288Y-119403384D01*
X126034330Y-119460447D01*
X126050197Y-119479803D01*
X126230197Y-119659803D01*
X126249553Y-119675670D01*
X126339553Y-119735670D01*
X126348323Y-119741018D01*
X126438323Y-119791018D01*
X126443204Y-119793592D01*
X126523204Y-119833592D01*
X126535407Y-119838914D01*
X126615407Y-119868914D01*
X126632450Y-119873976D01*
X126722450Y-119893976D01*
X126725093Y-119894534D01*
X126825093Y-119914534D01*
X126832039Y-119915724D01*
X126902039Y-119925724D01*
X126920000Y-119927000D01*
X127090000Y-119927000D01*
X127104025Y-119926223D01*
X127194025Y-119916223D01*
X127210802Y-119913208D01*
X127290802Y-119893208D01*
X127296493Y-119891644D01*
X127396493Y-119861644D01*
X127413220Y-119855311D01*
X127543220Y-119795311D01*
X127546796Y-119793592D01*
X127666796Y-119733592D01*
X127692035Y-119716950D01*
X127822035Y-119606950D01*
X127829803Y-119599803D01*
X127929803Y-119499803D01*
X127943344Y-119483817D01*
X128043344Y-119343817D01*
X128051820Y-119330211D01*
X128121820Y-119200211D01*
X128130483Y-119180161D01*
X128190483Y-119000161D01*
X128196223Y-118974025D01*
X128216223Y-118794025D01*
X128216781Y-118772542D01*
X128206781Y-118602542D01*
X128206753Y-118602078D01*
X128196753Y-118442078D01*
X128189601Y-118407285D01*
X128139601Y-118267285D01*
X128131820Y-118249789D01*
X128061820Y-118119789D01*
X128058902Y-118114659D01*
X127968902Y-117964659D01*
X127953065Y-117943583D01*
X127823065Y-117803583D01*
X127808463Y-117790138D01*
X127668463Y-117680138D01*
X127655341Y-117671098D01*
X127505341Y-117581098D01*
X127480161Y-117569517D01*
X127300161Y-117509517D01*
X127273295Y-117503698D01*
X127083295Y-117483698D01*
X127065300Y-117483087D01*
X126795300Y-117493087D01*
X126763022Y-117498502D01*
X126533022Y-117568502D01*
X126503776Y-117581633D01*
X126323776Y-117691633D01*
X126317710Y-117695582D01*
X126187710Y-117785582D01*
X126170197Y-117800197D01*
X126090197Y-117880197D01*
X126080830Y-117890664D01*
X126000830Y-117990664D01*
X125991839Y-118003440D01*
X125911839Y-118133440D01*
X125908982Y-118138323D01*
X125858982Y-118228323D01*
X125847886Y-118255110D01*
X125787886Y-118465110D01*
X125783196Y-118492955D01*
X125773196Y-118672955D01*
X125773000Y-118680000D01*
X104242144Y-118680000D01*
X104748601Y-115473793D01*
X106226707Y-111451293D01*
X108468604Y-107775064D01*
X109512966Y-106499325D01*
X109590467Y-106467223D01*
X109650957Y-106443761D01*
X109658187Y-106439173D01*
X109666390Y-106435775D01*
X109666431Y-106433941D01*
X109797497Y-106350764D01*
X109923182Y-106231075D01*
X110023226Y-106089254D01*
X110033382Y-106066443D01*
X110035775Y-106066390D01*
X110063367Y-105999096D01*
X110074638Y-105973780D01*
X110090467Y-105967223D01*
X110150957Y-105943761D01*
X110158187Y-105939173D01*
X110166390Y-105935775D01*
X110166431Y-105933941D01*
X110297497Y-105850764D01*
X110423182Y-105731075D01*
X110523226Y-105589254D01*
X110533382Y-105566443D01*
X110535775Y-105566390D01*
X110563367Y-105499096D01*
X110574638Y-105473780D01*
X110590467Y-105467223D01*
X110650957Y-105443761D01*
X110658187Y-105439173D01*
X110666390Y-105435775D01*
X110666431Y-105433941D01*
X110797497Y-105350764D01*
X110923182Y-105231075D01*
X111023226Y-105089254D01*
X111033382Y-105066443D01*
X111035775Y-105066390D01*
X111048869Y-105034454D01*
X111090467Y-105017223D01*
X111150957Y-104993761D01*
X111158187Y-104989173D01*
X111166390Y-104985775D01*
X111166431Y-104983941D01*
X111297497Y-104900764D01*
X111423182Y-104781075D01*
X111523226Y-104639254D01*
X111533382Y-104616443D01*
X111535775Y-104616390D01*
X111548869Y-104584454D01*
X111590467Y-104567223D01*
X111650957Y-104543761D01*
X111658187Y-104539173D01*
X111666390Y-104535775D01*
X111666431Y-104533941D01*
X111797497Y-104450764D01*
X111923182Y-104331075D01*
X112023226Y-104189254D01*
X112033382Y-104166443D01*
X112035775Y-104166390D01*
X112039948Y-104156212D01*
X112049921Y-104152344D01*
X112061195Y-104150059D01*
X112140467Y-104117223D01*
X112200957Y-104093761D01*
X112208187Y-104089173D01*
X112216390Y-104085775D01*
X112216431Y-104083941D01*
X112347497Y-104000764D01*
X112473182Y-103881075D01*
X112573226Y-103739254D01*
X112583382Y-103716443D01*
X112585775Y-103716390D01*
X112613367Y-103649096D01*
X112634059Y-103602621D01*
X116161294Y-101378768D01*
X120159787Y-99841437D01*
X124380734Y-99110028D01*
X128663353Y-99212401D01*
X128663353Y-99212401D01*
G37*
X128663353Y-99212401D02*
X132844531Y-100144659D01*
X136771819Y-101874290D01*
X139481121Y-103686469D01*
X139485980Y-103698200D01*
X139509058Y-103756489D01*
X139512041Y-103761118D01*
X139514225Y-103766390D01*
X139515456Y-103766417D01*
X139603076Y-103902376D01*
X139723639Y-104027222D01*
X139866155Y-104126274D01*
X139883568Y-104133882D01*
X139883610Y-104135775D01*
X139953405Y-104164392D01*
X140000545Y-104184987D01*
X140009058Y-104206489D01*
X140012041Y-104211118D01*
X140014225Y-104216390D01*
X140015456Y-104216417D01*
X140103076Y-104352376D01*
X140223639Y-104477222D01*
X140366155Y-104576274D01*
X140383568Y-104583882D01*
X140383610Y-104585775D01*
X140453405Y-104614392D01*
X140525197Y-104645757D01*
X140535341Y-104647987D01*
X140544908Y-104651910D01*
X140558278Y-104654520D01*
X140559058Y-104656489D01*
X140562041Y-104661118D01*
X140564225Y-104666390D01*
X140565456Y-104666417D01*
X140653076Y-104802376D01*
X140773639Y-104927222D01*
X140916155Y-105026274D01*
X140933568Y-105033882D01*
X140933610Y-105035775D01*
X141003405Y-105064392D01*
X141026079Y-105074298D01*
X141035980Y-105098200D01*
X141059058Y-105156489D01*
X141062041Y-105161118D01*
X141064225Y-105166390D01*
X141065456Y-105166417D01*
X141153076Y-105302376D01*
X141273639Y-105427222D01*
X141416155Y-105526274D01*
X141433568Y-105533882D01*
X141433610Y-105535775D01*
X141503405Y-105564392D01*
X141526079Y-105574298D01*
X141535980Y-105598200D01*
X141559058Y-105656489D01*
X141562041Y-105661118D01*
X141564225Y-105666390D01*
X141565456Y-105666417D01*
X141653076Y-105802376D01*
X141773639Y-105927222D01*
X141916155Y-106026274D01*
X141933568Y-106033882D01*
X141933610Y-106035775D01*
X142003405Y-106064392D01*
X142026079Y-106074298D01*
X142035980Y-106098200D01*
X142059058Y-106156489D01*
X142062041Y-106161118D01*
X142064225Y-106166390D01*
X142065456Y-106166417D01*
X142153076Y-106302376D01*
X142273639Y-106427222D01*
X142416155Y-106526274D01*
X142433568Y-106533882D01*
X142433610Y-106535775D01*
X142503405Y-106564392D01*
X142544810Y-106582481D01*
X144973323Y-109946768D01*
X146758897Y-113842548D01*
X147753770Y-118010952D01*
X147920050Y-122293202D01*
X147251399Y-126526207D01*
X145773293Y-130548708D01*
X143531397Y-134224936D01*
X142497749Y-135487584D01*
X142448919Y-135496899D01*
X142443991Y-135498890D01*
X142438805Y-135499941D01*
X142336295Y-135542402D01*
X142287999Y-135561915D01*
X142285950Y-135563256D01*
X142283610Y-135564225D01*
X142283597Y-135564795D01*
X142142773Y-135656949D01*
X142018770Y-135778381D01*
X141920716Y-135921585D01*
X141915575Y-135933580D01*
X141914225Y-135933610D01*
X141884716Y-136005580D01*
X141865298Y-136050885D01*
X141837999Y-136061915D01*
X141835950Y-136063256D01*
X141833610Y-136064225D01*
X141833597Y-136064795D01*
X141692773Y-136156949D01*
X141568770Y-136278381D01*
X141470716Y-136421585D01*
X141465575Y-136433580D01*
X141464225Y-136433610D01*
X141440902Y-136490494D01*
X141436295Y-136492402D01*
X141387999Y-136511915D01*
X141385950Y-136513256D01*
X141383610Y-136514225D01*
X141383597Y-136514795D01*
X141242773Y-136606949D01*
X141118770Y-136728381D01*
X141020716Y-136871585D01*
X141015575Y-136883580D01*
X141014225Y-136883610D01*
X140986665Y-136950828D01*
X140886295Y-136992402D01*
X140837999Y-137011915D01*
X140835950Y-137013256D01*
X140833610Y-137014225D01*
X140833597Y-137014795D01*
X140692773Y-137106949D01*
X140568770Y-137228381D01*
X140470716Y-137371585D01*
X140465575Y-137383580D01*
X140464225Y-137383610D01*
X140459613Y-137394859D01*
X140448919Y-137396899D01*
X140443991Y-137398890D01*
X140438805Y-137399941D01*
X140336295Y-137442402D01*
X140287999Y-137461915D01*
X140285950Y-137463256D01*
X140283610Y-137464225D01*
X140283597Y-137464795D01*
X140142773Y-137556949D01*
X140018770Y-137678381D01*
X139920716Y-137821585D01*
X139915575Y-137833580D01*
X139914225Y-137833610D01*
X139901131Y-137865546D01*
X139836295Y-137892402D01*
X139787999Y-137911915D01*
X139785950Y-137913256D01*
X139783610Y-137914225D01*
X139783597Y-137914795D01*
X139642773Y-138006949D01*
X139518770Y-138128381D01*
X139420716Y-138271585D01*
X139415575Y-138283580D01*
X139414225Y-138283610D01*
X139384716Y-138355580D01*
X139352345Y-138431108D01*
X139350834Y-138438214D01*
X139348090Y-138444908D01*
X139341829Y-138476985D01*
X135934589Y-140641770D01*
X131930280Y-142197334D01*
X127700089Y-142945498D01*
X123405137Y-142857765D01*
X119209029Y-141937477D01*
X115265897Y-140217204D01*
X112507060Y-138371920D01*
X112501327Y-138342969D01*
X112500493Y-138340944D01*
X112500059Y-138338805D01*
X112435775Y-138183610D01*
X112435642Y-138183607D01*
X112435189Y-138182507D01*
X112339144Y-138037948D01*
X112216850Y-137914796D01*
X112072964Y-137817744D01*
X112066407Y-137814988D01*
X112066390Y-137814225D01*
X111993341Y-137784274D01*
X111949048Y-137765655D01*
X111935775Y-137733610D01*
X111935642Y-137733607D01*
X111935189Y-137732507D01*
X111839144Y-137587948D01*
X111716850Y-137464796D01*
X111572964Y-137367744D01*
X111566407Y-137364988D01*
X111566390Y-137364225D01*
X111493341Y-137334274D01*
X111412968Y-137300488D01*
X111408908Y-137299655D01*
X111405092Y-137298090D01*
X111390601Y-137295262D01*
X111385775Y-137283610D01*
X111385642Y-137283607D01*
X111385189Y-137282507D01*
X111289144Y-137137948D01*
X111166850Y-137014796D01*
X111022964Y-136917744D01*
X111016407Y-136914988D01*
X111016390Y-136914225D01*
X110943341Y-136884274D01*
X110924126Y-136876196D01*
X110885775Y-136783610D01*
X110885642Y-136783607D01*
X110885189Y-136782507D01*
X110789144Y-136637948D01*
X110666850Y-136514796D01*
X110522964Y-136417744D01*
X110516407Y-136414988D01*
X110516390Y-136414225D01*
X110443341Y-136384274D01*
X110424126Y-136376196D01*
X110385775Y-136283610D01*
X110385642Y-136283607D01*
X110385189Y-136282507D01*
X110289144Y-136137948D01*
X110166850Y-136014796D01*
X110022964Y-135917744D01*
X110016407Y-135914988D01*
X110016390Y-135914225D01*
X109943341Y-135884274D01*
X109924126Y-135876196D01*
X109885775Y-135783610D01*
X109885642Y-135783607D01*
X109885189Y-135782507D01*
X109789144Y-135637948D01*
X109666850Y-135514796D01*
X109522964Y-135417744D01*
X109516407Y-135414988D01*
X109516390Y-135414225D01*
X109443341Y-135384274D01*
X109425900Y-135376942D01*
X107026674Y-132053228D01*
X105241103Y-128157452D01*
X104246230Y-123989048D01*
X104079950Y-119706799D01*
X104242144Y-118680000D01*
X125773000Y-118680000D01*
X125773000Y-118780000D01*
X125774728Y-118800879D01*
X125784482Y-118859403D01*
X125794276Y-118927961D01*
X125796024Y-118937550D01*
X125816024Y-119027550D01*
X125819517Y-119040161D01*
X125849517Y-119130161D01*
X125853269Y-119140028D01*
X125883269Y-119210028D01*
X125883946Y-119211580D01*
X125923946Y-119301580D01*
X125938400Y-119326200D01*
X125996288Y-119403384D01*
X126034330Y-119460447D01*
X126050197Y-119479803D01*
X126230197Y-119659803D01*
X126249553Y-119675670D01*
X126339553Y-119735670D01*
X126348323Y-119741018D01*
X126438323Y-119791018D01*
X126443204Y-119793592D01*
X126523204Y-119833592D01*
X126535407Y-119838914D01*
X126615407Y-119868914D01*
X126632450Y-119873976D01*
X126722450Y-119893976D01*
X126725093Y-119894534D01*
X126825093Y-119914534D01*
X126832039Y-119915724D01*
X126902039Y-119925724D01*
X126920000Y-119927000D01*
X127090000Y-119927000D01*
X127104025Y-119926223D01*
X127194025Y-119916223D01*
X127210802Y-119913208D01*
X127290802Y-119893208D01*
X127296493Y-119891644D01*
X127396493Y-119861644D01*
X127413220Y-119855311D01*
X127543220Y-119795311D01*
X127546796Y-119793592D01*
X127666796Y-119733592D01*
X127692035Y-119716950D01*
X127822035Y-119606950D01*
X127829803Y-119599803D01*
X127929803Y-119499803D01*
X127943344Y-119483817D01*
X128043344Y-119343817D01*
X128051820Y-119330211D01*
X128121820Y-119200211D01*
X128130483Y-119180161D01*
X128190483Y-119000161D01*
X128196223Y-118974025D01*
X128216223Y-118794025D01*
X128216781Y-118772542D01*
X128206781Y-118602542D01*
X128206753Y-118602078D01*
X128196753Y-118442078D01*
X128189601Y-118407285D01*
X128139601Y-118267285D01*
X128131820Y-118249789D01*
X128061820Y-118119789D01*
X128058902Y-118114659D01*
X127968902Y-117964659D01*
X127953065Y-117943583D01*
X127823065Y-117803583D01*
X127808463Y-117790138D01*
X127668463Y-117680138D01*
X127655341Y-117671098D01*
X127505341Y-117581098D01*
X127480161Y-117569517D01*
X127300161Y-117509517D01*
X127273295Y-117503698D01*
X127083295Y-117483698D01*
X127065300Y-117483087D01*
X126795300Y-117493087D01*
X126763022Y-117498502D01*
X126533022Y-117568502D01*
X126503776Y-117581633D01*
X126323776Y-117691633D01*
X126317710Y-117695582D01*
X126187710Y-117785582D01*
X126170197Y-117800197D01*
X126090197Y-117880197D01*
X126080830Y-117890664D01*
X126000830Y-117990664D01*
X125991839Y-118003440D01*
X125911839Y-118133440D01*
X125908982Y-118138323D01*
X125858982Y-118228323D01*
X125847886Y-118255110D01*
X125787886Y-118465110D01*
X125783196Y-118492955D01*
X125773196Y-118672955D01*
X125773000Y-118680000D01*
X104242144Y-118680000D01*
X104748601Y-115473793D01*
X106226707Y-111451293D01*
X108468604Y-107775064D01*
X109512966Y-106499325D01*
X109590467Y-106467223D01*
X109650957Y-106443761D01*
X109658187Y-106439173D01*
X109666390Y-106435775D01*
X109666431Y-106433941D01*
X109797497Y-106350764D01*
X109923182Y-106231075D01*
X110023226Y-106089254D01*
X110033382Y-106066443D01*
X110035775Y-106066390D01*
X110063367Y-105999096D01*
X110074638Y-105973780D01*
X110090467Y-105967223D01*
X110150957Y-105943761D01*
X110158187Y-105939173D01*
X110166390Y-105935775D01*
X110166431Y-105933941D01*
X110297497Y-105850764D01*
X110423182Y-105731075D01*
X110523226Y-105589254D01*
X110533382Y-105566443D01*
X110535775Y-105566390D01*
X110563367Y-105499096D01*
X110574638Y-105473780D01*
X110590467Y-105467223D01*
X110650957Y-105443761D01*
X110658187Y-105439173D01*
X110666390Y-105435775D01*
X110666431Y-105433941D01*
X110797497Y-105350764D01*
X110923182Y-105231075D01*
X111023226Y-105089254D01*
X111033382Y-105066443D01*
X111035775Y-105066390D01*
X111048869Y-105034454D01*
X111090467Y-105017223D01*
X111150957Y-104993761D01*
X111158187Y-104989173D01*
X111166390Y-104985775D01*
X111166431Y-104983941D01*
X111297497Y-104900764D01*
X111423182Y-104781075D01*
X111523226Y-104639254D01*
X111533382Y-104616443D01*
X111535775Y-104616390D01*
X111548869Y-104584454D01*
X111590467Y-104567223D01*
X111650957Y-104543761D01*
X111658187Y-104539173D01*
X111666390Y-104535775D01*
X111666431Y-104533941D01*
X111797497Y-104450764D01*
X111923182Y-104331075D01*
X112023226Y-104189254D01*
X112033382Y-104166443D01*
X112035775Y-104166390D01*
X112039948Y-104156212D01*
X112049921Y-104152344D01*
X112061195Y-104150059D01*
X112140467Y-104117223D01*
X112200957Y-104093761D01*
X112208187Y-104089173D01*
X112216390Y-104085775D01*
X112216431Y-104083941D01*
X112347497Y-104000764D01*
X112473182Y-103881075D01*
X112573226Y-103739254D01*
X112583382Y-103716443D01*
X112585775Y-103716390D01*
X112613367Y-103649096D01*
X112634059Y-103602621D01*
X116161294Y-101378768D01*
X120159787Y-99841437D01*
X124380734Y-99110028D01*
X128663353Y-99212401D01*
G36*
X77663353Y-99212401D02*
X81844531Y-100144659D01*
X85771819Y-101874290D01*
X88481121Y-103686469D01*
X88485980Y-103698200D01*
X88509058Y-103756489D01*
X88512041Y-103761118D01*
X88514225Y-103766390D01*
X88515456Y-103766417D01*
X88603076Y-103902376D01*
X88723639Y-104027222D01*
X88866155Y-104126274D01*
X88883568Y-104133882D01*
X88883610Y-104135775D01*
X88953405Y-104164392D01*
X89000545Y-104184987D01*
X89009058Y-104206489D01*
X89012041Y-104211118D01*
X89014225Y-104216390D01*
X89015456Y-104216417D01*
X89103076Y-104352376D01*
X89223639Y-104477222D01*
X89366155Y-104576274D01*
X89383568Y-104583882D01*
X89383610Y-104585775D01*
X89453405Y-104614392D01*
X89525197Y-104645757D01*
X89535341Y-104647987D01*
X89544908Y-104651910D01*
X89558278Y-104654520D01*
X89559058Y-104656489D01*
X89562041Y-104661118D01*
X89564225Y-104666390D01*
X89565456Y-104666417D01*
X89653076Y-104802376D01*
X89773639Y-104927222D01*
X89916155Y-105026274D01*
X89933568Y-105033882D01*
X89933610Y-105035775D01*
X90003405Y-105064392D01*
X90026079Y-105074298D01*
X90035980Y-105098200D01*
X90059058Y-105156489D01*
X90062041Y-105161118D01*
X90064225Y-105166390D01*
X90065456Y-105166417D01*
X90153076Y-105302376D01*
X90273639Y-105427222D01*
X90416155Y-105526274D01*
X90433568Y-105533882D01*
X90433610Y-105535775D01*
X90503405Y-105564392D01*
X90526079Y-105574298D01*
X90535980Y-105598200D01*
X90559058Y-105656489D01*
X90562041Y-105661118D01*
X90564225Y-105666390D01*
X90565456Y-105666417D01*
X90653076Y-105802376D01*
X90773639Y-105927222D01*
X90916155Y-106026274D01*
X90933568Y-106033882D01*
X90933610Y-106035775D01*
X91003405Y-106064392D01*
X91026079Y-106074298D01*
X91035980Y-106098200D01*
X91059058Y-106156489D01*
X91062041Y-106161118D01*
X91064225Y-106166390D01*
X91065456Y-106166417D01*
X91153076Y-106302376D01*
X91273639Y-106427222D01*
X91416155Y-106526274D01*
X91433568Y-106533882D01*
X91433610Y-106535775D01*
X91503405Y-106564392D01*
X91544810Y-106582481D01*
X93973323Y-109946768D01*
X95758897Y-113842548D01*
X96753770Y-118010952D01*
X96920050Y-122293202D01*
X96251399Y-126526207D01*
X94773293Y-130548708D01*
X92531397Y-134224936D01*
X91497749Y-135487584D01*
X91448919Y-135496899D01*
X91443991Y-135498890D01*
X91438805Y-135499941D01*
X91336295Y-135542402D01*
X91287999Y-135561915D01*
X91285950Y-135563256D01*
X91283610Y-135564225D01*
X91283597Y-135564795D01*
X91142773Y-135656949D01*
X91018770Y-135778381D01*
X90920716Y-135921585D01*
X90915575Y-135933580D01*
X90914225Y-135933610D01*
X90884716Y-136005580D01*
X90865298Y-136050885D01*
X90837999Y-136061915D01*
X90835950Y-136063256D01*
X90833610Y-136064225D01*
X90833597Y-136064795D01*
X90692773Y-136156949D01*
X90568770Y-136278381D01*
X90470716Y-136421585D01*
X90465575Y-136433580D01*
X90464225Y-136433610D01*
X90440902Y-136490494D01*
X90436295Y-136492402D01*
X90387999Y-136511915D01*
X90385950Y-136513256D01*
X90383610Y-136514225D01*
X90383597Y-136514795D01*
X90242773Y-136606949D01*
X90118770Y-136728381D01*
X90020716Y-136871585D01*
X90015575Y-136883580D01*
X90014225Y-136883610D01*
X89986665Y-136950828D01*
X89886295Y-136992402D01*
X89837999Y-137011915D01*
X89835950Y-137013256D01*
X89833610Y-137014225D01*
X89833597Y-137014795D01*
X89692773Y-137106949D01*
X89568770Y-137228381D01*
X89470716Y-137371585D01*
X89465575Y-137383580D01*
X89464225Y-137383610D01*
X89459613Y-137394859D01*
X89448919Y-137396899D01*
X89443991Y-137398890D01*
X89438805Y-137399941D01*
X89336295Y-137442402D01*
X89287999Y-137461915D01*
X89285950Y-137463256D01*
X89283610Y-137464225D01*
X89283597Y-137464795D01*
X89142773Y-137556949D01*
X89018770Y-137678381D01*
X88920716Y-137821585D01*
X88915575Y-137833580D01*
X88914225Y-137833610D01*
X88901131Y-137865546D01*
X88836295Y-137892402D01*
X88787999Y-137911915D01*
X88785950Y-137913256D01*
X88783610Y-137914225D01*
X88783597Y-137914795D01*
X88642773Y-138006949D01*
X88518770Y-138128381D01*
X88420716Y-138271585D01*
X88415575Y-138283580D01*
X88414225Y-138283610D01*
X88384716Y-138355580D01*
X88352345Y-138431108D01*
X88350834Y-138438214D01*
X88348090Y-138444908D01*
X88341829Y-138476985D01*
X84934589Y-140641770D01*
X80930280Y-142197334D01*
X76700089Y-142945498D01*
X72405137Y-142857765D01*
X68209029Y-141937477D01*
X64265897Y-140217204D01*
X61507060Y-138371920D01*
X61501327Y-138342969D01*
X61500493Y-138340944D01*
X61500059Y-138338805D01*
X61435775Y-138183610D01*
X61435642Y-138183607D01*
X61435189Y-138182507D01*
X61339144Y-138037948D01*
X61216850Y-137914796D01*
X61072964Y-137817744D01*
X61066407Y-137814988D01*
X61066390Y-137814225D01*
X60993341Y-137784274D01*
X60949048Y-137765655D01*
X60935775Y-137733610D01*
X60935642Y-137733607D01*
X60935189Y-137732507D01*
X60839144Y-137587948D01*
X60716850Y-137464796D01*
X60572964Y-137367744D01*
X60566407Y-137364988D01*
X60566390Y-137364225D01*
X60493341Y-137334274D01*
X60412968Y-137300488D01*
X60408908Y-137299655D01*
X60405092Y-137298090D01*
X60390601Y-137295262D01*
X60385775Y-137283610D01*
X60385642Y-137283607D01*
X60385189Y-137282507D01*
X60289144Y-137137948D01*
X60166850Y-137014796D01*
X60022964Y-136917744D01*
X60016407Y-136914988D01*
X60016390Y-136914225D01*
X59943341Y-136884274D01*
X59924126Y-136876196D01*
X59885775Y-136783610D01*
X59885642Y-136783607D01*
X59885189Y-136782507D01*
X59789144Y-136637948D01*
X59666850Y-136514796D01*
X59522964Y-136417744D01*
X59516407Y-136414988D01*
X59516390Y-136414225D01*
X59443341Y-136384274D01*
X59424126Y-136376196D01*
X59385775Y-136283610D01*
X59385642Y-136283607D01*
X59385189Y-136282507D01*
X59289144Y-136137948D01*
X59166850Y-136014796D01*
X59022964Y-135917744D01*
X59016407Y-135914988D01*
X59016390Y-135914225D01*
X58943341Y-135884274D01*
X58924126Y-135876196D01*
X58885775Y-135783610D01*
X58885642Y-135783607D01*
X58885189Y-135782507D01*
X58789144Y-135637948D01*
X58666850Y-135514796D01*
X58522964Y-135417744D01*
X58516407Y-135414988D01*
X58516390Y-135414225D01*
X58443341Y-135384274D01*
X58425900Y-135376942D01*
X56026674Y-132053228D01*
X54241103Y-128157452D01*
X53246230Y-123989048D01*
X53079950Y-119706799D01*
X53748601Y-115473793D01*
X55226707Y-111451293D01*
X57468604Y-107775064D01*
X58512966Y-106499325D01*
X58590467Y-106467223D01*
X58650957Y-106443761D01*
X58658187Y-106439173D01*
X58666390Y-106435775D01*
X58666431Y-106433941D01*
X58797497Y-106350764D01*
X58923182Y-106231075D01*
X59023226Y-106089254D01*
X59033382Y-106066443D01*
X59035775Y-106066390D01*
X59063367Y-105999096D01*
X59074638Y-105973780D01*
X59090467Y-105967223D01*
X59150957Y-105943761D01*
X59158187Y-105939173D01*
X59166390Y-105935775D01*
X59166431Y-105933941D01*
X59297497Y-105850764D01*
X59423182Y-105731075D01*
X59523226Y-105589254D01*
X59533382Y-105566443D01*
X59535775Y-105566390D01*
X59563367Y-105499096D01*
X59574638Y-105473780D01*
X59590467Y-105467223D01*
X59650957Y-105443761D01*
X59658187Y-105439173D01*
X59666390Y-105435775D01*
X59666431Y-105433941D01*
X59797497Y-105350764D01*
X59923182Y-105231075D01*
X60023226Y-105089254D01*
X60033382Y-105066443D01*
X60035775Y-105066390D01*
X60048869Y-105034454D01*
X60090467Y-105017223D01*
X60150957Y-104993761D01*
X60158187Y-104989173D01*
X60166390Y-104985775D01*
X60166431Y-104983941D01*
X60297497Y-104900764D01*
X60423182Y-104781075D01*
X60523226Y-104639254D01*
X60533382Y-104616443D01*
X60535775Y-104616390D01*
X60548869Y-104584454D01*
X60590467Y-104567223D01*
X60650957Y-104543761D01*
X60658187Y-104539173D01*
X60666390Y-104535775D01*
X60666431Y-104533941D01*
X60797497Y-104450764D01*
X60923182Y-104331075D01*
X61023226Y-104189254D01*
X61033382Y-104166443D01*
X61035775Y-104166390D01*
X61039948Y-104156212D01*
X61049921Y-104152344D01*
X61061195Y-104150059D01*
X61140467Y-104117223D01*
X61200957Y-104093761D01*
X61208187Y-104089173D01*
X61216390Y-104085775D01*
X61216431Y-104083941D01*
X61347497Y-104000764D01*
X61473182Y-103881075D01*
X61573226Y-103739254D01*
X61583382Y-103716443D01*
X61585775Y-103716390D01*
X61613367Y-103649096D01*
X61634059Y-103602621D01*
X65161294Y-101378768D01*
X69159787Y-99841437D01*
X73380734Y-99110028D01*
X77663353Y-99212401D01*
X77663353Y-99212401D01*
G37*
X77663353Y-99212401D02*
X81844531Y-100144659D01*
X85771819Y-101874290D01*
X88481121Y-103686469D01*
X88485980Y-103698200D01*
X88509058Y-103756489D01*
X88512041Y-103761118D01*
X88514225Y-103766390D01*
X88515456Y-103766417D01*
X88603076Y-103902376D01*
X88723639Y-104027222D01*
X88866155Y-104126274D01*
X88883568Y-104133882D01*
X88883610Y-104135775D01*
X88953405Y-104164392D01*
X89000545Y-104184987D01*
X89009058Y-104206489D01*
X89012041Y-104211118D01*
X89014225Y-104216390D01*
X89015456Y-104216417D01*
X89103076Y-104352376D01*
X89223639Y-104477222D01*
X89366155Y-104576274D01*
X89383568Y-104583882D01*
X89383610Y-104585775D01*
X89453405Y-104614392D01*
X89525197Y-104645757D01*
X89535341Y-104647987D01*
X89544908Y-104651910D01*
X89558278Y-104654520D01*
X89559058Y-104656489D01*
X89562041Y-104661118D01*
X89564225Y-104666390D01*
X89565456Y-104666417D01*
X89653076Y-104802376D01*
X89773639Y-104927222D01*
X89916155Y-105026274D01*
X89933568Y-105033882D01*
X89933610Y-105035775D01*
X90003405Y-105064392D01*
X90026079Y-105074298D01*
X90035980Y-105098200D01*
X90059058Y-105156489D01*
X90062041Y-105161118D01*
X90064225Y-105166390D01*
X90065456Y-105166417D01*
X90153076Y-105302376D01*
X90273639Y-105427222D01*
X90416155Y-105526274D01*
X90433568Y-105533882D01*
X90433610Y-105535775D01*
X90503405Y-105564392D01*
X90526079Y-105574298D01*
X90535980Y-105598200D01*
X90559058Y-105656489D01*
X90562041Y-105661118D01*
X90564225Y-105666390D01*
X90565456Y-105666417D01*
X90653076Y-105802376D01*
X90773639Y-105927222D01*
X90916155Y-106026274D01*
X90933568Y-106033882D01*
X90933610Y-106035775D01*
X91003405Y-106064392D01*
X91026079Y-106074298D01*
X91035980Y-106098200D01*
X91059058Y-106156489D01*
X91062041Y-106161118D01*
X91064225Y-106166390D01*
X91065456Y-106166417D01*
X91153076Y-106302376D01*
X91273639Y-106427222D01*
X91416155Y-106526274D01*
X91433568Y-106533882D01*
X91433610Y-106535775D01*
X91503405Y-106564392D01*
X91544810Y-106582481D01*
X93973323Y-109946768D01*
X95758897Y-113842548D01*
X96753770Y-118010952D01*
X96920050Y-122293202D01*
X96251399Y-126526207D01*
X94773293Y-130548708D01*
X92531397Y-134224936D01*
X91497749Y-135487584D01*
X91448919Y-135496899D01*
X91443991Y-135498890D01*
X91438805Y-135499941D01*
X91336295Y-135542402D01*
X91287999Y-135561915D01*
X91285950Y-135563256D01*
X91283610Y-135564225D01*
X91283597Y-135564795D01*
X91142773Y-135656949D01*
X91018770Y-135778381D01*
X90920716Y-135921585D01*
X90915575Y-135933580D01*
X90914225Y-135933610D01*
X90884716Y-136005580D01*
X90865298Y-136050885D01*
X90837999Y-136061915D01*
X90835950Y-136063256D01*
X90833610Y-136064225D01*
X90833597Y-136064795D01*
X90692773Y-136156949D01*
X90568770Y-136278381D01*
X90470716Y-136421585D01*
X90465575Y-136433580D01*
X90464225Y-136433610D01*
X90440902Y-136490494D01*
X90436295Y-136492402D01*
X90387999Y-136511915D01*
X90385950Y-136513256D01*
X90383610Y-136514225D01*
X90383597Y-136514795D01*
X90242773Y-136606949D01*
X90118770Y-136728381D01*
X90020716Y-136871585D01*
X90015575Y-136883580D01*
X90014225Y-136883610D01*
X89986665Y-136950828D01*
X89886295Y-136992402D01*
X89837999Y-137011915D01*
X89835950Y-137013256D01*
X89833610Y-137014225D01*
X89833597Y-137014795D01*
X89692773Y-137106949D01*
X89568770Y-137228381D01*
X89470716Y-137371585D01*
X89465575Y-137383580D01*
X89464225Y-137383610D01*
X89459613Y-137394859D01*
X89448919Y-137396899D01*
X89443991Y-137398890D01*
X89438805Y-137399941D01*
X89336295Y-137442402D01*
X89287999Y-137461915D01*
X89285950Y-137463256D01*
X89283610Y-137464225D01*
X89283597Y-137464795D01*
X89142773Y-137556949D01*
X89018770Y-137678381D01*
X88920716Y-137821585D01*
X88915575Y-137833580D01*
X88914225Y-137833610D01*
X88901131Y-137865546D01*
X88836295Y-137892402D01*
X88787999Y-137911915D01*
X88785950Y-137913256D01*
X88783610Y-137914225D01*
X88783597Y-137914795D01*
X88642773Y-138006949D01*
X88518770Y-138128381D01*
X88420716Y-138271585D01*
X88415575Y-138283580D01*
X88414225Y-138283610D01*
X88384716Y-138355580D01*
X88352345Y-138431108D01*
X88350834Y-138438214D01*
X88348090Y-138444908D01*
X88341829Y-138476985D01*
X84934589Y-140641770D01*
X80930280Y-142197334D01*
X76700089Y-142945498D01*
X72405137Y-142857765D01*
X68209029Y-141937477D01*
X64265897Y-140217204D01*
X61507060Y-138371920D01*
X61501327Y-138342969D01*
X61500493Y-138340944D01*
X61500059Y-138338805D01*
X61435775Y-138183610D01*
X61435642Y-138183607D01*
X61435189Y-138182507D01*
X61339144Y-138037948D01*
X61216850Y-137914796D01*
X61072964Y-137817744D01*
X61066407Y-137814988D01*
X61066390Y-137814225D01*
X60993341Y-137784274D01*
X60949048Y-137765655D01*
X60935775Y-137733610D01*
X60935642Y-137733607D01*
X60935189Y-137732507D01*
X60839144Y-137587948D01*
X60716850Y-137464796D01*
X60572964Y-137367744D01*
X60566407Y-137364988D01*
X60566390Y-137364225D01*
X60493341Y-137334274D01*
X60412968Y-137300488D01*
X60408908Y-137299655D01*
X60405092Y-137298090D01*
X60390601Y-137295262D01*
X60385775Y-137283610D01*
X60385642Y-137283607D01*
X60385189Y-137282507D01*
X60289144Y-137137948D01*
X60166850Y-137014796D01*
X60022964Y-136917744D01*
X60016407Y-136914988D01*
X60016390Y-136914225D01*
X59943341Y-136884274D01*
X59924126Y-136876196D01*
X59885775Y-136783610D01*
X59885642Y-136783607D01*
X59885189Y-136782507D01*
X59789144Y-136637948D01*
X59666850Y-136514796D01*
X59522964Y-136417744D01*
X59516407Y-136414988D01*
X59516390Y-136414225D01*
X59443341Y-136384274D01*
X59424126Y-136376196D01*
X59385775Y-136283610D01*
X59385642Y-136283607D01*
X59385189Y-136282507D01*
X59289144Y-136137948D01*
X59166850Y-136014796D01*
X59022964Y-135917744D01*
X59016407Y-135914988D01*
X59016390Y-135914225D01*
X58943341Y-135884274D01*
X58924126Y-135876196D01*
X58885775Y-135783610D01*
X58885642Y-135783607D01*
X58885189Y-135782507D01*
X58789144Y-135637948D01*
X58666850Y-135514796D01*
X58522964Y-135417744D01*
X58516407Y-135414988D01*
X58516390Y-135414225D01*
X58443341Y-135384274D01*
X58425900Y-135376942D01*
X56026674Y-132053228D01*
X54241103Y-128157452D01*
X53246230Y-123989048D01*
X53079950Y-119706799D01*
X53748601Y-115473793D01*
X55226707Y-111451293D01*
X57468604Y-107775064D01*
X58512966Y-106499325D01*
X58590467Y-106467223D01*
X58650957Y-106443761D01*
X58658187Y-106439173D01*
X58666390Y-106435775D01*
X58666431Y-106433941D01*
X58797497Y-106350764D01*
X58923182Y-106231075D01*
X59023226Y-106089254D01*
X59033382Y-106066443D01*
X59035775Y-106066390D01*
X59063367Y-105999096D01*
X59074638Y-105973780D01*
X59090467Y-105967223D01*
X59150957Y-105943761D01*
X59158187Y-105939173D01*
X59166390Y-105935775D01*
X59166431Y-105933941D01*
X59297497Y-105850764D01*
X59423182Y-105731075D01*
X59523226Y-105589254D01*
X59533382Y-105566443D01*
X59535775Y-105566390D01*
X59563367Y-105499096D01*
X59574638Y-105473780D01*
X59590467Y-105467223D01*
X59650957Y-105443761D01*
X59658187Y-105439173D01*
X59666390Y-105435775D01*
X59666431Y-105433941D01*
X59797497Y-105350764D01*
X59923182Y-105231075D01*
X60023226Y-105089254D01*
X60033382Y-105066443D01*
X60035775Y-105066390D01*
X60048869Y-105034454D01*
X60090467Y-105017223D01*
X60150957Y-104993761D01*
X60158187Y-104989173D01*
X60166390Y-104985775D01*
X60166431Y-104983941D01*
X60297497Y-104900764D01*
X60423182Y-104781075D01*
X60523226Y-104639254D01*
X60533382Y-104616443D01*
X60535775Y-104616390D01*
X60548869Y-104584454D01*
X60590467Y-104567223D01*
X60650957Y-104543761D01*
X60658187Y-104539173D01*
X60666390Y-104535775D01*
X60666431Y-104533941D01*
X60797497Y-104450764D01*
X60923182Y-104331075D01*
X61023226Y-104189254D01*
X61033382Y-104166443D01*
X61035775Y-104166390D01*
X61039948Y-104156212D01*
X61049921Y-104152344D01*
X61061195Y-104150059D01*
X61140467Y-104117223D01*
X61200957Y-104093761D01*
X61208187Y-104089173D01*
X61216390Y-104085775D01*
X61216431Y-104083941D01*
X61347497Y-104000764D01*
X61473182Y-103881075D01*
X61573226Y-103739254D01*
X61583382Y-103716443D01*
X61585775Y-103716390D01*
X61613367Y-103649096D01*
X61634059Y-103602621D01*
X65161294Y-101378768D01*
X69159787Y-99841437D01*
X73380734Y-99110028D01*
X77663353Y-99212401D01*
G36*
X128663353Y-48212401D02*
X132844531Y-49144659D01*
X136771819Y-50874290D01*
X139481121Y-52686469D01*
X139485980Y-52698200D01*
X139509058Y-52756489D01*
X139512041Y-52761118D01*
X139514225Y-52766390D01*
X139515456Y-52766417D01*
X139603076Y-52902376D01*
X139723639Y-53027222D01*
X139866155Y-53126274D01*
X139883568Y-53133882D01*
X139883610Y-53135775D01*
X139953405Y-53164392D01*
X140000545Y-53184987D01*
X140009058Y-53206489D01*
X140012041Y-53211118D01*
X140014225Y-53216390D01*
X140015456Y-53216417D01*
X140103076Y-53352376D01*
X140223639Y-53477222D01*
X140366155Y-53576274D01*
X140383568Y-53583882D01*
X140383610Y-53585775D01*
X140453405Y-53614392D01*
X140525197Y-53645757D01*
X140535341Y-53647987D01*
X140544908Y-53651910D01*
X140558278Y-53654520D01*
X140559058Y-53656489D01*
X140562041Y-53661118D01*
X140564225Y-53666390D01*
X140565456Y-53666417D01*
X140653076Y-53802376D01*
X140773639Y-53927222D01*
X140916155Y-54026274D01*
X140933568Y-54033882D01*
X140933610Y-54035775D01*
X141003405Y-54064392D01*
X141026079Y-54074298D01*
X141035980Y-54098200D01*
X141059058Y-54156489D01*
X141062041Y-54161118D01*
X141064225Y-54166390D01*
X141065456Y-54166417D01*
X141153076Y-54302376D01*
X141273639Y-54427222D01*
X141416155Y-54526274D01*
X141433568Y-54533882D01*
X141433610Y-54535775D01*
X141503405Y-54564392D01*
X141526079Y-54574298D01*
X141535980Y-54598200D01*
X141559058Y-54656489D01*
X141562041Y-54661118D01*
X141564225Y-54666390D01*
X141565456Y-54666417D01*
X141653076Y-54802376D01*
X141773639Y-54927222D01*
X141916155Y-55026274D01*
X141933568Y-55033882D01*
X141933610Y-55035775D01*
X142003405Y-55064392D01*
X142026079Y-55074298D01*
X142035980Y-55098200D01*
X142059058Y-55156489D01*
X142062041Y-55161118D01*
X142064225Y-55166390D01*
X142065456Y-55166417D01*
X142153076Y-55302376D01*
X142273639Y-55427222D01*
X142416155Y-55526274D01*
X142433568Y-55533882D01*
X142433610Y-55535775D01*
X142503405Y-55564392D01*
X142544810Y-55582481D01*
X144973323Y-58946768D01*
X146758897Y-62842548D01*
X147753770Y-67010952D01*
X147920050Y-71293202D01*
X147251399Y-75526207D01*
X145773293Y-79548708D01*
X143531397Y-83224936D01*
X142497749Y-84487584D01*
X142448919Y-84496899D01*
X142443991Y-84498890D01*
X142438805Y-84499941D01*
X142336295Y-84542402D01*
X142287999Y-84561915D01*
X142285950Y-84563256D01*
X142283610Y-84564225D01*
X142283597Y-84564795D01*
X142142773Y-84656949D01*
X142018770Y-84778381D01*
X141920716Y-84921585D01*
X141915575Y-84933580D01*
X141914225Y-84933610D01*
X141884716Y-85005580D01*
X141865298Y-85050885D01*
X141837999Y-85061915D01*
X141835950Y-85063256D01*
X141833610Y-85064225D01*
X141833597Y-85064795D01*
X141692773Y-85156949D01*
X141568770Y-85278381D01*
X141470716Y-85421585D01*
X141465575Y-85433580D01*
X141464225Y-85433610D01*
X141440902Y-85490494D01*
X141436295Y-85492402D01*
X141387999Y-85511915D01*
X141385950Y-85513256D01*
X141383610Y-85514225D01*
X141383597Y-85514795D01*
X141242773Y-85606949D01*
X141118770Y-85728381D01*
X141020716Y-85871585D01*
X141015575Y-85883580D01*
X141014225Y-85883610D01*
X140986665Y-85950828D01*
X140886295Y-85992402D01*
X140837999Y-86011915D01*
X140835950Y-86013256D01*
X140833610Y-86014225D01*
X140833597Y-86014795D01*
X140692773Y-86106949D01*
X140568770Y-86228381D01*
X140470716Y-86371585D01*
X140465575Y-86383580D01*
X140464225Y-86383610D01*
X140459613Y-86394859D01*
X140448919Y-86396899D01*
X140443991Y-86398890D01*
X140438805Y-86399941D01*
X140336295Y-86442402D01*
X140287999Y-86461915D01*
X140285950Y-86463256D01*
X140283610Y-86464225D01*
X140283597Y-86464795D01*
X140142773Y-86556949D01*
X140018770Y-86678381D01*
X139920716Y-86821585D01*
X139915575Y-86833580D01*
X139914225Y-86833610D01*
X139901131Y-86865546D01*
X139836295Y-86892402D01*
X139787999Y-86911915D01*
X139785950Y-86913256D01*
X139783610Y-86914225D01*
X139783597Y-86914795D01*
X139642773Y-87006949D01*
X139518770Y-87128381D01*
X139420716Y-87271585D01*
X139415575Y-87283580D01*
X139414225Y-87283610D01*
X139384716Y-87355580D01*
X139352345Y-87431108D01*
X139350834Y-87438214D01*
X139348090Y-87444908D01*
X139341829Y-87476985D01*
X135934589Y-89641770D01*
X131930280Y-91197334D01*
X127700089Y-91945498D01*
X123405137Y-91857765D01*
X119209029Y-90937477D01*
X115265897Y-89217204D01*
X112507060Y-87371920D01*
X112501327Y-87342969D01*
X112500493Y-87340944D01*
X112500059Y-87338805D01*
X112435775Y-87183610D01*
X112435642Y-87183607D01*
X112435189Y-87182507D01*
X112339144Y-87037948D01*
X112216850Y-86914796D01*
X112072964Y-86817744D01*
X112066407Y-86814988D01*
X112066390Y-86814225D01*
X111993341Y-86784274D01*
X111949048Y-86765655D01*
X111935775Y-86733610D01*
X111935642Y-86733607D01*
X111935189Y-86732507D01*
X111839144Y-86587948D01*
X111716850Y-86464796D01*
X111572964Y-86367744D01*
X111566407Y-86364988D01*
X111566390Y-86364225D01*
X111493341Y-86334274D01*
X111412968Y-86300488D01*
X111408908Y-86299655D01*
X111405092Y-86298090D01*
X111390601Y-86295262D01*
X111385775Y-86283610D01*
X111385642Y-86283607D01*
X111385189Y-86282507D01*
X111289144Y-86137948D01*
X111166850Y-86014796D01*
X111022964Y-85917744D01*
X111016407Y-85914988D01*
X111016390Y-85914225D01*
X110943341Y-85884274D01*
X110924126Y-85876196D01*
X110885775Y-85783610D01*
X110885642Y-85783607D01*
X110885189Y-85782507D01*
X110789144Y-85637948D01*
X110666850Y-85514796D01*
X110522964Y-85417744D01*
X110516407Y-85414988D01*
X110516390Y-85414225D01*
X110443341Y-85384274D01*
X110424126Y-85376196D01*
X110385775Y-85283610D01*
X110385642Y-85283607D01*
X110385189Y-85282507D01*
X110289144Y-85137948D01*
X110166850Y-85014796D01*
X110022964Y-84917744D01*
X110016407Y-84914988D01*
X110016390Y-84914225D01*
X109943341Y-84884274D01*
X109924126Y-84876196D01*
X109885775Y-84783610D01*
X109885642Y-84783607D01*
X109885189Y-84782507D01*
X109789144Y-84637948D01*
X109666850Y-84514796D01*
X109522964Y-84417744D01*
X109516407Y-84414988D01*
X109516390Y-84414225D01*
X109443341Y-84384274D01*
X109425900Y-84376942D01*
X107026674Y-81053228D01*
X105241103Y-77157452D01*
X104246230Y-72989048D01*
X104079950Y-68706799D01*
X104748601Y-64473793D01*
X106226707Y-60451293D01*
X108468604Y-56775064D01*
X109512966Y-55499325D01*
X109590467Y-55467223D01*
X109650957Y-55443761D01*
X109658187Y-55439173D01*
X109666390Y-55435775D01*
X109666431Y-55433941D01*
X109797497Y-55350764D01*
X109923182Y-55231075D01*
X110023226Y-55089254D01*
X110033382Y-55066443D01*
X110035775Y-55066390D01*
X110063367Y-54999096D01*
X110074638Y-54973780D01*
X110090467Y-54967223D01*
X110150957Y-54943761D01*
X110158187Y-54939173D01*
X110166390Y-54935775D01*
X110166431Y-54933941D01*
X110297497Y-54850764D01*
X110423182Y-54731075D01*
X110523226Y-54589254D01*
X110533382Y-54566443D01*
X110535775Y-54566390D01*
X110563367Y-54499096D01*
X110574638Y-54473780D01*
X110590467Y-54467223D01*
X110650957Y-54443761D01*
X110658187Y-54439173D01*
X110666390Y-54435775D01*
X110666431Y-54433941D01*
X110797497Y-54350764D01*
X110923182Y-54231075D01*
X111023226Y-54089254D01*
X111033382Y-54066443D01*
X111035775Y-54066390D01*
X111048869Y-54034454D01*
X111090467Y-54017223D01*
X111150957Y-53993761D01*
X111158187Y-53989173D01*
X111166390Y-53985775D01*
X111166431Y-53983941D01*
X111297497Y-53900764D01*
X111423182Y-53781075D01*
X111523226Y-53639254D01*
X111533382Y-53616443D01*
X111535775Y-53616390D01*
X111548869Y-53584454D01*
X111590467Y-53567223D01*
X111650957Y-53543761D01*
X111658187Y-53539173D01*
X111666390Y-53535775D01*
X111666431Y-53533941D01*
X111797497Y-53450764D01*
X111923182Y-53331075D01*
X112023226Y-53189254D01*
X112033382Y-53166443D01*
X112035775Y-53166390D01*
X112039948Y-53156212D01*
X112049921Y-53152344D01*
X112061195Y-53150059D01*
X112140467Y-53117223D01*
X112200957Y-53093761D01*
X112208187Y-53089173D01*
X112216390Y-53085775D01*
X112216431Y-53083941D01*
X112347497Y-53000764D01*
X112473182Y-52881075D01*
X112573226Y-52739254D01*
X112583382Y-52716443D01*
X112585775Y-52716390D01*
X112613367Y-52649096D01*
X112634059Y-52602621D01*
X116161294Y-50378768D01*
X120159787Y-48841437D01*
X124380734Y-48110028D01*
X128663353Y-48212401D01*
X128663353Y-48212401D01*
G37*
X128663353Y-48212401D02*
X132844531Y-49144659D01*
X136771819Y-50874290D01*
X139481121Y-52686469D01*
X139485980Y-52698200D01*
X139509058Y-52756489D01*
X139512041Y-52761118D01*
X139514225Y-52766390D01*
X139515456Y-52766417D01*
X139603076Y-52902376D01*
X139723639Y-53027222D01*
X139866155Y-53126274D01*
X139883568Y-53133882D01*
X139883610Y-53135775D01*
X139953405Y-53164392D01*
X140000545Y-53184987D01*
X140009058Y-53206489D01*
X140012041Y-53211118D01*
X140014225Y-53216390D01*
X140015456Y-53216417D01*
X140103076Y-53352376D01*
X140223639Y-53477222D01*
X140366155Y-53576274D01*
X140383568Y-53583882D01*
X140383610Y-53585775D01*
X140453405Y-53614392D01*
X140525197Y-53645757D01*
X140535341Y-53647987D01*
X140544908Y-53651910D01*
X140558278Y-53654520D01*
X140559058Y-53656489D01*
X140562041Y-53661118D01*
X140564225Y-53666390D01*
X140565456Y-53666417D01*
X140653076Y-53802376D01*
X140773639Y-53927222D01*
X140916155Y-54026274D01*
X140933568Y-54033882D01*
X140933610Y-54035775D01*
X141003405Y-54064392D01*
X141026079Y-54074298D01*
X141035980Y-54098200D01*
X141059058Y-54156489D01*
X141062041Y-54161118D01*
X141064225Y-54166390D01*
X141065456Y-54166417D01*
X141153076Y-54302376D01*
X141273639Y-54427222D01*
X141416155Y-54526274D01*
X141433568Y-54533882D01*
X141433610Y-54535775D01*
X141503405Y-54564392D01*
X141526079Y-54574298D01*
X141535980Y-54598200D01*
X141559058Y-54656489D01*
X141562041Y-54661118D01*
X141564225Y-54666390D01*
X141565456Y-54666417D01*
X141653076Y-54802376D01*
X141773639Y-54927222D01*
X141916155Y-55026274D01*
X141933568Y-55033882D01*
X141933610Y-55035775D01*
X142003405Y-55064392D01*
X142026079Y-55074298D01*
X142035980Y-55098200D01*
X142059058Y-55156489D01*
X142062041Y-55161118D01*
X142064225Y-55166390D01*
X142065456Y-55166417D01*
X142153076Y-55302376D01*
X142273639Y-55427222D01*
X142416155Y-55526274D01*
X142433568Y-55533882D01*
X142433610Y-55535775D01*
X142503405Y-55564392D01*
X142544810Y-55582481D01*
X144973323Y-58946768D01*
X146758897Y-62842548D01*
X147753770Y-67010952D01*
X147920050Y-71293202D01*
X147251399Y-75526207D01*
X145773293Y-79548708D01*
X143531397Y-83224936D01*
X142497749Y-84487584D01*
X142448919Y-84496899D01*
X142443991Y-84498890D01*
X142438805Y-84499941D01*
X142336295Y-84542402D01*
X142287999Y-84561915D01*
X142285950Y-84563256D01*
X142283610Y-84564225D01*
X142283597Y-84564795D01*
X142142773Y-84656949D01*
X142018770Y-84778381D01*
X141920716Y-84921585D01*
X141915575Y-84933580D01*
X141914225Y-84933610D01*
X141884716Y-85005580D01*
X141865298Y-85050885D01*
X141837999Y-85061915D01*
X141835950Y-85063256D01*
X141833610Y-85064225D01*
X141833597Y-85064795D01*
X141692773Y-85156949D01*
X141568770Y-85278381D01*
X141470716Y-85421585D01*
X141465575Y-85433580D01*
X141464225Y-85433610D01*
X141440902Y-85490494D01*
X141436295Y-85492402D01*
X141387999Y-85511915D01*
X141385950Y-85513256D01*
X141383610Y-85514225D01*
X141383597Y-85514795D01*
X141242773Y-85606949D01*
X141118770Y-85728381D01*
X141020716Y-85871585D01*
X141015575Y-85883580D01*
X141014225Y-85883610D01*
X140986665Y-85950828D01*
X140886295Y-85992402D01*
X140837999Y-86011915D01*
X140835950Y-86013256D01*
X140833610Y-86014225D01*
X140833597Y-86014795D01*
X140692773Y-86106949D01*
X140568770Y-86228381D01*
X140470716Y-86371585D01*
X140465575Y-86383580D01*
X140464225Y-86383610D01*
X140459613Y-86394859D01*
X140448919Y-86396899D01*
X140443991Y-86398890D01*
X140438805Y-86399941D01*
X140336295Y-86442402D01*
X140287999Y-86461915D01*
X140285950Y-86463256D01*
X140283610Y-86464225D01*
X140283597Y-86464795D01*
X140142773Y-86556949D01*
X140018770Y-86678381D01*
X139920716Y-86821585D01*
X139915575Y-86833580D01*
X139914225Y-86833610D01*
X139901131Y-86865546D01*
X139836295Y-86892402D01*
X139787999Y-86911915D01*
X139785950Y-86913256D01*
X139783610Y-86914225D01*
X139783597Y-86914795D01*
X139642773Y-87006949D01*
X139518770Y-87128381D01*
X139420716Y-87271585D01*
X139415575Y-87283580D01*
X139414225Y-87283610D01*
X139384716Y-87355580D01*
X139352345Y-87431108D01*
X139350834Y-87438214D01*
X139348090Y-87444908D01*
X139341829Y-87476985D01*
X135934589Y-89641770D01*
X131930280Y-91197334D01*
X127700089Y-91945498D01*
X123405137Y-91857765D01*
X119209029Y-90937477D01*
X115265897Y-89217204D01*
X112507060Y-87371920D01*
X112501327Y-87342969D01*
X112500493Y-87340944D01*
X112500059Y-87338805D01*
X112435775Y-87183610D01*
X112435642Y-87183607D01*
X112435189Y-87182507D01*
X112339144Y-87037948D01*
X112216850Y-86914796D01*
X112072964Y-86817744D01*
X112066407Y-86814988D01*
X112066390Y-86814225D01*
X111993341Y-86784274D01*
X111949048Y-86765655D01*
X111935775Y-86733610D01*
X111935642Y-86733607D01*
X111935189Y-86732507D01*
X111839144Y-86587948D01*
X111716850Y-86464796D01*
X111572964Y-86367744D01*
X111566407Y-86364988D01*
X111566390Y-86364225D01*
X111493341Y-86334274D01*
X111412968Y-86300488D01*
X111408908Y-86299655D01*
X111405092Y-86298090D01*
X111390601Y-86295262D01*
X111385775Y-86283610D01*
X111385642Y-86283607D01*
X111385189Y-86282507D01*
X111289144Y-86137948D01*
X111166850Y-86014796D01*
X111022964Y-85917744D01*
X111016407Y-85914988D01*
X111016390Y-85914225D01*
X110943341Y-85884274D01*
X110924126Y-85876196D01*
X110885775Y-85783610D01*
X110885642Y-85783607D01*
X110885189Y-85782507D01*
X110789144Y-85637948D01*
X110666850Y-85514796D01*
X110522964Y-85417744D01*
X110516407Y-85414988D01*
X110516390Y-85414225D01*
X110443341Y-85384274D01*
X110424126Y-85376196D01*
X110385775Y-85283610D01*
X110385642Y-85283607D01*
X110385189Y-85282507D01*
X110289144Y-85137948D01*
X110166850Y-85014796D01*
X110022964Y-84917744D01*
X110016407Y-84914988D01*
X110016390Y-84914225D01*
X109943341Y-84884274D01*
X109924126Y-84876196D01*
X109885775Y-84783610D01*
X109885642Y-84783607D01*
X109885189Y-84782507D01*
X109789144Y-84637948D01*
X109666850Y-84514796D01*
X109522964Y-84417744D01*
X109516407Y-84414988D01*
X109516390Y-84414225D01*
X109443341Y-84384274D01*
X109425900Y-84376942D01*
X107026674Y-81053228D01*
X105241103Y-77157452D01*
X104246230Y-72989048D01*
X104079950Y-68706799D01*
X104748601Y-64473793D01*
X106226707Y-60451293D01*
X108468604Y-56775064D01*
X109512966Y-55499325D01*
X109590467Y-55467223D01*
X109650957Y-55443761D01*
X109658187Y-55439173D01*
X109666390Y-55435775D01*
X109666431Y-55433941D01*
X109797497Y-55350764D01*
X109923182Y-55231075D01*
X110023226Y-55089254D01*
X110033382Y-55066443D01*
X110035775Y-55066390D01*
X110063367Y-54999096D01*
X110074638Y-54973780D01*
X110090467Y-54967223D01*
X110150957Y-54943761D01*
X110158187Y-54939173D01*
X110166390Y-54935775D01*
X110166431Y-54933941D01*
X110297497Y-54850764D01*
X110423182Y-54731075D01*
X110523226Y-54589254D01*
X110533382Y-54566443D01*
X110535775Y-54566390D01*
X110563367Y-54499096D01*
X110574638Y-54473780D01*
X110590467Y-54467223D01*
X110650957Y-54443761D01*
X110658187Y-54439173D01*
X110666390Y-54435775D01*
X110666431Y-54433941D01*
X110797497Y-54350764D01*
X110923182Y-54231075D01*
X111023226Y-54089254D01*
X111033382Y-54066443D01*
X111035775Y-54066390D01*
X111048869Y-54034454D01*
X111090467Y-54017223D01*
X111150957Y-53993761D01*
X111158187Y-53989173D01*
X111166390Y-53985775D01*
X111166431Y-53983941D01*
X111297497Y-53900764D01*
X111423182Y-53781075D01*
X111523226Y-53639254D01*
X111533382Y-53616443D01*
X111535775Y-53616390D01*
X111548869Y-53584454D01*
X111590467Y-53567223D01*
X111650957Y-53543761D01*
X111658187Y-53539173D01*
X111666390Y-53535775D01*
X111666431Y-53533941D01*
X111797497Y-53450764D01*
X111923182Y-53331075D01*
X112023226Y-53189254D01*
X112033382Y-53166443D01*
X112035775Y-53166390D01*
X112039948Y-53156212D01*
X112049921Y-53152344D01*
X112061195Y-53150059D01*
X112140467Y-53117223D01*
X112200957Y-53093761D01*
X112208187Y-53089173D01*
X112216390Y-53085775D01*
X112216431Y-53083941D01*
X112347497Y-53000764D01*
X112473182Y-52881075D01*
X112573226Y-52739254D01*
X112583382Y-52716443D01*
X112585775Y-52716390D01*
X112613367Y-52649096D01*
X112634059Y-52602621D01*
X116161294Y-50378768D01*
X120159787Y-48841437D01*
X124380734Y-48110028D01*
X128663353Y-48212401D01*
G36*
X77663353Y-48212401D02*
X81844531Y-49144659D01*
X85771819Y-50874290D01*
X88481121Y-52686469D01*
X88485980Y-52698200D01*
X88509058Y-52756489D01*
X88512041Y-52761118D01*
X88514225Y-52766390D01*
X88515456Y-52766417D01*
X88603076Y-52902376D01*
X88723639Y-53027222D01*
X88866155Y-53126274D01*
X88883568Y-53133882D01*
X88883610Y-53135775D01*
X88953405Y-53164392D01*
X89000545Y-53184987D01*
X89009058Y-53206489D01*
X89012041Y-53211118D01*
X89014225Y-53216390D01*
X89015456Y-53216417D01*
X89103076Y-53352376D01*
X89223639Y-53477222D01*
X89366155Y-53576274D01*
X89383568Y-53583882D01*
X89383610Y-53585775D01*
X89453405Y-53614392D01*
X89525197Y-53645757D01*
X89535341Y-53647987D01*
X89544908Y-53651910D01*
X89558278Y-53654520D01*
X89559058Y-53656489D01*
X89562041Y-53661118D01*
X89564225Y-53666390D01*
X89565456Y-53666417D01*
X89653076Y-53802376D01*
X89773639Y-53927222D01*
X89916155Y-54026274D01*
X89933568Y-54033882D01*
X89933610Y-54035775D01*
X90003405Y-54064392D01*
X90026079Y-54074298D01*
X90035980Y-54098200D01*
X90059058Y-54156489D01*
X90062041Y-54161118D01*
X90064225Y-54166390D01*
X90065456Y-54166417D01*
X90153076Y-54302376D01*
X90273639Y-54427222D01*
X90416155Y-54526274D01*
X90433568Y-54533882D01*
X90433610Y-54535775D01*
X90503405Y-54564392D01*
X90526079Y-54574298D01*
X90535980Y-54598200D01*
X90559058Y-54656489D01*
X90562041Y-54661118D01*
X90564225Y-54666390D01*
X90565456Y-54666417D01*
X90653076Y-54802376D01*
X90773639Y-54927222D01*
X90916155Y-55026274D01*
X90933568Y-55033882D01*
X90933610Y-55035775D01*
X91003405Y-55064392D01*
X91026079Y-55074298D01*
X91035980Y-55098200D01*
X91059058Y-55156489D01*
X91062041Y-55161118D01*
X91064225Y-55166390D01*
X91065456Y-55166417D01*
X91153076Y-55302376D01*
X91273639Y-55427222D01*
X91416155Y-55526274D01*
X91433568Y-55533882D01*
X91433610Y-55535775D01*
X91503405Y-55564392D01*
X91544810Y-55582481D01*
X93973323Y-58946768D01*
X95758897Y-62842548D01*
X96753770Y-67010952D01*
X96920050Y-71293202D01*
X96251399Y-75526207D01*
X94773293Y-79548708D01*
X92531397Y-83224936D01*
X91497749Y-84487584D01*
X91448919Y-84496899D01*
X91443991Y-84498890D01*
X91438805Y-84499941D01*
X91336295Y-84542402D01*
X91287999Y-84561915D01*
X91285950Y-84563256D01*
X91283610Y-84564225D01*
X91283597Y-84564795D01*
X91142773Y-84656949D01*
X91018770Y-84778381D01*
X90920716Y-84921585D01*
X90915575Y-84933580D01*
X90914225Y-84933610D01*
X90884716Y-85005580D01*
X90865298Y-85050885D01*
X90837999Y-85061915D01*
X90835950Y-85063256D01*
X90833610Y-85064225D01*
X90833597Y-85064795D01*
X90692773Y-85156949D01*
X90568770Y-85278381D01*
X90470716Y-85421585D01*
X90465575Y-85433580D01*
X90464225Y-85433610D01*
X90440902Y-85490494D01*
X90436295Y-85492402D01*
X90387999Y-85511915D01*
X90385950Y-85513256D01*
X90383610Y-85514225D01*
X90383597Y-85514795D01*
X90242773Y-85606949D01*
X90118770Y-85728381D01*
X90020716Y-85871585D01*
X90015575Y-85883580D01*
X90014225Y-85883610D01*
X89986665Y-85950828D01*
X89886295Y-85992402D01*
X89837999Y-86011915D01*
X89835950Y-86013256D01*
X89833610Y-86014225D01*
X89833597Y-86014795D01*
X89692773Y-86106949D01*
X89568770Y-86228381D01*
X89470716Y-86371585D01*
X89465575Y-86383580D01*
X89464225Y-86383610D01*
X89459613Y-86394859D01*
X89448919Y-86396899D01*
X89443991Y-86398890D01*
X89438805Y-86399941D01*
X89336295Y-86442402D01*
X89287999Y-86461915D01*
X89285950Y-86463256D01*
X89283610Y-86464225D01*
X89283597Y-86464795D01*
X89142773Y-86556949D01*
X89018770Y-86678381D01*
X88920716Y-86821585D01*
X88915575Y-86833580D01*
X88914225Y-86833610D01*
X88901131Y-86865546D01*
X88836295Y-86892402D01*
X88787999Y-86911915D01*
X88785950Y-86913256D01*
X88783610Y-86914225D01*
X88783597Y-86914795D01*
X88642773Y-87006949D01*
X88518770Y-87128381D01*
X88420716Y-87271585D01*
X88415575Y-87283580D01*
X88414225Y-87283610D01*
X88384716Y-87355580D01*
X88352345Y-87431108D01*
X88350834Y-87438214D01*
X88348090Y-87444908D01*
X88341829Y-87476985D01*
X84934589Y-89641770D01*
X80930280Y-91197334D01*
X76700089Y-91945498D01*
X72405137Y-91857765D01*
X68209029Y-90937477D01*
X64265897Y-89217204D01*
X61507060Y-87371920D01*
X61501327Y-87342969D01*
X61500493Y-87340944D01*
X61500059Y-87338805D01*
X61435775Y-87183610D01*
X61435642Y-87183607D01*
X61435189Y-87182507D01*
X61339144Y-87037948D01*
X61216850Y-86914796D01*
X61072964Y-86817744D01*
X61066407Y-86814988D01*
X61066390Y-86814225D01*
X60993341Y-86784274D01*
X60949048Y-86765655D01*
X60935775Y-86733610D01*
X60935642Y-86733607D01*
X60935189Y-86732507D01*
X60839144Y-86587948D01*
X60716850Y-86464796D01*
X60572964Y-86367744D01*
X60566407Y-86364988D01*
X60566390Y-86364225D01*
X60493341Y-86334274D01*
X60412968Y-86300488D01*
X60408908Y-86299655D01*
X60405092Y-86298090D01*
X60390601Y-86295262D01*
X60385775Y-86283610D01*
X60385642Y-86283607D01*
X60385189Y-86282507D01*
X60289144Y-86137948D01*
X60166850Y-86014796D01*
X60022964Y-85917744D01*
X60016407Y-85914988D01*
X60016390Y-85914225D01*
X59943341Y-85884274D01*
X59924126Y-85876196D01*
X59885775Y-85783610D01*
X59885642Y-85783607D01*
X59885189Y-85782507D01*
X59789144Y-85637948D01*
X59666850Y-85514796D01*
X59522964Y-85417744D01*
X59516407Y-85414988D01*
X59516390Y-85414225D01*
X59443341Y-85384274D01*
X59424126Y-85376196D01*
X59385775Y-85283610D01*
X59385642Y-85283607D01*
X59385189Y-85282507D01*
X59289144Y-85137948D01*
X59166850Y-85014796D01*
X59022964Y-84917744D01*
X59016407Y-84914988D01*
X59016390Y-84914225D01*
X58943341Y-84884274D01*
X58924126Y-84876196D01*
X58885775Y-84783610D01*
X58885642Y-84783607D01*
X58885189Y-84782507D01*
X58789144Y-84637948D01*
X58666850Y-84514796D01*
X58522964Y-84417744D01*
X58516407Y-84414988D01*
X58516390Y-84414225D01*
X58443341Y-84384274D01*
X58425900Y-84376942D01*
X56026674Y-81053228D01*
X54241103Y-77157452D01*
X53246230Y-72989048D01*
X53079950Y-68706799D01*
X53452766Y-66346620D01*
X63623045Y-66346620D01*
X63631732Y-66396279D01*
X65423000Y-70973964D01*
X65423000Y-75020020D01*
X64586408Y-76693204D01*
X64573048Y-76746491D01*
X64581685Y-76796159D01*
X64608965Y-76838553D01*
X64650590Y-76866994D01*
X64700000Y-76877000D01*
X70250000Y-76877000D01*
X70306796Y-76863592D01*
X72206796Y-75913592D01*
X72239803Y-75889803D01*
X78289803Y-69839803D01*
X78316994Y-69799410D01*
X78327000Y-69750000D01*
X78327000Y-69550000D01*
X78321644Y-69513507D01*
X78171644Y-69013507D01*
X78160005Y-68986534D01*
X78126646Y-68948736D01*
X78081210Y-68926895D01*
X74531210Y-68026895D01*
X74476215Y-68025247D01*
X74429553Y-68044330D01*
X74311548Y-68123000D01*
X72270610Y-68123000D01*
X69290161Y-67129517D01*
X69270509Y-67124667D01*
X63770509Y-66224667D01*
X63707006Y-66230499D01*
X63663901Y-66256641D01*
X63634362Y-66297493D01*
X63623045Y-66346620D01*
X53452766Y-66346620D01*
X53748601Y-64473793D01*
X55226707Y-60451293D01*
X57468604Y-56775064D01*
X58512966Y-55499325D01*
X58590467Y-55467223D01*
X58650957Y-55443761D01*
X58658187Y-55439173D01*
X58666390Y-55435775D01*
X58666431Y-55433941D01*
X58797497Y-55350764D01*
X58923182Y-55231075D01*
X59023226Y-55089254D01*
X59033382Y-55066443D01*
X59035775Y-55066390D01*
X59063367Y-54999096D01*
X59074638Y-54973780D01*
X59090467Y-54967223D01*
X59150957Y-54943761D01*
X59158187Y-54939173D01*
X59166390Y-54935775D01*
X59166431Y-54933941D01*
X59297497Y-54850764D01*
X59423182Y-54731075D01*
X59523226Y-54589254D01*
X59533382Y-54566443D01*
X59535775Y-54566390D01*
X59563367Y-54499096D01*
X59574638Y-54473780D01*
X59590467Y-54467223D01*
X59650957Y-54443761D01*
X59658187Y-54439173D01*
X59666390Y-54435775D01*
X59666431Y-54433941D01*
X59797497Y-54350764D01*
X59923182Y-54231075D01*
X60023226Y-54089254D01*
X60033382Y-54066443D01*
X60035775Y-54066390D01*
X60048869Y-54034454D01*
X60090467Y-54017223D01*
X60150957Y-53993761D01*
X60158187Y-53989173D01*
X60166390Y-53985775D01*
X60166431Y-53983941D01*
X60297497Y-53900764D01*
X60423182Y-53781075D01*
X60523226Y-53639254D01*
X60533382Y-53616443D01*
X60535775Y-53616390D01*
X60548869Y-53584454D01*
X60590467Y-53567223D01*
X60650957Y-53543761D01*
X60658187Y-53539173D01*
X60666390Y-53535775D01*
X60666431Y-53533941D01*
X60797497Y-53450764D01*
X60923182Y-53331075D01*
X61023226Y-53189254D01*
X61033382Y-53166443D01*
X61035775Y-53166390D01*
X61039948Y-53156212D01*
X61049921Y-53152344D01*
X61061195Y-53150059D01*
X61140467Y-53117223D01*
X61200957Y-53093761D01*
X61208187Y-53089173D01*
X61216390Y-53085775D01*
X61216431Y-53083941D01*
X61347497Y-53000764D01*
X61473182Y-52881075D01*
X61573226Y-52739254D01*
X61583382Y-52716443D01*
X61585775Y-52716390D01*
X61613367Y-52649096D01*
X61634059Y-52602621D01*
X65161294Y-50378768D01*
X69159787Y-48841437D01*
X73380734Y-48110028D01*
X77663353Y-48212401D01*
X77663353Y-48212401D01*
G37*
X77663353Y-48212401D02*
X81844531Y-49144659D01*
X85771819Y-50874290D01*
X88481121Y-52686469D01*
X88485980Y-52698200D01*
X88509058Y-52756489D01*
X88512041Y-52761118D01*
X88514225Y-52766390D01*
X88515456Y-52766417D01*
X88603076Y-52902376D01*
X88723639Y-53027222D01*
X88866155Y-53126274D01*
X88883568Y-53133882D01*
X88883610Y-53135775D01*
X88953405Y-53164392D01*
X89000545Y-53184987D01*
X89009058Y-53206489D01*
X89012041Y-53211118D01*
X89014225Y-53216390D01*
X89015456Y-53216417D01*
X89103076Y-53352376D01*
X89223639Y-53477222D01*
X89366155Y-53576274D01*
X89383568Y-53583882D01*
X89383610Y-53585775D01*
X89453405Y-53614392D01*
X89525197Y-53645757D01*
X89535341Y-53647987D01*
X89544908Y-53651910D01*
X89558278Y-53654520D01*
X89559058Y-53656489D01*
X89562041Y-53661118D01*
X89564225Y-53666390D01*
X89565456Y-53666417D01*
X89653076Y-53802376D01*
X89773639Y-53927222D01*
X89916155Y-54026274D01*
X89933568Y-54033882D01*
X89933610Y-54035775D01*
X90003405Y-54064392D01*
X90026079Y-54074298D01*
X90035980Y-54098200D01*
X90059058Y-54156489D01*
X90062041Y-54161118D01*
X90064225Y-54166390D01*
X90065456Y-54166417D01*
X90153076Y-54302376D01*
X90273639Y-54427222D01*
X90416155Y-54526274D01*
X90433568Y-54533882D01*
X90433610Y-54535775D01*
X90503405Y-54564392D01*
X90526079Y-54574298D01*
X90535980Y-54598200D01*
X90559058Y-54656489D01*
X90562041Y-54661118D01*
X90564225Y-54666390D01*
X90565456Y-54666417D01*
X90653076Y-54802376D01*
X90773639Y-54927222D01*
X90916155Y-55026274D01*
X90933568Y-55033882D01*
X90933610Y-55035775D01*
X91003405Y-55064392D01*
X91026079Y-55074298D01*
X91035980Y-55098200D01*
X91059058Y-55156489D01*
X91062041Y-55161118D01*
X91064225Y-55166390D01*
X91065456Y-55166417D01*
X91153076Y-55302376D01*
X91273639Y-55427222D01*
X91416155Y-55526274D01*
X91433568Y-55533882D01*
X91433610Y-55535775D01*
X91503405Y-55564392D01*
X91544810Y-55582481D01*
X93973323Y-58946768D01*
X95758897Y-62842548D01*
X96753770Y-67010952D01*
X96920050Y-71293202D01*
X96251399Y-75526207D01*
X94773293Y-79548708D01*
X92531397Y-83224936D01*
X91497749Y-84487584D01*
X91448919Y-84496899D01*
X91443991Y-84498890D01*
X91438805Y-84499941D01*
X91336295Y-84542402D01*
X91287999Y-84561915D01*
X91285950Y-84563256D01*
X91283610Y-84564225D01*
X91283597Y-84564795D01*
X91142773Y-84656949D01*
X91018770Y-84778381D01*
X90920716Y-84921585D01*
X90915575Y-84933580D01*
X90914225Y-84933610D01*
X90884716Y-85005580D01*
X90865298Y-85050885D01*
X90837999Y-85061915D01*
X90835950Y-85063256D01*
X90833610Y-85064225D01*
X90833597Y-85064795D01*
X90692773Y-85156949D01*
X90568770Y-85278381D01*
X90470716Y-85421585D01*
X90465575Y-85433580D01*
X90464225Y-85433610D01*
X90440902Y-85490494D01*
X90436295Y-85492402D01*
X90387999Y-85511915D01*
X90385950Y-85513256D01*
X90383610Y-85514225D01*
X90383597Y-85514795D01*
X90242773Y-85606949D01*
X90118770Y-85728381D01*
X90020716Y-85871585D01*
X90015575Y-85883580D01*
X90014225Y-85883610D01*
X89986665Y-85950828D01*
X89886295Y-85992402D01*
X89837999Y-86011915D01*
X89835950Y-86013256D01*
X89833610Y-86014225D01*
X89833597Y-86014795D01*
X89692773Y-86106949D01*
X89568770Y-86228381D01*
X89470716Y-86371585D01*
X89465575Y-86383580D01*
X89464225Y-86383610D01*
X89459613Y-86394859D01*
X89448919Y-86396899D01*
X89443991Y-86398890D01*
X89438805Y-86399941D01*
X89336295Y-86442402D01*
X89287999Y-86461915D01*
X89285950Y-86463256D01*
X89283610Y-86464225D01*
X89283597Y-86464795D01*
X89142773Y-86556949D01*
X89018770Y-86678381D01*
X88920716Y-86821585D01*
X88915575Y-86833580D01*
X88914225Y-86833610D01*
X88901131Y-86865546D01*
X88836295Y-86892402D01*
X88787999Y-86911915D01*
X88785950Y-86913256D01*
X88783610Y-86914225D01*
X88783597Y-86914795D01*
X88642773Y-87006949D01*
X88518770Y-87128381D01*
X88420716Y-87271585D01*
X88415575Y-87283580D01*
X88414225Y-87283610D01*
X88384716Y-87355580D01*
X88352345Y-87431108D01*
X88350834Y-87438214D01*
X88348090Y-87444908D01*
X88341829Y-87476985D01*
X84934589Y-89641770D01*
X80930280Y-91197334D01*
X76700089Y-91945498D01*
X72405137Y-91857765D01*
X68209029Y-90937477D01*
X64265897Y-89217204D01*
X61507060Y-87371920D01*
X61501327Y-87342969D01*
X61500493Y-87340944D01*
X61500059Y-87338805D01*
X61435775Y-87183610D01*
X61435642Y-87183607D01*
X61435189Y-87182507D01*
X61339144Y-87037948D01*
X61216850Y-86914796D01*
X61072964Y-86817744D01*
X61066407Y-86814988D01*
X61066390Y-86814225D01*
X60993341Y-86784274D01*
X60949048Y-86765655D01*
X60935775Y-86733610D01*
X60935642Y-86733607D01*
X60935189Y-86732507D01*
X60839144Y-86587948D01*
X60716850Y-86464796D01*
X60572964Y-86367744D01*
X60566407Y-86364988D01*
X60566390Y-86364225D01*
X60493341Y-86334274D01*
X60412968Y-86300488D01*
X60408908Y-86299655D01*
X60405092Y-86298090D01*
X60390601Y-86295262D01*
X60385775Y-86283610D01*
X60385642Y-86283607D01*
X60385189Y-86282507D01*
X60289144Y-86137948D01*
X60166850Y-86014796D01*
X60022964Y-85917744D01*
X60016407Y-85914988D01*
X60016390Y-85914225D01*
X59943341Y-85884274D01*
X59924126Y-85876196D01*
X59885775Y-85783610D01*
X59885642Y-85783607D01*
X59885189Y-85782507D01*
X59789144Y-85637948D01*
X59666850Y-85514796D01*
X59522964Y-85417744D01*
X59516407Y-85414988D01*
X59516390Y-85414225D01*
X59443341Y-85384274D01*
X59424126Y-85376196D01*
X59385775Y-85283610D01*
X59385642Y-85283607D01*
X59385189Y-85282507D01*
X59289144Y-85137948D01*
X59166850Y-85014796D01*
X59022964Y-84917744D01*
X59016407Y-84914988D01*
X59016390Y-84914225D01*
X58943341Y-84884274D01*
X58924126Y-84876196D01*
X58885775Y-84783610D01*
X58885642Y-84783607D01*
X58885189Y-84782507D01*
X58789144Y-84637948D01*
X58666850Y-84514796D01*
X58522964Y-84417744D01*
X58516407Y-84414988D01*
X58516390Y-84414225D01*
X58443341Y-84384274D01*
X58425900Y-84376942D01*
X56026674Y-81053228D01*
X54241103Y-77157452D01*
X53246230Y-72989048D01*
X53079950Y-68706799D01*
X53452766Y-66346620D01*
X63623045Y-66346620D01*
X63631732Y-66396279D01*
X65423000Y-70973964D01*
X65423000Y-75020020D01*
X64586408Y-76693204D01*
X64573048Y-76746491D01*
X64581685Y-76796159D01*
X64608965Y-76838553D01*
X64650590Y-76866994D01*
X64700000Y-76877000D01*
X70250000Y-76877000D01*
X70306796Y-76863592D01*
X72206796Y-75913592D01*
X72239803Y-75889803D01*
X78289803Y-69839803D01*
X78316994Y-69799410D01*
X78327000Y-69750000D01*
X78327000Y-69550000D01*
X78321644Y-69513507D01*
X78171644Y-69013507D01*
X78160005Y-68986534D01*
X78126646Y-68948736D01*
X78081210Y-68926895D01*
X74531210Y-68026895D01*
X74476215Y-68025247D01*
X74429553Y-68044330D01*
X74311548Y-68123000D01*
X72270610Y-68123000D01*
X69290161Y-67129517D01*
X69270509Y-67124667D01*
X63770509Y-66224667D01*
X63707006Y-66230499D01*
X63663901Y-66256641D01*
X63634362Y-66297493D01*
X63623045Y-66346620D01*
X53452766Y-66346620D01*
X53748601Y-64473793D01*
X55226707Y-60451293D01*
X57468604Y-56775064D01*
X58512966Y-55499325D01*
X58590467Y-55467223D01*
X58650957Y-55443761D01*
X58658187Y-55439173D01*
X58666390Y-55435775D01*
X58666431Y-55433941D01*
X58797497Y-55350764D01*
X58923182Y-55231075D01*
X59023226Y-55089254D01*
X59033382Y-55066443D01*
X59035775Y-55066390D01*
X59063367Y-54999096D01*
X59074638Y-54973780D01*
X59090467Y-54967223D01*
X59150957Y-54943761D01*
X59158187Y-54939173D01*
X59166390Y-54935775D01*
X59166431Y-54933941D01*
X59297497Y-54850764D01*
X59423182Y-54731075D01*
X59523226Y-54589254D01*
X59533382Y-54566443D01*
X59535775Y-54566390D01*
X59563367Y-54499096D01*
X59574638Y-54473780D01*
X59590467Y-54467223D01*
X59650957Y-54443761D01*
X59658187Y-54439173D01*
X59666390Y-54435775D01*
X59666431Y-54433941D01*
X59797497Y-54350764D01*
X59923182Y-54231075D01*
X60023226Y-54089254D01*
X60033382Y-54066443D01*
X60035775Y-54066390D01*
X60048869Y-54034454D01*
X60090467Y-54017223D01*
X60150957Y-53993761D01*
X60158187Y-53989173D01*
X60166390Y-53985775D01*
X60166431Y-53983941D01*
X60297497Y-53900764D01*
X60423182Y-53781075D01*
X60523226Y-53639254D01*
X60533382Y-53616443D01*
X60535775Y-53616390D01*
X60548869Y-53584454D01*
X60590467Y-53567223D01*
X60650957Y-53543761D01*
X60658187Y-53539173D01*
X60666390Y-53535775D01*
X60666431Y-53533941D01*
X60797497Y-53450764D01*
X60923182Y-53331075D01*
X61023226Y-53189254D01*
X61033382Y-53166443D01*
X61035775Y-53166390D01*
X61039948Y-53156212D01*
X61049921Y-53152344D01*
X61061195Y-53150059D01*
X61140467Y-53117223D01*
X61200957Y-53093761D01*
X61208187Y-53089173D01*
X61216390Y-53085775D01*
X61216431Y-53083941D01*
X61347497Y-53000764D01*
X61473182Y-52881075D01*
X61573226Y-52739254D01*
X61583382Y-52716443D01*
X61585775Y-52716390D01*
X61613367Y-52649096D01*
X61634059Y-52602621D01*
X65161294Y-50378768D01*
X69159787Y-48841437D01*
X73380734Y-48110028D01*
X77663353Y-48212401D01*
M02*
