M48
;DRILL file {KiCad 4.0.6+dfsg1-1} date Tue Jul  3 13:48:59 2018
;FORMAT={3:3/ absolute / metric / suppress leading zeros}
FMAT,2
METRIC,TZ
T1C0.500
%
G90
G05
M71
T1
X57300Y-53800
X57300Y-86200
X57300Y-104800
X57300Y-137200
X57750Y-53300
X57750Y-104300
X57800Y-86700
X57800Y-137700
X58100Y-85200
X58100Y-136200
X58250Y-52850
X58250Y-54650
X58250Y-103850
X58250Y-105650
X58300Y-87200
X58300Y-138200
X58600Y-85700
X58600Y-136700
X58750Y-52300
X58750Y-54150
X58750Y-103300
X58750Y-105150
X58800Y-87700
X58800Y-138700
X59100Y-86200
X59100Y-137200
X59250Y-53650
X59250Y-104650
X59300Y-51850
X59300Y-88150
X59300Y-102850
X59300Y-139150
X59600Y-86700
X59600Y-137700
X59750Y-53200
X59750Y-104200
X59800Y-51400
X59800Y-88600
X59800Y-102400
X59800Y-139600
X60150Y-87150
X60150Y-138150
X60250Y-52750
X60250Y-103750
X60650Y-87600
X60650Y-138600
X60800Y-52300
X60800Y-103300
X89200Y-87700
X89200Y-138700
X89300Y-52350
X89300Y-103350
X89700Y-87250
X89700Y-138250
X89800Y-52800
X89800Y-103800
X90150Y-51350
X90150Y-88600
X90150Y-102350
X90150Y-139600
X90250Y-86800
X90250Y-137800
X90350Y-53250
X90350Y-104250
X90650Y-51800
X90650Y-102800
X90700Y-88150
X90700Y-139150
X90800Y-86300
X90800Y-137300
X90850Y-53750
X90850Y-104750
X91150Y-52250
X91150Y-103250
X91250Y-85850
X91250Y-87700
X91250Y-136850
X91250Y-138700
X91350Y-54250
X91350Y-105250
X91650Y-52750
X91650Y-103750
X91700Y-85350
X91700Y-136350
X91750Y-87200
X91750Y-138200
X91850Y-54750
X91850Y-105750
X92150Y-53250
X92150Y-104250
X92250Y-86700
X92250Y-137700
X92650Y-53750
X92650Y-104750
X92700Y-86200
X92700Y-137200
X108300Y-53800
X108300Y-86200
X108300Y-104800
X108300Y-137200
X108750Y-53300
X108750Y-104300
X108800Y-86700
X108800Y-137700
X109100Y-85200
X109100Y-136200
X109250Y-52850
X109250Y-54650
X109250Y-103850
X109250Y-105650
X109300Y-87200
X109300Y-138200
X109600Y-85700
X109600Y-136700
X109750Y-52300
X109750Y-54150
X109750Y-103300
X109750Y-105150
X109800Y-87700
X109800Y-138700
X110100Y-86200
X110100Y-137200
X110250Y-53650
X110250Y-104650
X110300Y-51850
X110300Y-88150
X110300Y-102850
X110300Y-139150
X110600Y-86700
X110600Y-137700
X110750Y-53200
X110750Y-104200
X110800Y-51400
X110800Y-88600
X110800Y-102400
X110800Y-139600
X111150Y-87150
X111150Y-138150
X111250Y-52750
X111250Y-103750
X111650Y-87600
X111650Y-138600
X111800Y-52300
X111800Y-103300
X140200Y-87700
X140200Y-138700
X140300Y-52350
X140300Y-103350
X140700Y-87250
X140700Y-138250
X140800Y-52800
X140800Y-103800
X141150Y-51350
X141150Y-88600
X141150Y-102350
X141150Y-139600
X141250Y-86800
X141250Y-137800
X141350Y-53250
X141350Y-104250
X141650Y-51800
X141650Y-102800
X141700Y-88150
X141700Y-139150
X141800Y-86300
X141800Y-137300
X141850Y-53750
X141850Y-104750
X142150Y-52250
X142150Y-103250
X142250Y-85850
X142250Y-87700
X142250Y-136850
X142250Y-138700
X142350Y-54250
X142350Y-105250
X142650Y-52750
X142650Y-103750
X142700Y-85350
X142700Y-136350
X142750Y-87200
X142750Y-138200
X142850Y-54750
X142850Y-105750
X143150Y-53250
X143150Y-104250
X143250Y-86700
X143250Y-137700
X143650Y-53750
X143650Y-104750
X143700Y-86200
X143700Y-137200
T0
M30
