G04 #@! TF.FileFunction,Profile,NP*
%FSLAX46Y46*%
G04 Gerber Fmt 4.6, Leading zero omitted, Abs format (unit mm)*
G04 Created by KiCad (PCBNEW 4.0.6+dfsg1-1) date Mon Jul  2 22:47:05 2018*
%MOMM*%
%LPD*%
G01*
G04 APERTURE LIST*
%ADD10C,0.100000*%
%ADD11C,0.150000*%
G04 APERTURE END LIST*
D10*
D11*
X140010643Y-103186469D02*
G75*
G03X112100000Y-103100000I-14010643J-17813531D01*
G01*
X140900000Y-102200000D02*
G75*
G03X111100000Y-102200000I-14900000J-18800000D01*
G01*
X111100000Y-102200000D02*
X112100000Y-103100000D01*
X140900000Y-102200000D02*
X140000000Y-103200000D01*
X142944941Y-136062170D02*
G75*
G03X143000000Y-106000000I-16944941J15062170D01*
G01*
X142940000Y-136070000D02*
X143900000Y-137000000D01*
X140000000Y-138900000D02*
X140900000Y-139800000D01*
X143900000Y-137000000D02*
G75*
G03X143900000Y-105000000I-17900000J16000000D01*
G01*
X143900000Y-105000000D02*
X143000000Y-106000000D01*
X111100000Y-139800000D02*
G75*
G03X140900000Y-139800000I14900000J18800000D01*
G01*
X89000000Y-138900000D02*
X89900000Y-139800000D01*
X91940000Y-136070000D02*
X92900000Y-137000000D01*
X60889613Y-138813113D02*
G75*
G03X89000000Y-138900000I14110387J17813113D01*
G01*
X111889613Y-138813113D02*
G75*
G03X140000000Y-138900000I14110387J17813113D01*
G01*
X111100000Y-139800000D02*
X111900000Y-138800000D01*
X109055059Y-105937830D02*
G75*
G03X109000000Y-136000000I16944941J-15062170D01*
G01*
X108100000Y-137000000D02*
X109000000Y-136000000D01*
X108100000Y-105000000D02*
X109050000Y-105940000D01*
X108100000Y-105000000D02*
G75*
G03X108100000Y-137000000I17900000J-16000000D01*
G01*
X60100000Y-139800000D02*
G75*
G03X89900000Y-139800000I14900000J18800000D01*
G01*
X57100000Y-105000000D02*
X58050000Y-105940000D01*
X89900000Y-102200000D02*
G75*
G03X60100000Y-102200000I-14900000J-18800000D01*
G01*
X89010643Y-103186469D02*
G75*
G03X61100000Y-103100000I-14010643J-17813531D01*
G01*
X60100000Y-102200000D02*
X61100000Y-103100000D01*
X57100000Y-105000000D02*
G75*
G03X57100000Y-137000000I17900000J-16000000D01*
G01*
X60100000Y-139800000D02*
X60900000Y-138800000D01*
X57100000Y-137000000D02*
X58000000Y-136000000D01*
X58055059Y-105937830D02*
G75*
G03X58000000Y-136000000I16944941J-15062170D01*
G01*
X92900000Y-137000000D02*
G75*
G03X92900000Y-105000000I-17900000J16000000D01*
G01*
X92900000Y-105000000D02*
X92000000Y-106000000D01*
X89900000Y-102200000D02*
X89000000Y-103200000D01*
X91944941Y-136062170D02*
G75*
G03X92000000Y-106000000I-16944941J15062170D01*
G01*
X111100000Y-88800000D02*
G75*
G03X140900000Y-88800000I14900000J18800000D01*
G01*
X111889613Y-87813113D02*
G75*
G03X140000000Y-87900000I14110387J17813113D01*
G01*
X111100000Y-51200000D02*
X112100000Y-52100000D01*
X108100000Y-54000000D02*
X109050000Y-54940000D01*
X140010643Y-52186469D02*
G75*
G03X112100000Y-52100000I-14010643J-17813531D01*
G01*
X140900000Y-51200000D02*
G75*
G03X111100000Y-51200000I-14900000J-18800000D01*
G01*
X109055059Y-54937830D02*
G75*
G03X109000000Y-85000000I16944941J-15062170D01*
G01*
X108100000Y-86000000D02*
X109000000Y-85000000D01*
X111100000Y-88800000D02*
X111900000Y-87800000D01*
X108100000Y-54000000D02*
G75*
G03X108100000Y-86000000I17900000J-16000000D01*
G01*
X142944941Y-85062170D02*
G75*
G03X143000000Y-55000000I-16944941J15062170D01*
G01*
X142940000Y-85070000D02*
X143900000Y-86000000D01*
X140900000Y-51200000D02*
X140000000Y-52200000D01*
X143900000Y-86000000D02*
G75*
G03X143900000Y-54000000I-17900000J16000000D01*
G01*
X143900000Y-54000000D02*
X143000000Y-55000000D01*
X140000000Y-87900000D02*
X140900000Y-88800000D01*
X91940000Y-85070000D02*
X92900000Y-86000000D01*
X89000000Y-87900000D02*
X89900000Y-88800000D01*
X60100000Y-88800000D02*
X60900000Y-87800000D01*
X57100000Y-86000000D02*
X58000000Y-85000000D01*
X57100000Y-54000000D02*
X58050000Y-54940000D01*
X60100000Y-51200000D02*
X61100000Y-52100000D01*
X89900000Y-51200000D02*
X89000000Y-52200000D01*
X92900000Y-54000000D02*
X92000000Y-55000000D01*
X91944941Y-85062170D02*
G75*
G03X92000000Y-55000000I-16944941J15062170D01*
G01*
X60889613Y-87813113D02*
G75*
G03X89000000Y-87900000I14110387J17813113D01*
G01*
X58055059Y-54937830D02*
G75*
G03X58000000Y-85000000I16944941J-15062170D01*
G01*
X89010643Y-52186469D02*
G75*
G03X61100000Y-52100000I-14010643J-17813531D01*
G01*
X60100000Y-88800000D02*
G75*
G03X89900000Y-88800000I14900000J18800000D01*
G01*
X57100000Y-54000000D02*
G75*
G03X57100000Y-86000000I17900000J-16000000D01*
G01*
X89900000Y-51200000D02*
G75*
G03X60100000Y-51200000I-14900000J-18800000D01*
G01*
X92900000Y-86000000D02*
G75*
G03X92900000Y-54000000I-17900000J16000000D01*
G01*
X47000000Y-149000000D02*
X47000000Y-42000000D01*
X154000000Y-149000000D02*
X47000000Y-149000000D01*
X154000000Y-42000000D02*
X154000000Y-149000000D01*
X47000000Y-42000000D02*
X154000000Y-42000000D01*
M02*
