G04 #@! TF.FileFunction,Copper,L1,Top,Signal*
%FSLAX46Y46*%
G04 Gerber Fmt 4.6, Leading zero omitted, Abs format (unit mm)*
G04 Created by KiCad (PCBNEW 4.0.6+dfsg1-1) date Mon Jul  2 21:37:23 2018*
%MOMM*%
%LPD*%
G01*
G04 APERTURE LIST*
%ADD10C,0.100000*%
%ADD11C,0.600000*%
%ADD12C,0.254000*%
G04 APERTURE END LIST*
D10*
D11*
X109109437Y-138027402D03*
X108270509Y-137154799D03*
X109070509Y-136154799D03*
X109478044Y-136604778D03*
X109975917Y-138863595D03*
X109526419Y-138463571D03*
X109909437Y-137027402D03*
X108678044Y-137604778D03*
X142934257Y-138005177D03*
X142465986Y-136680891D03*
X143790273Y-137144695D03*
X142034257Y-137105177D03*
X142890273Y-136244695D03*
X143365986Y-137580891D03*
X110883111Y-139651909D03*
X110326419Y-137463571D03*
X110423424Y-139269145D03*
X110775917Y-137863595D03*
X111683111Y-138651909D03*
X111223424Y-138269145D03*
X141118405Y-139624175D03*
X142047208Y-138844088D03*
X142488535Y-138425540D03*
X140218405Y-138724175D03*
X141588535Y-137525540D03*
X140681272Y-138338475D03*
X141147208Y-137944088D03*
X141581272Y-139238475D03*
X92314480Y-104337747D03*
X92724175Y-104781595D03*
X91414480Y-105337747D03*
X90993116Y-104904751D03*
X91824175Y-105781595D03*
X90563045Y-102677903D03*
X91016028Y-103074899D03*
X91458642Y-103482254D03*
X91893116Y-103904751D03*
X90098728Y-102289744D03*
X90558642Y-104482254D03*
X89198728Y-103289744D03*
X90116028Y-104074899D03*
X89663045Y-103677903D03*
X58899032Y-103072205D03*
X59353990Y-102676359D03*
X59818001Y-102294554D03*
X60918001Y-103194554D03*
X59551430Y-104375760D03*
X60453990Y-103576359D03*
X59999032Y-103972205D03*
X59116793Y-104796308D03*
X58691519Y-105223533D03*
X58281475Y-105663762D03*
X57181475Y-104763762D03*
X58016793Y-103896308D03*
X57591519Y-104323533D03*
X58451430Y-103475760D03*
X140198728Y-103289744D03*
X141563045Y-102677903D03*
X141098728Y-102289744D03*
X140663045Y-103677903D03*
X141116028Y-104074899D03*
X109016793Y-103896308D03*
X109451430Y-103475760D03*
X109691519Y-105223533D03*
X108591519Y-104323533D03*
X109281475Y-105663762D03*
X110116793Y-104796308D03*
X108181475Y-104763762D03*
X110353990Y-102676359D03*
X109899032Y-103072205D03*
X110999032Y-103972205D03*
X110818001Y-102294554D03*
X111918001Y-103194554D03*
X111453990Y-103576359D03*
X110551430Y-104375760D03*
X142458642Y-103482254D03*
X142893116Y-103904751D03*
X142016028Y-103074899D03*
X141558642Y-104482254D03*
X143314480Y-104337747D03*
X141993116Y-104904751D03*
X142824175Y-105781595D03*
X142414480Y-105337747D03*
X143724175Y-104781595D03*
X91047208Y-138844088D03*
X90588535Y-137525540D03*
X91488535Y-138425540D03*
X91934257Y-138005177D03*
X92790273Y-137144695D03*
X91890273Y-136244695D03*
X91034257Y-137105177D03*
X91465986Y-136680891D03*
X92365986Y-137580891D03*
X90581272Y-139238475D03*
X89681272Y-138338475D03*
X90147208Y-137944088D03*
X89218405Y-138724175D03*
X90118405Y-139624175D03*
X58909437Y-137027402D03*
X58109437Y-138027402D03*
X57678044Y-137604778D03*
X58478044Y-136604778D03*
X57270509Y-137154799D03*
X58070509Y-136154799D03*
X58526419Y-138463571D03*
X59775917Y-137863595D03*
X60683111Y-138651909D03*
X60223424Y-138269145D03*
X59423424Y-139269145D03*
X59326419Y-137463571D03*
X58975917Y-138863595D03*
X59883111Y-139651909D03*
X141118405Y-88624175D03*
X141581272Y-88238475D03*
X142047208Y-87844088D03*
X140218405Y-87724175D03*
X140681272Y-87338475D03*
X141147208Y-86944088D03*
X141588535Y-86525540D03*
X142034257Y-86105177D03*
X142488535Y-87425540D03*
X142934257Y-87005177D03*
X143365986Y-86580891D03*
X143790273Y-86144695D03*
X142465986Y-85680891D03*
X142890273Y-85244695D03*
X111223424Y-87269145D03*
X111683111Y-87651909D03*
X110423424Y-88269145D03*
X110883111Y-88651909D03*
X110775917Y-86863595D03*
X109109437Y-87027402D03*
X109526419Y-87463571D03*
X110326419Y-86463571D03*
X109975917Y-87863595D03*
X108270509Y-86154799D03*
X109478044Y-85604778D03*
X109070509Y-85154799D03*
X109909437Y-86027402D03*
X108678044Y-86604778D03*
X141993116Y-53904751D03*
X142414480Y-54337747D03*
X142824175Y-54781595D03*
X140663045Y-52677903D03*
X142458642Y-52482254D03*
X142893116Y-52904751D03*
X143314480Y-53337747D03*
X143724175Y-53781595D03*
X141098728Y-51289744D03*
X141116028Y-53074899D03*
X141558642Y-53482254D03*
X140198728Y-52289744D03*
X141563045Y-51677903D03*
X142016028Y-52074899D03*
X111453990Y-52576359D03*
X110551430Y-53375760D03*
X110818001Y-51294554D03*
X109899032Y-52072205D03*
X110999032Y-52972205D03*
X111918001Y-52194554D03*
X110353990Y-51676359D03*
X109451430Y-52475760D03*
X109281475Y-54663762D03*
X109016793Y-52896308D03*
X108591519Y-53323533D03*
X109691519Y-54223533D03*
X110116793Y-53796308D03*
X108181475Y-53763762D03*
X60683111Y-87651909D03*
X60223424Y-87269145D03*
X59775917Y-86863595D03*
X59326419Y-86463571D03*
X58909437Y-86027402D03*
X58478044Y-85604778D03*
X58070509Y-85154799D03*
X59883111Y-88651909D03*
X59423424Y-88269145D03*
X58975917Y-87863595D03*
X58526419Y-87463571D03*
X58109437Y-87027402D03*
X57678044Y-86604778D03*
X57270509Y-86154799D03*
X91890273Y-85244695D03*
X91465986Y-85680891D03*
X91034257Y-86105177D03*
X90588535Y-86525540D03*
X90147208Y-86944088D03*
X89681272Y-87338475D03*
X89218405Y-87724175D03*
X92790273Y-86144695D03*
X92365986Y-86580891D03*
X91934257Y-87005177D03*
X91488535Y-87425540D03*
X91047208Y-87844088D03*
X90581272Y-88238475D03*
X90118405Y-88624175D03*
X92724175Y-53781595D03*
X92314480Y-53337747D03*
X91893116Y-52904751D03*
X91458642Y-52482254D03*
X91016028Y-52074899D03*
X90563045Y-51677903D03*
X90098728Y-51289744D03*
X59818001Y-51294554D03*
X59353990Y-51676359D03*
X58899032Y-52072205D03*
X58451430Y-52475760D03*
X58016793Y-52896308D03*
X57591519Y-53323533D03*
X57181475Y-53763762D03*
X91824175Y-54781595D03*
X91414480Y-54337747D03*
X90993116Y-53904751D03*
X90558642Y-53482254D03*
X90116028Y-53074899D03*
X89663045Y-52677903D03*
X89198728Y-52289744D03*
X60918001Y-52194554D03*
X60453990Y-52576359D03*
X59999032Y-52972205D03*
X59551430Y-53375760D03*
X59116793Y-53796308D03*
X58691519Y-54223533D03*
X58281475Y-54663762D03*
D12*
G36*
X153290000Y-148290000D02*
X47710000Y-148290000D01*
X47710000Y-119762383D01*
X50314883Y-119762383D01*
X50315262Y-119772289D01*
X50527171Y-124453141D01*
X50536341Y-124516840D01*
X50544620Y-124580651D01*
X50546916Y-124590295D01*
X51663971Y-129140840D01*
X51685325Y-129201505D01*
X51705854Y-129262533D01*
X51709980Y-129271547D01*
X53689633Y-133518458D01*
X53722374Y-133573837D01*
X53754355Y-133629698D01*
X53760153Y-133637739D01*
X56335343Y-137157307D01*
X56334280Y-137233416D01*
X56367381Y-137413767D01*
X56434881Y-137584253D01*
X56534210Y-137738382D01*
X56661585Y-137870283D01*
X56812153Y-137974930D01*
X56820356Y-137978514D01*
X56842416Y-138034232D01*
X56941745Y-138188361D01*
X57069120Y-138320262D01*
X57219688Y-138424909D01*
X57269834Y-138446817D01*
X57273809Y-138456856D01*
X57373138Y-138610985D01*
X57500513Y-138742886D01*
X57651081Y-138847533D01*
X57677318Y-138858996D01*
X57690791Y-138893025D01*
X57790120Y-139047154D01*
X57917495Y-139179055D01*
X58068063Y-139283702D01*
X58160210Y-139323960D01*
X58239618Y-139447178D01*
X58366993Y-139579079D01*
X58517561Y-139683726D01*
X58601979Y-139720607D01*
X58687125Y-139852728D01*
X58814500Y-139984629D01*
X58965068Y-140089276D01*
X59086879Y-140142494D01*
X59146812Y-140235492D01*
X59274187Y-140367393D01*
X59424755Y-140472040D01*
X59592782Y-140545449D01*
X59771868Y-140584824D01*
X59955190Y-140588664D01*
X59993792Y-140581857D01*
X63050047Y-142612428D01*
X63102482Y-142640308D01*
X63154157Y-142669665D01*
X63163241Y-142673634D01*
X67466354Y-144518066D01*
X67527674Y-144537519D01*
X67588753Y-144557839D01*
X67598432Y-144559966D01*
X67598434Y-144559967D01*
X67598436Y-144559967D01*
X72177848Y-145533461D01*
X72241736Y-145540629D01*
X72305641Y-145548703D01*
X72315552Y-145548911D01*
X76996836Y-145614384D01*
X77060942Y-145609002D01*
X77125155Y-145604513D01*
X77134918Y-145602792D01*
X81739766Y-144757753D01*
X81801620Y-144740018D01*
X81863724Y-144723146D01*
X81872966Y-144719561D01*
X86225979Y-142996196D01*
X86283184Y-142966798D01*
X86340855Y-142938172D01*
X86349225Y-142932860D01*
X90034979Y-140557673D01*
X90190484Y-140560930D01*
X90371062Y-140529089D01*
X90542015Y-140462781D01*
X90696834Y-140364530D01*
X90829620Y-140238079D01*
X90919954Y-140110022D01*
X91004882Y-140077081D01*
X91159701Y-139978830D01*
X91292487Y-139852379D01*
X91390101Y-139714002D01*
X91470818Y-139682694D01*
X91625637Y-139584443D01*
X91758423Y-139457992D01*
X91864119Y-139308158D01*
X91877780Y-139277475D01*
X91912145Y-139264146D01*
X92066964Y-139165895D01*
X92199750Y-139039444D01*
X92305446Y-138889610D01*
X92319166Y-138858794D01*
X92357867Y-138843783D01*
X92512686Y-138745532D01*
X92645472Y-138619081D01*
X92751168Y-138469247D01*
X92769921Y-138427129D01*
X92789596Y-138419497D01*
X92944415Y-138321246D01*
X93077201Y-138194795D01*
X93182897Y-138044961D01*
X93209613Y-137984957D01*
X93213883Y-137983301D01*
X93368702Y-137885050D01*
X93501488Y-137758599D01*
X93607184Y-137608765D01*
X93681765Y-137441255D01*
X93722389Y-137262449D01*
X93724483Y-137112450D01*
X94822710Y-135765891D01*
X94848053Y-135727747D01*
X94875871Y-135691372D01*
X94881037Y-135682911D01*
X97294877Y-131666862D01*
X97322487Y-131608737D01*
X97350907Y-131551000D01*
X97354331Y-131541697D01*
X98942146Y-127133282D01*
X98957937Y-127070913D01*
X98974604Y-127008744D01*
X98976156Y-126998953D01*
X99677466Y-122366088D01*
X99680841Y-122301860D01*
X99685117Y-122237617D01*
X99684738Y-122227711D01*
X99573130Y-119762383D01*
X101314883Y-119762383D01*
X101315262Y-119772289D01*
X101527171Y-124453141D01*
X101536341Y-124516840D01*
X101544620Y-124580651D01*
X101546916Y-124590295D01*
X102663971Y-129140840D01*
X102685325Y-129201505D01*
X102705854Y-129262533D01*
X102709980Y-129271547D01*
X104689633Y-133518458D01*
X104722374Y-133573837D01*
X104754355Y-133629698D01*
X104760153Y-133637739D01*
X107335343Y-137157307D01*
X107334280Y-137233416D01*
X107367381Y-137413767D01*
X107434881Y-137584253D01*
X107534210Y-137738382D01*
X107661585Y-137870283D01*
X107812153Y-137974930D01*
X107820356Y-137978514D01*
X107842416Y-138034232D01*
X107941745Y-138188361D01*
X108069120Y-138320262D01*
X108219688Y-138424909D01*
X108269834Y-138446817D01*
X108273809Y-138456856D01*
X108373138Y-138610985D01*
X108500513Y-138742886D01*
X108651081Y-138847533D01*
X108677318Y-138858996D01*
X108690791Y-138893025D01*
X108790120Y-139047154D01*
X108917495Y-139179055D01*
X109068063Y-139283702D01*
X109160210Y-139323960D01*
X109239618Y-139447178D01*
X109366993Y-139579079D01*
X109517561Y-139683726D01*
X109601979Y-139720607D01*
X109687125Y-139852728D01*
X109814500Y-139984629D01*
X109965068Y-140089276D01*
X110086879Y-140142494D01*
X110146812Y-140235492D01*
X110274187Y-140367393D01*
X110424755Y-140472040D01*
X110592782Y-140545449D01*
X110771868Y-140584824D01*
X110955190Y-140588664D01*
X110993792Y-140581857D01*
X114050047Y-142612428D01*
X114102482Y-142640308D01*
X114154157Y-142669665D01*
X114163241Y-142673634D01*
X118466354Y-144518066D01*
X118527674Y-144537519D01*
X118588753Y-144557839D01*
X118598432Y-144559966D01*
X118598434Y-144559967D01*
X118598436Y-144559967D01*
X123177848Y-145533461D01*
X123241736Y-145540629D01*
X123305641Y-145548703D01*
X123315552Y-145548911D01*
X127996836Y-145614384D01*
X128060942Y-145609002D01*
X128125155Y-145604513D01*
X128134918Y-145602792D01*
X132739766Y-144757753D01*
X132801620Y-144740018D01*
X132863724Y-144723146D01*
X132872966Y-144719561D01*
X137225979Y-142996196D01*
X137283184Y-142966798D01*
X137340855Y-142938172D01*
X137349225Y-142932860D01*
X141034979Y-140557673D01*
X141190484Y-140560930D01*
X141371062Y-140529089D01*
X141542015Y-140462781D01*
X141696834Y-140364530D01*
X141829620Y-140238079D01*
X141919954Y-140110022D01*
X142004882Y-140077081D01*
X142159701Y-139978830D01*
X142292487Y-139852379D01*
X142390101Y-139714002D01*
X142470818Y-139682694D01*
X142625637Y-139584443D01*
X142758423Y-139457992D01*
X142864119Y-139308158D01*
X142877780Y-139277475D01*
X142912145Y-139264146D01*
X143066964Y-139165895D01*
X143199750Y-139039444D01*
X143305446Y-138889610D01*
X143319166Y-138858794D01*
X143357867Y-138843783D01*
X143512686Y-138745532D01*
X143645472Y-138619081D01*
X143751168Y-138469247D01*
X143769921Y-138427129D01*
X143789596Y-138419497D01*
X143944415Y-138321246D01*
X144077201Y-138194795D01*
X144182897Y-138044961D01*
X144209613Y-137984957D01*
X144213883Y-137983301D01*
X144368702Y-137885050D01*
X144501488Y-137758599D01*
X144607184Y-137608765D01*
X144681765Y-137441255D01*
X144722389Y-137262449D01*
X144724483Y-137112450D01*
X145822710Y-135765891D01*
X145848053Y-135727747D01*
X145875871Y-135691372D01*
X145881037Y-135682911D01*
X148294877Y-131666862D01*
X148322487Y-131608737D01*
X148350907Y-131551000D01*
X148354331Y-131541697D01*
X149942146Y-127133282D01*
X149957937Y-127070913D01*
X149974604Y-127008744D01*
X149976156Y-126998953D01*
X150677466Y-122366088D01*
X150680841Y-122301860D01*
X150685117Y-122237617D01*
X150684738Y-122227711D01*
X150472829Y-117546859D01*
X150463659Y-117483160D01*
X150455380Y-117419349D01*
X150453084Y-117409705D01*
X149336029Y-112859159D01*
X149314667Y-112798472D01*
X149294146Y-112737467D01*
X149290020Y-112728453D01*
X147310367Y-108481542D01*
X147277641Y-108426188D01*
X147245645Y-108370302D01*
X147239847Y-108362261D01*
X144657224Y-104832532D01*
X144659215Y-104689914D01*
X144623600Y-104510043D01*
X144553725Y-104340515D01*
X144452254Y-104187788D01*
X144323050Y-104057679D01*
X144171035Y-103955144D01*
X144167524Y-103953668D01*
X144144030Y-103896667D01*
X144042559Y-103743940D01*
X143913355Y-103613831D01*
X143761340Y-103511296D01*
X143738305Y-103501613D01*
X143722666Y-103463671D01*
X143621195Y-103310944D01*
X143491991Y-103180835D01*
X143339976Y-103078300D01*
X143295849Y-103059751D01*
X143288192Y-103041174D01*
X143186721Y-102888447D01*
X143057517Y-102758338D01*
X142905502Y-102655803D01*
X142842623Y-102629371D01*
X142744107Y-102481092D01*
X142614903Y-102350983D01*
X142462888Y-102248448D01*
X142376072Y-102211954D01*
X142291124Y-102084096D01*
X142161920Y-101953987D01*
X142009905Y-101851452D01*
X141899217Y-101804923D01*
X141826807Y-101695937D01*
X141697603Y-101565828D01*
X141545588Y-101463293D01*
X141376553Y-101392237D01*
X141196935Y-101355367D01*
X141013577Y-101354087D01*
X140932946Y-101369468D01*
X137949953Y-99387572D01*
X137897509Y-99359687D01*
X137845842Y-99330335D01*
X137836758Y-99326366D01*
X133533646Y-97481934D01*
X133472347Y-97462488D01*
X133411248Y-97442161D01*
X133401566Y-97440033D01*
X128822152Y-96466539D01*
X128758260Y-96459371D01*
X128694359Y-96451297D01*
X128684448Y-96451089D01*
X124003164Y-96385616D01*
X123939060Y-96390998D01*
X123874845Y-96395487D01*
X123865083Y-96397208D01*
X119260234Y-97242247D01*
X119198380Y-97259982D01*
X119136276Y-97276854D01*
X119127034Y-97280439D01*
X114774021Y-99003804D01*
X114716816Y-99033202D01*
X114659145Y-99061828D01*
X114650775Y-99067140D01*
X111049912Y-101387622D01*
X110916208Y-101360177D01*
X110732850Y-101358897D01*
X110552734Y-101393255D01*
X110382723Y-101461944D01*
X110229292Y-101562347D01*
X110098284Y-101690640D01*
X110022030Y-101802006D01*
X109918712Y-101843749D01*
X109765281Y-101944152D01*
X109634273Y-102072445D01*
X109541266Y-102208278D01*
X109463754Y-102239595D01*
X109310323Y-102339998D01*
X109179315Y-102468291D01*
X109076198Y-102618890D01*
X109016152Y-102643150D01*
X108862721Y-102743553D01*
X108731713Y-102871846D01*
X108628119Y-103023141D01*
X108616856Y-103049419D01*
X108581515Y-103063698D01*
X108428084Y-103164101D01*
X108297076Y-103292394D01*
X108193482Y-103443689D01*
X108176797Y-103482618D01*
X108156241Y-103490923D01*
X108002810Y-103591326D01*
X107871802Y-103719619D01*
X107768208Y-103870914D01*
X107740906Y-103934615D01*
X107592766Y-104031555D01*
X107461758Y-104159848D01*
X107358164Y-104311143D01*
X107285929Y-104479678D01*
X107247806Y-104659034D01*
X107245246Y-104842379D01*
X107257574Y-104909550D01*
X106177290Y-106234109D01*
X106151948Y-106272252D01*
X106124128Y-106308629D01*
X106118962Y-106317089D01*
X103705123Y-110333138D01*
X103677520Y-110391250D01*
X103649093Y-110449000D01*
X103645669Y-110458303D01*
X102057854Y-114866718D01*
X102042068Y-114929069D01*
X102025396Y-114991255D01*
X102023844Y-115001046D01*
X101322534Y-119633912D01*
X101319159Y-119698141D01*
X101314883Y-119762383D01*
X99573130Y-119762383D01*
X99472829Y-117546859D01*
X99463659Y-117483160D01*
X99455380Y-117419349D01*
X99453084Y-117409705D01*
X98336029Y-112859159D01*
X98314667Y-112798472D01*
X98294146Y-112737467D01*
X98290020Y-112728453D01*
X96310367Y-108481542D01*
X96277641Y-108426188D01*
X96245645Y-108370302D01*
X96239847Y-108362261D01*
X93657224Y-104832532D01*
X93659215Y-104689914D01*
X93623600Y-104510043D01*
X93553725Y-104340515D01*
X93452254Y-104187788D01*
X93323050Y-104057679D01*
X93171035Y-103955144D01*
X93167524Y-103953668D01*
X93144030Y-103896667D01*
X93042559Y-103743940D01*
X92913355Y-103613831D01*
X92761340Y-103511296D01*
X92738305Y-103501613D01*
X92722666Y-103463671D01*
X92621195Y-103310944D01*
X92491991Y-103180835D01*
X92339976Y-103078300D01*
X92295849Y-103059751D01*
X92288192Y-103041174D01*
X92186721Y-102888447D01*
X92057517Y-102758338D01*
X91905502Y-102655803D01*
X91842623Y-102629371D01*
X91744107Y-102481092D01*
X91614903Y-102350983D01*
X91462888Y-102248448D01*
X91376072Y-102211954D01*
X91291124Y-102084096D01*
X91161920Y-101953987D01*
X91009905Y-101851452D01*
X90899217Y-101804923D01*
X90826807Y-101695937D01*
X90697603Y-101565828D01*
X90545588Y-101463293D01*
X90376553Y-101392237D01*
X90196935Y-101355367D01*
X90013577Y-101354087D01*
X89932946Y-101369468D01*
X86949953Y-99387572D01*
X86897509Y-99359687D01*
X86845842Y-99330335D01*
X86836758Y-99326366D01*
X82533646Y-97481934D01*
X82472347Y-97462488D01*
X82411248Y-97442161D01*
X82401566Y-97440033D01*
X77822152Y-96466539D01*
X77758260Y-96459371D01*
X77694359Y-96451297D01*
X77684448Y-96451089D01*
X73003164Y-96385616D01*
X72939060Y-96390998D01*
X72874845Y-96395487D01*
X72865083Y-96397208D01*
X68260234Y-97242247D01*
X68198380Y-97259982D01*
X68136276Y-97276854D01*
X68127034Y-97280439D01*
X63774021Y-99003804D01*
X63716816Y-99033202D01*
X63659145Y-99061828D01*
X63650775Y-99067140D01*
X60049912Y-101387622D01*
X59916208Y-101360177D01*
X59732850Y-101358897D01*
X59552734Y-101393255D01*
X59382723Y-101461944D01*
X59229292Y-101562347D01*
X59098284Y-101690640D01*
X59022030Y-101802006D01*
X58918712Y-101843749D01*
X58765281Y-101944152D01*
X58634273Y-102072445D01*
X58541266Y-102208278D01*
X58463754Y-102239595D01*
X58310323Y-102339998D01*
X58179315Y-102468291D01*
X58076198Y-102618890D01*
X58016152Y-102643150D01*
X57862721Y-102743553D01*
X57731713Y-102871846D01*
X57628119Y-103023141D01*
X57616856Y-103049419D01*
X57581515Y-103063698D01*
X57428084Y-103164101D01*
X57297076Y-103292394D01*
X57193482Y-103443689D01*
X57176797Y-103482618D01*
X57156241Y-103490923D01*
X57002810Y-103591326D01*
X56871802Y-103719619D01*
X56768208Y-103870914D01*
X56740906Y-103934615D01*
X56592766Y-104031555D01*
X56461758Y-104159848D01*
X56358164Y-104311143D01*
X56285929Y-104479678D01*
X56247806Y-104659034D01*
X56245246Y-104842379D01*
X56257574Y-104909550D01*
X55177290Y-106234109D01*
X55151948Y-106272252D01*
X55124128Y-106308629D01*
X55118962Y-106317089D01*
X52705123Y-110333138D01*
X52677520Y-110391250D01*
X52649093Y-110449000D01*
X52645669Y-110458303D01*
X51057854Y-114866718D01*
X51042068Y-114929069D01*
X51025396Y-114991255D01*
X51023844Y-115001046D01*
X50322534Y-119633912D01*
X50319159Y-119698141D01*
X50314883Y-119762383D01*
X47710000Y-119762383D01*
X47710000Y-68762383D01*
X50314883Y-68762383D01*
X50315262Y-68772289D01*
X50527171Y-73453141D01*
X50536341Y-73516840D01*
X50544620Y-73580651D01*
X50546916Y-73590295D01*
X51663971Y-78140840D01*
X51685325Y-78201505D01*
X51705854Y-78262533D01*
X51709980Y-78271547D01*
X53689633Y-82518458D01*
X53722374Y-82573837D01*
X53754355Y-82629698D01*
X53760153Y-82637739D01*
X56335343Y-86157307D01*
X56334280Y-86233416D01*
X56367381Y-86413767D01*
X56434881Y-86584253D01*
X56534210Y-86738382D01*
X56661585Y-86870283D01*
X56812153Y-86974930D01*
X56820356Y-86978514D01*
X56842416Y-87034232D01*
X56941745Y-87188361D01*
X57069120Y-87320262D01*
X57219688Y-87424909D01*
X57269834Y-87446817D01*
X57273809Y-87456856D01*
X57373138Y-87610985D01*
X57500513Y-87742886D01*
X57651081Y-87847533D01*
X57677318Y-87858996D01*
X57690791Y-87893025D01*
X57790120Y-88047154D01*
X57917495Y-88179055D01*
X58068063Y-88283702D01*
X58160210Y-88323960D01*
X58239618Y-88447178D01*
X58366993Y-88579079D01*
X58517561Y-88683726D01*
X58601979Y-88720607D01*
X58687125Y-88852728D01*
X58814500Y-88984629D01*
X58965068Y-89089276D01*
X59086879Y-89142494D01*
X59146812Y-89235492D01*
X59274187Y-89367393D01*
X59424755Y-89472040D01*
X59592782Y-89545449D01*
X59771868Y-89584824D01*
X59955190Y-89588664D01*
X59993792Y-89581857D01*
X63050047Y-91612428D01*
X63102482Y-91640308D01*
X63154157Y-91669665D01*
X63163241Y-91673634D01*
X67466354Y-93518066D01*
X67527674Y-93537519D01*
X67588753Y-93557839D01*
X67598432Y-93559966D01*
X67598434Y-93559967D01*
X67598436Y-93559967D01*
X72177848Y-94533461D01*
X72241736Y-94540629D01*
X72305641Y-94548703D01*
X72315552Y-94548911D01*
X76996836Y-94614384D01*
X77060942Y-94609002D01*
X77125155Y-94604513D01*
X77134918Y-94602792D01*
X81739766Y-93757753D01*
X81801620Y-93740018D01*
X81863724Y-93723146D01*
X81872966Y-93719561D01*
X86225979Y-91996196D01*
X86283184Y-91966798D01*
X86340855Y-91938172D01*
X86349225Y-91932860D01*
X90034979Y-89557673D01*
X90190484Y-89560930D01*
X90371062Y-89529089D01*
X90542015Y-89462781D01*
X90696834Y-89364530D01*
X90829620Y-89238079D01*
X90919954Y-89110022D01*
X91004882Y-89077081D01*
X91159701Y-88978830D01*
X91292487Y-88852379D01*
X91390101Y-88714002D01*
X91470818Y-88682694D01*
X91625637Y-88584443D01*
X91758423Y-88457992D01*
X91864119Y-88308158D01*
X91877780Y-88277475D01*
X91912145Y-88264146D01*
X92066964Y-88165895D01*
X92199750Y-88039444D01*
X92305446Y-87889610D01*
X92319166Y-87858794D01*
X92357867Y-87843783D01*
X92512686Y-87745532D01*
X92645472Y-87619081D01*
X92751168Y-87469247D01*
X92769921Y-87427129D01*
X92789596Y-87419497D01*
X92944415Y-87321246D01*
X93077201Y-87194795D01*
X93182897Y-87044961D01*
X93209613Y-86984957D01*
X93213883Y-86983301D01*
X93368702Y-86885050D01*
X93501488Y-86758599D01*
X93607184Y-86608765D01*
X93681765Y-86441255D01*
X93722389Y-86262449D01*
X93724483Y-86112450D01*
X94822710Y-84765891D01*
X94848053Y-84727747D01*
X94875871Y-84691372D01*
X94881037Y-84682911D01*
X97294877Y-80666862D01*
X97322487Y-80608737D01*
X97350907Y-80551000D01*
X97354331Y-80541697D01*
X98942146Y-76133282D01*
X98957937Y-76070913D01*
X98974604Y-76008744D01*
X98976156Y-75998953D01*
X99677466Y-71366088D01*
X99680841Y-71301860D01*
X99685117Y-71237617D01*
X99684738Y-71227711D01*
X99573130Y-68762383D01*
X101314883Y-68762383D01*
X101315262Y-68772289D01*
X101527171Y-73453141D01*
X101536341Y-73516840D01*
X101544620Y-73580651D01*
X101546916Y-73590295D01*
X102663971Y-78140840D01*
X102685325Y-78201505D01*
X102705854Y-78262533D01*
X102709980Y-78271547D01*
X104689633Y-82518458D01*
X104722374Y-82573837D01*
X104754355Y-82629698D01*
X104760153Y-82637739D01*
X107335343Y-86157307D01*
X107334280Y-86233416D01*
X107367381Y-86413767D01*
X107434881Y-86584253D01*
X107534210Y-86738382D01*
X107661585Y-86870283D01*
X107812153Y-86974930D01*
X107820356Y-86978514D01*
X107842416Y-87034232D01*
X107941745Y-87188361D01*
X108069120Y-87320262D01*
X108219688Y-87424909D01*
X108269834Y-87446817D01*
X108273809Y-87456856D01*
X108373138Y-87610985D01*
X108500513Y-87742886D01*
X108651081Y-87847533D01*
X108677318Y-87858996D01*
X108690791Y-87893025D01*
X108790120Y-88047154D01*
X108917495Y-88179055D01*
X109068063Y-88283702D01*
X109160210Y-88323960D01*
X109239618Y-88447178D01*
X109366993Y-88579079D01*
X109517561Y-88683726D01*
X109601979Y-88720607D01*
X109687125Y-88852728D01*
X109814500Y-88984629D01*
X109965068Y-89089276D01*
X110086879Y-89142494D01*
X110146812Y-89235492D01*
X110274187Y-89367393D01*
X110424755Y-89472040D01*
X110592782Y-89545449D01*
X110771868Y-89584824D01*
X110955190Y-89588664D01*
X110993792Y-89581857D01*
X114050047Y-91612428D01*
X114102482Y-91640308D01*
X114154157Y-91669665D01*
X114163241Y-91673634D01*
X118466354Y-93518066D01*
X118527674Y-93537519D01*
X118588753Y-93557839D01*
X118598432Y-93559966D01*
X118598434Y-93559967D01*
X118598436Y-93559967D01*
X123177848Y-94533461D01*
X123241736Y-94540629D01*
X123305641Y-94548703D01*
X123315552Y-94548911D01*
X127996836Y-94614384D01*
X128060942Y-94609002D01*
X128125155Y-94604513D01*
X128134918Y-94602792D01*
X132739766Y-93757753D01*
X132801620Y-93740018D01*
X132863724Y-93723146D01*
X132872966Y-93719561D01*
X137225979Y-91996196D01*
X137283184Y-91966798D01*
X137340855Y-91938172D01*
X137349225Y-91932860D01*
X141034979Y-89557673D01*
X141190484Y-89560930D01*
X141371062Y-89529089D01*
X141542015Y-89462781D01*
X141696834Y-89364530D01*
X141829620Y-89238079D01*
X141919954Y-89110022D01*
X142004882Y-89077081D01*
X142159701Y-88978830D01*
X142292487Y-88852379D01*
X142390101Y-88714002D01*
X142470818Y-88682694D01*
X142625637Y-88584443D01*
X142758423Y-88457992D01*
X142864119Y-88308158D01*
X142877780Y-88277475D01*
X142912145Y-88264146D01*
X143066964Y-88165895D01*
X143199750Y-88039444D01*
X143305446Y-87889610D01*
X143319166Y-87858794D01*
X143357867Y-87843783D01*
X143512686Y-87745532D01*
X143645472Y-87619081D01*
X143751168Y-87469247D01*
X143769921Y-87427129D01*
X143789596Y-87419497D01*
X143944415Y-87321246D01*
X144077201Y-87194795D01*
X144182897Y-87044961D01*
X144209613Y-86984957D01*
X144213883Y-86983301D01*
X144368702Y-86885050D01*
X144501488Y-86758599D01*
X144607184Y-86608765D01*
X144681765Y-86441255D01*
X144722389Y-86262449D01*
X144724483Y-86112450D01*
X145822710Y-84765891D01*
X145848053Y-84727747D01*
X145875871Y-84691372D01*
X145881037Y-84682911D01*
X148294877Y-80666862D01*
X148322487Y-80608737D01*
X148350907Y-80551000D01*
X148354331Y-80541697D01*
X149942146Y-76133282D01*
X149957937Y-76070913D01*
X149974604Y-76008744D01*
X149976156Y-75998953D01*
X150677466Y-71366088D01*
X150680841Y-71301860D01*
X150685117Y-71237617D01*
X150684738Y-71227711D01*
X150472829Y-66546859D01*
X150463659Y-66483160D01*
X150455380Y-66419349D01*
X150453084Y-66409705D01*
X149336029Y-61859159D01*
X149314667Y-61798472D01*
X149294146Y-61737467D01*
X149290020Y-61728453D01*
X147310367Y-57481542D01*
X147277641Y-57426188D01*
X147245645Y-57370302D01*
X147239847Y-57362261D01*
X144657224Y-53832532D01*
X144659215Y-53689914D01*
X144623600Y-53510043D01*
X144553725Y-53340515D01*
X144452254Y-53187788D01*
X144323050Y-53057679D01*
X144171035Y-52955144D01*
X144167524Y-52953668D01*
X144144030Y-52896667D01*
X144042559Y-52743940D01*
X143913355Y-52613831D01*
X143761340Y-52511296D01*
X143738305Y-52501613D01*
X143722666Y-52463671D01*
X143621195Y-52310944D01*
X143491991Y-52180835D01*
X143339976Y-52078300D01*
X143295849Y-52059751D01*
X143288192Y-52041174D01*
X143186721Y-51888447D01*
X143057517Y-51758338D01*
X142905502Y-51655803D01*
X142842623Y-51629371D01*
X142744107Y-51481092D01*
X142614903Y-51350983D01*
X142462888Y-51248448D01*
X142376072Y-51211954D01*
X142291124Y-51084096D01*
X142161920Y-50953987D01*
X142009905Y-50851452D01*
X141899217Y-50804923D01*
X141826807Y-50695937D01*
X141697603Y-50565828D01*
X141545588Y-50463293D01*
X141376553Y-50392237D01*
X141196935Y-50355367D01*
X141013577Y-50354087D01*
X140932946Y-50369468D01*
X137949953Y-48387572D01*
X137897509Y-48359687D01*
X137845842Y-48330335D01*
X137836758Y-48326366D01*
X133533646Y-46481934D01*
X133472347Y-46462488D01*
X133411248Y-46442161D01*
X133401566Y-46440033D01*
X128822152Y-45466539D01*
X128758260Y-45459371D01*
X128694359Y-45451297D01*
X128684448Y-45451089D01*
X124003164Y-45385616D01*
X123939060Y-45390998D01*
X123874845Y-45395487D01*
X123865083Y-45397208D01*
X119260234Y-46242247D01*
X119198380Y-46259982D01*
X119136276Y-46276854D01*
X119127034Y-46280439D01*
X114774021Y-48003804D01*
X114716816Y-48033202D01*
X114659145Y-48061828D01*
X114650775Y-48067140D01*
X111049912Y-50387622D01*
X110916208Y-50360177D01*
X110732850Y-50358897D01*
X110552734Y-50393255D01*
X110382723Y-50461944D01*
X110229292Y-50562347D01*
X110098284Y-50690640D01*
X110022030Y-50802006D01*
X109918712Y-50843749D01*
X109765281Y-50944152D01*
X109634273Y-51072445D01*
X109541266Y-51208278D01*
X109463754Y-51239595D01*
X109310323Y-51339998D01*
X109179315Y-51468291D01*
X109076198Y-51618890D01*
X109016152Y-51643150D01*
X108862721Y-51743553D01*
X108731713Y-51871846D01*
X108628119Y-52023141D01*
X108616856Y-52049419D01*
X108581515Y-52063698D01*
X108428084Y-52164101D01*
X108297076Y-52292394D01*
X108193482Y-52443689D01*
X108176797Y-52482618D01*
X108156241Y-52490923D01*
X108002810Y-52591326D01*
X107871802Y-52719619D01*
X107768208Y-52870914D01*
X107740906Y-52934615D01*
X107592766Y-53031555D01*
X107461758Y-53159848D01*
X107358164Y-53311143D01*
X107285929Y-53479678D01*
X107247806Y-53659034D01*
X107245246Y-53842379D01*
X107257574Y-53909550D01*
X106177290Y-55234109D01*
X106151948Y-55272252D01*
X106124128Y-55308629D01*
X106118962Y-55317089D01*
X103705123Y-59333138D01*
X103677520Y-59391250D01*
X103649093Y-59449000D01*
X103645669Y-59458303D01*
X102057854Y-63866718D01*
X102042068Y-63929069D01*
X102025396Y-63991255D01*
X102023844Y-64001046D01*
X101322534Y-68633912D01*
X101319159Y-68698141D01*
X101314883Y-68762383D01*
X99573130Y-68762383D01*
X99472829Y-66546859D01*
X99463659Y-66483160D01*
X99455380Y-66419349D01*
X99453084Y-66409705D01*
X98336029Y-61859159D01*
X98314667Y-61798472D01*
X98294146Y-61737467D01*
X98290020Y-61728453D01*
X96310367Y-57481542D01*
X96277641Y-57426188D01*
X96245645Y-57370302D01*
X96239847Y-57362261D01*
X93657224Y-53832532D01*
X93659215Y-53689914D01*
X93623600Y-53510043D01*
X93553725Y-53340515D01*
X93452254Y-53187788D01*
X93323050Y-53057679D01*
X93171035Y-52955144D01*
X93167524Y-52953668D01*
X93144030Y-52896667D01*
X93042559Y-52743940D01*
X92913355Y-52613831D01*
X92761340Y-52511296D01*
X92738305Y-52501613D01*
X92722666Y-52463671D01*
X92621195Y-52310944D01*
X92491991Y-52180835D01*
X92339976Y-52078300D01*
X92295849Y-52059751D01*
X92288192Y-52041174D01*
X92186721Y-51888447D01*
X92057517Y-51758338D01*
X91905502Y-51655803D01*
X91842623Y-51629371D01*
X91744107Y-51481092D01*
X91614903Y-51350983D01*
X91462888Y-51248448D01*
X91376072Y-51211954D01*
X91291124Y-51084096D01*
X91161920Y-50953987D01*
X91009905Y-50851452D01*
X90899217Y-50804923D01*
X90826807Y-50695937D01*
X90697603Y-50565828D01*
X90545588Y-50463293D01*
X90376553Y-50392237D01*
X90196935Y-50355367D01*
X90013577Y-50354087D01*
X89932946Y-50369468D01*
X86949953Y-48387572D01*
X86897509Y-48359687D01*
X86845842Y-48330335D01*
X86836758Y-48326366D01*
X82533646Y-46481934D01*
X82472347Y-46462488D01*
X82411248Y-46442161D01*
X82401566Y-46440033D01*
X77822152Y-45466539D01*
X77758260Y-45459371D01*
X77694359Y-45451297D01*
X77684448Y-45451089D01*
X73003164Y-45385616D01*
X72939060Y-45390998D01*
X72874845Y-45395487D01*
X72865083Y-45397208D01*
X68260234Y-46242247D01*
X68198380Y-46259982D01*
X68136276Y-46276854D01*
X68127034Y-46280439D01*
X63774021Y-48003804D01*
X63716816Y-48033202D01*
X63659145Y-48061828D01*
X63650775Y-48067140D01*
X60049912Y-50387622D01*
X59916208Y-50360177D01*
X59732850Y-50358897D01*
X59552734Y-50393255D01*
X59382723Y-50461944D01*
X59229292Y-50562347D01*
X59098284Y-50690640D01*
X59022030Y-50802006D01*
X58918712Y-50843749D01*
X58765281Y-50944152D01*
X58634273Y-51072445D01*
X58541266Y-51208278D01*
X58463754Y-51239595D01*
X58310323Y-51339998D01*
X58179315Y-51468291D01*
X58076198Y-51618890D01*
X58016152Y-51643150D01*
X57862721Y-51743553D01*
X57731713Y-51871846D01*
X57628119Y-52023141D01*
X57616856Y-52049419D01*
X57581515Y-52063698D01*
X57428084Y-52164101D01*
X57297076Y-52292394D01*
X57193482Y-52443689D01*
X57176797Y-52482618D01*
X57156241Y-52490923D01*
X57002810Y-52591326D01*
X56871802Y-52719619D01*
X56768208Y-52870914D01*
X56740906Y-52934615D01*
X56592766Y-53031555D01*
X56461758Y-53159848D01*
X56358164Y-53311143D01*
X56285929Y-53479678D01*
X56247806Y-53659034D01*
X56245246Y-53842379D01*
X56257574Y-53909550D01*
X55177290Y-55234109D01*
X55151948Y-55272252D01*
X55124128Y-55308629D01*
X55118962Y-55317089D01*
X52705123Y-59333138D01*
X52677520Y-59391250D01*
X52649093Y-59449000D01*
X52645669Y-59458303D01*
X51057854Y-63866718D01*
X51042068Y-63929069D01*
X51025396Y-63991255D01*
X51023844Y-64001046D01*
X50322534Y-68633912D01*
X50319159Y-68698141D01*
X50314883Y-68762383D01*
X47710000Y-68762383D01*
X47710000Y-42710000D01*
X153290000Y-42710000D01*
X153290000Y-148290000D01*
X153290000Y-148290000D01*
G37*
X153290000Y-148290000D02*
X47710000Y-148290000D01*
X47710000Y-119762383D01*
X50314883Y-119762383D01*
X50315262Y-119772289D01*
X50527171Y-124453141D01*
X50536341Y-124516840D01*
X50544620Y-124580651D01*
X50546916Y-124590295D01*
X51663971Y-129140840D01*
X51685325Y-129201505D01*
X51705854Y-129262533D01*
X51709980Y-129271547D01*
X53689633Y-133518458D01*
X53722374Y-133573837D01*
X53754355Y-133629698D01*
X53760153Y-133637739D01*
X56335343Y-137157307D01*
X56334280Y-137233416D01*
X56367381Y-137413767D01*
X56434881Y-137584253D01*
X56534210Y-137738382D01*
X56661585Y-137870283D01*
X56812153Y-137974930D01*
X56820356Y-137978514D01*
X56842416Y-138034232D01*
X56941745Y-138188361D01*
X57069120Y-138320262D01*
X57219688Y-138424909D01*
X57269834Y-138446817D01*
X57273809Y-138456856D01*
X57373138Y-138610985D01*
X57500513Y-138742886D01*
X57651081Y-138847533D01*
X57677318Y-138858996D01*
X57690791Y-138893025D01*
X57790120Y-139047154D01*
X57917495Y-139179055D01*
X58068063Y-139283702D01*
X58160210Y-139323960D01*
X58239618Y-139447178D01*
X58366993Y-139579079D01*
X58517561Y-139683726D01*
X58601979Y-139720607D01*
X58687125Y-139852728D01*
X58814500Y-139984629D01*
X58965068Y-140089276D01*
X59086879Y-140142494D01*
X59146812Y-140235492D01*
X59274187Y-140367393D01*
X59424755Y-140472040D01*
X59592782Y-140545449D01*
X59771868Y-140584824D01*
X59955190Y-140588664D01*
X59993792Y-140581857D01*
X63050047Y-142612428D01*
X63102482Y-142640308D01*
X63154157Y-142669665D01*
X63163241Y-142673634D01*
X67466354Y-144518066D01*
X67527674Y-144537519D01*
X67588753Y-144557839D01*
X67598432Y-144559966D01*
X67598434Y-144559967D01*
X67598436Y-144559967D01*
X72177848Y-145533461D01*
X72241736Y-145540629D01*
X72305641Y-145548703D01*
X72315552Y-145548911D01*
X76996836Y-145614384D01*
X77060942Y-145609002D01*
X77125155Y-145604513D01*
X77134918Y-145602792D01*
X81739766Y-144757753D01*
X81801620Y-144740018D01*
X81863724Y-144723146D01*
X81872966Y-144719561D01*
X86225979Y-142996196D01*
X86283184Y-142966798D01*
X86340855Y-142938172D01*
X86349225Y-142932860D01*
X90034979Y-140557673D01*
X90190484Y-140560930D01*
X90371062Y-140529089D01*
X90542015Y-140462781D01*
X90696834Y-140364530D01*
X90829620Y-140238079D01*
X90919954Y-140110022D01*
X91004882Y-140077081D01*
X91159701Y-139978830D01*
X91292487Y-139852379D01*
X91390101Y-139714002D01*
X91470818Y-139682694D01*
X91625637Y-139584443D01*
X91758423Y-139457992D01*
X91864119Y-139308158D01*
X91877780Y-139277475D01*
X91912145Y-139264146D01*
X92066964Y-139165895D01*
X92199750Y-139039444D01*
X92305446Y-138889610D01*
X92319166Y-138858794D01*
X92357867Y-138843783D01*
X92512686Y-138745532D01*
X92645472Y-138619081D01*
X92751168Y-138469247D01*
X92769921Y-138427129D01*
X92789596Y-138419497D01*
X92944415Y-138321246D01*
X93077201Y-138194795D01*
X93182897Y-138044961D01*
X93209613Y-137984957D01*
X93213883Y-137983301D01*
X93368702Y-137885050D01*
X93501488Y-137758599D01*
X93607184Y-137608765D01*
X93681765Y-137441255D01*
X93722389Y-137262449D01*
X93724483Y-137112450D01*
X94822710Y-135765891D01*
X94848053Y-135727747D01*
X94875871Y-135691372D01*
X94881037Y-135682911D01*
X97294877Y-131666862D01*
X97322487Y-131608737D01*
X97350907Y-131551000D01*
X97354331Y-131541697D01*
X98942146Y-127133282D01*
X98957937Y-127070913D01*
X98974604Y-127008744D01*
X98976156Y-126998953D01*
X99677466Y-122366088D01*
X99680841Y-122301860D01*
X99685117Y-122237617D01*
X99684738Y-122227711D01*
X99573130Y-119762383D01*
X101314883Y-119762383D01*
X101315262Y-119772289D01*
X101527171Y-124453141D01*
X101536341Y-124516840D01*
X101544620Y-124580651D01*
X101546916Y-124590295D01*
X102663971Y-129140840D01*
X102685325Y-129201505D01*
X102705854Y-129262533D01*
X102709980Y-129271547D01*
X104689633Y-133518458D01*
X104722374Y-133573837D01*
X104754355Y-133629698D01*
X104760153Y-133637739D01*
X107335343Y-137157307D01*
X107334280Y-137233416D01*
X107367381Y-137413767D01*
X107434881Y-137584253D01*
X107534210Y-137738382D01*
X107661585Y-137870283D01*
X107812153Y-137974930D01*
X107820356Y-137978514D01*
X107842416Y-138034232D01*
X107941745Y-138188361D01*
X108069120Y-138320262D01*
X108219688Y-138424909D01*
X108269834Y-138446817D01*
X108273809Y-138456856D01*
X108373138Y-138610985D01*
X108500513Y-138742886D01*
X108651081Y-138847533D01*
X108677318Y-138858996D01*
X108690791Y-138893025D01*
X108790120Y-139047154D01*
X108917495Y-139179055D01*
X109068063Y-139283702D01*
X109160210Y-139323960D01*
X109239618Y-139447178D01*
X109366993Y-139579079D01*
X109517561Y-139683726D01*
X109601979Y-139720607D01*
X109687125Y-139852728D01*
X109814500Y-139984629D01*
X109965068Y-140089276D01*
X110086879Y-140142494D01*
X110146812Y-140235492D01*
X110274187Y-140367393D01*
X110424755Y-140472040D01*
X110592782Y-140545449D01*
X110771868Y-140584824D01*
X110955190Y-140588664D01*
X110993792Y-140581857D01*
X114050047Y-142612428D01*
X114102482Y-142640308D01*
X114154157Y-142669665D01*
X114163241Y-142673634D01*
X118466354Y-144518066D01*
X118527674Y-144537519D01*
X118588753Y-144557839D01*
X118598432Y-144559966D01*
X118598434Y-144559967D01*
X118598436Y-144559967D01*
X123177848Y-145533461D01*
X123241736Y-145540629D01*
X123305641Y-145548703D01*
X123315552Y-145548911D01*
X127996836Y-145614384D01*
X128060942Y-145609002D01*
X128125155Y-145604513D01*
X128134918Y-145602792D01*
X132739766Y-144757753D01*
X132801620Y-144740018D01*
X132863724Y-144723146D01*
X132872966Y-144719561D01*
X137225979Y-142996196D01*
X137283184Y-142966798D01*
X137340855Y-142938172D01*
X137349225Y-142932860D01*
X141034979Y-140557673D01*
X141190484Y-140560930D01*
X141371062Y-140529089D01*
X141542015Y-140462781D01*
X141696834Y-140364530D01*
X141829620Y-140238079D01*
X141919954Y-140110022D01*
X142004882Y-140077081D01*
X142159701Y-139978830D01*
X142292487Y-139852379D01*
X142390101Y-139714002D01*
X142470818Y-139682694D01*
X142625637Y-139584443D01*
X142758423Y-139457992D01*
X142864119Y-139308158D01*
X142877780Y-139277475D01*
X142912145Y-139264146D01*
X143066964Y-139165895D01*
X143199750Y-139039444D01*
X143305446Y-138889610D01*
X143319166Y-138858794D01*
X143357867Y-138843783D01*
X143512686Y-138745532D01*
X143645472Y-138619081D01*
X143751168Y-138469247D01*
X143769921Y-138427129D01*
X143789596Y-138419497D01*
X143944415Y-138321246D01*
X144077201Y-138194795D01*
X144182897Y-138044961D01*
X144209613Y-137984957D01*
X144213883Y-137983301D01*
X144368702Y-137885050D01*
X144501488Y-137758599D01*
X144607184Y-137608765D01*
X144681765Y-137441255D01*
X144722389Y-137262449D01*
X144724483Y-137112450D01*
X145822710Y-135765891D01*
X145848053Y-135727747D01*
X145875871Y-135691372D01*
X145881037Y-135682911D01*
X148294877Y-131666862D01*
X148322487Y-131608737D01*
X148350907Y-131551000D01*
X148354331Y-131541697D01*
X149942146Y-127133282D01*
X149957937Y-127070913D01*
X149974604Y-127008744D01*
X149976156Y-126998953D01*
X150677466Y-122366088D01*
X150680841Y-122301860D01*
X150685117Y-122237617D01*
X150684738Y-122227711D01*
X150472829Y-117546859D01*
X150463659Y-117483160D01*
X150455380Y-117419349D01*
X150453084Y-117409705D01*
X149336029Y-112859159D01*
X149314667Y-112798472D01*
X149294146Y-112737467D01*
X149290020Y-112728453D01*
X147310367Y-108481542D01*
X147277641Y-108426188D01*
X147245645Y-108370302D01*
X147239847Y-108362261D01*
X144657224Y-104832532D01*
X144659215Y-104689914D01*
X144623600Y-104510043D01*
X144553725Y-104340515D01*
X144452254Y-104187788D01*
X144323050Y-104057679D01*
X144171035Y-103955144D01*
X144167524Y-103953668D01*
X144144030Y-103896667D01*
X144042559Y-103743940D01*
X143913355Y-103613831D01*
X143761340Y-103511296D01*
X143738305Y-103501613D01*
X143722666Y-103463671D01*
X143621195Y-103310944D01*
X143491991Y-103180835D01*
X143339976Y-103078300D01*
X143295849Y-103059751D01*
X143288192Y-103041174D01*
X143186721Y-102888447D01*
X143057517Y-102758338D01*
X142905502Y-102655803D01*
X142842623Y-102629371D01*
X142744107Y-102481092D01*
X142614903Y-102350983D01*
X142462888Y-102248448D01*
X142376072Y-102211954D01*
X142291124Y-102084096D01*
X142161920Y-101953987D01*
X142009905Y-101851452D01*
X141899217Y-101804923D01*
X141826807Y-101695937D01*
X141697603Y-101565828D01*
X141545588Y-101463293D01*
X141376553Y-101392237D01*
X141196935Y-101355367D01*
X141013577Y-101354087D01*
X140932946Y-101369468D01*
X137949953Y-99387572D01*
X137897509Y-99359687D01*
X137845842Y-99330335D01*
X137836758Y-99326366D01*
X133533646Y-97481934D01*
X133472347Y-97462488D01*
X133411248Y-97442161D01*
X133401566Y-97440033D01*
X128822152Y-96466539D01*
X128758260Y-96459371D01*
X128694359Y-96451297D01*
X128684448Y-96451089D01*
X124003164Y-96385616D01*
X123939060Y-96390998D01*
X123874845Y-96395487D01*
X123865083Y-96397208D01*
X119260234Y-97242247D01*
X119198380Y-97259982D01*
X119136276Y-97276854D01*
X119127034Y-97280439D01*
X114774021Y-99003804D01*
X114716816Y-99033202D01*
X114659145Y-99061828D01*
X114650775Y-99067140D01*
X111049912Y-101387622D01*
X110916208Y-101360177D01*
X110732850Y-101358897D01*
X110552734Y-101393255D01*
X110382723Y-101461944D01*
X110229292Y-101562347D01*
X110098284Y-101690640D01*
X110022030Y-101802006D01*
X109918712Y-101843749D01*
X109765281Y-101944152D01*
X109634273Y-102072445D01*
X109541266Y-102208278D01*
X109463754Y-102239595D01*
X109310323Y-102339998D01*
X109179315Y-102468291D01*
X109076198Y-102618890D01*
X109016152Y-102643150D01*
X108862721Y-102743553D01*
X108731713Y-102871846D01*
X108628119Y-103023141D01*
X108616856Y-103049419D01*
X108581515Y-103063698D01*
X108428084Y-103164101D01*
X108297076Y-103292394D01*
X108193482Y-103443689D01*
X108176797Y-103482618D01*
X108156241Y-103490923D01*
X108002810Y-103591326D01*
X107871802Y-103719619D01*
X107768208Y-103870914D01*
X107740906Y-103934615D01*
X107592766Y-104031555D01*
X107461758Y-104159848D01*
X107358164Y-104311143D01*
X107285929Y-104479678D01*
X107247806Y-104659034D01*
X107245246Y-104842379D01*
X107257574Y-104909550D01*
X106177290Y-106234109D01*
X106151948Y-106272252D01*
X106124128Y-106308629D01*
X106118962Y-106317089D01*
X103705123Y-110333138D01*
X103677520Y-110391250D01*
X103649093Y-110449000D01*
X103645669Y-110458303D01*
X102057854Y-114866718D01*
X102042068Y-114929069D01*
X102025396Y-114991255D01*
X102023844Y-115001046D01*
X101322534Y-119633912D01*
X101319159Y-119698141D01*
X101314883Y-119762383D01*
X99573130Y-119762383D01*
X99472829Y-117546859D01*
X99463659Y-117483160D01*
X99455380Y-117419349D01*
X99453084Y-117409705D01*
X98336029Y-112859159D01*
X98314667Y-112798472D01*
X98294146Y-112737467D01*
X98290020Y-112728453D01*
X96310367Y-108481542D01*
X96277641Y-108426188D01*
X96245645Y-108370302D01*
X96239847Y-108362261D01*
X93657224Y-104832532D01*
X93659215Y-104689914D01*
X93623600Y-104510043D01*
X93553725Y-104340515D01*
X93452254Y-104187788D01*
X93323050Y-104057679D01*
X93171035Y-103955144D01*
X93167524Y-103953668D01*
X93144030Y-103896667D01*
X93042559Y-103743940D01*
X92913355Y-103613831D01*
X92761340Y-103511296D01*
X92738305Y-103501613D01*
X92722666Y-103463671D01*
X92621195Y-103310944D01*
X92491991Y-103180835D01*
X92339976Y-103078300D01*
X92295849Y-103059751D01*
X92288192Y-103041174D01*
X92186721Y-102888447D01*
X92057517Y-102758338D01*
X91905502Y-102655803D01*
X91842623Y-102629371D01*
X91744107Y-102481092D01*
X91614903Y-102350983D01*
X91462888Y-102248448D01*
X91376072Y-102211954D01*
X91291124Y-102084096D01*
X91161920Y-101953987D01*
X91009905Y-101851452D01*
X90899217Y-101804923D01*
X90826807Y-101695937D01*
X90697603Y-101565828D01*
X90545588Y-101463293D01*
X90376553Y-101392237D01*
X90196935Y-101355367D01*
X90013577Y-101354087D01*
X89932946Y-101369468D01*
X86949953Y-99387572D01*
X86897509Y-99359687D01*
X86845842Y-99330335D01*
X86836758Y-99326366D01*
X82533646Y-97481934D01*
X82472347Y-97462488D01*
X82411248Y-97442161D01*
X82401566Y-97440033D01*
X77822152Y-96466539D01*
X77758260Y-96459371D01*
X77694359Y-96451297D01*
X77684448Y-96451089D01*
X73003164Y-96385616D01*
X72939060Y-96390998D01*
X72874845Y-96395487D01*
X72865083Y-96397208D01*
X68260234Y-97242247D01*
X68198380Y-97259982D01*
X68136276Y-97276854D01*
X68127034Y-97280439D01*
X63774021Y-99003804D01*
X63716816Y-99033202D01*
X63659145Y-99061828D01*
X63650775Y-99067140D01*
X60049912Y-101387622D01*
X59916208Y-101360177D01*
X59732850Y-101358897D01*
X59552734Y-101393255D01*
X59382723Y-101461944D01*
X59229292Y-101562347D01*
X59098284Y-101690640D01*
X59022030Y-101802006D01*
X58918712Y-101843749D01*
X58765281Y-101944152D01*
X58634273Y-102072445D01*
X58541266Y-102208278D01*
X58463754Y-102239595D01*
X58310323Y-102339998D01*
X58179315Y-102468291D01*
X58076198Y-102618890D01*
X58016152Y-102643150D01*
X57862721Y-102743553D01*
X57731713Y-102871846D01*
X57628119Y-103023141D01*
X57616856Y-103049419D01*
X57581515Y-103063698D01*
X57428084Y-103164101D01*
X57297076Y-103292394D01*
X57193482Y-103443689D01*
X57176797Y-103482618D01*
X57156241Y-103490923D01*
X57002810Y-103591326D01*
X56871802Y-103719619D01*
X56768208Y-103870914D01*
X56740906Y-103934615D01*
X56592766Y-104031555D01*
X56461758Y-104159848D01*
X56358164Y-104311143D01*
X56285929Y-104479678D01*
X56247806Y-104659034D01*
X56245246Y-104842379D01*
X56257574Y-104909550D01*
X55177290Y-106234109D01*
X55151948Y-106272252D01*
X55124128Y-106308629D01*
X55118962Y-106317089D01*
X52705123Y-110333138D01*
X52677520Y-110391250D01*
X52649093Y-110449000D01*
X52645669Y-110458303D01*
X51057854Y-114866718D01*
X51042068Y-114929069D01*
X51025396Y-114991255D01*
X51023844Y-115001046D01*
X50322534Y-119633912D01*
X50319159Y-119698141D01*
X50314883Y-119762383D01*
X47710000Y-119762383D01*
X47710000Y-68762383D01*
X50314883Y-68762383D01*
X50315262Y-68772289D01*
X50527171Y-73453141D01*
X50536341Y-73516840D01*
X50544620Y-73580651D01*
X50546916Y-73590295D01*
X51663971Y-78140840D01*
X51685325Y-78201505D01*
X51705854Y-78262533D01*
X51709980Y-78271547D01*
X53689633Y-82518458D01*
X53722374Y-82573837D01*
X53754355Y-82629698D01*
X53760153Y-82637739D01*
X56335343Y-86157307D01*
X56334280Y-86233416D01*
X56367381Y-86413767D01*
X56434881Y-86584253D01*
X56534210Y-86738382D01*
X56661585Y-86870283D01*
X56812153Y-86974930D01*
X56820356Y-86978514D01*
X56842416Y-87034232D01*
X56941745Y-87188361D01*
X57069120Y-87320262D01*
X57219688Y-87424909D01*
X57269834Y-87446817D01*
X57273809Y-87456856D01*
X57373138Y-87610985D01*
X57500513Y-87742886D01*
X57651081Y-87847533D01*
X57677318Y-87858996D01*
X57690791Y-87893025D01*
X57790120Y-88047154D01*
X57917495Y-88179055D01*
X58068063Y-88283702D01*
X58160210Y-88323960D01*
X58239618Y-88447178D01*
X58366993Y-88579079D01*
X58517561Y-88683726D01*
X58601979Y-88720607D01*
X58687125Y-88852728D01*
X58814500Y-88984629D01*
X58965068Y-89089276D01*
X59086879Y-89142494D01*
X59146812Y-89235492D01*
X59274187Y-89367393D01*
X59424755Y-89472040D01*
X59592782Y-89545449D01*
X59771868Y-89584824D01*
X59955190Y-89588664D01*
X59993792Y-89581857D01*
X63050047Y-91612428D01*
X63102482Y-91640308D01*
X63154157Y-91669665D01*
X63163241Y-91673634D01*
X67466354Y-93518066D01*
X67527674Y-93537519D01*
X67588753Y-93557839D01*
X67598432Y-93559966D01*
X67598434Y-93559967D01*
X67598436Y-93559967D01*
X72177848Y-94533461D01*
X72241736Y-94540629D01*
X72305641Y-94548703D01*
X72315552Y-94548911D01*
X76996836Y-94614384D01*
X77060942Y-94609002D01*
X77125155Y-94604513D01*
X77134918Y-94602792D01*
X81739766Y-93757753D01*
X81801620Y-93740018D01*
X81863724Y-93723146D01*
X81872966Y-93719561D01*
X86225979Y-91996196D01*
X86283184Y-91966798D01*
X86340855Y-91938172D01*
X86349225Y-91932860D01*
X90034979Y-89557673D01*
X90190484Y-89560930D01*
X90371062Y-89529089D01*
X90542015Y-89462781D01*
X90696834Y-89364530D01*
X90829620Y-89238079D01*
X90919954Y-89110022D01*
X91004882Y-89077081D01*
X91159701Y-88978830D01*
X91292487Y-88852379D01*
X91390101Y-88714002D01*
X91470818Y-88682694D01*
X91625637Y-88584443D01*
X91758423Y-88457992D01*
X91864119Y-88308158D01*
X91877780Y-88277475D01*
X91912145Y-88264146D01*
X92066964Y-88165895D01*
X92199750Y-88039444D01*
X92305446Y-87889610D01*
X92319166Y-87858794D01*
X92357867Y-87843783D01*
X92512686Y-87745532D01*
X92645472Y-87619081D01*
X92751168Y-87469247D01*
X92769921Y-87427129D01*
X92789596Y-87419497D01*
X92944415Y-87321246D01*
X93077201Y-87194795D01*
X93182897Y-87044961D01*
X93209613Y-86984957D01*
X93213883Y-86983301D01*
X93368702Y-86885050D01*
X93501488Y-86758599D01*
X93607184Y-86608765D01*
X93681765Y-86441255D01*
X93722389Y-86262449D01*
X93724483Y-86112450D01*
X94822710Y-84765891D01*
X94848053Y-84727747D01*
X94875871Y-84691372D01*
X94881037Y-84682911D01*
X97294877Y-80666862D01*
X97322487Y-80608737D01*
X97350907Y-80551000D01*
X97354331Y-80541697D01*
X98942146Y-76133282D01*
X98957937Y-76070913D01*
X98974604Y-76008744D01*
X98976156Y-75998953D01*
X99677466Y-71366088D01*
X99680841Y-71301860D01*
X99685117Y-71237617D01*
X99684738Y-71227711D01*
X99573130Y-68762383D01*
X101314883Y-68762383D01*
X101315262Y-68772289D01*
X101527171Y-73453141D01*
X101536341Y-73516840D01*
X101544620Y-73580651D01*
X101546916Y-73590295D01*
X102663971Y-78140840D01*
X102685325Y-78201505D01*
X102705854Y-78262533D01*
X102709980Y-78271547D01*
X104689633Y-82518458D01*
X104722374Y-82573837D01*
X104754355Y-82629698D01*
X104760153Y-82637739D01*
X107335343Y-86157307D01*
X107334280Y-86233416D01*
X107367381Y-86413767D01*
X107434881Y-86584253D01*
X107534210Y-86738382D01*
X107661585Y-86870283D01*
X107812153Y-86974930D01*
X107820356Y-86978514D01*
X107842416Y-87034232D01*
X107941745Y-87188361D01*
X108069120Y-87320262D01*
X108219688Y-87424909D01*
X108269834Y-87446817D01*
X108273809Y-87456856D01*
X108373138Y-87610985D01*
X108500513Y-87742886D01*
X108651081Y-87847533D01*
X108677318Y-87858996D01*
X108690791Y-87893025D01*
X108790120Y-88047154D01*
X108917495Y-88179055D01*
X109068063Y-88283702D01*
X109160210Y-88323960D01*
X109239618Y-88447178D01*
X109366993Y-88579079D01*
X109517561Y-88683726D01*
X109601979Y-88720607D01*
X109687125Y-88852728D01*
X109814500Y-88984629D01*
X109965068Y-89089276D01*
X110086879Y-89142494D01*
X110146812Y-89235492D01*
X110274187Y-89367393D01*
X110424755Y-89472040D01*
X110592782Y-89545449D01*
X110771868Y-89584824D01*
X110955190Y-89588664D01*
X110993792Y-89581857D01*
X114050047Y-91612428D01*
X114102482Y-91640308D01*
X114154157Y-91669665D01*
X114163241Y-91673634D01*
X118466354Y-93518066D01*
X118527674Y-93537519D01*
X118588753Y-93557839D01*
X118598432Y-93559966D01*
X118598434Y-93559967D01*
X118598436Y-93559967D01*
X123177848Y-94533461D01*
X123241736Y-94540629D01*
X123305641Y-94548703D01*
X123315552Y-94548911D01*
X127996836Y-94614384D01*
X128060942Y-94609002D01*
X128125155Y-94604513D01*
X128134918Y-94602792D01*
X132739766Y-93757753D01*
X132801620Y-93740018D01*
X132863724Y-93723146D01*
X132872966Y-93719561D01*
X137225979Y-91996196D01*
X137283184Y-91966798D01*
X137340855Y-91938172D01*
X137349225Y-91932860D01*
X141034979Y-89557673D01*
X141190484Y-89560930D01*
X141371062Y-89529089D01*
X141542015Y-89462781D01*
X141696834Y-89364530D01*
X141829620Y-89238079D01*
X141919954Y-89110022D01*
X142004882Y-89077081D01*
X142159701Y-88978830D01*
X142292487Y-88852379D01*
X142390101Y-88714002D01*
X142470818Y-88682694D01*
X142625637Y-88584443D01*
X142758423Y-88457992D01*
X142864119Y-88308158D01*
X142877780Y-88277475D01*
X142912145Y-88264146D01*
X143066964Y-88165895D01*
X143199750Y-88039444D01*
X143305446Y-87889610D01*
X143319166Y-87858794D01*
X143357867Y-87843783D01*
X143512686Y-87745532D01*
X143645472Y-87619081D01*
X143751168Y-87469247D01*
X143769921Y-87427129D01*
X143789596Y-87419497D01*
X143944415Y-87321246D01*
X144077201Y-87194795D01*
X144182897Y-87044961D01*
X144209613Y-86984957D01*
X144213883Y-86983301D01*
X144368702Y-86885050D01*
X144501488Y-86758599D01*
X144607184Y-86608765D01*
X144681765Y-86441255D01*
X144722389Y-86262449D01*
X144724483Y-86112450D01*
X145822710Y-84765891D01*
X145848053Y-84727747D01*
X145875871Y-84691372D01*
X145881037Y-84682911D01*
X148294877Y-80666862D01*
X148322487Y-80608737D01*
X148350907Y-80551000D01*
X148354331Y-80541697D01*
X149942146Y-76133282D01*
X149957937Y-76070913D01*
X149974604Y-76008744D01*
X149976156Y-75998953D01*
X150677466Y-71366088D01*
X150680841Y-71301860D01*
X150685117Y-71237617D01*
X150684738Y-71227711D01*
X150472829Y-66546859D01*
X150463659Y-66483160D01*
X150455380Y-66419349D01*
X150453084Y-66409705D01*
X149336029Y-61859159D01*
X149314667Y-61798472D01*
X149294146Y-61737467D01*
X149290020Y-61728453D01*
X147310367Y-57481542D01*
X147277641Y-57426188D01*
X147245645Y-57370302D01*
X147239847Y-57362261D01*
X144657224Y-53832532D01*
X144659215Y-53689914D01*
X144623600Y-53510043D01*
X144553725Y-53340515D01*
X144452254Y-53187788D01*
X144323050Y-53057679D01*
X144171035Y-52955144D01*
X144167524Y-52953668D01*
X144144030Y-52896667D01*
X144042559Y-52743940D01*
X143913355Y-52613831D01*
X143761340Y-52511296D01*
X143738305Y-52501613D01*
X143722666Y-52463671D01*
X143621195Y-52310944D01*
X143491991Y-52180835D01*
X143339976Y-52078300D01*
X143295849Y-52059751D01*
X143288192Y-52041174D01*
X143186721Y-51888447D01*
X143057517Y-51758338D01*
X142905502Y-51655803D01*
X142842623Y-51629371D01*
X142744107Y-51481092D01*
X142614903Y-51350983D01*
X142462888Y-51248448D01*
X142376072Y-51211954D01*
X142291124Y-51084096D01*
X142161920Y-50953987D01*
X142009905Y-50851452D01*
X141899217Y-50804923D01*
X141826807Y-50695937D01*
X141697603Y-50565828D01*
X141545588Y-50463293D01*
X141376553Y-50392237D01*
X141196935Y-50355367D01*
X141013577Y-50354087D01*
X140932946Y-50369468D01*
X137949953Y-48387572D01*
X137897509Y-48359687D01*
X137845842Y-48330335D01*
X137836758Y-48326366D01*
X133533646Y-46481934D01*
X133472347Y-46462488D01*
X133411248Y-46442161D01*
X133401566Y-46440033D01*
X128822152Y-45466539D01*
X128758260Y-45459371D01*
X128694359Y-45451297D01*
X128684448Y-45451089D01*
X124003164Y-45385616D01*
X123939060Y-45390998D01*
X123874845Y-45395487D01*
X123865083Y-45397208D01*
X119260234Y-46242247D01*
X119198380Y-46259982D01*
X119136276Y-46276854D01*
X119127034Y-46280439D01*
X114774021Y-48003804D01*
X114716816Y-48033202D01*
X114659145Y-48061828D01*
X114650775Y-48067140D01*
X111049912Y-50387622D01*
X110916208Y-50360177D01*
X110732850Y-50358897D01*
X110552734Y-50393255D01*
X110382723Y-50461944D01*
X110229292Y-50562347D01*
X110098284Y-50690640D01*
X110022030Y-50802006D01*
X109918712Y-50843749D01*
X109765281Y-50944152D01*
X109634273Y-51072445D01*
X109541266Y-51208278D01*
X109463754Y-51239595D01*
X109310323Y-51339998D01*
X109179315Y-51468291D01*
X109076198Y-51618890D01*
X109016152Y-51643150D01*
X108862721Y-51743553D01*
X108731713Y-51871846D01*
X108628119Y-52023141D01*
X108616856Y-52049419D01*
X108581515Y-52063698D01*
X108428084Y-52164101D01*
X108297076Y-52292394D01*
X108193482Y-52443689D01*
X108176797Y-52482618D01*
X108156241Y-52490923D01*
X108002810Y-52591326D01*
X107871802Y-52719619D01*
X107768208Y-52870914D01*
X107740906Y-52934615D01*
X107592766Y-53031555D01*
X107461758Y-53159848D01*
X107358164Y-53311143D01*
X107285929Y-53479678D01*
X107247806Y-53659034D01*
X107245246Y-53842379D01*
X107257574Y-53909550D01*
X106177290Y-55234109D01*
X106151948Y-55272252D01*
X106124128Y-55308629D01*
X106118962Y-55317089D01*
X103705123Y-59333138D01*
X103677520Y-59391250D01*
X103649093Y-59449000D01*
X103645669Y-59458303D01*
X102057854Y-63866718D01*
X102042068Y-63929069D01*
X102025396Y-63991255D01*
X102023844Y-64001046D01*
X101322534Y-68633912D01*
X101319159Y-68698141D01*
X101314883Y-68762383D01*
X99573130Y-68762383D01*
X99472829Y-66546859D01*
X99463659Y-66483160D01*
X99455380Y-66419349D01*
X99453084Y-66409705D01*
X98336029Y-61859159D01*
X98314667Y-61798472D01*
X98294146Y-61737467D01*
X98290020Y-61728453D01*
X96310367Y-57481542D01*
X96277641Y-57426188D01*
X96245645Y-57370302D01*
X96239847Y-57362261D01*
X93657224Y-53832532D01*
X93659215Y-53689914D01*
X93623600Y-53510043D01*
X93553725Y-53340515D01*
X93452254Y-53187788D01*
X93323050Y-53057679D01*
X93171035Y-52955144D01*
X93167524Y-52953668D01*
X93144030Y-52896667D01*
X93042559Y-52743940D01*
X92913355Y-52613831D01*
X92761340Y-52511296D01*
X92738305Y-52501613D01*
X92722666Y-52463671D01*
X92621195Y-52310944D01*
X92491991Y-52180835D01*
X92339976Y-52078300D01*
X92295849Y-52059751D01*
X92288192Y-52041174D01*
X92186721Y-51888447D01*
X92057517Y-51758338D01*
X91905502Y-51655803D01*
X91842623Y-51629371D01*
X91744107Y-51481092D01*
X91614903Y-51350983D01*
X91462888Y-51248448D01*
X91376072Y-51211954D01*
X91291124Y-51084096D01*
X91161920Y-50953987D01*
X91009905Y-50851452D01*
X90899217Y-50804923D01*
X90826807Y-50695937D01*
X90697603Y-50565828D01*
X90545588Y-50463293D01*
X90376553Y-50392237D01*
X90196935Y-50355367D01*
X90013577Y-50354087D01*
X89932946Y-50369468D01*
X86949953Y-48387572D01*
X86897509Y-48359687D01*
X86845842Y-48330335D01*
X86836758Y-48326366D01*
X82533646Y-46481934D01*
X82472347Y-46462488D01*
X82411248Y-46442161D01*
X82401566Y-46440033D01*
X77822152Y-45466539D01*
X77758260Y-45459371D01*
X77694359Y-45451297D01*
X77684448Y-45451089D01*
X73003164Y-45385616D01*
X72939060Y-45390998D01*
X72874845Y-45395487D01*
X72865083Y-45397208D01*
X68260234Y-46242247D01*
X68198380Y-46259982D01*
X68136276Y-46276854D01*
X68127034Y-46280439D01*
X63774021Y-48003804D01*
X63716816Y-48033202D01*
X63659145Y-48061828D01*
X63650775Y-48067140D01*
X60049912Y-50387622D01*
X59916208Y-50360177D01*
X59732850Y-50358897D01*
X59552734Y-50393255D01*
X59382723Y-50461944D01*
X59229292Y-50562347D01*
X59098284Y-50690640D01*
X59022030Y-50802006D01*
X58918712Y-50843749D01*
X58765281Y-50944152D01*
X58634273Y-51072445D01*
X58541266Y-51208278D01*
X58463754Y-51239595D01*
X58310323Y-51339998D01*
X58179315Y-51468291D01*
X58076198Y-51618890D01*
X58016152Y-51643150D01*
X57862721Y-51743553D01*
X57731713Y-51871846D01*
X57628119Y-52023141D01*
X57616856Y-52049419D01*
X57581515Y-52063698D01*
X57428084Y-52164101D01*
X57297076Y-52292394D01*
X57193482Y-52443689D01*
X57176797Y-52482618D01*
X57156241Y-52490923D01*
X57002810Y-52591326D01*
X56871802Y-52719619D01*
X56768208Y-52870914D01*
X56740906Y-52934615D01*
X56592766Y-53031555D01*
X56461758Y-53159848D01*
X56358164Y-53311143D01*
X56285929Y-53479678D01*
X56247806Y-53659034D01*
X56245246Y-53842379D01*
X56257574Y-53909550D01*
X55177290Y-55234109D01*
X55151948Y-55272252D01*
X55124128Y-55308629D01*
X55118962Y-55317089D01*
X52705123Y-59333138D01*
X52677520Y-59391250D01*
X52649093Y-59449000D01*
X52645669Y-59458303D01*
X51057854Y-63866718D01*
X51042068Y-63929069D01*
X51025396Y-63991255D01*
X51023844Y-64001046D01*
X50322534Y-68633912D01*
X50319159Y-68698141D01*
X50314883Y-68762383D01*
X47710000Y-68762383D01*
X47710000Y-42710000D01*
X153290000Y-42710000D01*
X153290000Y-148290000D01*
G36*
X128663353Y-99212401D02*
X132844531Y-100144659D01*
X136771819Y-101874290D01*
X139302961Y-103567303D01*
X139363100Y-103719198D01*
X139462429Y-103873327D01*
X139589804Y-104005228D01*
X139740372Y-104109875D01*
X139863788Y-104163794D01*
X139926746Y-104261486D01*
X140054121Y-104393387D01*
X140204689Y-104498034D01*
X140304402Y-104541598D01*
X140379729Y-104658482D01*
X140507104Y-104790383D01*
X140657672Y-104895030D01*
X140733661Y-104928229D01*
X140822343Y-105065837D01*
X140949718Y-105197738D01*
X141100286Y-105302385D01*
X141154219Y-105325948D01*
X141157488Y-105334205D01*
X141256817Y-105488334D01*
X141384192Y-105620235D01*
X141534760Y-105724882D01*
X141567814Y-105739323D01*
X141578852Y-105767201D01*
X141678181Y-105921330D01*
X141805556Y-106053231D01*
X141956124Y-106157878D01*
X141969873Y-106163885D01*
X141988547Y-106211049D01*
X142087876Y-106365178D01*
X142215251Y-106497079D01*
X142365819Y-106601726D01*
X142533846Y-106675135D01*
X142626378Y-106695480D01*
X144973323Y-109946768D01*
X146758897Y-113842548D01*
X147753770Y-118010952D01*
X147920050Y-122293202D01*
X147251399Y-126526207D01*
X145773293Y-130548708D01*
X143531397Y-134224936D01*
X142611231Y-135348962D01*
X142454995Y-135412085D01*
X142301564Y-135512488D01*
X142170556Y-135640781D01*
X142066962Y-135792076D01*
X142045420Y-135842337D01*
X142030708Y-135848281D01*
X141877277Y-135948684D01*
X141746269Y-136076977D01*
X141642675Y-136228272D01*
X141628865Y-136260492D01*
X141598979Y-136272567D01*
X141445548Y-136372970D01*
X141314540Y-136501263D01*
X141210946Y-136652558D01*
X141202100Y-136673196D01*
X141153257Y-136692930D01*
X140999826Y-136793333D01*
X140868818Y-136921626D01*
X140765224Y-137072921D01*
X140756399Y-137093511D01*
X140711930Y-137111478D01*
X140558499Y-137211881D01*
X140427491Y-137340174D01*
X140340064Y-137467858D01*
X140245994Y-137505865D01*
X140092563Y-137606268D01*
X139961555Y-137734561D01*
X139881177Y-137851950D01*
X139783127Y-137891565D01*
X139629696Y-137991968D01*
X139498688Y-138120261D01*
X139395094Y-138271556D01*
X139322859Y-138440091D01*
X139310831Y-138496680D01*
X135934589Y-140641770D01*
X131930280Y-142197334D01*
X127700089Y-142945498D01*
X123405137Y-142857765D01*
X119209029Y-141937477D01*
X115265897Y-140217204D01*
X112592132Y-138428822D01*
X112582536Y-138380357D01*
X112512661Y-138210829D01*
X112411190Y-138058102D01*
X112281986Y-137927993D01*
X112129971Y-137825458D01*
X112020733Y-137779539D01*
X111951503Y-137675338D01*
X111822299Y-137545229D01*
X111670284Y-137442694D01*
X111598952Y-137412709D01*
X111503996Y-137269788D01*
X111374792Y-137139679D01*
X111222777Y-137037144D01*
X111143588Y-137003856D01*
X111054498Y-136869764D01*
X110925294Y-136739655D01*
X110773279Y-136637120D01*
X110757126Y-136630330D01*
X110738987Y-136586322D01*
X110637516Y-136433595D01*
X110508312Y-136303486D01*
X110356297Y-136200951D01*
X110315960Y-136183995D01*
X110307594Y-136163698D01*
X110206123Y-136010971D01*
X110076919Y-135880862D01*
X109927376Y-135779994D01*
X109900059Y-135713719D01*
X109798588Y-135560992D01*
X109669384Y-135430883D01*
X109517369Y-135328348D01*
X109348334Y-135257292D01*
X109337999Y-135255171D01*
X107026674Y-132053228D01*
X105241103Y-128157452D01*
X104246230Y-123989048D01*
X104079950Y-119706799D01*
X104748601Y-115473793D01*
X106226707Y-111451293D01*
X108468604Y-107775064D01*
X109443045Y-106584737D01*
X109534132Y-106568676D01*
X109705085Y-106502368D01*
X109859904Y-106404117D01*
X109992690Y-106277666D01*
X110098386Y-106127832D01*
X110132560Y-106051077D01*
X110269948Y-105963888D01*
X110402734Y-105837437D01*
X110508430Y-105687603D01*
X110530112Y-105638906D01*
X110540403Y-105634914D01*
X110695222Y-105536663D01*
X110828008Y-105410212D01*
X110933704Y-105260378D01*
X110949838Y-105224141D01*
X110975040Y-105214366D01*
X111129859Y-105116115D01*
X111262645Y-104989664D01*
X111368341Y-104839830D01*
X111372623Y-104830212D01*
X111422642Y-104810811D01*
X111577461Y-104712560D01*
X111710247Y-104586109D01*
X111813413Y-104439861D01*
X111877600Y-104414965D01*
X112032419Y-104316714D01*
X112165205Y-104190263D01*
X112251325Y-104068179D01*
X112341611Y-104033160D01*
X112496430Y-103934909D01*
X112629216Y-103808458D01*
X112734912Y-103658624D01*
X112808936Y-103492364D01*
X116161294Y-101378768D01*
X120159787Y-99841437D01*
X124380734Y-99110028D01*
X128663353Y-99212401D01*
X128663353Y-99212401D01*
G37*
X128663353Y-99212401D02*
X132844531Y-100144659D01*
X136771819Y-101874290D01*
X139302961Y-103567303D01*
X139363100Y-103719198D01*
X139462429Y-103873327D01*
X139589804Y-104005228D01*
X139740372Y-104109875D01*
X139863788Y-104163794D01*
X139926746Y-104261486D01*
X140054121Y-104393387D01*
X140204689Y-104498034D01*
X140304402Y-104541598D01*
X140379729Y-104658482D01*
X140507104Y-104790383D01*
X140657672Y-104895030D01*
X140733661Y-104928229D01*
X140822343Y-105065837D01*
X140949718Y-105197738D01*
X141100286Y-105302385D01*
X141154219Y-105325948D01*
X141157488Y-105334205D01*
X141256817Y-105488334D01*
X141384192Y-105620235D01*
X141534760Y-105724882D01*
X141567814Y-105739323D01*
X141578852Y-105767201D01*
X141678181Y-105921330D01*
X141805556Y-106053231D01*
X141956124Y-106157878D01*
X141969873Y-106163885D01*
X141988547Y-106211049D01*
X142087876Y-106365178D01*
X142215251Y-106497079D01*
X142365819Y-106601726D01*
X142533846Y-106675135D01*
X142626378Y-106695480D01*
X144973323Y-109946768D01*
X146758897Y-113842548D01*
X147753770Y-118010952D01*
X147920050Y-122293202D01*
X147251399Y-126526207D01*
X145773293Y-130548708D01*
X143531397Y-134224936D01*
X142611231Y-135348962D01*
X142454995Y-135412085D01*
X142301564Y-135512488D01*
X142170556Y-135640781D01*
X142066962Y-135792076D01*
X142045420Y-135842337D01*
X142030708Y-135848281D01*
X141877277Y-135948684D01*
X141746269Y-136076977D01*
X141642675Y-136228272D01*
X141628865Y-136260492D01*
X141598979Y-136272567D01*
X141445548Y-136372970D01*
X141314540Y-136501263D01*
X141210946Y-136652558D01*
X141202100Y-136673196D01*
X141153257Y-136692930D01*
X140999826Y-136793333D01*
X140868818Y-136921626D01*
X140765224Y-137072921D01*
X140756399Y-137093511D01*
X140711930Y-137111478D01*
X140558499Y-137211881D01*
X140427491Y-137340174D01*
X140340064Y-137467858D01*
X140245994Y-137505865D01*
X140092563Y-137606268D01*
X139961555Y-137734561D01*
X139881177Y-137851950D01*
X139783127Y-137891565D01*
X139629696Y-137991968D01*
X139498688Y-138120261D01*
X139395094Y-138271556D01*
X139322859Y-138440091D01*
X139310831Y-138496680D01*
X135934589Y-140641770D01*
X131930280Y-142197334D01*
X127700089Y-142945498D01*
X123405137Y-142857765D01*
X119209029Y-141937477D01*
X115265897Y-140217204D01*
X112592132Y-138428822D01*
X112582536Y-138380357D01*
X112512661Y-138210829D01*
X112411190Y-138058102D01*
X112281986Y-137927993D01*
X112129971Y-137825458D01*
X112020733Y-137779539D01*
X111951503Y-137675338D01*
X111822299Y-137545229D01*
X111670284Y-137442694D01*
X111598952Y-137412709D01*
X111503996Y-137269788D01*
X111374792Y-137139679D01*
X111222777Y-137037144D01*
X111143588Y-137003856D01*
X111054498Y-136869764D01*
X110925294Y-136739655D01*
X110773279Y-136637120D01*
X110757126Y-136630330D01*
X110738987Y-136586322D01*
X110637516Y-136433595D01*
X110508312Y-136303486D01*
X110356297Y-136200951D01*
X110315960Y-136183995D01*
X110307594Y-136163698D01*
X110206123Y-136010971D01*
X110076919Y-135880862D01*
X109927376Y-135779994D01*
X109900059Y-135713719D01*
X109798588Y-135560992D01*
X109669384Y-135430883D01*
X109517369Y-135328348D01*
X109348334Y-135257292D01*
X109337999Y-135255171D01*
X107026674Y-132053228D01*
X105241103Y-128157452D01*
X104246230Y-123989048D01*
X104079950Y-119706799D01*
X104748601Y-115473793D01*
X106226707Y-111451293D01*
X108468604Y-107775064D01*
X109443045Y-106584737D01*
X109534132Y-106568676D01*
X109705085Y-106502368D01*
X109859904Y-106404117D01*
X109992690Y-106277666D01*
X110098386Y-106127832D01*
X110132560Y-106051077D01*
X110269948Y-105963888D01*
X110402734Y-105837437D01*
X110508430Y-105687603D01*
X110530112Y-105638906D01*
X110540403Y-105634914D01*
X110695222Y-105536663D01*
X110828008Y-105410212D01*
X110933704Y-105260378D01*
X110949838Y-105224141D01*
X110975040Y-105214366D01*
X111129859Y-105116115D01*
X111262645Y-104989664D01*
X111368341Y-104839830D01*
X111372623Y-104830212D01*
X111422642Y-104810811D01*
X111577461Y-104712560D01*
X111710247Y-104586109D01*
X111813413Y-104439861D01*
X111877600Y-104414965D01*
X112032419Y-104316714D01*
X112165205Y-104190263D01*
X112251325Y-104068179D01*
X112341611Y-104033160D01*
X112496430Y-103934909D01*
X112629216Y-103808458D01*
X112734912Y-103658624D01*
X112808936Y-103492364D01*
X116161294Y-101378768D01*
X120159787Y-99841437D01*
X124380734Y-99110028D01*
X128663353Y-99212401D01*
G36*
X77663353Y-99212401D02*
X81844531Y-100144659D01*
X85771819Y-101874290D01*
X88302961Y-103567303D01*
X88363100Y-103719198D01*
X88462429Y-103873327D01*
X88589804Y-104005228D01*
X88740372Y-104109875D01*
X88863788Y-104163794D01*
X88926746Y-104261486D01*
X89054121Y-104393387D01*
X89204689Y-104498034D01*
X89304402Y-104541598D01*
X89379729Y-104658482D01*
X89507104Y-104790383D01*
X89657672Y-104895030D01*
X89733661Y-104928229D01*
X89822343Y-105065837D01*
X89949718Y-105197738D01*
X90100286Y-105302385D01*
X90154219Y-105325948D01*
X90157488Y-105334205D01*
X90256817Y-105488334D01*
X90384192Y-105620235D01*
X90534760Y-105724882D01*
X90567814Y-105739323D01*
X90578852Y-105767201D01*
X90678181Y-105921330D01*
X90805556Y-106053231D01*
X90956124Y-106157878D01*
X90969873Y-106163885D01*
X90988547Y-106211049D01*
X91087876Y-106365178D01*
X91215251Y-106497079D01*
X91365819Y-106601726D01*
X91533846Y-106675135D01*
X91626378Y-106695480D01*
X93973323Y-109946768D01*
X95758897Y-113842548D01*
X96753770Y-118010952D01*
X96920050Y-122293202D01*
X96251399Y-126526207D01*
X94773293Y-130548708D01*
X92531397Y-134224936D01*
X91611231Y-135348962D01*
X91454995Y-135412085D01*
X91301564Y-135512488D01*
X91170556Y-135640781D01*
X91066962Y-135792076D01*
X91045420Y-135842337D01*
X91030708Y-135848281D01*
X90877277Y-135948684D01*
X90746269Y-136076977D01*
X90642675Y-136228272D01*
X90628865Y-136260492D01*
X90598979Y-136272567D01*
X90445548Y-136372970D01*
X90314540Y-136501263D01*
X90210946Y-136652558D01*
X90202100Y-136673196D01*
X90153257Y-136692930D01*
X89999826Y-136793333D01*
X89868818Y-136921626D01*
X89765224Y-137072921D01*
X89756399Y-137093511D01*
X89711930Y-137111478D01*
X89558499Y-137211881D01*
X89427491Y-137340174D01*
X89340064Y-137467858D01*
X89245994Y-137505865D01*
X89092563Y-137606268D01*
X88961555Y-137734561D01*
X88881177Y-137851950D01*
X88783127Y-137891565D01*
X88629696Y-137991968D01*
X88498688Y-138120261D01*
X88395094Y-138271556D01*
X88322859Y-138440091D01*
X88310831Y-138496680D01*
X84934589Y-140641770D01*
X80930280Y-142197334D01*
X76700089Y-142945498D01*
X72405137Y-142857765D01*
X68209029Y-141937477D01*
X64265897Y-140217204D01*
X61592132Y-138428822D01*
X61582536Y-138380357D01*
X61512661Y-138210829D01*
X61411190Y-138058102D01*
X61281986Y-137927993D01*
X61129971Y-137825458D01*
X61020733Y-137779539D01*
X60951503Y-137675338D01*
X60822299Y-137545229D01*
X60670284Y-137442694D01*
X60598952Y-137412709D01*
X60503996Y-137269788D01*
X60374792Y-137139679D01*
X60222777Y-137037144D01*
X60143588Y-137003856D01*
X60054498Y-136869764D01*
X59925294Y-136739655D01*
X59773279Y-136637120D01*
X59757126Y-136630330D01*
X59738987Y-136586322D01*
X59637516Y-136433595D01*
X59508312Y-136303486D01*
X59356297Y-136200951D01*
X59315960Y-136183995D01*
X59307594Y-136163698D01*
X59206123Y-136010971D01*
X59076919Y-135880862D01*
X58927376Y-135779994D01*
X58900059Y-135713719D01*
X58798588Y-135560992D01*
X58669384Y-135430883D01*
X58517369Y-135328348D01*
X58348334Y-135257292D01*
X58337999Y-135255171D01*
X56026674Y-132053228D01*
X54241103Y-128157452D01*
X53246230Y-123989048D01*
X53079950Y-119706799D01*
X53748601Y-115473793D01*
X55226707Y-111451293D01*
X57468604Y-107775064D01*
X58443045Y-106584737D01*
X58534132Y-106568676D01*
X58705085Y-106502368D01*
X58859904Y-106404117D01*
X58992690Y-106277666D01*
X59098386Y-106127832D01*
X59132560Y-106051077D01*
X59269948Y-105963888D01*
X59402734Y-105837437D01*
X59508430Y-105687603D01*
X59530112Y-105638906D01*
X59540403Y-105634914D01*
X59695222Y-105536663D01*
X59828008Y-105410212D01*
X59933704Y-105260378D01*
X59949838Y-105224141D01*
X59975040Y-105214366D01*
X60129859Y-105116115D01*
X60262645Y-104989664D01*
X60368341Y-104839830D01*
X60372623Y-104830212D01*
X60422642Y-104810811D01*
X60577461Y-104712560D01*
X60710247Y-104586109D01*
X60813413Y-104439861D01*
X60877600Y-104414965D01*
X61032419Y-104316714D01*
X61165205Y-104190263D01*
X61251325Y-104068179D01*
X61341611Y-104033160D01*
X61496430Y-103934909D01*
X61629216Y-103808458D01*
X61734912Y-103658624D01*
X61808936Y-103492364D01*
X65161294Y-101378768D01*
X69159787Y-99841437D01*
X73380734Y-99110028D01*
X77663353Y-99212401D01*
X77663353Y-99212401D01*
G37*
X77663353Y-99212401D02*
X81844531Y-100144659D01*
X85771819Y-101874290D01*
X88302961Y-103567303D01*
X88363100Y-103719198D01*
X88462429Y-103873327D01*
X88589804Y-104005228D01*
X88740372Y-104109875D01*
X88863788Y-104163794D01*
X88926746Y-104261486D01*
X89054121Y-104393387D01*
X89204689Y-104498034D01*
X89304402Y-104541598D01*
X89379729Y-104658482D01*
X89507104Y-104790383D01*
X89657672Y-104895030D01*
X89733661Y-104928229D01*
X89822343Y-105065837D01*
X89949718Y-105197738D01*
X90100286Y-105302385D01*
X90154219Y-105325948D01*
X90157488Y-105334205D01*
X90256817Y-105488334D01*
X90384192Y-105620235D01*
X90534760Y-105724882D01*
X90567814Y-105739323D01*
X90578852Y-105767201D01*
X90678181Y-105921330D01*
X90805556Y-106053231D01*
X90956124Y-106157878D01*
X90969873Y-106163885D01*
X90988547Y-106211049D01*
X91087876Y-106365178D01*
X91215251Y-106497079D01*
X91365819Y-106601726D01*
X91533846Y-106675135D01*
X91626378Y-106695480D01*
X93973323Y-109946768D01*
X95758897Y-113842548D01*
X96753770Y-118010952D01*
X96920050Y-122293202D01*
X96251399Y-126526207D01*
X94773293Y-130548708D01*
X92531397Y-134224936D01*
X91611231Y-135348962D01*
X91454995Y-135412085D01*
X91301564Y-135512488D01*
X91170556Y-135640781D01*
X91066962Y-135792076D01*
X91045420Y-135842337D01*
X91030708Y-135848281D01*
X90877277Y-135948684D01*
X90746269Y-136076977D01*
X90642675Y-136228272D01*
X90628865Y-136260492D01*
X90598979Y-136272567D01*
X90445548Y-136372970D01*
X90314540Y-136501263D01*
X90210946Y-136652558D01*
X90202100Y-136673196D01*
X90153257Y-136692930D01*
X89999826Y-136793333D01*
X89868818Y-136921626D01*
X89765224Y-137072921D01*
X89756399Y-137093511D01*
X89711930Y-137111478D01*
X89558499Y-137211881D01*
X89427491Y-137340174D01*
X89340064Y-137467858D01*
X89245994Y-137505865D01*
X89092563Y-137606268D01*
X88961555Y-137734561D01*
X88881177Y-137851950D01*
X88783127Y-137891565D01*
X88629696Y-137991968D01*
X88498688Y-138120261D01*
X88395094Y-138271556D01*
X88322859Y-138440091D01*
X88310831Y-138496680D01*
X84934589Y-140641770D01*
X80930280Y-142197334D01*
X76700089Y-142945498D01*
X72405137Y-142857765D01*
X68209029Y-141937477D01*
X64265897Y-140217204D01*
X61592132Y-138428822D01*
X61582536Y-138380357D01*
X61512661Y-138210829D01*
X61411190Y-138058102D01*
X61281986Y-137927993D01*
X61129971Y-137825458D01*
X61020733Y-137779539D01*
X60951503Y-137675338D01*
X60822299Y-137545229D01*
X60670284Y-137442694D01*
X60598952Y-137412709D01*
X60503996Y-137269788D01*
X60374792Y-137139679D01*
X60222777Y-137037144D01*
X60143588Y-137003856D01*
X60054498Y-136869764D01*
X59925294Y-136739655D01*
X59773279Y-136637120D01*
X59757126Y-136630330D01*
X59738987Y-136586322D01*
X59637516Y-136433595D01*
X59508312Y-136303486D01*
X59356297Y-136200951D01*
X59315960Y-136183995D01*
X59307594Y-136163698D01*
X59206123Y-136010971D01*
X59076919Y-135880862D01*
X58927376Y-135779994D01*
X58900059Y-135713719D01*
X58798588Y-135560992D01*
X58669384Y-135430883D01*
X58517369Y-135328348D01*
X58348334Y-135257292D01*
X58337999Y-135255171D01*
X56026674Y-132053228D01*
X54241103Y-128157452D01*
X53246230Y-123989048D01*
X53079950Y-119706799D01*
X53748601Y-115473793D01*
X55226707Y-111451293D01*
X57468604Y-107775064D01*
X58443045Y-106584737D01*
X58534132Y-106568676D01*
X58705085Y-106502368D01*
X58859904Y-106404117D01*
X58992690Y-106277666D01*
X59098386Y-106127832D01*
X59132560Y-106051077D01*
X59269948Y-105963888D01*
X59402734Y-105837437D01*
X59508430Y-105687603D01*
X59530112Y-105638906D01*
X59540403Y-105634914D01*
X59695222Y-105536663D01*
X59828008Y-105410212D01*
X59933704Y-105260378D01*
X59949838Y-105224141D01*
X59975040Y-105214366D01*
X60129859Y-105116115D01*
X60262645Y-104989664D01*
X60368341Y-104839830D01*
X60372623Y-104830212D01*
X60422642Y-104810811D01*
X60577461Y-104712560D01*
X60710247Y-104586109D01*
X60813413Y-104439861D01*
X60877600Y-104414965D01*
X61032419Y-104316714D01*
X61165205Y-104190263D01*
X61251325Y-104068179D01*
X61341611Y-104033160D01*
X61496430Y-103934909D01*
X61629216Y-103808458D01*
X61734912Y-103658624D01*
X61808936Y-103492364D01*
X65161294Y-101378768D01*
X69159787Y-99841437D01*
X73380734Y-99110028D01*
X77663353Y-99212401D01*
G36*
X77663353Y-48212401D02*
X81844531Y-49144659D01*
X85771819Y-50874290D01*
X88302961Y-52567303D01*
X88363100Y-52719198D01*
X88462429Y-52873327D01*
X88589804Y-53005228D01*
X88740372Y-53109875D01*
X88863788Y-53163794D01*
X88926746Y-53261486D01*
X89054121Y-53393387D01*
X89204689Y-53498034D01*
X89304402Y-53541598D01*
X89379729Y-53658482D01*
X89507104Y-53790383D01*
X89657672Y-53895030D01*
X89733661Y-53928229D01*
X89822343Y-54065837D01*
X89949718Y-54197738D01*
X90100286Y-54302385D01*
X90154219Y-54325948D01*
X90157488Y-54334205D01*
X90256817Y-54488334D01*
X90384192Y-54620235D01*
X90534760Y-54724882D01*
X90567814Y-54739323D01*
X90578852Y-54767201D01*
X90678181Y-54921330D01*
X90805556Y-55053231D01*
X90956124Y-55157878D01*
X90969873Y-55163885D01*
X90988547Y-55211049D01*
X91087876Y-55365178D01*
X91215251Y-55497079D01*
X91365819Y-55601726D01*
X91533846Y-55675135D01*
X91626378Y-55695480D01*
X93973323Y-58946768D01*
X95758897Y-62842548D01*
X96753770Y-67010952D01*
X96920050Y-71293202D01*
X96251399Y-75526207D01*
X94773293Y-79548708D01*
X92531397Y-83224936D01*
X91611231Y-84348962D01*
X91454995Y-84412085D01*
X91301564Y-84512488D01*
X91170556Y-84640781D01*
X91066962Y-84792076D01*
X91045420Y-84842337D01*
X91030708Y-84848281D01*
X90877277Y-84948684D01*
X90746269Y-85076977D01*
X90642675Y-85228272D01*
X90628865Y-85260492D01*
X90598979Y-85272567D01*
X90445548Y-85372970D01*
X90314540Y-85501263D01*
X90210946Y-85652558D01*
X90202100Y-85673196D01*
X90153257Y-85692930D01*
X89999826Y-85793333D01*
X89868818Y-85921626D01*
X89765224Y-86072921D01*
X89756399Y-86093511D01*
X89711930Y-86111478D01*
X89558499Y-86211881D01*
X89427491Y-86340174D01*
X89340064Y-86467858D01*
X89245994Y-86505865D01*
X89092563Y-86606268D01*
X88961555Y-86734561D01*
X88881177Y-86851950D01*
X88783127Y-86891565D01*
X88629696Y-86991968D01*
X88498688Y-87120261D01*
X88395094Y-87271556D01*
X88322859Y-87440091D01*
X88310831Y-87496680D01*
X84934589Y-89641770D01*
X80930280Y-91197334D01*
X76700089Y-91945498D01*
X72405137Y-91857765D01*
X68209029Y-90937477D01*
X64265897Y-89217204D01*
X61592132Y-87428822D01*
X61582536Y-87380357D01*
X61512661Y-87210829D01*
X61411190Y-87058102D01*
X61281986Y-86927993D01*
X61129971Y-86825458D01*
X61020733Y-86779539D01*
X60951503Y-86675338D01*
X60822299Y-86545229D01*
X60670284Y-86442694D01*
X60598952Y-86412709D01*
X60503996Y-86269788D01*
X60374792Y-86139679D01*
X60222777Y-86037144D01*
X60143588Y-86003856D01*
X60054498Y-85869764D01*
X59925294Y-85739655D01*
X59773279Y-85637120D01*
X59757126Y-85630330D01*
X59738987Y-85586322D01*
X59637516Y-85433595D01*
X59508312Y-85303486D01*
X59356297Y-85200951D01*
X59315960Y-85183995D01*
X59307594Y-85163698D01*
X59206123Y-85010971D01*
X59076919Y-84880862D01*
X58927376Y-84779994D01*
X58900059Y-84713719D01*
X58798588Y-84560992D01*
X58669384Y-84430883D01*
X58517369Y-84328348D01*
X58348334Y-84257292D01*
X58337999Y-84255171D01*
X56026674Y-81053228D01*
X54241103Y-77157452D01*
X53246230Y-72989048D01*
X53079950Y-68706799D01*
X53748601Y-64473793D01*
X55226707Y-60451293D01*
X57468604Y-56775064D01*
X58443045Y-55584737D01*
X58534132Y-55568676D01*
X58705085Y-55502368D01*
X58859904Y-55404117D01*
X58992690Y-55277666D01*
X59098386Y-55127832D01*
X59132560Y-55051077D01*
X59269948Y-54963888D01*
X59402734Y-54837437D01*
X59508430Y-54687603D01*
X59530112Y-54638906D01*
X59540403Y-54634914D01*
X59695222Y-54536663D01*
X59828008Y-54410212D01*
X59933704Y-54260378D01*
X59949838Y-54224141D01*
X59975040Y-54214366D01*
X60129859Y-54116115D01*
X60262645Y-53989664D01*
X60368341Y-53839830D01*
X60372623Y-53830212D01*
X60422642Y-53810811D01*
X60577461Y-53712560D01*
X60710247Y-53586109D01*
X60813413Y-53439861D01*
X60877600Y-53414965D01*
X61032419Y-53316714D01*
X61165205Y-53190263D01*
X61251325Y-53068179D01*
X61341611Y-53033160D01*
X61496430Y-52934909D01*
X61629216Y-52808458D01*
X61734912Y-52658624D01*
X61808936Y-52492364D01*
X65161294Y-50378768D01*
X69159787Y-48841437D01*
X73380734Y-48110028D01*
X77663353Y-48212401D01*
X77663353Y-48212401D01*
G37*
X77663353Y-48212401D02*
X81844531Y-49144659D01*
X85771819Y-50874290D01*
X88302961Y-52567303D01*
X88363100Y-52719198D01*
X88462429Y-52873327D01*
X88589804Y-53005228D01*
X88740372Y-53109875D01*
X88863788Y-53163794D01*
X88926746Y-53261486D01*
X89054121Y-53393387D01*
X89204689Y-53498034D01*
X89304402Y-53541598D01*
X89379729Y-53658482D01*
X89507104Y-53790383D01*
X89657672Y-53895030D01*
X89733661Y-53928229D01*
X89822343Y-54065837D01*
X89949718Y-54197738D01*
X90100286Y-54302385D01*
X90154219Y-54325948D01*
X90157488Y-54334205D01*
X90256817Y-54488334D01*
X90384192Y-54620235D01*
X90534760Y-54724882D01*
X90567814Y-54739323D01*
X90578852Y-54767201D01*
X90678181Y-54921330D01*
X90805556Y-55053231D01*
X90956124Y-55157878D01*
X90969873Y-55163885D01*
X90988547Y-55211049D01*
X91087876Y-55365178D01*
X91215251Y-55497079D01*
X91365819Y-55601726D01*
X91533846Y-55675135D01*
X91626378Y-55695480D01*
X93973323Y-58946768D01*
X95758897Y-62842548D01*
X96753770Y-67010952D01*
X96920050Y-71293202D01*
X96251399Y-75526207D01*
X94773293Y-79548708D01*
X92531397Y-83224936D01*
X91611231Y-84348962D01*
X91454995Y-84412085D01*
X91301564Y-84512488D01*
X91170556Y-84640781D01*
X91066962Y-84792076D01*
X91045420Y-84842337D01*
X91030708Y-84848281D01*
X90877277Y-84948684D01*
X90746269Y-85076977D01*
X90642675Y-85228272D01*
X90628865Y-85260492D01*
X90598979Y-85272567D01*
X90445548Y-85372970D01*
X90314540Y-85501263D01*
X90210946Y-85652558D01*
X90202100Y-85673196D01*
X90153257Y-85692930D01*
X89999826Y-85793333D01*
X89868818Y-85921626D01*
X89765224Y-86072921D01*
X89756399Y-86093511D01*
X89711930Y-86111478D01*
X89558499Y-86211881D01*
X89427491Y-86340174D01*
X89340064Y-86467858D01*
X89245994Y-86505865D01*
X89092563Y-86606268D01*
X88961555Y-86734561D01*
X88881177Y-86851950D01*
X88783127Y-86891565D01*
X88629696Y-86991968D01*
X88498688Y-87120261D01*
X88395094Y-87271556D01*
X88322859Y-87440091D01*
X88310831Y-87496680D01*
X84934589Y-89641770D01*
X80930280Y-91197334D01*
X76700089Y-91945498D01*
X72405137Y-91857765D01*
X68209029Y-90937477D01*
X64265897Y-89217204D01*
X61592132Y-87428822D01*
X61582536Y-87380357D01*
X61512661Y-87210829D01*
X61411190Y-87058102D01*
X61281986Y-86927993D01*
X61129971Y-86825458D01*
X61020733Y-86779539D01*
X60951503Y-86675338D01*
X60822299Y-86545229D01*
X60670284Y-86442694D01*
X60598952Y-86412709D01*
X60503996Y-86269788D01*
X60374792Y-86139679D01*
X60222777Y-86037144D01*
X60143588Y-86003856D01*
X60054498Y-85869764D01*
X59925294Y-85739655D01*
X59773279Y-85637120D01*
X59757126Y-85630330D01*
X59738987Y-85586322D01*
X59637516Y-85433595D01*
X59508312Y-85303486D01*
X59356297Y-85200951D01*
X59315960Y-85183995D01*
X59307594Y-85163698D01*
X59206123Y-85010971D01*
X59076919Y-84880862D01*
X58927376Y-84779994D01*
X58900059Y-84713719D01*
X58798588Y-84560992D01*
X58669384Y-84430883D01*
X58517369Y-84328348D01*
X58348334Y-84257292D01*
X58337999Y-84255171D01*
X56026674Y-81053228D01*
X54241103Y-77157452D01*
X53246230Y-72989048D01*
X53079950Y-68706799D01*
X53748601Y-64473793D01*
X55226707Y-60451293D01*
X57468604Y-56775064D01*
X58443045Y-55584737D01*
X58534132Y-55568676D01*
X58705085Y-55502368D01*
X58859904Y-55404117D01*
X58992690Y-55277666D01*
X59098386Y-55127832D01*
X59132560Y-55051077D01*
X59269948Y-54963888D01*
X59402734Y-54837437D01*
X59508430Y-54687603D01*
X59530112Y-54638906D01*
X59540403Y-54634914D01*
X59695222Y-54536663D01*
X59828008Y-54410212D01*
X59933704Y-54260378D01*
X59949838Y-54224141D01*
X59975040Y-54214366D01*
X60129859Y-54116115D01*
X60262645Y-53989664D01*
X60368341Y-53839830D01*
X60372623Y-53830212D01*
X60422642Y-53810811D01*
X60577461Y-53712560D01*
X60710247Y-53586109D01*
X60813413Y-53439861D01*
X60877600Y-53414965D01*
X61032419Y-53316714D01*
X61165205Y-53190263D01*
X61251325Y-53068179D01*
X61341611Y-53033160D01*
X61496430Y-52934909D01*
X61629216Y-52808458D01*
X61734912Y-52658624D01*
X61808936Y-52492364D01*
X65161294Y-50378768D01*
X69159787Y-48841437D01*
X73380734Y-48110028D01*
X77663353Y-48212401D01*
G36*
X128663353Y-48212401D02*
X132844531Y-49144659D01*
X136771819Y-50874290D01*
X139302961Y-52567303D01*
X139363100Y-52719198D01*
X139462429Y-52873327D01*
X139589804Y-53005228D01*
X139740372Y-53109875D01*
X139863788Y-53163794D01*
X139926746Y-53261486D01*
X140054121Y-53393387D01*
X140204689Y-53498034D01*
X140304402Y-53541598D01*
X140379729Y-53658482D01*
X140507104Y-53790383D01*
X140657672Y-53895030D01*
X140733661Y-53928229D01*
X140822343Y-54065837D01*
X140949718Y-54197738D01*
X141100286Y-54302385D01*
X141154219Y-54325948D01*
X141157488Y-54334205D01*
X141256817Y-54488334D01*
X141384192Y-54620235D01*
X141534760Y-54724882D01*
X141567814Y-54739323D01*
X141578852Y-54767201D01*
X141678181Y-54921330D01*
X141805556Y-55053231D01*
X141956124Y-55157878D01*
X141969873Y-55163885D01*
X141988547Y-55211049D01*
X142087876Y-55365178D01*
X142215251Y-55497079D01*
X142365819Y-55601726D01*
X142533846Y-55675135D01*
X142626378Y-55695480D01*
X144973323Y-58946768D01*
X146758897Y-62842548D01*
X147753770Y-67010952D01*
X147920050Y-71293202D01*
X147251399Y-75526207D01*
X145773293Y-79548708D01*
X143531397Y-83224936D01*
X142611231Y-84348962D01*
X142454995Y-84412085D01*
X142301564Y-84512488D01*
X142170556Y-84640781D01*
X142066962Y-84792076D01*
X142045420Y-84842337D01*
X142030708Y-84848281D01*
X141877277Y-84948684D01*
X141746269Y-85076977D01*
X141642675Y-85228272D01*
X141628865Y-85260492D01*
X141598979Y-85272567D01*
X141445548Y-85372970D01*
X141314540Y-85501263D01*
X141210946Y-85652558D01*
X141202100Y-85673196D01*
X141153257Y-85692930D01*
X140999826Y-85793333D01*
X140868818Y-85921626D01*
X140765224Y-86072921D01*
X140756399Y-86093511D01*
X140711930Y-86111478D01*
X140558499Y-86211881D01*
X140427491Y-86340174D01*
X140340064Y-86467858D01*
X140245994Y-86505865D01*
X140092563Y-86606268D01*
X139961555Y-86734561D01*
X139881177Y-86851950D01*
X139783127Y-86891565D01*
X139629696Y-86991968D01*
X139498688Y-87120261D01*
X139395094Y-87271556D01*
X139322859Y-87440091D01*
X139310831Y-87496680D01*
X135934589Y-89641770D01*
X131930280Y-91197334D01*
X127700089Y-91945498D01*
X123405137Y-91857765D01*
X119209029Y-90937477D01*
X115265897Y-89217204D01*
X112592132Y-87428822D01*
X112582536Y-87380357D01*
X112512661Y-87210829D01*
X112411190Y-87058102D01*
X112281986Y-86927993D01*
X112129971Y-86825458D01*
X112020733Y-86779539D01*
X111951503Y-86675338D01*
X111822299Y-86545229D01*
X111670284Y-86442694D01*
X111598952Y-86412709D01*
X111503996Y-86269788D01*
X111374792Y-86139679D01*
X111222777Y-86037144D01*
X111143588Y-86003856D01*
X111054498Y-85869764D01*
X110925294Y-85739655D01*
X110773279Y-85637120D01*
X110757126Y-85630330D01*
X110738987Y-85586322D01*
X110637516Y-85433595D01*
X110508312Y-85303486D01*
X110356297Y-85200951D01*
X110315960Y-85183995D01*
X110307594Y-85163698D01*
X110206123Y-85010971D01*
X110076919Y-84880862D01*
X109927376Y-84779994D01*
X109900059Y-84713719D01*
X109798588Y-84560992D01*
X109669384Y-84430883D01*
X109517369Y-84328348D01*
X109348334Y-84257292D01*
X109337999Y-84255171D01*
X107026674Y-81053228D01*
X105241103Y-77157452D01*
X104246230Y-72989048D01*
X104079950Y-68706799D01*
X104748601Y-64473793D01*
X106226707Y-60451293D01*
X108468604Y-56775064D01*
X109443045Y-55584737D01*
X109534132Y-55568676D01*
X109705085Y-55502368D01*
X109859904Y-55404117D01*
X109992690Y-55277666D01*
X110098386Y-55127832D01*
X110132560Y-55051077D01*
X110269948Y-54963888D01*
X110402734Y-54837437D01*
X110508430Y-54687603D01*
X110530112Y-54638906D01*
X110540403Y-54634914D01*
X110695222Y-54536663D01*
X110828008Y-54410212D01*
X110933704Y-54260378D01*
X110949838Y-54224141D01*
X110975040Y-54214366D01*
X111129859Y-54116115D01*
X111262645Y-53989664D01*
X111368341Y-53839830D01*
X111372623Y-53830212D01*
X111422642Y-53810811D01*
X111577461Y-53712560D01*
X111710247Y-53586109D01*
X111813413Y-53439861D01*
X111877600Y-53414965D01*
X112032419Y-53316714D01*
X112165205Y-53190263D01*
X112251325Y-53068179D01*
X112341611Y-53033160D01*
X112496430Y-52934909D01*
X112629216Y-52808458D01*
X112734912Y-52658624D01*
X112808936Y-52492364D01*
X116161294Y-50378768D01*
X120159787Y-48841437D01*
X124380734Y-48110028D01*
X128663353Y-48212401D01*
X128663353Y-48212401D01*
G37*
X128663353Y-48212401D02*
X132844531Y-49144659D01*
X136771819Y-50874290D01*
X139302961Y-52567303D01*
X139363100Y-52719198D01*
X139462429Y-52873327D01*
X139589804Y-53005228D01*
X139740372Y-53109875D01*
X139863788Y-53163794D01*
X139926746Y-53261486D01*
X140054121Y-53393387D01*
X140204689Y-53498034D01*
X140304402Y-53541598D01*
X140379729Y-53658482D01*
X140507104Y-53790383D01*
X140657672Y-53895030D01*
X140733661Y-53928229D01*
X140822343Y-54065837D01*
X140949718Y-54197738D01*
X141100286Y-54302385D01*
X141154219Y-54325948D01*
X141157488Y-54334205D01*
X141256817Y-54488334D01*
X141384192Y-54620235D01*
X141534760Y-54724882D01*
X141567814Y-54739323D01*
X141578852Y-54767201D01*
X141678181Y-54921330D01*
X141805556Y-55053231D01*
X141956124Y-55157878D01*
X141969873Y-55163885D01*
X141988547Y-55211049D01*
X142087876Y-55365178D01*
X142215251Y-55497079D01*
X142365819Y-55601726D01*
X142533846Y-55675135D01*
X142626378Y-55695480D01*
X144973323Y-58946768D01*
X146758897Y-62842548D01*
X147753770Y-67010952D01*
X147920050Y-71293202D01*
X147251399Y-75526207D01*
X145773293Y-79548708D01*
X143531397Y-83224936D01*
X142611231Y-84348962D01*
X142454995Y-84412085D01*
X142301564Y-84512488D01*
X142170556Y-84640781D01*
X142066962Y-84792076D01*
X142045420Y-84842337D01*
X142030708Y-84848281D01*
X141877277Y-84948684D01*
X141746269Y-85076977D01*
X141642675Y-85228272D01*
X141628865Y-85260492D01*
X141598979Y-85272567D01*
X141445548Y-85372970D01*
X141314540Y-85501263D01*
X141210946Y-85652558D01*
X141202100Y-85673196D01*
X141153257Y-85692930D01*
X140999826Y-85793333D01*
X140868818Y-85921626D01*
X140765224Y-86072921D01*
X140756399Y-86093511D01*
X140711930Y-86111478D01*
X140558499Y-86211881D01*
X140427491Y-86340174D01*
X140340064Y-86467858D01*
X140245994Y-86505865D01*
X140092563Y-86606268D01*
X139961555Y-86734561D01*
X139881177Y-86851950D01*
X139783127Y-86891565D01*
X139629696Y-86991968D01*
X139498688Y-87120261D01*
X139395094Y-87271556D01*
X139322859Y-87440091D01*
X139310831Y-87496680D01*
X135934589Y-89641770D01*
X131930280Y-91197334D01*
X127700089Y-91945498D01*
X123405137Y-91857765D01*
X119209029Y-90937477D01*
X115265897Y-89217204D01*
X112592132Y-87428822D01*
X112582536Y-87380357D01*
X112512661Y-87210829D01*
X112411190Y-87058102D01*
X112281986Y-86927993D01*
X112129971Y-86825458D01*
X112020733Y-86779539D01*
X111951503Y-86675338D01*
X111822299Y-86545229D01*
X111670284Y-86442694D01*
X111598952Y-86412709D01*
X111503996Y-86269788D01*
X111374792Y-86139679D01*
X111222777Y-86037144D01*
X111143588Y-86003856D01*
X111054498Y-85869764D01*
X110925294Y-85739655D01*
X110773279Y-85637120D01*
X110757126Y-85630330D01*
X110738987Y-85586322D01*
X110637516Y-85433595D01*
X110508312Y-85303486D01*
X110356297Y-85200951D01*
X110315960Y-85183995D01*
X110307594Y-85163698D01*
X110206123Y-85010971D01*
X110076919Y-84880862D01*
X109927376Y-84779994D01*
X109900059Y-84713719D01*
X109798588Y-84560992D01*
X109669384Y-84430883D01*
X109517369Y-84328348D01*
X109348334Y-84257292D01*
X109337999Y-84255171D01*
X107026674Y-81053228D01*
X105241103Y-77157452D01*
X104246230Y-72989048D01*
X104079950Y-68706799D01*
X104748601Y-64473793D01*
X106226707Y-60451293D01*
X108468604Y-56775064D01*
X109443045Y-55584737D01*
X109534132Y-55568676D01*
X109705085Y-55502368D01*
X109859904Y-55404117D01*
X109992690Y-55277666D01*
X110098386Y-55127832D01*
X110132560Y-55051077D01*
X110269948Y-54963888D01*
X110402734Y-54837437D01*
X110508430Y-54687603D01*
X110530112Y-54638906D01*
X110540403Y-54634914D01*
X110695222Y-54536663D01*
X110828008Y-54410212D01*
X110933704Y-54260378D01*
X110949838Y-54224141D01*
X110975040Y-54214366D01*
X111129859Y-54116115D01*
X111262645Y-53989664D01*
X111368341Y-53839830D01*
X111372623Y-53830212D01*
X111422642Y-53810811D01*
X111577461Y-53712560D01*
X111710247Y-53586109D01*
X111813413Y-53439861D01*
X111877600Y-53414965D01*
X112032419Y-53316714D01*
X112165205Y-53190263D01*
X112251325Y-53068179D01*
X112341611Y-53033160D01*
X112496430Y-52934909D01*
X112629216Y-52808458D01*
X112734912Y-52658624D01*
X112808936Y-52492364D01*
X116161294Y-50378768D01*
X120159787Y-48841437D01*
X124380734Y-48110028D01*
X128663353Y-48212401D01*
M02*
