G04 #@! TF.FileFunction,Soldermask,Bot*
%FSLAX46Y46*%
G04 Gerber Fmt 4.6, Leading zero omitted, Abs format (unit mm)*
G04 Created by KiCad (PCBNEW 4.0.6+dfsg1-1) date Sat Apr 14 23:57:49 2018*
%MOMM*%
%LPD*%
G01*
G04 APERTURE LIST*
%ADD10C,0.100000*%
%ADD11C,7.900000*%
%ADD12R,1.900000X0.850000*%
%ADD13R,1.150000X1.200000*%
%ADD14R,1.200000X1.150000*%
%ADD15R,1.000000X2.200000*%
%ADD16R,1.400000X3.200000*%
%ADD17R,1.400000X5.900000*%
%ADD18R,2.000000X3.400000*%
%ADD19R,2.100000X2.100000*%
%ADD20O,2.100000X2.100000*%
%ADD21R,2.127200X2.432000*%
%ADD22O,2.127200X2.432000*%
%ADD23R,2.432000X2.127200*%
%ADD24O,2.432000X2.127200*%
%ADD25R,1.200000X1.200000*%
%ADD26R,0.900000X1.300000*%
G04 APERTURE END LIST*
D10*
D11*
X206000000Y-86900000D03*
D12*
X129800000Y-134050000D03*
X129800000Y-134700000D03*
X129800000Y-135350000D03*
X129800000Y-136000000D03*
X129800000Y-136650000D03*
X129800000Y-137300000D03*
X129800000Y-137950000D03*
X129800000Y-138600000D03*
X123900000Y-138600000D03*
X123900000Y-137950000D03*
X123900000Y-137300000D03*
X123900000Y-136650000D03*
X123900000Y-136000000D03*
X123900000Y-135350000D03*
X123900000Y-134700000D03*
X123900000Y-134050000D03*
X129800000Y-126600000D03*
X129800000Y-127250000D03*
X129800000Y-127900000D03*
X129800000Y-128550000D03*
X129800000Y-129200000D03*
X129800000Y-129850000D03*
X129800000Y-130500000D03*
X129800000Y-131150000D03*
X123900000Y-131150000D03*
X123900000Y-130500000D03*
X123900000Y-129850000D03*
X123900000Y-129200000D03*
X123900000Y-128550000D03*
X123900000Y-127900000D03*
X123900000Y-127250000D03*
X123900000Y-126600000D03*
D13*
X150800000Y-100300000D03*
X150800000Y-101800000D03*
X150850000Y-106500000D03*
X150850000Y-108000000D03*
X150850000Y-112900000D03*
X150850000Y-114400000D03*
X201450000Y-162700000D03*
X201450000Y-164200000D03*
X201350000Y-106600000D03*
X201350000Y-108100000D03*
X150900000Y-119100000D03*
X150900000Y-120600000D03*
D14*
X149500000Y-95300000D03*
X151000000Y-95300000D03*
D13*
X201350000Y-113000000D03*
X201350000Y-114500000D03*
X150850000Y-131600000D03*
X150850000Y-133100000D03*
X201400000Y-118900000D03*
X201400000Y-120400000D03*
D14*
X150850000Y-169200000D03*
X152350000Y-169200000D03*
X201450000Y-169300000D03*
X202950000Y-169300000D03*
D13*
X201400000Y-131650000D03*
X201400000Y-133150000D03*
D14*
X200250000Y-95300000D03*
X201750000Y-95300000D03*
D13*
X150850000Y-144150000D03*
X150850000Y-145650000D03*
X201400000Y-100350000D03*
X201400000Y-101850000D03*
X201450000Y-144050000D03*
X201450000Y-145550000D03*
X174350000Y-131500000D03*
X174350000Y-133000000D03*
X150800000Y-162850000D03*
X150800000Y-164350000D03*
X150800000Y-150400000D03*
X150800000Y-151900000D03*
X201300000Y-150500000D03*
X201300000Y-152000000D03*
X201350000Y-156450000D03*
X201350000Y-157950000D03*
X150800000Y-156600000D03*
X150800000Y-158100000D03*
D15*
X126950000Y-156200000D03*
X128200000Y-156200000D03*
X129450000Y-156200000D03*
X130700000Y-156200000D03*
D16*
X132425000Y-152850000D03*
X125225000Y-152850000D03*
D17*
X181750000Y-173125000D03*
X179750000Y-173125000D03*
X177750000Y-173125000D03*
X175750000Y-173125000D03*
X173750000Y-173125000D03*
X171750000Y-173125000D03*
X169750000Y-173125000D03*
D18*
X184150000Y-170875000D03*
X167350000Y-170875000D03*
D15*
X130575000Y-109350000D03*
X129325000Y-109350000D03*
X128075000Y-109350000D03*
X126825000Y-109350000D03*
D16*
X125100000Y-112700000D03*
X132300000Y-112700000D03*
D19*
X172600000Y-87100000D03*
D20*
X175140000Y-87100000D03*
D21*
X173460000Y-180000000D03*
D22*
X176000000Y-180000000D03*
X178540000Y-180000000D03*
D23*
X191350000Y-177110000D03*
D24*
X191350000Y-179650000D03*
X191350000Y-182190000D03*
D23*
X158800000Y-177110000D03*
D24*
X158800000Y-179650000D03*
X158800000Y-182190000D03*
D25*
X207550000Y-172750000D03*
X205950000Y-172750000D03*
D26*
X201750000Y-172750000D03*
X203250000Y-172750000D03*
D11*
X145000000Y-86900000D03*
M02*
