M48
;DRILL file {KiCad 4.0.6+dfsg1-1} date Sat Apr 14 23:57:52 2018
;FORMAT={3:3/ absolute / metric / suppress leading zeros}
FMAT,2
METRIC,TZ
T1C0.400
T2C1.000
T3C1.016
T4C6.200
%
G90
G05
M71
T1
X120100Y-132000
X121100Y-124700
X121190Y-126193
X122100Y-132100
X122200Y-119900
X122200Y-146000
X122243Y-133078
X122277Y-135096
X122300Y-127400
X125800Y-123100
X125856Y-135050
X126099Y-107899
X126114Y-107150
X126675Y-123775
X126800Y-107100
X126800Y-140400
X126800Y-143700
X126825Y-107861
X127000Y-132400
X127300Y-120000
X127905Y-132868
X128100Y-106300
X128100Y-107100
X128100Y-130900
X128300Y-135400
X128761Y-106303
X128761Y-107098
X129300Y-159500
X131034Y-138382
X131375Y-131161
X131700Y-122600
X131700Y-133100
X132400Y-134100
X132419Y-141775
X132600Y-136700
X132900Y-124200
X133000Y-95500
X133300Y-123300
X133400Y-97000
X133400Y-142100
X134450Y-161050
X134450Y-167300
X134500Y-104800
X134500Y-154800
X134501Y-98250
X134550Y-111000
X134550Y-117300
X134550Y-123500
X134550Y-129800
X134550Y-136050
X134550Y-142250
X134550Y-148500
X136500Y-97950
X136565Y-116612
X136583Y-129128
X136583Y-135376
X136591Y-104146
X136637Y-166666
X136651Y-122942
X136653Y-110448
X136690Y-147960
X136697Y-154212
X136699Y-141717
X136752Y-160500
X138174Y-97951
X138180Y-129028
X138223Y-110350
X138237Y-122863
X138252Y-154120
X138266Y-116647
X138278Y-147898
X138308Y-135428
X138322Y-104200
X138342Y-166692
X138395Y-141732
X138400Y-160478
X139875Y-97949
X139896Y-116559
X139904Y-104075
X139905Y-110325
X139934Y-166594
X139982Y-160398
X140008Y-147923
X140008Y-135428
X140021Y-122942
X140029Y-129196
X140034Y-141695
X140124Y-154250
X141498Y-129200
X141560Y-97930
X141582Y-116584
X141597Y-122852
X141622Y-135376
X141623Y-110386
X141682Y-147927
X141687Y-160426
X141689Y-166676
X141703Y-104208
X141737Y-154212
X141738Y-141717
X143224Y-97949
X143249Y-129200
X143265Y-110311
X143301Y-104113
X143322Y-147872
X143378Y-135428
X143389Y-166676
X143390Y-122942
X143403Y-116704
X143436Y-160459
X143437Y-154212
X143500Y-141752
X144920Y-97940
X144933Y-129183
X144947Y-116577
X144970Y-104112
X144993Y-110386
X145024Y-135409
X145046Y-166666
X145053Y-154176
X145060Y-122942
X145088Y-147953
X145107Y-141717
X145150Y-160489
X146599Y-97951
X146608Y-129192
X146620Y-104037
X146644Y-122820
X146662Y-110351
X146671Y-116609
X146736Y-166658
X146746Y-160418
X146747Y-135428
X146790Y-154202
X146807Y-147965
X146807Y-141717
X148275Y-129192
X148337Y-97862
X148361Y-116632
X148394Y-110418
X148394Y-104170
X148415Y-166666
X148417Y-135428
X148434Y-147937
X148450Y-122957
X148475Y-160459
X148537Y-141750
X148550Y-154267
X149976Y-97951
X149979Y-129193
X150015Y-154062
X150050Y-122869
X150074Y-110398
X150082Y-116655
X150116Y-160418
X150117Y-135428
X150143Y-104209
X150195Y-147975
X150228Y-166750
X150250Y-141763
X151649Y-129198
X151653Y-122770
X151678Y-116565
X151739Y-97898
X151752Y-110407
X151776Y-104181
X151783Y-154169
X151844Y-166707
X151847Y-141717
X151847Y-135470
X151900Y-147996
X151900Y-160500
X153349Y-129177
X153351Y-97949
X153363Y-116540
X153391Y-104088
X153410Y-110361
X153430Y-135376
X153433Y-166618
X153452Y-122902
X153478Y-141669
X153483Y-154169
X153485Y-160418
X153486Y-147923
X155039Y-129186
X155063Y-110340
X155080Y-122857
X155084Y-116615
X155122Y-104159
X155154Y-166666
X155156Y-135428
X155186Y-147946
X155194Y-97969
X155214Y-160459
X155215Y-154212
X155216Y-141717
X156716Y-129181
X156725Y-97950
X156772Y-110352
X156779Y-116609
X156789Y-104125
X156789Y-122869
X156835Y-166650
X156855Y-154171
X156856Y-135428
X156884Y-141697
X156915Y-147965
X156970Y-160500
X158397Y-129180
X158399Y-116534
X158459Y-104125
X158459Y-110373
X158470Y-160368
X158480Y-97900
X158525Y-154171
X158525Y-147923
X158528Y-135430
X158539Y-166678
X158563Y-122959
X158586Y-141717
X159150Y-85000
X160073Y-97926
X160082Y-129188
X160130Y-104088
X160152Y-110365
X160170Y-154120
X160212Y-122921
X160214Y-116676
X160224Y-160418
X160225Y-147923
X160228Y-135430
X160283Y-166707
X160350Y-141754
X161754Y-129209
X161775Y-104050
X161794Y-160310
X161808Y-97852
X161818Y-110361
X161839Y-154120
X161859Y-122901
X161877Y-141661
X161935Y-135456
X161955Y-147965
X161966Y-116732
X162000Y-166743
X163435Y-129188
X163452Y-97950
X163473Y-116542
X163539Y-154120
X163543Y-110389
X163595Y-141676
X163595Y-135428
X163597Y-104190
X163639Y-147955
X163643Y-122966
X163653Y-166707
X163759Y-160550
X165145Y-116547
X165148Y-129181
X165161Y-122820
X165188Y-104113
X165209Y-147872
X165219Y-110396
X165279Y-97952
X165280Y-135440
X165289Y-160438
X165322Y-166707
X165323Y-154212
X165344Y-141727
X166800Y-86700
X166826Y-97927
X166829Y-116517
X166840Y-129184
X166878Y-110348
X166922Y-104150
X166963Y-160418
X166965Y-135428
X166965Y-122933
X166982Y-141689
X166985Y-147939
X167022Y-166707
X167100Y-154270
X168507Y-129149
X168547Y-97852
X168568Y-116621
X168581Y-104139
X168589Y-110396
X168600Y-122902
X168633Y-160418
X168634Y-135428
X168691Y-147963
X168693Y-154212
X168694Y-141717
X168697Y-166710
X170213Y-129192
X170231Y-122820
X170279Y-154120
X170289Y-97900
X170311Y-110418
X170334Y-147923
X170334Y-141676
X170334Y-135428
X170348Y-104200
X170360Y-116704
X170392Y-160459
X170496Y-166800
X171862Y-129211
X171908Y-97840
X171913Y-110343
X171951Y-104140
X171969Y-122902
X171993Y-116676
X172003Y-154171
X172003Y-141676
X172004Y-135428
X172062Y-160459
X172098Y-147983
X172115Y-166750
X173520Y-110450
X173543Y-129186
X173637Y-97877
X173637Y-122869
X173648Y-160368
X173658Y-116644
X173681Y-154152
X173703Y-141676
X173704Y-135428
X173705Y-104190
X173763Y-147965
X173850Y-166785
X175248Y-129180
X175302Y-110367
X175307Y-122869
X175318Y-97890
X175322Y-135381
X175350Y-116665
X175372Y-160418
X175372Y-154171
X175375Y-104190
X175381Y-141682
X175433Y-147965
X175449Y-166717
X176912Y-129203
X176946Y-97790
X176954Y-122795
X176987Y-116597
X176992Y-110355
X176996Y-104113
X177027Y-147881
X177072Y-160418
X177131Y-166707
X177132Y-154212
X177134Y-141717
X177134Y-135470
X178587Y-97727
X178620Y-129226
X178624Y-122795
X178687Y-160368
X178709Y-116655
X178716Y-110413
X178730Y-147913
X178743Y-135428
X178744Y-104190
X178803Y-141717
X178850Y-154241
X178850Y-166746
X180329Y-129226
X180331Y-97816
X180356Y-104100
X180381Y-160361
X180409Y-116655
X180420Y-110418
X180502Y-154212
X180502Y-147965
X180503Y-141717
X180504Y-135470
X180518Y-122982
X180554Y-166750
X181500Y-179500
X181528Y-178250
X182001Y-129208
X182008Y-104075
X182045Y-116619
X182057Y-154120
X182058Y-97891
X182097Y-110424
X182135Y-147941
X182150Y-122959
X182171Y-160459
X182173Y-141717
X182173Y-135470
X182200Y-166726
X183672Y-110260
X183673Y-129223
X183727Y-122845
X183756Y-116632
X183767Y-104148
X183790Y-97922
X183812Y-154171
X183812Y-147923
X183812Y-135428
X183833Y-141691
X183841Y-166689
X183871Y-160459
X184300Y-174100
X184500Y-86800
X185100Y-175400
X185358Y-104043
X185367Y-110307
X185367Y-129192
X185380Y-147814
X185415Y-116621
X185437Y-122892
X185482Y-141676
X185535Y-97978
X185538Y-135467
X185541Y-154212
X185545Y-160462
X185547Y-166711
X187054Y-129200
X187084Y-110332
X187105Y-104113
X187115Y-116621
X187139Y-97903
X187161Y-122914
X187181Y-160418
X187241Y-154212
X187242Y-147965
X187243Y-135470
X187293Y-166750
X187300Y-141748
X188747Y-129184
X188763Y-110345
X188784Y-97877
X188796Y-154120
X188797Y-122882
X188806Y-116643
X188806Y-104148
X188852Y-135428
X188947Y-141735
X188948Y-147984
X188950Y-160485
X188963Y-166750
X190416Y-129168
X190450Y-160310
X190451Y-104082
X190455Y-97840
X190482Y-110370
X190526Y-141654
X190529Y-116665
X190531Y-154154
X190552Y-122933
X190587Y-147950
X190613Y-135470
X190713Y-166800
X192077Y-129184
X192147Y-122859
X192174Y-141634
X192184Y-110404
X192187Y-116655
X192199Y-104170
X192203Y-97926
X192220Y-160418
X192221Y-147923
X192250Y-85050
X192280Y-154212
X192290Y-135474
X192333Y-166750
X193771Y-129184
X193789Y-97780
X193815Y-110321
X193825Y-104088
X193835Y-116597
X193920Y-160418
X193920Y-154171
X193921Y-147923
X193921Y-135428
X193946Y-122951
X193981Y-141717
X194033Y-166750
X195424Y-129168
X195452Y-97767
X195487Y-110324
X195489Y-154062
X195514Y-104113
X195546Y-116644
X195575Y-135415
X195589Y-166666
X195591Y-122933
X195651Y-141717
X195700Y-147991
X195704Y-160500
X197150Y-129184
X197162Y-110283
X197179Y-116560
X197210Y-104108
X197227Y-122872
X197238Y-97893
X197290Y-160418
X197290Y-147923
X197336Y-135460
X197400Y-154243
X197411Y-141750
X197452Y-166800
X198827Y-129222
X198843Y-97807
X198847Y-104062
X198849Y-122808
X198905Y-154120
X198937Y-116665
X198983Y-141693
X198986Y-110456
X198990Y-160441
X199021Y-135470
X199100Y-166778
X199150Y-148072
X200250Y-172750
X200517Y-129212
X200559Y-97832
X200565Y-116584
X200583Y-104113
X200605Y-160368
X200615Y-110396
X200630Y-154145
X200653Y-122926
X200683Y-141693
X200721Y-135470
X200822Y-166800
X200828Y-148050
X202234Y-110336
X202235Y-122833
X202237Y-129182
X202273Y-97889
X202328Y-104187
X202330Y-141676
X202368Y-116712
X202391Y-135470
X202396Y-160464
X202441Y-166750
X202496Y-154300
X202498Y-148050
X203847Y-129172
X203934Y-104088
X203974Y-122880
X204029Y-160418
X204031Y-110438
X204090Y-141717
X204091Y-135470
X204107Y-116735
X204134Y-98005
X204141Y-166750
X204146Y-154250
X204148Y-148000
X205557Y-129172
X205588Y-122808
X205644Y-141624
X205649Y-97895
X205654Y-110396
X205698Y-160418
X205699Y-147923
X205710Y-104197
X205795Y-135488
X205800Y-154235
X205811Y-166750
X205825Y-116758
X207267Y-129192
X207304Y-104088
X207324Y-141602
X207332Y-97877
X207369Y-122907
X207377Y-110418
X207399Y-147923
X207434Y-135453
X207457Y-166707
X207475Y-116734
X207500Y-160487
X207565Y-154300
X208936Y-129192
X208963Y-104072
X208992Y-110361
X208993Y-122857
X209000Y-172750
X209013Y-141624
X209013Y-147872
X209071Y-97943
X209079Y-135436
X209107Y-116712
X209126Y-166707
X209128Y-154212
X209183Y-160500
X210626Y-129212
X210692Y-104113
X210693Y-122857
X210713Y-110384
X210768Y-147923
X210788Y-160434
X210796Y-97961
X210828Y-154212
X210829Y-141717
X210830Y-135470
X210845Y-116734
X210930Y-166800
X212321Y-129208
X212334Y-97827
X212341Y-104086
X212385Y-110550
X212421Y-122918
X212427Y-116676
X212428Y-141667
X212490Y-147960
X212497Y-160459
X212497Y-154212
X212499Y-135470
X212550Y-166750
X213939Y-110516
X214062Y-122857
X214072Y-104125
X214083Y-129128
X214116Y-97922
X214137Y-166666
X214138Y-141676
X214139Y-135428
X214155Y-116697
X214190Y-147960
X214197Y-160459
X214197Y-154212
X215700Y-129100
X215750Y-135300
X215800Y-147650
X215800Y-153900
X215800Y-160150
X215833Y-122983
X215850Y-166450
X215876Y-97850
X215878Y-110499
X215900Y-141600
X215950Y-104350
X215950Y-116600
X217400Y-139200
X217700Y-121100
X217700Y-126200
X218200Y-143400
X218500Y-122200
X220000Y-108300
X221750Y-116000
X221750Y-150000
X223200Y-122300
X224000Y-119900
X224250Y-129250
X224250Y-141250
X225000Y-108300
X225500Y-134100
X228500Y-143300
T2
X172600Y-87100
X175140Y-87100
T3
X158800Y-177110
X158800Y-179650
X158800Y-182190
X173460Y-180000
X176000Y-180000
X178540Y-180000
X191350Y-177110
X191350Y-179650
X191350Y-182190
T4
X145000Y-86900
X206000Y-86900
T0
M30
