M48
;DRILL file {KiCad 4.0.6+dfsg1-1} date Fri Jun  8 13:37:02 2018
;FORMAT={3:3/ absolute / metric / suppress leading zeros}
FMAT,2
METRIC,TZ
T1C0.400
T2C0.800
T3C2.390
T4C3.450
%
G90
G05
M71
T1
X115386Y-121004
X115394Y-120271
X116000Y-120260
X116000Y-121000
X116008Y-152004
X117000Y-134000
X117000Y-135000
X117000Y-136000
X117000Y-137000
X117000Y-138000
X117005Y-152000
X118000Y-159000
X118000Y-152001
X118511Y-143511
X118939Y-118561
X119000Y-159000
X119003Y-152000
X119997Y-151998
X120000Y-132000
X120000Y-159000
X120205Y-75709
X120210Y-76666
X121000Y-132000
X121000Y-152000
X121244Y-79863
X121439Y-119281
X121837Y-79167
X122000Y-132000
X122300Y-102040
X123000Y-132000
X123964Y-76388
X124000Y-132000
X124096Y-97454
X124976Y-94681
X124976Y-95542
X125043Y-117102
X125478Y-76523
X126186Y-85767
X126525Y-80890
X126650Y-86305
X126733Y-85295
X127000Y-173000
X127137Y-79514
X127155Y-85808
X127196Y-84848
X127660Y-85320
X128000Y-173000
X128925Y-146575
X129000Y-123500
X129000Y-124500
X129000Y-125500
X129000Y-126500
X129000Y-173000
X129535Y-84181
X129600Y-67622
X129739Y-143511
X130000Y-96000
X130000Y-97000
X130000Y-123500
X130000Y-124500
X130000Y-125500
X130000Y-173000
X130471Y-92271
X131000Y-96002
X131000Y-97000
X131400Y-83200
X131436Y-77622
X131800Y-131400
X132453Y-77627
X132961Y-80401
X133100Y-66821
X133167Y-82594
X133196Y-78914
X133430Y-124530
X133430Y-126355
X133460Y-122970
X133527Y-79701
X134006Y-83572
X134399Y-98605
X134404Y-97285
X134479Y-100461
X134500Y-104800
X134500Y-106700
X134500Y-108000
X134500Y-109800
X134500Y-111100
X134506Y-101789
X134553Y-103635
X134600Y-112900
X134600Y-114200
X134600Y-116000
X134600Y-117400
X134600Y-119200
X134600Y-120500
X134600Y-122300
X134600Y-123600
X134600Y-125500
X134600Y-126700
X134600Y-128500
X134600Y-129800
X134600Y-131600
X134600Y-133000
X134600Y-134800
X134600Y-136100
X134600Y-137900
X134600Y-139200
X134600Y-141000
X134600Y-142300
X134600Y-144200
X134600Y-145400
X134600Y-147300
X134600Y-148600
X134600Y-150400
X134600Y-151700
X134600Y-153500
X134600Y-154800
X134600Y-156600
X134600Y-158000
X134600Y-159800
X134600Y-161100
X134600Y-162900
X134600Y-164200
X134600Y-166000
X134600Y-167400
X134746Y-82889
X135000Y-89750
X135000Y-90500
X135000Y-91250
X135123Y-77970
X136005Y-82267
X136484Y-147926
X136493Y-163546
X136493Y-116714
X136494Y-141685
X136495Y-151056
X136497Y-107342
X136499Y-101074
X136499Y-104200
X136500Y-113600
X136500Y-132300
X136500Y-138600
X136500Y-144800
X136500Y-157300
X136500Y-170100
X136500Y-97950
X136500Y-126077
X136501Y-122953
X136503Y-160419
X136503Y-166717
X136504Y-135439
X136505Y-154183
X136505Y-110448
X136506Y-119834
X136506Y-129193
X137257Y-81030
X137582Y-85362
X138172Y-163557
X138173Y-104200
X138174Y-97951
X138177Y-160436
X138177Y-101074
X138178Y-166728
X138178Y-147949
X138178Y-113584
X138178Y-126057
X138179Y-110461
X138184Y-151068
X138184Y-129197
X138184Y-116707
X138184Y-107336
X138185Y-119835
X138187Y-122944
X138188Y-135448
X138188Y-141696
X138194Y-154190
X138200Y-132300
X138200Y-138600
X138200Y-144800
X138200Y-157300
X138200Y-170100
X138413Y-85618
X138582Y-61838
X138900Y-80071
X139283Y-70504
X139865Y-147941
X139865Y-107339
X139865Y-129201
X139866Y-154182
X139867Y-141689
X139869Y-110450
X139869Y-151070
X139870Y-119822
X139870Y-122946
X139870Y-116701
X139871Y-135430
X139872Y-126074
X139872Y-160426
X139874Y-113580
X139874Y-166731
X139874Y-101074
X139874Y-163548
X139875Y-104200
X139875Y-97949
X139900Y-132300
X139900Y-138600
X139900Y-144800
X139900Y-157300
X139900Y-170100
X141100Y-64675
X141119Y-77094
X141383Y-70658
X141500Y-132300
X141500Y-144800
X141500Y-157300
X141544Y-141687
X141544Y-135438
X141545Y-154177
X141548Y-151058
X141548Y-101074
X141549Y-126073
X141550Y-129202
X141550Y-166725
X141552Y-113580
X141553Y-116709
X141555Y-104203
X141556Y-107333
X141556Y-163551
X141557Y-122955
X141557Y-119835
X141558Y-160433
X141559Y-147926
X141560Y-97930
X141560Y-110458
X141572Y-138568
X141600Y-170100
X141890Y-70026
X141982Y-71518
X142430Y-77749
X142450Y-76463
X142498Y-69346
X143200Y-132300
X143200Y-144800
X143200Y-157300
X143200Y-170100
X143224Y-97949
X143228Y-166725
X143230Y-135438
X143233Y-151069
X143234Y-116698
X143236Y-160426
X143238Y-122954
X143238Y-147956
X143239Y-110452
X143241Y-113580
X143241Y-126081
X143241Y-104209
X143241Y-163564
X143242Y-119831
X143243Y-154177
X143244Y-107338
X143249Y-141691
X143249Y-129200
X143251Y-101075
X143252Y-138565
X143339Y-76454
X143741Y-71456
X143773Y-80210
X143987Y-73566
X144650Y-74116
X144900Y-132300
X144900Y-144800
X144900Y-157300
X144900Y-170100
X144915Y-129199
X144915Y-135433
X144917Y-147941
X144918Y-166737
X144920Y-126079
X144920Y-97940
X144922Y-160427
X144922Y-113578
X144922Y-119830
X144923Y-101075
X144923Y-116711
X144923Y-107330
X144924Y-122952
X144925Y-110461
X144926Y-141682
X144926Y-151083
X144928Y-104211
X144932Y-163567
X144936Y-154207
X144939Y-138572
X145575Y-76109
X145998Y-183933
X146000Y-180000
X146097Y-75516
X146591Y-135422
X146599Y-97951
X146600Y-101100
X146600Y-132300
X146600Y-138600
X146600Y-144800
X146600Y-157300
X146600Y-170100
X146605Y-113580
X146606Y-166737
X146608Y-129192
X146608Y-107342
X146608Y-122937
X146609Y-116708
X146610Y-110457
X146610Y-119832
X146610Y-126078
X146611Y-104211
X146611Y-151072
X146613Y-163561
X146614Y-141694
X146614Y-147940
X146615Y-160417
X146617Y-154179
X146898Y-79283
X146901Y-80113
X146965Y-81017
X146979Y-183955
X147000Y-180000
X147150Y-94500
X147395Y-84417
X147600Y-76553
X147998Y-183991
X148000Y-180000
X148275Y-129192
X148279Y-147932
X148288Y-160436
X148291Y-122950
X148291Y-151066
X148292Y-107333
X148292Y-104214
X148292Y-119833
X148292Y-135452
X148293Y-110456
X148294Y-154179
X148294Y-116711
X148294Y-163556
X148294Y-166730
X148295Y-113575
X148300Y-126075
X148300Y-97950
X148300Y-101100
X148300Y-132300
X148300Y-138600
X148300Y-144800
X148300Y-157300
X148300Y-170100
X148304Y-141695
X149000Y-94500
X149400Y-78200
X149439Y-79123
X149960Y-141690
X149969Y-135441
X149970Y-166746
X149976Y-113579
X149976Y-122951
X149976Y-97951
X149977Y-154185
X149977Y-107330
X149979Y-129193
X149979Y-104209
X149979Y-116708
X149980Y-151071
X149980Y-119830
X149981Y-126082
X149981Y-160422
X149982Y-110456
X149983Y-147947
X149986Y-163549
X150000Y-101100
X150000Y-132300
X150000Y-138600
X150000Y-144800
X150000Y-157300
X150000Y-170100
X151000Y-94500
X151648Y-147924
X151649Y-129198
X151650Y-166725
X151657Y-122957
X151659Y-113583
X151659Y-116705
X151660Y-107330
X151663Y-135454
X151664Y-119829
X151665Y-110463
X151665Y-154183
X151666Y-104210
X151666Y-126076
X151669Y-151081
X151674Y-163555
X151675Y-101073
X151677Y-141703
X151679Y-160429
X151679Y-170104
X151700Y-132300
X151700Y-138600
X151700Y-144800
X151700Y-157300
X151739Y-97898
X151800Y-86400
X153000Y-94500
X153300Y-144800
X153300Y-170100
X153336Y-166729
X153337Y-151062
X153338Y-141703
X153342Y-154206
X153342Y-135451
X153344Y-160431
X153344Y-163547
X153344Y-147932
X153346Y-107339
X153346Y-122944
X153347Y-113581
X153347Y-119835
X153348Y-138576
X153349Y-129177
X153349Y-126077
X153350Y-77971
X153351Y-110459
X153351Y-97949
X153352Y-116708
X153354Y-104209
X153400Y-101100
X153400Y-132300
X153400Y-157300
X155000Y-94500
X155000Y-101100
X155000Y-132300
X155000Y-144800
X155000Y-157300
X155000Y-170100
X155024Y-97950
X155027Y-113578
X155031Y-122957
X155032Y-107335
X155032Y-126074
X155032Y-104211
X155033Y-110459
X155034Y-116702
X155034Y-160434
X155034Y-119832
X155036Y-151073
X155039Y-129186
X155040Y-166706
X155041Y-135452
X155041Y-154183
X155046Y-163560
X155046Y-138564
X155047Y-147944
X155054Y-141698
X155274Y-72640
X156300Y-84400
X156700Y-132300
X156700Y-144800
X156700Y-157300
X156700Y-170100
X156710Y-141696
X156715Y-160436
X156716Y-129181
X156716Y-135456
X156717Y-147936
X156717Y-104206
X156717Y-107338
X156719Y-122949
X156719Y-116712
X156719Y-126069
X156720Y-166711
X156720Y-110456
X156721Y-119828
X156721Y-113577
X156722Y-163563
X156723Y-154198
X156725Y-138576
X156725Y-97950
X156726Y-151082
X156727Y-101075
X156950Y-73246
X157000Y-94500
X157200Y-68600
X157533Y-70583
X157624Y-72572
X158397Y-129180
X158399Y-97950
X158400Y-101100
X158400Y-132300
X158400Y-144800
X158400Y-151100
X158400Y-157300
X158400Y-170100
X158401Y-160436
X158401Y-116712
X158401Y-141691
X158402Y-107335
X158403Y-113585
X158404Y-104209
X158406Y-119836
X158406Y-154204
X158406Y-126076
X158407Y-122950
X158407Y-110457
X158407Y-138576
X158409Y-135447
X158409Y-166720
X158410Y-163562
X158411Y-147961
X158740Y-71919
X159000Y-94500
X159002Y-71005
X159359Y-80225
X160006Y-70999
X160072Y-147944
X160073Y-166725
X160073Y-97926
X160082Y-129188
X160085Y-116711
X160086Y-135447
X160087Y-110464
X160087Y-163566
X160088Y-160438
X160089Y-113581
X160090Y-154204
X160090Y-119832
X160091Y-107329
X160091Y-122955
X160092Y-141691
X160093Y-126073
X160094Y-104213
X160100Y-101100
X160100Y-132300
X160100Y-138600
X160100Y-144800
X160100Y-151100
X160100Y-157300
X160100Y-170100
X160475Y-80295
X161000Y-94500
X161013Y-70996
X161754Y-129209
X161758Y-135451
X161758Y-163574
X161760Y-160438
X161762Y-154198
X161763Y-107340
X161766Y-147944
X161768Y-104208
X161769Y-141700
X161770Y-110463
X161771Y-116705
X161771Y-151077
X161773Y-126076
X161773Y-113587
X161773Y-122955
X161774Y-119830
X161774Y-166725
X161776Y-97950
X161800Y-101100
X161800Y-132300
X161800Y-138600
X161800Y-144800
X161800Y-157300
X161800Y-170100
X162001Y-71011
X163004Y-70988
X163170Y-77390
X163400Y-132300
X163435Y-129188
X163446Y-122947
X163452Y-97950
X163452Y-166739
X163453Y-138577
X163454Y-141695
X163456Y-104207
X163456Y-119829
X163456Y-107333
X163456Y-135463
X163457Y-116701
X163457Y-163561
X163459Y-113583
X163459Y-160423
X163459Y-126078
X163461Y-147928
X163463Y-110454
X163464Y-154180
X163467Y-151073
X163473Y-101075
X163500Y-144800
X163500Y-157300
X163500Y-170100
X163850Y-76650
X164010Y-70988
X165001Y-70988
X165100Y-132300
X165100Y-144800
X165100Y-170100
X165132Y-163577
X165137Y-135464
X165138Y-141680
X165138Y-147928
X165139Y-160440
X165139Y-119833
X165139Y-126075
X165139Y-116705
X165140Y-151079
X165140Y-104214
X165142Y-166732
X165143Y-107329
X165143Y-110460
X165144Y-154174
X165144Y-138568
X165145Y-122940
X165148Y-129181
X165148Y-113581
X165150Y-101075
X165151Y-97950
X165200Y-157300
X165560Y-76940
X165600Y-83130
X166800Y-132300
X166800Y-144800
X166800Y-157300
X166800Y-170100
X166819Y-163559
X166820Y-113586
X166821Y-122944
X166821Y-160434
X166823Y-166717
X166824Y-135447
X166826Y-101075
X166826Y-97927
X166827Y-141680
X166827Y-138568
X166827Y-104210
X166827Y-110465
X166828Y-116706
X166829Y-107334
X166830Y-119837
X166831Y-126075
X166836Y-151084
X166836Y-154155
X166840Y-129184
X166848Y-147939
X166997Y-71003
X168019Y-70985
X168388Y-179908
X168500Y-101100
X168500Y-132300
X168500Y-144800
X168500Y-151100
X168500Y-157300
X168500Y-170100
X168501Y-138555
X168501Y-97949
X168507Y-129149
X168508Y-116709
X168508Y-113585
X168509Y-166727
X168509Y-119831
X168510Y-141690
X168511Y-104213
X168511Y-154180
X168512Y-147939
X168513Y-110458
X168513Y-135450
X168513Y-163559
X168514Y-107331
X168514Y-126068
X168515Y-160439
X168517Y-122949
X168998Y-70985
X170176Y-101072
X170177Y-166722
X170192Y-110464
X170192Y-119828
X170193Y-147948
X170195Y-122954
X170196Y-126070
X170197Y-107341
X170198Y-163563
X170198Y-135446
X170199Y-113577
X170199Y-97949
X170200Y-154202
X170200Y-104212
X170200Y-132300
X170200Y-138600
X170200Y-144800
X170200Y-151100
X170200Y-157300
X170200Y-170100
X170200Y-116704
X170203Y-141695
X170205Y-160426
X170213Y-129192
X171700Y-72400
X171862Y-129211
X171874Y-122949
X171874Y-97949
X171877Y-160431
X171877Y-101051
X171879Y-126076
X171880Y-104216
X171881Y-110454
X171882Y-107339
X171883Y-113579
X171883Y-151072
X171884Y-119833
X171885Y-116708
X171885Y-147945
X171886Y-138576
X171888Y-166728
X171891Y-154189
X171891Y-135454
X171894Y-141703
X171896Y-163568
X171900Y-132300
X171900Y-144800
X171900Y-157300
X171900Y-170100
X172090Y-77710
X173500Y-132300
X173543Y-129186
X173550Y-138567
X173551Y-97927
X173551Y-135449
X173557Y-166717
X173560Y-141692
X173562Y-116708
X173563Y-147954
X173565Y-151067
X173565Y-163568
X173566Y-104207
X173567Y-113584
X173569Y-119835
X173569Y-154195
X173569Y-122949
X173570Y-107338
X173571Y-126069
X173571Y-110459
X173572Y-160422
X173600Y-101100
X173600Y-144800
X173600Y-157300
X173600Y-170100
X173837Y-73609
X175000Y-181000
X175200Y-132300
X175200Y-144800
X175200Y-157300
X175200Y-170100
X175245Y-126075
X175246Y-163563
X175247Y-141703
X175248Y-160436
X175248Y-129180
X175249Y-116702
X175249Y-113583
X175249Y-97949
X175249Y-147950
X175250Y-138576
X175251Y-101102
X175251Y-119832
X175253Y-122956
X175253Y-104211
X175253Y-107335
X175254Y-154202
X175254Y-110457
X175255Y-135458
X175257Y-151067
X175259Y-166748
X176900Y-132300
X176900Y-157300
X176900Y-170100
X176912Y-129203
X176921Y-166726
X176925Y-97949
X176928Y-101074
X176930Y-160426
X176931Y-122952
X176931Y-119831
X176932Y-154205
X176933Y-147942
X176934Y-126079
X176935Y-138562
X176936Y-107335
X176936Y-135462
X176937Y-113574
X176937Y-110461
X176937Y-163558
X176939Y-151061
X176939Y-104212
X176941Y-116714
X176950Y-141687
X177000Y-144800
X178598Y-97949
X178600Y-132300
X178600Y-144800
X178600Y-157300
X178600Y-170100
X178614Y-107330
X178616Y-122955
X178617Y-166742
X178617Y-154191
X178618Y-104211
X178618Y-113585
X178619Y-110458
X178620Y-151086
X178620Y-129226
X178622Y-116714
X178622Y-119834
X178625Y-101073
X178628Y-126064
X178631Y-147942
X178631Y-135441
X178631Y-160441
X178632Y-141686
X178634Y-138562
X178639Y-163571
X179000Y-181000
X180295Y-154191
X180296Y-166733
X180298Y-141692
X180299Y-135436
X180300Y-101100
X180300Y-132300
X180300Y-144800
X180300Y-157300
X180300Y-170100
X180300Y-110462
X180301Y-107339
X180302Y-97927
X180304Y-147954
X180305Y-116702
X180305Y-113584
X180306Y-122940
X180307Y-126080
X180307Y-163566
X180309Y-160436
X180309Y-104213
X180316Y-119827
X180321Y-151071
X180323Y-138562
X180329Y-129226
X181100Y-67000
X181973Y-97949
X181978Y-147954
X181981Y-154191
X181985Y-160438
X181987Y-166728
X181989Y-110462
X181989Y-122952
X181991Y-135455
X181991Y-151070
X181991Y-119828
X181991Y-107339
X181992Y-104213
X181992Y-141696
X181992Y-113578
X181993Y-116707
X181994Y-126080
X181997Y-138569
X182000Y-163571
X182000Y-101100
X182000Y-132300
X182000Y-144800
X182000Y-157300
X182000Y-170100
X182001Y-129208
X183400Y-83130
X183600Y-132300
X183668Y-138559
X183668Y-135453
X183670Y-116709
X183671Y-119830
X183672Y-151070
X183673Y-110460
X183673Y-104210
X183673Y-129223
X183674Y-113578
X183674Y-154181
X183675Y-101074
X183676Y-163579
X183676Y-97949
X183677Y-107338
X183678Y-126074
X183678Y-122952
X183679Y-166733
X183683Y-147938
X183687Y-141698
X183689Y-160438
X183700Y-144800
X183700Y-157300
X183700Y-170100
X185300Y-170100
X185347Y-97949
X185348Y-138569
X185353Y-147938
X185358Y-110460
X185358Y-104212
X185358Y-119833
X185359Y-141695
X185359Y-151070
X185359Y-113582
X185359Y-122954
X185360Y-126077
X185361Y-116707
X185361Y-107330
X185361Y-163574
X185362Y-154174
X185363Y-160443
X185366Y-166721
X185367Y-129192
X185367Y-135448
X185375Y-101097
X185400Y-132300
X185400Y-144800
X185400Y-157300
X185800Y-173200
X186700Y-66900
X187000Y-132300
X187000Y-144800
X187000Y-157300
X187000Y-170100
X187029Y-154181
X187038Y-141701
X187038Y-122950
X187040Y-147946
X187041Y-119836
X187044Y-138570
X187045Y-126076
X187045Y-113583
X187047Y-110462
X187048Y-104218
X187048Y-97949
X187048Y-166727
X187052Y-135443
X187052Y-163574
X187052Y-116707
X187053Y-107336
X187053Y-101076
X187054Y-129200
X187054Y-151073
X187063Y-160448
X188700Y-144800
X188700Y-157300
X188700Y-170000
X188724Y-97927
X188725Y-101076
X188726Y-113581
X188726Y-126077
X188728Y-119833
X188728Y-135449
X188731Y-110461
X188731Y-104210
X188731Y-141678
X188731Y-154181
X188733Y-147946
X188733Y-107335
X188734Y-122952
X188735Y-160437
X188736Y-151083
X188738Y-163577
X188739Y-116708
X188740Y-138570
X188742Y-166733
X188747Y-129184
X188800Y-132300
X190400Y-132300
X190400Y-144800
X190400Y-157300
X190400Y-170000
X190400Y-97927
X190402Y-138561
X190405Y-166733
X190407Y-141698
X190408Y-126076
X190410Y-116702
X190412Y-110456
X190412Y-154181
X190413Y-160437
X190415Y-135449
X190415Y-147929
X190415Y-104211
X190415Y-122954
X190416Y-107340
X190416Y-163560
X190416Y-129168
X190417Y-119838
X190419Y-113581
X190420Y-101080
X190424Y-151078
X192000Y-188600
X192077Y-97949
X192077Y-129184
X192091Y-135427
X192092Y-147937
X192093Y-166719
X192094Y-141705
X192095Y-107336
X192096Y-154200
X192097Y-113583
X192098Y-119831
X192099Y-116711
X192100Y-163566
X192100Y-101100
X192100Y-132300
X192100Y-151100
X192100Y-157300
X192100Y-170000
X192100Y-186775
X192100Y-104212
X192100Y-122953
X192101Y-138573
X192101Y-110465
X192101Y-126065
X192111Y-160453
X192120Y-144814
X193591Y-68884
X193767Y-147937
X193771Y-129184
X193775Y-97949
X193776Y-141696
X193780Y-135449
X193781Y-110465
X193781Y-163553
X193782Y-154192
X193783Y-107340
X193784Y-122952
X193784Y-113583
X193785Y-138560
X193785Y-119832
X193785Y-116698
X193786Y-166739
X193788Y-104213
X193788Y-126068
X193793Y-151069
X193798Y-160445
X193800Y-94500
X193800Y-101100
X193800Y-132300
X193800Y-144800
X193800Y-157300
X193800Y-170000
X194457Y-69606
X195400Y-132300
X195424Y-129168
X195450Y-97949
X195454Y-154185
X195454Y-151069
X195461Y-141703
X195466Y-107334
X195466Y-110460
X195467Y-104214
X195468Y-126073
X195468Y-113582
X195470Y-119828
X195470Y-122955
X195471Y-163559
X195471Y-135449
X195479Y-116715
X195479Y-138576
X195480Y-160445
X195481Y-147943
X195485Y-166745
X195500Y-101100
X195500Y-144800
X195500Y-157300
X195500Y-170000
X196997Y-175999
X196998Y-176997
X197001Y-173994
X197004Y-174994
X197100Y-94500
X197100Y-132300
X197100Y-157300
X197100Y-170000
X197137Y-151075
X197140Y-141688
X197143Y-122949
X197144Y-166739
X197145Y-138560
X197145Y-147923
X197148Y-154185
X197148Y-97949
X197148Y-126078
X197150Y-101075
X197150Y-110461
X197150Y-129184
X197151Y-107333
X197151Y-119829
X197153Y-113577
X197154Y-163571
X197156Y-135438
X197157Y-116705
X197157Y-104213
X197162Y-160450
X197200Y-144800
X198800Y-94500
X198800Y-144800
X198800Y-157300
X198800Y-170000
X198825Y-101074
X198827Y-154192
X198827Y-129222
X198831Y-126079
X198832Y-151069
X198832Y-110460
X198833Y-122953
X198835Y-160443
X198835Y-113587
X198836Y-147928
X198837Y-104215
X198840Y-119828
X198840Y-166740
X198841Y-135446
X198842Y-107330
X198843Y-97807
X198843Y-141698
X198846Y-116713
X198847Y-163563
X198854Y-138563
X198900Y-132300
X200158Y-74115
X200500Y-132300
X200500Y-144800
X200500Y-157300
X200500Y-170000
X200511Y-138556
X200512Y-166733
X200515Y-147946
X200517Y-129212
X200518Y-163550
X200519Y-116713
X200519Y-110461
X200521Y-126072
X200522Y-141695
X200522Y-113585
X200522Y-97949
X200523Y-119827
X200526Y-101076
X200526Y-135455
X200527Y-107334
X200528Y-104214
X200532Y-151081
X200532Y-122960
X200535Y-160431
X200537Y-154198
X201000Y-73800
X202000Y-94500
X202199Y-97949
X202200Y-101075
X202200Y-132300
X202200Y-144800
X202200Y-151100
X202200Y-157300
X202200Y-170000
X202200Y-122960
X202201Y-154198
X202204Y-119828
X202205Y-163561
X202205Y-126082
X202206Y-104213
X202206Y-138573
X202206Y-160449
X202207Y-110463
X202208Y-113584
X202209Y-135442
X202209Y-107333
X202210Y-141703
X202210Y-116705
X202218Y-147940
X202219Y-166726
X202237Y-129182
X203800Y-170000
X203847Y-129172
X203875Y-97949
X203887Y-122957
X203889Y-107337
X203890Y-116699
X203891Y-119828
X203891Y-151081
X203892Y-110463
X203893Y-126068
X203893Y-147926
X203894Y-104214
X203894Y-113588
X203894Y-160431
X203895Y-141703
X203897Y-163564
X203898Y-166733
X203899Y-138551
X203900Y-101100
X203900Y-132300
X203900Y-144800
X203900Y-157300
X203901Y-135451
X203905Y-154182
X204000Y-94500
X204182Y-75765
X204186Y-74138
X204237Y-74937
X204577Y-73420
X205286Y-78382
X205291Y-79206
X205557Y-129172
X205559Y-151069
X205562Y-166727
X205570Y-154174
X205573Y-160447
X205573Y-163567
X205574Y-107332
X205574Y-104209
X205574Y-122958
X205575Y-101075
X205575Y-113584
X205576Y-116708
X205576Y-126077
X205576Y-119829
X205577Y-97949
X205577Y-138559
X205578Y-110463
X205586Y-141706
X205587Y-135448
X205592Y-147945
X205600Y-132300
X205600Y-144800
X205600Y-157300
X205600Y-170000
X205644Y-73442
X206594Y-76561
X206600Y-77834
X206721Y-73442
X206827Y-66943
X207200Y-94500
X207200Y-132300
X207200Y-144800
X207200Y-157300
X207200Y-170000
X207248Y-97949
X207250Y-101076
X207253Y-147945
X207256Y-122951
X207257Y-107333
X207257Y-166742
X207259Y-116699
X207259Y-113577
X207262Y-110455
X207263Y-135436
X207263Y-126063
X207263Y-163558
X207264Y-160423
X207266Y-154182
X207266Y-104214
X207267Y-129192
X207267Y-119817
X207271Y-141698
X207278Y-151075
X207300Y-138600
X207400Y-77400
X207644Y-73442
X208506Y-73442
X208600Y-74454
X208900Y-170000
X208931Y-166720
X208936Y-129192
X208939Y-163564
X208940Y-151078
X208940Y-113580
X208944Y-116702
X208945Y-122948
X208945Y-104208
X208946Y-141701
X208947Y-107333
X208947Y-119828
X208948Y-160429
X208949Y-138565
X208950Y-101100
X208951Y-135456
X208952Y-97949
X208952Y-126081
X208952Y-110464
X208954Y-147960
X208959Y-154185
X209000Y-94500
X209000Y-132300
X209000Y-144800
X209000Y-157300
X209306Y-73442
X209700Y-75069
X209925Y-78675
X210117Y-73442
X210600Y-132300
X210600Y-144800
X210600Y-157300
X210600Y-170000
X210622Y-97949
X210625Y-101075
X210626Y-129212
X210626Y-122953
X210627Y-110457
X210629Y-107340
X210630Y-113577
X210633Y-147942
X210633Y-119824
X210634Y-166728
X210634Y-135447
X210634Y-116701
X210635Y-126071
X210636Y-104215
X210636Y-138562
X210636Y-154169
X210639Y-163562
X210642Y-151072
X210645Y-160447
X210646Y-141693
X212300Y-132300
X212300Y-144800
X212300Y-157300
X212300Y-170000
X212307Y-166739
X212308Y-138562
X212310Y-141710
X212311Y-113577
X212312Y-154202
X212314Y-104209
X212315Y-122957
X212315Y-116703
X212315Y-119826
X212315Y-110462
X212315Y-107334
X212316Y-163572
X212317Y-126077
X212318Y-135440
X212321Y-147933
X212321Y-129208
X212324Y-151065
X212324Y-160436
X212325Y-101075
X212326Y-97949
X212400Y-94500
X213993Y-122958
X213993Y-147951
X213995Y-135440
X213996Y-141697
X213998Y-154202
X214000Y-101075
X214000Y-132300
X214000Y-138600
X214000Y-157300
X214000Y-170000
X214001Y-107332
X214001Y-126074
X214001Y-119829
X214001Y-104203
X214002Y-110450
X214002Y-97949
X214003Y-116700
X214003Y-163567
X214006Y-160430
X214006Y-113576
X214007Y-166739
X214012Y-151078
X214083Y-129128
X214100Y-144800
X215506Y-87246
X215946Y-103029
X215952Y-102201
X215966Y-161450
X215968Y-139789
X215987Y-142691
X215992Y-164715
X215993Y-97053
X215998Y-111598
X215998Y-112500
X215998Y-137291
X216000Y-155964
X216000Y-130201
X216000Y-99100
X216000Y-105100
X216000Y-106100
X216000Y-115400
X216000Y-117600
X216000Y-118400
X216000Y-121700
X216000Y-131001
X216000Y-133100
X216000Y-134000
X216000Y-143500
X216000Y-145800
X216000Y-148800
X216000Y-149700
X216000Y-152000
X216000Y-152800
X216000Y-155100
X216000Y-158200
X216000Y-159000
X216000Y-170000
X216001Y-127100
X216001Y-138600
X216002Y-162249
X216003Y-109357
X216004Y-99996
X216004Y-124998
X216004Y-124000
X216004Y-140589
X216007Y-108548
X216008Y-165752
X216010Y-96176
X216011Y-128089
X216013Y-136491
X216019Y-114563
X216024Y-120862
X216037Y-146729
X216427Y-141632
X216445Y-98052
X216450Y-101130
X216451Y-135342
X216460Y-132052
X216467Y-116517
X216470Y-104072
X216470Y-107381
X216472Y-157074
X216474Y-167077
X216481Y-126013
X216484Y-110501
X216489Y-113549
X216497Y-163551
X216503Y-122849
X216505Y-160239
X216515Y-144695
X216521Y-129139
X216523Y-153997
X216525Y-119677
X216606Y-150845
X216672Y-147826
X217535Y-80121
X217600Y-142000
X219800Y-86200
X220591Y-77248
X220662Y-171062
X221238Y-102757
X221688Y-103780
X222013Y-104580
X222200Y-76800
X222200Y-82200
X222269Y-105338
X223130Y-94870
X223600Y-103400
X224400Y-105400
X224930Y-119230
X224950Y-113740
X228250Y-126250
X228450Y-115380
X230672Y-76146
T2
X157175Y-56775
X157175Y-59000
X159175Y-56775
X159175Y-59000
X161175Y-56775
X161175Y-59000
X163175Y-56775
X163175Y-59000
X165175Y-56775
X165175Y-59000
X167175Y-56775
X167175Y-59000
X169175Y-56775
X169175Y-59000
X171175Y-56775
X171175Y-59000
X173175Y-56775
X173175Y-59000
X175175Y-56775
X175175Y-59000
X177175Y-56775
X177175Y-59000
X179175Y-56775
X179175Y-59000
X181175Y-56775
X181175Y-59000
X183175Y-56775
X183175Y-59000
X185175Y-56775
X185175Y-59000
X187175Y-56775
X187175Y-59000
X189175Y-56775
X189175Y-59000
X191175Y-56775
X191175Y-59000
X193175Y-56775
X193175Y-59000
T3
X130172Y-119057
X222456Y-142972
T4
X130960Y-101035
X167437Y-174737
X187750Y-92208
X223242Y-160993
T0
M30
