G04 #@! TF.FileFunction,Copper,L4,Bot,Signal*
%FSLAX46Y46*%
G04 Gerber Fmt 4.6, Leading zero omitted, Abs format (unit mm)*
G04 Created by KiCad (PCBNEW 4.0.6+dfsg1-1) date Thu Jun  7 22:18:20 2018*
%MOMM*%
%LPD*%
G01*
G04 APERTURE LIST*
%ADD10C,0.100000*%
%ADD11R,0.500000X0.900000*%
%ADD12R,1.350000X1.350000*%
%ADD13O,1.350000X1.350000*%
%ADD14C,7.500000*%
%ADD15R,3.300000X2.500000*%
%ADD16R,4.000000X2.500000*%
%ADD17R,2.260600X3.505200*%
%ADD18R,0.900000X0.500000*%
%ADD19R,0.800000X0.750000*%
%ADD20R,0.750000X0.800000*%
%ADD21R,0.970000X1.270000*%
%ADD22C,1.500000*%
%ADD23R,1.100000X4.600000*%
%ADD24R,10.800000X9.400000*%
%ADD25R,5.250000X4.550000*%
%ADD26R,3.400000X1.210000*%
%ADD27R,2.500000X4.000000*%
%ADD28R,2.000000X3.800000*%
%ADD29R,2.000000X1.500000*%
%ADD30R,1.600000X2.000000*%
%ADD31R,2.000000X1.600000*%
%ADD32R,1.350000X0.400000*%
%ADD33R,1.600000X2.100000*%
%ADD34R,1.900000X1.900000*%
%ADD35R,1.900000X1.800000*%
%ADD36R,0.300000X0.850000*%
%ADD37R,0.850000X0.300000*%
%ADD38C,0.600000*%
%ADD39C,0.250000*%
%ADD40C,1.000000*%
%ADD41C,0.750000*%
%ADD42C,2.000000*%
%ADD43C,1.750000*%
%ADD44C,1.250000*%
G04 APERTURE END LIST*
D10*
D11*
X122500000Y-78000000D03*
X121000000Y-78000000D03*
D12*
X157175000Y-59000000D03*
D13*
X159175000Y-59000000D03*
X161175000Y-59000000D03*
X163175000Y-59000000D03*
X165175000Y-59000000D03*
X167175000Y-59000000D03*
X169175000Y-59000000D03*
X171175000Y-59000000D03*
X173175000Y-59000000D03*
X175175000Y-59000000D03*
X177175000Y-59000000D03*
X179175000Y-59000000D03*
X181175000Y-59000000D03*
X183175000Y-59000000D03*
X185175000Y-59000000D03*
X187175000Y-59000000D03*
X189175000Y-59000000D03*
X191175000Y-59000000D03*
X193175000Y-59000000D03*
D14*
X222000000Y-63000000D03*
D10*
G36*
X126911091Y-69425305D02*
X126274695Y-68788909D01*
X126628249Y-68435355D01*
X127264645Y-69071751D01*
X126911091Y-69425305D01*
X126911091Y-69425305D01*
G37*
G36*
X127971751Y-68364645D02*
X127335355Y-67728249D01*
X127688909Y-67374695D01*
X128325305Y-68011091D01*
X127971751Y-68364645D01*
X127971751Y-68364645D01*
G37*
D15*
X127010000Y-169900000D03*
X127000000Y-163000000D03*
D16*
X124000000Y-125000000D03*
X116000000Y-125000000D03*
D17*
X118000000Y-156000000D03*
X123638800Y-156000000D03*
D18*
X211250000Y-68100000D03*
X211250000Y-69600000D03*
X206200000Y-68100000D03*
X206200000Y-69600000D03*
X214610000Y-68090000D03*
X214610000Y-69590000D03*
X212940000Y-68110000D03*
X212940000Y-69610000D03*
D11*
X228150000Y-102800000D03*
X226650000Y-102800000D03*
D18*
X223600000Y-102000000D03*
X223600000Y-100500000D03*
X223400000Y-93400000D03*
X223400000Y-91900000D03*
D11*
X221050000Y-86200000D03*
X222550000Y-86200000D03*
D18*
X209590000Y-68110000D03*
X209590000Y-69610000D03*
X207880000Y-68110000D03*
X207880000Y-69610000D03*
D19*
X201200000Y-93500000D03*
X199700000Y-93500000D03*
X211400000Y-93400000D03*
X209900000Y-93400000D03*
X206350000Y-93400000D03*
X204850000Y-93400000D03*
X163400000Y-172100000D03*
X161900000Y-172100000D03*
X153100000Y-172100000D03*
X151600000Y-172100000D03*
D20*
X217600000Y-140600000D03*
X217600000Y-139100000D03*
D19*
X196300000Y-93500000D03*
X194800000Y-93500000D03*
X156750000Y-172100000D03*
X158250000Y-172100000D03*
D10*
G36*
X159687629Y-192114631D02*
X156512629Y-186615369D01*
X162869255Y-182945369D01*
X166044255Y-188444631D01*
X159687629Y-192114631D01*
X159687629Y-192114631D01*
G37*
G36*
X227809187Y-152784631D02*
X224634187Y-147285369D01*
X230990813Y-143615369D01*
X234165813Y-149114631D01*
X227809187Y-152784631D01*
X227809187Y-152784631D01*
G37*
G36*
X123687996Y-99729584D02*
X122808877Y-100139523D01*
X122272152Y-98988512D01*
X123151271Y-98578573D01*
X123687996Y-99729584D01*
X123687996Y-99729584D01*
G37*
G36*
X122527922Y-100270536D02*
X121648803Y-100680475D01*
X121112078Y-99529464D01*
X121991197Y-99119525D01*
X122527922Y-100270536D01*
X122527922Y-100270536D01*
G37*
D21*
X124440000Y-80020000D03*
X123160000Y-80020000D03*
X123130000Y-82530000D03*
X124410000Y-82530000D03*
D10*
G36*
X205639230Y-183253590D02*
X206039230Y-183946410D01*
X205346410Y-184346410D01*
X204946410Y-183653590D01*
X205639230Y-183253590D01*
X205639230Y-183253590D01*
G37*
G36*
X204253590Y-184053590D02*
X204653590Y-184746410D01*
X203960770Y-185146410D01*
X203560770Y-184453590D01*
X204253590Y-184053590D01*
X204253590Y-184053590D01*
G37*
G36*
X195409456Y-190064711D02*
X194959456Y-189285289D01*
X195392468Y-189035289D01*
X195842468Y-189814711D01*
X195409456Y-190064711D01*
X195409456Y-190064711D01*
G37*
G36*
X196708494Y-189314711D02*
X196258494Y-188535289D01*
X196691506Y-188285289D01*
X197141506Y-189064711D01*
X196708494Y-189314711D01*
X196708494Y-189314711D01*
G37*
G36*
X193809456Y-187264711D02*
X193359456Y-186485289D01*
X193792468Y-186235289D01*
X194242468Y-187014711D01*
X193809456Y-187264711D01*
X193809456Y-187264711D01*
G37*
G36*
X195108494Y-186514711D02*
X194658494Y-185735289D01*
X195091506Y-185485289D01*
X195541506Y-186264711D01*
X195108494Y-186514711D01*
X195108494Y-186514711D01*
G37*
D22*
X148800000Y-61900000D03*
X154600000Y-83600000D03*
X150700000Y-63800000D03*
X121100000Y-63100000D03*
X117900000Y-86700000D03*
X119500000Y-89000000D03*
X154500000Y-70200000D03*
X152300000Y-65800000D03*
X153500000Y-67900000D03*
X155590000Y-75200000D03*
X155600000Y-78400000D03*
X146700000Y-60300000D03*
X122800000Y-61500000D03*
X118000000Y-67300000D03*
X116900000Y-69600000D03*
X116730000Y-84140000D03*
D23*
X126625000Y-146575000D03*
X124925000Y-146575000D03*
X123225000Y-146575000D03*
X121525000Y-146575000D03*
X119825000Y-146575000D03*
D24*
X123225000Y-137425000D03*
D25*
X120450000Y-135000000D03*
X126000000Y-139850000D03*
X126000000Y-135000000D03*
X120450000Y-139850000D03*
D26*
X204200000Y-89210000D03*
X204200000Y-85000000D03*
X153000000Y-179210000D03*
X153000000Y-175000000D03*
D27*
X143000000Y-174000000D03*
X143000000Y-182000000D03*
D18*
X131500000Y-145500000D03*
X131500000Y-144000000D03*
D10*
G36*
X141297678Y-61331992D02*
X141828008Y-61862322D01*
X141262322Y-62428008D01*
X140731992Y-61897678D01*
X141297678Y-61331992D01*
X141297678Y-61331992D01*
G37*
G36*
X142358338Y-60271332D02*
X142888668Y-60801662D01*
X142322982Y-61367348D01*
X141792652Y-60837018D01*
X142358338Y-60271332D01*
X142358338Y-60271332D01*
G37*
G36*
X144882982Y-64057348D02*
X144352652Y-63527018D01*
X144918338Y-62961332D01*
X145448668Y-63491662D01*
X144882982Y-64057348D01*
X144882982Y-64057348D01*
G37*
G36*
X143822322Y-65118008D02*
X143291992Y-64587678D01*
X143857678Y-64021992D01*
X144388008Y-64552322D01*
X143822322Y-65118008D01*
X143822322Y-65118008D01*
G37*
G36*
X138702982Y-82567348D02*
X138172652Y-82037018D01*
X138738338Y-81471332D01*
X139268668Y-82001662D01*
X138702982Y-82567348D01*
X138702982Y-82567348D01*
G37*
G36*
X137642322Y-83628008D02*
X137111992Y-83097678D01*
X137677678Y-82531992D01*
X138208008Y-83062322D01*
X137642322Y-83628008D01*
X137642322Y-83628008D01*
G37*
G36*
X121357018Y-71572652D02*
X121887348Y-72102982D01*
X121321662Y-72668668D01*
X120791332Y-72138338D01*
X121357018Y-71572652D01*
X121357018Y-71572652D01*
G37*
G36*
X122417678Y-70511992D02*
X122948008Y-71042322D01*
X122382322Y-71608008D01*
X121851992Y-71077678D01*
X122417678Y-70511992D01*
X122417678Y-70511992D01*
G37*
G36*
X135148008Y-63217678D02*
X134617678Y-63748008D01*
X134051992Y-63182322D01*
X134582322Y-62651992D01*
X135148008Y-63217678D01*
X135148008Y-63217678D01*
G37*
G36*
X136208668Y-64278338D02*
X135678338Y-64808668D01*
X135112652Y-64242982D01*
X135642982Y-63712652D01*
X136208668Y-64278338D01*
X136208668Y-64278338D01*
G37*
D20*
X122790000Y-88700000D03*
X122790000Y-87200000D03*
D10*
G36*
X138747018Y-83612652D02*
X139277348Y-84142982D01*
X138711662Y-84708668D01*
X138181332Y-84178338D01*
X138747018Y-83612652D01*
X138747018Y-83612652D01*
G37*
G36*
X139807678Y-82551992D02*
X140338008Y-83082322D01*
X139772322Y-83648008D01*
X139241992Y-83117678D01*
X139807678Y-82551992D01*
X139807678Y-82551992D01*
G37*
G36*
X121022652Y-70317678D02*
X120492322Y-69787348D01*
X121058008Y-69221662D01*
X121588338Y-69751992D01*
X121022652Y-70317678D01*
X121022652Y-70317678D01*
G37*
G36*
X119961992Y-71378338D02*
X119431662Y-70848008D01*
X119997348Y-70282322D01*
X120527678Y-70812652D01*
X119961992Y-71378338D01*
X119961992Y-71378338D01*
G37*
G36*
X144082322Y-69948008D02*
X143551992Y-69417678D01*
X144117678Y-68851992D01*
X144648008Y-69382322D01*
X144082322Y-69948008D01*
X144082322Y-69948008D01*
G37*
G36*
X143021662Y-71008668D02*
X142491332Y-70478338D01*
X143057018Y-69912652D01*
X143587348Y-70442982D01*
X143021662Y-71008668D01*
X143021662Y-71008668D01*
G37*
D20*
X122780000Y-90200000D03*
X122780000Y-91700000D03*
D10*
G36*
X118867018Y-69152652D02*
X119397348Y-69682982D01*
X118831662Y-70248668D01*
X118301332Y-69718338D01*
X118867018Y-69152652D01*
X118867018Y-69152652D01*
G37*
G36*
X119927678Y-68091992D02*
X120458008Y-68622322D01*
X119892322Y-69188008D01*
X119361992Y-68657678D01*
X119927678Y-68091992D01*
X119927678Y-68091992D01*
G37*
G36*
X128511612Y-80204505D02*
X129395495Y-81088388D01*
X128688388Y-81795495D01*
X127804505Y-80911612D01*
X128511612Y-80204505D01*
X128511612Y-80204505D01*
G37*
G36*
X127097398Y-81618719D02*
X127981281Y-82502602D01*
X127274174Y-83209709D01*
X126390291Y-82325826D01*
X127097398Y-81618719D01*
X127097398Y-81618719D01*
G37*
G36*
X134048008Y-64317678D02*
X133517678Y-64848008D01*
X132951992Y-64282322D01*
X133482322Y-63751992D01*
X134048008Y-64317678D01*
X134048008Y-64317678D01*
G37*
G36*
X135108668Y-65378338D02*
X134578338Y-65908668D01*
X134012652Y-65342982D01*
X134542982Y-64812652D01*
X135108668Y-65378338D01*
X135108668Y-65378338D01*
G37*
D20*
X163850000Y-74050000D03*
X163850000Y-75550000D03*
D10*
G36*
X176075690Y-76108913D02*
X175758726Y-75429182D01*
X176483772Y-75091087D01*
X176800736Y-75770818D01*
X176075690Y-76108913D01*
X176075690Y-76108913D01*
G37*
G36*
X174716228Y-76742841D02*
X174399264Y-76063110D01*
X175124310Y-75725015D01*
X175441274Y-76404746D01*
X174716228Y-76742841D01*
X174716228Y-76742841D01*
G37*
G36*
X145280761Y-68855635D02*
X144644365Y-68219239D01*
X144997919Y-67865685D01*
X145634315Y-68502081D01*
X145280761Y-68855635D01*
X145280761Y-68855635D01*
G37*
G36*
X146341421Y-67794975D02*
X145705025Y-67158579D01*
X146058579Y-66805025D01*
X146694975Y-67441421D01*
X146341421Y-67794975D01*
X146341421Y-67794975D01*
G37*
D11*
X122550000Y-76400000D03*
X121050000Y-76400000D03*
D22*
X232500000Y-86000000D03*
X234600000Y-78000000D03*
X234600000Y-75400000D03*
X233600000Y-83460000D03*
D28*
X132250000Y-90500000D03*
D29*
X125950000Y-90500000D03*
X125950000Y-88200000D03*
X125950000Y-92800000D03*
D10*
G36*
X135022881Y-67308058D02*
X135199658Y-67484835D01*
X134492551Y-68191942D01*
X134315774Y-68015165D01*
X135022881Y-67308058D01*
X135022881Y-67308058D01*
G37*
G36*
X135376435Y-67661611D02*
X135553212Y-67838388D01*
X134846105Y-68545495D01*
X134669328Y-68368718D01*
X135376435Y-67661611D01*
X135376435Y-67661611D01*
G37*
G36*
X135729988Y-68015165D02*
X135906765Y-68191942D01*
X135199658Y-68899049D01*
X135022881Y-68722272D01*
X135729988Y-68015165D01*
X135729988Y-68015165D01*
G37*
G36*
X136083541Y-68368718D02*
X136260318Y-68545495D01*
X135553211Y-69252602D01*
X135376434Y-69075825D01*
X136083541Y-68368718D01*
X136083541Y-68368718D01*
G37*
G36*
X136437095Y-68722271D02*
X136613872Y-68899048D01*
X135906765Y-69606155D01*
X135729988Y-69429378D01*
X136437095Y-68722271D01*
X136437095Y-68722271D01*
G37*
G36*
X136790648Y-69075825D02*
X136967425Y-69252602D01*
X136260318Y-69959709D01*
X136083541Y-69782932D01*
X136790648Y-69075825D01*
X136790648Y-69075825D01*
G37*
G36*
X137144202Y-69429378D02*
X137320979Y-69606155D01*
X136613872Y-70313262D01*
X136437095Y-70136485D01*
X137144202Y-69429378D01*
X137144202Y-69429378D01*
G37*
G36*
X137497755Y-69782932D02*
X137674532Y-69959709D01*
X136967425Y-70666816D01*
X136790648Y-70490039D01*
X137497755Y-69782932D01*
X137497755Y-69782932D01*
G37*
G36*
X137851308Y-70136485D02*
X138028085Y-70313262D01*
X137320978Y-71020369D01*
X137144201Y-70843592D01*
X137851308Y-70136485D01*
X137851308Y-70136485D01*
G37*
G36*
X138204862Y-70490038D02*
X138381639Y-70666815D01*
X137674532Y-71373922D01*
X137497755Y-71197145D01*
X138204862Y-70490038D01*
X138204862Y-70490038D01*
G37*
G36*
X138558415Y-70843592D02*
X138735192Y-71020369D01*
X138028085Y-71727476D01*
X137851308Y-71550699D01*
X138558415Y-70843592D01*
X138558415Y-70843592D01*
G37*
G36*
X138911969Y-71197145D02*
X139088746Y-71373922D01*
X138381639Y-72081029D01*
X138204862Y-71904252D01*
X138911969Y-71197145D01*
X138911969Y-71197145D01*
G37*
G36*
X139265522Y-71550699D02*
X139442299Y-71727476D01*
X138735192Y-72434583D01*
X138558415Y-72257806D01*
X139265522Y-71550699D01*
X139265522Y-71550699D01*
G37*
G36*
X139619075Y-71904252D02*
X139795852Y-72081029D01*
X139088745Y-72788136D01*
X138911968Y-72611359D01*
X139619075Y-71904252D01*
X139619075Y-71904252D01*
G37*
G36*
X139972629Y-72257805D02*
X140149406Y-72434582D01*
X139442299Y-73141689D01*
X139265522Y-72964912D01*
X139972629Y-72257805D01*
X139972629Y-72257805D01*
G37*
G36*
X140326182Y-72611359D02*
X140502959Y-72788136D01*
X139795852Y-73495243D01*
X139619075Y-73318466D01*
X140326182Y-72611359D01*
X140326182Y-72611359D01*
G37*
G36*
X140502959Y-76076182D02*
X140326182Y-76252959D01*
X139619075Y-75545852D01*
X139795852Y-75369075D01*
X140502959Y-76076182D01*
X140502959Y-76076182D01*
G37*
G36*
X140149406Y-76429736D02*
X139972629Y-76606513D01*
X139265522Y-75899406D01*
X139442299Y-75722629D01*
X140149406Y-76429736D01*
X140149406Y-76429736D01*
G37*
G36*
X139795852Y-76783289D02*
X139619075Y-76960066D01*
X138911968Y-76252959D01*
X139088745Y-76076182D01*
X139795852Y-76783289D01*
X139795852Y-76783289D01*
G37*
G36*
X139442299Y-77136842D02*
X139265522Y-77313619D01*
X138558415Y-76606512D01*
X138735192Y-76429735D01*
X139442299Y-77136842D01*
X139442299Y-77136842D01*
G37*
G36*
X139088746Y-77490396D02*
X138911969Y-77667173D01*
X138204862Y-76960066D01*
X138381639Y-76783289D01*
X139088746Y-77490396D01*
X139088746Y-77490396D01*
G37*
G36*
X138735192Y-77843949D02*
X138558415Y-78020726D01*
X137851308Y-77313619D01*
X138028085Y-77136842D01*
X138735192Y-77843949D01*
X138735192Y-77843949D01*
G37*
G36*
X138381639Y-78197503D02*
X138204862Y-78374280D01*
X137497755Y-77667173D01*
X137674532Y-77490396D01*
X138381639Y-78197503D01*
X138381639Y-78197503D01*
G37*
G36*
X138028085Y-78551056D02*
X137851308Y-78727833D01*
X137144201Y-78020726D01*
X137320978Y-77843949D01*
X138028085Y-78551056D01*
X138028085Y-78551056D01*
G37*
G36*
X137674532Y-78904609D02*
X137497755Y-79081386D01*
X136790648Y-78374279D01*
X136967425Y-78197502D01*
X137674532Y-78904609D01*
X137674532Y-78904609D01*
G37*
G36*
X137320979Y-79258163D02*
X137144202Y-79434940D01*
X136437095Y-78727833D01*
X136613872Y-78551056D01*
X137320979Y-79258163D01*
X137320979Y-79258163D01*
G37*
G36*
X136967425Y-79611716D02*
X136790648Y-79788493D01*
X136083541Y-79081386D01*
X136260318Y-78904609D01*
X136967425Y-79611716D01*
X136967425Y-79611716D01*
G37*
G36*
X136613872Y-79965270D02*
X136437095Y-80142047D01*
X135729988Y-79434940D01*
X135906765Y-79258163D01*
X136613872Y-79965270D01*
X136613872Y-79965270D01*
G37*
G36*
X136260318Y-80318823D02*
X136083541Y-80495600D01*
X135376434Y-79788493D01*
X135553211Y-79611716D01*
X136260318Y-80318823D01*
X136260318Y-80318823D01*
G37*
G36*
X135906765Y-80672376D02*
X135729988Y-80849153D01*
X135022881Y-80142046D01*
X135199658Y-79965269D01*
X135906765Y-80672376D01*
X135906765Y-80672376D01*
G37*
G36*
X135553212Y-81025930D02*
X135376435Y-81202707D01*
X134669328Y-80495600D01*
X134846105Y-80318823D01*
X135553212Y-81025930D01*
X135553212Y-81025930D01*
G37*
G36*
X135199658Y-81379483D02*
X135022881Y-81556260D01*
X134315774Y-80849153D01*
X134492551Y-80672376D01*
X135199658Y-81379483D01*
X135199658Y-81379483D01*
G37*
G36*
X132265165Y-80672376D02*
X132441942Y-80849153D01*
X131734835Y-81556260D01*
X131558058Y-81379483D01*
X132265165Y-80672376D01*
X132265165Y-80672376D01*
G37*
G36*
X131911611Y-80318823D02*
X132088388Y-80495600D01*
X131381281Y-81202707D01*
X131204504Y-81025930D01*
X131911611Y-80318823D01*
X131911611Y-80318823D01*
G37*
G36*
X131558058Y-79965269D02*
X131734835Y-80142046D01*
X131027728Y-80849153D01*
X130850951Y-80672376D01*
X131558058Y-79965269D01*
X131558058Y-79965269D01*
G37*
G36*
X131204505Y-79611716D02*
X131381282Y-79788493D01*
X130674175Y-80495600D01*
X130497398Y-80318823D01*
X131204505Y-79611716D01*
X131204505Y-79611716D01*
G37*
G36*
X130850951Y-79258163D02*
X131027728Y-79434940D01*
X130320621Y-80142047D01*
X130143844Y-79965270D01*
X130850951Y-79258163D01*
X130850951Y-79258163D01*
G37*
G36*
X130497398Y-78904609D02*
X130674175Y-79081386D01*
X129967068Y-79788493D01*
X129790291Y-79611716D01*
X130497398Y-78904609D01*
X130497398Y-78904609D01*
G37*
G36*
X130143844Y-78551056D02*
X130320621Y-78727833D01*
X129613514Y-79434940D01*
X129436737Y-79258163D01*
X130143844Y-78551056D01*
X130143844Y-78551056D01*
G37*
G36*
X129790291Y-78197502D02*
X129967068Y-78374279D01*
X129259961Y-79081386D01*
X129083184Y-78904609D01*
X129790291Y-78197502D01*
X129790291Y-78197502D01*
G37*
G36*
X129436738Y-77843949D02*
X129613515Y-78020726D01*
X128906408Y-78727833D01*
X128729631Y-78551056D01*
X129436738Y-77843949D01*
X129436738Y-77843949D01*
G37*
G36*
X129083184Y-77490396D02*
X129259961Y-77667173D01*
X128552854Y-78374280D01*
X128376077Y-78197503D01*
X129083184Y-77490396D01*
X129083184Y-77490396D01*
G37*
G36*
X128729631Y-77136842D02*
X128906408Y-77313619D01*
X128199301Y-78020726D01*
X128022524Y-77843949D01*
X128729631Y-77136842D01*
X128729631Y-77136842D01*
G37*
G36*
X128376077Y-76783289D02*
X128552854Y-76960066D01*
X127845747Y-77667173D01*
X127668970Y-77490396D01*
X128376077Y-76783289D01*
X128376077Y-76783289D01*
G37*
G36*
X128022524Y-76429735D02*
X128199301Y-76606512D01*
X127492194Y-77313619D01*
X127315417Y-77136842D01*
X128022524Y-76429735D01*
X128022524Y-76429735D01*
G37*
G36*
X127668971Y-76076182D02*
X127845748Y-76252959D01*
X127138641Y-76960066D01*
X126961864Y-76783289D01*
X127668971Y-76076182D01*
X127668971Y-76076182D01*
G37*
G36*
X127315417Y-75722629D02*
X127492194Y-75899406D01*
X126785087Y-76606513D01*
X126608310Y-76429736D01*
X127315417Y-75722629D01*
X127315417Y-75722629D01*
G37*
G36*
X126961864Y-75369075D02*
X127138641Y-75545852D01*
X126431534Y-76252959D01*
X126254757Y-76076182D01*
X126961864Y-75369075D01*
X126961864Y-75369075D01*
G37*
G36*
X127138641Y-73318466D02*
X126961864Y-73495243D01*
X126254757Y-72788136D01*
X126431534Y-72611359D01*
X127138641Y-73318466D01*
X127138641Y-73318466D01*
G37*
G36*
X127492194Y-72964912D02*
X127315417Y-73141689D01*
X126608310Y-72434582D01*
X126785087Y-72257805D01*
X127492194Y-72964912D01*
X127492194Y-72964912D01*
G37*
G36*
X127845748Y-72611359D02*
X127668971Y-72788136D01*
X126961864Y-72081029D01*
X127138641Y-71904252D01*
X127845748Y-72611359D01*
X127845748Y-72611359D01*
G37*
G36*
X128199301Y-72257806D02*
X128022524Y-72434583D01*
X127315417Y-71727476D01*
X127492194Y-71550699D01*
X128199301Y-72257806D01*
X128199301Y-72257806D01*
G37*
G36*
X128552854Y-71904252D02*
X128376077Y-72081029D01*
X127668970Y-71373922D01*
X127845747Y-71197145D01*
X128552854Y-71904252D01*
X128552854Y-71904252D01*
G37*
G36*
X128906408Y-71550699D02*
X128729631Y-71727476D01*
X128022524Y-71020369D01*
X128199301Y-70843592D01*
X128906408Y-71550699D01*
X128906408Y-71550699D01*
G37*
G36*
X129259961Y-71197145D02*
X129083184Y-71373922D01*
X128376077Y-70666815D01*
X128552854Y-70490038D01*
X129259961Y-71197145D01*
X129259961Y-71197145D01*
G37*
G36*
X129613515Y-70843592D02*
X129436738Y-71020369D01*
X128729631Y-70313262D01*
X128906408Y-70136485D01*
X129613515Y-70843592D01*
X129613515Y-70843592D01*
G37*
G36*
X129967068Y-70490039D02*
X129790291Y-70666816D01*
X129083184Y-69959709D01*
X129259961Y-69782932D01*
X129967068Y-70490039D01*
X129967068Y-70490039D01*
G37*
G36*
X130320621Y-70136485D02*
X130143844Y-70313262D01*
X129436737Y-69606155D01*
X129613514Y-69429378D01*
X130320621Y-70136485D01*
X130320621Y-70136485D01*
G37*
G36*
X130674175Y-69782932D02*
X130497398Y-69959709D01*
X129790291Y-69252602D01*
X129967068Y-69075825D01*
X130674175Y-69782932D01*
X130674175Y-69782932D01*
G37*
G36*
X131027728Y-69429378D02*
X130850951Y-69606155D01*
X130143844Y-68899048D01*
X130320621Y-68722271D01*
X131027728Y-69429378D01*
X131027728Y-69429378D01*
G37*
G36*
X131381282Y-69075825D02*
X131204505Y-69252602D01*
X130497398Y-68545495D01*
X130674175Y-68368718D01*
X131381282Y-69075825D01*
X131381282Y-69075825D01*
G37*
G36*
X131734835Y-68722272D02*
X131558058Y-68899049D01*
X130850951Y-68191942D01*
X131027728Y-68015165D01*
X131734835Y-68722272D01*
X131734835Y-68722272D01*
G37*
G36*
X132088388Y-68368718D02*
X131911611Y-68545495D01*
X131204504Y-67838388D01*
X131381281Y-67661611D01*
X132088388Y-68368718D01*
X132088388Y-68368718D01*
G37*
G36*
X132441942Y-68015165D02*
X132265165Y-68191942D01*
X131558058Y-67484835D01*
X131734835Y-67308058D01*
X132441942Y-68015165D01*
X132441942Y-68015165D01*
G37*
G36*
X137228069Y-64525125D02*
X138925125Y-62828069D01*
X140339339Y-64242283D01*
X138642283Y-65939339D01*
X137228069Y-64525125D01*
X137228069Y-64525125D01*
G37*
G36*
X139844365Y-67141421D02*
X141541421Y-65444365D01*
X142955635Y-66858579D01*
X141258579Y-68555635D01*
X139844365Y-67141421D01*
X139844365Y-67141421D01*
G37*
D21*
X132950000Y-128470000D03*
X131670000Y-128470000D03*
X124470000Y-85070000D03*
X123190000Y-85070000D03*
D10*
G36*
X204046410Y-180453590D02*
X204446410Y-181146410D01*
X203753590Y-181546410D01*
X203353590Y-180853590D01*
X204046410Y-180453590D01*
X204046410Y-180453590D01*
G37*
G36*
X202660770Y-181253590D02*
X203060770Y-181946410D01*
X202367950Y-182346410D01*
X201967950Y-181653590D01*
X202660770Y-181253590D01*
X202660770Y-181253590D01*
G37*
G36*
X204839230Y-181853590D02*
X205239230Y-182546410D01*
X204546410Y-182946410D01*
X204146410Y-182253590D01*
X204839230Y-181853590D01*
X204839230Y-181853590D01*
G37*
G36*
X203453590Y-182653590D02*
X203853590Y-183346410D01*
X203160770Y-183746410D01*
X202760770Y-183053590D01*
X203453590Y-182653590D01*
X203453590Y-182653590D01*
G37*
G36*
X203239230Y-179053590D02*
X203639230Y-179746410D01*
X202946410Y-180146410D01*
X202546410Y-179453590D01*
X203239230Y-179053590D01*
X203239230Y-179053590D01*
G37*
G36*
X201853590Y-179853590D02*
X202253590Y-180546410D01*
X201560770Y-180946410D01*
X201160770Y-180253590D01*
X201853590Y-179853590D01*
X201853590Y-179853590D01*
G37*
G36*
X139103333Y-86855397D02*
X140709282Y-90299367D01*
X138896667Y-91144603D01*
X137290718Y-87700633D01*
X139103333Y-86855397D01*
X139103333Y-86855397D01*
G37*
G36*
X145299084Y-85235155D02*
X145933011Y-86594617D01*
X144120396Y-87439853D01*
X143486469Y-86080391D01*
X145299084Y-85235155D01*
X145299084Y-85235155D01*
G37*
G36*
X146271106Y-87319663D02*
X146905033Y-88679125D01*
X145092418Y-89524361D01*
X144458491Y-88164899D01*
X146271106Y-87319663D01*
X146271106Y-87319663D01*
G37*
G36*
X144327062Y-83150648D02*
X144960989Y-84510110D01*
X143148374Y-85355346D01*
X142514447Y-83995884D01*
X144327062Y-83150648D01*
X144327062Y-83150648D01*
G37*
G36*
X194609456Y-188664711D02*
X194159456Y-187885289D01*
X194592468Y-187635289D01*
X195042468Y-188414711D01*
X194609456Y-188664711D01*
X194609456Y-188664711D01*
G37*
G36*
X195908494Y-187914711D02*
X195458494Y-187135289D01*
X195891506Y-186885289D01*
X196341506Y-187664711D01*
X195908494Y-187914711D01*
X195908494Y-187914711D01*
G37*
D11*
X132010000Y-85800000D03*
X130510000Y-85800000D03*
D10*
G36*
X193008975Y-185864711D02*
X192558975Y-185085289D01*
X192991987Y-184835289D01*
X193441987Y-185614711D01*
X193008975Y-185864711D01*
X193008975Y-185864711D01*
G37*
G36*
X194308013Y-185114711D02*
X193858013Y-184335289D01*
X194291025Y-184085289D01*
X194741025Y-184864711D01*
X194308013Y-185114711D01*
X194308013Y-185114711D01*
G37*
D22*
X144700000Y-59100000D03*
X119500000Y-65100000D03*
X153690000Y-85720000D03*
D10*
G36*
X226349048Y-77911612D02*
X226030850Y-78229810D01*
X224970190Y-77169150D01*
X225288388Y-76850952D01*
X226349048Y-77911612D01*
X226349048Y-77911612D01*
G37*
G36*
X225889429Y-78371231D02*
X225571231Y-78689429D01*
X224510571Y-77628769D01*
X224828769Y-77310571D01*
X225889429Y-78371231D01*
X225889429Y-78371231D01*
G37*
G36*
X225429809Y-78830851D02*
X225111611Y-79149049D01*
X224050951Y-78088389D01*
X224369149Y-77770191D01*
X225429809Y-78830851D01*
X225429809Y-78830851D01*
G37*
G36*
X224970190Y-79290470D02*
X224651992Y-79608668D01*
X223591332Y-78548008D01*
X223909530Y-78229810D01*
X224970190Y-79290470D01*
X224970190Y-79290470D01*
G37*
G36*
X224510570Y-79750090D02*
X224192372Y-80068288D01*
X223131712Y-79007628D01*
X223449910Y-78689430D01*
X224510570Y-79750090D01*
X224510570Y-79750090D01*
G37*
G36*
X224050951Y-80209709D02*
X223732753Y-80527907D01*
X222672093Y-79467247D01*
X222990291Y-79149049D01*
X224050951Y-80209709D01*
X224050951Y-80209709D01*
G37*
G36*
X223591331Y-80669329D02*
X223273133Y-80987527D01*
X222212473Y-79926867D01*
X222530671Y-79608669D01*
X223591331Y-80669329D01*
X223591331Y-80669329D01*
G37*
G36*
X223131712Y-81128948D02*
X222813514Y-81447146D01*
X221752854Y-80386486D01*
X222071052Y-80068288D01*
X223131712Y-81128948D01*
X223131712Y-81128948D01*
G37*
G36*
X218959782Y-76957018D02*
X218641584Y-77275216D01*
X217580924Y-76214556D01*
X217899122Y-75896358D01*
X218959782Y-76957018D01*
X218959782Y-76957018D01*
G37*
G36*
X219419401Y-76497399D02*
X219101203Y-76815597D01*
X218040543Y-75754937D01*
X218358741Y-75436739D01*
X219419401Y-76497399D01*
X219419401Y-76497399D01*
G37*
G36*
X219879021Y-76037779D02*
X219560823Y-76355977D01*
X218500163Y-75295317D01*
X218818361Y-74977119D01*
X219879021Y-76037779D01*
X219879021Y-76037779D01*
G37*
G36*
X220338640Y-75578160D02*
X220020442Y-75896358D01*
X218959782Y-74835698D01*
X219277980Y-74517500D01*
X220338640Y-75578160D01*
X220338640Y-75578160D01*
G37*
G36*
X220798260Y-75118540D02*
X220480062Y-75436738D01*
X219419402Y-74376078D01*
X219737600Y-74057880D01*
X220798260Y-75118540D01*
X220798260Y-75118540D01*
G37*
G36*
X221257879Y-74658921D02*
X220939681Y-74977119D01*
X219879021Y-73916459D01*
X220197219Y-73598261D01*
X221257879Y-74658921D01*
X221257879Y-74658921D01*
G37*
G36*
X221717499Y-74199301D02*
X221399301Y-74517499D01*
X220338641Y-73456839D01*
X220656839Y-73138641D01*
X221717499Y-74199301D01*
X221717499Y-74199301D01*
G37*
G36*
X222177118Y-73739682D02*
X221858920Y-74057880D01*
X220798260Y-72997220D01*
X221116458Y-72679022D01*
X222177118Y-73739682D01*
X222177118Y-73739682D01*
G37*
G36*
X221006765Y-83253895D02*
X220688567Y-83572093D01*
X219627907Y-82511433D01*
X219946105Y-82193235D01*
X221006765Y-83253895D01*
X221006765Y-83253895D01*
G37*
G36*
X220547146Y-83713514D02*
X220228948Y-84031712D01*
X219168288Y-82971052D01*
X219486486Y-82652854D01*
X220547146Y-83713514D01*
X220547146Y-83713514D01*
G37*
G36*
X220087526Y-84173134D02*
X219769328Y-84491332D01*
X218708668Y-83430672D01*
X219026866Y-83112474D01*
X220087526Y-84173134D01*
X220087526Y-84173134D01*
G37*
G36*
X219627907Y-84632753D02*
X219309709Y-84950951D01*
X218249049Y-83890291D01*
X218567247Y-83572093D01*
X219627907Y-84632753D01*
X219627907Y-84632753D01*
G37*
G36*
X219168287Y-85092373D02*
X218850089Y-85410571D01*
X217789429Y-84349911D01*
X218107627Y-84031713D01*
X219168287Y-85092373D01*
X219168287Y-85092373D01*
G37*
G36*
X218708668Y-85551992D02*
X218390470Y-85870190D01*
X217329810Y-84809530D01*
X217648008Y-84491332D01*
X218708668Y-85551992D01*
X218708668Y-85551992D01*
G37*
G36*
X218249048Y-86011612D02*
X217930850Y-86329810D01*
X216870190Y-85269150D01*
X217188388Y-84950952D01*
X218249048Y-86011612D01*
X218249048Y-86011612D01*
G37*
G36*
X217789429Y-86471231D02*
X217471231Y-86789429D01*
X216410571Y-85728769D01*
X216728769Y-85410571D01*
X217789429Y-86471231D01*
X217789429Y-86471231D01*
G37*
G36*
X213617499Y-82299301D02*
X213299301Y-82617499D01*
X212238641Y-81556839D01*
X212556839Y-81238641D01*
X213617499Y-82299301D01*
X213617499Y-82299301D01*
G37*
G36*
X214077118Y-81839682D02*
X213758920Y-82157880D01*
X212698260Y-81097220D01*
X213016458Y-80779022D01*
X214077118Y-81839682D01*
X214077118Y-81839682D01*
G37*
G36*
X214536738Y-81380062D02*
X214218540Y-81698260D01*
X213157880Y-80637600D01*
X213476078Y-80319402D01*
X214536738Y-81380062D01*
X214536738Y-81380062D01*
G37*
G36*
X214996357Y-80920443D02*
X214678159Y-81238641D01*
X213617499Y-80177981D01*
X213935697Y-79859783D01*
X214996357Y-80920443D01*
X214996357Y-80920443D01*
G37*
G36*
X215455977Y-80460823D02*
X215137779Y-80779021D01*
X214077119Y-79718361D01*
X214395317Y-79400163D01*
X215455977Y-80460823D01*
X215455977Y-80460823D01*
G37*
G36*
X215915596Y-80001204D02*
X215597398Y-80319402D01*
X214536738Y-79258742D01*
X214854936Y-78940544D01*
X215915596Y-80001204D01*
X215915596Y-80001204D01*
G37*
G36*
X216375216Y-79541584D02*
X216057018Y-79859782D01*
X214996358Y-78799122D01*
X215314556Y-78480924D01*
X216375216Y-79541584D01*
X216375216Y-79541584D01*
G37*
G36*
X216834835Y-79081965D02*
X216516637Y-79400163D01*
X215455977Y-78339503D01*
X215774175Y-78021305D01*
X216834835Y-79081965D01*
X216834835Y-79081965D01*
G37*
D14*
X128000000Y-63000000D03*
D30*
X178400000Y-61600000D03*
X178400000Y-67000000D03*
D22*
X196500000Y-68250000D03*
X197750000Y-66000000D03*
X199250000Y-64000000D03*
X201000000Y-62250000D03*
X203000000Y-60500000D03*
X205250000Y-59250000D03*
X207750000Y-58250000D03*
X210250000Y-57500000D03*
X212750000Y-57000000D03*
X215500000Y-57000000D03*
X218250000Y-57250000D03*
D12*
X157175000Y-56775000D03*
D13*
X159175000Y-56775000D03*
X161175000Y-56775000D03*
X163175000Y-56775000D03*
X165175000Y-56775000D03*
X167175000Y-56775000D03*
X169175000Y-56775000D03*
X171175000Y-56775000D03*
X173175000Y-56775000D03*
X175175000Y-56775000D03*
X177175000Y-56775000D03*
X179175000Y-56775000D03*
X181175000Y-56775000D03*
X183175000Y-56775000D03*
X185175000Y-56775000D03*
X187175000Y-56775000D03*
X189175000Y-56775000D03*
X191175000Y-56775000D03*
X193175000Y-56775000D03*
D10*
G36*
X151208051Y-84675690D02*
X151887782Y-84358726D01*
X152225877Y-85083772D01*
X151546146Y-85400736D01*
X151208051Y-84675690D01*
X151208051Y-84675690D01*
G37*
G36*
X150574123Y-83316228D02*
X151253854Y-82999264D01*
X151591949Y-83724310D01*
X150912218Y-84041274D01*
X150574123Y-83316228D01*
X150574123Y-83316228D01*
G37*
D30*
X189400000Y-61800000D03*
X189400000Y-67200000D03*
D31*
X133600000Y-59200000D03*
X139000000Y-59200000D03*
D10*
G36*
X151258930Y-87049919D02*
X150533884Y-87388014D01*
X150153528Y-86572337D01*
X150878574Y-86234242D01*
X151258930Y-87049919D01*
X151258930Y-87049919D01*
G37*
G36*
X149536945Y-87852894D02*
X148811899Y-88190989D01*
X148431543Y-87375312D01*
X149156589Y-87037217D01*
X149536945Y-87852894D01*
X149536945Y-87852894D01*
G37*
G36*
X149552701Y-85638791D02*
X148827655Y-85976886D01*
X148447299Y-85161209D01*
X149172345Y-84823114D01*
X149552701Y-85638791D01*
X149552701Y-85638791D01*
G37*
D32*
X118775000Y-77700000D03*
X118775000Y-78350000D03*
X118775000Y-76400000D03*
X118775000Y-77050000D03*
X118775000Y-79000000D03*
D33*
X118650000Y-74600000D03*
X118650000Y-80800000D03*
D34*
X116100000Y-76500000D03*
X116100000Y-78900000D03*
D35*
X116100000Y-73900000D03*
X116100000Y-81500000D03*
D10*
G36*
X196434381Y-74963690D02*
X199118007Y-80718744D01*
X192465707Y-83820762D01*
X189782081Y-78065708D01*
X196434381Y-74963690D01*
X196434381Y-74963690D01*
G37*
G36*
X125144211Y-108206842D02*
X127827837Y-113961896D01*
X121175537Y-117063914D01*
X118491911Y-111308860D01*
X125144211Y-108206842D01*
X125144211Y-108206842D01*
G37*
D36*
X171050000Y-77500000D03*
X170550000Y-77500000D03*
X170050000Y-77500000D03*
X169550000Y-77500000D03*
X169050000Y-77500000D03*
X168550000Y-77500000D03*
D37*
X167850000Y-76800000D03*
X167850000Y-76300000D03*
X167850000Y-75800000D03*
X167850000Y-75300000D03*
X167850000Y-74800000D03*
X167850000Y-74300000D03*
D36*
X168550000Y-73600000D03*
X169050000Y-73600000D03*
X169550000Y-73600000D03*
X170050000Y-73600000D03*
X170550000Y-73600000D03*
X171050000Y-73600000D03*
D37*
X171750000Y-74300000D03*
X171750000Y-74800000D03*
X171750000Y-75300000D03*
X171750000Y-75800000D03*
X171750000Y-76300000D03*
X171750000Y-76800000D03*
D38*
X223129879Y-94870123D03*
X215506173Y-87246417D03*
X122300000Y-102040000D03*
X123990000Y-116990000D03*
X115393906Y-120271155D03*
X115386469Y-121003673D03*
X116000000Y-120260000D03*
X116000000Y-121000000D03*
X228450000Y-115380000D03*
X224930000Y-119230000D03*
X172090000Y-77710000D03*
X137257272Y-81030020D03*
X214007193Y-166738543D03*
X210634224Y-166728196D03*
X207257445Y-166741702D03*
X203897550Y-166732721D03*
X200512149Y-166732720D03*
X197144496Y-166738864D03*
X193785715Y-166738864D03*
X190405213Y-166733352D03*
X187048055Y-166727192D03*
X183678573Y-166733354D03*
X180296157Y-166733352D03*
X176921056Y-166725745D03*
X173557380Y-166717128D03*
X170177307Y-166722409D03*
X166822846Y-166717128D03*
X163452225Y-166739204D03*
X160072824Y-166724905D03*
X156720114Y-166710605D03*
X153336480Y-166729171D03*
X149969754Y-166746377D03*
X146606463Y-166736978D03*
X143228288Y-166724555D03*
X139873708Y-166731194D03*
X136503084Y-166717179D03*
X214003237Y-163567087D03*
X210639434Y-163562145D03*
X207263056Y-163557785D03*
X203896671Y-163563998D03*
X200518147Y-163550170D03*
X197153888Y-163571144D03*
X193781489Y-163553301D03*
X190415930Y-163560438D03*
X187052245Y-163573716D03*
X183675846Y-163579084D03*
X180306960Y-163566201D03*
X176937219Y-163558042D03*
X173565437Y-163567731D03*
X170197530Y-163563129D03*
X166819220Y-163559217D03*
X163457236Y-163561185D03*
X160087448Y-163565753D03*
X156721606Y-163563386D03*
X153343936Y-163547454D03*
X149985759Y-163549057D03*
X146612633Y-163560729D03*
X143241200Y-163563943D03*
X139873944Y-163547551D03*
X136492772Y-163545719D03*
X214005968Y-160429745D03*
X210644652Y-160447344D03*
X207263787Y-160422575D03*
X203894066Y-160431244D03*
X200535182Y-160431246D03*
X197162180Y-160450362D03*
X193798001Y-160444773D03*
X190412589Y-160436950D03*
X187062658Y-160447568D03*
X183689429Y-160438010D03*
X180308847Y-160436217D03*
X176929801Y-160426493D03*
X173571661Y-160422118D03*
X170204525Y-160425582D03*
X166821455Y-160434358D03*
X163459008Y-160422949D03*
X160088355Y-160438164D03*
X156715358Y-160435788D03*
X153343599Y-160430897D03*
X149981028Y-160422141D03*
X146614598Y-160417040D03*
X143236419Y-160425964D03*
X139872459Y-160425937D03*
X136502829Y-160419448D03*
X213997636Y-154201967D03*
X210635595Y-154168597D03*
X207265631Y-154181945D03*
X203905260Y-154181945D03*
X200536964Y-154197796D03*
X197147665Y-154184718D03*
X193782144Y-154192248D03*
X190412104Y-154180955D03*
X187028889Y-154180955D03*
X183674284Y-154180955D03*
X180295360Y-154191326D03*
X176931814Y-154204916D03*
X173569288Y-154195403D03*
X170199627Y-154201858D03*
X166836421Y-154155380D03*
X163463532Y-154179910D03*
X160090030Y-154203521D03*
X156722660Y-154197695D03*
X153342183Y-154205560D03*
X149976590Y-154184528D03*
X146616809Y-154179270D03*
X143242833Y-154176641D03*
X139866402Y-154181548D03*
X136504996Y-154182752D03*
X214012434Y-151078460D03*
X210641841Y-151071732D03*
X207278313Y-151075098D03*
X203890902Y-151081487D03*
X200531612Y-151081168D03*
X197137492Y-151075096D03*
X193792852Y-151069328D03*
X190424231Y-151077980D03*
X187054168Y-151072500D03*
X183672322Y-151069760D03*
X180321358Y-151070802D03*
X176938637Y-151060911D03*
X173565312Y-151067092D03*
X166836081Y-151083630D03*
X163466860Y-151073030D03*
X156726211Y-151082043D03*
X153336568Y-151062412D03*
X149979643Y-151070873D03*
X146611261Y-151072021D03*
X143232699Y-151068593D03*
X139869091Y-151069748D03*
X136495249Y-151055718D03*
X213992852Y-147950890D03*
X210632676Y-147942116D03*
X207253170Y-147945072D03*
X203893376Y-147926267D03*
X200515404Y-147946326D03*
X197144955Y-147922506D03*
X193766764Y-147937393D03*
X190414923Y-147929473D03*
X187039888Y-147945596D03*
X180303522Y-147953657D03*
X183683394Y-147938341D03*
X176933095Y-147942425D03*
X173562643Y-147954308D03*
X170192530Y-147947858D03*
X166848221Y-147939103D03*
X163461464Y-147927676D03*
X160072014Y-147944153D03*
X156716555Y-147935847D03*
X153344486Y-147931695D03*
X149983214Y-147947475D03*
X146614051Y-147939585D03*
X143237787Y-147956155D03*
X139864679Y-147941163D03*
X136484076Y-147926171D03*
X213996011Y-141696748D03*
X210645527Y-141693298D03*
X207271068Y-141698419D03*
X203895476Y-141703477D03*
X200521751Y-141694790D03*
X197139705Y-141687766D03*
X193776050Y-141695607D03*
X190406519Y-141697903D03*
X187038183Y-141700587D03*
X183687154Y-141698356D03*
X180297567Y-141691912D03*
X176949962Y-141686807D03*
X173559576Y-141692101D03*
X170202924Y-141695453D03*
X166826716Y-141679528D03*
X163453689Y-141694923D03*
X160092476Y-141691392D03*
X156710081Y-141696184D03*
X153337988Y-141702651D03*
X149959726Y-141690362D03*
X146613960Y-141694254D03*
X143248792Y-141691173D03*
X139867111Y-141689027D03*
X136493625Y-141685320D03*
X210635594Y-138561602D03*
X203899023Y-138551119D03*
X200511490Y-138555624D03*
X197144695Y-138560216D03*
X193784677Y-138560394D03*
X190401813Y-138560612D03*
X187043771Y-138569657D03*
X183667500Y-138559469D03*
X180323242Y-138561919D03*
X176934644Y-138561919D03*
X173549601Y-138566901D03*
X166826720Y-138567573D03*
X163452652Y-138576830D03*
X156724688Y-138576353D03*
X153348052Y-138576352D03*
X143251877Y-138565011D03*
X213995207Y-135440310D03*
X210634348Y-135447374D03*
X207262511Y-135435766D03*
X203901258Y-135451101D03*
X200526366Y-135454703D03*
X197155933Y-135438015D03*
X193779877Y-135449325D03*
X190414848Y-135448760D03*
X187051530Y-135442582D03*
X183667797Y-135452789D03*
X180298610Y-135435947D03*
X176936427Y-135462371D03*
X173550972Y-135448553D03*
X170197759Y-135445559D03*
X166824487Y-135447091D03*
X163456302Y-135462679D03*
X160085924Y-135447278D03*
X156716177Y-135455531D03*
X153342417Y-135451076D03*
X149969065Y-135440654D03*
X146590530Y-135421587D03*
X143229864Y-135438079D03*
X139871348Y-135430239D03*
X136504109Y-135438977D03*
X220591182Y-77248420D03*
X223600000Y-103400000D03*
X219800000Y-86200000D03*
X141118862Y-77093725D03*
X148296723Y-183703277D03*
X147296724Y-182703278D03*
X147796724Y-183203278D03*
X224400000Y-105400000D03*
X230672347Y-76146012D03*
X209924572Y-78675021D03*
X222200000Y-82200000D03*
X123963822Y-76387629D03*
X120205120Y-75709218D03*
X141100163Y-64674642D03*
X206826716Y-66942818D03*
X150400000Y-89400000D03*
X175000000Y-181000000D03*
X179000000Y-181000000D03*
X181100000Y-67000000D03*
X139865310Y-129200923D03*
X136506326Y-129192523D03*
X214000966Y-126074156D03*
X210635136Y-126071037D03*
X207262960Y-126063182D03*
X203892823Y-126068403D03*
X200521305Y-126072014D03*
X197148403Y-126078037D03*
X193787936Y-126067807D03*
X190407976Y-126075654D03*
X187044764Y-126075848D03*
X183677749Y-126074012D03*
X180306745Y-126079782D03*
X176934134Y-126078835D03*
X173571271Y-126068773D03*
X170196478Y-126069505D03*
X166831246Y-126074597D03*
X163459146Y-126078190D03*
X160092737Y-126073189D03*
X156719496Y-126069371D03*
X153349484Y-126077345D03*
X149980668Y-126082115D03*
X146610498Y-126077694D03*
X143240989Y-126080571D03*
X139871646Y-126073839D03*
X136500411Y-126076831D03*
X213992721Y-122957809D03*
X210626482Y-122953430D03*
X207256220Y-122951273D03*
X203886759Y-122956602D03*
X200532096Y-122959660D03*
X197143204Y-122949389D03*
X193783526Y-122952271D03*
X190415307Y-122954009D03*
X187038279Y-122950332D03*
X183677833Y-122952496D03*
X180305919Y-122939757D03*
X176930944Y-122952267D03*
X173569404Y-122949186D03*
X170194659Y-122953760D03*
X166820567Y-122943703D03*
X163445817Y-122947478D03*
X160091281Y-122955317D03*
X156718649Y-122949500D03*
X153346342Y-122943873D03*
X149976076Y-122950601D03*
X146608481Y-122936739D03*
X143237745Y-122954042D03*
X139869908Y-122946439D03*
X136501190Y-122952546D03*
X214001157Y-119829276D03*
X210632885Y-119824274D03*
X207267432Y-119816765D03*
X203890824Y-119828179D03*
X200522780Y-119827305D03*
X197151146Y-119828765D03*
X193785074Y-119832161D03*
X190416509Y-119837679D03*
X187041171Y-119836034D03*
X183670608Y-119829999D03*
X180315601Y-119826922D03*
X176931178Y-119831152D03*
X173568558Y-119834819D03*
X170192425Y-119828428D03*
X166829832Y-119837258D03*
X163456169Y-119829036D03*
X160090239Y-119832016D03*
X156720899Y-119828109D03*
X153346958Y-119834862D03*
X149980435Y-119830110D03*
X146610216Y-119831874D03*
X143241884Y-119830740D03*
X139869761Y-119821819D03*
X136505618Y-119834215D03*
X214002832Y-116699800D03*
X210634353Y-116701345D03*
X207258819Y-116698980D03*
X203889987Y-116699081D03*
X200519016Y-116712582D03*
X197156558Y-116705441D03*
X193785167Y-116698479D03*
X190410258Y-116702156D03*
X187052430Y-116706902D03*
X183669554Y-116708696D03*
X180305321Y-116702398D03*
X176940636Y-116713636D03*
X173561685Y-116708442D03*
X170200326Y-116703873D03*
X166827767Y-116705754D03*
X163456929Y-116700966D03*
X160084847Y-116710616D03*
X156719485Y-116712201D03*
X153352343Y-116707752D03*
X149979086Y-116707668D03*
X146609020Y-116708089D03*
X143234096Y-116698237D03*
X139870372Y-116700862D03*
X136493062Y-116713572D03*
X214006356Y-113576060D03*
X210629652Y-113576894D03*
X207258884Y-113577439D03*
X203893661Y-113587504D03*
X200522192Y-113584830D03*
X197153068Y-113577236D03*
X193784150Y-113582929D03*
X190418731Y-113580745D03*
X187044994Y-113582875D03*
X183674005Y-113578489D03*
X180305404Y-113584230D03*
X176936524Y-113573638D03*
X173567180Y-113583889D03*
X170199492Y-113577223D03*
X166819777Y-113585837D03*
X163458799Y-113583160D03*
X160089222Y-113581246D03*
X156721262Y-113577091D03*
X153346572Y-113580532D03*
X149975716Y-113579311D03*
X146604704Y-113579682D03*
X143240869Y-113580446D03*
X139873509Y-113580462D03*
X214002025Y-110450076D03*
X210626531Y-110456589D03*
X207262086Y-110455145D03*
X203892104Y-110462681D03*
X200519457Y-110461087D03*
X197150415Y-110461255D03*
X193781176Y-110465255D03*
X190411832Y-110456105D03*
X187046815Y-110461590D03*
X183672555Y-110459576D03*
X180300102Y-110461508D03*
X176936709Y-110460982D03*
X173571274Y-110458629D03*
X170192096Y-110464283D03*
X166827427Y-110465234D03*
X163463301Y-110453506D03*
X160087348Y-110463587D03*
X156720225Y-110455870D03*
X153351133Y-110459491D03*
X149982303Y-110455822D03*
X146610090Y-110456945D03*
X143238877Y-110452298D03*
X139868516Y-110449573D03*
X136505450Y-110448306D03*
X214000907Y-107331913D03*
X210628607Y-107340208D03*
X207257396Y-107333237D03*
X203889260Y-107336917D03*
X200526942Y-107334178D03*
X197151002Y-107333102D03*
X193782954Y-107339501D03*
X190415881Y-107340276D03*
X187052529Y-107335530D03*
X183677041Y-107338107D03*
X180301110Y-107339272D03*
X176935937Y-107334775D03*
X173570387Y-107337982D03*
X170196885Y-107340544D03*
X166829013Y-107333870D03*
X163456292Y-107333160D03*
X160090652Y-107328810D03*
X156717351Y-107338492D03*
X153345629Y-107339378D03*
X149977004Y-107330444D03*
X146607963Y-107341723D03*
X143243771Y-107337602D03*
X139865215Y-107339210D03*
X136497215Y-107342237D03*
X214001309Y-104202603D03*
X210635588Y-104214520D03*
X207266442Y-104213924D03*
X203893599Y-104213646D03*
X200527988Y-104213970D03*
X197156982Y-104213156D03*
X193787739Y-104213236D03*
X190415280Y-104210674D03*
X187047513Y-104218128D03*
X183672634Y-104210254D03*
X180308992Y-104213331D03*
X176938639Y-104211793D03*
X173565557Y-104207156D03*
X170199985Y-104211730D03*
X166826783Y-104209543D03*
X163456151Y-104207058D03*
X160093951Y-104213365D03*
X156717066Y-104206068D03*
X153354216Y-104209180D03*
X149979029Y-104208949D03*
X146611258Y-104210507D03*
X143241134Y-104209011D03*
X139874685Y-104200078D03*
X136499144Y-104200078D03*
X213999982Y-101074731D03*
X210624646Y-101075061D03*
X207250489Y-101075509D03*
X200525766Y-101075766D03*
X197150286Y-101075400D03*
X187052660Y-101076141D03*
X183674687Y-101073981D03*
X176927809Y-101074050D03*
X170176158Y-101072356D03*
X166826294Y-101074502D03*
X163472945Y-101074502D03*
X156726797Y-101074859D03*
X143251029Y-101074549D03*
X139873899Y-101074352D03*
X136498543Y-101074352D03*
X214002292Y-97948531D03*
X210622369Y-97948531D03*
X207247908Y-97948529D03*
X203875105Y-97948531D03*
X200522484Y-97948531D03*
X197148020Y-97948531D03*
X193774910Y-97948531D03*
X190400447Y-97926689D03*
X187047827Y-97948531D03*
X183676466Y-97948531D03*
X180302005Y-97926689D03*
X176925179Y-97948531D03*
X173550719Y-97926689D03*
X170199495Y-97948531D03*
X129600000Y-67622183D03*
X173836534Y-73609142D03*
X141982357Y-71517643D03*
X163850000Y-76650000D03*
X126525010Y-80890000D03*
X212400000Y-94500000D03*
X207200000Y-94500000D03*
X197100000Y-94500000D03*
X202000000Y-94500000D03*
X217600000Y-142000000D03*
X154900000Y-90400000D03*
X148000000Y-180000000D03*
X146000000Y-180000000D03*
X147000000Y-180000000D03*
X131000000Y-135000000D03*
X131000000Y-136000000D03*
X117000000Y-134000000D03*
X117000000Y-136000000D03*
X196997223Y-175998927D03*
X196998211Y-176997095D03*
X197001056Y-173994222D03*
X197003640Y-174993701D03*
X128000000Y-131000000D03*
X128000000Y-132000000D03*
X121000000Y-132000000D03*
X121000000Y-131000000D03*
X131000000Y-134000000D03*
X116000000Y-135000000D03*
X135000000Y-91250000D03*
X135000000Y-89750000D03*
X135000000Y-90500000D03*
X130000000Y-140000000D03*
X116000000Y-130900000D03*
X214000000Y-170000000D03*
X210600000Y-170000000D03*
X207200000Y-170000000D03*
X203800000Y-170000000D03*
X200500000Y-170000000D03*
X197100000Y-170000000D03*
X193800000Y-170000000D03*
X190400000Y-170000000D03*
X187000000Y-170100000D03*
X183700000Y-170100000D03*
X180300000Y-170100000D03*
X176900000Y-170100000D03*
X173600000Y-170100000D03*
X170200000Y-170100000D03*
X166800000Y-170100000D03*
X163500000Y-170100000D03*
X160100000Y-170100000D03*
X156700000Y-170100000D03*
X153300000Y-170100000D03*
X150000000Y-170100000D03*
X146600000Y-170100000D03*
X143200000Y-170100000D03*
X139900000Y-170100000D03*
X136500000Y-170100000D03*
X214000000Y-157300000D03*
X210600000Y-157300000D03*
X207200000Y-157300000D03*
X203900000Y-157300000D03*
X200500000Y-157300000D03*
X197100000Y-157300000D03*
X193800000Y-157300000D03*
X190400000Y-157300000D03*
X187000000Y-157300000D03*
X183700000Y-157300000D03*
X180300000Y-157300000D03*
X176900000Y-157300000D03*
X173600000Y-157300000D03*
X170200000Y-157300000D03*
X166800000Y-157300000D03*
X163500000Y-157300000D03*
X160100000Y-157300000D03*
X156700000Y-157300000D03*
X153400000Y-157300000D03*
X150000000Y-157300000D03*
X146600000Y-157300000D03*
X143200000Y-157300000D03*
X139900000Y-157300000D03*
X136500000Y-157300000D03*
X170200000Y-151100000D03*
X160100000Y-151100000D03*
X214100000Y-144800000D03*
X210600000Y-144800000D03*
X207200000Y-144800000D03*
X203900000Y-144800000D03*
X200500000Y-144800000D03*
X197200000Y-144800000D03*
X193800000Y-144800000D03*
X190400000Y-144800000D03*
X187000000Y-144800000D03*
X183700000Y-144800000D03*
X180300000Y-144800000D03*
X177000000Y-144800000D03*
X173600000Y-144800000D03*
X170200000Y-144800000D03*
X166800000Y-144800000D03*
X163500000Y-144800000D03*
X160100000Y-144800000D03*
X156700000Y-144800000D03*
X153300000Y-144800000D03*
X150000000Y-144800000D03*
X146600000Y-144800000D03*
X143200000Y-144800000D03*
X139900000Y-144800000D03*
X136500000Y-144800000D03*
X214000000Y-138600000D03*
X207300000Y-138600000D03*
X170200000Y-138600000D03*
X160100000Y-138600000D03*
X150000000Y-138600000D03*
X146600000Y-138600000D03*
X139900000Y-138600000D03*
X136500000Y-138600000D03*
X214000000Y-132300000D03*
X210600000Y-132300000D03*
X207200000Y-132300000D03*
X203900000Y-132300000D03*
X200500000Y-132300000D03*
X197100000Y-132300000D03*
X193800000Y-132300000D03*
X190400000Y-132300000D03*
X187000000Y-132300000D03*
X183600000Y-132300000D03*
X180300000Y-132300000D03*
X176900000Y-132300000D03*
X173500000Y-132300000D03*
X170200000Y-132300000D03*
X166800000Y-132300000D03*
X163400000Y-132300000D03*
X160100000Y-132300000D03*
X156700000Y-132300000D03*
X153400000Y-132300000D03*
X150000000Y-132300000D03*
X146600000Y-132300000D03*
X143200000Y-132300000D03*
X139900000Y-132300000D03*
X136500000Y-132300000D03*
X136500000Y-113600000D03*
X203900000Y-101100000D03*
X193800000Y-101100000D03*
X190420002Y-101080008D03*
X180300000Y-101100000D03*
X173600000Y-101100000D03*
X160100000Y-101100000D03*
X153400000Y-101100000D03*
X150000000Y-101100000D03*
X146600000Y-101100000D03*
X136500304Y-97950193D03*
X139875209Y-97949283D03*
X143223526Y-97948832D03*
X210626343Y-129211696D03*
X207266519Y-129191697D03*
X203846699Y-129171698D03*
X200516874Y-129211696D03*
X197150419Y-129183891D03*
X193771070Y-129183891D03*
X190416268Y-129167526D03*
X187054102Y-129199847D03*
X183672708Y-129223167D03*
X180329106Y-129225643D03*
X176911649Y-129202860D03*
X173543167Y-129186233D03*
X170212561Y-129192390D03*
X166839577Y-129183902D03*
X163435376Y-129188487D03*
X160081865Y-129188470D03*
X156715564Y-129180678D03*
X153349090Y-129176622D03*
X149978748Y-129193327D03*
X146607879Y-129191869D03*
X143249164Y-129200287D03*
X214082504Y-129128175D03*
X166826471Y-97926556D03*
X163451734Y-97949893D03*
X160073411Y-97926156D03*
X156725080Y-97949524D03*
X153351362Y-97948593D03*
X149976122Y-97950564D03*
X146598992Y-97951147D03*
X151679391Y-170104135D03*
X212306914Y-166738543D03*
X208931465Y-166720148D03*
X205561871Y-166727333D03*
X202218501Y-166725896D03*
X198839927Y-166739546D03*
X195484558Y-166745348D03*
X192093357Y-166719411D03*
X188742032Y-166733352D03*
X185366393Y-166721033D03*
X181987365Y-166727500D03*
X178616653Y-166742423D03*
X175258816Y-166747982D03*
X171888470Y-166727691D03*
X168508659Y-166727162D03*
X165142051Y-166732180D03*
X161774441Y-166724905D03*
X158409100Y-166719662D03*
X155040185Y-166706077D03*
X151650213Y-166724869D03*
X148294237Y-166730031D03*
X144917666Y-166736978D03*
X141550168Y-166724555D03*
X138177885Y-166727690D03*
X212316305Y-163572206D03*
X208938920Y-163564157D03*
X205573491Y-163567025D03*
X202204717Y-163560971D03*
X198846505Y-163562691D03*
X195470662Y-163559248D03*
X192099750Y-163566088D03*
X188737758Y-163577389D03*
X185361361Y-163573716D03*
X181999992Y-163571301D03*
X178639427Y-163571301D03*
X175246484Y-163562887D03*
X171895775Y-163567731D03*
X168513092Y-163558527D03*
X165131560Y-163576706D03*
X161758428Y-163573645D03*
X158410446Y-163561808D03*
X155045985Y-163559637D03*
X151673750Y-163554577D03*
X148294206Y-163555823D03*
X144931737Y-163567157D03*
X141556286Y-163550605D03*
X138172214Y-163557322D03*
X212324332Y-160436263D03*
X208948028Y-160428767D03*
X205573355Y-160447342D03*
X202205801Y-160448891D03*
X198835151Y-160443009D03*
X195480090Y-160444773D03*
X192111441Y-160452876D03*
X188734968Y-160436950D03*
X185362960Y-160443126D03*
X181985192Y-160438009D03*
X178631478Y-160441078D03*
X175248299Y-160435974D03*
X171876545Y-160431357D03*
X168515184Y-160438746D03*
X165138917Y-160439623D03*
X161759509Y-160438164D03*
X158400766Y-160435788D03*
X155034087Y-160434471D03*
X151678664Y-160428932D03*
X148288315Y-160436232D03*
X144921609Y-160426692D03*
X141558331Y-160433293D03*
X138176787Y-160436045D03*
X212312443Y-154201967D03*
X208958747Y-154185282D03*
X205569597Y-154174020D03*
X202201299Y-154197796D03*
X198826662Y-154192248D03*
X195453611Y-154184719D03*
X192095618Y-154199778D03*
X188731224Y-154180955D03*
X185362314Y-154173802D03*
X181980531Y-154191326D03*
X178616985Y-154191326D03*
X175254119Y-154201858D03*
X171890913Y-154188948D03*
X168510600Y-154179910D03*
X165143843Y-154173777D03*
X161762063Y-154197697D03*
X158406345Y-154203521D03*
X155041307Y-154183420D03*
X151665197Y-154183420D03*
X148294070Y-154179270D03*
X144936129Y-154206611D03*
X141544538Y-154176641D03*
X138193768Y-154189617D03*
X212323774Y-151065004D03*
X208939726Y-151078460D03*
X205559042Y-151068705D03*
X198831515Y-151069024D03*
X195454091Y-151069327D03*
X188736460Y-151083460D03*
X185358999Y-151069760D03*
X181990854Y-151069760D03*
X178620106Y-151085638D03*
X175256673Y-151067092D03*
X171883348Y-151071791D03*
X165140023Y-151079390D03*
X161771013Y-151077058D03*
X155035752Y-151072772D03*
X151669330Y-151080716D03*
X148291269Y-151065788D03*
X144926422Y-151083398D03*
X141548452Y-151057933D03*
X138183506Y-151068411D03*
X212320579Y-147933025D03*
X208953864Y-147960298D03*
X205592079Y-147945072D03*
X202218494Y-147940371D03*
X198836134Y-147928461D03*
X195480869Y-147943050D03*
X192092257Y-147937393D03*
X188732779Y-147945596D03*
X185352905Y-147938341D03*
X181978141Y-147953657D03*
X178630689Y-147942425D03*
X175249082Y-147949701D03*
X171885420Y-147945093D03*
X168511621Y-147939103D03*
X165138485Y-147927676D03*
X161766354Y-147944153D03*
X158410896Y-147960764D03*
X155047132Y-147944153D03*
X151648069Y-147923804D03*
X148278906Y-147931695D03*
X144916845Y-147941165D03*
X141558729Y-147926171D03*
X138178126Y-147948659D03*
X192119854Y-144814368D03*
X212310098Y-141709683D03*
X208945600Y-141701491D03*
X205586094Y-141706201D03*
X202209723Y-141703477D03*
X198843019Y-141698302D03*
X195460989Y-141702671D03*
X192094463Y-141704614D03*
X188730992Y-141678271D03*
X185358922Y-141695327D03*
X181991914Y-141696084D03*
X178632214Y-141686085D03*
X175247122Y-141703276D03*
X171894383Y-141703275D03*
X168509510Y-141690145D03*
X165138078Y-141679793D03*
X161769298Y-141699966D03*
X158401281Y-141691392D03*
X155053858Y-141698100D03*
X151676734Y-141702651D03*
X148303706Y-141694686D03*
X144925728Y-141681931D03*
X141543513Y-141687271D03*
X138187782Y-141696441D03*
X212307974Y-138561602D03*
X208949273Y-138565346D03*
X205577302Y-138558628D03*
X202205725Y-138573458D03*
X198854349Y-138562758D03*
X195479321Y-138575990D03*
X192100828Y-138573031D03*
X188740031Y-138569658D03*
X185348081Y-138569268D03*
X181996718Y-138569268D03*
X178633596Y-138561919D03*
X175249651Y-138575883D03*
X171886143Y-138575868D03*
X168500715Y-138554795D03*
X165144207Y-138568043D03*
X158407055Y-138576353D03*
X155046291Y-138564450D03*
X144938668Y-138571785D03*
X141571861Y-138568398D03*
X212317546Y-135440119D03*
X208951150Y-135456443D03*
X205587312Y-135447828D03*
X202208983Y-135442262D03*
X198841043Y-135446234D03*
X195470732Y-135449325D03*
X192091000Y-135427271D03*
X188727951Y-135448760D03*
X185367319Y-135447686D03*
X181990731Y-135455341D03*
X178630731Y-135440795D03*
X175255217Y-135457765D03*
X171891178Y-135454311D03*
X168513092Y-135449935D03*
X165136757Y-135463718D03*
X161758179Y-135450832D03*
X158408929Y-135447278D03*
X155041059Y-135451967D03*
X151663021Y-135454462D03*
X148292377Y-135451573D03*
X144915458Y-135432677D03*
X141544271Y-135438079D03*
X138187728Y-135447716D03*
X144915092Y-129199220D03*
X141550136Y-129201689D03*
X138183599Y-129196694D03*
X212317142Y-126076519D03*
X208951915Y-126080941D03*
X205575956Y-126076583D03*
X202205040Y-126081606D03*
X198830793Y-126079229D03*
X195467922Y-126073058D03*
X192101175Y-126064517D03*
X188726227Y-126077226D03*
X185359935Y-126077447D03*
X181994260Y-126079702D03*
X178628128Y-126063958D03*
X175245226Y-126074744D03*
X171879492Y-126075765D03*
X168514252Y-126068260D03*
X165139228Y-126074860D03*
X161772916Y-126075531D03*
X158406397Y-126076134D03*
X155032109Y-126074493D03*
X151666189Y-126075993D03*
X148299526Y-126074943D03*
X144920172Y-126079236D03*
X141548617Y-126073400D03*
X138178455Y-126056564D03*
X212314640Y-122957088D03*
X208944932Y-122948428D03*
X205574282Y-122958253D03*
X202200463Y-122959666D03*
X198833210Y-122952614D03*
X195469917Y-122954916D03*
X192100278Y-122953251D03*
X188734346Y-122951597D03*
X185359430Y-122953591D03*
X181989462Y-122951954D03*
X178616424Y-122954512D03*
X175252600Y-122956122D03*
X171874085Y-122949445D03*
X168516937Y-122949104D03*
X165145343Y-122939731D03*
X161772954Y-122954813D03*
X158406573Y-122950213D03*
X155031458Y-122957479D03*
X151657442Y-122956657D03*
X148290650Y-122949608D03*
X144924005Y-122952077D03*
X141557029Y-122954898D03*
X138186531Y-122944415D03*
X212315046Y-119826386D03*
X208946926Y-119827767D03*
X205576423Y-119828771D03*
X202204230Y-119828345D03*
X198839880Y-119827751D03*
X195469626Y-119828012D03*
X192098254Y-119831438D03*
X188727848Y-119832775D03*
X185358434Y-119832887D03*
X181991112Y-119828376D03*
X178622071Y-119833664D03*
X175251201Y-119831788D03*
X171883771Y-119832707D03*
X168509481Y-119830986D03*
X165139007Y-119833100D03*
X161773872Y-119829749D03*
X158405904Y-119835858D03*
X155034378Y-119831632D03*
X151663869Y-119828850D03*
X148292372Y-119832829D03*
X144922495Y-119830491D03*
X141557347Y-119835295D03*
X138185373Y-119835348D03*
X212314731Y-116702641D03*
X208943536Y-116701571D03*
X205575876Y-116707803D03*
X202210316Y-116705425D03*
X198846200Y-116712720D03*
X195478564Y-116714709D03*
X192099486Y-116711052D03*
X188738708Y-116708460D03*
X185360767Y-116706734D03*
X181993356Y-116707113D03*
X178621556Y-116713821D03*
X175248558Y-116702085D03*
X171884704Y-116708096D03*
X168508168Y-116708753D03*
X165139322Y-116704952D03*
X161770687Y-116705317D03*
X158400864Y-116711936D03*
X155034081Y-116701928D03*
X151659225Y-116705404D03*
X148294075Y-116710778D03*
X144923373Y-116710791D03*
X141552591Y-116709381D03*
X138183861Y-116707198D03*
X212310833Y-113577059D03*
X208940166Y-113580222D03*
X205575139Y-113583629D03*
X202207560Y-113584213D03*
X198835470Y-113586892D03*
X195468186Y-113582266D03*
X192097076Y-113583173D03*
X188725830Y-113580984D03*
X185359364Y-113581958D03*
X181992137Y-113577573D03*
X178618152Y-113585084D03*
X175248813Y-113582824D03*
X171882681Y-113579210D03*
X168508217Y-113585454D03*
X165148481Y-113581020D03*
X161772918Y-113587226D03*
X158402539Y-113585061D03*
X155026877Y-113578110D03*
X151658631Y-113582747D03*
X148295071Y-113574903D03*
X144921722Y-113577672D03*
X141551599Y-113580488D03*
X138178307Y-113584428D03*
X212315250Y-110462108D03*
X208952008Y-110464002D03*
X205577573Y-110462587D03*
X202207125Y-110463421D03*
X198831627Y-110460169D03*
X195466198Y-110460009D03*
X192101050Y-110465352D03*
X188730529Y-110461116D03*
X185358200Y-110459573D03*
X181988840Y-110461830D03*
X178619163Y-110457670D03*
X175254258Y-110456735D03*
X171881122Y-110454219D03*
X168512984Y-110458075D03*
X165143074Y-110460064D03*
X161770151Y-110462971D03*
X158406625Y-110457291D03*
X155032676Y-110458923D03*
X151664567Y-110463385D03*
X148293173Y-110455927D03*
X144925014Y-110461272D03*
X141560088Y-110458493D03*
X138179314Y-110460549D03*
X212315312Y-107334286D03*
X208946559Y-107333050D03*
X205573922Y-107331526D03*
X202209110Y-107332776D03*
X198842028Y-107329694D03*
X195465632Y-107333909D03*
X192095199Y-107336142D03*
X188732842Y-107335290D03*
X185360859Y-107330486D03*
X181991363Y-107339122D03*
X178614256Y-107330389D03*
X175252650Y-107334617D03*
X171881729Y-107339080D03*
X168514045Y-107331099D03*
X165142898Y-107328607D03*
X161763030Y-107340334D03*
X158401839Y-107334734D03*
X155031932Y-107334662D03*
X151659758Y-107330462D03*
X148291749Y-107333327D03*
X144923409Y-107329629D03*
X141556167Y-107332753D03*
X138184229Y-107336007D03*
X212314148Y-104209116D03*
X208945177Y-104208295D03*
X205574227Y-104209064D03*
X202205503Y-104213077D03*
X198836851Y-104215242D03*
X195467234Y-104213616D03*
X192100031Y-104211535D03*
X188730729Y-104209798D03*
X185358314Y-104211917D03*
X181991828Y-104212838D03*
X178617689Y-104211324D03*
X175252633Y-104211186D03*
X171879945Y-104215954D03*
X168510549Y-104213212D03*
X165140325Y-104213954D03*
X161767941Y-104208083D03*
X158404473Y-104209218D03*
X155032412Y-104211164D03*
X151666133Y-104210038D03*
X148291752Y-104213797D03*
X144927726Y-104211489D03*
X141555278Y-104203438D03*
X138173189Y-104200078D03*
X212324665Y-101075021D03*
X208950132Y-101100406D03*
X205574930Y-101074842D03*
X202199697Y-101074611D03*
X198825048Y-101074365D03*
X188725138Y-101076143D03*
X185374937Y-101097435D03*
X178624538Y-101073157D03*
X175250696Y-101102285D03*
X171876708Y-101050898D03*
X165149620Y-101074502D03*
X151675056Y-101073479D03*
X144923030Y-101074549D03*
X141548463Y-101074352D03*
X138176853Y-101074352D03*
X212325983Y-97948529D03*
X208951520Y-97948531D03*
X205577059Y-97948531D03*
X202198794Y-97948531D03*
X195449868Y-97948531D03*
X192076760Y-97948531D03*
X188724136Y-97926689D03*
X185347314Y-97948531D03*
X181972854Y-97948533D03*
X178598391Y-97948531D03*
X175248871Y-97948531D03*
X171874408Y-97948531D03*
X168501345Y-97948531D03*
X165151294Y-97950477D03*
X161775765Y-97950477D03*
X158398769Y-97950477D03*
X155023971Y-97950477D03*
X148299943Y-97950477D03*
X216473661Y-167077388D03*
X216496557Y-163551339D03*
X216504571Y-160238799D03*
X216471944Y-157073940D03*
X216523060Y-153996632D03*
X216605716Y-150845368D03*
X216672358Y-147825838D03*
X216515311Y-144694722D03*
X216426972Y-141632314D03*
X216451045Y-135341813D03*
X216459903Y-132051800D03*
X216520915Y-129139199D03*
X216480942Y-126013266D03*
X216502927Y-122849358D03*
X216524573Y-119676934D03*
X216466853Y-116516665D03*
X216488857Y-113548681D03*
X216483717Y-110500842D03*
X216470368Y-107381391D03*
X216470368Y-104071796D03*
X216450068Y-101130191D03*
X216445281Y-98052323D03*
X209000000Y-94500000D03*
X204000000Y-94500000D03*
X193800000Y-94500000D03*
X198800000Y-94500000D03*
X133430000Y-126355000D03*
X133430000Y-124530000D03*
X133460000Y-122970000D03*
X161000000Y-94500000D03*
X159000000Y-94500000D03*
X157000000Y-94500000D03*
X155000000Y-94500000D03*
X153000000Y-94500000D03*
X151000000Y-94500000D03*
X149000000Y-94500000D03*
X147150000Y-94500000D03*
X138200000Y-170100000D03*
X141600000Y-170100000D03*
X216000000Y-170000000D03*
X212300000Y-170000000D03*
X208900000Y-170000000D03*
X205600000Y-170000000D03*
X202200000Y-170000000D03*
X198800000Y-170000000D03*
X195500000Y-170000000D03*
X192100000Y-170000000D03*
X188700000Y-170000000D03*
X185300000Y-170100000D03*
X182000000Y-170100000D03*
X178600000Y-170100000D03*
X175200000Y-170100000D03*
X171900000Y-170100000D03*
X168500000Y-170100000D03*
X165100000Y-170100000D03*
X161800000Y-170100000D03*
X158400000Y-170100000D03*
X155000000Y-170100000D03*
X148300000Y-170100000D03*
X144900000Y-170100000D03*
X216001053Y-138599574D03*
X212300000Y-157300000D03*
X209000000Y-157300000D03*
X205600000Y-157300000D03*
X202200000Y-157300000D03*
X198800000Y-157300000D03*
X195500000Y-157300000D03*
X192100000Y-157300000D03*
X188700000Y-157300000D03*
X185400000Y-157300000D03*
X182000000Y-157300000D03*
X178600000Y-157300000D03*
X175200000Y-157300000D03*
X171900000Y-157300000D03*
X168500000Y-157300000D03*
X165200000Y-157300000D03*
X161800000Y-157300000D03*
X158400000Y-157300000D03*
X155000000Y-157300000D03*
X151700000Y-157300000D03*
X148300000Y-157300000D03*
X144900000Y-157300000D03*
X141500000Y-157300000D03*
X138200000Y-157300000D03*
X202200000Y-151100000D03*
X192100000Y-151100000D03*
X168500000Y-151100000D03*
X158400000Y-151100000D03*
X212300000Y-144800000D03*
X209000000Y-144800000D03*
X205600000Y-144800000D03*
X202200000Y-144800000D03*
X198800000Y-144800000D03*
X195500000Y-144800000D03*
X188700000Y-144800000D03*
X185400000Y-144800000D03*
X182000000Y-144800000D03*
X178600000Y-144800000D03*
X175200000Y-144800000D03*
X171900000Y-144800000D03*
X168500000Y-144800000D03*
X165100000Y-144800000D03*
X161800000Y-144800000D03*
X158400000Y-144800000D03*
X155000000Y-144800000D03*
X151700000Y-144800000D03*
X148300000Y-144800000D03*
X144900000Y-144800000D03*
X141500000Y-144800000D03*
X138200000Y-144800000D03*
X161800000Y-138600000D03*
X151700000Y-138600000D03*
X148300000Y-138600000D03*
X138200000Y-138600000D03*
X212300000Y-132300000D03*
X209000000Y-132300000D03*
X205600000Y-132300000D03*
X202200000Y-132300000D03*
X198900000Y-132300000D03*
X195400000Y-132300000D03*
X192100000Y-132300000D03*
X188800000Y-132300000D03*
X185400000Y-132300000D03*
X182000000Y-132300000D03*
X178600000Y-132300000D03*
X175200000Y-132300000D03*
X171900000Y-132300000D03*
X168500000Y-132300000D03*
X165100000Y-132300000D03*
X161800000Y-132300000D03*
X158400000Y-132300000D03*
X155000000Y-132300000D03*
X151700000Y-132300000D03*
X148300000Y-132300000D03*
X144900000Y-132300000D03*
X141500000Y-132300000D03*
X138200000Y-132300000D03*
X195500000Y-101100000D03*
X192100000Y-101100000D03*
X182000000Y-101100000D03*
X168500000Y-101100000D03*
X161800000Y-101100000D03*
X158400000Y-101100000D03*
X155000000Y-101100000D03*
X148300000Y-101100000D03*
X138174271Y-97950813D03*
X141560000Y-97930000D03*
X212320991Y-129207525D03*
X208936432Y-129191695D03*
X205556609Y-129171698D03*
X202236784Y-129181697D03*
X198826963Y-129221695D03*
X195423923Y-129167526D03*
X192077302Y-129183891D03*
X188747050Y-129183891D03*
X185367292Y-129192075D03*
X182001444Y-129207620D03*
X178620378Y-129225643D03*
X175248487Y-129180077D03*
X171862473Y-129210859D03*
X168507242Y-129149295D03*
X165148400Y-129181204D03*
X161754449Y-129208986D03*
X158397232Y-129180496D03*
X155039202Y-129185789D03*
X151649302Y-129197504D03*
X148274610Y-129191869D03*
X198842652Y-97806690D03*
X151738909Y-97898111D03*
X144920446Y-97939856D03*
X134403966Y-97284656D03*
X216009731Y-96175872D03*
X134398870Y-98604842D03*
X215993389Y-97052907D03*
X134478660Y-100461360D03*
X216000000Y-99100000D03*
X216003874Y-99996356D03*
X134505758Y-101789197D03*
X215952473Y-102200606D03*
X134552678Y-103634559D03*
X215945648Y-103028983D03*
X134500000Y-104800000D03*
X134500000Y-106700000D03*
X216000000Y-105100000D03*
X134500000Y-108000000D03*
X216000000Y-106100000D03*
X216007456Y-108548380D03*
X134500000Y-109800000D03*
X216002671Y-109357277D03*
X134500000Y-111100000D03*
X215998257Y-111597818D03*
X134600000Y-112900000D03*
X215998257Y-112500436D03*
X134600000Y-114200000D03*
X216019457Y-114562798D03*
X134600000Y-116000000D03*
X134600000Y-117400000D03*
X216000000Y-115400000D03*
X134600000Y-119200000D03*
X216000000Y-117600000D03*
X134600000Y-120500000D03*
X216000000Y-118400000D03*
X134600000Y-122300000D03*
X216023821Y-120862087D03*
X134600000Y-123600000D03*
X216000000Y-121700000D03*
X216003877Y-124000225D03*
X134600000Y-125500000D03*
X216003875Y-124998491D03*
X134600000Y-126700000D03*
X216000665Y-127100408D03*
X134600000Y-128500000D03*
X216011027Y-128089328D03*
X134600000Y-129800000D03*
X215999905Y-130200648D03*
X134600000Y-131600000D03*
X216000000Y-131000659D03*
X134600000Y-133000000D03*
X134600000Y-134800000D03*
X216000000Y-133100000D03*
X134600000Y-136100000D03*
X216000000Y-134000000D03*
X216013258Y-136491473D03*
X134600000Y-137900000D03*
X215998291Y-137291345D03*
X134600000Y-139200000D03*
X215968239Y-139789358D03*
X134600000Y-141000000D03*
X216003958Y-140588572D03*
X134600000Y-142300000D03*
X215986851Y-142690863D03*
X134600000Y-144200000D03*
X134600000Y-145400000D03*
X216000000Y-143500000D03*
X134600000Y-147300000D03*
X216000000Y-145800000D03*
X216037126Y-146729369D03*
X134600000Y-148600000D03*
X134600000Y-150400000D03*
X216000000Y-148800000D03*
X134600000Y-151700000D03*
X216000000Y-149700000D03*
X134600000Y-153500000D03*
X216000000Y-152000000D03*
X134600000Y-154800000D03*
X216000000Y-152800000D03*
X134600000Y-156600000D03*
X216000000Y-155100000D03*
X215999754Y-155963693D03*
X134600000Y-158000000D03*
X134600000Y-159800000D03*
X216000000Y-158200000D03*
X134600000Y-161100000D03*
X216000000Y-159000000D03*
X215966248Y-161450011D03*
X134600000Y-162900000D03*
X216002214Y-162249214D03*
X134600000Y-164200000D03*
X215991919Y-164715051D03*
X134600000Y-166000000D03*
X216008180Y-165751685D03*
X134600000Y-167400000D03*
X206594482Y-76560726D03*
X204181533Y-75765293D03*
X208506404Y-73442096D03*
X204236748Y-74936610D03*
X205644084Y-73442096D03*
X204186389Y-74138185D03*
X210117097Y-73442096D03*
X209700000Y-75069173D03*
X204576732Y-73420417D03*
X209306417Y-73442096D03*
X208600000Y-74453560D03*
X222269445Y-105338285D03*
X222013187Y-104580426D03*
X221688176Y-103779585D03*
X221238165Y-102756690D03*
X205286081Y-78381511D03*
X206720736Y-73442096D03*
X205291116Y-79205580D03*
X207643580Y-73442096D03*
X220662451Y-171062451D03*
X142429746Y-77748556D03*
X143741285Y-71456076D03*
X224950000Y-113740000D03*
X130471248Y-92271248D03*
X171700000Y-72400000D03*
X136005244Y-82267200D03*
X222200000Y-76800000D03*
X192100000Y-186774990D03*
X165600000Y-83000000D03*
X183400000Y-83000000D03*
X127196159Y-84847934D03*
X127659768Y-85319821D03*
X126649763Y-86304990D03*
X127154766Y-85808266D03*
X126186155Y-85766949D03*
X126732551Y-85294985D03*
X186700000Y-66900000D03*
X125477632Y-76522987D03*
X133100000Y-66821320D03*
X217535066Y-80121275D03*
X228250000Y-126250000D03*
X124975654Y-94680738D03*
X134745628Y-82888910D03*
X137582147Y-85362126D03*
X124975654Y-95541720D03*
X134006343Y-83572280D03*
X140786132Y-85855513D03*
X121244020Y-79862627D03*
X120209513Y-76666460D03*
X121837131Y-79166709D03*
X127136897Y-79513855D03*
X143987303Y-73566110D03*
X118511194Y-143511194D03*
X124095632Y-97453724D03*
X129738602Y-143511194D03*
X163170000Y-77390000D03*
X165560000Y-76940000D03*
X157624482Y-72571532D03*
X158740363Y-71919460D03*
X155274314Y-72639980D03*
X156950062Y-73245952D03*
X147600095Y-76552771D03*
X153350000Y-77971033D03*
X131048322Y-105470000D03*
X130190000Y-104611678D03*
X129288322Y-103710000D03*
X192000000Y-188600000D03*
X131800000Y-131400000D03*
X115000000Y-140000000D03*
X114000000Y-140000000D03*
X113000000Y-140000000D03*
X115000000Y-141000000D03*
X114000000Y-141000000D03*
X113000000Y-141000000D03*
X131000000Y-97000000D03*
X130000000Y-97000000D03*
X131000000Y-96002302D03*
X130000000Y-96000000D03*
X130750000Y-122250000D03*
X129500000Y-123500000D03*
X129534968Y-84181133D03*
X131436180Y-77622194D03*
X146965383Y-81017212D03*
X147394959Y-84417474D03*
X144650490Y-74115645D03*
X128925000Y-146575000D03*
X146096822Y-75516423D03*
X160475225Y-80295126D03*
X149400000Y-78200000D03*
X135123351Y-77969551D03*
X207400000Y-77400000D03*
X201000000Y-73800000D03*
X193590960Y-68884038D03*
X157533169Y-70582933D03*
X145574574Y-76109193D03*
X159358591Y-80225010D03*
X149439269Y-79123168D03*
X133167354Y-82594184D03*
X131400000Y-83200000D03*
X168388384Y-179908323D03*
X200157524Y-74115011D03*
X194457356Y-69606253D03*
X206600000Y-77833951D03*
X185800000Y-173200000D03*
X132452922Y-77626559D03*
X159001999Y-71004886D03*
X146901288Y-80113476D03*
X142449961Y-76463239D03*
X146897626Y-79283121D03*
X143338843Y-76454261D03*
X138582464Y-61837983D03*
X157200000Y-68600000D03*
X142497846Y-69345594D03*
X161013266Y-70996400D03*
X141890071Y-70026297D03*
X162000511Y-71010543D03*
X141383253Y-70657870D03*
X163003949Y-70988422D03*
X139282846Y-70504405D03*
X164010153Y-70988422D03*
X143772957Y-80210463D03*
X166997264Y-71002953D03*
X138899513Y-80071301D03*
X168019205Y-70985389D03*
X132960762Y-80401325D03*
X168998236Y-70985389D03*
X133526605Y-79700804D03*
X165000973Y-70988422D03*
X133195973Y-78914206D03*
X160006218Y-70999229D03*
X118939381Y-118560755D03*
X121438554Y-119281105D03*
D39*
X223400000Y-93400000D02*
X223400000Y-94600002D01*
X215806172Y-86946418D02*
X215506173Y-87246417D01*
X223400000Y-94600002D02*
X223129879Y-94870123D01*
X216652590Y-86100000D02*
X215806172Y-86946418D01*
X217100000Y-86100000D02*
X216652590Y-86100000D01*
D40*
X122534865Y-112893647D02*
X122976504Y-112452008D01*
X116000000Y-120260000D02*
X116000000Y-119428512D01*
X116000000Y-119428512D02*
X122534865Y-112893647D01*
D39*
X122300000Y-102040000D02*
X122300000Y-100380000D01*
X122300000Y-100380000D02*
X121820000Y-99900000D01*
X123990000Y-116990000D02*
X123159874Y-116159874D01*
X123159874Y-116159874D02*
X123159874Y-112635378D01*
D40*
X116000000Y-120877249D02*
X115393906Y-120271155D01*
X116000000Y-121756726D02*
X116000000Y-120877249D01*
X115390142Y-121000000D02*
X115386469Y-121003673D01*
X116000000Y-121000000D02*
X115390142Y-121000000D01*
X116000000Y-121617204D02*
X115386469Y-121003673D01*
X116000000Y-121756726D02*
X116000000Y-121617204D01*
X116000000Y-120260000D02*
X116000000Y-121000000D01*
X116000000Y-121756726D02*
X116000000Y-120260000D01*
X116000000Y-121756726D02*
X116000000Y-121000000D01*
D39*
X141558093Y-71517643D02*
X141456777Y-71416327D01*
X140198911Y-71416327D02*
X139911815Y-71129231D01*
X139156660Y-71129231D02*
X138646804Y-71639087D01*
X141982357Y-71517643D02*
X141558093Y-71517643D01*
X139911815Y-71129231D02*
X139156660Y-71129231D01*
X141456777Y-71416327D02*
X140198911Y-71416327D01*
X171050000Y-77500000D02*
X171880000Y-77500000D01*
X171880000Y-77500000D02*
X172090000Y-77710000D01*
X137910717Y-81683465D02*
X137257272Y-81030020D01*
X137257272Y-80785447D02*
X137257272Y-81030020D01*
X138384785Y-81683465D02*
X137910717Y-81683465D01*
X136171930Y-79700105D02*
X137257272Y-80785447D01*
X138720660Y-82019340D02*
X138384785Y-81683465D01*
X221629110Y-76210492D02*
X220591182Y-77248420D01*
X221629110Y-74429110D02*
X221629110Y-76210492D01*
X221028070Y-73828070D02*
X221629110Y-74429110D01*
X223600000Y-102000000D02*
X223600000Y-103400000D01*
X221050000Y-86200000D02*
X219800000Y-86200000D01*
X228150000Y-102800000D02*
X228150000Y-103000000D01*
X228150000Y-103000000D02*
X225750000Y-105400000D01*
X225750000Y-105400000D02*
X224400000Y-105400000D01*
X140189707Y-76588834D02*
X140694598Y-77093725D01*
X140694598Y-77093725D02*
X141118862Y-77093725D01*
X140131727Y-76588834D02*
X140189707Y-76588834D01*
X139707464Y-76164571D02*
X140131727Y-76588834D01*
D40*
X147292868Y-182699422D02*
X147796724Y-183203278D01*
X146593446Y-182000000D02*
X147296724Y-182703278D01*
X146000000Y-182000000D02*
X146593446Y-182000000D01*
X147000000Y-182000000D02*
X147000000Y-182699422D01*
X147000000Y-182699422D02*
X147292868Y-182699422D01*
X147292868Y-182699422D02*
X148296723Y-183703277D01*
D39*
X231418359Y-75400000D02*
X230672347Y-76146012D01*
X234600000Y-75400000D02*
X231418359Y-75400000D01*
X211486394Y-78675021D02*
X209924572Y-78675021D01*
X211592102Y-78569313D02*
X211486394Y-78675021D01*
X215084747Y-78569313D02*
X211592102Y-78569313D01*
X215685787Y-79170353D02*
X215084747Y-78569313D01*
X222300000Y-81318198D02*
X222300000Y-82100000D01*
X222300000Y-82100000D02*
X222200000Y-82200000D01*
X123963822Y-74184152D02*
X123963822Y-76387629D01*
X121600000Y-71820330D02*
X123963822Y-74184152D01*
X119250000Y-76400000D02*
X119940782Y-75709218D01*
X118775000Y-76400000D02*
X119250000Y-76400000D01*
X119940782Y-75709218D02*
X120205120Y-75709218D01*
X142339751Y-63660071D02*
X142114736Y-63660071D01*
X142114736Y-63660071D02*
X141400162Y-64374643D01*
X141400162Y-64374643D02*
X141100163Y-64674642D01*
X206200000Y-67569534D02*
X206826716Y-66942818D01*
X206200000Y-68100000D02*
X206200000Y-67569534D01*
X151716964Y-84879731D02*
X151716964Y-85800393D01*
X151716964Y-85800393D02*
X150706229Y-86811128D01*
X150706229Y-86811128D02*
X150706229Y-89093771D01*
X150706229Y-89093771D02*
X150400000Y-89400000D01*
X154500000Y-83700000D02*
X154600000Y-83600000D01*
D41*
X154600000Y-83600000D02*
X155349999Y-84349999D01*
X155349999Y-84349999D02*
X155349999Y-84520659D01*
X155349999Y-84520659D02*
X155199999Y-84670659D01*
D39*
X139000000Y-59200000D02*
X140721320Y-59200000D01*
X140721320Y-59200000D02*
X142340660Y-60819340D01*
X178400000Y-67000000D02*
X181100000Y-67000000D01*
X175827392Y-75600000D02*
X176279731Y-75600000D01*
X173836534Y-73609142D02*
X175827392Y-75600000D01*
X129600000Y-67622183D02*
X131165076Y-67622183D01*
X128077817Y-67622183D02*
X129600000Y-67622183D01*
X120610000Y-70830330D02*
X121600000Y-71820330D01*
X121339340Y-72080990D02*
X121600000Y-71820330D01*
X121339340Y-72120660D02*
X121339340Y-72080990D01*
X173827392Y-73600000D02*
X173836534Y-73609142D01*
X171050000Y-73600000D02*
X173827392Y-73600000D01*
X143039340Y-70460660D02*
X141982357Y-71517643D01*
X119979670Y-70830330D02*
X120610000Y-70830330D01*
X163850000Y-75550000D02*
X163850000Y-76650000D01*
X127830330Y-67869670D02*
X126394478Y-67869670D01*
X126394478Y-67869670D02*
X122800000Y-64275192D01*
X122800000Y-64275192D02*
X122800000Y-61500000D01*
X142340660Y-60819340D02*
X142980660Y-60819340D01*
X142980660Y-60819340D02*
X144700000Y-59100000D01*
X133500000Y-64300000D02*
X131165076Y-66634924D01*
X131165076Y-66634924D02*
X131165076Y-67622183D01*
X134600000Y-63200000D02*
X133500000Y-64300000D01*
X127830330Y-67869670D02*
X128077817Y-67622183D01*
X131165076Y-67622183D02*
X131646446Y-68103553D01*
D40*
X122790000Y-88700000D02*
X122790000Y-90190000D01*
X122790000Y-90190000D02*
X122780000Y-90200000D01*
X122780000Y-90200000D02*
X125650000Y-90200000D01*
X125650000Y-90200000D02*
X125950000Y-90500000D01*
D39*
X209590000Y-68110000D02*
X211240000Y-68110000D01*
X211240000Y-68110000D02*
X211250000Y-68100000D01*
X207880000Y-68110000D02*
X209590000Y-68110000D01*
X206200000Y-68100000D02*
X207870000Y-68100000D01*
X207870000Y-68100000D02*
X207880000Y-68110000D01*
X212940000Y-68110000D02*
X214590000Y-68110000D01*
X214590000Y-68110000D02*
X214610000Y-68090000D01*
X211250000Y-68100000D02*
X212930000Y-68100000D01*
X212930000Y-68100000D02*
X212940000Y-68110000D01*
X212960000Y-68090000D02*
X212940000Y-68110000D01*
X127185786Y-81550776D02*
X126525010Y-80890000D01*
X127185786Y-82414214D02*
X127185786Y-81550776D01*
X144900660Y-63509340D02*
X142490482Y-63509340D01*
X142490482Y-63509340D02*
X142339751Y-63660071D01*
X142340660Y-60819340D02*
X142340660Y-63659162D01*
X142340660Y-63659162D02*
X142339751Y-63660071D01*
X163500000Y-170100000D02*
X163500000Y-172000000D01*
X163500000Y-172000000D02*
X163400000Y-172100000D01*
X156750000Y-172100000D02*
X156750000Y-170150000D01*
X156750000Y-170150000D02*
X156700000Y-170100000D01*
X153100000Y-172100000D02*
X153100000Y-170300000D01*
X153100000Y-170300000D02*
X153300000Y-170100000D01*
X211400000Y-93400000D02*
X211400000Y-93500000D01*
X211400000Y-93500000D02*
X212400000Y-94500000D01*
X206350000Y-93400000D02*
X206350000Y-93650000D01*
X206350000Y-93650000D02*
X207200000Y-94500000D01*
X196300000Y-93500000D02*
X196300000Y-93700000D01*
X196300000Y-93700000D02*
X197100000Y-94500000D01*
X201200000Y-93500000D02*
X201200000Y-93700000D01*
X201200000Y-93700000D02*
X202000000Y-94500000D01*
X217600000Y-140600000D02*
X217600000Y-142000000D01*
D41*
X155199999Y-84670659D02*
X155199999Y-90100001D01*
X155199999Y-90100001D02*
X154900000Y-90400000D01*
D39*
X118849340Y-69700660D02*
X118850000Y-69700660D01*
X118850000Y-69700660D02*
X119979670Y-70830330D01*
X139790000Y-83100000D02*
X139790000Y-83088680D01*
X139790000Y-83088680D02*
X138720660Y-82019340D01*
X132250000Y-88350000D02*
X130510000Y-86610000D01*
X130510000Y-86610000D02*
X130510000Y-85800000D01*
X132250000Y-90500000D02*
X132250000Y-88350000D01*
D40*
X116000000Y-125000000D02*
X116000000Y-121756726D01*
D39*
X221028070Y-73728070D02*
X221028070Y-73828070D01*
X222442283Y-80757717D02*
X222442283Y-81175915D01*
X222442283Y-81175915D02*
X222300000Y-81318198D01*
D40*
X147000000Y-182000000D02*
X147000000Y-181000000D01*
X147000000Y-181000000D02*
X148000000Y-180000000D01*
D42*
X146000000Y-182000000D02*
X147000000Y-182000000D01*
X143000000Y-182000000D02*
X146000000Y-182000000D01*
D40*
X146000000Y-182000000D02*
X146000000Y-180000000D01*
X147000000Y-182000000D02*
X147000000Y-180000000D01*
D43*
X127010000Y-169900000D02*
X127010000Y-172967983D01*
X136042017Y-182000000D02*
X143000000Y-182000000D01*
X127010000Y-172967983D02*
X136042017Y-182000000D01*
D40*
X126000000Y-135000000D02*
X131000000Y-135000000D01*
X130000000Y-135000000D02*
X131000000Y-136000000D01*
X118000000Y-135000000D02*
X117000000Y-134000000D01*
X118000000Y-135000000D02*
X117000000Y-136000000D01*
X120450000Y-135000000D02*
X118000000Y-135000000D01*
D39*
X204692820Y-182400000D02*
X205925042Y-181167778D01*
X205925042Y-181167778D02*
X205925042Y-178335826D01*
X205925042Y-178335826D02*
X202582917Y-174993701D01*
X202582917Y-174993701D02*
X197003640Y-174993701D01*
X205492820Y-183800000D02*
X206906541Y-182386279D01*
X206906541Y-182386279D02*
X206906541Y-178108495D01*
X206906541Y-178108495D02*
X203092267Y-174294221D01*
X203092267Y-174294221D02*
X197301055Y-174294221D01*
X197301055Y-174294221D02*
X197001056Y-173994222D01*
X203900000Y-181000000D02*
X204970935Y-179929065D01*
X204970935Y-179929065D02*
X204970935Y-178734888D01*
X204970935Y-178734888D02*
X202234974Y-175998927D01*
X202234974Y-175998927D02*
X196997223Y-175998927D01*
X203092820Y-179600000D02*
X203569136Y-179123684D01*
X203569136Y-179123684D02*
X203569136Y-178593325D01*
X201972906Y-176997095D02*
X196998211Y-176997095D01*
X203569136Y-178593325D02*
X201972906Y-176997095D01*
D40*
X126000000Y-135000000D02*
X126000000Y-133000000D01*
X126000000Y-133000000D02*
X128000000Y-131000000D01*
X126000000Y-135000000D02*
X126000000Y-134000000D01*
X126000000Y-134000000D02*
X128000000Y-132000000D01*
X120450000Y-135000000D02*
X120450000Y-132550000D01*
X120450000Y-132550000D02*
X121000000Y-132000000D01*
X120450000Y-135000000D02*
X120450000Y-131550000D01*
X120450000Y-131550000D02*
X121000000Y-131000000D01*
X126000000Y-135000000D02*
X130000000Y-135000000D01*
X130000000Y-135000000D02*
X131000000Y-134000000D01*
X120450000Y-135000000D02*
X116000000Y-135000000D01*
X134250000Y-90500000D02*
X135000000Y-91250000D01*
X132250000Y-90500000D02*
X134250000Y-90500000D01*
X134250000Y-90500000D02*
X135000000Y-89750000D01*
X132250000Y-90500000D02*
X135000000Y-90500000D01*
X132250000Y-90500000D02*
X125950000Y-90500000D01*
X126000000Y-139850000D02*
X129850000Y-139850000D01*
X129850000Y-139850000D02*
X130000000Y-140000000D01*
X116000000Y-125000000D02*
X116000000Y-130900000D01*
X116000000Y-130900000D02*
X120100000Y-135000000D01*
X120100000Y-135000000D02*
X120450000Y-135000000D01*
X123225000Y-146575000D02*
X123225000Y-137425000D01*
D39*
X151600000Y-172100000D02*
X151600000Y-170183526D01*
X151600000Y-170183526D02*
X151679391Y-170104135D01*
D40*
X149000000Y-94500000D02*
X150000000Y-94500000D01*
X150000000Y-94500000D02*
X151000000Y-94500000D01*
D41*
X153600000Y-88400000D02*
X150000000Y-92000000D01*
X150000000Y-92000000D02*
X150000000Y-94500000D01*
X153600000Y-86870660D02*
X153600000Y-88400000D01*
X153690000Y-85720000D02*
X153690000Y-86780660D01*
X153690000Y-86780660D02*
X153600000Y-86870660D01*
D39*
X161800000Y-170100000D02*
X161800000Y-172000000D01*
X161800000Y-172000000D02*
X161900000Y-172100000D01*
X158250000Y-172100000D02*
X158250000Y-170250000D01*
X158250000Y-170250000D02*
X158400000Y-170100000D01*
X209900000Y-93400000D02*
X209900000Y-93600000D01*
X209900000Y-93600000D02*
X209000000Y-94500000D01*
X204850000Y-93400000D02*
X204850000Y-93650000D01*
X204850000Y-93650000D02*
X204000000Y-94500000D01*
X194800000Y-93500000D02*
X193800000Y-94500000D01*
X199700000Y-93500000D02*
X199700000Y-93600000D01*
X199700000Y-93600000D02*
X198800000Y-94500000D01*
X216001053Y-138599574D02*
X217099574Y-138599574D01*
X217099574Y-138599574D02*
X217600000Y-139100000D01*
D40*
X133430000Y-124530000D02*
X133430000Y-123000000D01*
X133430000Y-126355000D02*
X133430000Y-124530000D01*
X133430000Y-123000000D02*
X133460000Y-122970000D01*
X132950000Y-128470000D02*
X132950000Y-126835000D01*
X132950000Y-126835000D02*
X133430000Y-126355000D01*
D39*
X193000481Y-185350000D02*
X193000481Y-174300481D01*
X193000481Y-174300481D02*
X188700000Y-170000000D01*
D40*
X145681762Y-88422012D02*
X145681762Y-93031762D01*
X145681762Y-93031762D02*
X147150000Y-94500000D01*
X159000000Y-94500000D02*
X161000000Y-94500000D01*
X157000000Y-94500000D02*
X159000000Y-94500000D01*
X155000000Y-94500000D02*
X157000000Y-94500000D01*
X153000000Y-94500000D02*
X155000000Y-94500000D01*
X151000000Y-94500000D02*
X153000000Y-94500000D01*
X147150000Y-94500000D02*
X149000000Y-94500000D01*
D39*
X216009731Y-96175872D02*
X135512750Y-96175872D01*
X135512750Y-96175872D02*
X134403966Y-97284656D01*
X136029663Y-97052907D02*
X134777727Y-98304843D01*
X134777727Y-98304843D02*
X134698869Y-98304843D01*
X134698869Y-98304843D02*
X134398870Y-98604842D01*
X215993389Y-97052907D02*
X136029663Y-97052907D01*
X216000000Y-99100000D02*
X135840020Y-99100000D01*
X135840020Y-99100000D02*
X134478660Y-100461360D01*
X136298599Y-99996356D02*
X216003874Y-99996356D01*
X134505758Y-101789197D02*
X136298599Y-99996356D01*
X135986631Y-102200606D02*
X215952473Y-102200606D01*
X134552678Y-103634559D02*
X135986631Y-102200606D01*
X136271017Y-103028983D02*
X215945648Y-103028983D01*
X134500000Y-104800000D02*
X136271017Y-103028983D01*
X136100000Y-105100000D02*
X134500000Y-106700000D01*
X216000000Y-105100000D02*
X136100000Y-105100000D01*
X136400000Y-106100000D02*
X134500000Y-108000000D01*
X216000000Y-106100000D02*
X136400000Y-106100000D01*
X135751620Y-108548380D02*
X216007456Y-108548380D01*
X134500000Y-109800000D02*
X135751620Y-108548380D01*
X134500000Y-111100000D02*
X136242723Y-109357277D01*
X136242723Y-109357277D02*
X216002671Y-109357277D01*
X135902182Y-111597818D02*
X215998257Y-111597818D01*
X134600000Y-112900000D02*
X135902182Y-111597818D01*
X136299564Y-112500436D02*
X215998257Y-112500436D01*
X134600000Y-114200000D02*
X136299564Y-112500436D01*
X135612938Y-114562798D02*
X216019457Y-114562798D01*
X134600000Y-115575736D02*
X135612938Y-114562798D01*
X134600000Y-116000000D02*
X134600000Y-115575736D01*
X215700000Y-115100000D02*
X136900000Y-115100000D01*
X136900000Y-115100000D02*
X134600000Y-117400000D01*
X216000000Y-115400000D02*
X215700000Y-115100000D01*
X136200000Y-117600000D02*
X134600000Y-119200000D01*
X216000000Y-117600000D02*
X136200000Y-117600000D01*
X216000000Y-118400000D02*
X136700000Y-118400000D01*
X136700000Y-118400000D02*
X134600000Y-120500000D01*
X216023821Y-120862087D02*
X136037913Y-120862087D01*
X136037913Y-120862087D02*
X134600000Y-122300000D01*
X215475736Y-121600000D02*
X136600000Y-121600000D01*
X136600000Y-121600000D02*
X134600000Y-123600000D01*
X216000000Y-121700000D02*
X215575736Y-121700000D01*
X215575736Y-121700000D02*
X215475736Y-121600000D01*
X134600000Y-125500000D02*
X136099775Y-124000225D01*
X136099775Y-124000225D02*
X216003877Y-124000225D01*
X136301509Y-124998491D02*
X216003875Y-124998491D01*
X134600000Y-126700000D02*
X136301509Y-124998491D01*
X135999592Y-127100408D02*
X216000665Y-127100408D01*
X134600000Y-128500000D02*
X135999592Y-127100408D01*
X134600000Y-129800000D02*
X136310672Y-128089328D01*
X136310672Y-128089328D02*
X216011027Y-128089328D01*
X135999352Y-130200648D02*
X215999905Y-130200648D01*
X134600000Y-131600000D02*
X135999352Y-130200648D01*
X136599341Y-131000659D02*
X216000000Y-131000659D01*
X134600000Y-133000000D02*
X136599341Y-131000659D01*
X215275736Y-133400000D02*
X136000000Y-133400000D01*
X136000000Y-133400000D02*
X134600000Y-134800000D01*
X216000000Y-133100000D02*
X215575736Y-133100000D01*
X215575736Y-133100000D02*
X215275736Y-133400000D01*
X215275736Y-134300000D02*
X136400000Y-134300000D01*
X136400000Y-134300000D02*
X134600000Y-136100000D01*
X216000000Y-134000000D02*
X215575736Y-134000000D01*
X215575736Y-134000000D02*
X215275736Y-134300000D01*
X136008527Y-136491473D02*
X216013258Y-136491473D01*
X134600000Y-137900000D02*
X136008527Y-136491473D01*
X136508655Y-137291345D02*
X215998291Y-137291345D01*
X134600000Y-139200000D02*
X136508655Y-137291345D01*
X134600000Y-141000000D02*
X136110641Y-139489359D01*
X215668240Y-139489359D02*
X215968239Y-139789358D01*
X136110641Y-139489359D02*
X215668240Y-139489359D01*
X136681054Y-140200000D02*
X215191122Y-140200000D01*
X215579694Y-140588572D02*
X216003958Y-140588572D01*
X134600000Y-142300000D02*
X136406166Y-140493834D01*
X136406166Y-140474888D02*
X136681054Y-140200000D01*
X136406166Y-140493834D02*
X136406166Y-140474888D01*
X215191122Y-140200000D02*
X215579694Y-140588572D01*
X136109137Y-142690863D02*
X215986851Y-142690863D01*
X134600000Y-144200000D02*
X136109137Y-142690863D01*
X136799999Y-143200001D02*
X134600000Y-145400000D01*
X215275737Y-143200001D02*
X136799999Y-143200001D01*
X216000000Y-143500000D02*
X215575736Y-143500000D01*
X215575736Y-143500000D02*
X215275737Y-143200001D01*
X216000000Y-145800000D02*
X136100000Y-145800000D01*
X136100000Y-145800000D02*
X134600000Y-147300000D01*
X134600000Y-148600000D02*
X136470631Y-146729369D01*
X136470631Y-146729369D02*
X216037126Y-146729369D01*
X216000000Y-148800000D02*
X136200000Y-148800000D01*
X136200000Y-148800000D02*
X134600000Y-150400000D01*
X215475736Y-149600000D02*
X136700000Y-149600000D01*
X136700000Y-149600000D02*
X134600000Y-151700000D01*
X216000000Y-149700000D02*
X215575736Y-149700000D01*
X215575736Y-149700000D02*
X215475736Y-149600000D01*
X216000000Y-152000000D02*
X136100000Y-152000000D01*
X136100000Y-152000000D02*
X134600000Y-153500000D01*
X216000000Y-152800000D02*
X136600000Y-152800000D01*
X136600000Y-152800000D02*
X134600000Y-154800000D01*
X215175736Y-155500000D02*
X135700000Y-155500000D01*
X135700000Y-155500000D02*
X134600000Y-156600000D01*
X216000000Y-155100000D02*
X215575736Y-155100000D01*
X215575736Y-155100000D02*
X215175736Y-155500000D01*
X136636307Y-155963693D02*
X215999754Y-155963693D01*
X134600000Y-158000000D02*
X136636307Y-155963693D01*
X215275736Y-158500000D02*
X135900000Y-158500000D01*
X135900000Y-158500000D02*
X134600000Y-159800000D01*
X216000000Y-158200000D02*
X215575736Y-158200000D01*
X215575736Y-158200000D02*
X215275736Y-158500000D01*
X216000000Y-159000000D02*
X136700000Y-159000000D01*
X136700000Y-159000000D02*
X134600000Y-161100000D01*
X136049989Y-161450011D02*
X215966248Y-161450011D01*
X134600000Y-162900000D02*
X136049989Y-161450011D01*
X136550786Y-162249214D02*
X216002214Y-162249214D01*
X134600000Y-164200000D02*
X136550786Y-162249214D01*
X135884949Y-164715051D02*
X215991919Y-164715051D01*
X134600000Y-166000000D02*
X135884949Y-164715051D01*
X136248315Y-165751685D02*
X216008180Y-165751685D01*
X134600000Y-167400000D02*
X136248315Y-165751685D01*
X218588552Y-75065508D02*
X211672206Y-75065508D01*
X211672206Y-75065508D02*
X210176988Y-76560726D01*
X204976966Y-76560726D02*
X206594482Y-76560726D01*
X210176988Y-76560726D02*
X206594482Y-76560726D01*
X219189592Y-75666548D02*
X218588552Y-75065508D01*
X204181533Y-75765293D02*
X204976966Y-76560726D01*
X208506404Y-72843596D02*
X208506404Y-73442096D01*
X211250000Y-70100000D02*
X208506404Y-72843596D01*
X211250000Y-69600000D02*
X211250000Y-70100000D01*
X211495415Y-74605889D02*
X210407121Y-75694183D01*
X210407121Y-75694183D02*
X204994321Y-75694183D01*
X204994321Y-75694183D02*
X204236748Y-74936610D01*
X219048171Y-74605889D02*
X211495415Y-74605889D01*
X219649211Y-75206929D02*
X219048171Y-74605889D01*
X206200000Y-72886180D02*
X205644084Y-73442096D01*
X206200000Y-69600000D02*
X206200000Y-72886180D01*
X205709077Y-75236609D02*
X204610653Y-74138185D01*
X209108300Y-75236609D02*
X205709077Y-75236609D01*
X204610653Y-74138185D02*
X204186389Y-74138185D01*
X209275736Y-75069173D02*
X209108300Y-75236609D01*
X209700000Y-75069173D02*
X209275736Y-75069173D01*
X214410000Y-69590000D02*
X210791277Y-73208723D01*
X210791277Y-73208723D02*
X210350470Y-73208723D01*
X214610000Y-69590000D02*
X214410000Y-69590000D01*
X210350470Y-73208723D02*
X210117097Y-73442096D01*
X211047168Y-74146269D02*
X210124264Y-75069173D01*
X219507791Y-74146269D02*
X211047168Y-74146269D01*
X210124264Y-75069173D02*
X209700000Y-75069173D01*
X220108831Y-74747309D02*
X219507791Y-74146269D01*
X205609875Y-74453560D02*
X204576732Y-73420417D01*
X208922146Y-74453560D02*
X205609875Y-74453560D01*
X212740000Y-69610000D02*
X209306417Y-73043583D01*
X212940000Y-69610000D02*
X212740000Y-69610000D01*
X209306417Y-73043583D02*
X209306417Y-73442096D01*
X220568450Y-74287690D02*
X219967410Y-73686650D01*
X210000001Y-74444172D02*
X208931534Y-74444172D01*
X208931534Y-74444172D02*
X208922146Y-74453560D01*
X219967410Y-73686650D02*
X210757523Y-73686650D01*
X210757523Y-73686650D02*
X210000001Y-74444172D01*
X208600000Y-74453560D02*
X208922146Y-74453560D01*
X225341420Y-102812526D02*
X225353946Y-102800000D01*
X225353946Y-102800000D02*
X226650000Y-102800000D01*
X222815661Y-105338285D02*
X222269445Y-105338285D01*
X225341420Y-102812526D02*
X222815661Y-105338285D01*
X225341420Y-79060660D02*
X225341420Y-102812526D01*
X224740380Y-78459620D02*
X225341420Y-79060660D01*
X223600000Y-100500000D02*
X223600000Y-100000000D01*
X223600000Y-100000000D02*
X222626021Y-99026021D01*
X222626021Y-99026021D02*
X222313186Y-99026021D01*
X222313186Y-99026021D02*
X222313186Y-104280427D01*
X224280761Y-78919239D02*
X224881801Y-79520279D01*
X224881801Y-79520279D02*
X224881801Y-96457406D01*
X222313186Y-104280427D02*
X222013187Y-104580426D01*
X224881801Y-96457406D02*
X222313186Y-99026021D01*
X224422181Y-88132526D02*
X222200000Y-90354707D01*
X222354707Y-90354707D02*
X222200000Y-90354707D01*
X222200000Y-90354707D02*
X221863175Y-90691532D01*
X223400000Y-91900000D02*
X223400000Y-91400000D01*
X223400000Y-91400000D02*
X222354707Y-90354707D01*
X224422181Y-79979899D02*
X224422181Y-88132526D01*
X223821141Y-79378859D02*
X224422181Y-79979899D01*
X221688176Y-103355321D02*
X221688176Y-103779585D01*
X221863175Y-103180322D02*
X221688176Y-103355321D01*
X221863175Y-90691532D02*
X221863175Y-103180322D01*
X221238165Y-90680132D02*
X221238165Y-102756690D01*
X223962562Y-87955735D02*
X221238165Y-90680132D01*
X223962562Y-86200000D02*
X223962562Y-87955735D01*
X223962562Y-80439518D02*
X223962562Y-86200000D01*
X222550000Y-86200000D02*
X223962562Y-86200000D01*
X223361522Y-79838478D02*
X223962562Y-80439518D01*
X209890413Y-79948172D02*
X209309806Y-80528779D01*
X205710345Y-78381511D02*
X205286081Y-78381511D01*
X207857613Y-80528779D02*
X205710345Y-78381511D01*
X214306928Y-80549212D02*
X213705888Y-79948172D01*
X213705888Y-79948172D02*
X209890413Y-79948172D01*
X209309806Y-80528779D02*
X207857613Y-80528779D01*
X207880000Y-69610000D02*
X207880000Y-70110000D01*
X206720736Y-71269264D02*
X206720736Y-73442096D01*
X207880000Y-70110000D02*
X206720736Y-71269264D01*
X217835068Y-80746277D02*
X216029876Y-80746277D01*
X216029876Y-80746277D02*
X214706662Y-82069491D01*
X218270353Y-76585787D02*
X218270353Y-80310992D01*
X218270353Y-80310992D02*
X217835068Y-80746277D01*
X214706662Y-82069491D02*
X213988729Y-82069491D01*
X213988729Y-82069491D02*
X213387689Y-81468451D01*
X207064326Y-80978790D02*
X205291116Y-79205580D01*
X213246269Y-80407791D02*
X210067205Y-80407791D01*
X213847309Y-81008831D02*
X213246269Y-80407791D01*
X209496206Y-80978790D02*
X207064326Y-80978790D01*
X210067205Y-80407791D02*
X209496206Y-80978790D01*
X207643580Y-72056420D02*
X207643580Y-73442096D01*
X209590000Y-69610000D02*
X209590000Y-70110000D01*
X209590000Y-70110000D02*
X207643580Y-72056420D01*
X136525483Y-69517767D02*
X139821067Y-66222183D01*
X139821067Y-66222183D02*
X140622183Y-66222183D01*
X140622183Y-66222183D02*
X141400000Y-67000000D01*
X143840000Y-64570000D02*
X141410000Y-67000000D01*
X141410000Y-67000000D02*
X141400000Y-67000000D01*
X139353910Y-76518124D02*
X139990475Y-77154689D01*
X139990475Y-77154689D02*
X140084092Y-77154689D01*
X140084092Y-77154689D02*
X140677959Y-77748556D01*
X140677959Y-77748556D02*
X142429746Y-77748556D01*
X144100000Y-71097361D02*
X143741285Y-71456076D01*
X140667207Y-71856338D02*
X140954515Y-72143646D01*
X139749558Y-71589242D02*
X140016654Y-71856338D01*
X143053715Y-72143646D02*
X143741285Y-71456076D01*
X140954515Y-72143646D02*
X143053715Y-72143646D01*
X144100000Y-69400000D02*
X144100000Y-71097361D01*
X139000357Y-71992641D02*
X139403756Y-71589242D01*
X140016654Y-71856338D02*
X140667207Y-71856338D01*
X139403756Y-71589242D02*
X139749558Y-71589242D01*
X171618487Y-72481513D02*
X171700000Y-72400000D01*
X168550000Y-73600000D02*
X168550000Y-72925000D01*
X168550000Y-72925000D02*
X168993487Y-72481513D01*
X168993487Y-72481513D02*
X171618487Y-72481513D01*
X135910598Y-82267200D02*
X136005244Y-82267200D01*
X134757716Y-81114318D02*
X135910598Y-82267200D01*
X137474440Y-84160660D02*
X136005244Y-82691464D01*
X136005244Y-82691464D02*
X136005244Y-82267200D01*
X138729340Y-84160660D02*
X137474440Y-84160660D01*
X222200000Y-73662564D02*
X222200000Y-76800000D01*
X221487689Y-73368451D02*
X221905887Y-73368451D01*
X221905887Y-73368451D02*
X222200000Y-73662564D01*
X192124990Y-186750000D02*
X192100000Y-186774990D01*
X193800962Y-186750000D02*
X192124990Y-186750000D01*
D41*
X125950000Y-86069257D02*
X125974836Y-86069257D01*
X125974836Y-86069257D02*
X127196159Y-84847934D01*
X125937793Y-87041796D02*
X127659768Y-85319821D01*
X125937793Y-87074911D02*
X125937793Y-87041796D01*
X125937793Y-87016960D02*
X126649763Y-86304990D01*
X125950000Y-88200000D02*
X125937793Y-88187793D01*
X125937793Y-87074911D02*
X125937793Y-87016960D01*
X125937793Y-88187793D02*
X125937793Y-87074911D01*
X126841734Y-85808266D02*
X127154766Y-85808266D01*
X125950000Y-86700000D02*
X126841734Y-85808266D01*
X125950000Y-88200000D02*
X125950000Y-86700000D01*
X125950000Y-86069257D02*
X126186155Y-85833102D01*
X126186155Y-85833102D02*
X126186155Y-85766949D01*
X125950000Y-88200000D02*
X125950000Y-86069257D01*
X125950000Y-86077536D02*
X126732551Y-85294985D01*
X125950000Y-88200000D02*
X125950000Y-86077536D01*
D39*
X189400000Y-67200000D02*
X187000000Y-67200000D01*
X187000000Y-67200000D02*
X186700000Y-66900000D01*
X126189602Y-75811017D02*
X125477632Y-76522987D01*
X126696699Y-75811017D02*
X126189602Y-75811017D01*
X133100000Y-66821320D02*
X132171320Y-67750000D01*
X134560660Y-65360660D02*
X133100000Y-66821320D01*
X144100000Y-69400000D02*
X145139340Y-68360660D01*
X132171320Y-67750000D02*
X132000000Y-67750000D01*
X135660660Y-64260660D02*
X134560660Y-65360660D01*
D40*
X122790000Y-87200000D02*
X124950000Y-87200000D01*
X124950000Y-87200000D02*
X125950000Y-88200000D01*
D39*
X123190000Y-85070000D02*
X123190000Y-86800000D01*
X123190000Y-86800000D02*
X122790000Y-87200000D01*
X122790000Y-85470000D02*
X123190000Y-85070000D01*
X125920000Y-88230000D02*
X125950000Y-88200000D01*
X119910000Y-68640000D02*
X119910660Y-68640000D01*
X119910660Y-68640000D02*
X121040330Y-69769670D01*
X122169670Y-69769670D02*
X126696699Y-74296699D01*
X126696699Y-74296699D02*
X126696699Y-75811017D01*
X121040330Y-69769670D02*
X122169670Y-69769670D01*
X217535066Y-80100394D02*
X217535066Y-80121275D01*
X216145406Y-78710734D02*
X217535066Y-80100394D01*
D42*
X196909901Y-82509901D02*
X199400000Y-85000000D01*
X199400000Y-85000000D02*
X204200000Y-85000000D01*
X194450044Y-79392226D02*
X196909901Y-81852083D01*
X196909901Y-81852083D02*
X196909901Y-82509901D01*
D43*
X153470000Y-187530000D02*
X153000000Y-187060000D01*
X153000000Y-187060000D02*
X153000000Y-179210000D01*
X153470000Y-187530000D02*
X161278442Y-187530000D01*
X161278442Y-187530000D02*
X161278442Y-187488442D01*
D42*
X229400000Y-144433826D02*
X218531390Y-133565216D01*
X211526891Y-89210000D02*
X204200000Y-89210000D01*
X218366497Y-96049606D02*
X211526891Y-89210000D01*
X218366497Y-97489610D02*
X218366497Y-96049606D01*
X218531390Y-133565216D02*
X218531390Y-97654503D01*
X218531390Y-97654503D02*
X218366497Y-97489610D01*
X229400000Y-148200000D02*
X229400000Y-144433826D01*
D39*
X120756701Y-90904543D02*
X124532896Y-94680738D01*
X124532896Y-94680738D02*
X124975654Y-94680738D01*
X120756701Y-88496041D02*
X120756701Y-90904543D01*
X118960660Y-86700000D02*
X120756701Y-88496041D01*
X117900000Y-86700000D02*
X118960660Y-86700000D01*
X133819956Y-82888910D02*
X134745628Y-82888910D01*
X130774998Y-83500002D02*
X131099998Y-83825002D01*
X132883864Y-83825002D02*
X133819956Y-82888910D01*
X131099998Y-83825002D02*
X132883864Y-83825002D01*
X130774998Y-81632213D02*
X130774998Y-83500002D01*
X131646446Y-80760765D02*
X130774998Y-81632213D01*
X135108931Y-82888910D02*
X134745628Y-82888910D01*
X137582147Y-85362126D02*
X135108931Y-82888910D01*
X124551390Y-95541720D02*
X124975654Y-95541720D01*
X119500000Y-89000000D02*
X119500000Y-90490330D01*
X119500000Y-90490330D02*
X124551390Y-95541720D01*
X133303610Y-84275013D02*
X134006343Y-83572280D01*
X133227347Y-84275013D02*
X133303610Y-84275013D01*
X133227347Y-84275013D02*
X135517496Y-84275013D01*
X135517496Y-84275013D02*
X137322859Y-86080376D01*
X137322859Y-86080376D02*
X140137005Y-86080376D01*
X140137005Y-86080376D02*
X140361868Y-85855513D01*
X140361868Y-85855513D02*
X140786132Y-85855513D01*
X130939340Y-80053658D02*
X130324987Y-80668011D01*
X130324987Y-80668011D02*
X130324987Y-83686402D01*
X130324987Y-83686402D02*
X130913598Y-84275013D01*
X130913598Y-84275013D02*
X133227347Y-84275013D01*
X126856441Y-78904026D02*
X126805099Y-78955368D01*
X127249266Y-78793984D02*
X127110019Y-78793984D01*
X128464466Y-77578784D02*
X127249266Y-78793984D01*
X127110019Y-78793984D02*
X126999977Y-78904026D01*
X126239632Y-78955368D02*
X125175000Y-80020000D01*
X126805099Y-78955368D02*
X126239632Y-78955368D01*
X126999977Y-78904026D02*
X126856441Y-78904026D01*
X125175000Y-80020000D02*
X124440000Y-80020000D01*
X121244020Y-80686640D02*
X121244020Y-79862627D01*
X116730000Y-84140000D02*
X117790660Y-84140000D01*
X117790660Y-84140000D02*
X121244020Y-80686640D01*
X123160000Y-80020000D02*
X121401393Y-80020000D01*
X121401393Y-80020000D02*
X121244020Y-79862627D01*
X119825973Y-77050000D02*
X120209513Y-76666460D01*
X118775000Y-77050000D02*
X119825973Y-77050000D01*
X121670422Y-79000000D02*
X121837131Y-79166709D01*
X118775000Y-79000000D02*
X121670422Y-79000000D01*
X126541145Y-79513855D02*
X127136897Y-79513855D01*
X127136897Y-79536897D02*
X127136897Y-79513855D01*
X124410000Y-82530000D02*
X124410000Y-81645000D01*
X127236502Y-79513855D02*
X127136897Y-79513855D01*
X128818019Y-77932338D02*
X127236502Y-79513855D01*
X124410000Y-81645000D02*
X126541145Y-79513855D01*
X128600000Y-81000000D02*
X127136897Y-79536897D01*
X196700000Y-188800000D02*
X199907180Y-188800000D01*
X199907180Y-188800000D02*
X204107180Y-184600000D01*
X148800000Y-68753413D02*
X143987303Y-73566110D01*
X139707464Y-72699747D02*
X140110862Y-72296349D01*
X141740568Y-73566110D02*
X143987303Y-73566110D01*
X148800000Y-61900000D02*
X148800000Y-68753413D01*
X140110862Y-72296349D02*
X140470807Y-72296349D01*
X140470807Y-72296349D02*
X141740568Y-73566110D01*
X119825000Y-146575000D02*
X119825000Y-144825000D01*
X119825000Y-144825000D02*
X118511194Y-143511194D01*
X124927714Y-98285806D02*
X124927714Y-103823804D01*
X124927714Y-103823804D02*
X122281508Y-106470010D01*
X122281508Y-106470010D02*
X120619990Y-106470010D01*
X120619990Y-106470010D02*
X115280000Y-111810000D01*
X115280000Y-111810000D02*
X115280000Y-116920000D01*
X115280000Y-116920000D02*
X113160000Y-119040000D01*
X113160000Y-119040000D02*
X113160000Y-134560000D01*
X113160000Y-134560000D02*
X116180000Y-137580000D01*
X116180000Y-137580000D02*
X116180000Y-141180000D01*
X116180000Y-141180000D02*
X119825000Y-144825000D01*
X122980074Y-99359048D02*
X123415740Y-98923382D01*
X123415740Y-98923382D02*
X124290138Y-98923382D01*
X124290138Y-98923382D02*
X124927714Y-98285806D01*
X124927714Y-98285806D02*
X124095632Y-97453724D01*
X148800000Y-61900000D02*
X150500000Y-61900000D01*
X157924998Y-69225002D02*
X165550000Y-61600000D01*
X165550000Y-61600000D02*
X178400000Y-61600000D01*
X150500000Y-61900000D02*
X151900000Y-63300000D01*
X151900000Y-63300000D02*
X151900000Y-63750000D01*
X151900000Y-63750000D02*
X153600000Y-65450000D01*
X153600000Y-65450000D02*
X153600000Y-66208379D01*
X153600000Y-66208379D02*
X154748570Y-67356949D01*
X154748570Y-67356949D02*
X154748570Y-68079911D01*
X154748570Y-68079911D02*
X155893661Y-69225002D01*
X155893661Y-69225002D02*
X157924998Y-69225002D01*
X130227408Y-144000000D02*
X129738602Y-143511194D01*
X131500000Y-144000000D02*
X130227408Y-144000000D01*
X163170000Y-77390000D02*
X162870001Y-77090001D01*
X162870001Y-77090001D02*
X162142951Y-77090001D01*
X162142951Y-77090001D02*
X157924481Y-72871531D01*
X157924481Y-72871531D02*
X157624482Y-72571532D01*
X166535000Y-76940000D02*
X165560000Y-76940000D01*
X167850000Y-76300000D02*
X167175000Y-76300000D01*
X167175000Y-76300000D02*
X166535000Y-76940000D01*
X156742717Y-72571532D02*
X157624482Y-72571532D01*
X155751778Y-73694989D02*
X156329315Y-73117452D01*
X139000357Y-76871677D02*
X139733380Y-77604700D01*
X145958690Y-76724195D02*
X148987896Y-73694989D01*
X139733380Y-77604700D02*
X139897692Y-77604700D01*
X156329315Y-72984934D02*
X156742717Y-72571532D01*
X139897692Y-77604700D02*
X140656550Y-78363558D01*
X144364311Y-76724195D02*
X145958690Y-76724195D01*
X142724948Y-78363558D02*
X144364311Y-76724195D01*
X140656550Y-78363558D02*
X142724948Y-78363558D01*
X156329315Y-73117452D02*
X156329315Y-72984934D01*
X148987896Y-73694989D02*
X155751778Y-73694989D01*
X158337423Y-71516520D02*
X158740363Y-71919460D01*
X154500000Y-70200000D02*
X155816520Y-71516520D01*
X155816520Y-71516520D02*
X158337423Y-71516520D01*
X140061017Y-73053301D02*
X141273482Y-74265766D01*
X144173902Y-74822136D02*
X145209234Y-74822136D01*
X148281381Y-71749989D02*
X150900000Y-71749989D01*
X145209234Y-74822136D02*
X148281381Y-71749989D01*
X141273482Y-74265766D02*
X143617532Y-74265766D01*
X143617532Y-74265766D02*
X144173902Y-74822136D01*
X156735449Y-71956531D02*
X157919683Y-71956531D01*
X155569516Y-73254982D02*
X155889316Y-72935182D01*
X158239483Y-72360777D02*
X158769996Y-72891290D01*
X157919683Y-71956531D02*
X158239483Y-72276331D01*
X152404993Y-73254982D02*
X155569516Y-73254982D01*
X155889316Y-72935182D02*
X155889316Y-72802664D01*
X150900000Y-71749989D02*
X152404993Y-73254982D01*
X158239483Y-72276331D02*
X158239483Y-72360777D01*
X158769996Y-72891290D02*
X165766290Y-72891290D01*
X155889316Y-72802664D02*
X156735449Y-71956531D01*
X165766290Y-72891290D02*
X167175000Y-74300000D01*
X167175000Y-74300000D02*
X167850000Y-74300000D01*
X152300000Y-65800000D02*
X152300000Y-66860660D01*
X152300000Y-66860660D02*
X150900000Y-68260660D01*
X150900000Y-68260660D02*
X150900000Y-71749989D01*
X147597957Y-77604217D02*
X151067175Y-74134999D01*
X151067175Y-74134999D02*
X155078799Y-74134999D01*
X140263750Y-79243580D02*
X143089464Y-79243580D01*
X138293250Y-77578784D02*
X139200219Y-78485753D01*
X144728827Y-77604217D02*
X147597957Y-77604217D01*
X139200219Y-78485753D02*
X139505923Y-78485753D01*
X143089464Y-79243580D02*
X144728827Y-77604217D01*
X139505923Y-78485753D02*
X140263750Y-79243580D01*
X152750001Y-68649999D02*
X152750001Y-70115667D01*
X152750001Y-70115667D02*
X155274314Y-72639980D01*
X153500000Y-67900000D02*
X152750001Y-68649999D01*
X156101201Y-74134999D02*
X158827169Y-76860967D01*
X156061015Y-74134999D02*
X156950062Y-73245952D01*
X155078799Y-74134999D02*
X156061015Y-74134999D01*
X163208892Y-78414499D02*
X165823391Y-75800000D01*
X165823391Y-75800000D02*
X167850000Y-75800000D01*
X158827169Y-76860967D02*
X161017280Y-76860967D01*
X155078799Y-74134999D02*
X156101201Y-74134999D01*
X161017280Y-76860967D02*
X162570812Y-78414499D01*
X162570812Y-78414499D02*
X163208892Y-78414499D01*
X139338492Y-78954733D02*
X138962092Y-78954733D01*
X140067350Y-79683591D02*
X139338492Y-78954733D01*
X144911085Y-78044228D02*
X143271722Y-79683591D01*
X138962092Y-78954733D02*
X137939697Y-77932338D01*
X154000000Y-77314074D02*
X153010913Y-76324987D01*
X149513598Y-76324987D02*
X147794357Y-78044228D01*
X147794357Y-78044228D02*
X144911085Y-78044228D01*
X143271722Y-79683591D02*
X140067350Y-79683591D01*
X153010913Y-76324987D02*
X149513598Y-76324987D01*
X172705002Y-77080002D02*
X172425000Y-76800000D01*
X172705002Y-78035202D02*
X172705002Y-77080002D01*
X172425000Y-76800000D02*
X171750000Y-76800000D01*
X172040204Y-78700000D02*
X172705002Y-78035202D01*
X160833976Y-77314074D02*
X162403002Y-78883100D01*
X165261821Y-78700000D02*
X172040204Y-78700000D01*
X165026020Y-78935801D02*
X165261821Y-78700000D01*
X164373317Y-78883100D02*
X164426018Y-78935801D01*
X162403002Y-78883100D02*
X164373317Y-78883100D01*
X164426018Y-78935801D02*
X165026020Y-78935801D01*
X154000000Y-77314074D02*
X160833976Y-77314074D01*
X155590000Y-75200000D02*
X155590000Y-76260660D01*
X154536586Y-77314074D02*
X154000000Y-77314074D01*
X155590000Y-76260660D02*
X154536586Y-77314074D01*
X142907206Y-78803569D02*
X144546569Y-77164206D01*
X146988660Y-77164206D02*
X147600095Y-76552771D01*
X139466284Y-78044711D02*
X139701291Y-78044711D01*
X140460149Y-78803569D02*
X142907206Y-78803569D01*
X138646804Y-77225231D02*
X139466284Y-78044711D01*
X144546569Y-77164206D02*
X146988660Y-77164206D01*
X139701291Y-78044711D02*
X140460149Y-78803569D01*
X172886411Y-76300000D02*
X171750000Y-76300000D01*
X173400011Y-76813600D02*
X172886411Y-76300000D01*
X173400011Y-78036400D02*
X173400011Y-76813600D01*
X172050599Y-79385812D02*
X173400011Y-78036400D01*
X161347225Y-79385812D02*
X172050599Y-79385812D01*
X160361413Y-78400000D02*
X161347225Y-79385812D01*
X155600000Y-78400000D02*
X160361413Y-78400000D01*
X153350000Y-77974990D02*
X153350000Y-77971033D01*
X153774264Y-77974990D02*
X153350000Y-77974990D01*
X155600000Y-78400000D02*
X154199274Y-78400000D01*
X154199274Y-78400000D02*
X153774264Y-77974990D01*
X137660000Y-82316646D02*
X137660000Y-83080000D01*
X135111270Y-80760765D02*
X135535533Y-81185028D01*
X136528382Y-81185028D02*
X137660000Y-82316646D01*
X135535533Y-81185028D02*
X136528382Y-81185028D01*
X127618098Y-77649494D02*
X126813577Y-78454015D01*
X123505357Y-78505357D02*
X123000000Y-78000000D01*
X127686649Y-77649494D02*
X127618098Y-77649494D01*
X126670041Y-78454015D02*
X126618699Y-78505357D01*
X126813577Y-78454015D02*
X126670041Y-78454015D01*
X128110912Y-77225231D02*
X127686649Y-77649494D01*
X123000000Y-78000000D02*
X122500000Y-78000000D01*
X126618699Y-78505357D02*
X123505357Y-78505357D01*
X122550000Y-76600000D02*
X122550000Y-76400000D01*
X126432299Y-78055346D02*
X124005346Y-78055346D01*
X126625032Y-78004004D02*
X126483641Y-78004004D01*
X127757359Y-76871677D02*
X126625032Y-78004004D01*
X124005346Y-78055346D02*
X122550000Y-76600000D01*
X126483641Y-78004004D02*
X126432299Y-78055346D01*
X124808623Y-76742309D02*
X124808623Y-73538623D01*
X127050252Y-76164571D02*
X126059499Y-77155324D01*
X126059499Y-77155324D02*
X125221638Y-77155324D01*
X125221638Y-77155324D02*
X124808623Y-76742309D01*
X124808623Y-73538623D02*
X122330000Y-71060000D01*
D42*
X127000000Y-156000000D02*
X127000000Y-163000000D01*
X123638800Y-156000000D02*
X127000000Y-156000000D01*
D40*
X123100000Y-156538800D02*
X123638800Y-156000000D01*
X123638800Y-156000000D02*
X124925000Y-154713800D01*
X124925000Y-154713800D02*
X124925000Y-146575000D01*
D39*
X165300000Y-74033036D02*
X165283036Y-74050000D01*
X165283036Y-74050000D02*
X163850000Y-74050000D01*
X166700000Y-74783036D02*
X166700000Y-74825000D01*
X167175000Y-75300000D02*
X167850000Y-75300000D01*
X166700000Y-74825000D02*
X167175000Y-75300000D01*
X165300000Y-74033036D02*
X165950000Y-74033036D01*
X165950000Y-74033036D02*
X166700000Y-74783036D01*
X173403305Y-75100000D02*
X173786341Y-75100000D01*
X173786341Y-75100000D02*
X174920269Y-76233928D01*
X173103305Y-74800000D02*
X173403305Y-75100000D01*
X173103305Y-74800000D02*
X171750000Y-74800000D01*
X121050000Y-76748806D02*
X121050000Y-76400000D01*
X120098806Y-77700000D02*
X121050000Y-76748806D01*
X118775000Y-77700000D02*
X120098806Y-77700000D01*
X118775000Y-78350000D02*
X120650000Y-78350000D01*
X120650000Y-78350000D02*
X121000000Y-78000000D01*
X122116423Y-74816423D02*
X116900000Y-69600000D01*
X122616423Y-74816423D02*
X122116423Y-74816423D01*
X123284941Y-75484941D02*
X122616423Y-74816423D01*
X123284941Y-76665663D02*
X123284941Y-75484941D01*
X124224613Y-77605335D02*
X123284941Y-76665663D01*
X126245899Y-77605335D02*
X124224613Y-77605335D01*
X126908847Y-76942387D02*
X126245899Y-77605335D01*
X127403806Y-76518124D02*
X126979543Y-76942387D01*
X126979543Y-76942387D02*
X126908847Y-76942387D01*
X118000000Y-67300000D02*
X118022964Y-67277036D01*
X118022964Y-67277036D02*
X120920434Y-67277036D01*
X120920434Y-67277036D02*
X126696699Y-73053301D01*
X136171930Y-69164213D02*
X139448403Y-65887740D01*
X139448403Y-65887740D02*
X139448403Y-65048403D01*
X139448403Y-65048403D02*
X138783704Y-64383704D01*
X141280000Y-61880000D02*
X138783704Y-64376296D01*
X138783704Y-64376296D02*
X138783704Y-64383704D01*
D42*
X126471604Y-100893282D02*
X129288322Y-103710000D01*
X126471604Y-93321604D02*
X126471604Y-100893282D01*
X125950000Y-92800000D02*
X126471604Y-93321604D01*
X131048322Y-105470000D02*
X130190000Y-104611678D01*
X132217267Y-106638945D02*
X131048322Y-105470000D01*
X130190000Y-104611678D02*
X129288322Y-103710000D01*
D39*
X192000000Y-188600000D02*
X192450000Y-188150000D01*
X192450000Y-188150000D02*
X194600962Y-188150000D01*
X131670000Y-128470000D02*
X131670000Y-131270000D01*
X131670000Y-131270000D02*
X131800000Y-131400000D01*
D42*
X132217267Y-120782733D02*
X132217267Y-106638945D01*
X130750000Y-122250000D02*
X132217267Y-120782733D01*
D40*
X142047244Y-89000000D02*
X139000000Y-89000000D01*
X144709740Y-86337504D02*
X142047244Y-89000000D01*
D39*
X124850000Y-91700000D02*
X125950000Y-92800000D01*
X122780000Y-91700000D02*
X124850000Y-91700000D01*
X123130000Y-82530000D02*
X123130000Y-83415000D01*
X123130000Y-83415000D02*
X121425002Y-85119998D01*
X121425002Y-85119998D02*
X121425002Y-90620123D01*
X121425002Y-90620123D02*
X122172725Y-91367846D01*
X122172725Y-91367846D02*
X122181436Y-91367846D01*
X122181436Y-91367846D02*
X122593599Y-91780009D01*
X122593599Y-91780009D02*
X122780000Y-91780009D01*
D40*
X120889413Y-149875000D02*
X120900000Y-149875000D01*
X120900000Y-149875000D02*
X121525000Y-149250000D01*
X128000000Y-125000000D02*
X128350000Y-125000000D01*
X128350000Y-125000000D02*
X131670000Y-128320000D01*
X131670000Y-128320000D02*
X131670000Y-128470000D01*
D39*
X125920000Y-92830000D02*
X125950000Y-92800000D01*
D40*
X115000000Y-141000000D02*
X115000000Y-140000000D01*
X114000000Y-141000000D02*
X114000000Y-140000000D01*
X113000000Y-141000000D02*
X113000000Y-140000000D01*
X114299991Y-142024379D02*
X114299991Y-141700009D01*
X114299991Y-141700009D02*
X115000000Y-141000000D01*
X114299991Y-142024379D02*
X114299991Y-141299991D01*
X114299991Y-141299991D02*
X114000000Y-141000000D01*
X114299991Y-142024379D02*
X114024379Y-142024379D01*
X114024379Y-142024379D02*
X113000000Y-141000000D01*
D42*
X118000000Y-156000000D02*
X118000000Y-152687773D01*
X118000000Y-152687773D02*
X114299991Y-148987764D01*
X114299991Y-148987764D02*
X114299991Y-142024379D01*
D40*
X139050288Y-88949712D02*
X139000000Y-89000000D01*
D42*
X132651874Y-96002302D02*
X131997698Y-96002302D01*
X131997698Y-96002302D02*
X131000000Y-97000000D01*
X131000000Y-96002302D02*
X130997698Y-96002302D01*
X130997698Y-96002302D02*
X130000000Y-97000000D01*
X132651874Y-96002302D02*
X131000000Y-96002302D01*
X130000000Y-96000000D02*
X130997698Y-96000000D01*
X130997698Y-96000000D02*
X131000000Y-96002302D01*
X139000000Y-89000000D02*
X139000000Y-92760104D01*
X139000000Y-92760104D02*
X137555969Y-94204135D01*
X137555969Y-94204135D02*
X134450041Y-94204135D01*
X134450041Y-94204135D02*
X132651874Y-96002302D01*
D40*
X118000000Y-156000000D02*
X118000000Y-152764413D01*
X118000000Y-152764413D02*
X120889413Y-149875000D01*
X121525000Y-149250000D02*
X121525000Y-146575000D01*
D42*
X129500000Y-123500000D02*
X130750000Y-122250000D01*
X128000000Y-125000000D02*
X129500000Y-123500000D01*
X124000000Y-125000000D02*
X128000000Y-125000000D01*
D39*
X132510000Y-85800000D02*
X132010000Y-85800000D01*
X133240387Y-86530387D02*
X132510000Y-85800000D01*
X141460328Y-86530387D02*
X133240387Y-86530387D01*
X143737718Y-84252997D02*
X141460328Y-86530387D01*
X130165918Y-84181133D02*
X129534968Y-84181133D01*
X132010000Y-85600000D02*
X131510000Y-85100000D01*
X125205000Y-85070000D02*
X126673843Y-83601157D01*
X132010000Y-85800000D02*
X132010000Y-85600000D01*
X128954992Y-83601157D02*
X129534968Y-84181133D01*
X124470000Y-85070000D02*
X125205000Y-85070000D01*
X131084785Y-85100000D02*
X130165918Y-84181133D01*
X131510000Y-85100000D02*
X131084785Y-85100000D01*
X126673843Y-83601157D02*
X128954992Y-83601157D01*
X127050252Y-72699747D02*
X131436180Y-77085675D01*
X131436180Y-77085675D02*
X131436180Y-77622194D01*
X122980000Y-68629495D02*
X122980000Y-68580000D01*
X122980000Y-68580000D02*
X119500000Y-65100000D01*
X127050252Y-72699747D02*
X122980000Y-68629495D01*
X195100000Y-186000000D02*
X198314360Y-186000000D01*
X198314360Y-186000000D02*
X202514360Y-181800000D01*
X195900000Y-187400000D02*
X199107180Y-187400000D01*
X199107180Y-187400000D02*
X203307180Y-183200000D01*
X194299519Y-184600000D02*
X197507180Y-184600000D01*
X197507180Y-184600000D02*
X201707180Y-180400000D01*
X148017474Y-84417474D02*
X147819223Y-84417474D01*
X149000000Y-85400000D02*
X148017474Y-84417474D01*
X147394959Y-84417474D02*
X146965383Y-83987898D01*
X146965383Y-83987898D02*
X146965383Y-81441476D01*
X147819223Y-84417474D02*
X147394959Y-84417474D01*
X146965383Y-81441476D02*
X146965383Y-81017212D01*
X145074754Y-74115645D02*
X144650490Y-74115645D01*
X149950001Y-69240398D02*
X145074754Y-74115645D01*
X150700000Y-63800000D02*
X149950001Y-64549999D01*
X149950001Y-64549999D02*
X149950001Y-69240398D01*
D43*
X128925000Y-146575000D02*
X130250000Y-147900000D01*
X130250000Y-147900000D02*
X132062784Y-149712784D01*
D39*
X131500000Y-145500000D02*
X131500000Y-146000000D01*
X131500000Y-146000000D02*
X130250000Y-147250000D01*
X130250000Y-147250000D02*
X130250000Y-147900000D01*
D43*
X132062784Y-149712784D02*
X132062784Y-170062784D01*
X132062784Y-170062784D02*
X136000000Y-174000000D01*
X136000000Y-174000000D02*
X143000000Y-174000000D01*
D39*
X195400962Y-189550000D02*
X195147240Y-189803722D01*
X195147240Y-189803722D02*
X175103722Y-189803722D01*
X175103722Y-189803722D02*
X160300000Y-175000000D01*
X160300000Y-175000000D02*
X153000000Y-175000000D01*
D43*
X153000000Y-175000000D02*
X149550000Y-175000000D01*
X149550000Y-175000000D02*
X148550000Y-174000000D01*
X148550000Y-174000000D02*
X143000000Y-174000000D01*
D44*
X128925000Y-146575000D02*
X126625000Y-146575000D01*
D39*
X143987502Y-75272147D02*
X145852546Y-75272147D01*
X140875010Y-74715777D02*
X143431132Y-74715777D01*
X139979487Y-73820253D02*
X140875010Y-74715777D01*
X145852546Y-75272147D02*
X146096822Y-75516423D01*
X130232233Y-69517767D02*
X134534719Y-73820253D01*
X134534719Y-73820253D02*
X139979487Y-73820253D01*
X143431132Y-74715777D02*
X143987502Y-75272147D01*
X159775303Y-79595204D02*
X160475225Y-80295126D01*
X156632209Y-79595204D02*
X159775303Y-79595204D01*
X151125012Y-79925012D02*
X156302401Y-79925012D01*
X149400000Y-78200000D02*
X151125012Y-79925012D01*
X156302401Y-79925012D02*
X156632209Y-79595204D01*
X127757359Y-71992641D02*
X133734269Y-77969551D01*
X133734269Y-77969551D02*
X135123351Y-77969551D01*
X196500000Y-68276141D02*
X195892103Y-68884038D01*
X196500000Y-68250000D02*
X196500000Y-68276141D01*
X195892103Y-68884038D02*
X193590960Y-68884038D01*
X201000000Y-73800000D02*
X204408941Y-77208941D01*
X204408941Y-77208941D02*
X207208941Y-77208941D01*
X207208941Y-77208941D02*
X207400000Y-77400000D01*
X176369646Y-68884038D02*
X173554589Y-66068981D01*
X162047121Y-66068981D02*
X157533169Y-70582933D01*
X173554589Y-66068981D02*
X162047121Y-66068981D01*
X193590960Y-68884038D02*
X176369646Y-68884038D01*
X134277623Y-74270264D02*
X139793087Y-74270264D01*
X143458191Y-75379247D02*
X144188137Y-76109193D01*
X139793087Y-74270264D02*
X140902070Y-75379247D01*
X129878679Y-69871320D02*
X134277623Y-74270264D01*
X144188137Y-76109193D02*
X145574574Y-76109193D01*
X140902070Y-75379247D02*
X143458191Y-75379247D01*
X150694236Y-80378135D02*
X149439269Y-79123168D01*
X159358591Y-80078136D02*
X159058592Y-80378135D01*
X159058592Y-80378135D02*
X150694236Y-80378135D01*
X159358591Y-80078136D02*
X159358591Y-80225010D01*
X135051425Y-79993813D02*
X134725621Y-79993813D01*
X134725621Y-79993813D02*
X134000764Y-80718670D01*
X134000764Y-81760774D02*
X133167354Y-82594184D01*
X135464823Y-80407211D02*
X135051425Y-79993813D01*
X134000764Y-80718670D02*
X134000764Y-81760774D01*
X135308519Y-79543802D02*
X134553363Y-79543802D01*
X133560637Y-81039363D02*
X131400000Y-83200000D01*
X135818376Y-80053658D02*
X135308519Y-79543802D01*
X134553363Y-79543802D02*
X133560753Y-80536412D01*
X133560753Y-80993603D02*
X133560637Y-81039363D01*
X133560753Y-80536412D02*
X133560753Y-80993603D01*
X179091677Y-179908323D02*
X168388384Y-179908323D01*
X185800000Y-173200000D02*
X179091677Y-179908323D01*
X196734749Y-69606253D02*
X194457356Y-69606253D01*
X197750000Y-68591002D02*
X196734749Y-69606253D01*
X176455450Y-69606253D02*
X194457356Y-69606253D01*
X173368189Y-66518992D02*
X176455450Y-69606253D01*
X159001999Y-71004886D02*
X163487893Y-66518992D01*
X197750000Y-66000000D02*
X197750000Y-68591002D01*
X206175736Y-77833951D02*
X206098295Y-77756510D01*
X206098295Y-77756510D02*
X203799023Y-77756510D01*
X203799023Y-77756510D02*
X200157524Y-74115011D01*
X206600000Y-77833951D02*
X206175736Y-77833951D01*
X163487893Y-66518992D02*
X173368189Y-66518992D01*
X132452922Y-77395310D02*
X132452922Y-77626559D01*
X127403806Y-72346194D02*
X132452922Y-77395310D01*
X147325552Y-80113476D02*
X146901288Y-80113476D01*
X217972780Y-82741243D02*
X213239011Y-87475012D01*
X167131256Y-87475012D02*
X161406277Y-81750033D01*
X213239011Y-87475012D02*
X167131256Y-87475012D01*
X148962109Y-81750033D02*
X147325552Y-80113476D01*
X219256677Y-82741243D02*
X217972780Y-82741243D01*
X161406277Y-81750033D02*
X148962109Y-81750033D01*
X219857717Y-83342283D02*
X219256677Y-82741243D01*
X140713239Y-76463239D02*
X142449961Y-76463239D01*
X140061017Y-75811017D02*
X140713239Y-76463239D01*
X221656677Y-83943323D02*
X220458757Y-83943323D01*
X223910273Y-77398960D02*
X221000000Y-80309233D01*
X221800000Y-83800000D02*
X221656677Y-83943323D01*
X221800000Y-82800000D02*
X221800000Y-83800000D01*
X220458757Y-83943323D02*
X219857717Y-83342283D01*
X221000000Y-80309233D02*
X221000000Y-82000000D01*
X224598960Y-77398960D02*
X223910273Y-77398960D01*
X221000000Y-82000000D02*
X221800000Y-82800000D01*
X225200000Y-78000000D02*
X224598960Y-77398960D01*
X232160000Y-84960000D02*
X232160000Y-85660000D01*
X232160000Y-85660000D02*
X232500000Y-86000000D01*
X225200000Y-78000000D02*
X232160000Y-84960000D01*
X153800005Y-79475001D02*
X156116000Y-79475001D01*
X136879037Y-78992998D02*
X138582350Y-80696311D01*
X138582350Y-80696311D02*
X139807676Y-80696311D01*
X156740992Y-78850010D02*
X160175012Y-78850010D01*
X151700002Y-77374998D02*
X153800005Y-79475001D01*
X139807676Y-80696311D02*
X139936836Y-80825471D01*
X139936836Y-80825471D02*
X144235821Y-80825471D01*
X161160825Y-79835823D02*
X178164177Y-79835823D01*
X160175012Y-78850010D02*
X161160825Y-79835823D01*
X178164177Y-79835823D02*
X183815851Y-74184149D01*
X144235821Y-80825471D02*
X146453811Y-78607481D01*
X146453811Y-78607481D02*
X147867515Y-78607481D01*
X149099998Y-77374998D02*
X151700002Y-77374998D01*
X147867515Y-78607481D02*
X149099998Y-77374998D01*
X197002778Y-74184149D02*
X204746699Y-81928070D01*
X156116000Y-79475001D02*
X156740992Y-78850010D01*
X204746699Y-81928070D02*
X212509872Y-81928070D01*
X183815851Y-74184149D02*
X197002778Y-74184149D01*
X212509872Y-81928070D02*
X212928070Y-81928070D01*
X213529110Y-82529110D02*
X212928070Y-81928070D01*
X214919948Y-82529110D02*
X213529110Y-82529110D01*
X216252770Y-81196288D02*
X214919948Y-82529110D01*
X219772765Y-80509263D02*
X219085740Y-81196288D01*
X219085740Y-81196288D02*
X216252770Y-81196288D01*
X219772765Y-80263646D02*
X219772765Y-80509263D01*
X231632690Y-78000000D02*
X229832690Y-76200000D01*
X229832690Y-76200000D02*
X223836411Y-76200000D01*
X223836411Y-76200000D02*
X219772765Y-80263646D01*
X234600000Y-78000000D02*
X231632690Y-78000000D01*
X212928070Y-81961930D02*
X212928070Y-81928070D01*
X193472403Y-87012533D02*
X187132148Y-80672278D01*
X220317336Y-82464466D02*
X220144102Y-82291232D01*
X213052611Y-87025001D02*
X210418840Y-87025001D01*
X220144102Y-82291232D02*
X217786380Y-82291232D01*
X217786380Y-82291232D02*
X213052611Y-87025001D01*
X187132148Y-80672278D02*
X161861763Y-80672278D01*
X161234019Y-81300022D02*
X149338791Y-81300022D01*
X149338791Y-81300022D02*
X147321890Y-79283121D01*
X147321890Y-79283121D02*
X146897626Y-79283121D01*
X210406372Y-87012533D02*
X193472403Y-87012533D01*
X210418840Y-87025001D02*
X210406372Y-87012533D01*
X161861763Y-80672278D02*
X161234019Y-81300022D01*
X142713840Y-75829258D02*
X143338843Y-76454261D01*
X140715670Y-75829258D02*
X142713840Y-75829258D01*
X139930477Y-75044065D02*
X140715670Y-75829258D01*
X134344317Y-75044065D02*
X139930477Y-75044065D01*
X129525126Y-70224874D02*
X134344317Y-75044065D01*
X220317336Y-82882664D02*
X220317336Y-82464466D01*
X225659619Y-77540381D02*
X225058579Y-76939341D01*
X223733481Y-76939341D02*
X220317336Y-80355486D01*
X220317336Y-80355486D02*
X220317336Y-82464466D01*
X225058579Y-76939341D02*
X223733481Y-76939341D01*
X231579238Y-83460000D02*
X233600000Y-83460000D01*
X225659619Y-77540381D02*
X231579238Y-83460000D01*
X138582464Y-61837983D02*
X134504588Y-57760107D01*
X134504588Y-57760107D02*
X126919893Y-57760107D01*
X121100000Y-61450000D02*
X121100000Y-63100000D01*
X126919893Y-57760107D02*
X124560000Y-60120000D01*
X124560000Y-60120000D02*
X122430000Y-60120000D01*
X122430000Y-60120000D02*
X121100000Y-61450000D01*
X165525001Y-60274999D02*
X157200000Y-68600000D01*
X189400000Y-61800000D02*
X188350000Y-61800000D01*
X188350000Y-61800000D02*
X186824999Y-60274999D01*
X186824999Y-60274999D02*
X165525001Y-60274999D01*
X126769670Y-68930330D02*
X126769670Y-69383884D01*
X126769670Y-69383884D02*
X127600000Y-70214214D01*
X127600000Y-70214214D02*
X127600000Y-70400000D01*
X129400000Y-68600000D02*
X130021573Y-68600000D01*
X130021573Y-68600000D02*
X130585786Y-69164213D01*
X127600000Y-70400000D02*
X129400000Y-68600000D01*
X125600000Y-70400000D02*
X127600000Y-70400000D01*
X121800000Y-66600000D02*
X125600000Y-70400000D01*
X121800000Y-64860660D02*
X121800000Y-66600000D01*
X121100000Y-63100000D02*
X121100000Y-64160660D01*
X121100000Y-64160660D02*
X121800000Y-64860660D01*
X130585786Y-69145786D02*
X130585786Y-69164213D01*
X136879037Y-69871320D02*
X138267906Y-68482451D01*
X141113953Y-68870645D02*
X141389061Y-68870645D01*
X146674481Y-65297025D02*
X146674481Y-65125519D01*
X142999706Y-67260000D02*
X144711506Y-67260000D01*
X144711506Y-67260000D02*
X146674481Y-65297025D01*
X140725759Y-68482451D02*
X141113953Y-68870645D01*
X141389061Y-68870645D02*
X142999706Y-67260000D01*
X138267906Y-68482451D02*
X140725759Y-68482451D01*
X135600000Y-70400000D02*
X136350357Y-70400000D01*
X136350357Y-70400000D02*
X136879037Y-69871320D01*
X133800000Y-68600000D02*
X135600000Y-70400000D01*
X133800000Y-67600000D02*
X133800000Y-68600000D01*
X136600000Y-64800000D02*
X133800000Y-67600000D01*
X136600000Y-63250000D02*
X136600000Y-64800000D01*
X133600000Y-59200000D02*
X133600000Y-60250000D01*
X133600000Y-60250000D02*
X136600000Y-63250000D01*
X146200000Y-67300000D02*
X146447487Y-67052513D01*
X146447487Y-67052513D02*
X146447487Y-65352513D01*
X146447487Y-65352513D02*
X146674481Y-65125519D01*
X146674481Y-64537709D02*
X146700000Y-64512190D01*
X146700000Y-64512190D02*
X146700000Y-60300000D01*
X146674481Y-65125519D02*
X146674481Y-64537709D01*
X196756159Y-70221254D02*
X194162155Y-70221254D01*
X164771024Y-67238642D02*
X161013266Y-70996400D01*
X194074951Y-70134050D02*
X176346837Y-70134050D01*
X194162155Y-70221254D02*
X194074951Y-70134050D01*
X173451429Y-67238642D02*
X164771024Y-67238642D01*
X199250000Y-67727413D02*
X196756159Y-70221254D01*
X176346837Y-70134050D02*
X173451429Y-67238642D01*
X199250000Y-64000000D02*
X199250000Y-67727413D01*
X137232590Y-70224874D02*
X138535002Y-68922462D01*
X138535002Y-68922462D02*
X140151448Y-68922462D01*
X140151448Y-68922462D02*
X140546714Y-69317728D01*
X140546714Y-69317728D02*
X141967066Y-69317728D01*
X141967066Y-69317728D02*
X141968043Y-69316751D01*
X141968043Y-69316751D02*
X142469003Y-69316751D01*
X142469003Y-69316751D02*
X142497846Y-69345594D01*
X176160438Y-70584061D02*
X173283628Y-67707251D01*
X199700011Y-65566861D02*
X199700011Y-67913813D01*
X193902693Y-70584061D02*
X176160438Y-70584061D01*
X196952559Y-70661265D02*
X193979897Y-70661265D01*
X199700011Y-67913813D02*
X196952559Y-70661265D01*
X201000000Y-64266873D02*
X199700011Y-65566861D01*
X193979897Y-70661265D02*
X193902693Y-70584061D01*
X173283628Y-67707251D02*
X165303803Y-67707251D01*
X201000000Y-62250000D02*
X201000000Y-64266873D01*
X165303803Y-67707251D02*
X162000511Y-71010543D01*
X137586143Y-70578427D02*
X138735178Y-69429392D01*
X140363888Y-70026297D02*
X141890071Y-70026297D01*
X138735178Y-69429392D02*
X139766983Y-69429392D01*
X139766983Y-69429392D02*
X140363888Y-70026297D01*
X193730435Y-71034072D02*
X175967477Y-71034072D01*
X165682622Y-68309749D02*
X163003949Y-70988422D01*
X173243154Y-68309749D02*
X165682622Y-68309749D01*
X200150022Y-68100213D02*
X197148959Y-71101276D01*
X175967477Y-71034072D02*
X173243154Y-68309749D01*
X193797639Y-71101276D02*
X193730435Y-71034072D01*
X203000000Y-60500000D02*
X203000000Y-62903283D01*
X200150022Y-65753261D02*
X200150022Y-68100213D01*
X203000000Y-62903283D02*
X200150022Y-65753261D01*
X197148959Y-71101276D02*
X193797639Y-71101276D01*
X140327416Y-70657870D02*
X141383253Y-70657870D01*
X139548949Y-69879403D02*
X140327416Y-70657870D01*
X138992274Y-69879403D02*
X139548949Y-69879403D01*
X137939697Y-70931980D02*
X138992274Y-69879403D01*
X197345359Y-71541287D02*
X193615381Y-71541287D01*
X173108824Y-68811830D02*
X166186745Y-68811830D01*
X200600033Y-68286613D02*
X197345359Y-71541287D01*
X166186745Y-68811830D02*
X164010153Y-70988422D01*
X205250000Y-59250000D02*
X205250000Y-61289694D01*
X200600033Y-65939661D02*
X200600033Y-68286613D01*
X175781077Y-71484083D02*
X173108824Y-68811830D01*
X193615381Y-71541287D02*
X193558177Y-71484083D01*
X193558177Y-71484083D02*
X175781077Y-71484083D01*
X205250000Y-61289694D02*
X200600033Y-65939661D01*
X138293250Y-71285534D02*
X139074379Y-70504405D01*
X139074379Y-70504405D02*
X139282846Y-70504405D01*
X138704996Y-79404744D02*
X139133123Y-79404744D01*
X139938842Y-80210463D02*
X143348693Y-80210463D01*
X139133123Y-79404744D02*
X139938842Y-80210463D01*
X143348693Y-80210463D02*
X143772957Y-80210463D01*
X137586143Y-78285891D02*
X138704996Y-79404744D01*
X201050044Y-68473013D02*
X201050044Y-66126061D01*
X201050044Y-66126061D02*
X207750000Y-59426105D01*
X197541759Y-71981298D02*
X201050044Y-68473013D01*
X207750000Y-59426105D02*
X207750000Y-58250000D01*
X193385919Y-71934094D02*
X193433123Y-71981298D01*
X168669569Y-69330648D02*
X172991231Y-69330648D01*
X193433123Y-71981298D02*
X197541759Y-71981298D01*
X166997264Y-71002953D02*
X168669569Y-69330648D01*
X175594677Y-71934094D02*
X193385919Y-71934094D01*
X172991231Y-69330648D02*
X175594677Y-71934094D01*
X169222073Y-69782521D02*
X168019205Y-70985389D01*
X172806693Y-69782521D02*
X169222073Y-69782521D01*
X175408277Y-72384105D02*
X172806693Y-69782521D01*
X201500055Y-68659413D02*
X197738159Y-72421309D01*
X210250000Y-57500000D02*
X209500001Y-58249999D01*
X201500055Y-66312461D02*
X201500055Y-68659413D01*
X193213661Y-72384105D02*
X175408277Y-72384105D01*
X209500001Y-58249999D02*
X209500001Y-58312515D01*
X197738159Y-72421309D02*
X193250865Y-72421309D01*
X209500001Y-58312515D02*
X201500055Y-66312461D01*
X193250865Y-72421309D02*
X193213661Y-72384105D01*
X137232590Y-78639444D02*
X138664447Y-80071301D01*
X138664447Y-80071301D02*
X138899513Y-80071301D01*
X132960762Y-80171020D02*
X132960762Y-80401325D01*
X130585786Y-79700105D02*
X130999185Y-79286706D01*
X130999185Y-79286706D02*
X132076448Y-79286706D01*
X132076448Y-79286706D02*
X132960762Y-80171020D01*
X173073150Y-70685390D02*
X169298235Y-70685390D01*
X175221876Y-72834116D02*
X173073150Y-70685390D01*
X193041403Y-72834116D02*
X175221876Y-72834116D01*
X197934559Y-72861320D02*
X193068607Y-72861320D01*
X208803547Y-59645380D02*
X201950066Y-66498861D01*
X212750000Y-57000000D02*
X210104620Y-59645380D01*
X193068607Y-72861320D02*
X193041403Y-72834116D01*
X210104620Y-59645380D02*
X208803547Y-59645380D01*
X169298235Y-70685390D02*
X168998236Y-70985389D01*
X201950066Y-66498861D02*
X201950066Y-68845813D01*
X201950066Y-68845813D02*
X197934559Y-72861320D01*
X132258706Y-78846695D02*
X133112814Y-79700804D01*
X130232233Y-79346551D02*
X130732089Y-78846695D01*
X133112814Y-79700804D02*
X133526605Y-79700804D01*
X130732089Y-78846695D02*
X132258706Y-78846695D01*
X175035477Y-73284127D02*
X173080562Y-71329212D01*
X165674970Y-71662419D02*
X165000973Y-70988422D01*
X169757726Y-71329212D02*
X169485447Y-71601491D01*
X169485447Y-71601491D02*
X168628971Y-71601491D01*
X215500000Y-57000000D02*
X212404609Y-60095391D01*
X173080562Y-71329212D02*
X169757726Y-71329212D01*
X208989947Y-60095391D02*
X202400077Y-66685261D01*
X192886349Y-73301331D02*
X192869145Y-73284127D01*
X198130959Y-73301331D02*
X192886349Y-73301331D01*
X212404609Y-60095391D02*
X208989947Y-60095391D01*
X192869145Y-73284127D02*
X175035477Y-73284127D01*
X168628971Y-71601491D02*
X168568043Y-71662419D01*
X168568043Y-71662419D02*
X165674970Y-71662419D01*
X202400077Y-69032213D02*
X198130959Y-73301331D01*
X202400077Y-66685261D02*
X202400077Y-69032213D01*
X132671897Y-78390130D02*
X133195973Y-78914206D01*
X129878679Y-78992998D02*
X130481547Y-78390130D01*
X130481547Y-78390130D02*
X132671897Y-78390130D01*
X161256026Y-72249037D02*
X160006218Y-70999229D01*
X168811229Y-72041502D02*
X168603694Y-72249037D01*
X192696887Y-73734138D02*
X174849077Y-73734138D01*
X198400062Y-73741342D02*
X192704091Y-73741342D01*
X169681847Y-72041502D02*
X168811229Y-72041502D01*
X192704091Y-73741342D02*
X192696887Y-73734138D01*
X202850088Y-66871661D02*
X202850087Y-69291317D01*
X214954598Y-60545402D02*
X209176347Y-60545402D01*
X218250000Y-57250000D02*
X214954598Y-60545402D01*
X172894162Y-71779223D02*
X169944126Y-71779223D01*
X169944126Y-71779223D02*
X169681847Y-72041502D01*
X209176347Y-60545402D02*
X202850088Y-66871661D01*
X174849077Y-73734138D02*
X172894162Y-71779223D01*
X202850087Y-69291317D02*
X198400062Y-73741342D01*
X168603694Y-72249037D02*
X161256026Y-72249037D01*
X138872964Y-81146322D02*
X138325254Y-81146322D01*
X148984244Y-87017583D02*
X143441318Y-81474657D01*
X139201299Y-81474657D02*
X138872964Y-81146322D01*
X143441318Y-81474657D02*
X139201299Y-81474657D01*
X138325254Y-81146322D02*
X136525483Y-79346551D01*
X151083036Y-83520269D02*
X150730144Y-83873161D01*
X150730144Y-83873161D02*
X150730144Y-85271683D01*
X150730144Y-85271683D02*
X148984244Y-87017583D01*
X148984244Y-87017583D02*
X148984244Y-87614103D01*
X119659731Y-119281105D02*
X118939381Y-118560755D01*
X121438554Y-119281105D02*
X119659731Y-119281105D01*
X116100000Y-78900000D02*
X116100000Y-81500000D01*
X116100000Y-76500000D02*
X116100000Y-73900000D01*
X116100000Y-76500000D02*
X116100000Y-78900000D01*
X116100000Y-73900000D02*
X117950000Y-73900000D01*
X117950000Y-73900000D02*
X118650000Y-74600000D01*
X116100000Y-81500000D02*
X117950000Y-81500000D01*
X117950000Y-81500000D02*
X118650000Y-80800000D01*
M02*
